  0
SECTION
  2
HEADER
  9
$ACADVER
  1
AC1015
  9
$ACADMAINTVER
 70
6
  9
$DWGCODEPAGE
  3
ANSI_1252
  9
$INSBASE
 10
0.0
 20
0.0
 30
0.0
  9
$EXTMIN
 10
1e+20
 20
1e+20
 30
1e+20
  9
$EXTMAX
 10
-1e+20
 20
-1e+20
 30
-1e+20
  9
$LIMMIN
 10
0.0
 20
0.0
  9
$LIMMAX
 10
420.0
 20
297.0
  9
$ORTHOMODE
 70
0
  9
$REGENMODE
 70
1
  9
$FILLMODE
 70
1
  9
$QTEXTMODE
 70
0
  9
$MIRRTEXT
 70
1
  9
$LTSCALE
 40
1.0
  9
$ATTMODE
 70
1
  9
$TEXTSIZE
 40
2.5
  9
$TRACEWID
 40
1.0
  9
$TEXTSTYLE
  7
Standard
  9
$CLAYER
  8
0
  9
$CELTYPE
  6
ByLayer
  9
$CECOLOR
 62
256
  9
$CELTSCALE
 40
1.0
  9
$DISPSILH
 70
0
  9
$DIMSCALE
 40
1.0
  9
$DIMASZ
 40
2.5
  9
$DIMEXO
 40
0.625
  9
$DIMDLI
 40
3.75
  9
$DIMRND
 40
0.0
  9
$DIMDLE
 40
0.0
  9
$DIMEXE
 40
1.25
  9
$DIMTP
 40
0.0
  9
$DIMTM
 40
0.0
  9
$DIMTXT
 40
2.5
  9
$DIMCEN
 40
2.5
  9
$DIMTSZ
 40
0.0
  9
$DIMTOL
 70
0
  9
$DIMLIM
 70
0
  9
$DIMTIH
 70
0
  9
$DIMTOH
 70
0
  9
$DIMSE1
 70
0
  9
$DIMSE2
 70
0
  9
$DIMTAD
 70
1
  9
$DIMZIN
 70
8
  9
$DIMBLK
  1

  9
$DIMASO
 70
1
  9
$DIMSHO
 70
1
  9
$DIMPOST
  1

  9
$DIMAPOST
  1

  9
$DIMALT
 70
0
  9
$DIMALTD
 70
3
  9
$DIMALTF
 40
0.03937007874
  9
$DIMLFAC
 40
1.0
  9
$DIMTOFL
 70
1
  9
$DIMTVP
 40
0.0
  9
$DIMTIX
 70
0
  9
$DIMSOXD
 70
0
  9
$DIMSAH
 70
0
  9
$DIMBLK1
  1

  9
$DIMBLK2
  1

  9
$DIMSTYLE
  2
ISO-25
  9
$DIMCLRD
 70
0
  9
$DIMCLRE
 70
0
  9
$DIMCLRT
 70
0
  9
$DIMTFAC
 40
1.0
  9
$DIMGAP
 40
0.625
  9
$DIMJUST
 70
0
  9
$DIMSD1
 70
0
  9
$DIMSD2
 70
0
  9
$DIMTOLJ
 70
0
  9
$DIMTZIN
 70
8
  9
$DIMALTZ
 70
0
  9
$DIMALTTZ
 70
0
  9
$DIMUPT
 70
0
  9
$DIMDEC
 70
2
  9
$DIMTDEC
 70
2
  9
$DIMALTU
 70
2
  9
$DIMALTTD
 70
3
  9
$DIMTXSTY
  7
Standard
  9
$DIMAUNIT
 70
0
  9
$DIMADEC
 70
0
  9
$DIMALTRND
 40
0.0
  9
$DIMAZIN
 70
0
  9
$DIMDSEP
 70
44
  9
$DIMATFIT
 70
3
  9
$DIMFRAC
 70
0
  9
$DIMLDRBLK
  1

  9
$DIMLUNIT
 70
2
  9
$DIMLWD
 70
-2
  9
$DIMLWE
 70
-2
  9
$DIMTMOVE
 70
0
  9
$LUNITS
 70
2
  9
$LUPREC
 70
4
  9
$SKETCHINC
 40
1.0
  9
$FILLETRAD
 40
10.0
  9
$AUNITS
 70
0
  9
$AUPREC
 70
2
  9
$MENU
  1
.
  9
$ELEVATION
 40
0.0
  9
$PELEVATION
 40
0.0
  9
$THICKNESS
 40
0.0
  9
$LIMCHECK
 70
0
  9
$CHAMFERA
 40
0.0
  9
$CHAMFERB
 40
0.0
  9
$CHAMFERC
 40
0.0
  9
$CHAMFERD
 40
0.0
  9
$SKPOLY
 70
0
  9
$TDCREATE
 40
2461278.831388889
  9
$TDUCREATE
 40
2458532.153996898
  9
$TDUPDATE
 40
2461278.831388889
  9
$TDUUPDATE
 40
2458532.1544311
  9
$TDINDWG
 40
0.0
  9
$TDUSRTIMER
 40
0.0
  9
$USRTIMER
 70
1
  9
$ANGBASE
 50
0.0
  9
$ANGDIR
 70
0
  9
$PDMODE
 70
0
  9
$PDSIZE
 40
0.0
  9
$PLINEWID
 40
0.0
  9
$SPLFRAME
 70
0
  9
$SPLINETYPE
 70
6
  9
$SPLINESEGS
 70
8
  9
$HANDSEED
  5
42
  9
$SURFTAB1
 70
6
  9
$SURFTAB2
 70
6
  9
$SURFTYPE
 70
6
  9
$SURFU
 70
6
  9
$SURFV
 70
6
  9
$UCSBASE
  2

  9
$UCSNAME
  2

  9
$UCSORG
 10
0.0
 20
0.0
 30
0.0
  9
$UCSXDIR
 10
1.0
 20
0.0
 30
0.0
  9
$UCSYDIR
 10
0.0
 20
1.0
 30
0.0
  9
$UCSORTHOREF
  2

  9
$UCSORTHOVIEW
 70
0
  9
$UCSORGTOP
 10
0.0
 20
0.0
 30
0.0
  9
$UCSORGBOTTOM
 10
0.0
 20
0.0
 30
0.0
  9
$UCSORGLEFT
 10
0.0
 20
0.0
 30
0.0
  9
$UCSORGRIGHT
 10
0.0
 20
0.0
 30
0.0
  9
$UCSORGFRONT
 10
0.0
 20
0.0
 30
0.0
  9
$UCSORGBACK
 10
0.0
 20
0.0
 30
0.0
  9
$PUCSBASE
  2

  9
$PUCSNAME
  2

  9
$PUCSORG
 10
0.0
 20
0.0
 30
0.0
  9
$PUCSXDIR
 10
1.0
 20
0.0
 30
0.0
  9
$PUCSYDIR
 10
0.0
 20
1.0
 30
0.0
  9
$PUCSORTHOREF
  2

  9
$PUCSORTHOVIEW
 70
0
  9
$PUCSORGTOP
 10
0.0
 20
0.0
 30
0.0
  9
$PUCSORGBOTTOM
 10
0.0
 20
0.0
 30
0.0
  9
$PUCSORGLEFT
 10
0.0
 20
0.0
 30
0.0
  9
$PUCSORGRIGHT
 10
0.0
 20
0.0
 30
0.0
  9
$PUCSORGFRONT
 10
0.0
 20
0.0
 30
0.0
  9
$PUCSORGBACK
 10
0.0
 20
0.0
 30
0.0
  9
$USERI1
 70
0
  9
$USERI2
 70
0
  9
$USERI3
 70
0
  9
$USERI4
 70
0
  9
$USERI5
 70
0
  9
$USERR1
 40
0.0
  9
$USERR2
 40
0.0
  9
$USERR3
 40
0.0
  9
$USERR4
 40
0.0
  9
$USERR5
 40
0.0
  9
$WORLDVIEW
 70
1
  9
$SHADEDGE
 70
3
  9
$SHADEDIF
 70
70
  9
$TILEMODE
 70
1
  9
$MAXACTVP
 70
64
  9
$PINSBASE
 10
0.0
 20
0.0
 30
0.0
  9
$PLIMCHECK
 70
0
  9
$PEXTMIN
 10
1e+20
 20
1e+20
 30
1e+20
  9
$PEXTMAX
 10
-1e+20
 20
-1e+20
 30
-1e+20
  9
$PLIMMIN
 10
0.0
 20
0.0
  9
$PLIMMAX
 10
420.0
 20
297.0
  9
$UNITMODE
 70
0
  9
$VISRETAIN
 70
1
  9
$PLINEGEN
 70
0
  9
$PSLTSCALE
 70
1
  9
$TREEDEPTH
 70
3020
  9
$CMLSTYLE
  2
Standard
  9
$CMLJUST
 70
0
  9
$CMLSCALE
 40
20.0
  9
$PROXYGRAPHICS
 70
1
  9
$MEASUREMENT
 70
1
  9
$CELWEIGHT
370
-1
  9
$ENDCAPS
280
0
  9
$JOINSTYLE
280
0
  9
$LWDISPLAY
290
0
  9
$INSUNITS
 70
4
  9
$HYPERLINKBASE
  1

  9
$STYLESHEET
  1

  9
$XEDIT
290
1
  9
$CEPSNTYPE
380
0
  9
$PSTYLEMODE
290
1
  9
$FINGERPRINTGUID
  2
{7870C069-D650-4412-BFB2-384ED2D77450}
  9
$VERSIONGUID
  2
{FC9ABE07-4A58-4A99-B3D6-4A4BF1B06C95}
  9
$EXTNAMES
290
1
  9
$PSVPSCALE
 40
0.0
  9
$OLESTARTUP
290
0
  0
ENDSEC
  0
SECTION
  2
CLASSES
  0
CLASS
  1
ACDBDICTIONARYWDFLT
  2
AcDbDictionaryWithDefault
  3
ObjectDBX Classes
 90
0
280
0
281
0
  0
CLASS
  1
SUN
  2
AcDbSun
  3
SCENEOE
 90
1153
280
0
281
0
  0
CLASS
  1
VISUALSTYLE
  2
AcDbVisualStyle
  3
ObjectDBX Classes
 90
4095
280
0
281
0
  0
CLASS
  1
MATERIAL
  2
AcDbMaterial
  3
ObjectDBX Classes
 90
1153
280
0
281
0
  0
CLASS
  1
SCALE
  2
AcDbScale
  3
ObjectDBX Classes
 90
1153
280
0
281
0
  0
CLASS
  1
TABLESTYLE
  2
AcDbTableStyle
  3
ObjectDBX Classes
 90
4095
280
0
281
0
  0
CLASS
  1
MLEADERSTYLE
  2
AcDbMLeaderStyle
  3
ACDB_MLEADERSTYLE_CLASS
 90
4095
280
0
281
0
  0
CLASS
  1
DICTIONARYVAR
  2
AcDbDictionaryVar
  3
ObjectDBX Classes
 90
0
280
0
281
0
  0
CLASS
  1
CELLSTYLEMAP
  2
AcDbCellStyleMap
  3
ObjectDBX Classes
 90
1152
280
0
281
0
  0
CLASS
  1
MENTALRAYRENDERSETTINGS
  2
AcDbMentalRayRenderSettings
  3
SCENEOE
 90
1024
280
0
281
0
  0
CLASS
  1
ACDBDETAILVIEWSTYLE
  2
AcDbDetailViewStyle
  3
ObjectDBX Classes
 90
1025
280
0
281
0
  0
CLASS
  1
ACDBSECTIONVIEWSTYLE
  2
AcDbSectionViewStyle
  3
ObjectDBX Classes
 90
1025
280
0
281
0
  0
CLASS
  1
RASTERVARIABLES
  2
AcDbRasterVariables
  3
ISM
 90
0
280
0
281
0
  0
CLASS
  1
ACDBPLACEHOLDER
  2
AcDbPlaceHolder
  3
ObjectDBX Classes
 90
0
280
0
281
0
  0
CLASS
  1
LAYOUT
  2
AcDbLayout
  3
ObjectDBX Classes
 90
0
280
0
281
0
  0
ENDSEC
  0
SECTION
  2
TABLES
  0
TABLE
  2
VPORT
  5
8
330
0
100
AcDbSymbolTable
 70
1
  0
VPORT
  5
23
330
8
100
AcDbSymbolTableRecord
100
AcDbViewportTableRecord
  2
*Active
 70
0
 10
0.0
 20
0.0
 11
1.0
 21
1.0
 12
0.0
 22
0.0
 13
0.0
 23
0.0
 14
0.5
 24
0.5
 15
0.5
 25
0.5
 16
0.0
 26
0.0
 36
1.0
 17
0.0
 27
0.0
 37
0.0
 40
1000.0
 41
1.34
 42
50.0
 43
0.0
 44
0.0
 50
0.0
 51
0.0
 71
0
 72
1000
 73
1
 74
3
 75
0
 76
0
 77
0
 78
0
281
0
 65
0
146
0.0
  0
ENDTAB
  0
TABLE
  2
LTYPE
  5
2
330
0
100
AcDbSymbolTable
 70
3
  0
LTYPE
  5
24
330
2
100
AcDbSymbolTableRecord
100
AcDbLinetypeTableRecord
  2
ByBlock
 70
0
  3

 72
65
 73
0
 40
0.0
  0
LTYPE
  5
25
330
2
100
AcDbSymbolTableRecord
100
AcDbLinetypeTableRecord
  2
ByLayer
 70
0
  3

 72
65
 73
0
 40
0.0
  0
LTYPE
  5
26
330
2
100
AcDbSymbolTableRecord
100
AcDbLinetypeTableRecord
  2
Continuous
 70
0
  3

 72
65
 73
0
 40
0.0
  0
ENDTAB
  0
TABLE
  2
LAYER
  5
1
330
0
100
AcDbSymbolTable
 70
4
  0
LAYER
  5
27
330
1
100
AcDbSymbolTableRecord
100
AcDbLayerTableRecord
  2
0
 70
0
 62
7
  6
Continuous
370
-3
390
13
  0
LAYER
  5
28
330
1
100
AcDbSymbolTableRecord
100
AcDbLayerTableRecord
  2
Defpoints
 70
0
 62
7
  6
Continuous
290
0
370
-3
390
13
  0
LAYER
  5
2F
330
1
100
AcDbSymbolTableRecord
100
AcDbLayerTableRecord
  2
CUT
 70
0
 62
1
  6
Continuous
370
-3
390
13
  0
LAYER
  5
30
330
1
100
AcDbSymbolTableRecord
100
AcDbLayerTableRecord
  2
RASTER
 70
0
 62
7
  6
Continuous
370
-3
390
13
  0
ENDTAB
  0
TABLE
  2
STYLE
  5
5
330
0
100
AcDbSymbolTable
 70
1
  0
STYLE
  5
29
330
5
100
AcDbSymbolTableRecord
100
AcDbTextStyleTableRecord
  2
Standard
 70
0
 40
0.0
 41
1.0
 50
0.0
 71
0
 42
2.5
  3
txt
  4

  0
ENDTAB
  0
TABLE
  2
VIEW
  5
7
330
0
100
AcDbSymbolTable
 70
0
  0
ENDTAB
  0
TABLE
  2
UCS
  5
6
330
0
100
AcDbSymbolTable
 70
0
  0
ENDTAB
  0
TABLE
  2
APPID
  5
3
330
0
100
AcDbSymbolTable
 70
3
  0
APPID
  5
2A
330
3
100
AcDbSymbolTableRecord
100
AcDbRegAppTableRecord
  2
ACAD
 70
0
  0
APPID
  5
3F
330
3
100
AcDbSymbolTableRecord
100
AcDbRegAppTableRecord
  2
HATCHBACKGROUNDCOLOR
 70
0
  0
APPID
  5
40
330
3
100
AcDbSymbolTableRecord
100
AcDbRegAppTableRecord
  2
EZDXF
 70
0
  0
ENDTAB
  0
TABLE
  2
DIMSTYLE
  5
4
330
0
100
AcDbSymbolTable
 70
1
100
AcDbDimStyleTable
  0
DIMSTYLE
105
2B
330
4
100
AcDbSymbolTableRecord
100
AcDbDimStyleTableRecord
  2
Standard
 70
0
  3

  4

 40
1.0
 41
2.5
 42
0.625
 43
3.75
 44
1.25
 45
0.0
 46
0.0
 47
0.0
 48
0.0
140
2.5
141
2.5
142
0.0
143
0.03937007874
144
1.0
145
0.0
146
1.0
147
0.625
148
0.0
 71
0
 72
0
 73
0
 74
0
 75
0
 76
0
 77
1
 78
8
 79
3
170
0
171
3
172
1
173
0
174
0
175
0
176
0
177
0
178
0
179
2
271
2
272
2
273
2
274
3
275
0
276
0
277
2
278
44
279
0
280
0
281
0
282
0
283
0
284
8
285
0
286
0
288
0
289
3
371
-2
372
-2
  0
ENDTAB
  0
TABLE
  2
BLOCK_RECORD
  5
9
330
0
100
AcDbSymbolTable
 70
2
  0
BLOCK_RECORD
  5
17
330
9
100
AcDbSymbolTableRecord
100
AcDbBlockTableRecord
  2
*Model_Space
340
1A
  0
BLOCK_RECORD
  5
1B
330
9
100
AcDbSymbolTableRecord
100
AcDbBlockTableRecord
  2
*Paper_Space
340
1E
  0
ENDTAB
  0
ENDSEC
  0
SECTION
  2
BLOCKS
  0
BLOCK
  5
18
330
17
100
AcDbEntity
  8
0
100
AcDbBlockBegin
  2
*Model_Space
 70
0
 10
0.0
 20
0.0
 30
0.0
  3
*Model_Space
  1

  0
ENDBLK
  5
19
330
17
100
AcDbEntity
  8
0
100
AcDbBlockEnd
  0
BLOCK
  5
1C
330
1B
100
AcDbEntity
  8
0
100
AcDbBlockBegin
  2
*Paper_Space
 70
0
 10
0.0
 20
0.0
 30
0.0
  3
*Paper_Space
  1

  0
ENDBLK
  5
1D
330
1B
100
AcDbEntity
  8
0
100
AcDbBlockEnd
  0
ENDSEC
  0
SECTION
  2
ENTITIES
  0
LWPOLYLINE
  5
31
330
17
100
AcDbEntity
  8
CUT
100
AcDbPolyline
 90
43
 70
1
 10
8.716
 20
27.476
 10
12.44
 20
27.487
 10
13.678
 20
25.63
 10
14.477
 20
25.419
 10
14.99
 20
25.586
 10
15.683
 20
26.518
 10
17.534
 20
26.747
 10
18.93
 20
27.506
 10
22.288
 20
27.579
 10
23.072
 20
27.294
 10
23.249
 20
24.342
 10
23.813
 20
23.266
 10
23.833
 20
20.48
 10
23.639
 20
19.593
 10
22.556
 20
18.359
 10
22.556
 20
17.733
 10
22.899
 20
17.305
 10
24.758
 20
17.098
 10
25.162
 20
16.233
 10
25.109
 20
12.934
 10
23.831
 20
11.429
 10
23.398
 20
9.751
 10
21.965
 20
9.485
 10
21.205
 20
8.911
 10
20.017
 20
8.767
 10
19.289
 20
8.265
 10
18.137
 20
8.182
 10
17.143
 20
7.639
 10
12.606
 20
7.568
 10
11.445
 20
5.186
 10
10.823
 20
4.676
 10
7.251
 20
4.645
 10
4.739
 20
5.326
 10
4.513
 20
6.501
 10
3.863
 20
7.606
 10
3.863
 20
10.812
 10
4.371
 20
11.547
 10
7.087
 20
12.558
 10
6.293
 20
14.958
 10
6.622
 20
24.184
 10
6.88
 20
24.747
 10
7.726
 20
25.11
 10
8.196
 20
26.841
  0
HATCH
  5
32
330
17
100
AcDbEntity
  8
RASTER
 62
7
100
AcDbHatch
 10
0.0
 20
0.0
 30
0.0
210
0.0
220
0.0
230
1.0
  2
SOLID
 70
1
 71
0
 91
18
 92
3
 72
0
 73
1
 93
150
 10
10.446
 20
25.776
 10
10.855
 20
25.633
 10
11.263
 20
25.122
 10
11.641
 20
24.376
 10
11.978
 20
23.181
 10
12.969
 20
23.661
 10
13.204
 20
23.59
 10
13.378
 20
23.355
 10
13.378
 20
22.844
 10
13.48
 20
22.537
 10
13.276
 20
21.516
 10
13.072
 20
21.107
 10
13.511
 20
20.934
 10
13.684
 20
20.699
 10
13.684
 20
20.086
 10
13.378
 20
19.166
 10
13.449
 20
18.931
 10
13.613
 20
18.788
 10
13.991
 20
19.984
 10
14.267
 20
20.525
 10
14.604
 20
20.801
 10
14.982
 20
20.627
 10
15.115
 20
21.516
 10
15.319
 20
22.129
 10
15.697
 20
22.772
 10
16.034
 20
22.844
 10
16.31
 20
22.711
 10
16.371
 20
22.568
 10
16.514
 20
22.568
 10
16.647
 20
23.457
 10
17.331
 20
24.713
 10
17.669
 20
24.887
 10
17.801
 20
24.816
 10
18.557
 20
23.896
 10
18.864
 20
24.407
 10
19.681
 20
25.224
 10
20.325
 20
25.602
 10
21.04
 20
25.806
 10
21.173
 20
25.735
 10
21.346
 20
25.5
 10
21.346
 20
24.376
 10
21.04
 20
23.253
 10
20.631
 20
22.435
 10
20.733
 20
22.333
 10
21.551
 20
22.231
 10
21.888
 20
22.057
 10
21.959
 20
21.618
 10
21.683
 20
21.077
 10
21.418
 20
20.831
 10
21.275
 20
20.566
 10
20.396
 20
19.912
 10
20.396
 20
19.749
 10
20.631
 20
19.473
 10
20.457
 20
18.931
 10
19.947
 20
18.421
 10
19.068
 20
17.869
 10
19.027
 20
17.767
 10
19.303
 20
17.532
 10
19.303
 20
17.225
 10
19.129
 20
16.888
 10
17.801
 20
15.826
 10
18.179
 20
15.795
 10
18.384
 20
15.897
 10
18.762
 20
15.621
 10
19.916
 20
16.306
 10
20.529
 20
16.408
 10
20.835
 20
16.102
 10
20.764
 20
15.315
 10
22.776
 20
15.387
 10
23.318
 20
15.111
 10
23.389
 20
14.671
 10
23.216
 20
14.334
 10
22.398
 20
13.517
 10
21.244
 20
13.037
 10
21.785
 20
12.455
 10
21.959
 20
12.118
 10
21.888
 20
11.678
 10
21.653
 20
11.505
 10
21.244
 20
11.402
 10
19.916
 20
11.402
 10
19.814
 20
11.3
 10
19.742
 20
10.861
 10
19.507
 20
10.687
 10
18.179
 20
10.687
 10
17.975
 20
10.789
 10
17.904
 20
10.759
 10
17.975
 20
10.585
 10
17.904
 20
10.146
 10
17.464
 20
9.972
 10
16.034
 20
10.074
 10
15.901
 20
9.594
 10
15.625
 20
9.461
 10
14.297
 20
9.461
 10
13.889
 20
9.564
 10
13.143
 20
9.942
 10
12.428
 20
10.759
 10
10.855
 20
10.146
 10
10.313
 20
8.44
 10
9.629
 20
6.877
 10
9.425
 20
6.57
 10
9.087
 20
6.397
 10
8.781
 20
6.397
 10
8.444
 20
6.57
 10
8.27
 20
6.908
 10
8.27
 20
7.112
 10
8.75
 20
8.001
 10
8.137
 20
7.551
 10
7.688
 20
7.081
 10
7.146
 20
6.805
 10
6.84
 20
6.805
 10
6.564
 20
6.938
 10
6.431
 20
7.214
 10
6.503
 20
7.755
 10
7.627
 20
8.818
 10
7.351
 20
8.848
 10
6.84
 20
8.644
 10
6.431
 20
8.644
 10
6.227
 20
8.542
 10
5.788
 20
8.818
 10
5.716
 20
9.461
 10
5.788
 20
9.594
 10
6.125
 20
9.768
 10
8.27
 20
10.381
 10
9.731
 20
11.065
 10
10.007
 20
11.811
 10
10.211
 20
12.833
 10
10.211
 20
13.446
 10
9.465
 20
13.824
 10
8.852
 20
14.436
 10
8.372
 20
15.284
 10
8.168
 20
15.999
 10
8.24
 20
16.745
 10
8.679
 20
16.919
 10
8.27
 20
18.043
 10
8.27
 20
18.553
 10
8.342
 20
18.686
 10
8.781
 20
18.86
 10
8.27
 20
20.188
 10
8.27
 20
20.699
 10
8.342
 20
20.831
 10
8.781
 20
21.005
 10
8.474
 20
21.822
 10
8.403
 20
22.568
 10
8.474
 20
22.844
 10
8.679
 20
23.048
 10
9.087
 20
23.048
 10
9.772
 20
22.772
 10
9.7
 20
24.07
 10
9.905
 20
24.887
 10
10.283
 20
25.633
 97
0
 92
3
 72
0
 73
1
 93
13
 10
20.907
 20
25.367
 10
19.783
 20
24.816
 10
19.068
 20
23.998
 10
18.69
 20
23.253
 10
18.69
 20
22.435
 10
18.792
 20
22.231
 10
18.69
 20
22.027
 10
18.721
 20
21.751
 10
19.742
 20
22.303
 10
20.355
 20
22.813
 10
20.938
 20
24.07
 10
20.835
 20
24.274
 10
20.938
 20
24.478
 97
0
 92
3
 72
0
 73
1
 93
15
 10
10.62
 20
25.296
 10
10.415
 20
24.989
 10
10.109
 20
24.07
 10
10.007
 20
23.15
 10
10.283
 20
22.303
 10
10.753
 20
21.955
 10
10.896
 20
21.69
 10
11.028
 20
21.618
 10
11.131
 20
21.72
 10
11.263
 20
22.303
 10
11.539
 20
22.64
 10
11.611
 20
23.222
 10
11.437
 20
23.253
 10
11.335
 20
24.07
 10
10.753
 20
25.224
 97
0
 92
3
 72
0
 73
1
 93
24
 10
17.669
 20
24.376
 10
17.536
 20
24.305
 10
17.056
 20
23.355
 10
16.851
 20
22.64
 10
16.851
 20
21.822
 10
17.495
 20
19.81
 10
18.179
 20
19.881
 10
18.384
 20
19.984
 10
19.507
 20
19.984
 10
20.662
 20
20.566
 10
21.173
 20
21.077
 10
21.581
 20
21.69
 10
21.581
 20
21.853
 10
21.448
 20
21.925
 10
19.916
 20
21.925
 10
18.864
 20
21.444
 10
18.557
 20
21.24
 10
18.312
 20
20.872
 10
18.149
 20
20.872
 10
18.108
 20
20.974
 10
18.384
 20
21.618
 10
18.384
 20
22.946
 10
18.108
 20
23.692
 10
17.801
 20
24.305
 97
0
 92
3
 72
0
 73
1
 93
26
 10
12.765
 20
23.253
 10
12.591
 20
23.12
 10
12.632
 20
22.977
 10
12.459
 20
23.048
 10
11.917
 20
22.67
 10
11.876
 20
22.405
 10
11.406
 20
21.853
 10
11.233
 20
21.516
 10
11.1
 20
20.525
 10
10.926
 20
20.699
 10
10.926
 20
20.903
 10
10.65
 20
21.444
 10
10.14
 20
22.057
 10
8.812
 20
22.711
 10
8.781
 20
22.027
 10
9.261
 20
20.872
 10
9.568
 20
20.566
 10
10.446
 20
20.116
 10
10.998
 20
19.544
 10
11.161
 20
19.544
 10
11.304
 20
19.81
 10
12.285
 20
20.668
 10
12.765
 20
21.312
 10
13.072
 20
22.435
 10
13.072
 20
23.15
 10
12.969
 20
23.253
 97
0
 92
3
 72
0
 73
1
 93
19
 10
15.932
 20
22.333
 10
15.421
 20
21.209
 10
15.319
 20
20.188
 10
15.932
 20
18.656
 10
16.034
 20
18.247
 10
15.963
 20
17.767
 10
16.953
 20
18.043
 10
18.384
 20
18.043
 10
19.436
 20
18.523
 10
20.049
 20
19.034
 10
20.222
 20
19.371
 10
20.12
 20
19.473
 10
19.405
 20
19.677
 10
18.384
 20
19.677
 10
17.331
 20
19.299
 10
16.882
 20
18.89
 10
16.953
 20
20.494
 10
16.851
 20
20.903
 10
16.473
 20
21.751
 97
0
 92
3
 72
0
 73
1
 93
18
 10
13.276
 20
20.699
 10
12.53
 20
20.423
 10
11.611
 20
19.606
 10
11.233
 20
18.962
 10
11.1
 20
18.482
 10
10.753
 20
19.299
 10
10.14
 20
19.912
 10
8.985
 20
20.494
 10
8.679
 20
20.597
 10
8.577
 20
20.494
 10
8.781
 20
19.779
 10
9.363
 20
18.727
 10
10.446
 20
18.073
 10
11.1
 20
17.358
 10
11.815
 20
18.073
 10
12.081
 20
18.216
 10
12.898
 20
19.136
 10
13.378
 20
20.494
 97
0
 92
3
 72
0
 73
1
 93
20
 10
14.675
 20
20.362
 10
14.502
 20
20.188
 10
14.093
 20
18.962
 10
14.093
 20
18.043
 10
14.604
 20
16.715
 10
14.706
 20
16.204
 10
14.635
 20
15.928
 10
15.319
 20
16.102
 10
17.158
 20
16.102
 10
18.006
 20
16.48
 10
18.823
 20
17.195
 10
18.894
 20
17.327
 10
18.69
 20
17.532
 10
17.26
 20
17.736
 10
16.106
 20
17.358
 10
15.35
 20
16.745
 10
15.319
 20
17.021
 10
15.523
 20
17.327
 10
15.523
 20
18.656
 10
15.247
 20
19.401
 97
0
 92
3
 72
0
 73
1
 93
67
 10
13.245
 20
18.625
 10
13.143
 20
18.584
 10
12.969
 20
18.247
 10
12.765
 20
17.634
 10
12.663
 20
16.204
 10
13.041
 20
15.254
 10
13.306
 20
15.009
 10
13.449
 20
14.743
 10
13.306
 20
14.436
 10
12.591
 20
13.517
 10
12.121
 20
13.068
 10
11.978
 20
12.802
 10
10.14
 20
10.861
 10
9.292
 20
10.381
 10
8.27
 20
9.972
 10
6.125
 20
9.359
 10
6.023
 20
9.257
 10
6.053
 20
8.981
 10
6.533
 20
8.951
 10
6.942
 20
9.053
 10
9.087
 20
9.768
 10
10.62
 20
10.483
 10
12.561
 20
11.198
 10
12.734
 20
11.167
 10
12.939
 20
10.759
 10
13.449
 20
10.248
 10
13.991
 20
9.972
 10
14.91
 20
9.768
 10
15.595
 20
9.901
 10
15.452
 20
10.309
 10
14.839
 20
10.922
 10
14.022
 20
11.433
 10
13.276
 20
11.709
 10
14.022
 20
12.291
 10
14.297
 20
12.833
 10
14.502
 20
13.446
 10
14.502
 20
13.65
 10
14.297
 20
13.854
 10
13.991
 20
13.854
 10
13.654
 20
13.681
 10
13.511
 20
13.415
 10
13.143
 20
13.068
 10
12.663
 20
12.22
 10
12.632
 20
11.637
 10
10.855
 20
10.922
 10
11.978
 20
12.087
 10
12.121
 20
12.352
 10
13.409
 20
13.824
 10
13.756
 20
14.396
 10
14.706
 20
14.161
 10
15.728
 20
14.161
 10
16.473
 20
14.436
 10
17.086
 20
14.845
 10
17.566
 20
15.387
 10
17.26
 20
15.591
 10
16.851
 20
15.693
 10
16.238
 20
15.693
 10
16.034
 20
15.795
 10
15.728
 20
15.693
 10
15.217
 20
15.693
 10
14.471
 20
15.315
 10
13.919
 20
14.804
 10
13.919
 20
15.049
 10
14.297
 20
15.999
 10
14.297
 20
16.51
 10
13.96
 20
17.603
 10
13.511
 20
18.38
 97
0
 92
3
 72
0
 73
1
 93
19
 10
8.75
 20
18.421
 10
8.607
 20
18.318
 10
8.679
 20
18.043
 10
8.883
 20
17.43
 10
9.261
 20
16.786
 10
10.344
 20
16.03
 10
10.896
 20
15.458
 10
11.059
 20
15.458
 10
11.406
 20
15.826
 10
12.183
 20
16.377
 10
12.428
 20
18.114
 10
11.406
 20
17.256
 10
11.131
 20
16.306
 10
11.028
 20
16.204
 10
10.926
 20
16.306
 10
10.926
 20
16.817
 10
10.65
 20
17.358
 10
10.14
 20
17.869
 10
9.394
 20
18.247
 97
0
 92
3
 72
0
 73
1
 93
27
 10
8.577
 20
16.51
 10
8.474
 20
16.408
 10
8.577
 20
15.897
 10
9.159
 20
14.743
 10
9.772
 20
14.232
 10
10.65
 20
13.885
 10
10.722
 20
13.752
 10
10.62
 20
13.548
 10
10.518
 20
12.118
 10
10.313
 20
11.505
 10
10.415
 20
11.402
 10
10.753
 20
11.678
 10
11.028
 20
12.322
 10
11.028
 20
13.037
 10
11.131
 20
13.241
 10
11.161
 20
13.824
 10
12.285
 20
14.436
 10
12.663
 20
14.978
 10
12.326
 20
15.867
 10
12.152
 20
15.897
 10
11.713
 20
15.621
 10
11.304
 20
15.213
 10
10.957
 20
14.396
 10
10.824
 20
14.569
 10
10.824
 20
14.876
 10
10.65
 20
15.213
 10
10.14
 20
15.724
 97
0
 92
3
 72
0
 73
1
 93
21
 10
20.396
 20
16.071
 10
19.375
 20
15.621
 10
18.762
 20
15.009
 10
17.975
 20
13.037
 10
18.925
 20
12.352
 10
19.17
 20
12.087
 10
19.507
 20
11.913
 10
19.814
 20
11.811
 10
21.244
 20
11.811
 10
21.52
 20
11.944
 10
21.479
 20
12.148
 10
21.275
 20
12.455
 10
20.662
 20
12.965
 10
19.712
 20
13.343
 10
19.201
 20
13.343
 10
18.997
 20
13.241
 10
18.894
 20
13.343
 10
19.334
 20
13.619
 10
19.947
 20
14.334
 10
20.325
 20
15.182
 10
20.427
 20
15.591
 97
0
 92
3
 72
0
 73
1
 93
19
 10
18.281
 20
15.489
 10
16.821
 20
14.089
 10
16.065
 20
12.455
 10
17.086
 20
11.74
 10
17.536
 20
11.27
 10
17.873
 20
11.096
 10
19.099
 20
10.994
 10
19.375
 20
11.127
 10
19.232
 20
11.433
 10
18.925
 20
11.842
 10
18.414
 20
12.25
 10
17.464
 20
12.73
 10
16.984
 20
12.557
 10
17.127
 20
12.863
 10
17.393
 20
13.006
 10
17.801
 20
13.415
 10
18.179
 20
14.161
 10
18.384
 20
14.876
 10
18.384
 20
15.387
 97
0
 92
3
 72
0
 73
1
 93
11
 10
21.551
 20
15.08
 10
21.04
 20
14.978
 10
20.498
 20
14.702
 10
19.844
 20
13.681
 10
20.529
 20
13.446
 10
21.04
 20
13.446
 10
22.194
 20
13.926
 10
22.909
 20
14.641
 10
22.981
 20
14.774
 10
22.909
 20
14.906
 10
22.266
 20
15.08
 97
0
 92
3
 72
0
 73
1
 93
6
 10
12.428
 20
14.028
 10
11.509
 20
13.476
 10
11.468
 20
12.965
 10
11.611
 20
12.965
 10
11.713
 20
13.17
 10
12.387
 20
13.824
 97
0
 92
3
 72
0
 73
1
 93
16
 10
16.238
 20
13.956
 10
15.728
 20
13.752
 10
14.941
 20
13.619
 10
14.604
 20
12.73
 10
14.124
 20
11.842
 10
15.043
 20
11.229
 10
15.39
 20
10.861
 10
16.034
 20
10.483
 10
16.341
 20
10.381
 10
17.464
 20
10.381
 10
17.566
 20
10.585
 10
17.393
 20
10.922
 10
16.882
 20
11.433
 10
15.319
 20
12.22
 10
15.86
 20
12.802
 10
16.341
 20
13.854
 97
0
 92
3
 72
0
 73
1
 93
10
 10
9.7
 20
9.87
 10
8.444
 20
9.083
 10
7.381
 20
8.001
 10
6.809
 20
7.551
 10
6.768
 20
7.245
 10
7.014
 20
7.142
 10
7.688
 20
7.592
 10
8.403
 20
8.307
 10
8.546
 20
8.573
 10
9.731
 20
9.737
 97
0
 92
3
 72
0
 73
1
 93
10
 10
10.313
 20
9.87
 10
10.18
 20
9.799
 10
9.67
 20
9.083
 10
8.679
 20
7.112
 10
8.75
 20
6.877
 10
8.883
 20
6.805
 10
9.118
 20
6.877
 10
9.598
 20
7.725
 10
10.109
 20
8.951
 10
10.385
 20
9.799
 97
0
 75
0
 76
1
 98
0
  0
LWPOLYLINE
  5
33
330
17
100
AcDbEntity
  8
CUT
100
AcDbPolyline
 90
21
 70
1
 10
34.173
 20
27.579
 10
39.347
 20
27.411
 10
40.852
 20
26.868
 10
41.56
 20
25.885
 10
41.658
 20
22.039
 10
42.745
 20
19.601
 10
43.114
 20
17.281
 10
42.818
 20
7.63
 10
42.694
 20
6.826
 10
42.107
 20
5.945
 10
39.973
 20
4.858
 10
38.071
 20
4.557
 10
32.343
 20
4.765
 10
30.159
 20
5.716
 10
29.261
 20
7.089
 10
28.886
 20
17.674
 10
29.246
 20
19.713
 10
30.292
 20
21.797
 10
30.43
 20
25.889
 10
30.869
 20
26.627
 10
31.775
 20
27.179
  0
HATCH
  5
34
330
17
100
AcDbEntity
  8
RASTER
 62
7
100
AcDbHatch
 10
0.0
 20
0.0
 30
0.0
210
0.0
220
0.0
230
1.0
  2
SOLID
 70
1
 71
0
 91
7
 92
3
 72
0
 73
1
 93
50
 10
34.949
 20
25.79
 10
36.982
 20
25.82
 10
37.179
 20
25.722
 10
37.572
 20
25.722
 10
38.653
 20
25.427
 10
39.37
 20
25.063
 10
39.566
 20
24.867
 10
39.832
 20
24.346
 10
39.93
 20
23.658
 10
39.832
 20
23.462
 10
39.832
 20
22.97
 10
39.566
 20
22.45
 10
39.242
 20
22.086
 10
39.34
 20
21.3
 10
39.9
 20
20.092
 10
41.011
 20
18.058
 10
41.305
 20
16.682
 10
41.305
 20
13.538
 10
41.207
 20
13.342
 10
41.207
 20
11.278
 10
41.109
 20
11.082
 10
41.109
 20
9.019
 10
41.011
 20
8.527
 10
40.745
 20
8.007
 10
40.058
 20
7.319
 10
38.653
 20
6.66
 10
37.375
 20
6.366
 10
36.688
 20
6.366
 10
36.491
 20
6.267
 10
35.509
 20
6.267
 10
35.312
 20
6.366
 10
34.035
 20
6.464
 10
33.052
 20
6.759
 10
31.942
 20
7.319
 10
31.352
 20
7.908
 10
31.087
 20
8.429
 10
30.891
 20
9.215
 10
30.792
 20
12.163
 10
30.694
 20
12.359
 10
30.694
 20
16.977
 10
31.087
 20
18.353
 10
32.561
 20
21.104
 10
32.757
 20
21.791
 10
32.728
 20
22.155
 10
32.433
 20
22.45
 10
32.168
 20
22.97
 10
32.07
 20
24.051
 10
32.433
 20
24.867
 10
32.826
 20
25.162
 10
33.937
 20
25.623
 97
0
 92
3
 72
0
 73
1
 93
51
 10
35.705
 20
25.329
 10
35.509
 20
25.23
 10
34.723
 20
25.23
 10
33.642
 20
24.936
 10
32.924
 20
24.572
 10
32.659
 20
24.051
 10
32.659
 20
23.363
 10
32.757
 20
23.069
 10
33.249
 20
22.381
 10
33.249
 20
21.497
 10
33.052
 20
20.907
 10
32.433
 20
19.659
 10
31.578
 20
18.156
 10
31.284
 20
17.174
 10
31.284
 20
16.781
 10
31.185
 20
16.584
 10
31.284
 20
11.573
 10
31.382
 20
11.377
 10
31.382
 20
10.001
 10
31.48
 20
9.805
 10
31.48
 20
9.019
 10
31.578
 20
8.625
 10
31.745
 20
8.301
 10
32.237
 20
7.81
 10
32.856
 20
7.446
 10
34.035
 20
7.053
 10
35.116
 20
6.955
 10
35.312
 20
6.857
 10
36.786
 20
6.857
 10
38.653
 20
7.25
 10
39.763
 20
7.81
 10
40.254
 20
8.301
 10
40.421
 20
8.625
 10
40.519
 20
8.92
 10
40.519
 20
10.787
 10
40.618
 20
10.984
 10
40.618
 20
12.556
 10
40.716
 20
12.752
 10
40.814
 20
15.994
 10
40.716
 20
16.191
 10
40.618
 20
17.37
 10
40.323
 20
18.254
 10
39.144
 20
20.416
 10
38.751
 20
21.595
 10
38.751
 20
22.381
 10
39.075
 20
22.744
 10
39.34
 20
23.462
 10
39.34
 20
24.051
 10
39.173
 20
24.375
 10
38.879
 20
24.67
 10
37.768
 20
25.132
 97
0
 92
3
 72
0
 73
1
 93
16
 10
35.342
 20
24.906
 10
36.589
 20
24.936
 10
36.786
 20
24.837
 10
37.375
 20
24.837
 10
38.289
 20
24.474
 10
38.456
 20
24.15
 10
38.328
 20
23.884
 10
38.093
 20
23.727
 10
37.179
 20
23.462
 10
34.919
 20
23.462
 10
34.428
 20
23.56
 10
33.809
 20
23.825
 10
33.612
 20
24.022
 10
33.543
 20
24.15
 10
33.612
 20
24.375
 10
34.231
 20
24.739
 97
0
 92
3
 72
0
 73
1
 93
10
 10
35.017
 20
24.444
 10
34.064
 20
24.12
 10
34.33
 20
23.953
 10
34.723
 20
23.953
 10
34.919
 20
23.855
 10
37.179
 20
23.855
 10
37.67
 20
23.953
 10
37.768
 20
24.051
 10
37.7
 20
24.179
 10
36.982
 20
24.444
 97
0
 92
3
 72
0
 73
1
 93
18
 10
38.486
 20
22.548
 10
38.554
 20
22.479
 10
38.387
 20
22.155
 10
37.474
 20
21.791
 10
37.081
 20
21.791
 10
36.884
 20
21.693
 10
34.919
 20
21.693
 10
34.723
 20
21.791
 10
34.33
 20
21.791
 10
33.612
 20
22.057
 10
33.445
 20
22.381
 10
33.642
 20
22.479
 10
34.133
 20
22.283
 10
35.116
 20
22.184
 10
35.312
 20
22.086
 10
36.786
 20
22.086
 10
36.982
 20
22.184
 10
37.867
 20
22.283
 97
0
 92
3
 72
0
 73
1
 93
43
 10
32.099
 20
18.028
 10
32.266
 20
17.96
 10
31.873
 20
16.486
 10
31.873
 20
14.815
 10
31.971
 20
14.619
 10
31.971
 20
12.752
 10
32.07
 20
12.556
 10
32.07
 20
10.394
 10
32.168
 20
10.198
 10
32.168
 20
9.117
 10
32.335
 20
8.793
 10
32.826
 20
8.4
 10
33.347
 20
8.134
 10
34.821
 20
7.741
 10
36.029
 20
7.672
 10
37.277
 20
7.741
 10
38.161
 20
7.938
 10
39.37
 20
8.498
 10
39.665
 20
8.793
 10
39.832
 20
9.215
 10
39.832
 20
10.394
 10
39.999
 20
10.758
 10
40.028
 20
9.117
 10
39.763
 20
8.596
 10
39.468
 20
8.301
 10
38.554
 20
7.839
 10
37.474
 20
7.545
 10
37.081
 20
7.545
 10
36.884
 20
7.446
 10
35.214
 20
7.446
 10
35.017
 20
7.545
 10
34.526
 20
7.545
 10
33.249
 20
7.938
 10
32.531
 20
8.301
 10
32.138
 20
8.694
 10
31.971
 20
9.019
 10
31.971
 20
9.805
 10
31.873
 20
10.001
 10
31.873
 20
11.966
 10
31.775
 20
12.163
 10
31.775
 20
14.029
 10
31.677
 20
14.226
 10
31.677
 20
16.682
 97
0
 92
3
 72
0
 73
1
 93
7
 10
40.058
 20
11.937
 10
40.126
 20
11.868
 10
40.126
 20
10.984
 10
40.028
 20
10.885
 10
39.93
 20
10.984
 10
39.93
 20
11.18
 10
40.028
 20
11.377
 97
0
 75
0
 76
1
 98
0
  0
LWPOLYLINE
  5
35
330
17
100
AcDbEntity
  8
CUT
100
AcDbPolyline
 90
18
 70
1
 10
52.236
 20
27.522
 10
56.664
 20
27.579
 10
62.061
 20
25.818
 10
62.74
 20
24.711
 10
63.375
 20
21.51
 10
66.733
 20
21.112
 10
69.862
 20
17.96
 10
70.273
 20
16.729
 10
70.182
 20
12.842
 10
68.008
 20
7.924
 10
63.638
 20
7.374
 10
58.694
 20
7.431
 10
55.77
 20
10.355
 10
53.364
 20
10.721
 10
48.26
 20
12.908
 10
46.838
 20
18.767
 10
46.861
 20
23.18
 10
47.663
 20
24.266
  0
HATCH
  5
36
330
17
100
AcDbEntity
  8
RASTER
 62
7
100
AcDbHatch
 10
0.0
 20
0.0
 30
0.0
210
0.0
220
0.0
230
1.0
  2
SOLID
 70
1
 71
0
 91
14
 92
3
 72
0
 73
1
 93
39
 10
54.355
 20
25.759
 10
54.546
 20
25.792
 10
56.116
 20
25.344
 10
59.817
 20
24.11
 10
60.411
 20
23.807
 10
60.826
 20
22.989
 10
61.353
 20
19.478
 10
64.415
 20
19.4
 10
64.897
 20
19.209
 10
65.794
 20
18.424
 10
66.176
 20
17.908
 10
67.813
 20
16.293
 10
68.15
 20
15.845
 10
68.34
 20
15.475
 10
68.34
 20
14.802
 10
66.131
 20
9.721
 10
65.312
 20
9.531
 10
62.621
 20
9.419
 10
62.396
 20
9.306
 10
60.378
 20
9.306
 10
59.559
 20
10.058
 10
59.402
 20
10.349
 10
58.886
 20
10.843
 10
58.729
 20
11.134
 10
57.271
 20
12.817
 10
57.092
 20
12.817
 10
56.935
 20
12.637
 10
56.34
 20
12.334
 10
55.667
 20
12.447
 10
50.957
 20
14.241
 10
50.363
 20
14.544
 10
50.138
 20
14.768
 10
49.836
 20
15.587
 10
49.163
 20
18.951
 10
48.826
 20
20.073
 10
48.714
 20
21.306
 10
49.017
 20
21.901
 10
49.353
 20
22.237
 10
53.391
 20
25.265
 97
0
 92
3
 72
0
 73
1
 93
115
 10
54.322
 20
25.12
 10
49.69
 20
21.677
 10
49.387
 20
21.194
 10
49.387
 20
20.97
 10
49.645
 20
19.77
 10
49.914
 20
19.927
 10
50.172
 20
19.512
 10
50.06
 20
19.4
 10
49.757
 20
19.478
 10
49.723
 20
19.176
 10
50.026
 20
18.02
 10
50.251
 20
18.02
 10
50.509
 20
17.83
 10
50.363
 20
17.639
 10
50.138
 20
17.796
 10
50.06
 20
17.718
 10
50.699
 20
15.217
 10
50.957
 20
15.026
 10
52.337
 20
14.499
 10
52.337
 20
14.611
 10
52.112
 20
14.723
 10
52.269
 20
14.948
 10
52.224
 20
15.105
 10
52.752
 20
14.914
 10
52.785
 20
15.06
 10
52.561
 20
15.06
 10
52.752
 20
15.25
 10
52.942
 20
15.217
 10
53.009
 20
14.948
 10
53.166
 20
15.105
 10
53.234
 20
14.948
 10
53.424
 20
15.026
 10
53.761
 20
14.802
 10
53.952
 20
14.88
 10
54.131
 20
14.723
 10
54.288
 20
14.768
 10
54.097
 20
14.353
 10
54.176
 20
14.207
 10
54.288
 20
14.162
 10
54.512
 20
14.32
 10
54.58
 20
14.162
 10
54.77
 20
14.241
 10
55.028
 20
14.05
 10
55.028
 20
14.207
 10
55.185
 20
14.207
 10
55.297
 20
13.714
 10
54.916
 20
13.759
 10
55.073
 20
13.647
 10
54.916
 20
13.49
 10
56.116
 20
13.12
 10
56.307
 20
13.49
 10
56.228
 20
14.465
 10
56.116
 20
14.69
 10
56.116
 20
15.138
 10
56.228
 20
15.362
 10
56.004
 20
15.475
 10
55.892
 20
16.484
 10
55.97
 20
16.562
 10
56.082
 20
16.293
 10
56.452
 20
16.708
 10
56.598
 20
16.518
 10
56.755
 20
16.518
 10
56.755
 20
16.675
 10
56.598
 20
16.787
 10
56.901
 20
17.157
 10
56.71
 20
17.235
 10
56.419
 20
17.078
 10
56.419
 20
16.854
 10
56.228
 20
16.933
 10
56.194
 20
16.742
 10
56.004
 20
16.708
 10
55.97
 20
16.899
 10
55.78
 20
16.933
 10
55.813
 20
17.348
 10
56.116
 20
17.605
 10
56.419
 20
17.527
 10
56.452
 20
17.718
 10
56.34
 20
17.942
 10
56.486
 20
18.133
 10
56.71
 20
18.133
 10
56.755
 20
18.245
 10
56.598
 20
18.2
 10
56.565
 20
18.391
 10
56.789
 20
18.727
 10
57.047
 20
18.536
 10
57.237
 20
18.166
 10
57.383
 20
18.469
 10
57.608
 20
18.581
 10
57.877
 20
18.469
 10
57.989
 20
18.2
 10
57.798
 20
18.054
 10
58.213
 20
17.639
 10
58.774
 20
18.985
 10
59.11
 20
19.321
 10
59.48
 20
19.512
 10
60.568
 20
19.546
 10
60.49
 20
20.634
 10
60.411
 20
20.779
 10
60.153
 20
20.858
 10
60.378
 20
21.082
 10
60.378
 20
21.306
 10
60.299
 20
21.385
 10
60.075
 20
21.228
 10
59.626
 20
21.452
 10
59.817
 20
21.755
 10
59.626
 20
22.17
 10
59.851
 20
22.125
 10
60.12
 20
21.834
 10
60.232
 20
21.452
 10
60.266
 20
22.204
 10
60.153
 20
22.428
 10
60.153
 20
22.877
 10
59.963
 20
23.247
 10
59.48
 20
23.549
 10
54.994
 20
25.007
 97
0
 92
3
 72
0
 73
1
 93
8
 10
59.402
 20
22.282
 10
59.48
 20
21.867
 10
59.335
 20
21.564
 10
59.256
 20
21.643
 10
59.335
 20
21.834
 10
59.144
 20
21.979
 10
58.841
 20
21.789
 10
58.998
 20
22.013
 97
0
 92
3
 72
0
 73
1
 93
10
 10
56.823
 20
19.254
 10
57.428
 20
19.03
 10
57.462
 20
18.839
 10
57.204
 20
18.536
 10
57.125
 20
18.615
 10
57.316
 20
18.918
 10
57.125
 20
18.951
 10
57.092
 20
18.761
 10
56.935
 20
18.761
 10
57.013
 20
19.063
 97
0
 92
3
 72
0
 73
1
 93
7
 10
50.094
 20
19.03
 10
50.284
 20
19.063
 10
50.396
 20
18.951
 10
50.396
 20
18.615
 10
50.284
 20
18.503
 10
50.026
 20
18.581
 10
49.948
 20
18.727
 97
0
 92
3
 72
0
 73
1
 93
129
 10
59.705
 20
18.951
 10
59.402
 20
18.805
 10
59.144
 20
18.278
 10
59.144
 20
18.054
 10
58.695
 20
16.933
 10
58.808
 20
16.596
 10
58.729
 20
16.518
 10
58.617
 20
16.675
 10
58.471
 20
16.372
 10
57.686
 20
14.129
 10
57.686
 20
13.456
 10
57.877
 20
13.086
 10
59.29
 20
11.583
 10
60.456
 20
10.058
 10
60.568
 20
10.013
 10
60.793
 20
10.282
 10
60.748
 20
10.013
 10
61.051
 20
9.979
 10
61.129
 20
10.013
 10
61.051
 20
10.316
 10
60.826
 20
10.54
 10
61.309
 20
11.516
 10
61.499
 20
11.437
 10
61.611
 20
11.549
 10
61.387
 20
11.774
 10
61.802
 20
12.032
 10
61.611
 20
12.222
 10
61.645
 20
12.413
 10
61.948
 20
12.334
 10
62.06
 20
12.447
 10
61.757
 20
12.637
 10
62.811
 20
14.948
 10
63.069
 20
15.138
 10
63.63
 20
15.138
 10
64.045
 20
14.207
 10
64.303
 20
14.241
 10
64.718
 20
14.05
 10
64.449
 20
14.275
 10
64.449
 20
14.544
 10
64.718
 20
14.499
 10
64.718
 20
14.656
 10
64.415
 20
14.802
 10
64.079
 20
14.465
 10
64.0
 20
14.768
 10
64.112
 20
14.992
 10
64.527
 20
15.026
 10
64.718
 20
14.835
 10
64.976
 20
15.026
 10
65.054
 20
14.948
 10
64.897
 20
14.768
 10
64.942
 20
14.656
 10
65.166
 20
14.656
 10
65.279
 20
14.432
 10
65.503
 20
14.32
 10
65.2
 20
14.017
 10
65.279
 20
13.871
 10
65.615
 20
13.759
 10
65.537
 20
13.568
 10
65.727
 20
13.153
 10
65.537
 20
13.007
 10
65.649
 20
12.783
 10
65.57
 20
12.637
 10
65.234
 20
12.368
 10
65.279
 20
12.749
 10
65.054
 20
12.705
 10
65.009
 20
12.413
 10
64.83
 20
12.144
 10
64.673
 20
12.144
 10
64.864
 20
12.559
 10
64.785
 20
12.637
 10
64.561
 20
12.48
 10
64.494
 20
12.637
 10
64.303
 20
12.671
 10
64.303
 20
13.007
 10
64.527
 20
13.568
 10
64.337
 20
13.647
 10
64.0
 20
12.817
 10
64.191
 20
12.559
 10
64.157
 20
12.301
 10
64.381
 20
12.189
 10
64.449
 20
11.92
 10
64.718
 20
11.74
 10
64.494
 20
11.247
 10
64.415
 20
11.325
 10
64.606
 20
11.74
 10
64.337
 20
11.583
 10
64.303
 20
11.774
 10
64.157
 20
11.695
 10
64.157
 20
11.471
 10
64.0
 20
11.516
 10
63.933
 20
11.359
 10
63.854
 20
11.437
 10
64.112
 20
11.964
 10
64.269
 20
12.032
 10
64.191
 20
12.11
 10
63.888
 20
11.964
 10
63.776
 20
11.628
 10
63.63
 20
11.549
 10
63.406
 20
11.662
 10
63.215
 20
11.404
 10
63.294
 20
11.325
 10
63.709
 20
11.404
 10
63.439
 20
10.798
 10
63.821
 20
10.686
 10
63.596
 20
10.462
 10
63.439
 20
10.686
 10
63.26
 20
10.686
 10
63.103
 20
10.394
 10
63.148
 20
10.237
 10
62.879
 20
10.349
 10
62.733
 20
10.652
 10
62.587
 20
10.574
 10
62.542
 20
10.282
 10
62.206
 20
10.125
 10
63.63
 20
10.091
 10
63.854
 20
10.204
 10
65.2
 20
10.204
 10
65.682
 20
10.394
 10
66.322
 20
11.662
 10
67.667
 20
14.914
 10
67.746
 20
15.217
 10
67.365
 20
15.845
 10
65.727
 20
17.46
 10
65.57
 20
17.751
 10
65.009
 20
18.312
 10
64.415
 20
18.727
 10
63.966
 20
18.839
 10
61.163
 20
18.839
 10
60.938
 20
18.951
 97
0
 92
3
 72
0
 73
1
 93
5
 10
65.234
 20
14.992
 10
65.537
 20
15.026
 10
65.649
 20
14.914
 10
65.57
 20
14.768
 10
65.312
 20
14.69
 97
0
 92
3
 72
0
 73
1
 93
5
 10
56.98
 20
14.32
 10
56.486
 20
14.095
 10
56.486
 20
13.938
 10
56.789
 20
14.017
 10
56.98
 20
13.938
 97
0
 92
3
 72
0
 73
1
 93
17
 10
63.036
 20
14.32
 10
62.845
 20
14.129
 10
62.923
 20
13.938
 10
62.766
 20
13.602
 10
62.991
 20
13.647
 10
63.148
 20
14.05
 10
63.26
 20
14.095
 10
63.26
 20
13.422
 10
63.484
 20
13.422
 10
64.045
 20
13.153
 10
64.0
 20
13.377
 10
63.552
 20
13.49
 10
63.406
 20
13.792
 10
63.596
 20
14.05
 10
63.552
 20
14.162
 10
63.372
 20
14.32
 10
63.103
 20
14.162
 97
0
 92
3
 72
0
 73
1
 93
6
 10
63.821
 20
14.207
 10
63.742
 20
14.129
 10
63.933
 20
13.759
 10
64.112
 20
13.759
 10
64.157
 20
13.983
 10
63.888
 20
14.05
 97
0
 92
3
 72
0
 73
1
 93
4
 10
56.867
 20
13.871
 10
56.486
 20
13.647
 10
56.677
 20
13.344
 10
56.901
 20
13.568
 97
0
 92
3
 72
0
 73
1
 93
9
 10
65.166
 20
13.759
 10
65.054
 20
13.377
 10
64.864
 20
13.232
 10
64.897
 20
13.153
 10
65.2
 20
13.232
 10
65.391
 20
13.041
 10
65.503
 20
13.31
 10
65.312
 20
13.456
 10
65.391
 20
13.647
 97
0
 92
3
 72
0
 73
1
 93
5
 10
62.475
 20
13.086
 10
62.43
 20
12.817
 10
62.587
 20
12.862
 10
62.923
 20
12.705
 10
62.923
 20
12.862
 97
0
 92
3
 72
0
 73
1
 93
6
 10
62.845
 20
11.437
 10
62.699
 20
11.359
 10
62.699
 20
11.179
 10
63.148
 20
10.91
 10
63.148
 20
11.179
 10
62.991
 20
11.134
 97
0
 75
0
 76
1
 98
0
  0
LWPOLYLINE
  5
37
330
17
100
AcDbEntity
  8
CUT
100
AcDbPolyline
 90
23
 70
1
 10
81.434
 20
27.579
 10
86.527
 20
27.579
 10
88.783
 20
26.684
 10
91.255
 20
24.037
 10
93.117
 20
20.188
 10
93.837
 20
16.565
 10
93.837
 20
11.865
 10
93.464
 20
9.501
 10
92.824
 20
7.883
 10
91.555
 20
6.137
 10
88.605
 20
4.337
 10
85.836
 20
3.863
 10
82.121
 20
3.863
 10
79.353
 20
4.337
 10
76.531
 20
6.01
 10
75.472
 20
7.221
 10
74.47
 20
9.224
 10
73.997
 20
11.987
 10
73.997
 20
16.32
 10
74.951
 20
20.816
 10
76.12
 20
23.254
 10
77.627
 20
25.358
 10
79.629
 20
26.985
  0
HATCH
  5
38
330
17
100
AcDbEntity
  8
RASTER
 62
7
100
AcDbHatch
 10
0.0
 20
0.0
 30
0.0
210
0.0
220
0.0
230
1.0
  2
SOLID
 70
1
 71
0
 91
12
 92
3
 72
0
 73
1
 93
33
 10
83.031
 20
25.374
 10
84.84
 20
25.411
 10
85.578
 20
25.165
 10
87.092
 20
24.34
 10
88.445
 20
22.987
 10
89.306
 20
21.756
 10
90.254
 20
19.997
 10
91.115
 20
17.782
 10
91.607
 20
15.69
 10
91.607
 20
12.737
 10
91.484
 20
12.122
 10
90.869
 20
10.276
 10
90.291
 20
9.255
 10
88.814
 20
7.655
 10
88.076
 20
7.163
 10
86.932
 20
6.584
 10
85.086
 20
6.092
 10
82.871
 20
6.092
 10
82.256
 20
6.215
 10
80.779
 20
6.707
 10
79.512
 20
7.409
 10
78.404
 20
8.27
 10
77.666
 20
9.131
 10
76.596
 20
11.26
 10
76.226
 20
12.737
 10
76.226
 20
15.444
 10
76.35
 20
15.69
 10
76.473
 20
16.92
 10
76.842
 20
18.151
 10
77.912
 20
20.649
 10
78.897
 20
22.248
 10
80.25
 20
23.848
 10
81.604
 20
24.832
 97
0
 92
3
 72
0
 73
1
 93
35
 10
83.24
 20
24.795
 10
82.502
 20
24.549
 10
81.111
 20
23.725
 10
80.127
 20
22.741
 10
78.897
 20
21.018
 10
77.949
 20
19.135
 10
77.211
 20
17.043
 10
76.965
 20
15.813
 10
76.965
 20
15.075
 10
76.842
 20
14.829
 10
76.842
 20
13.475
 10
76.965
 20
13.229
 10
77.088
 20
11.999
 10
77.334
 20
11.26
 10
78.035
 20
9.87
 10
79.143
 20
8.516
 10
81.025
 20
7.323
 10
82.625
 20
6.83
 10
84.471
 20
6.707
 10
84.717
 20
6.83
 10
85.947
 20
6.954
 10
86.686
 20
7.2
 10
88.568
 20
8.27
 10
89.306
 20
9.008
 10
90.291
 20
10.608
 10
90.746
 20
11.875
 10
90.992
 20
12.983
 10
90.992
 20
15.198
 10
90.623
 20
17.043
 10
89.885
 20
19.135
 10
88.814
 20
21.264
 10
87.584
 20
22.987
 10
86.599
 20
23.848
 10
85.086
 20
24.672
 10
84.594
 20
24.795
 97
0
 92
3
 72
0
 73
1
 93
11
 10
79.832
 20
20.821
 10
80.041
 20
20.735
 10
79.918
 20
20.489
 10
80.164
 20
19.751
 10
79.832
 20
19.344
 10
79.34
 20
19.172
 10
79.02
 20
19.344
 10
78.934
 20
19.874
 10
79.266
 20
20.526
 10
79.549
 20
20.735
 10
79.881
 20
20.649
 97
0
 92
3
 72
0
 73
1
 93
8
 10
78.478
 20
17.007
 10
78.81
 20
17.043
 10
79.18
 20
16.674
 10
79.18
 20
16.059
 10
78.687
 20
15.567
 10
78.281
 20
15.776
 10
78.072
 20
16.182
 10
78.072
 20
16.428
 97
0
 92
3
 72
0
 73
1
 93
14
 10
83.769
 20
16.76
 10
84.717
 20
16.797
 10
85.123
 20
16.588
 10
85.418
 20
16.268
 10
85.701
 20
15.444
 10
85.701
 20
14.952
 10
85.369
 20
14.053
 10
84.877
 20
13.561
 10
84.471
 20
13.352
 10
83.732
 20
13.352
 10
83.154
 20
13.635
 10
82.748
 20
14.336
 10
82.748
 20
15.444
 10
83.203
 20
16.342
 97
0
 92
3
 72
0
 73
1
 93
7
 10
88.691
 20
16.391
 10
89.023
 20
16.428
 10
89.27
 20
16.182
 10
89.27
 20
15.69
 10
88.9
 20
15.321
 10
88.617
 20
15.407
 10
88.408
 20
15.813
 97
0
 92
3
 72
0
 73
1
 93
4
 10
84.065
 20
16.145
 10
83.979
 20
16.059
 10
84.188
 20
15.481
 10
84.348
 20
15.69
 97
0
 92
3
 72
0
 73
1
 93
9
 10
84.594
 20
15.567
 10
84.508
 20
15.481
 10
84.926
 20
15.284
 10
84.877
 20
15.112
 10
85.0
 20
14.989
 10
85.172
 20
15.358
 10
85.418
 20
15.358
 10
85.209
 20
15.567
 10
85.049
 20
15.481
 97
0
 92
3
 72
0
 73
1
 93
13
 10
83.942
 20
15.284
 10
83.942
 20
15.112
 10
83.646
 20
15.038
 10
83.769
 20
14.496
 10
83.892
 20
14.669
 10
84.065
 20
14.619
 10
84.015
 20
14.915
 10
84.102
 20
14.952
 10
84.262
 20
14.619
 10
84.594
 20
14.829
 10
84.803
 20
14.496
 10
84.926
 20
14.915
 10
84.754
 20
14.866
 97
0
 92
3
 72
0
 73
1
 93
14
 10
78.478
 20
13.069
 10
78.81
 20
13.106
 10
79.709
 20
12.651
 10
80.447
 20
11.789
 10
80.902
 20
10.645
 10
80.779
 20
9.784
 10
80.447
 20
9.378
 10
79.918
 20
9.291
 10
79.266
 20
9.624
 10
78.897
 20
9.87
 10
78.404
 20
10.485
 10
77.949
 20
11.383
 10
77.826
 20
12.122
 10
78.035
 20
12.774
 97
0
 92
3
 72
0
 73
1
 93
30
 10
87.953
 20
12.823
 10
88.654
 20
12.86
 10
88.987
 20
12.7
 10
89.27
 20
12.245
 10
89.27
 20
11.26
 10
88.691
 20
9.993
 10
88.076
 20
9.378
 10
87.424
 20
9.045
 10
87.055
 20
9.045
 10
86.403
 20
9.501
 10
86.193
 20
10.03
 10
86.193
 20
10.645
 10
86.476
 20
11.469
 10
86.649
 20
11.42
 10
87.092
 20
11.715
 10
87.264
 20
11.543
 10
87.301
 20
11.999
 10
87.51
 20
12.158
 10
87.461
 20
12.331
 10
87.633
 20
12.331
 10
87.793
 20
12.122
 10
87.916
 20
12.245
 10
87.633
 20
12.577
 10
87.51
 20
12.528
 10
86.649
 20
11.543
 10
86.563
 20
11.629
 10
86.895
 20
12.158
 10
87.51
 20
12.651
 10
87.67
 20
12.737
 10
87.879
 20
12.651
 97
0
 92
3
 72
0
 73
1
 93
9
 10
82.908
 20
8.516
 10
83.646
 20
8.467
 10
83.979
 20
8.061
 10
83.892
 20
7.778
 10
83.486
 20
7.569
 10
82.834
 20
7.655
 10
82.588
 20
7.901
 10
82.502
 20
8.184
 10
82.588
 20
8.344
 97
0
 75
0
 76
1
 98
0
  0
LWPOLYLINE
  5
39
330
17
100
AcDbEntity
  8
CUT
100
AcDbPolyline
 90
23
 70
1
 10
103.95
 20
27.569
 10
107.776
 20
27.579
 10
113.398
 20
25.24
 10
115.047
 20
24.242
 10
115.354
 20
21.452
 10
118.777
 20
21.376
 10
119.723
 20
20.799
 10
119.783
 20
13.442
 10
119.209
 20
10.651
 10
117.642
 20
7.954
 10
115.193
 20
5.941
 10
113.605
 20
5.332
 10
110.601
 20
4.889
 10
106.198
 20
4.899
 10
105.244
 20
5.641
 10
104.779
 20
7.594
 10
99.001
 20
10.14
 10
97.691
 20
10.996
 10
97.561
 20
15.209
 10
98.931
 20
18.537
 10
99.09
 20
20.659
 10
101.152
 20
22.544
 10
103.319
 20
26.916
  0
HATCH
  5
3A
330
17
100
AcDbEntity
  8
RASTER
 62
7
100
AcDbHatch
 10
0.0
 20
0.0
 30
0.0
210
0.0
220
0.0
230
1.0
  2
SOLID
 70
1
 71
0
 91
15
 92
3
 72
0
 73
1
 93
99
 10
105.61
 20
25.927
 10
105.972
 20
25.956
 10
106.948
 20
25.566
 10
112.222
 20
23.319
 10
113.228
 20
22.763
 10
113.492
 20
22.147
 10
111.666
 20
17.977
 10
112.418
 20
18.338
 10
114.078
 20
18.827
 10
115.348
 20
18.924
 10
116.129
 20
18.729
 10
116.354
 20
18.895
 10
116.588
 20
19.442
 10
116.813
 20
19.608
 10
117.399
 20
19.608
 10
117.916
 20
19.344
 10
118.082
 20
19.022
 10
118.082
 20
18.436
 10
117.985
 20
18.143
 10
117.721
 20
17.625
 10
117.526
 20
17.43
 10
117.985
 20
16.483
 10
118.082
 20
15.994
 10
118.082
 20
14.92
 10
117.985
 20
14.725
 10
117.887
 20
13.748
 10
117.301
 20
11.795
 10
116.842
 20
10.886
 10
115.865
 20
9.519
 10
114.791
 20
8.445
 10
113.912
 20
7.859
 10
112.808
 20
7.302
 10
111.832
 20
7.009
 10
110.855
 20
6.911
 10
110.66
 20
6.814
 10
110.074
 20
6.814
 10
109.097
 20
6.618
 10
107.73
 20
6.618
 10
107.212
 20
6.882
 10
106.851
 20
7.497
 10
106.851
 20
9.06
 10
106.782
 20
9.187
 10
104.018
 20
10.33
 10
101.215
 20
11.629
 10
101.381
 20
11.697
 10
101.674
 20
11.599
 10
106.46
 20
9.548
 10
106.821
 20
9.578
 10
106.948
 20
9.841
 10
107.046
 20
10.134
 10
106.948
 20
10.525
 10
106.948
 20
11.306
 10
107.144
 20
11.99
 10
107.144
 20
12.381
 10
107.534
 20
13.553
 10
108.023
 20
14.432
 10
108.023
 20
14.627
 10
107.954
 20
14.754
 10
107.534
 20
14.92
 10
106.558
 20
14.92
 10
106.362
 20
14.822
 10
105.972
 20
14.822
 10
105.288
 20
14.529
 10
105.063
 20
14.598
 10
104.409
 20
16.092
 10
104.184
 20
16.942
 10
103.95
 20
17.293
 10
103.628
 20
17.459
 10
102.749
 20
17.655
 10
102.26
 20
17.655
 10
101.87
 20
17.948
 10
101.45
 20
17.879
 10
100.825
 20
16.649
 10
100.473
 20
16.121
 10
100.112
 20
15.213
 10
99.721
 20
14.529
 10
99.526
 20
14.041
 10
99.526
 20
13.748
 10
99.33
 20
13.357
 10
99.33
 20
13.064
 10
99.496
 20
12.742
 10
99.789
 20
12.449
 10
101.157
 20
11.726
 10
100.795
 20
11.795
 10
99.692
 20
12.351
 10
99.399
 20
12.644
 10
99.233
 20
12.967
 10
99.233
 20
13.553
 10
99.526
 20
14.432
 10
101.381
 20
18.143
 10
100.766
 20
18.407
 10
100.698
 20
18.924
 10
101.118
 20
19.481
 10
101.313
 20
19.579
 10
101.938
 20
20.223
 10
102.485
 20
20.555
 10
102.719
 20
20.516
 10
105.161
 20
25.497
 10
105.356
 20
25.79
 97
0
 92
3
 72
0
 73
1
 93
12
 10
105.776
 20
25.273
 10
105.61
 20
25.146
 10
104.507
 20
22.733
 10
104.8
 20
22.538
 10
105.19
 20
22.538
 10
106.558
 20
21.854
 10
107.046
 20
21.757
 10
107.271
 20
21.923
 10
108.189
 20
23.837
 10
108.482
 20
24.169
 10
108.316
 20
24.394
 10
106.362
 20
25.175
 97
0
 92
3
 72
0
 73
1
 93
12
 10
106.001
 20
24.56
 10
106.489
 20
24.521
 10
106.782
 20
24.325
 10
106.88
 20
24.032
 10
107.017
 20
23.935
 10
106.753
 20
24.003
 10
106.196
 20
23.485
 10
105.776
 20
23.417
 10
105.581
 20
23.222
 10
105.483
 20
23.319
 10
105.679
 20
23.71
 10
105.581
 20
23.905
 97
0
 92
3
 72
0
 73
1
 93
17
 10
109.488
 20
23.808
 10
109.195
 20
23.515
 10
109.195
 20
23.319
 10
108.218
 20
21.171
 10
108.316
 20
21.073
 10
108.609
 20
21.073
 10
109.585
 20
20.78
 10
110.464
 20
20.292
 10
110.855
 20
20.194
 10
111.148
 20
20.487
 10
111.441
 20
21.366
 10
111.412
 20
21.786
 10
111.607
 20
21.786
 10
111.666
 20
22.313
 10
111.959
 20
22.411
 10
112.125
 20
22.733
 10
110.757
 20
23.417
 97
0
 92
3
 72
0
 73
1
 93
21
 10
104.018
 20
21.659
 10
103.725
 20
21.366
 10
103.139
 20
19.999
 10
103.139
 20
19.706
 10
103.266
 20
19.54
 10
103.403
 20
19.579
 10
104.214
 20
19.217
 10
104.477
 20
19.247
 10
104.604
 20
19.51
 10
104.702
 20
19.413
 10
104.77
 20
18.993
 10
104.966
 20
18.797
 10
105.19
 20
18.729
 10
105.454
 20
18.954
 10
105.513
 20
19.383
 10
105.806
 20
19.579
 10
105.903
 20
19.872
 10
106.333
 20
20.028
 10
106.724
 20
20.458
 10
106.587
 20
20.614
 10
106.069
 20
20.878
 97
0
 92
3
 72
0
 73
1
 93
25
 10
102.524
 20
20.165
 10
102.231
 20
20.028
 10
101.254
 20
19.051
 10
101.118
 20
18.758
 10
102.036
 20
18.407
 10
102.231
 20
18.016
 10
102.456
 20
17.85
 10
103.237
 20
17.85
 10
103.725
 20
17.752
 10
104.243
 20
17.489
 10
104.507
 20
16.971
 10
104.8
 20
15.701
 10
105.161
 20
14.988
 10
105.581
 20
14.92
 10
106.362
 20
15.115
 10
107.632
 20
15.115
 10
108.12
 20
14.92
 10
108.345
 20
15.086
 10
108.775
 20
15.731
 10
108.511
 20
15.897
 10
106.265
 20
15.799
 10
105.942
 20
15.965
 10
104.731
 20
18.27
 10
103.11
 20
19.188
 10
102.817
 20
19.481
 97
0
 92
3
 72
0
 73
1
 93
34
 10
107.827
 20
19.901
 10
107.603
 20
19.735
 10
107.437
 20
19.413
 10
106.587
 20
17.391
 10
107.144
 20
17.069
 10
109.097
 20
16.287
 10
109.292
 20
16.58
 10
109.292
 20
16.873
 10
109.488
 20
17.362
 10
109.419
 20
17.782
 10
109.097
 20
18.045
 10
109.165
 20
18.309
 10
108.833
 20
18.309
 10
108.706
 20
18.045
 10
108.511
 20
18.338
 10
108.384
 20
17.977
 10
107.925
 20
17.948
 10
107.73
 20
18.045
 10
107.603
 20
17.782
 10
107.437
 20
17.752
 10
107.241
 20
17.948
 10
107.466
 20
18.7
 10
108.023
 20
19.315
 10
108.609
 20
19.12
 10
108.902
 20
18.924
 10
109.165
 20
18.895
 10
109.224
 20
18.563
 10
109.488
 20
18.631
 10
109.683
 20
18.436
 10
110.201
 20
18.504
 10
110.367
 20
18.827
 10
109.878
 20
19.12
 10
109.585
 20
19.12
 10
109.292
 20
19.315
 97
0
 92
3
 72
0
 73
1
 93
8
 10
117.106
 20
19.12
 10
116.979
 20
19.051
 10
116.715
 20
18.436
 10
117.076
 20
18.114
 10
117.301
 20
18.045
 10
117.496
 20
18.338
 10
117.594
 20
18.729
 10
117.428
 20
18.954
 97
0
 92
3
 72
0
 73
1
 93
45
 10
114.469
 20
18.436
 10
114.273
 20
18.338
 10
113.785
 20
18.338
 10
112.808
 20
18.045
 10
110.533
 20
16.707
 10
109.458
 20
15.731
 10
108.482
 20
14.363
 10
107.632
 20
12.576
 10
107.632
 20
12.283
 10
107.437
 20
11.795
 10
107.437
 20
11.404
 10
107.241
 20
10.72
 10
107.339
 20
7.888
 10
107.603
 20
7.273
 10
108.15
 20
7.136
 10
109.39
 20
7.204
 10
110.171
 20
7.4
 10
111.148
 20
7.4
 10
111.539
 20
7.595
 10
111.832
 20
7.595
 10
112.125
 20
7.79
 10
112.32
 20
7.79
 10
112.838
 20
8.152
 10
112.935
 20
8.347
 10
113.228
 20
8.445
 10
113.365
 20
8.699
 10
114.01
 20
9.031
 10
114.537
 20
9.48
 10
114.732
 20
9.519
 10
114.566
 20
9.255
 10
114.693
 20
9.226
 10
115.572
 20
10.105
 10
116.061
 20
10.789
 10
116.324
 20
11.697
 10
116.94
 20
12.547
 10
117.106
 20
12.967
 10
117.203
 20
13.65
 10
117.594
 20
14.92
 10
117.594
 20
16.092
 10
117.33
 20
16.903
 10
117.037
 20
17.489
 10
116.744
 20
17.782
 10
116.354
 20
18.075
 10
115.445
 20
18.436
 10
114.635
 20
18.368
 97
0
 92
3
 72
0
 73
1
 93
10
 10
113.228
 20
17.137
 10
113.463
 20
17.098
 10
111.763
 20
15.965
 10
111.666
 20
15.77
 10
110.591
 20
14.754
 10
110.562
 20
14.92
 10
110.923
 20
15.438
 10
111.509
 20
15.828
 10
112.193
 20
16.512
 10
113.17
 20
17.0
 97
0
 92
3
 72
0
 73
1
 93
5
 10
114.986
 20
14.988
 10
115.055
 20
14.92
 10
114.791
 20
14.5
 10
114.498
 20
14.266
 10
114.537
 20
14.461
 97
0
 92
3
 72
0
 73
1
 93
10
 10
116.842
 20
14.988
 10
117.008
 20
14.92
 10
116.813
 20
14.432
 10
116.813
 20
14.041
 10
116.354
 20
12.937
 10
115.416
 20
11.629
 10
114.889
 20
11.14
 10
114.928
 20
11.433
 10
115.475
 20
12.156
 10
115.963
 20
13.035
 97
0
 92
3
 72
0
 73
1
 93
5
 10
109.224
 20
12.937
 10
108.345
 20
11.043
 10
108.316
 20
11.209
 10
108.511
 20
11.795
 10
108.872
 20
12.508
 97
0
 92
3
 72
0
 73
1
 93
15
 10
111.861
 20
11.277
 10
111.929
 20
11.209
 10
111.861
 20
11.082
 10
111.568
 20
10.691
 10
111.021
 20
10.261
 10
110.884
 20
10.007
 10
110.63
 20
9.871
 10
110.005
 20
9.226
 10
109.322
 20
8.894
 10
109.458
 20
9.187
 10
109.751
 20
9.48
 10
110.005
 20
9.617
 10
110.63
 20
10.261
 10
110.884
 20
10.398
 10
111.509
 20
11.043
 97
0
 92
3
 72
0
 73
1
 93
11
 10
114.107
 20
10.398
 10
114.176
 20
10.33
 10
114.107
 20
10.203
 10
113.814
 20
9.812
 10
112.74
 20
8.835
 10
111.05
 20
7.986
 10
110.074
 20
7.693
 10
109.908
 20
7.722
 10
109.908
 20
7.859
 10
110.337
 20
8.113
 10
112.056
 20
8.933
 97
0
 75
0
 76
1
 98
0
  0
LWPOLYLINE
  5
3B
330
17
100
AcDbEntity
  8
CUT
100
AcDbPolyline
 90
29
 70
1
 10
130.851
 20
27.579
 10
135.036
 20
27.485
 10
137.004
 20
25.435
 10
139.024
 20
26.381
 10
143.147
 20
26.287
 10
145.334
 20
24.651
 10
145.791
 20
22.41
 10
146.566
 20
21.118
 10
146.639
 20
17.237
 10
146.244
 20
16.032
 10
143.587
 20
12.842
 10
142.634
 20
10.584
 10
140.574
 20
9.434
 10
137.655
 20
6.207
 10
136.621
 20
5.626
 10
132.556
 20
5.543
 10
130.721
 20
5.91
 10
129.58
 20
6.689
 10
128.7
 20
8.008
 10
126.273
 20
8.199
 10
124.967
 20
8.805
 10
124.033
 20
9.782
 10
123.507
 20
10.865
 10
123.58
 20
16.218
 10
124.358
 20
17.277
 10
128.192
 20
19.77
 10
127.82
 20
21.445
 10
127.955
 20
25.472
 10
128.49
 20
26.163
  0
HATCH
  5
3C
330
17
100
AcDbEntity
  8
RASTER
 62
7
100
AcDbHatch
 10
0.0
 20
0.0
 30
0.0
210
0.0
220
0.0
230
1.0
  2
SOLID
 70
1
 71
0
 91
15
 92
3
 72
0
 73
1
 93
62
 10
132.394
 20
25.73
 10
133.08
 20
25.761
 10
133.828
 20
25.382
 10
136.287
 20
21.899
 10
139.504
 20
24.05
 10
140.457
 20
24.531
 10
141.276
 20
24.531
 10
141.819
 20
24.255
 10
142.024
 20
24.05
 10
142.372
 20
23.374
 10
143.018
 20
23.302
 10
143.458
 20
23.026
 10
143.837
 20
22.278
 10
143.837
 20
21.356
 10
143.663
 20
20.915
 10
143.458
 20
20.669
 10
144.175
 20
20.362
 10
144.483
 20
20.055
 10
144.862
 20
19.102
 10
144.759
 20
18.385
 10
144.278
 20
17.534
 10
141.553
 20
14.317
 10
141.481
 20
13.57
 10
141.276
 20
12.955
 10
141.0
 20
12.514
 10
140.282
 20
11.9
 10
138.889
 20
11.347
 10
138.438
 20
10.773
 10
137.865
 20
10.22
 10
137.721
 20
9.953
 10
136.943
 20
9.195
 10
136.799
 20
8.929
 10
135.672
 20
7.802
 10
134.924
 20
7.423
 10
133.49
 20
7.423
 10
132.466
 20
7.73
 10
131.615
 20
8.212
 10
131.206
 20
8.621
 10
130.827
 20
9.267
 10
130.724
 20
9.574
 10
130.693
 20
10.773
 10
129.597
 20
10.086
 10
128.88
 20
9.882
 10
128.061
 20
9.984
 10
126.903
 20
10.465
 10
126.596
 20
10.67
 10
125.776
 20
11.592
 10
125.294
 20
12.648
 10
125.294
 20
13.16
 10
125.192
 20
13.365
 10
125.397
 20
14.492
 10
125.878
 20
15.342
 10
131.82
 20
19.133
 10
130.652
 20
20.977
 10
130.079
 20
21.735
 10
129.7
 20
22.483
 10
129.597
 20
23.2
 10
129.935
 20
24.091
 10
130.181
 20
24.357
 10
130.724
 20
24.634
 10
131.308
 20
24.665
 10
131.718
 20
25.382
 97
0
 92
3
 72
0
 73
1
 93
17
 10
132.568
 20
25.249
 10
132.025
 20
24.972
 10
131.851
 20
24.634
 10
131.923
 20
24.193
 10
132.804
 20
23.026
 10
134.279
 20
20.813
 10
135.775
 20
18.825
 10
136.635
 20
17.432
 10
137.516
 20
16.264
 10
138.275
 20
15.076
 10
138.377
 20
15.035
 10
138.787
 20
15.649
 10
139.432
 20
15.926
 10
140.016
 20
15.957
 10
137.352
 20
19.481
 10
133.623
 20
24.87
 10
133.08
 20
25.249
 97
0
 92
3
 72
0
 73
1
 93
25
 10
130.724
 20
24.122
 10
130.386
 20
23.948
 10
130.109
 20
23.405
 10
130.109
 20
22.79
 10
130.284
 20
22.452
 10
133.931
 20
17.084
 10
135.816
 20
14.01
 10
136.226
 20
14.727
 10
136.533
 20
15.035
 10
137.557
 20
15.444
 10
137.516
 20
15.547
 10
135.304
 20
18.456
 10
132.23
 20
22.862
 10
132.087
 20
22.821
 10
132.087
 20
22.964
 10
131.882
 20
22.718
 10
132.025
 20
23.066
 10
131.82
 20
22.923
 10
131.718
 20
22.964
 10
131.103
 20
23.681
 10
131.031
 20
23.814
 10
131.134
 20
23.917
 10
131.574
 20
23.64
 10
131.574
 20
23.743
 10
130.929
 20
24.122
 97
0
 92
3
 72
0
 73
1
 93
17
 10
140.866
 20
24.122
 10
140.457
 20
24.019
 10
139.606
 20
23.538
 10
136.738
 20
21.591
 10
136.666
 20
21.356
 10
136.943
 20
20.915
 10
137.25
 20
20.669
 10
138.07
 20
21.284
 10
139.811
 20
22.308
 10
139.944
 20
22.38
 10
140.119
 20
22.308
 10
140.221
 20
22.452
 10
140.354
 20
22.073
 10
141.614
 20
22.862
 10
141.86
 20
23.128
 10
141.717
 20
23.538
 10
141.512
 20
23.845
 97
0
 92
3
 72
0
 73
1
 93
26
 10
142.608
 20
22.79
 10
141.655
 20
22.308
 10
137.926
 20
19.788
 10
137.967
 20
19.481
 10
138.992
 20
18.149
 10
139.156
 20
18.149
 10
140.385
 20
19.071
 10
140.457
 20
19.204
 10
140.385
 20
19.276
 10
139.975
 20
18.928
 10
140.119
 20
19.276
 10
139.873
 20
19.133
 10
139.914
 20
19.378
 10
139.463
 20
19.337
 10
139.606
 20
19.645
 10
140.016
 20
19.952
 10
141.409
 20
20.813
 10
141.512
 20
20.772
 10
141.584
 20
20.536
 10
141.963
 20
20.608
 10
141.891
 20
20.331
 10
141.963
 20
20.259
 10
143.192
 20
21.079
 10
143.325
 20
21.356
 10
143.325
 20
22.175
 10
143.049
 20
22.718
 97
0
 92
3
 72
0
 73
1
 93
29
 10
143.223
 20
20.126
 10
140.047
 20
16.848
 10
140.426
 20
16.203
 10
141.379
 20
15.004
 10
141.717
 20
15.28
 10
141.86
 20
15.547
 10
142.331
 20
15.998
 10
142.475
 20
16.264
 10
143.53
 20
17.463
 10
143.458
 20
17.534
 10
143.356
 20
17.329
 10
142.68
 20
16.674
 10
142.434
 20
16.674
 10
142.68
 20
17.022
 10
142.331
 20
16.879
 10
142.372
 20
17.125
 10
142.127
 20
17.084
 10
142.331
 20
17.432
 10
143.151
 20
18.251
 10
143.253
 20
18.006
 10
143.356
 20
18.149
 10
143.458
 20
18.006
 10
143.807
 20
18.047
 10
143.632
 20
17.77
 10
143.766
 20
17.739
 10
144.247
 20
18.487
 10
144.35
 20
18.999
 10
144.073
 20
19.747
 10
143.632
 20
20.126
 97
0
 92
3
 72
0
 73
1
 93
11
 10
131.441
 20
18.282
 10
128.849
 20
16.674
 10
127.62
 20
15.854
 10
127.579
 20
15.752
 10
128.296
 20
15.444
 10
128.849
 20
14.871
 10
129.013
 20
14.871
 10
132.087
 20
17.125
 10
132.158
 20
17.36
 10
131.882
 20
17.903
 10
131.677
 20
18.21
 97
0
 92
3
 72
0
 73
1
 93
7
 10
139.535
 20
17.668
 10
139.432
 20
17.565
 10
139.504
 20
17.432
 10
139.74
 20
17.258
 10
140.119
 20
17.596
 10
139.77
 20
17.391
 10
139.565
 20
17.493
 97
0
 92
3
 72
0
 73
1
 93
12
 10
132.947
 20
16.203
 10
132.64
 20
16.059
 10
129.597
 20
13.877
 10
130.243
 20
13.498
 10
130.652
 20
12.986
 10
130.827
 20
12.545
 10
130.857
 20
11.756
 10
132.496
 20
13.027
 10
133.562
 20
14.01
 10
133.593
 20
14.799
 10
133.49
 20
15.311
 10
133.214
 20
15.957
 97
0
 92
3
 72
0
 73
1
 93
47
 10
139.432
 20
15.516
 10
139.094
 20
15.342
 10
138.787
 20
15.035
 10
138.715
 20
14.389
 10
138.992
 20
14.051
 10
139.432
 20
13.979
 10
139.463
 20
14.113
 10
139.125
 20
14.492
 10
139.197
 20
14.83
 10
139.637
 20
15.106
 10
140.282
 20
14.83
 10
140.559
 20
14.287
 10
140.559
 20
13.775
 10
140.385
 20
13.334
 10
140.078
 20
12.924
 10
139.33
 20
12.443
 10
138.613
 20
12.238
 10
137.895
 20
12.34
 10
137.25
 20
12.617
 10
136.943
 20
12.924
 10
136.666
 20
13.57
 10
136.84
 20
14.113
 10
137.178
 20
14.389
 10
137.721
 20
14.317
 10
137.793
 20
13.877
 10
137.588
 20
13.57
 10
137.691
 20
13.467
 10
137.926
 20
13.539
 10
138.203
 20
13.877
 10
138.131
 20
14.625
 10
137.824
 20
14.932
 10
137.383
 20
15.004
 10
136.635
 20
14.625
 10
136.256
 20
13.979
 10
136.256
 20
13.262
 10
136.533
 20
12.719
 10
136.84
 20
12.412
 10
137.895
 20
11.93
 10
138.92
 20
11.93
 10
139.33
 20
12.033
 10
140.282
 20
12.514
 10
140.59
 20
12.822
 10
140.969
 20
13.57
 10
140.969
 20
14.389
 10
140.692
 20
14.932
 10
140.282
 20
15.342
 10
139.944
 20
15.516
 97
0
 92
3
 72
0
 73
1
 93
52
 10
127.241
 20
15.414
 10
126.698
 20
15.24
 10
126.083
 20
14.83
 10
125.704
 20
13.877
 10
125.704
 20
13.057
 10
125.807
 20
12.648
 10
126.288
 20
11.695
 10
127.005
 20
10.978
 10
127.753
 20
10.599
 10
128.47
 20
10.394
 10
129.392
 20
10.496
 10
130.038
 20
10.875
 10
130.417
 20
11.623
 10
130.417
 20
12.545
 10
130.243
 20
12.986
 10
129.833
 20
13.395
 10
128.983
 20
13.467
 10
128.644
 20
13.191
 10
128.47
 20
12.852
 10
128.47
 20
12.34
 10
128.603
 20
12.064
 10
128.747
 20
12.064
 10
128.952
 20
12.678
 10
129.29
 20
12.852
 10
129.73
 20
12.576
 10
129.874
 20
12.105
 10
129.628
 20
11.387
 10
129.423
 20
11.183
 10
128.778
 20
10.906
 10
128.265
 20
10.906
 10
127.415
 20
11.285
 10
126.698
 20
11.9
 10
126.319
 20
12.545
 10
126.114
 20
13.16
 10
126.114
 20
13.57
 10
126.391
 20
14.317
 10
126.698
 20
14.625
 10
127.036
 20
14.799
 10
127.548
 20
14.799
 10
127.886
 20
14.625
 10
128.061
 20
14.287
 10
128.061
 20
13.877
 10
127.927
 20
13.6
 10
127.477
 20
13.436
 10
127.518
 20
13.232
 10
127.651
 20
13.16
 10
128.061
 20
13.16
 10
128.44
 20
13.395
 10
128.778
 20
14.082
 10
128.706
 20
14.42
 10
128.296
 20
15.035
 10
127.753
 20
15.311
 97
0
 92
3
 72
0
 73
1
 93
14
 10
132.599
 20
14.358
 10
132.742
 20
14.358
 10
132.701
 20
14.215
 10
132.906
 20
14.01
 10
133.009
 20
14.154
 10
133.152
 20
14.154
 10
132.947
 20
13.703
 10
132.773
 20
13.775
 10
132.537
 20
13.6
 10
132.292
 20
13.6
 10
132.333
 20
13.846
 10
132.128
 20
13.703
 10
131.882
 20
13.703
 10
132.128
 20
14.01
 97
0
 92
3
 72
0
 73
1
 93
13
 10
134.279
 20
13.846
 10
133.562
 20
13.293
 10
132.906
 20
12.617
 10
132.64
 20
12.473
 10
132.292
 20
12.064
 10
132.773
 20
11.93
 10
133.357
 20
11.551
 10
133.459
 20
11.756
 10
134.484
 20
12.781
 10
134.791
 20
12.822
 10
134.894
 20
12.678
 10
134.822
 20
13.16
 10
134.648
 20
13.498
 97
0
 92
3
 72
0
 73
1
 93
9
 10
135.406
 20
12.514
 10
134.443
 20
11.551
 10
135.467
 20
11.142
 10
135.98
 20
10.527
 10
136.154
 20
9.984
 10
136.328
 20
9.81
 10
136.461
 20
11.008
 10
136.256
 20
11.623
 10
135.98
 20
12.064
 97
0
 92
3
 72
0
 73
1
 93
51
 10
131.954
 20
11.623
 10
131.411
 20
11.244
 10
131.134
 20
10.701
 10
131.134
 20
9.882
 10
131.411
 20
9.236
 10
132.128
 20
8.519
 10
133.183
 20
8.037
 10
134.238
 20
7.863
 10
134.822
 20
7.935
 10
135.365
 20
8.212
 10
135.57
 20
8.417
 10
135.847
 20
8.959
 10
135.847
 20
9.984
 10
135.57
 20
10.527
 10
135.263
 20
10.834
 10
134.72
 20
11.111
 10
134.207
 20
11.111
 10
133.726
 20
10.875
 10
133.49
 20
10.394
 10
133.49
 20
10.086
 10
133.767
 20
9.646
 10
134.074
 20
9.502
 10
134.177
 20
9.646
 10
133.9
 20
9.984
 10
133.972
 20
10.322
 10
134.207
 20
10.496
 10
134.75
 20
10.424
 10
134.955
 20
10.22
 10
135.232
 20
9.574
 10
135.232
 20
9.267
 10
134.894
 20
8.683
 10
134.105
 20
8.345
 10
133.388
 20
8.345
 10
132.64
 20
8.621
 10
132.025
 20
9.031
 10
131.82
 20
9.236
 10
131.544
 20
9.779
 10
131.472
 20
10.158
 10
131.615
 20
10.732
 10
132.158
 20
11.111
 10
132.701
 20
10.937
 10
132.876
 20
10.701
 10
132.876
 20
10.394
 10
132.496
 20
10.015
 10
132.773
 20
9.882
 10
132.906
 20
9.953
 10
133.08
 20
10.291
 10
133.08
 20
10.599
 10
133.255
 20
11.08
 10
133.111
 20
11.347
 10
132.773
 20
11.623
 97
0
 75
0
 76
1
 98
0
  0
LWPOLYLINE
  5
3D
330
17
100
AcDbEntity
  8
CUT
100
AcDbPolyline
 90
39
 70
1
 10
165.889
 20
27.58
 10
169.125
 20
27.479
 10
169.812
 20
26.72
 10
170.032
 20
24.817
 10
172.184
 20
24.587
 10
172.829
 20
23.778
 10
172.694
 20
20.489
 10
172.151
 20
20.079
 10
170.731
 20
19.87
 10
170.39
 20
17.197
 10
169.472
 20
15.926
 10
168.027
 20
14.751
 10
167.963
 20
11.125
 10
167.685
 20
9.837
 10
166.957
 20
9.539
 10
163.938
 20
9.58
 10
160.953
 20
10.637
 10
159.302
 20
10.047
 10
157.423
 20
9.803
 10
157.061
 20
8.906
 10
156.676
 20
8.684
 10
153.431
 20
8.81
 10
153.101
 20
9.355
 10
152.93
 20
10.812
 10
150.986
 20
11.16
 10
150.529
 20
11.635
 10
150.363
 20
12.429
 10
150.405
 20
17.665
 10
150.969
 20
18.229
 10
153.04
 20
18.384
 10
152.884
 20
19.266
 10
153.036
 20
22.148
 10
154.874
 20
22.972
 10
157.958
 20
23.244
 10
158.911
 20
25.309
 10
160.701
 20
27.049
 10
163.774
 20
27.1
 10
164.959
 20
25.936
 10
165.112
 20
27.154
  0
HATCH
  5
3E
330
17
100
AcDbEntity
  8
RASTER
 62
7
100
AcDbHatch
 10
0.0
 20
0.0
 30
0.0
210
0.0
220
0.0
230
1.0
  2
SOLID
 70
1
 71
0
 91
7
 92
3
 72
0
 73
1
 93
137
 10
167.118
 20
26.083
 10
167.582
 20
26.107
 10
167.85
 20
25.969
 10
168.176
 20
25.725
 10
168.395
 20
25.294
 10
168.395
 20
24.562
 10
168.314
 20
24.236
 10
167.85
 20
23.236
 10
167.281
 20
22.309
 10
168.965
 20
23.016
 10
170.022
 20
23.26
 10
170.673
 20
23.179
 10
171.104
 20
22.959
 10
171.267
 20
22.797
 10
171.405
 20
22.447
 10
171.218
 20
21.821
 10
170.941
 20
21.528
 10
170.835
 20
21.471
 10
170.404
 20
21.528
 10
170.347
 20
22.04
 10
170.185
 20
22.122
 10
169.103
 20
21.577
 10
167.525
 20
20.47
 10
167.606
 20
20.356
 10
167.745
 20
20.413
 10
167.989
 20
20.332
 10
168.745
 20
19.95
 10
169.152
 20
19.624
 10
169.209
 20
19.275
 10
169.046
 20
18.868
 10
168.745
 20
18.274
 10
168.338
 20
17.705
 10
167.525
 20
16.892
 10
166.769
 20
16.428
 10
166.118
 20
16.184
 10
165.467
 20
16.103
 10
165.386
 20
16.021
 10
165.736
 20
15.639
 10
166.118
 20
14.882
 10
166.443
 20
13.581
 10
166.443
 20
12.036
 10
166.142
 20
11.117
 10
165.874
 20
10.978
 10
165.223
 20
11.06
 10
163.515
 20
11.548
 10
162.759
 20
11.93
 10
161.783
 20
12.825
 10
161.482
 20
13.337
 10
161.262
 20
13.963
 10
160.53
 20
12.825
 10
159.717
 20
12.255
 10
158.797
 20
11.792
 10
157.171
 20
11.385
 10
156.683
 20
11.385
 10
156.3
 20
11.767
 10
155.926
 20
11.409
 10
155.707
 20
11.06
 10
155.788
 20
10.734
 10
155.731
 20
10.385
 10
155.3
 20
10.084
 10
154.869
 20
10.222
 10
154.568
 20
10.653
 10
154.568
 20
11.222
 10
154.731
 20
11.71
 10
155.276
 20
12.629
 10
155.975
 20
13.394
 10
156.17
 20
13.719
 10
156.008
 20
13.687
 10
155.08
 20
13.069
 10
154.324
 20
12.686
 10
153.511
 20
12.442
 10
152.778
 20
12.442
 10
152.266
 20
12.662
 10
151.941
 20
13.069
 10
151.802
 20
13.5
 10
151.941
 20
14.012
 10
152.071
 20
14.207
 10
152.29
 20
14.313
 10
152.534
 20
14.394
 10
152.803
 20
14.256
 10
153.079
 20
13.719
 10
153.185
 20
13.662
 10
154.186
 20
14.289
 10
155.276
 20
15.151
 10
154.812
 20
15.045
 10
154.405
 20
15.045
 10
154.243
 20
14.964
 10
153.022
 20
14.964
 10
152.103
 20
15.346
 10
151.802
 20
15.859
 10
151.802
 20
16.265
 10
151.941
 20
16.534
 10
152.185
 20
16.778
 10
152.453
 20
16.835
 10
152.722
 20
16.696
 10
152.917
 20
16.241
 10
153.022
 20
16.184
 10
153.429
 20
16.184
 10
154.649
 20
16.509
 10
156.113
 20
17.079
 10
156.52
 20
17.323
 10
156.089
 20
17.624
 10
155.438
 20
18.274
 10
155.032
 20
18.844
 10
154.731
 20
19.356
 10
154.405
 20
20.169
 10
154.462
 20
20.682
 10
154.869
 20
21.007
 10
155.381
 20
21.227
 10
156.113
 20
21.471
 10
156.927
 20
21.633
 10
158.065
 20
21.633
 10
158.879
 20
21.389
 10
159.668
 20
21.007
 10
159.611
 20
22.122
 10
159.855
 20
22.935
 10
160.237
 20
23.691
 10
160.562
 20
24.179
 10
161.457
 20
25.155
 10
162.295
 20
25.7
 10
162.645
 20
25.562
 10
162.97
 20
25.237
 10
163.783
 20
24.098
 10
164.328
 20
22.854
 10
164.41
 20
22.528
 10
164.41
 20
21.878
 10
164.491
 20
21.796
 10
166.386
 20
23.643
 10
167.037
 20
24.537
 10
167.257
 20
24.968
 10
167.232
 20
25.107
 10
167.094
 20
25.131
 10
166.931
 20
25.05
 10
166.581
 20
25.107
 10
166.443
 20
25.294
 10
166.443
 20
25.538
 10
166.663
 20
25.887
 97
0
 92
3
 72
0
 73
1
 93
43
 10
162.295
 20
25.294
 10
162.027
 20
25.155
 10
161.132
 20
24.261
 10
160.644
 20
23.61
 10
160.18
 20
22.691
 10
159.936
 20
21.471
 10
160.018
 20
21.308
 10
160.018
 20
20.82
 10
160.318
 20
20.064
 10
160.912
 20
19.925
 10
161.238
 20
19.763
 10
161.644
 20
19.925
 10
162.132
 20
19.925
 10
162.401
 20
19.706
 10
162.596
 20
19.332
 10
162.864
 20
19.193
 10
163.108
 20
19.193
 10
163.458
 20
18.974
 10
163.702
 20
18.648
 10
163.922
 20
18.136
 10
163.84
 20
17.648
 10
163.515
 20
17.079
 10
164.247
 20
16.672
 10
164.735
 20
16.509
 10
165.548
 20
16.509
 10
166.874
 20
16.973
 10
167.362
 20
17.298
 10
168.257
 20
18.274
 10
168.802
 20
19.275
 10
168.745
 20
19.462
 10
168.094
 20
19.868
 10
166.85
 20
20.413
 10
166.199
 20
20.576
 10
165.304
 20
20.576
 10
164.735
 20
20.413
 10
163.979
 20
20.031
 10
163.133
 20
19.299
 10
163.922
 20
20.901
 10
164.06
 20
21.821
 10
164.003
 20
22.528
 10
163.678
 20
23.504
 10
163.295
 20
24.179
 10
162.889
 20
24.749
 97
0
 92
3
 72
0
 73
1
 93
26
 10
157.171
 20
21.308
 10
157.008
 20
21.227
 10
156.276
 20
21.145
 10
155.544
 20
20.901
 10
154.788
 20
20.519
 10
154.731
 20
20.332
 10
154.812
 20
20.088
 10
155.276
 20
19.169
 10
155.601
 20
18.681
 10
156.333
 20
17.949
 10
156.658
 20
17.705
 10
157.415
 20
17.323
 10
157.984
 20
17.16
 10
159.204
 20
17.16
 10
159.31
 20
17.217
 10
159.529
 20
17.729
 10
159.529
 20
17.973
 10
159.367
 20
18.461
 10
159.448
 20
18.949
 10
159.668
 20
19.462
 10
160.042
 20
19.82
 10
160.099
 20
19.925
 10
160.042
 20
20.031
 10
159.554
 20
20.601
 10
158.553
 20
21.145
 10
157.903
 20
21.308
 97
0
 92
3
 72
0
 73
1
 93
31
 10
160.587
 20
19.925
 10
160.074
 20
19.706
 10
159.912
 20
19.543
 10
159.611
 20
18.868
 10
159.611
 20
18.38
 10
159.936
 20
17.811
 10
159.529
 20
17.241
 10
159.529
 20
16.509
 10
159.749
 20
16.078
 10
160.099
 20
15.859
 10
160.343
 20
15.859
 10
160.831
 20
16.184
 10
161.213
 20
15.753
 10
161.482
 20
15.615
 10
161.807
 20
15.615
 10
162.157
 20
15.753
 10
162.482
 20
15.997
 10
162.702
 20
16.428
 10
162.726
 20
17.136
 10
163.108
 20
17.16
 10
163.409
 20
17.347
 10
163.678
 20
17.811
 10
163.678
 20
18.217
 10
163.377
 20
18.73
 10
162.864
 20
19.031
 10
162.482
 20
19.055
 10
162.458
 20
19.275
 10
162.238
 20
19.624
 10
161.726
 20
19.681
 10
161.343
 20
19.38
 10
160.937
 20
19.787
 97
0
 92
3
 72
0
 73
1
 93
17
 10
161.018
 20
18.356
 10
161.238
 20
18.38
 10
161.319
 20
18.299
 10
160.994
 20
17.811
 10
160.994
 20
17.404
 10
161.156
 20
17.241
 10
161.587
 20
17.38
 10
162.027
 20
17.835
 10
162.214
 20
17.892
 10
162.295
 20
17.811
 10
162.157
 20
17.542
 10
161.913
 20
17.298
 10
161.319
 20
16.916
 10
161.075
 20
16.916
 10
160.855
 20
17.022
 10
160.75
 20
17.241
 10
160.75
 20
17.892
 97
0
 92
3
 72
0
 73
1
 93
23
 10
159.041
 20
16.916
 10
157.96
 20
16.371
 10
157.228
 20
15.639
 10
156.764
 20
14.801
 10
156.52
 20
13.825
 10
156.52
 20
12.605
 10
156.601
 20
12.198
 10
156.845
 20
11.792
 10
157.171
 20
11.792
 10
158.228
 20
12.036
 10
159.123
 20
12.361
 10
159.798
 20
12.743
 10
160.367
 20
13.231
 10
161.075
 20
14.394
 10
161.238
 20
14.882
 10
161.262
 20
15.314
 10
160.969
 20
15.509
 10
160.75
 20
15.777
 10
160.424
 20
15.615
 10
160.018
 20
15.615
 10
159.749
 20
15.753
 10
159.367
 20
16.184
 10
159.261
 20
16.892
 97
0
 92
3
 72
0
 73
1
 93
23
 10
163.19
 20
16.835
 10
163.084
 20
16.778
 10
162.946
 20
16.265
 10
162.645
 20
15.753
 10
161.97
 20
15.371
 10
161.62
 20
15.314
 10
161.563
 20
15.208
 10
161.506
 20
14.939
 10
161.563
 20
14.394
 10
161.807
 20
13.662
 10
162.189
 20
12.987
 10
162.677
 20
12.499
 10
163.165
 20
12.174
 10
164.572
 20
11.629
 10
165.792
 20
11.385
 10
165.955
 20
11.548
 10
166.118
 20
12.198
 10
166.118
 20
13.418
 10
165.874
 20
14.476
 10
165.329
 20
15.476
 10
164.841
 20
15.964
 10
164.271
 20
16.371
 10
163.352
 20
16.835
 97
0
 75
0
 76
1
 98
0
  0
ENDSEC
  0
SECTION
  2
OBJECTS
  0
DICTIONARY
  5
A
330
0
100
AcDbDictionary
281
1
  3
ACAD_COLOR
350
B
  3
ACAD_GROUP
350
C
  3
ACAD_LAYOUT
350
D
  3
ACAD_MATERIAL
350
E
  3
ACAD_MLEADERSTYLE
350
F
  3
ACAD_MLINESTYLE
350
10
  3
ACAD_PLOTSETTINGS
350
11
  3
ACAD_PLOTSTYLENAME
350
12
  3
ACAD_SCALELIST
350
14
  3
ACAD_TABLESTYLE
350
15
  3
ACAD_VISUALSTYLE
350
16
  3
EZDXF_META
350
2D
  0
DICTIONARY
  5
B
330
A
100
AcDbDictionary
281
1
  0
DICTIONARY
  5
C
330
A
100
AcDbDictionary
281
1
  0
DICTIONARY
  5
D
330
A
100
AcDbDictionary
281
1
  3
Model
350
1A
  3
Layout1
350
1E
  0
DICTIONARY
  5
E
330
A
100
AcDbDictionary
281
1
  3
ByBlock
350
1F
  3
ByLayer
350
20
  3
Global
350
21
  0
DICTIONARY
  5
F
330
A
100
AcDbDictionary
281
1
  3
Standard
350
2C
  0
DICTIONARY
  5
10
330
A
100
AcDbDictionary
281
1
  3
Standard
350
22
  0
DICTIONARY
  5
11
330
A
100
AcDbDictionary
281
1
  0
ACDBDICTIONARYWDFLT
  5
12
330
A
100
AcDbDictionary
281
1
  3
Normal
350
13
100
AcDbDictionaryWithDefault
340
13
  0
ACDBPLACEHOLDER
  5
13
330
12
  0
DICTIONARY
  5
14
330
A
100
AcDbDictionary
281
1
  0
DICTIONARY
  5
15
330
A
100
AcDbDictionary
281
1
  0
DICTIONARY
  5
16
330
A
100
AcDbDictionary
281
1
  0
LAYOUT
  5
1A
330
D
100
AcDbPlotSettings
  1

  4
A3
  6

 40
7.5
 41
20.0
 42
7.5
 43
20.0
 44
420.0
 45
297.0
 46
0.0
 47
0.0
 48
0.0
 49
0.0
140
0.0
141
0.0
142
1.0
143
1.0
 70
1024
 72
1
 73
0
 74
5
  7

 75
16
 76
0
 77
2
 78
300
147
1.0
148
0.0
149
0.0
100
AcDbLayout
  1
Model
 70
1
 71
0
 10
0.0
 20
0.0
 11
420.0
 21
297.0
 12
0.0
 22
0.0
 32
0.0
 14
1e+20
 24
1e+20
 34
1e+20
 15
-1e+20
 25
-1e+20
 35
-1e+20
146
0.0
 13
0.0
 23
0.0
 33
0.0
 16
1.0
 26
0.0
 36
0.0
 17
0.0
 27
1.0
 37
0.0
 76
1
330
17
  0
LAYOUT
  5
1E
330
D
100
AcDbPlotSettings
  1

  4
A3
  6

 40
7.5
 41
20.0
 42
7.5
 43
20.0
 44
420.0
 45
297.0
 46
0.0
 47
0.0
 48
0.0
 49
0.0
140
0.0
141
0.0
142
1.0
143
1.0
 70
0
 72
1
 73
0
 74
5
  7

 75
16
 76
0
 77
2
 78
300
147
1.0
148
0.0
149
0.0
100
AcDbLayout
  1
Layout1
 70
1
 71
1
 10
0.0
 20
0.0
 11
420.0
 21
297.0
 12
0.0
 22
0.0
 32
0.0
 14
1e+20
 24
1e+20
 34
1e+20
 15
-1e+20
 25
-1e+20
 35
-1e+20
146
0.0
 13
0.0
 23
0.0
 33
0.0
 16
1.0
 26
0.0
 36
0.0
 17
0.0
 27
1.0
 37
0.0
 76
1
330
1B
  0
MATERIAL
  5
1F
102
{ACAD_REACTORS
330
E
102
}
330
E
100
AcDbMaterial
  1
ByBlock
  2

 70
0
 40
1.0
 71
1
 41
1.0
 91
-1023410177
 42
1.0
 72
1
  3

 73
1
 74
1
 75
1
 44
0.5
 73
0
 45
1.0
 46
1.0
 77
1
  4

 78
1
 79
1
170
1
 48
1.0
171
1
  6

172
1
173
1
174
1
140
1.0
141
1.0
175
1
  7

176
1
177
1
178
1
143
1.0
179
1
  8

270
1
271
1
272
1
145
1.0
146
1.0
273
1
  9

274
1
275
1
276
1
 42
1.0
 72
1
  3

 73
1
 74
1
 75
1
 94
63
  0
MATERIAL
  5
20
102
{ACAD_REACTORS
330
E
102
}
330
E
100
AcDbMaterial
  1
ByLayer
  2

 70
0
 40
1.0
 71
1
 41
1.0
 91
-1023410177
 42
1.0
 72
1
  3

 73
1
 74
1
 75
1
 44
0.5
 73
0
 45
1.0
 46
1.0
 77
1
  4

 78
1
 79
1
170
1
 48
1.0
171
1
  6

172
1
173
1
174
1
140
1.0
141
1.0
175
1
  7

176
1
177
1
178
1
143
1.0
179
1
  8

270
1
271
1
272
1
145
1.0
146
1.0
273
1
  9

274
1
275
1
276
1
 42
1.0
 72
1
  3

 73
1
 74
1
 75
1
 94
63
  0
MATERIAL
  5
21
102
{ACAD_REACTORS
330
E
102
}
330
E
100
AcDbMaterial
  1
Global
  2

 70
0
 40
1.0
 71
1
 41
1.0
 91
-1023410177
 42
1.0
 72
1
  3

 73
1
 74
1
 75
1
 44
0.5
 73
0
 45
1.0
 46
1.0
 77
1
  4

 78
1
 79
1
170
1
 48
1.0
171
1
  6

172
1
173
1
174
1
140
1.0
141
1.0
175
1
  7

176
1
177
1
178
1
143
1.0
179
1
  8

270
1
271
1
272
1
145
1.0
146
1.0
273
1
  9

274
1
275
1
276
1
 42
1.0
 72
1
  3

 73
1
 74
1
 75
1
 94
63
  0
MLINESTYLE
  5
22
102
{ACAD_REACTORS
330
10
102
}
330
10
100
AcDbMlineStyle
  2
Standard
 70
0
  3

 62
256
 51
90.0
 52
90.0
 71
2
 49
0.5
 62
256
  6
BYLAYER
 49
-0.5
 62
256
  6
BYLAYER
  0
MLEADERSTYLE
  5
2C
102
{ACAD_REACTORS
330
F
102
}
330
F
100
AcDbMLeaderStyle
179
2
170
2
171
1
172
0
 90
2
 40
0.0
 41
0.0
173
1
 91
-1056964608
 92
-2
290
1
 42
2.0
291
1
 43
8.0
  3
Standard
 44
4.0
300

342
29
174
1
175
1
176
0
178
1
 93
-1056964608
 45
4.0
292
0
297
0
 46
4.0
 94
-1056964608
 47
1.0
 49
1.0
140
1.0
294
1
141
0.0
177
0
142
1.0
295
0
296
0
143
3.75
271
0
272
9
273
9
  0
DICTIONARY
  5
2D
330
A
100
AcDbDictionary
280
1
281
1
  3
CREATED_BY_EZDXF
350
2E
  3
WRITTEN_BY_EZDXF
350
41
  0
DICTIONARYVAR
  5
2E
330
2D
100
DictionaryVariables
280
0
  1
1.4.2 @ 2026-08-25T23:57:12.458853+00:00
  0
DICTIONARYVAR
  5
41
330
2D
100
DictionaryVariables
280
0
  1
1.4.2 @ 2026-08-25T23:57:12.460455+00:00
  0
ENDSEC
  0
EOF
