  0
SECTION
  2
HEADER
  9
$ACADVER
  1
AC1015
  9
$ACADMAINTVER
 70
6
  9
$DWGCODEPAGE
  3
ANSI_1252
  9
$INSBASE
 10
0.0
 20
0.0
 30
0.0
  9
$EXTMIN
 10
1e+20
 20
1e+20
 30
1e+20
  9
$EXTMAX
 10
-1e+20
 20
-1e+20
 30
-1e+20
  9
$LIMMIN
 10
0.0
 20
0.0
  9
$LIMMAX
 10
420.0
 20
297.0
  9
$ORTHOMODE
 70
0
  9
$REGENMODE
 70
1
  9
$FILLMODE
 70
1
  9
$QTEXTMODE
 70
0
  9
$MIRRTEXT
 70
1
  9
$LTSCALE
 40
1.0
  9
$ATTMODE
 70
1
  9
$TEXTSIZE
 40
2.5
  9
$TRACEWID
 40
1.0
  9
$TEXTSTYLE
  7
Standard
  9
$CLAYER
  8
0
  9
$CELTYPE
  6
ByLayer
  9
$CECOLOR
 62
256
  9
$CELTSCALE
 40
1.0
  9
$DISPSILH
 70
0
  9
$DIMSCALE
 40
1.0
  9
$DIMASZ
 40
2.5
  9
$DIMEXO
 40
0.625
  9
$DIMDLI
 40
3.75
  9
$DIMRND
 40
0.0
  9
$DIMDLE
 40
0.0
  9
$DIMEXE
 40
1.25
  9
$DIMTP
 40
0.0
  9
$DIMTM
 40
0.0
  9
$DIMTXT
 40
2.5
  9
$DIMCEN
 40
2.5
  9
$DIMTSZ
 40
0.0
  9
$DIMTOL
 70
0
  9
$DIMLIM
 70
0
  9
$DIMTIH
 70
0
  9
$DIMTOH
 70
0
  9
$DIMSE1
 70
0
  9
$DIMSE2
 70
0
  9
$DIMTAD
 70
1
  9
$DIMZIN
 70
8
  9
$DIMBLK
  1

  9
$DIMASO
 70
1
  9
$DIMSHO
 70
1
  9
$DIMPOST
  1

  9
$DIMAPOST
  1

  9
$DIMALT
 70
0
  9
$DIMALTD
 70
3
  9
$DIMALTF
 40
0.03937007874
  9
$DIMLFAC
 40
1.0
  9
$DIMTOFL
 70
1
  9
$DIMTVP
 40
0.0
  9
$DIMTIX
 70
0
  9
$DIMSOXD
 70
0
  9
$DIMSAH
 70
0
  9
$DIMBLK1
  1

  9
$DIMBLK2
  1

  9
$DIMSTYLE
  2
ISO-25
  9
$DIMCLRD
 70
0
  9
$DIMCLRE
 70
0
  9
$DIMCLRT
 70
0
  9
$DIMTFAC
 40
1.0
  9
$DIMGAP
 40
0.625
  9
$DIMJUST
 70
0
  9
$DIMSD1
 70
0
  9
$DIMSD2
 70
0
  9
$DIMTOLJ
 70
0
  9
$DIMTZIN
 70
8
  9
$DIMALTZ
 70
0
  9
$DIMALTTZ
 70
0
  9
$DIMUPT
 70
0
  9
$DIMDEC
 70
2
  9
$DIMTDEC
 70
2
  9
$DIMALTU
 70
2
  9
$DIMALTTD
 70
3
  9
$DIMTXSTY
  7
Standard
  9
$DIMAUNIT
 70
0
  9
$DIMADEC
 70
0
  9
$DIMALTRND
 40
0.0
  9
$DIMAZIN
 70
0
  9
$DIMDSEP
 70
44
  9
$DIMATFIT
 70
3
  9
$DIMFRAC
 70
0
  9
$DIMLDRBLK
  1

  9
$DIMLUNIT
 70
2
  9
$DIMLWD
 70
-2
  9
$DIMLWE
 70
-2
  9
$DIMTMOVE
 70
0
  9
$LUNITS
 70
2
  9
$LUPREC
 70
4
  9
$SKETCHINC
 40
1.0
  9
$FILLETRAD
 40
10.0
  9
$AUNITS
 70
0
  9
$AUPREC
 70
2
  9
$MENU
  1
.
  9
$ELEVATION
 40
0.0
  9
$PELEVATION
 40
0.0
  9
$THICKNESS
 40
0.0
  9
$LIMCHECK
 70
0
  9
$CHAMFERA
 40
0.0
  9
$CHAMFERB
 40
0.0
  9
$CHAMFERC
 40
0.0
  9
$CHAMFERD
 40
0.0
  9
$SKPOLY
 70
0
  9
$TDCREATE
 40
2461278.831388889
  9
$TDUCREATE
 40
2458532.153996898
  9
$TDUPDATE
 40
2461278.831388889
  9
$TDUUPDATE
 40
2458532.1544311
  9
$TDINDWG
 40
0.0
  9
$TDUSRTIMER
 40
0.0
  9
$USRTIMER
 70
1
  9
$ANGBASE
 50
0.0
  9
$ANGDIR
 70
0
  9
$PDMODE
 70
0
  9
$PDSIZE
 40
0.0
  9
$PLINEWID
 40
0.0
  9
$SPLFRAME
 70
0
  9
$SPLINETYPE
 70
6
  9
$SPLINESEGS
 70
8
  9
$HANDSEED
  5
E8
  9
$SURFTAB1
 70
6
  9
$SURFTAB2
 70
6
  9
$SURFTYPE
 70
6
  9
$SURFU
 70
6
  9
$SURFV
 70
6
  9
$UCSBASE
  2

  9
$UCSNAME
  2

  9
$UCSORG
 10
0.0
 20
0.0
 30
0.0
  9
$UCSXDIR
 10
1.0
 20
0.0
 30
0.0
  9
$UCSYDIR
 10
0.0
 20
1.0
 30
0.0
  9
$UCSORTHOREF
  2

  9
$UCSORTHOVIEW
 70
0
  9
$UCSORGTOP
 10
0.0
 20
0.0
 30
0.0
  9
$UCSORGBOTTOM
 10
0.0
 20
0.0
 30
0.0
  9
$UCSORGLEFT
 10
0.0
 20
0.0
 30
0.0
  9
$UCSORGRIGHT
 10
0.0
 20
0.0
 30
0.0
  9
$UCSORGFRONT
 10
0.0
 20
0.0
 30
0.0
  9
$UCSORGBACK
 10
0.0
 20
0.0
 30
0.0
  9
$PUCSBASE
  2

  9
$PUCSNAME
  2

  9
$PUCSORG
 10
0.0
 20
0.0
 30
0.0
  9
$PUCSXDIR
 10
1.0
 20
0.0
 30
0.0
  9
$PUCSYDIR
 10
0.0
 20
1.0
 30
0.0
  9
$PUCSORTHOREF
  2

  9
$PUCSORTHOVIEW
 70
0
  9
$PUCSORGTOP
 10
0.0
 20
0.0
 30
0.0
  9
$PUCSORGBOTTOM
 10
0.0
 20
0.0
 30
0.0
  9
$PUCSORGLEFT
 10
0.0
 20
0.0
 30
0.0
  9
$PUCSORGRIGHT
 10
0.0
 20
0.0
 30
0.0
  9
$PUCSORGFRONT
 10
0.0
 20
0.0
 30
0.0
  9
$PUCSORGBACK
 10
0.0
 20
0.0
 30
0.0
  9
$USERI1
 70
0
  9
$USERI2
 70
0
  9
$USERI3
 70
0
  9
$USERI4
 70
0
  9
$USERI5
 70
0
  9
$USERR1
 40
0.0
  9
$USERR2
 40
0.0
  9
$USERR3
 40
0.0
  9
$USERR4
 40
0.0
  9
$USERR5
 40
0.0
  9
$WORLDVIEW
 70
1
  9
$SHADEDGE
 70
3
  9
$SHADEDIF
 70
70
  9
$TILEMODE
 70
1
  9
$MAXACTVP
 70
64
  9
$PINSBASE
 10
0.0
 20
0.0
 30
0.0
  9
$PLIMCHECK
 70
0
  9
$PEXTMIN
 10
1e+20
 20
1e+20
 30
1e+20
  9
$PEXTMAX
 10
-1e+20
 20
-1e+20
 30
-1e+20
  9
$PLIMMIN
 10
0.0
 20
0.0
  9
$PLIMMAX
 10
420.0
 20
297.0
  9
$UNITMODE
 70
0
  9
$VISRETAIN
 70
1
  9
$PLINEGEN
 70
0
  9
$PSLTSCALE
 70
1
  9
$TREEDEPTH
 70
3020
  9
$CMLSTYLE
  2
Standard
  9
$CMLJUST
 70
0
  9
$CMLSCALE
 40
20.0
  9
$PROXYGRAPHICS
 70
1
  9
$MEASUREMENT
 70
1
  9
$CELWEIGHT
370
-1
  9
$ENDCAPS
280
0
  9
$JOINSTYLE
280
0
  9
$LWDISPLAY
290
0
  9
$INSUNITS
 70
4
  9
$HYPERLINKBASE
  1

  9
$STYLESHEET
  1

  9
$XEDIT
290
1
  9
$CEPSNTYPE
380
0
  9
$PSTYLEMODE
290
1
  9
$FINGERPRINTGUID
  2
{00C05EF6-1A3F-4ED1-883E-F6ABC517E00D}
  9
$VERSIONGUID
  2
{42182034-9731-4A3E-87D6-30DF01991625}
  9
$EXTNAMES
290
1
  9
$PSVPSCALE
 40
0.0
  9
$OLESTARTUP
290
0
  0
ENDSEC
  0
SECTION
  2
CLASSES
  0
CLASS
  1
ACDBDICTIONARYWDFLT
  2
AcDbDictionaryWithDefault
  3
ObjectDBX Classes
 90
0
280
0
281
0
  0
CLASS
  1
SUN
  2
AcDbSun
  3
SCENEOE
 90
1153
280
0
281
0
  0
CLASS
  1
VISUALSTYLE
  2
AcDbVisualStyle
  3
ObjectDBX Classes
 90
4095
280
0
281
0
  0
CLASS
  1
MATERIAL
  2
AcDbMaterial
  3
ObjectDBX Classes
 90
1153
280
0
281
0
  0
CLASS
  1
SCALE
  2
AcDbScale
  3
ObjectDBX Classes
 90
1153
280
0
281
0
  0
CLASS
  1
TABLESTYLE
  2
AcDbTableStyle
  3
ObjectDBX Classes
 90
4095
280
0
281
0
  0
CLASS
  1
MLEADERSTYLE
  2
AcDbMLeaderStyle
  3
ACDB_MLEADERSTYLE_CLASS
 90
4095
280
0
281
0
  0
CLASS
  1
DICTIONARYVAR
  2
AcDbDictionaryVar
  3
ObjectDBX Classes
 90
0
280
0
281
0
  0
CLASS
  1
CELLSTYLEMAP
  2
AcDbCellStyleMap
  3
ObjectDBX Classes
 90
1152
280
0
281
0
  0
CLASS
  1
MENTALRAYRENDERSETTINGS
  2
AcDbMentalRayRenderSettings
  3
SCENEOE
 90
1024
280
0
281
0
  0
CLASS
  1
ACDBDETAILVIEWSTYLE
  2
AcDbDetailViewStyle
  3
ObjectDBX Classes
 90
1025
280
0
281
0
  0
CLASS
  1
ACDBSECTIONVIEWSTYLE
  2
AcDbSectionViewStyle
  3
ObjectDBX Classes
 90
1025
280
0
281
0
  0
CLASS
  1
RASTERVARIABLES
  2
AcDbRasterVariables
  3
ISM
 90
0
280
0
281
0
  0
CLASS
  1
ACDBPLACEHOLDER
  2
AcDbPlaceHolder
  3
ObjectDBX Classes
 90
0
280
0
281
0
  0
CLASS
  1
LAYOUT
  2
AcDbLayout
  3
ObjectDBX Classes
 90
0
280
0
281
0
  0
ENDSEC
  0
SECTION
  2
TABLES
  0
TABLE
  2
VPORT
  5
8
330
0
100
AcDbSymbolTable
 70
1
  0
VPORT
  5
23
330
8
100
AcDbSymbolTableRecord
100
AcDbViewportTableRecord
  2
*Active
 70
0
 10
0.0
 20
0.0
 11
1.0
 21
1.0
 12
0.0
 22
0.0
 13
0.0
 23
0.0
 14
0.5
 24
0.5
 15
0.5
 25
0.5
 16
0.0
 26
0.0
 36
1.0
 17
0.0
 27
0.0
 37
0.0
 40
1000.0
 41
1.34
 42
50.0
 43
0.0
 44
0.0
 50
0.0
 51
0.0
 71
0
 72
1000
 73
1
 74
3
 75
0
 76
0
 77
0
 78
0
281
0
 65
0
146
0.0
  0
ENDTAB
  0
TABLE
  2
LTYPE
  5
2
330
0
100
AcDbSymbolTable
 70
3
  0
LTYPE
  5
24
330
2
100
AcDbSymbolTableRecord
100
AcDbLinetypeTableRecord
  2
ByBlock
 70
0
  3

 72
65
 73
0
 40
0.0
  0
LTYPE
  5
25
330
2
100
AcDbSymbolTableRecord
100
AcDbLinetypeTableRecord
  2
ByLayer
 70
0
  3

 72
65
 73
0
 40
0.0
  0
LTYPE
  5
26
330
2
100
AcDbSymbolTableRecord
100
AcDbLinetypeTableRecord
  2
Continuous
 70
0
  3

 72
65
 73
0
 40
0.0
  0
ENDTAB
  0
TABLE
  2
LAYER
  5
1
330
0
100
AcDbSymbolTable
 70
4
  0
LAYER
  5
27
330
1
100
AcDbSymbolTableRecord
100
AcDbLayerTableRecord
  2
0
 70
0
 62
7
  6
Continuous
370
-3
390
13
  0
LAYER
  5
28
330
1
100
AcDbSymbolTableRecord
100
AcDbLayerTableRecord
  2
Defpoints
 70
0
 62
7
  6
Continuous
290
0
370
-3
390
13
  0
LAYER
  5
2F
330
1
100
AcDbSymbolTableRecord
100
AcDbLayerTableRecord
  2
CUT
 70
0
 62
1
  6
Continuous
370
-3
390
13
  0
LAYER
  5
30
330
1
100
AcDbSymbolTableRecord
100
AcDbLayerTableRecord
  2
RASTER
 70
0
 62
7
  6
Continuous
370
-3
390
13
  0
ENDTAB
  0
TABLE
  2
STYLE
  5
5
330
0
100
AcDbSymbolTable
 70
1
  0
STYLE
  5
29
330
5
100
AcDbSymbolTableRecord
100
AcDbTextStyleTableRecord
  2
Standard
 70
0
 40
0.0
 41
1.0
 50
0.0
 71
0
 42
2.5
  3
txt
  4

  0
ENDTAB
  0
TABLE
  2
VIEW
  5
7
330
0
100
AcDbSymbolTable
 70
0
  0
ENDTAB
  0
TABLE
  2
UCS
  5
6
330
0
100
AcDbSymbolTable
 70
0
  0
ENDTAB
  0
TABLE
  2
APPID
  5
3
330
0
100
AcDbSymbolTable
 70
3
  0
APPID
  5
2A
330
3
100
AcDbSymbolTableRecord
100
AcDbRegAppTableRecord
  2
ACAD
 70
0
  0
APPID
  5
E5
330
3
100
AcDbSymbolTableRecord
100
AcDbRegAppTableRecord
  2
HATCHBACKGROUNDCOLOR
 70
0
  0
APPID
  5
E6
330
3
100
AcDbSymbolTableRecord
100
AcDbRegAppTableRecord
  2
EZDXF
 70
0
  0
ENDTAB
  0
TABLE
  2
DIMSTYLE
  5
4
330
0
100
AcDbSymbolTable
 70
1
100
AcDbDimStyleTable
  0
DIMSTYLE
105
2B
330
4
100
AcDbSymbolTableRecord
100
AcDbDimStyleTableRecord
  2
Standard
 70
0
  3

  4

 40
1.0
 41
2.5
 42
0.625
 43
3.75
 44
1.25
 45
0.0
 46
0.0
 47
0.0
 48
0.0
140
2.5
141
2.5
142
0.0
143
0.03937007874
144
1.0
145
0.0
146
1.0
147
0.625
148
0.0
 71
0
 72
0
 73
0
 74
0
 75
0
 76
0
 77
1
 78
8
 79
3
170
0
171
3
172
1
173
0
174
0
175
0
176
0
177
0
178
0
179
2
271
2
272
2
273
2
274
3
275
0
276
0
277
2
278
44
279
0
280
0
281
0
282
0
283
0
284
8
285
0
286
0
288
0
289
3
371
-2
372
-2
  0
ENDTAB
  0
TABLE
  2
BLOCK_RECORD
  5
9
330
0
100
AcDbSymbolTable
 70
2
  0
BLOCK_RECORD
  5
17
330
9
100
AcDbSymbolTableRecord
100
AcDbBlockTableRecord
  2
*Model_Space
340
1A
  0
BLOCK_RECORD
  5
1B
330
9
100
AcDbSymbolTableRecord
100
AcDbBlockTableRecord
  2
*Paper_Space
340
1E
  0
ENDTAB
  0
ENDSEC
  0
SECTION
  2
BLOCKS
  0
BLOCK
  5
18
330
17
100
AcDbEntity
  8
0
100
AcDbBlockBegin
  2
*Model_Space
 70
0
 10
0.0
 20
0.0
 30
0.0
  3
*Model_Space
  1

  0
ENDBLK
  5
19
330
17
100
AcDbEntity
  8
0
100
AcDbBlockEnd
  0
BLOCK
  5
1C
330
1B
100
AcDbEntity
  8
0
100
AcDbBlockBegin
  2
*Paper_Space
 70
0
 10
0.0
 20
0.0
 30
0.0
  3
*Paper_Space
  1

  0
ENDBLK
  5
1D
330
1B
100
AcDbEntity
  8
0
100
AcDbBlockEnd
  0
ENDSEC
  0
SECTION
  2
ENTITIES
  0
LWPOLYLINE
  5
31
330
17
100
AcDbEntity
  8
CUT
100
AcDbPolyline
 90
28
 70
1
 10
7.1
 20
102.04
 10
44.9
 20
102.04
 10
48.04
 20
102.04
 10
48.04
 20
96.993
 10
44.94
 20
96.993
 10
44.94
 20
92.107
 10
48.04
 20
92.107
 10
48.04
 20
87.06
 10
44.9
 20
87.06
 10
39.54
 20
87.06
 10
39.54
 20
83.96
 10
34.06
 20
83.96
 10
34.06
 20
87.06
 10
28.74
 20
87.06
 10
28.74
 20
83.96
 10
23.26
 20
83.96
 10
23.26
 20
87.06
 10
17.94
 20
87.06
 10
17.94
 20
83.96
 10
12.46
 20
83.96
 10
12.46
 20
87.06
 10
7.1
 20
87.06
 10
3.96
 20
87.06
 10
3.96
 20
92.107
 10
7.06
 20
92.107
 10
7.06
 20
96.993
 10
3.96
 20
96.993
 10
3.96
 20
102.04
  0
LWPOLYLINE
  5
32
330
17
100
AcDbEntity
  8
CUT
100
AcDbPolyline
 90
4
 70
1
 10
11.14
 20
97.76
 10
40.86
 20
97.76
 10
40.86
 20
96.44
 10
11.14
 20
96.44
  0
LWPOLYLINE
  5
33
330
17
100
AcDbEntity
  8
CUT
100
AcDbPolyline
 90
4
 70
1
 10
11.14
 20
92.66
 10
40.86
 20
92.66
 10
40.86
 20
91.34
 10
11.14
 20
91.34
  0
HATCH
  5
34
330
17
100
AcDbEntity
  8
RASTER
 62
7
100
AcDbHatch
 10
0.0
 20
0.0
 30
0.0
210
0.0
220
0.0
230
1.0
  2
SOLID
 70
1
 71
0
 91
1
 92
3
 72
0
 73
1
 93
4
 10
7.7
 20
101.6
 10
10.5
 20
101.6
 10
10.5
 20
87.5
 10
7.7
 20
87.5
 97
0
 75
0
 76
1
 98
0
  0
HATCH
  5
35
330
17
100
AcDbEntity
  8
RASTER
 62
7
100
AcDbHatch
 10
0.0
 20
0.0
 30
0.0
210
0.0
220
0.0
230
1.0
  2
SOLID
 70
1
 71
0
 91
1
 92
3
 72
0
 73
1
 93
4
 10
41.5
 20
101.6
 10
44.3
 20
101.6
 10
44.3
 20
87.5
 10
41.5
 20
87.5
 97
0
 75
0
 76
1
 98
0
  0
HATCH
  5
36
330
17
100
AcDbEntity
  8
RASTER
 62
7
100
AcDbHatch
 10
0.0
 20
0.0
 30
0.0
210
0.0
220
0.0
230
1.0
  2
SOLID
 70
1
 71
0
 91
1
 92
3
 72
0
 73
1
 93
48
 10
13.2
 20
99.65
 10
13.196
 20
99.585
 10
13.183
 20
99.521
 10
13.162
 20
99.459
 10
13.133
 20
99.4
 10
13.097
 20
99.346
 10
13.054
 20
99.296
 10
13.004
 20
99.253
 10
12.95
 20
99.217
 10
12.891
 20
99.188
 10
12.829
 20
99.167
 10
12.765
 20
99.154
 10
12.7
 20
99.15
 10
12.635
 20
99.154
 10
12.571
 20
99.167
 10
12.509
 20
99.188
 10
12.45
 20
99.217
 10
12.396
 20
99.253
 10
12.346
 20
99.296
 10
12.303
 20
99.346
 10
12.267
 20
99.4
 10
12.238
 20
99.459
 10
12.217
 20
99.521
 10
12.204
 20
99.585
 10
12.2
 20
99.65
 10
12.204
 20
99.715
 10
12.217
 20
99.779
 10
12.238
 20
99.841
 10
12.267
 20
99.9
 10
12.303
 20
99.954
 10
12.346
 20
100.004
 10
12.396
 20
100.047
 10
12.45
 20
100.083
 10
12.509
 20
100.112
 10
12.571
 20
100.133
 10
12.635
 20
100.146
 10
12.7
 20
100.15
 10
12.765
 20
100.146
 10
12.829
 20
100.133
 10
12.891
 20
100.112
 10
12.95
 20
100.083
 10
13.004
 20
100.047
 10
13.054
 20
100.004
 10
13.097
 20
99.954
 10
13.133
 20
99.9
 10
13.162
 20
99.841
 10
13.183
 20
99.779
 10
13.196
 20
99.715
 97
0
 75
0
 76
1
 98
0
  0
HATCH
  5
37
330
17
100
AcDbEntity
  8
RASTER
 62
7
100
AcDbHatch
 10
0.0
 20
0.0
 30
0.0
210
0.0
220
0.0
230
1.0
  2
SOLID
 70
1
 71
0
 91
1
 92
3
 72
0
 73
1
 93
48
 10
39.8
 20
99.65
 10
39.796
 20
99.585
 10
39.783
 20
99.521
 10
39.762
 20
99.459
 10
39.733
 20
99.4
 10
39.697
 20
99.346
 10
39.654
 20
99.296
 10
39.604
 20
99.253
 10
39.55
 20
99.217
 10
39.491
 20
99.188
 10
39.429
 20
99.167
 10
39.365
 20
99.154
 10
39.3
 20
99.15
 10
39.235
 20
99.154
 10
39.171
 20
99.167
 10
39.109
 20
99.188
 10
39.05
 20
99.217
 10
38.996
 20
99.253
 10
38.946
 20
99.296
 10
38.903
 20
99.346
 10
38.867
 20
99.4
 10
38.838
 20
99.459
 10
38.817
 20
99.521
 10
38.804
 20
99.585
 10
38.8
 20
99.65
 10
38.804
 20
99.715
 10
38.817
 20
99.779
 10
38.838
 20
99.841
 10
38.867
 20
99.9
 10
38.903
 20
99.954
 10
38.946
 20
100.004
 10
38.996
 20
100.047
 10
39.05
 20
100.083
 10
39.109
 20
100.112
 10
39.171
 20
100.133
 10
39.235
 20
100.146
 10
39.3
 20
100.15
 10
39.365
 20
100.146
 10
39.429
 20
100.133
 10
39.491
 20
100.112
 10
39.55
 20
100.083
 10
39.604
 20
100.047
 10
39.654
 20
100.004
 10
39.697
 20
99.954
 10
39.733
 20
99.9
 10
39.762
 20
99.841
 10
39.783
 20
99.779
 10
39.796
 20
99.715
 97
0
 75
0
 76
1
 98
0
  0
HATCH
  5
38
330
17
100
AcDbEntity
  8
RASTER
 62
7
100
AcDbHatch
 10
0.0
 20
0.0
 30
0.0
210
0.0
220
0.0
230
1.0
  2
SOLID
 70
1
 71
0
 91
1
 92
3
 72
0
 73
1
 93
48
 10
13.2
 20
94.55
 10
13.196
 20
94.485
 10
13.183
 20
94.421
 10
13.162
 20
94.359
 10
13.133
 20
94.3
 10
13.097
 20
94.246
 10
13.054
 20
94.196
 10
13.004
 20
94.153
 10
12.95
 20
94.117
 10
12.891
 20
94.088
 10
12.829
 20
94.067
 10
12.765
 20
94.054
 10
12.7
 20
94.05
 10
12.635
 20
94.054
 10
12.571
 20
94.067
 10
12.509
 20
94.088
 10
12.45
 20
94.117
 10
12.396
 20
94.153
 10
12.346
 20
94.196
 10
12.303
 20
94.246
 10
12.267
 20
94.3
 10
12.238
 20
94.359
 10
12.217
 20
94.421
 10
12.204
 20
94.485
 10
12.2
 20
94.55
 10
12.204
 20
94.615
 10
12.217
 20
94.679
 10
12.238
 20
94.741
 10
12.267
 20
94.8
 10
12.303
 20
94.854
 10
12.346
 20
94.904
 10
12.396
 20
94.947
 10
12.45
 20
94.983
 10
12.509
 20
95.012
 10
12.571
 20
95.033
 10
12.635
 20
95.046
 10
12.7
 20
95.05
 10
12.765
 20
95.046
 10
12.829
 20
95.033
 10
12.891
 20
95.012
 10
12.95
 20
94.983
 10
13.004
 20
94.947
 10
13.054
 20
94.904
 10
13.097
 20
94.854
 10
13.133
 20
94.8
 10
13.162
 20
94.741
 10
13.183
 20
94.679
 10
13.196
 20
94.615
 97
0
 75
0
 76
1
 98
0
  0
HATCH
  5
39
330
17
100
AcDbEntity
  8
RASTER
 62
7
100
AcDbHatch
 10
0.0
 20
0.0
 30
0.0
210
0.0
220
0.0
230
1.0
  2
SOLID
 70
1
 71
0
 91
1
 92
3
 72
0
 73
1
 93
48
 10
39.8
 20
94.55
 10
39.796
 20
94.485
 10
39.783
 20
94.421
 10
39.762
 20
94.359
 10
39.733
 20
94.3
 10
39.697
 20
94.246
 10
39.654
 20
94.196
 10
39.604
 20
94.153
 10
39.55
 20
94.117
 10
39.491
 20
94.088
 10
39.429
 20
94.067
 10
39.365
 20
94.054
 10
39.3
 20
94.05
 10
39.235
 20
94.054
 10
39.171
 20
94.067
 10
39.109
 20
94.088
 10
39.05
 20
94.117
 10
38.996
 20
94.153
 10
38.946
 20
94.196
 10
38.903
 20
94.246
 10
38.867
 20
94.3
 10
38.838
 20
94.359
 10
38.817
 20
94.421
 10
38.804
 20
94.485
 10
38.8
 20
94.55
 10
38.804
 20
94.615
 10
38.817
 20
94.679
 10
38.838
 20
94.741
 10
38.867
 20
94.8
 10
38.903
 20
94.854
 10
38.946
 20
94.904
 10
38.996
 20
94.947
 10
39.05
 20
94.983
 10
39.109
 20
95.012
 10
39.171
 20
95.033
 10
39.235
 20
95.046
 10
39.3
 20
95.05
 10
39.365
 20
95.046
 10
39.429
 20
95.033
 10
39.491
 20
95.012
 10
39.55
 20
94.983
 10
39.604
 20
94.947
 10
39.654
 20
94.904
 10
39.697
 20
94.854
 10
39.733
 20
94.8
 10
39.762
 20
94.741
 10
39.783
 20
94.679
 10
39.796
 20
94.615
 97
0
 75
0
 76
1
 98
0
  0
HATCH
  5
3A
330
17
100
AcDbEntity
  8
RASTER
 62
7
100
AcDbHatch
 10
0.0
 20
0.0
 30
0.0
210
0.0
220
0.0
230
1.0
  2
SOLID
 70
1
 71
0
 91
1
 92
3
 72
0
 73
1
 93
48
 10
13.2
 20
89.45
 10
13.196
 20
89.385
 10
13.183
 20
89.321
 10
13.162
 20
89.259
 10
13.133
 20
89.2
 10
13.097
 20
89.146
 10
13.054
 20
89.096
 10
13.004
 20
89.053
 10
12.95
 20
89.017
 10
12.891
 20
88.988
 10
12.829
 20
88.967
 10
12.765
 20
88.954
 10
12.7
 20
88.95
 10
12.635
 20
88.954
 10
12.571
 20
88.967
 10
12.509
 20
88.988
 10
12.45
 20
89.017
 10
12.396
 20
89.053
 10
12.346
 20
89.096
 10
12.303
 20
89.146
 10
12.267
 20
89.2
 10
12.238
 20
89.259
 10
12.217
 20
89.321
 10
12.204
 20
89.385
 10
12.2
 20
89.45
 10
12.204
 20
89.515
 10
12.217
 20
89.579
 10
12.238
 20
89.641
 10
12.267
 20
89.7
 10
12.303
 20
89.754
 10
12.346
 20
89.804
 10
12.396
 20
89.847
 10
12.45
 20
89.883
 10
12.509
 20
89.912
 10
12.571
 20
89.933
 10
12.635
 20
89.946
 10
12.7
 20
89.95
 10
12.765
 20
89.946
 10
12.829
 20
89.933
 10
12.891
 20
89.912
 10
12.95
 20
89.883
 10
13.004
 20
89.847
 10
13.054
 20
89.804
 10
13.097
 20
89.754
 10
13.133
 20
89.7
 10
13.162
 20
89.641
 10
13.183
 20
89.579
 10
13.196
 20
89.515
 97
0
 75
0
 76
1
 98
0
  0
HATCH
  5
3B
330
17
100
AcDbEntity
  8
RASTER
 62
7
100
AcDbHatch
 10
0.0
 20
0.0
 30
0.0
210
0.0
220
0.0
230
1.0
  2
SOLID
 70
1
 71
0
 91
1
 92
3
 72
0
 73
1
 93
48
 10
39.8
 20
89.45
 10
39.796
 20
89.385
 10
39.783
 20
89.321
 10
39.762
 20
89.259
 10
39.733
 20
89.2
 10
39.697
 20
89.146
 10
39.654
 20
89.096
 10
39.604
 20
89.053
 10
39.55
 20
89.017
 10
39.491
 20
88.988
 10
39.429
 20
88.967
 10
39.365
 20
88.954
 10
39.3
 20
88.95
 10
39.235
 20
88.954
 10
39.171
 20
88.967
 10
39.109
 20
88.988
 10
39.05
 20
89.017
 10
38.996
 20
89.053
 10
38.946
 20
89.096
 10
38.903
 20
89.146
 10
38.867
 20
89.2
 10
38.838
 20
89.259
 10
38.817
 20
89.321
 10
38.804
 20
89.385
 10
38.8
 20
89.45
 10
38.804
 20
89.515
 10
38.817
 20
89.579
 10
38.838
 20
89.641
 10
38.867
 20
89.7
 10
38.903
 20
89.754
 10
38.946
 20
89.804
 10
38.996
 20
89.847
 10
39.05
 20
89.883
 10
39.109
 20
89.912
 10
39.171
 20
89.933
 10
39.235
 20
89.946
 10
39.3
 20
89.95
 10
39.365
 20
89.946
 10
39.429
 20
89.933
 10
39.491
 20
89.912
 10
39.55
 20
89.883
 10
39.604
 20
89.847
 10
39.654
 20
89.804
 10
39.697
 20
89.754
 10
39.733
 20
89.7
 10
39.762
 20
89.641
 10
39.783
 20
89.579
 10
39.796
 20
89.515
 97
0
 75
0
 76
1
 98
0
  0
LWPOLYLINE
  5
3C
330
17
100
AcDbEntity
  8
CUT
100
AcDbPolyline
 90
28
 70
1
 10
55.1
 20
102.04
 10
92.9
 20
102.04
 10
96.04
 20
102.04
 10
96.04
 20
96.993
 10
92.94
 20
96.993
 10
92.94
 20
92.107
 10
96.04
 20
92.107
 10
96.04
 20
87.06
 10
92.9
 20
87.06
 10
87.54
 20
87.06
 10
87.54
 20
83.96
 10
82.06
 20
83.96
 10
82.06
 20
87.06
 10
76.74
 20
87.06
 10
76.74
 20
83.96
 10
71.26
 20
83.96
 10
71.26
 20
87.06
 10
65.94
 20
87.06
 10
65.94
 20
83.96
 10
60.46
 20
83.96
 10
60.46
 20
87.06
 10
55.1
 20
87.06
 10
51.96
 20
87.06
 10
51.96
 20
92.107
 10
55.06
 20
92.107
 10
55.06
 20
96.993
 10
51.96
 20
96.993
 10
51.96
 20
102.04
  0
LWPOLYLINE
  5
3D
330
17
100
AcDbEntity
  8
CUT
100
AcDbPolyline
 90
4
 70
1
 10
59.14
 20
97.76
 10
88.86
 20
97.76
 10
88.86
 20
96.44
 10
59.14
 20
96.44
  0
LWPOLYLINE
  5
3E
330
17
100
AcDbEntity
  8
CUT
100
AcDbPolyline
 90
4
 70
1
 10
59.14
 20
92.66
 10
88.86
 20
92.66
 10
88.86
 20
91.34
 10
59.14
 20
91.34
  0
HATCH
  5
3F
330
17
100
AcDbEntity
  8
RASTER
 62
7
100
AcDbHatch
 10
0.0
 20
0.0
 30
0.0
210
0.0
220
0.0
230
1.0
  2
SOLID
 70
1
 71
0
 91
1
 92
3
 72
0
 73
1
 93
4
 10
55.7
 20
101.6
 10
58.5
 20
101.6
 10
58.5
 20
87.5
 10
55.7
 20
87.5
 97
0
 75
0
 76
1
 98
0
  0
HATCH
  5
40
330
17
100
AcDbEntity
  8
RASTER
 62
7
100
AcDbHatch
 10
0.0
 20
0.0
 30
0.0
210
0.0
220
0.0
230
1.0
  2
SOLID
 70
1
 71
0
 91
1
 92
3
 72
0
 73
1
 93
4
 10
89.5
 20
101.6
 10
92.3
 20
101.6
 10
92.3
 20
87.5
 10
89.5
 20
87.5
 97
0
 75
0
 76
1
 98
0
  0
HATCH
  5
41
330
17
100
AcDbEntity
  8
RASTER
 62
7
100
AcDbHatch
 10
0.0
 20
0.0
 30
0.0
210
0.0
220
0.0
230
1.0
  2
SOLID
 70
1
 71
0
 91
1
 92
3
 72
0
 73
1
 93
48
 10
61.2
 20
99.65
 10
61.196
 20
99.585
 10
61.183
 20
99.521
 10
61.162
 20
99.459
 10
61.133
 20
99.4
 10
61.097
 20
99.346
 10
61.054
 20
99.296
 10
61.004
 20
99.253
 10
60.95
 20
99.217
 10
60.891
 20
99.188
 10
60.829
 20
99.167
 10
60.765
 20
99.154
 10
60.7
 20
99.15
 10
60.635
 20
99.154
 10
60.571
 20
99.167
 10
60.509
 20
99.188
 10
60.45
 20
99.217
 10
60.396
 20
99.253
 10
60.346
 20
99.296
 10
60.303
 20
99.346
 10
60.267
 20
99.4
 10
60.238
 20
99.459
 10
60.217
 20
99.521
 10
60.204
 20
99.585
 10
60.2
 20
99.65
 10
60.204
 20
99.715
 10
60.217
 20
99.779
 10
60.238
 20
99.841
 10
60.267
 20
99.9
 10
60.303
 20
99.954
 10
60.346
 20
100.004
 10
60.396
 20
100.047
 10
60.45
 20
100.083
 10
60.509
 20
100.112
 10
60.571
 20
100.133
 10
60.635
 20
100.146
 10
60.7
 20
100.15
 10
60.765
 20
100.146
 10
60.829
 20
100.133
 10
60.891
 20
100.112
 10
60.95
 20
100.083
 10
61.004
 20
100.047
 10
61.054
 20
100.004
 10
61.097
 20
99.954
 10
61.133
 20
99.9
 10
61.162
 20
99.841
 10
61.183
 20
99.779
 10
61.196
 20
99.715
 97
0
 75
0
 76
1
 98
0
  0
HATCH
  5
42
330
17
100
AcDbEntity
  8
RASTER
 62
7
100
AcDbHatch
 10
0.0
 20
0.0
 30
0.0
210
0.0
220
0.0
230
1.0
  2
SOLID
 70
1
 71
0
 91
1
 92
3
 72
0
 73
1
 93
48
 10
87.8
 20
99.65
 10
87.796
 20
99.585
 10
87.783
 20
99.521
 10
87.762
 20
99.459
 10
87.733
 20
99.4
 10
87.697
 20
99.346
 10
87.654
 20
99.296
 10
87.604
 20
99.253
 10
87.55
 20
99.217
 10
87.491
 20
99.188
 10
87.429
 20
99.167
 10
87.365
 20
99.154
 10
87.3
 20
99.15
 10
87.235
 20
99.154
 10
87.171
 20
99.167
 10
87.109
 20
99.188
 10
87.05
 20
99.217
 10
86.996
 20
99.253
 10
86.946
 20
99.296
 10
86.903
 20
99.346
 10
86.867
 20
99.4
 10
86.838
 20
99.459
 10
86.817
 20
99.521
 10
86.804
 20
99.585
 10
86.8
 20
99.65
 10
86.804
 20
99.715
 10
86.817
 20
99.779
 10
86.838
 20
99.841
 10
86.867
 20
99.9
 10
86.903
 20
99.954
 10
86.946
 20
100.004
 10
86.996
 20
100.047
 10
87.05
 20
100.083
 10
87.109
 20
100.112
 10
87.171
 20
100.133
 10
87.235
 20
100.146
 10
87.3
 20
100.15
 10
87.365
 20
100.146
 10
87.429
 20
100.133
 10
87.491
 20
100.112
 10
87.55
 20
100.083
 10
87.604
 20
100.047
 10
87.654
 20
100.004
 10
87.697
 20
99.954
 10
87.733
 20
99.9
 10
87.762
 20
99.841
 10
87.783
 20
99.779
 10
87.796
 20
99.715
 97
0
 75
0
 76
1
 98
0
  0
HATCH
  5
43
330
17
100
AcDbEntity
  8
RASTER
 62
7
100
AcDbHatch
 10
0.0
 20
0.0
 30
0.0
210
0.0
220
0.0
230
1.0
  2
SOLID
 70
1
 71
0
 91
1
 92
3
 72
0
 73
1
 93
48
 10
61.2
 20
94.55
 10
61.196
 20
94.485
 10
61.183
 20
94.421
 10
61.162
 20
94.359
 10
61.133
 20
94.3
 10
61.097
 20
94.246
 10
61.054
 20
94.196
 10
61.004
 20
94.153
 10
60.95
 20
94.117
 10
60.891
 20
94.088
 10
60.829
 20
94.067
 10
60.765
 20
94.054
 10
60.7
 20
94.05
 10
60.635
 20
94.054
 10
60.571
 20
94.067
 10
60.509
 20
94.088
 10
60.45
 20
94.117
 10
60.396
 20
94.153
 10
60.346
 20
94.196
 10
60.303
 20
94.246
 10
60.267
 20
94.3
 10
60.238
 20
94.359
 10
60.217
 20
94.421
 10
60.204
 20
94.485
 10
60.2
 20
94.55
 10
60.204
 20
94.615
 10
60.217
 20
94.679
 10
60.238
 20
94.741
 10
60.267
 20
94.8
 10
60.303
 20
94.854
 10
60.346
 20
94.904
 10
60.396
 20
94.947
 10
60.45
 20
94.983
 10
60.509
 20
95.012
 10
60.571
 20
95.033
 10
60.635
 20
95.046
 10
60.7
 20
95.05
 10
60.765
 20
95.046
 10
60.829
 20
95.033
 10
60.891
 20
95.012
 10
60.95
 20
94.983
 10
61.004
 20
94.947
 10
61.054
 20
94.904
 10
61.097
 20
94.854
 10
61.133
 20
94.8
 10
61.162
 20
94.741
 10
61.183
 20
94.679
 10
61.196
 20
94.615
 97
0
 75
0
 76
1
 98
0
  0
HATCH
  5
44
330
17
100
AcDbEntity
  8
RASTER
 62
7
100
AcDbHatch
 10
0.0
 20
0.0
 30
0.0
210
0.0
220
0.0
230
1.0
  2
SOLID
 70
1
 71
0
 91
1
 92
3
 72
0
 73
1
 93
48
 10
87.8
 20
94.55
 10
87.796
 20
94.485
 10
87.783
 20
94.421
 10
87.762
 20
94.359
 10
87.733
 20
94.3
 10
87.697
 20
94.246
 10
87.654
 20
94.196
 10
87.604
 20
94.153
 10
87.55
 20
94.117
 10
87.491
 20
94.088
 10
87.429
 20
94.067
 10
87.365
 20
94.054
 10
87.3
 20
94.05
 10
87.235
 20
94.054
 10
87.171
 20
94.067
 10
87.109
 20
94.088
 10
87.05
 20
94.117
 10
86.996
 20
94.153
 10
86.946
 20
94.196
 10
86.903
 20
94.246
 10
86.867
 20
94.3
 10
86.838
 20
94.359
 10
86.817
 20
94.421
 10
86.804
 20
94.485
 10
86.8
 20
94.55
 10
86.804
 20
94.615
 10
86.817
 20
94.679
 10
86.838
 20
94.741
 10
86.867
 20
94.8
 10
86.903
 20
94.854
 10
86.946
 20
94.904
 10
86.996
 20
94.947
 10
87.05
 20
94.983
 10
87.109
 20
95.012
 10
87.171
 20
95.033
 10
87.235
 20
95.046
 10
87.3
 20
95.05
 10
87.365
 20
95.046
 10
87.429
 20
95.033
 10
87.491
 20
95.012
 10
87.55
 20
94.983
 10
87.604
 20
94.947
 10
87.654
 20
94.904
 10
87.697
 20
94.854
 10
87.733
 20
94.8
 10
87.762
 20
94.741
 10
87.783
 20
94.679
 10
87.796
 20
94.615
 97
0
 75
0
 76
1
 98
0
  0
HATCH
  5
45
330
17
100
AcDbEntity
  8
RASTER
 62
7
100
AcDbHatch
 10
0.0
 20
0.0
 30
0.0
210
0.0
220
0.0
230
1.0
  2
SOLID
 70
1
 71
0
 91
1
 92
3
 72
0
 73
1
 93
48
 10
61.2
 20
89.45
 10
61.196
 20
89.385
 10
61.183
 20
89.321
 10
61.162
 20
89.259
 10
61.133
 20
89.2
 10
61.097
 20
89.146
 10
61.054
 20
89.096
 10
61.004
 20
89.053
 10
60.95
 20
89.017
 10
60.891
 20
88.988
 10
60.829
 20
88.967
 10
60.765
 20
88.954
 10
60.7
 20
88.95
 10
60.635
 20
88.954
 10
60.571
 20
88.967
 10
60.509
 20
88.988
 10
60.45
 20
89.017
 10
60.396
 20
89.053
 10
60.346
 20
89.096
 10
60.303
 20
89.146
 10
60.267
 20
89.2
 10
60.238
 20
89.259
 10
60.217
 20
89.321
 10
60.204
 20
89.385
 10
60.2
 20
89.45
 10
60.204
 20
89.515
 10
60.217
 20
89.579
 10
60.238
 20
89.641
 10
60.267
 20
89.7
 10
60.303
 20
89.754
 10
60.346
 20
89.804
 10
60.396
 20
89.847
 10
60.45
 20
89.883
 10
60.509
 20
89.912
 10
60.571
 20
89.933
 10
60.635
 20
89.946
 10
60.7
 20
89.95
 10
60.765
 20
89.946
 10
60.829
 20
89.933
 10
60.891
 20
89.912
 10
60.95
 20
89.883
 10
61.004
 20
89.847
 10
61.054
 20
89.804
 10
61.097
 20
89.754
 10
61.133
 20
89.7
 10
61.162
 20
89.641
 10
61.183
 20
89.579
 10
61.196
 20
89.515
 97
0
 75
0
 76
1
 98
0
  0
HATCH
  5
46
330
17
100
AcDbEntity
  8
RASTER
 62
7
100
AcDbHatch
 10
0.0
 20
0.0
 30
0.0
210
0.0
220
0.0
230
1.0
  2
SOLID
 70
1
 71
0
 91
1
 92
3
 72
0
 73
1
 93
48
 10
87.8
 20
89.45
 10
87.796
 20
89.385
 10
87.783
 20
89.321
 10
87.762
 20
89.259
 10
87.733
 20
89.2
 10
87.697
 20
89.146
 10
87.654
 20
89.096
 10
87.604
 20
89.053
 10
87.55
 20
89.017
 10
87.491
 20
88.988
 10
87.429
 20
88.967
 10
87.365
 20
88.954
 10
87.3
 20
88.95
 10
87.235
 20
88.954
 10
87.171
 20
88.967
 10
87.109
 20
88.988
 10
87.05
 20
89.017
 10
86.996
 20
89.053
 10
86.946
 20
89.096
 10
86.903
 20
89.146
 10
86.867
 20
89.2
 10
86.838
 20
89.259
 10
86.817
 20
89.321
 10
86.804
 20
89.385
 10
86.8
 20
89.45
 10
86.804
 20
89.515
 10
86.817
 20
89.579
 10
86.838
 20
89.641
 10
86.867
 20
89.7
 10
86.903
 20
89.754
 10
86.946
 20
89.804
 10
86.996
 20
89.847
 10
87.05
 20
89.883
 10
87.109
 20
89.912
 10
87.171
 20
89.933
 10
87.235
 20
89.946
 10
87.3
 20
89.95
 10
87.365
 20
89.946
 10
87.429
 20
89.933
 10
87.491
 20
89.912
 10
87.55
 20
89.883
 10
87.604
 20
89.847
 10
87.654
 20
89.804
 10
87.697
 20
89.754
 10
87.733
 20
89.7
 10
87.762
 20
89.641
 10
87.783
 20
89.579
 10
87.796
 20
89.515
 97
0
 75
0
 76
1
 98
0
  0
LWPOLYLINE
  5
47
330
17
100
AcDbEntity
  8
CUT
100
AcDbPolyline
 90
20
 70
1
 10
103.06
 20
102.04
 10
126.94
 20
102.04
 10
126.94
 20
97.073
 10
130.04
 20
97.073
 10
130.04
 20
92.027
 10
126.94
 20
92.027
 10
126.94
 20
87.06
 10
122.18
 20
87.06
 10
122.18
 20
83.96
 10
117.34
 20
83.96
 10
117.34
 20
87.06
 10
112.66
 20
87.06
 10
112.66
 20
83.96
 10
107.82
 20
83.96
 10
107.82
 20
87.06
 10
103.06
 20
87.06
 10
103.06
 20
92.027
 10
99.96
 20
92.027
 10
99.96
 20
97.073
 10
103.06
 20
97.073
  0
LWPOLYLINE
  5
48
330
17
100
AcDbEntity
  8
CUT
100
AcDbPolyline
 90
4
 70
1
 10
107.14
 20
97.76
 10
122.86
 20
97.76
 10
122.86
 20
96.44
 10
107.14
 20
96.44
  0
LWPOLYLINE
  5
49
330
17
100
AcDbEntity
  8
CUT
100
AcDbPolyline
 90
4
 70
1
 10
107.14
 20
92.66
 10
122.86
 20
92.66
 10
122.86
 20
91.34
 10
107.14
 20
91.34
  0
HATCH
  5
4A
330
17
100
AcDbEntity
  8
RASTER
 62
7
100
AcDbHatch
 10
0.0
 20
0.0
 30
0.0
210
0.0
220
0.0
230
1.0
  2
SOLID
 70
1
 71
0
 91
1
 92
3
 72
0
 73
1
 93
4
 10
103.7
 20
101.6
 10
106.5
 20
101.6
 10
106.5
 20
87.5
 10
103.7
 20
87.5
 97
0
 75
0
 76
1
 98
0
  0
HATCH
  5
4B
330
17
100
AcDbEntity
  8
RASTER
 62
7
100
AcDbHatch
 10
0.0
 20
0.0
 30
0.0
210
0.0
220
0.0
230
1.0
  2
SOLID
 70
1
 71
0
 91
1
 92
3
 72
0
 73
1
 93
4
 10
123.5
 20
101.6
 10
126.3
 20
101.6
 10
126.3
 20
87.5
 10
123.5
 20
87.5
 97
0
 75
0
 76
1
 98
0
  0
HATCH
  5
4C
330
17
100
AcDbEntity
  8
RASTER
 62
7
100
AcDbHatch
 10
0.0
 20
0.0
 30
0.0
210
0.0
220
0.0
230
1.0
  2
SOLID
 70
1
 71
0
 91
1
 92
3
 72
0
 73
1
 93
48
 10
109.2
 20
99.65
 10
109.196
 20
99.585
 10
109.183
 20
99.521
 10
109.162
 20
99.459
 10
109.133
 20
99.4
 10
109.097
 20
99.346
 10
109.054
 20
99.296
 10
109.004
 20
99.253
 10
108.95
 20
99.217
 10
108.891
 20
99.188
 10
108.829
 20
99.167
 10
108.765
 20
99.154
 10
108.7
 20
99.15
 10
108.635
 20
99.154
 10
108.571
 20
99.167
 10
108.509
 20
99.188
 10
108.45
 20
99.217
 10
108.396
 20
99.253
 10
108.346
 20
99.296
 10
108.303
 20
99.346
 10
108.267
 20
99.4
 10
108.238
 20
99.459
 10
108.217
 20
99.521
 10
108.204
 20
99.585
 10
108.2
 20
99.65
 10
108.204
 20
99.715
 10
108.217
 20
99.779
 10
108.238
 20
99.841
 10
108.267
 20
99.9
 10
108.303
 20
99.954
 10
108.346
 20
100.004
 10
108.396
 20
100.047
 10
108.45
 20
100.083
 10
108.509
 20
100.112
 10
108.571
 20
100.133
 10
108.635
 20
100.146
 10
108.7
 20
100.15
 10
108.765
 20
100.146
 10
108.829
 20
100.133
 10
108.891
 20
100.112
 10
108.95
 20
100.083
 10
109.004
 20
100.047
 10
109.054
 20
100.004
 10
109.097
 20
99.954
 10
109.133
 20
99.9
 10
109.162
 20
99.841
 10
109.183
 20
99.779
 10
109.196
 20
99.715
 97
0
 75
0
 76
1
 98
0
  0
HATCH
  5
4D
330
17
100
AcDbEntity
  8
RASTER
 62
7
100
AcDbHatch
 10
0.0
 20
0.0
 30
0.0
210
0.0
220
0.0
230
1.0
  2
SOLID
 70
1
 71
0
 91
1
 92
3
 72
0
 73
1
 93
48
 10
121.8
 20
99.65
 10
121.796
 20
99.585
 10
121.783
 20
99.521
 10
121.762
 20
99.459
 10
121.733
 20
99.4
 10
121.697
 20
99.346
 10
121.654
 20
99.296
 10
121.604
 20
99.253
 10
121.55
 20
99.217
 10
121.491
 20
99.188
 10
121.429
 20
99.167
 10
121.365
 20
99.154
 10
121.3
 20
99.15
 10
121.235
 20
99.154
 10
121.171
 20
99.167
 10
121.109
 20
99.188
 10
121.05
 20
99.217
 10
120.996
 20
99.253
 10
120.946
 20
99.296
 10
120.903
 20
99.346
 10
120.867
 20
99.4
 10
120.838
 20
99.459
 10
120.817
 20
99.521
 10
120.804
 20
99.585
 10
120.8
 20
99.65
 10
120.804
 20
99.715
 10
120.817
 20
99.779
 10
120.838
 20
99.841
 10
120.867
 20
99.9
 10
120.903
 20
99.954
 10
120.946
 20
100.004
 10
120.996
 20
100.047
 10
121.05
 20
100.083
 10
121.109
 20
100.112
 10
121.171
 20
100.133
 10
121.235
 20
100.146
 10
121.3
 20
100.15
 10
121.365
 20
100.146
 10
121.429
 20
100.133
 10
121.491
 20
100.112
 10
121.55
 20
100.083
 10
121.604
 20
100.047
 10
121.654
 20
100.004
 10
121.697
 20
99.954
 10
121.733
 20
99.9
 10
121.762
 20
99.841
 10
121.783
 20
99.779
 10
121.796
 20
99.715
 97
0
 75
0
 76
1
 98
0
  0
HATCH
  5
4E
330
17
100
AcDbEntity
  8
RASTER
 62
7
100
AcDbHatch
 10
0.0
 20
0.0
 30
0.0
210
0.0
220
0.0
230
1.0
  2
SOLID
 70
1
 71
0
 91
1
 92
3
 72
0
 73
1
 93
48
 10
109.2
 20
94.55
 10
109.196
 20
94.485
 10
109.183
 20
94.421
 10
109.162
 20
94.359
 10
109.133
 20
94.3
 10
109.097
 20
94.246
 10
109.054
 20
94.196
 10
109.004
 20
94.153
 10
108.95
 20
94.117
 10
108.891
 20
94.088
 10
108.829
 20
94.067
 10
108.765
 20
94.054
 10
108.7
 20
94.05
 10
108.635
 20
94.054
 10
108.571
 20
94.067
 10
108.509
 20
94.088
 10
108.45
 20
94.117
 10
108.396
 20
94.153
 10
108.346
 20
94.196
 10
108.303
 20
94.246
 10
108.267
 20
94.3
 10
108.238
 20
94.359
 10
108.217
 20
94.421
 10
108.204
 20
94.485
 10
108.2
 20
94.55
 10
108.204
 20
94.615
 10
108.217
 20
94.679
 10
108.238
 20
94.741
 10
108.267
 20
94.8
 10
108.303
 20
94.854
 10
108.346
 20
94.904
 10
108.396
 20
94.947
 10
108.45
 20
94.983
 10
108.509
 20
95.012
 10
108.571
 20
95.033
 10
108.635
 20
95.046
 10
108.7
 20
95.05
 10
108.765
 20
95.046
 10
108.829
 20
95.033
 10
108.891
 20
95.012
 10
108.95
 20
94.983
 10
109.004
 20
94.947
 10
109.054
 20
94.904
 10
109.097
 20
94.854
 10
109.133
 20
94.8
 10
109.162
 20
94.741
 10
109.183
 20
94.679
 10
109.196
 20
94.615
 97
0
 75
0
 76
1
 98
0
  0
HATCH
  5
4F
330
17
100
AcDbEntity
  8
RASTER
 62
7
100
AcDbHatch
 10
0.0
 20
0.0
 30
0.0
210
0.0
220
0.0
230
1.0
  2
SOLID
 70
1
 71
0
 91
1
 92
3
 72
0
 73
1
 93
48
 10
121.8
 20
94.55
 10
121.796
 20
94.485
 10
121.783
 20
94.421
 10
121.762
 20
94.359
 10
121.733
 20
94.3
 10
121.697
 20
94.246
 10
121.654
 20
94.196
 10
121.604
 20
94.153
 10
121.55
 20
94.117
 10
121.491
 20
94.088
 10
121.429
 20
94.067
 10
121.365
 20
94.054
 10
121.3
 20
94.05
 10
121.235
 20
94.054
 10
121.171
 20
94.067
 10
121.109
 20
94.088
 10
121.05
 20
94.117
 10
120.996
 20
94.153
 10
120.946
 20
94.196
 10
120.903
 20
94.246
 10
120.867
 20
94.3
 10
120.838
 20
94.359
 10
120.817
 20
94.421
 10
120.804
 20
94.485
 10
120.8
 20
94.55
 10
120.804
 20
94.615
 10
120.817
 20
94.679
 10
120.838
 20
94.741
 10
120.867
 20
94.8
 10
120.903
 20
94.854
 10
120.946
 20
94.904
 10
120.996
 20
94.947
 10
121.05
 20
94.983
 10
121.109
 20
95.012
 10
121.171
 20
95.033
 10
121.235
 20
95.046
 10
121.3
 20
95.05
 10
121.365
 20
95.046
 10
121.429
 20
95.033
 10
121.491
 20
95.012
 10
121.55
 20
94.983
 10
121.604
 20
94.947
 10
121.654
 20
94.904
 10
121.697
 20
94.854
 10
121.733
 20
94.8
 10
121.762
 20
94.741
 10
121.783
 20
94.679
 10
121.796
 20
94.615
 97
0
 75
0
 76
1
 98
0
  0
HATCH
  5
50
330
17
100
AcDbEntity
  8
RASTER
 62
7
100
AcDbHatch
 10
0.0
 20
0.0
 30
0.0
210
0.0
220
0.0
230
1.0
  2
SOLID
 70
1
 71
0
 91
1
 92
3
 72
0
 73
1
 93
48
 10
109.2
 20
89.45
 10
109.196
 20
89.385
 10
109.183
 20
89.321
 10
109.162
 20
89.259
 10
109.133
 20
89.2
 10
109.097
 20
89.146
 10
109.054
 20
89.096
 10
109.004
 20
89.053
 10
108.95
 20
89.017
 10
108.891
 20
88.988
 10
108.829
 20
88.967
 10
108.765
 20
88.954
 10
108.7
 20
88.95
 10
108.635
 20
88.954
 10
108.571
 20
88.967
 10
108.509
 20
88.988
 10
108.45
 20
89.017
 10
108.396
 20
89.053
 10
108.346
 20
89.096
 10
108.303
 20
89.146
 10
108.267
 20
89.2
 10
108.238
 20
89.259
 10
108.217
 20
89.321
 10
108.204
 20
89.385
 10
108.2
 20
89.45
 10
108.204
 20
89.515
 10
108.217
 20
89.579
 10
108.238
 20
89.641
 10
108.267
 20
89.7
 10
108.303
 20
89.754
 10
108.346
 20
89.804
 10
108.396
 20
89.847
 10
108.45
 20
89.883
 10
108.509
 20
89.912
 10
108.571
 20
89.933
 10
108.635
 20
89.946
 10
108.7
 20
89.95
 10
108.765
 20
89.946
 10
108.829
 20
89.933
 10
108.891
 20
89.912
 10
108.95
 20
89.883
 10
109.004
 20
89.847
 10
109.054
 20
89.804
 10
109.097
 20
89.754
 10
109.133
 20
89.7
 10
109.162
 20
89.641
 10
109.183
 20
89.579
 10
109.196
 20
89.515
 97
0
 75
0
 76
1
 98
0
  0
HATCH
  5
51
330
17
100
AcDbEntity
  8
RASTER
 62
7
100
AcDbHatch
 10
0.0
 20
0.0
 30
0.0
210
0.0
220
0.0
230
1.0
  2
SOLID
 70
1
 71
0
 91
1
 92
3
 72
0
 73
1
 93
48
 10
121.8
 20
89.45
 10
121.796
 20
89.385
 10
121.783
 20
89.321
 10
121.762
 20
89.259
 10
121.733
 20
89.2
 10
121.697
 20
89.146
 10
121.654
 20
89.096
 10
121.604
 20
89.053
 10
121.55
 20
89.017
 10
121.491
 20
88.988
 10
121.429
 20
88.967
 10
121.365
 20
88.954
 10
121.3
 20
88.95
 10
121.235
 20
88.954
 10
121.171
 20
88.967
 10
121.109
 20
88.988
 10
121.05
 20
89.017
 10
120.996
 20
89.053
 10
120.946
 20
89.096
 10
120.903
 20
89.146
 10
120.867
 20
89.2
 10
120.838
 20
89.259
 10
120.817
 20
89.321
 10
120.804
 20
89.385
 10
120.8
 20
89.45
 10
120.804
 20
89.515
 10
120.817
 20
89.579
 10
120.838
 20
89.641
 10
120.867
 20
89.7
 10
120.903
 20
89.754
 10
120.946
 20
89.804
 10
120.996
 20
89.847
 10
121.05
 20
89.883
 10
121.109
 20
89.912
 10
121.171
 20
89.933
 10
121.235
 20
89.946
 10
121.3
 20
89.95
 10
121.365
 20
89.946
 10
121.429
 20
89.933
 10
121.491
 20
89.912
 10
121.55
 20
89.883
 10
121.604
 20
89.847
 10
121.654
 20
89.804
 10
121.697
 20
89.754
 10
121.733
 20
89.7
 10
121.762
 20
89.641
 10
121.783
 20
89.579
 10
121.796
 20
89.515
 97
0
 75
0
 76
1
 98
0
  0
LWPOLYLINE
  5
52
330
17
100
AcDbEntity
  8
CUT
100
AcDbPolyline
 90
20
 70
1
 10
137.06
 20
102.04
 10
160.94
 20
102.04
 10
160.94
 20
97.073
 10
164.04
 20
97.073
 10
164.04
 20
92.027
 10
160.94
 20
92.027
 10
160.94
 20
87.06
 10
156.18
 20
87.06
 10
156.18
 20
83.96
 10
151.34
 20
83.96
 10
151.34
 20
87.06
 10
146.66
 20
87.06
 10
146.66
 20
83.96
 10
141.82
 20
83.96
 10
141.82
 20
87.06
 10
137.06
 20
87.06
 10
137.06
 20
92.027
 10
133.96
 20
92.027
 10
133.96
 20
97.073
 10
137.06
 20
97.073
  0
LWPOLYLINE
  5
53
330
17
100
AcDbEntity
  8
CUT
100
AcDbPolyline
 90
4
 70
1
 10
141.14
 20
97.76
 10
156.86
 20
97.76
 10
156.86
 20
96.44
 10
141.14
 20
96.44
  0
LWPOLYLINE
  5
54
330
17
100
AcDbEntity
  8
CUT
100
AcDbPolyline
 90
4
 70
1
 10
141.14
 20
92.66
 10
156.86
 20
92.66
 10
156.86
 20
91.34
 10
141.14
 20
91.34
  0
HATCH
  5
55
330
17
100
AcDbEntity
  8
RASTER
 62
7
100
AcDbHatch
 10
0.0
 20
0.0
 30
0.0
210
0.0
220
0.0
230
1.0
  2
SOLID
 70
1
 71
0
 91
1
 92
3
 72
0
 73
1
 93
4
 10
137.7
 20
101.6
 10
140.5
 20
101.6
 10
140.5
 20
87.5
 10
137.7
 20
87.5
 97
0
 75
0
 76
1
 98
0
  0
HATCH
  5
56
330
17
100
AcDbEntity
  8
RASTER
 62
7
100
AcDbHatch
 10
0.0
 20
0.0
 30
0.0
210
0.0
220
0.0
230
1.0
  2
SOLID
 70
1
 71
0
 91
1
 92
3
 72
0
 73
1
 93
4
 10
157.5
 20
101.6
 10
160.3
 20
101.6
 10
160.3
 20
87.5
 10
157.5
 20
87.5
 97
0
 75
0
 76
1
 98
0
  0
HATCH
  5
57
330
17
100
AcDbEntity
  8
RASTER
 62
7
100
AcDbHatch
 10
0.0
 20
0.0
 30
0.0
210
0.0
220
0.0
230
1.0
  2
SOLID
 70
1
 71
0
 91
1
 92
3
 72
0
 73
1
 93
48
 10
143.2
 20
99.65
 10
143.196
 20
99.585
 10
143.183
 20
99.521
 10
143.162
 20
99.459
 10
143.133
 20
99.4
 10
143.097
 20
99.346
 10
143.054
 20
99.296
 10
143.004
 20
99.253
 10
142.95
 20
99.217
 10
142.891
 20
99.188
 10
142.829
 20
99.167
 10
142.765
 20
99.154
 10
142.7
 20
99.15
 10
142.635
 20
99.154
 10
142.571
 20
99.167
 10
142.509
 20
99.188
 10
142.45
 20
99.217
 10
142.396
 20
99.253
 10
142.346
 20
99.296
 10
142.303
 20
99.346
 10
142.267
 20
99.4
 10
142.238
 20
99.459
 10
142.217
 20
99.521
 10
142.204
 20
99.585
 10
142.2
 20
99.65
 10
142.204
 20
99.715
 10
142.217
 20
99.779
 10
142.238
 20
99.841
 10
142.267
 20
99.9
 10
142.303
 20
99.954
 10
142.346
 20
100.004
 10
142.396
 20
100.047
 10
142.45
 20
100.083
 10
142.509
 20
100.112
 10
142.571
 20
100.133
 10
142.635
 20
100.146
 10
142.7
 20
100.15
 10
142.765
 20
100.146
 10
142.829
 20
100.133
 10
142.891
 20
100.112
 10
142.95
 20
100.083
 10
143.004
 20
100.047
 10
143.054
 20
100.004
 10
143.097
 20
99.954
 10
143.133
 20
99.9
 10
143.162
 20
99.841
 10
143.183
 20
99.779
 10
143.196
 20
99.715
 97
0
 75
0
 76
1
 98
0
  0
HATCH
  5
58
330
17
100
AcDbEntity
  8
RASTER
 62
7
100
AcDbHatch
 10
0.0
 20
0.0
 30
0.0
210
0.0
220
0.0
230
1.0
  2
SOLID
 70
1
 71
0
 91
1
 92
3
 72
0
 73
1
 93
48
 10
155.8
 20
99.65
 10
155.796
 20
99.585
 10
155.783
 20
99.521
 10
155.762
 20
99.459
 10
155.733
 20
99.4
 10
155.697
 20
99.346
 10
155.654
 20
99.296
 10
155.604
 20
99.253
 10
155.55
 20
99.217
 10
155.491
 20
99.188
 10
155.429
 20
99.167
 10
155.365
 20
99.154
 10
155.3
 20
99.15
 10
155.235
 20
99.154
 10
155.171
 20
99.167
 10
155.109
 20
99.188
 10
155.05
 20
99.217
 10
154.996
 20
99.253
 10
154.946
 20
99.296
 10
154.903
 20
99.346
 10
154.867
 20
99.4
 10
154.838
 20
99.459
 10
154.817
 20
99.521
 10
154.804
 20
99.585
 10
154.8
 20
99.65
 10
154.804
 20
99.715
 10
154.817
 20
99.779
 10
154.838
 20
99.841
 10
154.867
 20
99.9
 10
154.903
 20
99.954
 10
154.946
 20
100.004
 10
154.996
 20
100.047
 10
155.05
 20
100.083
 10
155.109
 20
100.112
 10
155.171
 20
100.133
 10
155.235
 20
100.146
 10
155.3
 20
100.15
 10
155.365
 20
100.146
 10
155.429
 20
100.133
 10
155.491
 20
100.112
 10
155.55
 20
100.083
 10
155.604
 20
100.047
 10
155.654
 20
100.004
 10
155.697
 20
99.954
 10
155.733
 20
99.9
 10
155.762
 20
99.841
 10
155.783
 20
99.779
 10
155.796
 20
99.715
 97
0
 75
0
 76
1
 98
0
  0
HATCH
  5
59
330
17
100
AcDbEntity
  8
RASTER
 62
7
100
AcDbHatch
 10
0.0
 20
0.0
 30
0.0
210
0.0
220
0.0
230
1.0
  2
SOLID
 70
1
 71
0
 91
1
 92
3
 72
0
 73
1
 93
48
 10
143.2
 20
94.55
 10
143.196
 20
94.485
 10
143.183
 20
94.421
 10
143.162
 20
94.359
 10
143.133
 20
94.3
 10
143.097
 20
94.246
 10
143.054
 20
94.196
 10
143.004
 20
94.153
 10
142.95
 20
94.117
 10
142.891
 20
94.088
 10
142.829
 20
94.067
 10
142.765
 20
94.054
 10
142.7
 20
94.05
 10
142.635
 20
94.054
 10
142.571
 20
94.067
 10
142.509
 20
94.088
 10
142.45
 20
94.117
 10
142.396
 20
94.153
 10
142.346
 20
94.196
 10
142.303
 20
94.246
 10
142.267
 20
94.3
 10
142.238
 20
94.359
 10
142.217
 20
94.421
 10
142.204
 20
94.485
 10
142.2
 20
94.55
 10
142.204
 20
94.615
 10
142.217
 20
94.679
 10
142.238
 20
94.741
 10
142.267
 20
94.8
 10
142.303
 20
94.854
 10
142.346
 20
94.904
 10
142.396
 20
94.947
 10
142.45
 20
94.983
 10
142.509
 20
95.012
 10
142.571
 20
95.033
 10
142.635
 20
95.046
 10
142.7
 20
95.05
 10
142.765
 20
95.046
 10
142.829
 20
95.033
 10
142.891
 20
95.012
 10
142.95
 20
94.983
 10
143.004
 20
94.947
 10
143.054
 20
94.904
 10
143.097
 20
94.854
 10
143.133
 20
94.8
 10
143.162
 20
94.741
 10
143.183
 20
94.679
 10
143.196
 20
94.615
 97
0
 75
0
 76
1
 98
0
  0
HATCH
  5
5A
330
17
100
AcDbEntity
  8
RASTER
 62
7
100
AcDbHatch
 10
0.0
 20
0.0
 30
0.0
210
0.0
220
0.0
230
1.0
  2
SOLID
 70
1
 71
0
 91
1
 92
3
 72
0
 73
1
 93
48
 10
155.8
 20
94.55
 10
155.796
 20
94.485
 10
155.783
 20
94.421
 10
155.762
 20
94.359
 10
155.733
 20
94.3
 10
155.697
 20
94.246
 10
155.654
 20
94.196
 10
155.604
 20
94.153
 10
155.55
 20
94.117
 10
155.491
 20
94.088
 10
155.429
 20
94.067
 10
155.365
 20
94.054
 10
155.3
 20
94.05
 10
155.235
 20
94.054
 10
155.171
 20
94.067
 10
155.109
 20
94.088
 10
155.05
 20
94.117
 10
154.996
 20
94.153
 10
154.946
 20
94.196
 10
154.903
 20
94.246
 10
154.867
 20
94.3
 10
154.838
 20
94.359
 10
154.817
 20
94.421
 10
154.804
 20
94.485
 10
154.8
 20
94.55
 10
154.804
 20
94.615
 10
154.817
 20
94.679
 10
154.838
 20
94.741
 10
154.867
 20
94.8
 10
154.903
 20
94.854
 10
154.946
 20
94.904
 10
154.996
 20
94.947
 10
155.05
 20
94.983
 10
155.109
 20
95.012
 10
155.171
 20
95.033
 10
155.235
 20
95.046
 10
155.3
 20
95.05
 10
155.365
 20
95.046
 10
155.429
 20
95.033
 10
155.491
 20
95.012
 10
155.55
 20
94.983
 10
155.604
 20
94.947
 10
155.654
 20
94.904
 10
155.697
 20
94.854
 10
155.733
 20
94.8
 10
155.762
 20
94.741
 10
155.783
 20
94.679
 10
155.796
 20
94.615
 97
0
 75
0
 76
1
 98
0
  0
HATCH
  5
5B
330
17
100
AcDbEntity
  8
RASTER
 62
7
100
AcDbHatch
 10
0.0
 20
0.0
 30
0.0
210
0.0
220
0.0
230
1.0
  2
SOLID
 70
1
 71
0
 91
1
 92
3
 72
0
 73
1
 93
48
 10
143.2
 20
89.45
 10
143.196
 20
89.385
 10
143.183
 20
89.321
 10
143.162
 20
89.259
 10
143.133
 20
89.2
 10
143.097
 20
89.146
 10
143.054
 20
89.096
 10
143.004
 20
89.053
 10
142.95
 20
89.017
 10
142.891
 20
88.988
 10
142.829
 20
88.967
 10
142.765
 20
88.954
 10
142.7
 20
88.95
 10
142.635
 20
88.954
 10
142.571
 20
88.967
 10
142.509
 20
88.988
 10
142.45
 20
89.017
 10
142.396
 20
89.053
 10
142.346
 20
89.096
 10
142.303
 20
89.146
 10
142.267
 20
89.2
 10
142.238
 20
89.259
 10
142.217
 20
89.321
 10
142.204
 20
89.385
 10
142.2
 20
89.45
 10
142.204
 20
89.515
 10
142.217
 20
89.579
 10
142.238
 20
89.641
 10
142.267
 20
89.7
 10
142.303
 20
89.754
 10
142.346
 20
89.804
 10
142.396
 20
89.847
 10
142.45
 20
89.883
 10
142.509
 20
89.912
 10
142.571
 20
89.933
 10
142.635
 20
89.946
 10
142.7
 20
89.95
 10
142.765
 20
89.946
 10
142.829
 20
89.933
 10
142.891
 20
89.912
 10
142.95
 20
89.883
 10
143.004
 20
89.847
 10
143.054
 20
89.804
 10
143.097
 20
89.754
 10
143.133
 20
89.7
 10
143.162
 20
89.641
 10
143.183
 20
89.579
 10
143.196
 20
89.515
 97
0
 75
0
 76
1
 98
0
  0
HATCH
  5
5C
330
17
100
AcDbEntity
  8
RASTER
 62
7
100
AcDbHatch
 10
0.0
 20
0.0
 30
0.0
210
0.0
220
0.0
230
1.0
  2
SOLID
 70
1
 71
0
 91
1
 92
3
 72
0
 73
1
 93
48
 10
155.8
 20
89.45
 10
155.796
 20
89.385
 10
155.783
 20
89.321
 10
155.762
 20
89.259
 10
155.733
 20
89.2
 10
155.697
 20
89.146
 10
155.654
 20
89.096
 10
155.604
 20
89.053
 10
155.55
 20
89.017
 10
155.491
 20
88.988
 10
155.429
 20
88.967
 10
155.365
 20
88.954
 10
155.3
 20
88.95
 10
155.235
 20
88.954
 10
155.171
 20
88.967
 10
155.109
 20
88.988
 10
155.05
 20
89.017
 10
154.996
 20
89.053
 10
154.946
 20
89.096
 10
154.903
 20
89.146
 10
154.867
 20
89.2
 10
154.838
 20
89.259
 10
154.817
 20
89.321
 10
154.804
 20
89.385
 10
154.8
 20
89.45
 10
154.804
 20
89.515
 10
154.817
 20
89.579
 10
154.838
 20
89.641
 10
154.867
 20
89.7
 10
154.903
 20
89.754
 10
154.946
 20
89.804
 10
154.996
 20
89.847
 10
155.05
 20
89.883
 10
155.109
 20
89.912
 10
155.171
 20
89.933
 10
155.235
 20
89.946
 10
155.3
 20
89.95
 10
155.365
 20
89.946
 10
155.429
 20
89.933
 10
155.491
 20
89.912
 10
155.55
 20
89.883
 10
155.604
 20
89.847
 10
155.654
 20
89.804
 10
155.697
 20
89.754
 10
155.733
 20
89.7
 10
155.762
 20
89.641
 10
155.783
 20
89.579
 10
155.796
 20
89.515
 97
0
 75
0
 76
1
 98
0
  0
LWPOLYLINE
  5
5D
330
17
100
AcDbEntity
  8
CUT
100
AcDbPolyline
 90
52
 70
1
 10
167.96
 20
102.04
 10
171.1
 20
102.04
 10
176.54
 20
102.04
 10
176.54
 20
98.94
 10
181.86
 20
98.94
 10
181.86
 20
102.04
 10
187.34
 20
102.04
 10
187.34
 20
98.94
 10
192.66
 20
98.94
 10
192.66
 20
102.04
 10
198.14
 20
102.04
 10
198.14
 20
98.94
 10
203.46
 20
98.94
 10
203.46
 20
102.04
 10
208.9
 20
102.04
 10
212.04
 20
102.04
 10
212.04
 20
98.9
 10
212.04
 20
94.1
 10
208.94
 20
94.1
 10
208.94
 20
89.42
 10
212.04
 20
89.42
 10
212.04
 20
84.58
 10
208.94
 20
84.58
 10
208.94
 20
79.9
 10
212.04
 20
79.9
 10
212.04
 20
75.1
 10
212.04
 20
71.96
 10
208.9
 20
71.96
 10
203.46
 20
71.96
 10
203.46
 20
75.06
 10
198.14
 20
75.06
 10
198.14
 20
71.96
 10
192.66
 20
71.96
 10
192.66
 20
75.06
 10
187.34
 20
75.06
 10
187.34
 20
71.96
 10
181.86
 20
71.96
 10
181.86
 20
75.06
 10
176.54
 20
75.06
 10
176.54
 20
71.96
 10
171.1
 20
71.96
 10
167.96
 20
71.96
 10
167.96
 20
75.1
 10
167.96
 20
79.9
 10
171.06
 20
79.9
 10
171.06
 20
84.58
 10
167.96
 20
84.58
 10
167.96
 20
89.42
 10
171.06
 20
89.42
 10
171.06
 20
94.1
 10
167.96
 20
94.1
 10
167.96
 20
98.9
  0
LWPOLYLINE
  5
5E
330
17
100
AcDbEntity
  8
CUT
100
AcDbPolyline
 90
28
 70
1
 10
219.1
 20
102.04
 10
256.9
 20
102.04
 10
260.04
 20
102.04
 10
260.04
 20
96.993
 10
256.94
 20
96.993
 10
256.94
 20
92.107
 10
260.04
 20
92.107
 10
260.04
 20
87.06
 10
256.9
 20
87.06
 10
251.54
 20
87.06
 10
251.54
 20
83.96
 10
246.06
 20
83.96
 10
246.06
 20
87.06
 10
240.74
 20
87.06
 10
240.74
 20
83.96
 10
235.26
 20
83.96
 10
235.26
 20
87.06
 10
229.94
 20
87.06
 10
229.94
 20
83.96
 10
224.46
 20
83.96
 10
224.46
 20
87.06
 10
219.1
 20
87.06
 10
215.96
 20
87.06
 10
215.96
 20
92.107
 10
219.06
 20
92.107
 10
219.06
 20
96.993
 10
215.96
 20
96.993
 10
215.96
 20
102.04
  0
LWPOLYLINE
  5
5F
330
17
100
AcDbEntity
  8
CUT
100
AcDbPolyline
 90
4
 70
1
 10
223.14
 20
97.76
 10
252.86
 20
97.76
 10
252.86
 20
96.44
 10
223.14
 20
96.44
  0
LWPOLYLINE
  5
60
330
17
100
AcDbEntity
  8
CUT
100
AcDbPolyline
 90
4
 70
1
 10
223.14
 20
92.66
 10
252.86
 20
92.66
 10
252.86
 20
91.34
 10
223.14
 20
91.34
  0
HATCH
  5
61
330
17
100
AcDbEntity
  8
RASTER
 62
7
100
AcDbHatch
 10
0.0
 20
0.0
 30
0.0
210
0.0
220
0.0
230
1.0
  2
SOLID
 70
1
 71
0
 91
1
 92
3
 72
0
 73
1
 93
4
 10
219.7
 20
101.6
 10
222.5
 20
101.6
 10
222.5
 20
87.5
 10
219.7
 20
87.5
 97
0
 75
0
 76
1
 98
0
  0
HATCH
  5
62
330
17
100
AcDbEntity
  8
RASTER
 62
7
100
AcDbHatch
 10
0.0
 20
0.0
 30
0.0
210
0.0
220
0.0
230
1.0
  2
SOLID
 70
1
 71
0
 91
1
 92
3
 72
0
 73
1
 93
4
 10
253.5
 20
101.6
 10
256.3
 20
101.6
 10
256.3
 20
87.5
 10
253.5
 20
87.5
 97
0
 75
0
 76
1
 98
0
  0
HATCH
  5
63
330
17
100
AcDbEntity
  8
RASTER
 62
7
100
AcDbHatch
 10
0.0
 20
0.0
 30
0.0
210
0.0
220
0.0
230
1.0
  2
SOLID
 70
1
 71
0
 91
1
 92
3
 72
0
 73
1
 93
48
 10
225.2
 20
99.65
 10
225.196
 20
99.585
 10
225.183
 20
99.521
 10
225.162
 20
99.459
 10
225.133
 20
99.4
 10
225.097
 20
99.346
 10
225.054
 20
99.296
 10
225.004
 20
99.253
 10
224.95
 20
99.217
 10
224.891
 20
99.188
 10
224.829
 20
99.167
 10
224.765
 20
99.154
 10
224.7
 20
99.15
 10
224.635
 20
99.154
 10
224.571
 20
99.167
 10
224.509
 20
99.188
 10
224.45
 20
99.217
 10
224.396
 20
99.253
 10
224.346
 20
99.296
 10
224.303
 20
99.346
 10
224.267
 20
99.4
 10
224.238
 20
99.459
 10
224.217
 20
99.521
 10
224.204
 20
99.585
 10
224.2
 20
99.65
 10
224.204
 20
99.715
 10
224.217
 20
99.779
 10
224.238
 20
99.841
 10
224.267
 20
99.9
 10
224.303
 20
99.954
 10
224.346
 20
100.004
 10
224.396
 20
100.047
 10
224.45
 20
100.083
 10
224.509
 20
100.112
 10
224.571
 20
100.133
 10
224.635
 20
100.146
 10
224.7
 20
100.15
 10
224.765
 20
100.146
 10
224.829
 20
100.133
 10
224.891
 20
100.112
 10
224.95
 20
100.083
 10
225.004
 20
100.047
 10
225.054
 20
100.004
 10
225.097
 20
99.954
 10
225.133
 20
99.9
 10
225.162
 20
99.841
 10
225.183
 20
99.779
 10
225.196
 20
99.715
 97
0
 75
0
 76
1
 98
0
  0
HATCH
  5
64
330
17
100
AcDbEntity
  8
RASTER
 62
7
100
AcDbHatch
 10
0.0
 20
0.0
 30
0.0
210
0.0
220
0.0
230
1.0
  2
SOLID
 70
1
 71
0
 91
1
 92
3
 72
0
 73
1
 93
48
 10
251.8
 20
99.65
 10
251.796
 20
99.585
 10
251.783
 20
99.521
 10
251.762
 20
99.459
 10
251.733
 20
99.4
 10
251.697
 20
99.346
 10
251.654
 20
99.296
 10
251.604
 20
99.253
 10
251.55
 20
99.217
 10
251.491
 20
99.188
 10
251.429
 20
99.167
 10
251.365
 20
99.154
 10
251.3
 20
99.15
 10
251.235
 20
99.154
 10
251.171
 20
99.167
 10
251.109
 20
99.188
 10
251.05
 20
99.217
 10
250.996
 20
99.253
 10
250.946
 20
99.296
 10
250.903
 20
99.346
 10
250.867
 20
99.4
 10
250.838
 20
99.459
 10
250.817
 20
99.521
 10
250.804
 20
99.585
 10
250.8
 20
99.65
 10
250.804
 20
99.715
 10
250.817
 20
99.779
 10
250.838
 20
99.841
 10
250.867
 20
99.9
 10
250.903
 20
99.954
 10
250.946
 20
100.004
 10
250.996
 20
100.047
 10
251.05
 20
100.083
 10
251.109
 20
100.112
 10
251.171
 20
100.133
 10
251.235
 20
100.146
 10
251.3
 20
100.15
 10
251.365
 20
100.146
 10
251.429
 20
100.133
 10
251.491
 20
100.112
 10
251.55
 20
100.083
 10
251.604
 20
100.047
 10
251.654
 20
100.004
 10
251.697
 20
99.954
 10
251.733
 20
99.9
 10
251.762
 20
99.841
 10
251.783
 20
99.779
 10
251.796
 20
99.715
 97
0
 75
0
 76
1
 98
0
  0
HATCH
  5
65
330
17
100
AcDbEntity
  8
RASTER
 62
7
100
AcDbHatch
 10
0.0
 20
0.0
 30
0.0
210
0.0
220
0.0
230
1.0
  2
SOLID
 70
1
 71
0
 91
1
 92
3
 72
0
 73
1
 93
48
 10
225.2
 20
94.55
 10
225.196
 20
94.485
 10
225.183
 20
94.421
 10
225.162
 20
94.359
 10
225.133
 20
94.3
 10
225.097
 20
94.246
 10
225.054
 20
94.196
 10
225.004
 20
94.153
 10
224.95
 20
94.117
 10
224.891
 20
94.088
 10
224.829
 20
94.067
 10
224.765
 20
94.054
 10
224.7
 20
94.05
 10
224.635
 20
94.054
 10
224.571
 20
94.067
 10
224.509
 20
94.088
 10
224.45
 20
94.117
 10
224.396
 20
94.153
 10
224.346
 20
94.196
 10
224.303
 20
94.246
 10
224.267
 20
94.3
 10
224.238
 20
94.359
 10
224.217
 20
94.421
 10
224.204
 20
94.485
 10
224.2
 20
94.55
 10
224.204
 20
94.615
 10
224.217
 20
94.679
 10
224.238
 20
94.741
 10
224.267
 20
94.8
 10
224.303
 20
94.854
 10
224.346
 20
94.904
 10
224.396
 20
94.947
 10
224.45
 20
94.983
 10
224.509
 20
95.012
 10
224.571
 20
95.033
 10
224.635
 20
95.046
 10
224.7
 20
95.05
 10
224.765
 20
95.046
 10
224.829
 20
95.033
 10
224.891
 20
95.012
 10
224.95
 20
94.983
 10
225.004
 20
94.947
 10
225.054
 20
94.904
 10
225.097
 20
94.854
 10
225.133
 20
94.8
 10
225.162
 20
94.741
 10
225.183
 20
94.679
 10
225.196
 20
94.615
 97
0
 75
0
 76
1
 98
0
  0
HATCH
  5
66
330
17
100
AcDbEntity
  8
RASTER
 62
7
100
AcDbHatch
 10
0.0
 20
0.0
 30
0.0
210
0.0
220
0.0
230
1.0
  2
SOLID
 70
1
 71
0
 91
1
 92
3
 72
0
 73
1
 93
48
 10
251.8
 20
94.55
 10
251.796
 20
94.485
 10
251.783
 20
94.421
 10
251.762
 20
94.359
 10
251.733
 20
94.3
 10
251.697
 20
94.246
 10
251.654
 20
94.196
 10
251.604
 20
94.153
 10
251.55
 20
94.117
 10
251.491
 20
94.088
 10
251.429
 20
94.067
 10
251.365
 20
94.054
 10
251.3
 20
94.05
 10
251.235
 20
94.054
 10
251.171
 20
94.067
 10
251.109
 20
94.088
 10
251.05
 20
94.117
 10
250.996
 20
94.153
 10
250.946
 20
94.196
 10
250.903
 20
94.246
 10
250.867
 20
94.3
 10
250.838
 20
94.359
 10
250.817
 20
94.421
 10
250.804
 20
94.485
 10
250.8
 20
94.55
 10
250.804
 20
94.615
 10
250.817
 20
94.679
 10
250.838
 20
94.741
 10
250.867
 20
94.8
 10
250.903
 20
94.854
 10
250.946
 20
94.904
 10
250.996
 20
94.947
 10
251.05
 20
94.983
 10
251.109
 20
95.012
 10
251.171
 20
95.033
 10
251.235
 20
95.046
 10
251.3
 20
95.05
 10
251.365
 20
95.046
 10
251.429
 20
95.033
 10
251.491
 20
95.012
 10
251.55
 20
94.983
 10
251.604
 20
94.947
 10
251.654
 20
94.904
 10
251.697
 20
94.854
 10
251.733
 20
94.8
 10
251.762
 20
94.741
 10
251.783
 20
94.679
 10
251.796
 20
94.615
 97
0
 75
0
 76
1
 98
0
  0
HATCH
  5
67
330
17
100
AcDbEntity
  8
RASTER
 62
7
100
AcDbHatch
 10
0.0
 20
0.0
 30
0.0
210
0.0
220
0.0
230
1.0
  2
SOLID
 70
1
 71
0
 91
1
 92
3
 72
0
 73
1
 93
48
 10
225.2
 20
89.45
 10
225.196
 20
89.385
 10
225.183
 20
89.321
 10
225.162
 20
89.259
 10
225.133
 20
89.2
 10
225.097
 20
89.146
 10
225.054
 20
89.096
 10
225.004
 20
89.053
 10
224.95
 20
89.017
 10
224.891
 20
88.988
 10
224.829
 20
88.967
 10
224.765
 20
88.954
 10
224.7
 20
88.95
 10
224.635
 20
88.954
 10
224.571
 20
88.967
 10
224.509
 20
88.988
 10
224.45
 20
89.017
 10
224.396
 20
89.053
 10
224.346
 20
89.096
 10
224.303
 20
89.146
 10
224.267
 20
89.2
 10
224.238
 20
89.259
 10
224.217
 20
89.321
 10
224.204
 20
89.385
 10
224.2
 20
89.45
 10
224.204
 20
89.515
 10
224.217
 20
89.579
 10
224.238
 20
89.641
 10
224.267
 20
89.7
 10
224.303
 20
89.754
 10
224.346
 20
89.804
 10
224.396
 20
89.847
 10
224.45
 20
89.883
 10
224.509
 20
89.912
 10
224.571
 20
89.933
 10
224.635
 20
89.946
 10
224.7
 20
89.95
 10
224.765
 20
89.946
 10
224.829
 20
89.933
 10
224.891
 20
89.912
 10
224.95
 20
89.883
 10
225.004
 20
89.847
 10
225.054
 20
89.804
 10
225.097
 20
89.754
 10
225.133
 20
89.7
 10
225.162
 20
89.641
 10
225.183
 20
89.579
 10
225.196
 20
89.515
 97
0
 75
0
 76
1
 98
0
  0
HATCH
  5
68
330
17
100
AcDbEntity
  8
RASTER
 62
7
100
AcDbHatch
 10
0.0
 20
0.0
 30
0.0
210
0.0
220
0.0
230
1.0
  2
SOLID
 70
1
 71
0
 91
1
 92
3
 72
0
 73
1
 93
48
 10
251.8
 20
89.45
 10
251.796
 20
89.385
 10
251.783
 20
89.321
 10
251.762
 20
89.259
 10
251.733
 20
89.2
 10
251.697
 20
89.146
 10
251.654
 20
89.096
 10
251.604
 20
89.053
 10
251.55
 20
89.017
 10
251.491
 20
88.988
 10
251.429
 20
88.967
 10
251.365
 20
88.954
 10
251.3
 20
88.95
 10
251.235
 20
88.954
 10
251.171
 20
88.967
 10
251.109
 20
88.988
 10
251.05
 20
89.017
 10
250.996
 20
89.053
 10
250.946
 20
89.096
 10
250.903
 20
89.146
 10
250.867
 20
89.2
 10
250.838
 20
89.259
 10
250.817
 20
89.321
 10
250.804
 20
89.385
 10
250.8
 20
89.45
 10
250.804
 20
89.515
 10
250.817
 20
89.579
 10
250.838
 20
89.641
 10
250.867
 20
89.7
 10
250.903
 20
89.754
 10
250.946
 20
89.804
 10
250.996
 20
89.847
 10
251.05
 20
89.883
 10
251.109
 20
89.912
 10
251.171
 20
89.933
 10
251.235
 20
89.946
 10
251.3
 20
89.95
 10
251.365
 20
89.946
 10
251.429
 20
89.933
 10
251.491
 20
89.912
 10
251.55
 20
89.883
 10
251.604
 20
89.847
 10
251.654
 20
89.804
 10
251.697
 20
89.754
 10
251.733
 20
89.7
 10
251.762
 20
89.641
 10
251.783
 20
89.579
 10
251.796
 20
89.515
 97
0
 75
0
 76
1
 98
0
  0
LWPOLYLINE
  5
69
330
17
100
AcDbEntity
  8
CUT
100
AcDbPolyline
 90
28
 70
1
 10
7.1
 20
68.04
 10
44.9
 20
68.04
 10
48.04
 20
68.04
 10
48.04
 20
62.993
 10
44.94
 20
62.993
 10
44.94
 20
58.107
 10
48.04
 20
58.107
 10
48.04
 20
53.06
 10
44.9
 20
53.06
 10
39.54
 20
53.06
 10
39.54
 20
49.96
 10
34.06
 20
49.96
 10
34.06
 20
53.06
 10
28.74
 20
53.06
 10
28.74
 20
49.96
 10
23.26
 20
49.96
 10
23.26
 20
53.06
 10
17.94
 20
53.06
 10
17.94
 20
49.96
 10
12.46
 20
49.96
 10
12.46
 20
53.06
 10
7.1
 20
53.06
 10
3.96
 20
53.06
 10
3.96
 20
58.107
 10
7.06
 20
58.107
 10
7.06
 20
62.993
 10
3.96
 20
62.993
 10
3.96
 20
68.04
  0
LWPOLYLINE
  5
6A
330
17
100
AcDbEntity
  8
CUT
100
AcDbPolyline
 90
4
 70
1
 10
11.14
 20
63.76
 10
40.86
 20
63.76
 10
40.86
 20
62.44
 10
11.14
 20
62.44
  0
LWPOLYLINE
  5
6B
330
17
100
AcDbEntity
  8
CUT
100
AcDbPolyline
 90
4
 70
1
 10
11.14
 20
58.66
 10
40.86
 20
58.66
 10
40.86
 20
57.34
 10
11.14
 20
57.34
  0
HATCH
  5
6C
330
17
100
AcDbEntity
  8
RASTER
 62
7
100
AcDbHatch
 10
0.0
 20
0.0
 30
0.0
210
0.0
220
0.0
230
1.0
  2
SOLID
 70
1
 71
0
 91
1
 92
3
 72
0
 73
1
 93
4
 10
7.7
 20
67.6
 10
10.5
 20
67.6
 10
10.5
 20
53.5
 10
7.7
 20
53.5
 97
0
 75
0
 76
1
 98
0
  0
HATCH
  5
6D
330
17
100
AcDbEntity
  8
RASTER
 62
7
100
AcDbHatch
 10
0.0
 20
0.0
 30
0.0
210
0.0
220
0.0
230
1.0
  2
SOLID
 70
1
 71
0
 91
1
 92
3
 72
0
 73
1
 93
4
 10
41.5
 20
67.6
 10
44.3
 20
67.6
 10
44.3
 20
53.5
 10
41.5
 20
53.5
 97
0
 75
0
 76
1
 98
0
  0
HATCH
  5
6E
330
17
100
AcDbEntity
  8
RASTER
 62
7
100
AcDbHatch
 10
0.0
 20
0.0
 30
0.0
210
0.0
220
0.0
230
1.0
  2
SOLID
 70
1
 71
0
 91
1
 92
3
 72
0
 73
1
 93
48
 10
13.2
 20
65.65
 10
13.196
 20
65.585
 10
13.183
 20
65.521
 10
13.162
 20
65.459
 10
13.133
 20
65.4
 10
13.097
 20
65.346
 10
13.054
 20
65.296
 10
13.004
 20
65.253
 10
12.95
 20
65.217
 10
12.891
 20
65.188
 10
12.829
 20
65.167
 10
12.765
 20
65.154
 10
12.7
 20
65.15
 10
12.635
 20
65.154
 10
12.571
 20
65.167
 10
12.509
 20
65.188
 10
12.45
 20
65.217
 10
12.396
 20
65.253
 10
12.346
 20
65.296
 10
12.303
 20
65.346
 10
12.267
 20
65.4
 10
12.238
 20
65.459
 10
12.217
 20
65.521
 10
12.204
 20
65.585
 10
12.2
 20
65.65
 10
12.204
 20
65.715
 10
12.217
 20
65.779
 10
12.238
 20
65.841
 10
12.267
 20
65.9
 10
12.303
 20
65.954
 10
12.346
 20
66.004
 10
12.396
 20
66.047
 10
12.45
 20
66.083
 10
12.509
 20
66.112
 10
12.571
 20
66.133
 10
12.635
 20
66.146
 10
12.7
 20
66.15
 10
12.765
 20
66.146
 10
12.829
 20
66.133
 10
12.891
 20
66.112
 10
12.95
 20
66.083
 10
13.004
 20
66.047
 10
13.054
 20
66.004
 10
13.097
 20
65.954
 10
13.133
 20
65.9
 10
13.162
 20
65.841
 10
13.183
 20
65.779
 10
13.196
 20
65.715
 97
0
 75
0
 76
1
 98
0
  0
HATCH
  5
6F
330
17
100
AcDbEntity
  8
RASTER
 62
7
100
AcDbHatch
 10
0.0
 20
0.0
 30
0.0
210
0.0
220
0.0
230
1.0
  2
SOLID
 70
1
 71
0
 91
1
 92
3
 72
0
 73
1
 93
48
 10
39.8
 20
65.65
 10
39.796
 20
65.585
 10
39.783
 20
65.521
 10
39.762
 20
65.459
 10
39.733
 20
65.4
 10
39.697
 20
65.346
 10
39.654
 20
65.296
 10
39.604
 20
65.253
 10
39.55
 20
65.217
 10
39.491
 20
65.188
 10
39.429
 20
65.167
 10
39.365
 20
65.154
 10
39.3
 20
65.15
 10
39.235
 20
65.154
 10
39.171
 20
65.167
 10
39.109
 20
65.188
 10
39.05
 20
65.217
 10
38.996
 20
65.253
 10
38.946
 20
65.296
 10
38.903
 20
65.346
 10
38.867
 20
65.4
 10
38.838
 20
65.459
 10
38.817
 20
65.521
 10
38.804
 20
65.585
 10
38.8
 20
65.65
 10
38.804
 20
65.715
 10
38.817
 20
65.779
 10
38.838
 20
65.841
 10
38.867
 20
65.9
 10
38.903
 20
65.954
 10
38.946
 20
66.004
 10
38.996
 20
66.047
 10
39.05
 20
66.083
 10
39.109
 20
66.112
 10
39.171
 20
66.133
 10
39.235
 20
66.146
 10
39.3
 20
66.15
 10
39.365
 20
66.146
 10
39.429
 20
66.133
 10
39.491
 20
66.112
 10
39.55
 20
66.083
 10
39.604
 20
66.047
 10
39.654
 20
66.004
 10
39.697
 20
65.954
 10
39.733
 20
65.9
 10
39.762
 20
65.841
 10
39.783
 20
65.779
 10
39.796
 20
65.715
 97
0
 75
0
 76
1
 98
0
  0
HATCH
  5
70
330
17
100
AcDbEntity
  8
RASTER
 62
7
100
AcDbHatch
 10
0.0
 20
0.0
 30
0.0
210
0.0
220
0.0
230
1.0
  2
SOLID
 70
1
 71
0
 91
1
 92
3
 72
0
 73
1
 93
48
 10
13.2
 20
60.55
 10
13.196
 20
60.485
 10
13.183
 20
60.421
 10
13.162
 20
60.359
 10
13.133
 20
60.3
 10
13.097
 20
60.246
 10
13.054
 20
60.196
 10
13.004
 20
60.153
 10
12.95
 20
60.117
 10
12.891
 20
60.088
 10
12.829
 20
60.067
 10
12.765
 20
60.054
 10
12.7
 20
60.05
 10
12.635
 20
60.054
 10
12.571
 20
60.067
 10
12.509
 20
60.088
 10
12.45
 20
60.117
 10
12.396
 20
60.153
 10
12.346
 20
60.196
 10
12.303
 20
60.246
 10
12.267
 20
60.3
 10
12.238
 20
60.359
 10
12.217
 20
60.421
 10
12.204
 20
60.485
 10
12.2
 20
60.55
 10
12.204
 20
60.615
 10
12.217
 20
60.679
 10
12.238
 20
60.741
 10
12.267
 20
60.8
 10
12.303
 20
60.854
 10
12.346
 20
60.904
 10
12.396
 20
60.947
 10
12.45
 20
60.983
 10
12.509
 20
61.012
 10
12.571
 20
61.033
 10
12.635
 20
61.046
 10
12.7
 20
61.05
 10
12.765
 20
61.046
 10
12.829
 20
61.033
 10
12.891
 20
61.012
 10
12.95
 20
60.983
 10
13.004
 20
60.947
 10
13.054
 20
60.904
 10
13.097
 20
60.854
 10
13.133
 20
60.8
 10
13.162
 20
60.741
 10
13.183
 20
60.679
 10
13.196
 20
60.615
 97
0
 75
0
 76
1
 98
0
  0
HATCH
  5
71
330
17
100
AcDbEntity
  8
RASTER
 62
7
100
AcDbHatch
 10
0.0
 20
0.0
 30
0.0
210
0.0
220
0.0
230
1.0
  2
SOLID
 70
1
 71
0
 91
1
 92
3
 72
0
 73
1
 93
48
 10
39.8
 20
60.55
 10
39.796
 20
60.485
 10
39.783
 20
60.421
 10
39.762
 20
60.359
 10
39.733
 20
60.3
 10
39.697
 20
60.246
 10
39.654
 20
60.196
 10
39.604
 20
60.153
 10
39.55
 20
60.117
 10
39.491
 20
60.088
 10
39.429
 20
60.067
 10
39.365
 20
60.054
 10
39.3
 20
60.05
 10
39.235
 20
60.054
 10
39.171
 20
60.067
 10
39.109
 20
60.088
 10
39.05
 20
60.117
 10
38.996
 20
60.153
 10
38.946
 20
60.196
 10
38.903
 20
60.246
 10
38.867
 20
60.3
 10
38.838
 20
60.359
 10
38.817
 20
60.421
 10
38.804
 20
60.485
 10
38.8
 20
60.55
 10
38.804
 20
60.615
 10
38.817
 20
60.679
 10
38.838
 20
60.741
 10
38.867
 20
60.8
 10
38.903
 20
60.854
 10
38.946
 20
60.904
 10
38.996
 20
60.947
 10
39.05
 20
60.983
 10
39.109
 20
61.012
 10
39.171
 20
61.033
 10
39.235
 20
61.046
 10
39.3
 20
61.05
 10
39.365
 20
61.046
 10
39.429
 20
61.033
 10
39.491
 20
61.012
 10
39.55
 20
60.983
 10
39.604
 20
60.947
 10
39.654
 20
60.904
 10
39.697
 20
60.854
 10
39.733
 20
60.8
 10
39.762
 20
60.741
 10
39.783
 20
60.679
 10
39.796
 20
60.615
 97
0
 75
0
 76
1
 98
0
  0
HATCH
  5
72
330
17
100
AcDbEntity
  8
RASTER
 62
7
100
AcDbHatch
 10
0.0
 20
0.0
 30
0.0
210
0.0
220
0.0
230
1.0
  2
SOLID
 70
1
 71
0
 91
1
 92
3
 72
0
 73
1
 93
48
 10
13.2
 20
55.45
 10
13.196
 20
55.385
 10
13.183
 20
55.321
 10
13.162
 20
55.259
 10
13.133
 20
55.2
 10
13.097
 20
55.146
 10
13.054
 20
55.096
 10
13.004
 20
55.053
 10
12.95
 20
55.017
 10
12.891
 20
54.988
 10
12.829
 20
54.967
 10
12.765
 20
54.954
 10
12.7
 20
54.95
 10
12.635
 20
54.954
 10
12.571
 20
54.967
 10
12.509
 20
54.988
 10
12.45
 20
55.017
 10
12.396
 20
55.053
 10
12.346
 20
55.096
 10
12.303
 20
55.146
 10
12.267
 20
55.2
 10
12.238
 20
55.259
 10
12.217
 20
55.321
 10
12.204
 20
55.385
 10
12.2
 20
55.45
 10
12.204
 20
55.515
 10
12.217
 20
55.579
 10
12.238
 20
55.641
 10
12.267
 20
55.7
 10
12.303
 20
55.754
 10
12.346
 20
55.804
 10
12.396
 20
55.847
 10
12.45
 20
55.883
 10
12.509
 20
55.912
 10
12.571
 20
55.933
 10
12.635
 20
55.946
 10
12.7
 20
55.95
 10
12.765
 20
55.946
 10
12.829
 20
55.933
 10
12.891
 20
55.912
 10
12.95
 20
55.883
 10
13.004
 20
55.847
 10
13.054
 20
55.804
 10
13.097
 20
55.754
 10
13.133
 20
55.7
 10
13.162
 20
55.641
 10
13.183
 20
55.579
 10
13.196
 20
55.515
 97
0
 75
0
 76
1
 98
0
  0
HATCH
  5
73
330
17
100
AcDbEntity
  8
RASTER
 62
7
100
AcDbHatch
 10
0.0
 20
0.0
 30
0.0
210
0.0
220
0.0
230
1.0
  2
SOLID
 70
1
 71
0
 91
1
 92
3
 72
0
 73
1
 93
48
 10
39.8
 20
55.45
 10
39.796
 20
55.385
 10
39.783
 20
55.321
 10
39.762
 20
55.259
 10
39.733
 20
55.2
 10
39.697
 20
55.146
 10
39.654
 20
55.096
 10
39.604
 20
55.053
 10
39.55
 20
55.017
 10
39.491
 20
54.988
 10
39.429
 20
54.967
 10
39.365
 20
54.954
 10
39.3
 20
54.95
 10
39.235
 20
54.954
 10
39.171
 20
54.967
 10
39.109
 20
54.988
 10
39.05
 20
55.017
 10
38.996
 20
55.053
 10
38.946
 20
55.096
 10
38.903
 20
55.146
 10
38.867
 20
55.2
 10
38.838
 20
55.259
 10
38.817
 20
55.321
 10
38.804
 20
55.385
 10
38.8
 20
55.45
 10
38.804
 20
55.515
 10
38.817
 20
55.579
 10
38.838
 20
55.641
 10
38.867
 20
55.7
 10
38.903
 20
55.754
 10
38.946
 20
55.804
 10
38.996
 20
55.847
 10
39.05
 20
55.883
 10
39.109
 20
55.912
 10
39.171
 20
55.933
 10
39.235
 20
55.946
 10
39.3
 20
55.95
 10
39.365
 20
55.946
 10
39.429
 20
55.933
 10
39.491
 20
55.912
 10
39.55
 20
55.883
 10
39.604
 20
55.847
 10
39.654
 20
55.804
 10
39.697
 20
55.754
 10
39.733
 20
55.7
 10
39.762
 20
55.641
 10
39.783
 20
55.579
 10
39.796
 20
55.515
 97
0
 75
0
 76
1
 98
0
  0
LWPOLYLINE
  5
74
330
17
100
AcDbEntity
  8
CUT
100
AcDbPolyline
 90
20
 70
1
 10
55.06
 20
68.04
 10
78.94
 20
68.04
 10
78.94
 20
63.073
 10
82.04
 20
63.073
 10
82.04
 20
58.027
 10
78.94
 20
58.027
 10
78.94
 20
53.06
 10
74.18
 20
53.06
 10
74.18
 20
49.96
 10
69.34
 20
49.96
 10
69.34
 20
53.06
 10
64.66
 20
53.06
 10
64.66
 20
49.96
 10
59.82
 20
49.96
 10
59.82
 20
53.06
 10
55.06
 20
53.06
 10
55.06
 20
58.027
 10
51.96
 20
58.027
 10
51.96
 20
63.073
 10
55.06
 20
63.073
  0
LWPOLYLINE
  5
75
330
17
100
AcDbEntity
  8
CUT
100
AcDbPolyline
 90
4
 70
1
 10
59.14
 20
63.76
 10
74.86
 20
63.76
 10
74.86
 20
62.44
 10
59.14
 20
62.44
  0
LWPOLYLINE
  5
76
330
17
100
AcDbEntity
  8
CUT
100
AcDbPolyline
 90
4
 70
1
 10
59.14
 20
58.66
 10
74.86
 20
58.66
 10
74.86
 20
57.34
 10
59.14
 20
57.34
  0
HATCH
  5
77
330
17
100
AcDbEntity
  8
RASTER
 62
7
100
AcDbHatch
 10
0.0
 20
0.0
 30
0.0
210
0.0
220
0.0
230
1.0
  2
SOLID
 70
1
 71
0
 91
1
 92
3
 72
0
 73
1
 93
4
 10
55.7
 20
67.6
 10
58.5
 20
67.6
 10
58.5
 20
53.5
 10
55.7
 20
53.5
 97
0
 75
0
 76
1
 98
0
  0
HATCH
  5
78
330
17
100
AcDbEntity
  8
RASTER
 62
7
100
AcDbHatch
 10
0.0
 20
0.0
 30
0.0
210
0.0
220
0.0
230
1.0
  2
SOLID
 70
1
 71
0
 91
1
 92
3
 72
0
 73
1
 93
4
 10
75.5
 20
67.6
 10
78.3
 20
67.6
 10
78.3
 20
53.5
 10
75.5
 20
53.5
 97
0
 75
0
 76
1
 98
0
  0
HATCH
  5
79
330
17
100
AcDbEntity
  8
RASTER
 62
7
100
AcDbHatch
 10
0.0
 20
0.0
 30
0.0
210
0.0
220
0.0
230
1.0
  2
SOLID
 70
1
 71
0
 91
1
 92
3
 72
0
 73
1
 93
48
 10
61.2
 20
65.65
 10
61.196
 20
65.585
 10
61.183
 20
65.521
 10
61.162
 20
65.459
 10
61.133
 20
65.4
 10
61.097
 20
65.346
 10
61.054
 20
65.296
 10
61.004
 20
65.253
 10
60.95
 20
65.217
 10
60.891
 20
65.188
 10
60.829
 20
65.167
 10
60.765
 20
65.154
 10
60.7
 20
65.15
 10
60.635
 20
65.154
 10
60.571
 20
65.167
 10
60.509
 20
65.188
 10
60.45
 20
65.217
 10
60.396
 20
65.253
 10
60.346
 20
65.296
 10
60.303
 20
65.346
 10
60.267
 20
65.4
 10
60.238
 20
65.459
 10
60.217
 20
65.521
 10
60.204
 20
65.585
 10
60.2
 20
65.65
 10
60.204
 20
65.715
 10
60.217
 20
65.779
 10
60.238
 20
65.841
 10
60.267
 20
65.9
 10
60.303
 20
65.954
 10
60.346
 20
66.004
 10
60.396
 20
66.047
 10
60.45
 20
66.083
 10
60.509
 20
66.112
 10
60.571
 20
66.133
 10
60.635
 20
66.146
 10
60.7
 20
66.15
 10
60.765
 20
66.146
 10
60.829
 20
66.133
 10
60.891
 20
66.112
 10
60.95
 20
66.083
 10
61.004
 20
66.047
 10
61.054
 20
66.004
 10
61.097
 20
65.954
 10
61.133
 20
65.9
 10
61.162
 20
65.841
 10
61.183
 20
65.779
 10
61.196
 20
65.715
 97
0
 75
0
 76
1
 98
0
  0
HATCH
  5
7A
330
17
100
AcDbEntity
  8
RASTER
 62
7
100
AcDbHatch
 10
0.0
 20
0.0
 30
0.0
210
0.0
220
0.0
230
1.0
  2
SOLID
 70
1
 71
0
 91
1
 92
3
 72
0
 73
1
 93
48
 10
73.8
 20
65.65
 10
73.796
 20
65.585
 10
73.783
 20
65.521
 10
73.762
 20
65.459
 10
73.733
 20
65.4
 10
73.697
 20
65.346
 10
73.654
 20
65.296
 10
73.604
 20
65.253
 10
73.55
 20
65.217
 10
73.491
 20
65.188
 10
73.429
 20
65.167
 10
73.365
 20
65.154
 10
73.3
 20
65.15
 10
73.235
 20
65.154
 10
73.171
 20
65.167
 10
73.109
 20
65.188
 10
73.05
 20
65.217
 10
72.996
 20
65.253
 10
72.946
 20
65.296
 10
72.903
 20
65.346
 10
72.867
 20
65.4
 10
72.838
 20
65.459
 10
72.817
 20
65.521
 10
72.804
 20
65.585
 10
72.8
 20
65.65
 10
72.804
 20
65.715
 10
72.817
 20
65.779
 10
72.838
 20
65.841
 10
72.867
 20
65.9
 10
72.903
 20
65.954
 10
72.946
 20
66.004
 10
72.996
 20
66.047
 10
73.05
 20
66.083
 10
73.109
 20
66.112
 10
73.171
 20
66.133
 10
73.235
 20
66.146
 10
73.3
 20
66.15
 10
73.365
 20
66.146
 10
73.429
 20
66.133
 10
73.491
 20
66.112
 10
73.55
 20
66.083
 10
73.604
 20
66.047
 10
73.654
 20
66.004
 10
73.697
 20
65.954
 10
73.733
 20
65.9
 10
73.762
 20
65.841
 10
73.783
 20
65.779
 10
73.796
 20
65.715
 97
0
 75
0
 76
1
 98
0
  0
HATCH
  5
7B
330
17
100
AcDbEntity
  8
RASTER
 62
7
100
AcDbHatch
 10
0.0
 20
0.0
 30
0.0
210
0.0
220
0.0
230
1.0
  2
SOLID
 70
1
 71
0
 91
1
 92
3
 72
0
 73
1
 93
48
 10
61.2
 20
60.55
 10
61.196
 20
60.485
 10
61.183
 20
60.421
 10
61.162
 20
60.359
 10
61.133
 20
60.3
 10
61.097
 20
60.246
 10
61.054
 20
60.196
 10
61.004
 20
60.153
 10
60.95
 20
60.117
 10
60.891
 20
60.088
 10
60.829
 20
60.067
 10
60.765
 20
60.054
 10
60.7
 20
60.05
 10
60.635
 20
60.054
 10
60.571
 20
60.067
 10
60.509
 20
60.088
 10
60.45
 20
60.117
 10
60.396
 20
60.153
 10
60.346
 20
60.196
 10
60.303
 20
60.246
 10
60.267
 20
60.3
 10
60.238
 20
60.359
 10
60.217
 20
60.421
 10
60.204
 20
60.485
 10
60.2
 20
60.55
 10
60.204
 20
60.615
 10
60.217
 20
60.679
 10
60.238
 20
60.741
 10
60.267
 20
60.8
 10
60.303
 20
60.854
 10
60.346
 20
60.904
 10
60.396
 20
60.947
 10
60.45
 20
60.983
 10
60.509
 20
61.012
 10
60.571
 20
61.033
 10
60.635
 20
61.046
 10
60.7
 20
61.05
 10
60.765
 20
61.046
 10
60.829
 20
61.033
 10
60.891
 20
61.012
 10
60.95
 20
60.983
 10
61.004
 20
60.947
 10
61.054
 20
60.904
 10
61.097
 20
60.854
 10
61.133
 20
60.8
 10
61.162
 20
60.741
 10
61.183
 20
60.679
 10
61.196
 20
60.615
 97
0
 75
0
 76
1
 98
0
  0
HATCH
  5
7C
330
17
100
AcDbEntity
  8
RASTER
 62
7
100
AcDbHatch
 10
0.0
 20
0.0
 30
0.0
210
0.0
220
0.0
230
1.0
  2
SOLID
 70
1
 71
0
 91
1
 92
3
 72
0
 73
1
 93
48
 10
73.8
 20
60.55
 10
73.796
 20
60.485
 10
73.783
 20
60.421
 10
73.762
 20
60.359
 10
73.733
 20
60.3
 10
73.697
 20
60.246
 10
73.654
 20
60.196
 10
73.604
 20
60.153
 10
73.55
 20
60.117
 10
73.491
 20
60.088
 10
73.429
 20
60.067
 10
73.365
 20
60.054
 10
73.3
 20
60.05
 10
73.235
 20
60.054
 10
73.171
 20
60.067
 10
73.109
 20
60.088
 10
73.05
 20
60.117
 10
72.996
 20
60.153
 10
72.946
 20
60.196
 10
72.903
 20
60.246
 10
72.867
 20
60.3
 10
72.838
 20
60.359
 10
72.817
 20
60.421
 10
72.804
 20
60.485
 10
72.8
 20
60.55
 10
72.804
 20
60.615
 10
72.817
 20
60.679
 10
72.838
 20
60.741
 10
72.867
 20
60.8
 10
72.903
 20
60.854
 10
72.946
 20
60.904
 10
72.996
 20
60.947
 10
73.05
 20
60.983
 10
73.109
 20
61.012
 10
73.171
 20
61.033
 10
73.235
 20
61.046
 10
73.3
 20
61.05
 10
73.365
 20
61.046
 10
73.429
 20
61.033
 10
73.491
 20
61.012
 10
73.55
 20
60.983
 10
73.604
 20
60.947
 10
73.654
 20
60.904
 10
73.697
 20
60.854
 10
73.733
 20
60.8
 10
73.762
 20
60.741
 10
73.783
 20
60.679
 10
73.796
 20
60.615
 97
0
 75
0
 76
1
 98
0
  0
HATCH
  5
7D
330
17
100
AcDbEntity
  8
RASTER
 62
7
100
AcDbHatch
 10
0.0
 20
0.0
 30
0.0
210
0.0
220
0.0
230
1.0
  2
SOLID
 70
1
 71
0
 91
1
 92
3
 72
0
 73
1
 93
48
 10
61.2
 20
55.45
 10
61.196
 20
55.385
 10
61.183
 20
55.321
 10
61.162
 20
55.259
 10
61.133
 20
55.2
 10
61.097
 20
55.146
 10
61.054
 20
55.096
 10
61.004
 20
55.053
 10
60.95
 20
55.017
 10
60.891
 20
54.988
 10
60.829
 20
54.967
 10
60.765
 20
54.954
 10
60.7
 20
54.95
 10
60.635
 20
54.954
 10
60.571
 20
54.967
 10
60.509
 20
54.988
 10
60.45
 20
55.017
 10
60.396
 20
55.053
 10
60.346
 20
55.096
 10
60.303
 20
55.146
 10
60.267
 20
55.2
 10
60.238
 20
55.259
 10
60.217
 20
55.321
 10
60.204
 20
55.385
 10
60.2
 20
55.45
 10
60.204
 20
55.515
 10
60.217
 20
55.579
 10
60.238
 20
55.641
 10
60.267
 20
55.7
 10
60.303
 20
55.754
 10
60.346
 20
55.804
 10
60.396
 20
55.847
 10
60.45
 20
55.883
 10
60.509
 20
55.912
 10
60.571
 20
55.933
 10
60.635
 20
55.946
 10
60.7
 20
55.95
 10
60.765
 20
55.946
 10
60.829
 20
55.933
 10
60.891
 20
55.912
 10
60.95
 20
55.883
 10
61.004
 20
55.847
 10
61.054
 20
55.804
 10
61.097
 20
55.754
 10
61.133
 20
55.7
 10
61.162
 20
55.641
 10
61.183
 20
55.579
 10
61.196
 20
55.515
 97
0
 75
0
 76
1
 98
0
  0
HATCH
  5
7E
330
17
100
AcDbEntity
  8
RASTER
 62
7
100
AcDbHatch
 10
0.0
 20
0.0
 30
0.0
210
0.0
220
0.0
230
1.0
  2
SOLID
 70
1
 71
0
 91
1
 92
3
 72
0
 73
1
 93
48
 10
73.8
 20
55.45
 10
73.796
 20
55.385
 10
73.783
 20
55.321
 10
73.762
 20
55.259
 10
73.733
 20
55.2
 10
73.697
 20
55.146
 10
73.654
 20
55.096
 10
73.604
 20
55.053
 10
73.55
 20
55.017
 10
73.491
 20
54.988
 10
73.429
 20
54.967
 10
73.365
 20
54.954
 10
73.3
 20
54.95
 10
73.235
 20
54.954
 10
73.171
 20
54.967
 10
73.109
 20
54.988
 10
73.05
 20
55.017
 10
72.996
 20
55.053
 10
72.946
 20
55.096
 10
72.903
 20
55.146
 10
72.867
 20
55.2
 10
72.838
 20
55.259
 10
72.817
 20
55.321
 10
72.804
 20
55.385
 10
72.8
 20
55.45
 10
72.804
 20
55.515
 10
72.817
 20
55.579
 10
72.838
 20
55.641
 10
72.867
 20
55.7
 10
72.903
 20
55.754
 10
72.946
 20
55.804
 10
72.996
 20
55.847
 10
73.05
 20
55.883
 10
73.109
 20
55.912
 10
73.171
 20
55.933
 10
73.235
 20
55.946
 10
73.3
 20
55.95
 10
73.365
 20
55.946
 10
73.429
 20
55.933
 10
73.491
 20
55.912
 10
73.55
 20
55.883
 10
73.604
 20
55.847
 10
73.654
 20
55.804
 10
73.697
 20
55.754
 10
73.733
 20
55.7
 10
73.762
 20
55.641
 10
73.783
 20
55.579
 10
73.796
 20
55.515
 97
0
 75
0
 76
1
 98
0
  0
LWPOLYLINE
  5
7F
330
17
100
AcDbEntity
  8
CUT
100
AcDbPolyline
 90
20
 70
1
 10
89.06
 20
68.04
 10
112.94
 20
68.04
 10
112.94
 20
63.073
 10
116.04
 20
63.073
 10
116.04
 20
58.027
 10
112.94
 20
58.027
 10
112.94
 20
53.06
 10
108.18
 20
53.06
 10
108.18
 20
49.96
 10
103.34
 20
49.96
 10
103.34
 20
53.06
 10
98.66
 20
53.06
 10
98.66
 20
49.96
 10
93.82
 20
49.96
 10
93.82
 20
53.06
 10
89.06
 20
53.06
 10
89.06
 20
58.027
 10
85.96
 20
58.027
 10
85.96
 20
63.073
 10
89.06
 20
63.073
  0
LWPOLYLINE
  5
80
330
17
100
AcDbEntity
  8
CUT
100
AcDbPolyline
 90
4
 70
1
 10
93.14
 20
63.76
 10
108.86
 20
63.76
 10
108.86
 20
62.44
 10
93.14
 20
62.44
  0
LWPOLYLINE
  5
81
330
17
100
AcDbEntity
  8
CUT
100
AcDbPolyline
 90
4
 70
1
 10
93.14
 20
58.66
 10
108.86
 20
58.66
 10
108.86
 20
57.34
 10
93.14
 20
57.34
  0
HATCH
  5
82
330
17
100
AcDbEntity
  8
RASTER
 62
7
100
AcDbHatch
 10
0.0
 20
0.0
 30
0.0
210
0.0
220
0.0
230
1.0
  2
SOLID
 70
1
 71
0
 91
1
 92
3
 72
0
 73
1
 93
4
 10
89.7
 20
67.6
 10
92.5
 20
67.6
 10
92.5
 20
53.5
 10
89.7
 20
53.5
 97
0
 75
0
 76
1
 98
0
  0
HATCH
  5
83
330
17
100
AcDbEntity
  8
RASTER
 62
7
100
AcDbHatch
 10
0.0
 20
0.0
 30
0.0
210
0.0
220
0.0
230
1.0
  2
SOLID
 70
1
 71
0
 91
1
 92
3
 72
0
 73
1
 93
4
 10
109.5
 20
67.6
 10
112.3
 20
67.6
 10
112.3
 20
53.5
 10
109.5
 20
53.5
 97
0
 75
0
 76
1
 98
0
  0
HATCH
  5
84
330
17
100
AcDbEntity
  8
RASTER
 62
7
100
AcDbHatch
 10
0.0
 20
0.0
 30
0.0
210
0.0
220
0.0
230
1.0
  2
SOLID
 70
1
 71
0
 91
1
 92
3
 72
0
 73
1
 93
48
 10
95.2
 20
65.65
 10
95.196
 20
65.585
 10
95.183
 20
65.521
 10
95.162
 20
65.459
 10
95.133
 20
65.4
 10
95.097
 20
65.346
 10
95.054
 20
65.296
 10
95.004
 20
65.253
 10
94.95
 20
65.217
 10
94.891
 20
65.188
 10
94.829
 20
65.167
 10
94.765
 20
65.154
 10
94.7
 20
65.15
 10
94.635
 20
65.154
 10
94.571
 20
65.167
 10
94.509
 20
65.188
 10
94.45
 20
65.217
 10
94.396
 20
65.253
 10
94.346
 20
65.296
 10
94.303
 20
65.346
 10
94.267
 20
65.4
 10
94.238
 20
65.459
 10
94.217
 20
65.521
 10
94.204
 20
65.585
 10
94.2
 20
65.65
 10
94.204
 20
65.715
 10
94.217
 20
65.779
 10
94.238
 20
65.841
 10
94.267
 20
65.9
 10
94.303
 20
65.954
 10
94.346
 20
66.004
 10
94.396
 20
66.047
 10
94.45
 20
66.083
 10
94.509
 20
66.112
 10
94.571
 20
66.133
 10
94.635
 20
66.146
 10
94.7
 20
66.15
 10
94.765
 20
66.146
 10
94.829
 20
66.133
 10
94.891
 20
66.112
 10
94.95
 20
66.083
 10
95.004
 20
66.047
 10
95.054
 20
66.004
 10
95.097
 20
65.954
 10
95.133
 20
65.9
 10
95.162
 20
65.841
 10
95.183
 20
65.779
 10
95.196
 20
65.715
 97
0
 75
0
 76
1
 98
0
  0
HATCH
  5
85
330
17
100
AcDbEntity
  8
RASTER
 62
7
100
AcDbHatch
 10
0.0
 20
0.0
 30
0.0
210
0.0
220
0.0
230
1.0
  2
SOLID
 70
1
 71
0
 91
1
 92
3
 72
0
 73
1
 93
48
 10
107.8
 20
65.65
 10
107.796
 20
65.585
 10
107.783
 20
65.521
 10
107.762
 20
65.459
 10
107.733
 20
65.4
 10
107.697
 20
65.346
 10
107.654
 20
65.296
 10
107.604
 20
65.253
 10
107.55
 20
65.217
 10
107.491
 20
65.188
 10
107.429
 20
65.167
 10
107.365
 20
65.154
 10
107.3
 20
65.15
 10
107.235
 20
65.154
 10
107.171
 20
65.167
 10
107.109
 20
65.188
 10
107.05
 20
65.217
 10
106.996
 20
65.253
 10
106.946
 20
65.296
 10
106.903
 20
65.346
 10
106.867
 20
65.4
 10
106.838
 20
65.459
 10
106.817
 20
65.521
 10
106.804
 20
65.585
 10
106.8
 20
65.65
 10
106.804
 20
65.715
 10
106.817
 20
65.779
 10
106.838
 20
65.841
 10
106.867
 20
65.9
 10
106.903
 20
65.954
 10
106.946
 20
66.004
 10
106.996
 20
66.047
 10
107.05
 20
66.083
 10
107.109
 20
66.112
 10
107.171
 20
66.133
 10
107.235
 20
66.146
 10
107.3
 20
66.15
 10
107.365
 20
66.146
 10
107.429
 20
66.133
 10
107.491
 20
66.112
 10
107.55
 20
66.083
 10
107.604
 20
66.047
 10
107.654
 20
66.004
 10
107.697
 20
65.954
 10
107.733
 20
65.9
 10
107.762
 20
65.841
 10
107.783
 20
65.779
 10
107.796
 20
65.715
 97
0
 75
0
 76
1
 98
0
  0
HATCH
  5
86
330
17
100
AcDbEntity
  8
RASTER
 62
7
100
AcDbHatch
 10
0.0
 20
0.0
 30
0.0
210
0.0
220
0.0
230
1.0
  2
SOLID
 70
1
 71
0
 91
1
 92
3
 72
0
 73
1
 93
48
 10
95.2
 20
60.55
 10
95.196
 20
60.485
 10
95.183
 20
60.421
 10
95.162
 20
60.359
 10
95.133
 20
60.3
 10
95.097
 20
60.246
 10
95.054
 20
60.196
 10
95.004
 20
60.153
 10
94.95
 20
60.117
 10
94.891
 20
60.088
 10
94.829
 20
60.067
 10
94.765
 20
60.054
 10
94.7
 20
60.05
 10
94.635
 20
60.054
 10
94.571
 20
60.067
 10
94.509
 20
60.088
 10
94.45
 20
60.117
 10
94.396
 20
60.153
 10
94.346
 20
60.196
 10
94.303
 20
60.246
 10
94.267
 20
60.3
 10
94.238
 20
60.359
 10
94.217
 20
60.421
 10
94.204
 20
60.485
 10
94.2
 20
60.55
 10
94.204
 20
60.615
 10
94.217
 20
60.679
 10
94.238
 20
60.741
 10
94.267
 20
60.8
 10
94.303
 20
60.854
 10
94.346
 20
60.904
 10
94.396
 20
60.947
 10
94.45
 20
60.983
 10
94.509
 20
61.012
 10
94.571
 20
61.033
 10
94.635
 20
61.046
 10
94.7
 20
61.05
 10
94.765
 20
61.046
 10
94.829
 20
61.033
 10
94.891
 20
61.012
 10
94.95
 20
60.983
 10
95.004
 20
60.947
 10
95.054
 20
60.904
 10
95.097
 20
60.854
 10
95.133
 20
60.8
 10
95.162
 20
60.741
 10
95.183
 20
60.679
 10
95.196
 20
60.615
 97
0
 75
0
 76
1
 98
0
  0
HATCH
  5
87
330
17
100
AcDbEntity
  8
RASTER
 62
7
100
AcDbHatch
 10
0.0
 20
0.0
 30
0.0
210
0.0
220
0.0
230
1.0
  2
SOLID
 70
1
 71
0
 91
1
 92
3
 72
0
 73
1
 93
48
 10
107.8
 20
60.55
 10
107.796
 20
60.485
 10
107.783
 20
60.421
 10
107.762
 20
60.359
 10
107.733
 20
60.3
 10
107.697
 20
60.246
 10
107.654
 20
60.196
 10
107.604
 20
60.153
 10
107.55
 20
60.117
 10
107.491
 20
60.088
 10
107.429
 20
60.067
 10
107.365
 20
60.054
 10
107.3
 20
60.05
 10
107.235
 20
60.054
 10
107.171
 20
60.067
 10
107.109
 20
60.088
 10
107.05
 20
60.117
 10
106.996
 20
60.153
 10
106.946
 20
60.196
 10
106.903
 20
60.246
 10
106.867
 20
60.3
 10
106.838
 20
60.359
 10
106.817
 20
60.421
 10
106.804
 20
60.485
 10
106.8
 20
60.55
 10
106.804
 20
60.615
 10
106.817
 20
60.679
 10
106.838
 20
60.741
 10
106.867
 20
60.8
 10
106.903
 20
60.854
 10
106.946
 20
60.904
 10
106.996
 20
60.947
 10
107.05
 20
60.983
 10
107.109
 20
61.012
 10
107.171
 20
61.033
 10
107.235
 20
61.046
 10
107.3
 20
61.05
 10
107.365
 20
61.046
 10
107.429
 20
61.033
 10
107.491
 20
61.012
 10
107.55
 20
60.983
 10
107.604
 20
60.947
 10
107.654
 20
60.904
 10
107.697
 20
60.854
 10
107.733
 20
60.8
 10
107.762
 20
60.741
 10
107.783
 20
60.679
 10
107.796
 20
60.615
 97
0
 75
0
 76
1
 98
0
  0
HATCH
  5
88
330
17
100
AcDbEntity
  8
RASTER
 62
7
100
AcDbHatch
 10
0.0
 20
0.0
 30
0.0
210
0.0
220
0.0
230
1.0
  2
SOLID
 70
1
 71
0
 91
1
 92
3
 72
0
 73
1
 93
48
 10
95.2
 20
55.45
 10
95.196
 20
55.385
 10
95.183
 20
55.321
 10
95.162
 20
55.259
 10
95.133
 20
55.2
 10
95.097
 20
55.146
 10
95.054
 20
55.096
 10
95.004
 20
55.053
 10
94.95
 20
55.017
 10
94.891
 20
54.988
 10
94.829
 20
54.967
 10
94.765
 20
54.954
 10
94.7
 20
54.95
 10
94.635
 20
54.954
 10
94.571
 20
54.967
 10
94.509
 20
54.988
 10
94.45
 20
55.017
 10
94.396
 20
55.053
 10
94.346
 20
55.096
 10
94.303
 20
55.146
 10
94.267
 20
55.2
 10
94.238
 20
55.259
 10
94.217
 20
55.321
 10
94.204
 20
55.385
 10
94.2
 20
55.45
 10
94.204
 20
55.515
 10
94.217
 20
55.579
 10
94.238
 20
55.641
 10
94.267
 20
55.7
 10
94.303
 20
55.754
 10
94.346
 20
55.804
 10
94.396
 20
55.847
 10
94.45
 20
55.883
 10
94.509
 20
55.912
 10
94.571
 20
55.933
 10
94.635
 20
55.946
 10
94.7
 20
55.95
 10
94.765
 20
55.946
 10
94.829
 20
55.933
 10
94.891
 20
55.912
 10
94.95
 20
55.883
 10
95.004
 20
55.847
 10
95.054
 20
55.804
 10
95.097
 20
55.754
 10
95.133
 20
55.7
 10
95.162
 20
55.641
 10
95.183
 20
55.579
 10
95.196
 20
55.515
 97
0
 75
0
 76
1
 98
0
  0
HATCH
  5
89
330
17
100
AcDbEntity
  8
RASTER
 62
7
100
AcDbHatch
 10
0.0
 20
0.0
 30
0.0
210
0.0
220
0.0
230
1.0
  2
SOLID
 70
1
 71
0
 91
1
 92
3
 72
0
 73
1
 93
48
 10
107.8
 20
55.45
 10
107.796
 20
55.385
 10
107.783
 20
55.321
 10
107.762
 20
55.259
 10
107.733
 20
55.2
 10
107.697
 20
55.146
 10
107.654
 20
55.096
 10
107.604
 20
55.053
 10
107.55
 20
55.017
 10
107.491
 20
54.988
 10
107.429
 20
54.967
 10
107.365
 20
54.954
 10
107.3
 20
54.95
 10
107.235
 20
54.954
 10
107.171
 20
54.967
 10
107.109
 20
54.988
 10
107.05
 20
55.017
 10
106.996
 20
55.053
 10
106.946
 20
55.096
 10
106.903
 20
55.146
 10
106.867
 20
55.2
 10
106.838
 20
55.259
 10
106.817
 20
55.321
 10
106.804
 20
55.385
 10
106.8
 20
55.45
 10
106.804
 20
55.515
 10
106.817
 20
55.579
 10
106.838
 20
55.641
 10
106.867
 20
55.7
 10
106.903
 20
55.754
 10
106.946
 20
55.804
 10
106.996
 20
55.847
 10
107.05
 20
55.883
 10
107.109
 20
55.912
 10
107.171
 20
55.933
 10
107.235
 20
55.946
 10
107.3
 20
55.95
 10
107.365
 20
55.946
 10
107.429
 20
55.933
 10
107.491
 20
55.912
 10
107.55
 20
55.883
 10
107.604
 20
55.847
 10
107.654
 20
55.804
 10
107.697
 20
55.754
 10
107.733
 20
55.7
 10
107.762
 20
55.641
 10
107.783
 20
55.579
 10
107.796
 20
55.515
 97
0
 75
0
 76
1
 98
0
  0
LWPOLYLINE
  5
8A
330
17
100
AcDbEntity
  8
CUT
100
AcDbPolyline
 90
52
 70
1
 10
119.96
 20
68.04
 10
123.1
 20
68.04
 10
128.54
 20
68.04
 10
128.54
 20
64.94
 10
133.86
 20
64.94
 10
133.86
 20
68.04
 10
139.34
 20
68.04
 10
139.34
 20
64.94
 10
144.66
 20
64.94
 10
144.66
 20
68.04
 10
150.14
 20
68.04
 10
150.14
 20
64.94
 10
155.46
 20
64.94
 10
155.46
 20
68.04
 10
160.9
 20
68.04
 10
164.04
 20
68.04
 10
164.04
 20
64.9
 10
164.04
 20
60.1
 10
160.94
 20
60.1
 10
160.94
 20
55.42
 10
164.04
 20
55.42
 10
164.04
 20
50.58
 10
160.94
 20
50.58
 10
160.94
 20
45.9
 10
164.04
 20
45.9
 10
164.04
 20
41.1
 10
164.04
 20
37.96
 10
160.9
 20
37.96
 10
155.46
 20
37.96
 10
155.46
 20
41.06
 10
150.14
 20
41.06
 10
150.14
 20
37.96
 10
144.66
 20
37.96
 10
144.66
 20
41.06
 10
139.34
 20
41.06
 10
139.34
 20
37.96
 10
133.86
 20
37.96
 10
133.86
 20
41.06
 10
128.54
 20
41.06
 10
128.54
 20
37.96
 10
123.1
 20
37.96
 10
119.96
 20
37.96
 10
119.96
 20
41.1
 10
119.96
 20
45.9
 10
123.06
 20
45.9
 10
123.06
 20
50.58
 10
119.96
 20
50.58
 10
119.96
 20
55.42
 10
123.06
 20
55.42
 10
123.06
 20
60.1
 10
119.96
 20
60.1
 10
119.96
 20
64.9
  0
LWPOLYLINE
  5
8B
330
17
100
AcDbEntity
  8
CUT
100
AcDbPolyline
 90
28
 70
1
 10
171.1
 20
68.04
 10
208.9
 20
68.04
 10
212.04
 20
68.04
 10
212.04
 20
62.993
 10
208.94
 20
62.993
 10
208.94
 20
58.107
 10
212.04
 20
58.107
 10
212.04
 20
53.06
 10
208.9
 20
53.06
 10
203.54
 20
53.06
 10
203.54
 20
49.96
 10
198.06
 20
49.96
 10
198.06
 20
53.06
 10
192.74
 20
53.06
 10
192.74
 20
49.96
 10
187.26
 20
49.96
 10
187.26
 20
53.06
 10
181.94
 20
53.06
 10
181.94
 20
49.96
 10
176.46
 20
49.96
 10
176.46
 20
53.06
 10
171.1
 20
53.06
 10
167.96
 20
53.06
 10
167.96
 20
58.107
 10
171.06
 20
58.107
 10
171.06
 20
62.993
 10
167.96
 20
62.993
 10
167.96
 20
68.04
  0
LWPOLYLINE
  5
8C
330
17
100
AcDbEntity
  8
CUT
100
AcDbPolyline
 90
4
 70
1
 10
175.14
 20
63.76
 10
204.86
 20
63.76
 10
204.86
 20
62.44
 10
175.14
 20
62.44
  0
LWPOLYLINE
  5
8D
330
17
100
AcDbEntity
  8
CUT
100
AcDbPolyline
 90
4
 70
1
 10
175.14
 20
58.66
 10
204.86
 20
58.66
 10
204.86
 20
57.34
 10
175.14
 20
57.34
  0
HATCH
  5
8E
330
17
100
AcDbEntity
  8
RASTER
 62
7
100
AcDbHatch
 10
0.0
 20
0.0
 30
0.0
210
0.0
220
0.0
230
1.0
  2
SOLID
 70
1
 71
0
 91
1
 92
3
 72
0
 73
1
 93
4
 10
171.7
 20
67.6
 10
174.5
 20
67.6
 10
174.5
 20
53.5
 10
171.7
 20
53.5
 97
0
 75
0
 76
1
 98
0
  0
HATCH
  5
8F
330
17
100
AcDbEntity
  8
RASTER
 62
7
100
AcDbHatch
 10
0.0
 20
0.0
 30
0.0
210
0.0
220
0.0
230
1.0
  2
SOLID
 70
1
 71
0
 91
1
 92
3
 72
0
 73
1
 93
4
 10
205.5
 20
67.6
 10
208.3
 20
67.6
 10
208.3
 20
53.5
 10
205.5
 20
53.5
 97
0
 75
0
 76
1
 98
0
  0
HATCH
  5
90
330
17
100
AcDbEntity
  8
RASTER
 62
7
100
AcDbHatch
 10
0.0
 20
0.0
 30
0.0
210
0.0
220
0.0
230
1.0
  2
SOLID
 70
1
 71
0
 91
1
 92
3
 72
0
 73
1
 93
48
 10
177.2
 20
65.65
 10
177.196
 20
65.585
 10
177.183
 20
65.521
 10
177.162
 20
65.459
 10
177.133
 20
65.4
 10
177.097
 20
65.346
 10
177.054
 20
65.296
 10
177.004
 20
65.253
 10
176.95
 20
65.217
 10
176.891
 20
65.188
 10
176.829
 20
65.167
 10
176.765
 20
65.154
 10
176.7
 20
65.15
 10
176.635
 20
65.154
 10
176.571
 20
65.167
 10
176.509
 20
65.188
 10
176.45
 20
65.217
 10
176.396
 20
65.253
 10
176.346
 20
65.296
 10
176.303
 20
65.346
 10
176.267
 20
65.4
 10
176.238
 20
65.459
 10
176.217
 20
65.521
 10
176.204
 20
65.585
 10
176.2
 20
65.65
 10
176.204
 20
65.715
 10
176.217
 20
65.779
 10
176.238
 20
65.841
 10
176.267
 20
65.9
 10
176.303
 20
65.954
 10
176.346
 20
66.004
 10
176.396
 20
66.047
 10
176.45
 20
66.083
 10
176.509
 20
66.112
 10
176.571
 20
66.133
 10
176.635
 20
66.146
 10
176.7
 20
66.15
 10
176.765
 20
66.146
 10
176.829
 20
66.133
 10
176.891
 20
66.112
 10
176.95
 20
66.083
 10
177.004
 20
66.047
 10
177.054
 20
66.004
 10
177.097
 20
65.954
 10
177.133
 20
65.9
 10
177.162
 20
65.841
 10
177.183
 20
65.779
 10
177.196
 20
65.715
 97
0
 75
0
 76
1
 98
0
  0
HATCH
  5
91
330
17
100
AcDbEntity
  8
RASTER
 62
7
100
AcDbHatch
 10
0.0
 20
0.0
 30
0.0
210
0.0
220
0.0
230
1.0
  2
SOLID
 70
1
 71
0
 91
1
 92
3
 72
0
 73
1
 93
48
 10
203.8
 20
65.65
 10
203.796
 20
65.585
 10
203.783
 20
65.521
 10
203.762
 20
65.459
 10
203.733
 20
65.4
 10
203.697
 20
65.346
 10
203.654
 20
65.296
 10
203.604
 20
65.253
 10
203.55
 20
65.217
 10
203.491
 20
65.188
 10
203.429
 20
65.167
 10
203.365
 20
65.154
 10
203.3
 20
65.15
 10
203.235
 20
65.154
 10
203.171
 20
65.167
 10
203.109
 20
65.188
 10
203.05
 20
65.217
 10
202.996
 20
65.253
 10
202.946
 20
65.296
 10
202.903
 20
65.346
 10
202.867
 20
65.4
 10
202.838
 20
65.459
 10
202.817
 20
65.521
 10
202.804
 20
65.585
 10
202.8
 20
65.65
 10
202.804
 20
65.715
 10
202.817
 20
65.779
 10
202.838
 20
65.841
 10
202.867
 20
65.9
 10
202.903
 20
65.954
 10
202.946
 20
66.004
 10
202.996
 20
66.047
 10
203.05
 20
66.083
 10
203.109
 20
66.112
 10
203.171
 20
66.133
 10
203.235
 20
66.146
 10
203.3
 20
66.15
 10
203.365
 20
66.146
 10
203.429
 20
66.133
 10
203.491
 20
66.112
 10
203.55
 20
66.083
 10
203.604
 20
66.047
 10
203.654
 20
66.004
 10
203.697
 20
65.954
 10
203.733
 20
65.9
 10
203.762
 20
65.841
 10
203.783
 20
65.779
 10
203.796
 20
65.715
 97
0
 75
0
 76
1
 98
0
  0
HATCH
  5
92
330
17
100
AcDbEntity
  8
RASTER
 62
7
100
AcDbHatch
 10
0.0
 20
0.0
 30
0.0
210
0.0
220
0.0
230
1.0
  2
SOLID
 70
1
 71
0
 91
1
 92
3
 72
0
 73
1
 93
48
 10
177.2
 20
60.55
 10
177.196
 20
60.485
 10
177.183
 20
60.421
 10
177.162
 20
60.359
 10
177.133
 20
60.3
 10
177.097
 20
60.246
 10
177.054
 20
60.196
 10
177.004
 20
60.153
 10
176.95
 20
60.117
 10
176.891
 20
60.088
 10
176.829
 20
60.067
 10
176.765
 20
60.054
 10
176.7
 20
60.05
 10
176.635
 20
60.054
 10
176.571
 20
60.067
 10
176.509
 20
60.088
 10
176.45
 20
60.117
 10
176.396
 20
60.153
 10
176.346
 20
60.196
 10
176.303
 20
60.246
 10
176.267
 20
60.3
 10
176.238
 20
60.359
 10
176.217
 20
60.421
 10
176.204
 20
60.485
 10
176.2
 20
60.55
 10
176.204
 20
60.615
 10
176.217
 20
60.679
 10
176.238
 20
60.741
 10
176.267
 20
60.8
 10
176.303
 20
60.854
 10
176.346
 20
60.904
 10
176.396
 20
60.947
 10
176.45
 20
60.983
 10
176.509
 20
61.012
 10
176.571
 20
61.033
 10
176.635
 20
61.046
 10
176.7
 20
61.05
 10
176.765
 20
61.046
 10
176.829
 20
61.033
 10
176.891
 20
61.012
 10
176.95
 20
60.983
 10
177.004
 20
60.947
 10
177.054
 20
60.904
 10
177.097
 20
60.854
 10
177.133
 20
60.8
 10
177.162
 20
60.741
 10
177.183
 20
60.679
 10
177.196
 20
60.615
 97
0
 75
0
 76
1
 98
0
  0
HATCH
  5
93
330
17
100
AcDbEntity
  8
RASTER
 62
7
100
AcDbHatch
 10
0.0
 20
0.0
 30
0.0
210
0.0
220
0.0
230
1.0
  2
SOLID
 70
1
 71
0
 91
1
 92
3
 72
0
 73
1
 93
48
 10
203.8
 20
60.55
 10
203.796
 20
60.485
 10
203.783
 20
60.421
 10
203.762
 20
60.359
 10
203.733
 20
60.3
 10
203.697
 20
60.246
 10
203.654
 20
60.196
 10
203.604
 20
60.153
 10
203.55
 20
60.117
 10
203.491
 20
60.088
 10
203.429
 20
60.067
 10
203.365
 20
60.054
 10
203.3
 20
60.05
 10
203.235
 20
60.054
 10
203.171
 20
60.067
 10
203.109
 20
60.088
 10
203.05
 20
60.117
 10
202.996
 20
60.153
 10
202.946
 20
60.196
 10
202.903
 20
60.246
 10
202.867
 20
60.3
 10
202.838
 20
60.359
 10
202.817
 20
60.421
 10
202.804
 20
60.485
 10
202.8
 20
60.55
 10
202.804
 20
60.615
 10
202.817
 20
60.679
 10
202.838
 20
60.741
 10
202.867
 20
60.8
 10
202.903
 20
60.854
 10
202.946
 20
60.904
 10
202.996
 20
60.947
 10
203.05
 20
60.983
 10
203.109
 20
61.012
 10
203.171
 20
61.033
 10
203.235
 20
61.046
 10
203.3
 20
61.05
 10
203.365
 20
61.046
 10
203.429
 20
61.033
 10
203.491
 20
61.012
 10
203.55
 20
60.983
 10
203.604
 20
60.947
 10
203.654
 20
60.904
 10
203.697
 20
60.854
 10
203.733
 20
60.8
 10
203.762
 20
60.741
 10
203.783
 20
60.679
 10
203.796
 20
60.615
 97
0
 75
0
 76
1
 98
0
  0
HATCH
  5
94
330
17
100
AcDbEntity
  8
RASTER
 62
7
100
AcDbHatch
 10
0.0
 20
0.0
 30
0.0
210
0.0
220
0.0
230
1.0
  2
SOLID
 70
1
 71
0
 91
1
 92
3
 72
0
 73
1
 93
48
 10
177.2
 20
55.45
 10
177.196
 20
55.385
 10
177.183
 20
55.321
 10
177.162
 20
55.259
 10
177.133
 20
55.2
 10
177.097
 20
55.146
 10
177.054
 20
55.096
 10
177.004
 20
55.053
 10
176.95
 20
55.017
 10
176.891
 20
54.988
 10
176.829
 20
54.967
 10
176.765
 20
54.954
 10
176.7
 20
54.95
 10
176.635
 20
54.954
 10
176.571
 20
54.967
 10
176.509
 20
54.988
 10
176.45
 20
55.017
 10
176.396
 20
55.053
 10
176.346
 20
55.096
 10
176.303
 20
55.146
 10
176.267
 20
55.2
 10
176.238
 20
55.259
 10
176.217
 20
55.321
 10
176.204
 20
55.385
 10
176.2
 20
55.45
 10
176.204
 20
55.515
 10
176.217
 20
55.579
 10
176.238
 20
55.641
 10
176.267
 20
55.7
 10
176.303
 20
55.754
 10
176.346
 20
55.804
 10
176.396
 20
55.847
 10
176.45
 20
55.883
 10
176.509
 20
55.912
 10
176.571
 20
55.933
 10
176.635
 20
55.946
 10
176.7
 20
55.95
 10
176.765
 20
55.946
 10
176.829
 20
55.933
 10
176.891
 20
55.912
 10
176.95
 20
55.883
 10
177.004
 20
55.847
 10
177.054
 20
55.804
 10
177.097
 20
55.754
 10
177.133
 20
55.7
 10
177.162
 20
55.641
 10
177.183
 20
55.579
 10
177.196
 20
55.515
 97
0
 75
0
 76
1
 98
0
  0
HATCH
  5
95
330
17
100
AcDbEntity
  8
RASTER
 62
7
100
AcDbHatch
 10
0.0
 20
0.0
 30
0.0
210
0.0
220
0.0
230
1.0
  2
SOLID
 70
1
 71
0
 91
1
 92
3
 72
0
 73
1
 93
48
 10
203.8
 20
55.45
 10
203.796
 20
55.385
 10
203.783
 20
55.321
 10
203.762
 20
55.259
 10
203.733
 20
55.2
 10
203.697
 20
55.146
 10
203.654
 20
55.096
 10
203.604
 20
55.053
 10
203.55
 20
55.017
 10
203.491
 20
54.988
 10
203.429
 20
54.967
 10
203.365
 20
54.954
 10
203.3
 20
54.95
 10
203.235
 20
54.954
 10
203.171
 20
54.967
 10
203.109
 20
54.988
 10
203.05
 20
55.017
 10
202.996
 20
55.053
 10
202.946
 20
55.096
 10
202.903
 20
55.146
 10
202.867
 20
55.2
 10
202.838
 20
55.259
 10
202.817
 20
55.321
 10
202.804
 20
55.385
 10
202.8
 20
55.45
 10
202.804
 20
55.515
 10
202.817
 20
55.579
 10
202.838
 20
55.641
 10
202.867
 20
55.7
 10
202.903
 20
55.754
 10
202.946
 20
55.804
 10
202.996
 20
55.847
 10
203.05
 20
55.883
 10
203.109
 20
55.912
 10
203.171
 20
55.933
 10
203.235
 20
55.946
 10
203.3
 20
55.95
 10
203.365
 20
55.946
 10
203.429
 20
55.933
 10
203.491
 20
55.912
 10
203.55
 20
55.883
 10
203.604
 20
55.847
 10
203.654
 20
55.804
 10
203.697
 20
55.754
 10
203.733
 20
55.7
 10
203.762
 20
55.641
 10
203.783
 20
55.579
 10
203.796
 20
55.515
 97
0
 75
0
 76
1
 98
0
  0
LWPOLYLINE
  5
96
330
17
100
AcDbEntity
  8
CUT
100
AcDbPolyline
 90
28
 70
1
 10
219.1
 20
68.04
 10
256.9
 20
68.04
 10
260.04
 20
68.04
 10
260.04
 20
62.993
 10
256.94
 20
62.993
 10
256.94
 20
58.107
 10
260.04
 20
58.107
 10
260.04
 20
53.06
 10
256.9
 20
53.06
 10
251.54
 20
53.06
 10
251.54
 20
49.96
 10
246.06
 20
49.96
 10
246.06
 20
53.06
 10
240.74
 20
53.06
 10
240.74
 20
49.96
 10
235.26
 20
49.96
 10
235.26
 20
53.06
 10
229.94
 20
53.06
 10
229.94
 20
49.96
 10
224.46
 20
49.96
 10
224.46
 20
53.06
 10
219.1
 20
53.06
 10
215.96
 20
53.06
 10
215.96
 20
58.107
 10
219.06
 20
58.107
 10
219.06
 20
62.993
 10
215.96
 20
62.993
 10
215.96
 20
68.04
  0
LWPOLYLINE
  5
97
330
17
100
AcDbEntity
  8
CUT
100
AcDbPolyline
 90
4
 70
1
 10
223.14
 20
63.76
 10
252.86
 20
63.76
 10
252.86
 20
62.44
 10
223.14
 20
62.44
  0
LWPOLYLINE
  5
98
330
17
100
AcDbEntity
  8
CUT
100
AcDbPolyline
 90
4
 70
1
 10
223.14
 20
58.66
 10
252.86
 20
58.66
 10
252.86
 20
57.34
 10
223.14
 20
57.34
  0
HATCH
  5
99
330
17
100
AcDbEntity
  8
RASTER
 62
7
100
AcDbHatch
 10
0.0
 20
0.0
 30
0.0
210
0.0
220
0.0
230
1.0
  2
SOLID
 70
1
 71
0
 91
1
 92
3
 72
0
 73
1
 93
4
 10
219.7
 20
67.6
 10
222.5
 20
67.6
 10
222.5
 20
53.5
 10
219.7
 20
53.5
 97
0
 75
0
 76
1
 98
0
  0
HATCH
  5
9A
330
17
100
AcDbEntity
  8
RASTER
 62
7
100
AcDbHatch
 10
0.0
 20
0.0
 30
0.0
210
0.0
220
0.0
230
1.0
  2
SOLID
 70
1
 71
0
 91
1
 92
3
 72
0
 73
1
 93
4
 10
253.5
 20
67.6
 10
256.3
 20
67.6
 10
256.3
 20
53.5
 10
253.5
 20
53.5
 97
0
 75
0
 76
1
 98
0
  0
HATCH
  5
9B
330
17
100
AcDbEntity
  8
RASTER
 62
7
100
AcDbHatch
 10
0.0
 20
0.0
 30
0.0
210
0.0
220
0.0
230
1.0
  2
SOLID
 70
1
 71
0
 91
1
 92
3
 72
0
 73
1
 93
48
 10
225.2
 20
65.65
 10
225.196
 20
65.585
 10
225.183
 20
65.521
 10
225.162
 20
65.459
 10
225.133
 20
65.4
 10
225.097
 20
65.346
 10
225.054
 20
65.296
 10
225.004
 20
65.253
 10
224.95
 20
65.217
 10
224.891
 20
65.188
 10
224.829
 20
65.167
 10
224.765
 20
65.154
 10
224.7
 20
65.15
 10
224.635
 20
65.154
 10
224.571
 20
65.167
 10
224.509
 20
65.188
 10
224.45
 20
65.217
 10
224.396
 20
65.253
 10
224.346
 20
65.296
 10
224.303
 20
65.346
 10
224.267
 20
65.4
 10
224.238
 20
65.459
 10
224.217
 20
65.521
 10
224.204
 20
65.585
 10
224.2
 20
65.65
 10
224.204
 20
65.715
 10
224.217
 20
65.779
 10
224.238
 20
65.841
 10
224.267
 20
65.9
 10
224.303
 20
65.954
 10
224.346
 20
66.004
 10
224.396
 20
66.047
 10
224.45
 20
66.083
 10
224.509
 20
66.112
 10
224.571
 20
66.133
 10
224.635
 20
66.146
 10
224.7
 20
66.15
 10
224.765
 20
66.146
 10
224.829
 20
66.133
 10
224.891
 20
66.112
 10
224.95
 20
66.083
 10
225.004
 20
66.047
 10
225.054
 20
66.004
 10
225.097
 20
65.954
 10
225.133
 20
65.9
 10
225.162
 20
65.841
 10
225.183
 20
65.779
 10
225.196
 20
65.715
 97
0
 75
0
 76
1
 98
0
  0
HATCH
  5
9C
330
17
100
AcDbEntity
  8
RASTER
 62
7
100
AcDbHatch
 10
0.0
 20
0.0
 30
0.0
210
0.0
220
0.0
230
1.0
  2
SOLID
 70
1
 71
0
 91
1
 92
3
 72
0
 73
1
 93
48
 10
251.8
 20
65.65
 10
251.796
 20
65.585
 10
251.783
 20
65.521
 10
251.762
 20
65.459
 10
251.733
 20
65.4
 10
251.697
 20
65.346
 10
251.654
 20
65.296
 10
251.604
 20
65.253
 10
251.55
 20
65.217
 10
251.491
 20
65.188
 10
251.429
 20
65.167
 10
251.365
 20
65.154
 10
251.3
 20
65.15
 10
251.235
 20
65.154
 10
251.171
 20
65.167
 10
251.109
 20
65.188
 10
251.05
 20
65.217
 10
250.996
 20
65.253
 10
250.946
 20
65.296
 10
250.903
 20
65.346
 10
250.867
 20
65.4
 10
250.838
 20
65.459
 10
250.817
 20
65.521
 10
250.804
 20
65.585
 10
250.8
 20
65.65
 10
250.804
 20
65.715
 10
250.817
 20
65.779
 10
250.838
 20
65.841
 10
250.867
 20
65.9
 10
250.903
 20
65.954
 10
250.946
 20
66.004
 10
250.996
 20
66.047
 10
251.05
 20
66.083
 10
251.109
 20
66.112
 10
251.171
 20
66.133
 10
251.235
 20
66.146
 10
251.3
 20
66.15
 10
251.365
 20
66.146
 10
251.429
 20
66.133
 10
251.491
 20
66.112
 10
251.55
 20
66.083
 10
251.604
 20
66.047
 10
251.654
 20
66.004
 10
251.697
 20
65.954
 10
251.733
 20
65.9
 10
251.762
 20
65.841
 10
251.783
 20
65.779
 10
251.796
 20
65.715
 97
0
 75
0
 76
1
 98
0
  0
HATCH
  5
9D
330
17
100
AcDbEntity
  8
RASTER
 62
7
100
AcDbHatch
 10
0.0
 20
0.0
 30
0.0
210
0.0
220
0.0
230
1.0
  2
SOLID
 70
1
 71
0
 91
1
 92
3
 72
0
 73
1
 93
48
 10
225.2
 20
60.55
 10
225.196
 20
60.485
 10
225.183
 20
60.421
 10
225.162
 20
60.359
 10
225.133
 20
60.3
 10
225.097
 20
60.246
 10
225.054
 20
60.196
 10
225.004
 20
60.153
 10
224.95
 20
60.117
 10
224.891
 20
60.088
 10
224.829
 20
60.067
 10
224.765
 20
60.054
 10
224.7
 20
60.05
 10
224.635
 20
60.054
 10
224.571
 20
60.067
 10
224.509
 20
60.088
 10
224.45
 20
60.117
 10
224.396
 20
60.153
 10
224.346
 20
60.196
 10
224.303
 20
60.246
 10
224.267
 20
60.3
 10
224.238
 20
60.359
 10
224.217
 20
60.421
 10
224.204
 20
60.485
 10
224.2
 20
60.55
 10
224.204
 20
60.615
 10
224.217
 20
60.679
 10
224.238
 20
60.741
 10
224.267
 20
60.8
 10
224.303
 20
60.854
 10
224.346
 20
60.904
 10
224.396
 20
60.947
 10
224.45
 20
60.983
 10
224.509
 20
61.012
 10
224.571
 20
61.033
 10
224.635
 20
61.046
 10
224.7
 20
61.05
 10
224.765
 20
61.046
 10
224.829
 20
61.033
 10
224.891
 20
61.012
 10
224.95
 20
60.983
 10
225.004
 20
60.947
 10
225.054
 20
60.904
 10
225.097
 20
60.854
 10
225.133
 20
60.8
 10
225.162
 20
60.741
 10
225.183
 20
60.679
 10
225.196
 20
60.615
 97
0
 75
0
 76
1
 98
0
  0
HATCH
  5
9E
330
17
100
AcDbEntity
  8
RASTER
 62
7
100
AcDbHatch
 10
0.0
 20
0.0
 30
0.0
210
0.0
220
0.0
230
1.0
  2
SOLID
 70
1
 71
0
 91
1
 92
3
 72
0
 73
1
 93
48
 10
251.8
 20
60.55
 10
251.796
 20
60.485
 10
251.783
 20
60.421
 10
251.762
 20
60.359
 10
251.733
 20
60.3
 10
251.697
 20
60.246
 10
251.654
 20
60.196
 10
251.604
 20
60.153
 10
251.55
 20
60.117
 10
251.491
 20
60.088
 10
251.429
 20
60.067
 10
251.365
 20
60.054
 10
251.3
 20
60.05
 10
251.235
 20
60.054
 10
251.171
 20
60.067
 10
251.109
 20
60.088
 10
251.05
 20
60.117
 10
250.996
 20
60.153
 10
250.946
 20
60.196
 10
250.903
 20
60.246
 10
250.867
 20
60.3
 10
250.838
 20
60.359
 10
250.817
 20
60.421
 10
250.804
 20
60.485
 10
250.8
 20
60.55
 10
250.804
 20
60.615
 10
250.817
 20
60.679
 10
250.838
 20
60.741
 10
250.867
 20
60.8
 10
250.903
 20
60.854
 10
250.946
 20
60.904
 10
250.996
 20
60.947
 10
251.05
 20
60.983
 10
251.109
 20
61.012
 10
251.171
 20
61.033
 10
251.235
 20
61.046
 10
251.3
 20
61.05
 10
251.365
 20
61.046
 10
251.429
 20
61.033
 10
251.491
 20
61.012
 10
251.55
 20
60.983
 10
251.604
 20
60.947
 10
251.654
 20
60.904
 10
251.697
 20
60.854
 10
251.733
 20
60.8
 10
251.762
 20
60.741
 10
251.783
 20
60.679
 10
251.796
 20
60.615
 97
0
 75
0
 76
1
 98
0
  0
HATCH
  5
9F
330
17
100
AcDbEntity
  8
RASTER
 62
7
100
AcDbHatch
 10
0.0
 20
0.0
 30
0.0
210
0.0
220
0.0
230
1.0
  2
SOLID
 70
1
 71
0
 91
1
 92
3
 72
0
 73
1
 93
48
 10
225.2
 20
55.45
 10
225.196
 20
55.385
 10
225.183
 20
55.321
 10
225.162
 20
55.259
 10
225.133
 20
55.2
 10
225.097
 20
55.146
 10
225.054
 20
55.096
 10
225.004
 20
55.053
 10
224.95
 20
55.017
 10
224.891
 20
54.988
 10
224.829
 20
54.967
 10
224.765
 20
54.954
 10
224.7
 20
54.95
 10
224.635
 20
54.954
 10
224.571
 20
54.967
 10
224.509
 20
54.988
 10
224.45
 20
55.017
 10
224.396
 20
55.053
 10
224.346
 20
55.096
 10
224.303
 20
55.146
 10
224.267
 20
55.2
 10
224.238
 20
55.259
 10
224.217
 20
55.321
 10
224.204
 20
55.385
 10
224.2
 20
55.45
 10
224.204
 20
55.515
 10
224.217
 20
55.579
 10
224.238
 20
55.641
 10
224.267
 20
55.7
 10
224.303
 20
55.754
 10
224.346
 20
55.804
 10
224.396
 20
55.847
 10
224.45
 20
55.883
 10
224.509
 20
55.912
 10
224.571
 20
55.933
 10
224.635
 20
55.946
 10
224.7
 20
55.95
 10
224.765
 20
55.946
 10
224.829
 20
55.933
 10
224.891
 20
55.912
 10
224.95
 20
55.883
 10
225.004
 20
55.847
 10
225.054
 20
55.804
 10
225.097
 20
55.754
 10
225.133
 20
55.7
 10
225.162
 20
55.641
 10
225.183
 20
55.579
 10
225.196
 20
55.515
 97
0
 75
0
 76
1
 98
0
  0
HATCH
  5
A0
330
17
100
AcDbEntity
  8
RASTER
 62
7
100
AcDbHatch
 10
0.0
 20
0.0
 30
0.0
210
0.0
220
0.0
230
1.0
  2
SOLID
 70
1
 71
0
 91
1
 92
3
 72
0
 73
1
 93
48
 10
251.8
 20
55.45
 10
251.796
 20
55.385
 10
251.783
 20
55.321
 10
251.762
 20
55.259
 10
251.733
 20
55.2
 10
251.697
 20
55.146
 10
251.654
 20
55.096
 10
251.604
 20
55.053
 10
251.55
 20
55.017
 10
251.491
 20
54.988
 10
251.429
 20
54.967
 10
251.365
 20
54.954
 10
251.3
 20
54.95
 10
251.235
 20
54.954
 10
251.171
 20
54.967
 10
251.109
 20
54.988
 10
251.05
 20
55.017
 10
250.996
 20
55.053
 10
250.946
 20
55.096
 10
250.903
 20
55.146
 10
250.867
 20
55.2
 10
250.838
 20
55.259
 10
250.817
 20
55.321
 10
250.804
 20
55.385
 10
250.8
 20
55.45
 10
250.804
 20
55.515
 10
250.817
 20
55.579
 10
250.838
 20
55.641
 10
250.867
 20
55.7
 10
250.903
 20
55.754
 10
250.946
 20
55.804
 10
250.996
 20
55.847
 10
251.05
 20
55.883
 10
251.109
 20
55.912
 10
251.171
 20
55.933
 10
251.235
 20
55.946
 10
251.3
 20
55.95
 10
251.365
 20
55.946
 10
251.429
 20
55.933
 10
251.491
 20
55.912
 10
251.55
 20
55.883
 10
251.604
 20
55.847
 10
251.654
 20
55.804
 10
251.697
 20
55.754
 10
251.733
 20
55.7
 10
251.762
 20
55.641
 10
251.783
 20
55.579
 10
251.796
 20
55.515
 97
0
 75
0
 76
1
 98
0
  0
LWPOLYLINE
  5
A1
330
17
100
AcDbEntity
  8
CUT
100
AcDbPolyline
 90
20
 70
1
 10
267.06
 20
68.04
 10
290.94
 20
68.04
 10
290.94
 20
63.073
 10
294.04
 20
63.073
 10
294.04
 20
58.027
 10
290.94
 20
58.027
 10
290.94
 20
53.06
 10
286.18
 20
53.06
 10
286.18
 20
49.96
 10
281.34
 20
49.96
 10
281.34
 20
53.06
 10
276.66
 20
53.06
 10
276.66
 20
49.96
 10
271.82
 20
49.96
 10
271.82
 20
53.06
 10
267.06
 20
53.06
 10
267.06
 20
58.027
 10
263.96
 20
58.027
 10
263.96
 20
63.073
 10
267.06
 20
63.073
  0
LWPOLYLINE
  5
A2
330
17
100
AcDbEntity
  8
CUT
100
AcDbPolyline
 90
4
 70
1
 10
271.14
 20
63.76
 10
286.86
 20
63.76
 10
286.86
 20
62.44
 10
271.14
 20
62.44
  0
LWPOLYLINE
  5
A3
330
17
100
AcDbEntity
  8
CUT
100
AcDbPolyline
 90
4
 70
1
 10
271.14
 20
58.66
 10
286.86
 20
58.66
 10
286.86
 20
57.34
 10
271.14
 20
57.34
  0
HATCH
  5
A4
330
17
100
AcDbEntity
  8
RASTER
 62
7
100
AcDbHatch
 10
0.0
 20
0.0
 30
0.0
210
0.0
220
0.0
230
1.0
  2
SOLID
 70
1
 71
0
 91
1
 92
3
 72
0
 73
1
 93
4
 10
267.7
 20
67.6
 10
270.5
 20
67.6
 10
270.5
 20
53.5
 10
267.7
 20
53.5
 97
0
 75
0
 76
1
 98
0
  0
HATCH
  5
A5
330
17
100
AcDbEntity
  8
RASTER
 62
7
100
AcDbHatch
 10
0.0
 20
0.0
 30
0.0
210
0.0
220
0.0
230
1.0
  2
SOLID
 70
1
 71
0
 91
1
 92
3
 72
0
 73
1
 93
4
 10
287.5
 20
67.6
 10
290.3
 20
67.6
 10
290.3
 20
53.5
 10
287.5
 20
53.5
 97
0
 75
0
 76
1
 98
0
  0
HATCH
  5
A6
330
17
100
AcDbEntity
  8
RASTER
 62
7
100
AcDbHatch
 10
0.0
 20
0.0
 30
0.0
210
0.0
220
0.0
230
1.0
  2
SOLID
 70
1
 71
0
 91
1
 92
3
 72
0
 73
1
 93
48
 10
273.2
 20
65.65
 10
273.196
 20
65.585
 10
273.183
 20
65.521
 10
273.162
 20
65.459
 10
273.133
 20
65.4
 10
273.097
 20
65.346
 10
273.054
 20
65.296
 10
273.004
 20
65.253
 10
272.95
 20
65.217
 10
272.891
 20
65.188
 10
272.829
 20
65.167
 10
272.765
 20
65.154
 10
272.7
 20
65.15
 10
272.635
 20
65.154
 10
272.571
 20
65.167
 10
272.509
 20
65.188
 10
272.45
 20
65.217
 10
272.396
 20
65.253
 10
272.346
 20
65.296
 10
272.303
 20
65.346
 10
272.267
 20
65.4
 10
272.238
 20
65.459
 10
272.217
 20
65.521
 10
272.204
 20
65.585
 10
272.2
 20
65.65
 10
272.204
 20
65.715
 10
272.217
 20
65.779
 10
272.238
 20
65.841
 10
272.267
 20
65.9
 10
272.303
 20
65.954
 10
272.346
 20
66.004
 10
272.396
 20
66.047
 10
272.45
 20
66.083
 10
272.509
 20
66.112
 10
272.571
 20
66.133
 10
272.635
 20
66.146
 10
272.7
 20
66.15
 10
272.765
 20
66.146
 10
272.829
 20
66.133
 10
272.891
 20
66.112
 10
272.95
 20
66.083
 10
273.004
 20
66.047
 10
273.054
 20
66.004
 10
273.097
 20
65.954
 10
273.133
 20
65.9
 10
273.162
 20
65.841
 10
273.183
 20
65.779
 10
273.196
 20
65.715
 97
0
 75
0
 76
1
 98
0
  0
HATCH
  5
A7
330
17
100
AcDbEntity
  8
RASTER
 62
7
100
AcDbHatch
 10
0.0
 20
0.0
 30
0.0
210
0.0
220
0.0
230
1.0
  2
SOLID
 70
1
 71
0
 91
1
 92
3
 72
0
 73
1
 93
48
 10
285.8
 20
65.65
 10
285.796
 20
65.585
 10
285.783
 20
65.521
 10
285.762
 20
65.459
 10
285.733
 20
65.4
 10
285.697
 20
65.346
 10
285.654
 20
65.296
 10
285.604
 20
65.253
 10
285.55
 20
65.217
 10
285.491
 20
65.188
 10
285.429
 20
65.167
 10
285.365
 20
65.154
 10
285.3
 20
65.15
 10
285.235
 20
65.154
 10
285.171
 20
65.167
 10
285.109
 20
65.188
 10
285.05
 20
65.217
 10
284.996
 20
65.253
 10
284.946
 20
65.296
 10
284.903
 20
65.346
 10
284.867
 20
65.4
 10
284.838
 20
65.459
 10
284.817
 20
65.521
 10
284.804
 20
65.585
 10
284.8
 20
65.65
 10
284.804
 20
65.715
 10
284.817
 20
65.779
 10
284.838
 20
65.841
 10
284.867
 20
65.9
 10
284.903
 20
65.954
 10
284.946
 20
66.004
 10
284.996
 20
66.047
 10
285.05
 20
66.083
 10
285.109
 20
66.112
 10
285.171
 20
66.133
 10
285.235
 20
66.146
 10
285.3
 20
66.15
 10
285.365
 20
66.146
 10
285.429
 20
66.133
 10
285.491
 20
66.112
 10
285.55
 20
66.083
 10
285.604
 20
66.047
 10
285.654
 20
66.004
 10
285.697
 20
65.954
 10
285.733
 20
65.9
 10
285.762
 20
65.841
 10
285.783
 20
65.779
 10
285.796
 20
65.715
 97
0
 75
0
 76
1
 98
0
  0
HATCH
  5
A8
330
17
100
AcDbEntity
  8
RASTER
 62
7
100
AcDbHatch
 10
0.0
 20
0.0
 30
0.0
210
0.0
220
0.0
230
1.0
  2
SOLID
 70
1
 71
0
 91
1
 92
3
 72
0
 73
1
 93
48
 10
273.2
 20
60.55
 10
273.196
 20
60.485
 10
273.183
 20
60.421
 10
273.162
 20
60.359
 10
273.133
 20
60.3
 10
273.097
 20
60.246
 10
273.054
 20
60.196
 10
273.004
 20
60.153
 10
272.95
 20
60.117
 10
272.891
 20
60.088
 10
272.829
 20
60.067
 10
272.765
 20
60.054
 10
272.7
 20
60.05
 10
272.635
 20
60.054
 10
272.571
 20
60.067
 10
272.509
 20
60.088
 10
272.45
 20
60.117
 10
272.396
 20
60.153
 10
272.346
 20
60.196
 10
272.303
 20
60.246
 10
272.267
 20
60.3
 10
272.238
 20
60.359
 10
272.217
 20
60.421
 10
272.204
 20
60.485
 10
272.2
 20
60.55
 10
272.204
 20
60.615
 10
272.217
 20
60.679
 10
272.238
 20
60.741
 10
272.267
 20
60.8
 10
272.303
 20
60.854
 10
272.346
 20
60.904
 10
272.396
 20
60.947
 10
272.45
 20
60.983
 10
272.509
 20
61.012
 10
272.571
 20
61.033
 10
272.635
 20
61.046
 10
272.7
 20
61.05
 10
272.765
 20
61.046
 10
272.829
 20
61.033
 10
272.891
 20
61.012
 10
272.95
 20
60.983
 10
273.004
 20
60.947
 10
273.054
 20
60.904
 10
273.097
 20
60.854
 10
273.133
 20
60.8
 10
273.162
 20
60.741
 10
273.183
 20
60.679
 10
273.196
 20
60.615
 97
0
 75
0
 76
1
 98
0
  0
HATCH
  5
A9
330
17
100
AcDbEntity
  8
RASTER
 62
7
100
AcDbHatch
 10
0.0
 20
0.0
 30
0.0
210
0.0
220
0.0
230
1.0
  2
SOLID
 70
1
 71
0
 91
1
 92
3
 72
0
 73
1
 93
48
 10
285.8
 20
60.55
 10
285.796
 20
60.485
 10
285.783
 20
60.421
 10
285.762
 20
60.359
 10
285.733
 20
60.3
 10
285.697
 20
60.246
 10
285.654
 20
60.196
 10
285.604
 20
60.153
 10
285.55
 20
60.117
 10
285.491
 20
60.088
 10
285.429
 20
60.067
 10
285.365
 20
60.054
 10
285.3
 20
60.05
 10
285.235
 20
60.054
 10
285.171
 20
60.067
 10
285.109
 20
60.088
 10
285.05
 20
60.117
 10
284.996
 20
60.153
 10
284.946
 20
60.196
 10
284.903
 20
60.246
 10
284.867
 20
60.3
 10
284.838
 20
60.359
 10
284.817
 20
60.421
 10
284.804
 20
60.485
 10
284.8
 20
60.55
 10
284.804
 20
60.615
 10
284.817
 20
60.679
 10
284.838
 20
60.741
 10
284.867
 20
60.8
 10
284.903
 20
60.854
 10
284.946
 20
60.904
 10
284.996
 20
60.947
 10
285.05
 20
60.983
 10
285.109
 20
61.012
 10
285.171
 20
61.033
 10
285.235
 20
61.046
 10
285.3
 20
61.05
 10
285.365
 20
61.046
 10
285.429
 20
61.033
 10
285.491
 20
61.012
 10
285.55
 20
60.983
 10
285.604
 20
60.947
 10
285.654
 20
60.904
 10
285.697
 20
60.854
 10
285.733
 20
60.8
 10
285.762
 20
60.741
 10
285.783
 20
60.679
 10
285.796
 20
60.615
 97
0
 75
0
 76
1
 98
0
  0
HATCH
  5
AA
330
17
100
AcDbEntity
  8
RASTER
 62
7
100
AcDbHatch
 10
0.0
 20
0.0
 30
0.0
210
0.0
220
0.0
230
1.0
  2
SOLID
 70
1
 71
0
 91
1
 92
3
 72
0
 73
1
 93
48
 10
273.2
 20
55.45
 10
273.196
 20
55.385
 10
273.183
 20
55.321
 10
273.162
 20
55.259
 10
273.133
 20
55.2
 10
273.097
 20
55.146
 10
273.054
 20
55.096
 10
273.004
 20
55.053
 10
272.95
 20
55.017
 10
272.891
 20
54.988
 10
272.829
 20
54.967
 10
272.765
 20
54.954
 10
272.7
 20
54.95
 10
272.635
 20
54.954
 10
272.571
 20
54.967
 10
272.509
 20
54.988
 10
272.45
 20
55.017
 10
272.396
 20
55.053
 10
272.346
 20
55.096
 10
272.303
 20
55.146
 10
272.267
 20
55.2
 10
272.238
 20
55.259
 10
272.217
 20
55.321
 10
272.204
 20
55.385
 10
272.2
 20
55.45
 10
272.204
 20
55.515
 10
272.217
 20
55.579
 10
272.238
 20
55.641
 10
272.267
 20
55.7
 10
272.303
 20
55.754
 10
272.346
 20
55.804
 10
272.396
 20
55.847
 10
272.45
 20
55.883
 10
272.509
 20
55.912
 10
272.571
 20
55.933
 10
272.635
 20
55.946
 10
272.7
 20
55.95
 10
272.765
 20
55.946
 10
272.829
 20
55.933
 10
272.891
 20
55.912
 10
272.95
 20
55.883
 10
273.004
 20
55.847
 10
273.054
 20
55.804
 10
273.097
 20
55.754
 10
273.133
 20
55.7
 10
273.162
 20
55.641
 10
273.183
 20
55.579
 10
273.196
 20
55.515
 97
0
 75
0
 76
1
 98
0
  0
HATCH
  5
AB
330
17
100
AcDbEntity
  8
RASTER
 62
7
100
AcDbHatch
 10
0.0
 20
0.0
 30
0.0
210
0.0
220
0.0
230
1.0
  2
SOLID
 70
1
 71
0
 91
1
 92
3
 72
0
 73
1
 93
48
 10
285.8
 20
55.45
 10
285.796
 20
55.385
 10
285.783
 20
55.321
 10
285.762
 20
55.259
 10
285.733
 20
55.2
 10
285.697
 20
55.146
 10
285.654
 20
55.096
 10
285.604
 20
55.053
 10
285.55
 20
55.017
 10
285.491
 20
54.988
 10
285.429
 20
54.967
 10
285.365
 20
54.954
 10
285.3
 20
54.95
 10
285.235
 20
54.954
 10
285.171
 20
54.967
 10
285.109
 20
54.988
 10
285.05
 20
55.017
 10
284.996
 20
55.053
 10
284.946
 20
55.096
 10
284.903
 20
55.146
 10
284.867
 20
55.2
 10
284.838
 20
55.259
 10
284.817
 20
55.321
 10
284.804
 20
55.385
 10
284.8
 20
55.45
 10
284.804
 20
55.515
 10
284.817
 20
55.579
 10
284.838
 20
55.641
 10
284.867
 20
55.7
 10
284.903
 20
55.754
 10
284.946
 20
55.804
 10
284.996
 20
55.847
 10
285.05
 20
55.883
 10
285.109
 20
55.912
 10
285.171
 20
55.933
 10
285.235
 20
55.946
 10
285.3
 20
55.95
 10
285.365
 20
55.946
 10
285.429
 20
55.933
 10
285.491
 20
55.912
 10
285.55
 20
55.883
 10
285.604
 20
55.847
 10
285.654
 20
55.804
 10
285.697
 20
55.754
 10
285.733
 20
55.7
 10
285.762
 20
55.641
 10
285.783
 20
55.579
 10
285.796
 20
55.515
 97
0
 75
0
 76
1
 98
0
  0
LWPOLYLINE
  5
AC
330
17
100
AcDbEntity
  8
CUT
100
AcDbPolyline
 90
20
 70
1
 10
7.06
 20
34.04
 10
30.94
 20
34.04
 10
30.94
 20
29.073
 10
34.04
 20
29.073
 10
34.04
 20
24.027
 10
30.94
 20
24.027
 10
30.94
 20
19.06
 10
26.18
 20
19.06
 10
26.18
 20
15.96
 10
21.34
 20
15.96
 10
21.34
 20
19.06
 10
16.66
 20
19.06
 10
16.66
 20
15.96
 10
11.82
 20
15.96
 10
11.82
 20
19.06
 10
7.06
 20
19.06
 10
7.06
 20
24.027
 10
3.96
 20
24.027
 10
3.96
 20
29.073
 10
7.06
 20
29.073
  0
LWPOLYLINE
  5
AD
330
17
100
AcDbEntity
  8
CUT
100
AcDbPolyline
 90
4
 70
1
 10
11.14
 20
29.76
 10
26.86
 20
29.76
 10
26.86
 20
28.44
 10
11.14
 20
28.44
  0
LWPOLYLINE
  5
AE
330
17
100
AcDbEntity
  8
CUT
100
AcDbPolyline
 90
4
 70
1
 10
11.14
 20
24.66
 10
26.86
 20
24.66
 10
26.86
 20
23.34
 10
11.14
 20
23.34
  0
HATCH
  5
AF
330
17
100
AcDbEntity
  8
RASTER
 62
7
100
AcDbHatch
 10
0.0
 20
0.0
 30
0.0
210
0.0
220
0.0
230
1.0
  2
SOLID
 70
1
 71
0
 91
1
 92
3
 72
0
 73
1
 93
4
 10
7.7
 20
33.6
 10
10.5
 20
33.6
 10
10.5
 20
19.5
 10
7.7
 20
19.5
 97
0
 75
0
 76
1
 98
0
  0
HATCH
  5
B0
330
17
100
AcDbEntity
  8
RASTER
 62
7
100
AcDbHatch
 10
0.0
 20
0.0
 30
0.0
210
0.0
220
0.0
230
1.0
  2
SOLID
 70
1
 71
0
 91
1
 92
3
 72
0
 73
1
 93
4
 10
27.5
 20
33.6
 10
30.3
 20
33.6
 10
30.3
 20
19.5
 10
27.5
 20
19.5
 97
0
 75
0
 76
1
 98
0
  0
HATCH
  5
B1
330
17
100
AcDbEntity
  8
RASTER
 62
7
100
AcDbHatch
 10
0.0
 20
0.0
 30
0.0
210
0.0
220
0.0
230
1.0
  2
SOLID
 70
1
 71
0
 91
1
 92
3
 72
0
 73
1
 93
48
 10
13.2
 20
31.65
 10
13.196
 20
31.585
 10
13.183
 20
31.521
 10
13.162
 20
31.459
 10
13.133
 20
31.4
 10
13.097
 20
31.346
 10
13.054
 20
31.296
 10
13.004
 20
31.253
 10
12.95
 20
31.217
 10
12.891
 20
31.188
 10
12.829
 20
31.167
 10
12.765
 20
31.154
 10
12.7
 20
31.15
 10
12.635
 20
31.154
 10
12.571
 20
31.167
 10
12.509
 20
31.188
 10
12.45
 20
31.217
 10
12.396
 20
31.253
 10
12.346
 20
31.296
 10
12.303
 20
31.346
 10
12.267
 20
31.4
 10
12.238
 20
31.459
 10
12.217
 20
31.521
 10
12.204
 20
31.585
 10
12.2
 20
31.65
 10
12.204
 20
31.715
 10
12.217
 20
31.779
 10
12.238
 20
31.841
 10
12.267
 20
31.9
 10
12.303
 20
31.954
 10
12.346
 20
32.004
 10
12.396
 20
32.047
 10
12.45
 20
32.083
 10
12.509
 20
32.112
 10
12.571
 20
32.133
 10
12.635
 20
32.146
 10
12.7
 20
32.15
 10
12.765
 20
32.146
 10
12.829
 20
32.133
 10
12.891
 20
32.112
 10
12.95
 20
32.083
 10
13.004
 20
32.047
 10
13.054
 20
32.004
 10
13.097
 20
31.954
 10
13.133
 20
31.9
 10
13.162
 20
31.841
 10
13.183
 20
31.779
 10
13.196
 20
31.715
 97
0
 75
0
 76
1
 98
0
  0
HATCH
  5
B2
330
17
100
AcDbEntity
  8
RASTER
 62
7
100
AcDbHatch
 10
0.0
 20
0.0
 30
0.0
210
0.0
220
0.0
230
1.0
  2
SOLID
 70
1
 71
0
 91
1
 92
3
 72
0
 73
1
 93
48
 10
25.8
 20
31.65
 10
25.796
 20
31.585
 10
25.783
 20
31.521
 10
25.762
 20
31.459
 10
25.733
 20
31.4
 10
25.697
 20
31.346
 10
25.654
 20
31.296
 10
25.604
 20
31.253
 10
25.55
 20
31.217
 10
25.491
 20
31.188
 10
25.429
 20
31.167
 10
25.365
 20
31.154
 10
25.3
 20
31.15
 10
25.235
 20
31.154
 10
25.171
 20
31.167
 10
25.109
 20
31.188
 10
25.05
 20
31.217
 10
24.996
 20
31.253
 10
24.946
 20
31.296
 10
24.903
 20
31.346
 10
24.867
 20
31.4
 10
24.838
 20
31.459
 10
24.817
 20
31.521
 10
24.804
 20
31.585
 10
24.8
 20
31.65
 10
24.804
 20
31.715
 10
24.817
 20
31.779
 10
24.838
 20
31.841
 10
24.867
 20
31.9
 10
24.903
 20
31.954
 10
24.946
 20
32.004
 10
24.996
 20
32.047
 10
25.05
 20
32.083
 10
25.109
 20
32.112
 10
25.171
 20
32.133
 10
25.235
 20
32.146
 10
25.3
 20
32.15
 10
25.365
 20
32.146
 10
25.429
 20
32.133
 10
25.491
 20
32.112
 10
25.55
 20
32.083
 10
25.604
 20
32.047
 10
25.654
 20
32.004
 10
25.697
 20
31.954
 10
25.733
 20
31.9
 10
25.762
 20
31.841
 10
25.783
 20
31.779
 10
25.796
 20
31.715
 97
0
 75
0
 76
1
 98
0
  0
HATCH
  5
B3
330
17
100
AcDbEntity
  8
RASTER
 62
7
100
AcDbHatch
 10
0.0
 20
0.0
 30
0.0
210
0.0
220
0.0
230
1.0
  2
SOLID
 70
1
 71
0
 91
1
 92
3
 72
0
 73
1
 93
48
 10
13.2
 20
26.55
 10
13.196
 20
26.485
 10
13.183
 20
26.421
 10
13.162
 20
26.359
 10
13.133
 20
26.3
 10
13.097
 20
26.246
 10
13.054
 20
26.196
 10
13.004
 20
26.153
 10
12.95
 20
26.117
 10
12.891
 20
26.088
 10
12.829
 20
26.067
 10
12.765
 20
26.054
 10
12.7
 20
26.05
 10
12.635
 20
26.054
 10
12.571
 20
26.067
 10
12.509
 20
26.088
 10
12.45
 20
26.117
 10
12.396
 20
26.153
 10
12.346
 20
26.196
 10
12.303
 20
26.246
 10
12.267
 20
26.3
 10
12.238
 20
26.359
 10
12.217
 20
26.421
 10
12.204
 20
26.485
 10
12.2
 20
26.55
 10
12.204
 20
26.615
 10
12.217
 20
26.679
 10
12.238
 20
26.741
 10
12.267
 20
26.8
 10
12.303
 20
26.854
 10
12.346
 20
26.904
 10
12.396
 20
26.947
 10
12.45
 20
26.983
 10
12.509
 20
27.012
 10
12.571
 20
27.033
 10
12.635
 20
27.046
 10
12.7
 20
27.05
 10
12.765
 20
27.046
 10
12.829
 20
27.033
 10
12.891
 20
27.012
 10
12.95
 20
26.983
 10
13.004
 20
26.947
 10
13.054
 20
26.904
 10
13.097
 20
26.854
 10
13.133
 20
26.8
 10
13.162
 20
26.741
 10
13.183
 20
26.679
 10
13.196
 20
26.615
 97
0
 75
0
 76
1
 98
0
  0
HATCH
  5
B4
330
17
100
AcDbEntity
  8
RASTER
 62
7
100
AcDbHatch
 10
0.0
 20
0.0
 30
0.0
210
0.0
220
0.0
230
1.0
  2
SOLID
 70
1
 71
0
 91
1
 92
3
 72
0
 73
1
 93
48
 10
25.8
 20
26.55
 10
25.796
 20
26.485
 10
25.783
 20
26.421
 10
25.762
 20
26.359
 10
25.733
 20
26.3
 10
25.697
 20
26.246
 10
25.654
 20
26.196
 10
25.604
 20
26.153
 10
25.55
 20
26.117
 10
25.491
 20
26.088
 10
25.429
 20
26.067
 10
25.365
 20
26.054
 10
25.3
 20
26.05
 10
25.235
 20
26.054
 10
25.171
 20
26.067
 10
25.109
 20
26.088
 10
25.05
 20
26.117
 10
24.996
 20
26.153
 10
24.946
 20
26.196
 10
24.903
 20
26.246
 10
24.867
 20
26.3
 10
24.838
 20
26.359
 10
24.817
 20
26.421
 10
24.804
 20
26.485
 10
24.8
 20
26.55
 10
24.804
 20
26.615
 10
24.817
 20
26.679
 10
24.838
 20
26.741
 10
24.867
 20
26.8
 10
24.903
 20
26.854
 10
24.946
 20
26.904
 10
24.996
 20
26.947
 10
25.05
 20
26.983
 10
25.109
 20
27.012
 10
25.171
 20
27.033
 10
25.235
 20
27.046
 10
25.3
 20
27.05
 10
25.365
 20
27.046
 10
25.429
 20
27.033
 10
25.491
 20
27.012
 10
25.55
 20
26.983
 10
25.604
 20
26.947
 10
25.654
 20
26.904
 10
25.697
 20
26.854
 10
25.733
 20
26.8
 10
25.762
 20
26.741
 10
25.783
 20
26.679
 10
25.796
 20
26.615
 97
0
 75
0
 76
1
 98
0
  0
HATCH
  5
B5
330
17
100
AcDbEntity
  8
RASTER
 62
7
100
AcDbHatch
 10
0.0
 20
0.0
 30
0.0
210
0.0
220
0.0
230
1.0
  2
SOLID
 70
1
 71
0
 91
1
 92
3
 72
0
 73
1
 93
48
 10
13.2
 20
21.45
 10
13.196
 20
21.385
 10
13.183
 20
21.321
 10
13.162
 20
21.259
 10
13.133
 20
21.2
 10
13.097
 20
21.146
 10
13.054
 20
21.096
 10
13.004
 20
21.053
 10
12.95
 20
21.017
 10
12.891
 20
20.988
 10
12.829
 20
20.967
 10
12.765
 20
20.954
 10
12.7
 20
20.95
 10
12.635
 20
20.954
 10
12.571
 20
20.967
 10
12.509
 20
20.988
 10
12.45
 20
21.017
 10
12.396
 20
21.053
 10
12.346
 20
21.096
 10
12.303
 20
21.146
 10
12.267
 20
21.2
 10
12.238
 20
21.259
 10
12.217
 20
21.321
 10
12.204
 20
21.385
 10
12.2
 20
21.45
 10
12.204
 20
21.515
 10
12.217
 20
21.579
 10
12.238
 20
21.641
 10
12.267
 20
21.7
 10
12.303
 20
21.754
 10
12.346
 20
21.804
 10
12.396
 20
21.847
 10
12.45
 20
21.883
 10
12.509
 20
21.912
 10
12.571
 20
21.933
 10
12.635
 20
21.946
 10
12.7
 20
21.95
 10
12.765
 20
21.946
 10
12.829
 20
21.933
 10
12.891
 20
21.912
 10
12.95
 20
21.883
 10
13.004
 20
21.847
 10
13.054
 20
21.804
 10
13.097
 20
21.754
 10
13.133
 20
21.7
 10
13.162
 20
21.641
 10
13.183
 20
21.579
 10
13.196
 20
21.515
 97
0
 75
0
 76
1
 98
0
  0
HATCH
  5
B6
330
17
100
AcDbEntity
  8
RASTER
 62
7
100
AcDbHatch
 10
0.0
 20
0.0
 30
0.0
210
0.0
220
0.0
230
1.0
  2
SOLID
 70
1
 71
0
 91
1
 92
3
 72
0
 73
1
 93
48
 10
25.8
 20
21.45
 10
25.796
 20
21.385
 10
25.783
 20
21.321
 10
25.762
 20
21.259
 10
25.733
 20
21.2
 10
25.697
 20
21.146
 10
25.654
 20
21.096
 10
25.604
 20
21.053
 10
25.55
 20
21.017
 10
25.491
 20
20.988
 10
25.429
 20
20.967
 10
25.365
 20
20.954
 10
25.3
 20
20.95
 10
25.235
 20
20.954
 10
25.171
 20
20.967
 10
25.109
 20
20.988
 10
25.05
 20
21.017
 10
24.996
 20
21.053
 10
24.946
 20
21.096
 10
24.903
 20
21.146
 10
24.867
 20
21.2
 10
24.838
 20
21.259
 10
24.817
 20
21.321
 10
24.804
 20
21.385
 10
24.8
 20
21.45
 10
24.804
 20
21.515
 10
24.817
 20
21.579
 10
24.838
 20
21.641
 10
24.867
 20
21.7
 10
24.903
 20
21.754
 10
24.946
 20
21.804
 10
24.996
 20
21.847
 10
25.05
 20
21.883
 10
25.109
 20
21.912
 10
25.171
 20
21.933
 10
25.235
 20
21.946
 10
25.3
 20
21.95
 10
25.365
 20
21.946
 10
25.429
 20
21.933
 10
25.491
 20
21.912
 10
25.55
 20
21.883
 10
25.604
 20
21.847
 10
25.654
 20
21.804
 10
25.697
 20
21.754
 10
25.733
 20
21.7
 10
25.762
 20
21.641
 10
25.783
 20
21.579
 10
25.796
 20
21.515
 97
0
 75
0
 76
1
 98
0
  0
LWPOLYLINE
  5
B7
330
17
100
AcDbEntity
  8
CUT
100
AcDbPolyline
 90
52
 70
1
 10
37.96
 20
34.04
 10
41.1
 20
34.04
 10
46.54
 20
34.04
 10
46.54
 20
30.94
 10
51.86
 20
30.94
 10
51.86
 20
34.04
 10
57.34
 20
34.04
 10
57.34
 20
30.94
 10
62.66
 20
30.94
 10
62.66
 20
34.04
 10
68.14
 20
34.04
 10
68.14
 20
30.94
 10
73.46
 20
30.94
 10
73.46
 20
34.04
 10
78.9
 20
34.04
 10
82.04
 20
34.04
 10
82.04
 20
30.9
 10
82.04
 20
26.1
 10
78.94
 20
26.1
 10
78.94
 20
21.42
 10
82.04
 20
21.42
 10
82.04
 20
16.58
 10
78.94
 20
16.58
 10
78.94
 20
11.9
 10
82.04
 20
11.9
 10
82.04
 20
7.1
 10
82.04
 20
3.96
 10
78.9
 20
3.96
 10
73.46
 20
3.96
 10
73.46
 20
7.06
 10
68.14
 20
7.06
 10
68.14
 20
3.96
 10
62.66
 20
3.96
 10
62.66
 20
7.06
 10
57.34
 20
7.06
 10
57.34
 20
3.96
 10
51.86
 20
3.96
 10
51.86
 20
7.06
 10
46.54
 20
7.06
 10
46.54
 20
3.96
 10
41.1
 20
3.96
 10
37.96
 20
3.96
 10
37.96
 20
7.1
 10
37.96
 20
11.9
 10
41.06
 20
11.9
 10
41.06
 20
16.58
 10
37.96
 20
16.58
 10
37.96
 20
21.42
 10
41.06
 20
21.42
 10
41.06
 20
26.1
 10
37.96
 20
26.1
 10
37.96
 20
30.9
  0
LWPOLYLINE
  5
B8
330
17
100
AcDbEntity
  8
CUT
100
AcDbPolyline
 90
28
 70
1
 10
89.1
 20
34.04
 10
126.9
 20
34.04
 10
130.04
 20
34.04
 10
130.04
 20
28.993
 10
126.94
 20
28.993
 10
126.94
 20
24.107
 10
130.04
 20
24.107
 10
130.04
 20
19.06
 10
126.9
 20
19.06
 10
121.54
 20
19.06
 10
121.54
 20
15.96
 10
116.06
 20
15.96
 10
116.06
 20
19.06
 10
110.74
 20
19.06
 10
110.74
 20
15.96
 10
105.26
 20
15.96
 10
105.26
 20
19.06
 10
99.94
 20
19.06
 10
99.94
 20
15.96
 10
94.46
 20
15.96
 10
94.46
 20
19.06
 10
89.1
 20
19.06
 10
85.96
 20
19.06
 10
85.96
 20
24.107
 10
89.06
 20
24.107
 10
89.06
 20
28.993
 10
85.96
 20
28.993
 10
85.96
 20
34.04
  0
LWPOLYLINE
  5
B9
330
17
100
AcDbEntity
  8
CUT
100
AcDbPolyline
 90
4
 70
1
 10
93.14
 20
29.76
 10
122.86
 20
29.76
 10
122.86
 20
28.44
 10
93.14
 20
28.44
  0
LWPOLYLINE
  5
BA
330
17
100
AcDbEntity
  8
CUT
100
AcDbPolyline
 90
4
 70
1
 10
93.14
 20
24.66
 10
122.86
 20
24.66
 10
122.86
 20
23.34
 10
93.14
 20
23.34
  0
HATCH
  5
BB
330
17
100
AcDbEntity
  8
RASTER
 62
7
100
AcDbHatch
 10
0.0
 20
0.0
 30
0.0
210
0.0
220
0.0
230
1.0
  2
SOLID
 70
1
 71
0
 91
1
 92
3
 72
0
 73
1
 93
4
 10
89.7
 20
33.6
 10
92.5
 20
33.6
 10
92.5
 20
19.5
 10
89.7
 20
19.5
 97
0
 75
0
 76
1
 98
0
  0
HATCH
  5
BC
330
17
100
AcDbEntity
  8
RASTER
 62
7
100
AcDbHatch
 10
0.0
 20
0.0
 30
0.0
210
0.0
220
0.0
230
1.0
  2
SOLID
 70
1
 71
0
 91
1
 92
3
 72
0
 73
1
 93
4
 10
123.5
 20
33.6
 10
126.3
 20
33.6
 10
126.3
 20
19.5
 10
123.5
 20
19.5
 97
0
 75
0
 76
1
 98
0
  0
HATCH
  5
BD
330
17
100
AcDbEntity
  8
RASTER
 62
7
100
AcDbHatch
 10
0.0
 20
0.0
 30
0.0
210
0.0
220
0.0
230
1.0
  2
SOLID
 70
1
 71
0
 91
1
 92
3
 72
0
 73
1
 93
48
 10
95.2
 20
31.65
 10
95.196
 20
31.585
 10
95.183
 20
31.521
 10
95.162
 20
31.459
 10
95.133
 20
31.4
 10
95.097
 20
31.346
 10
95.054
 20
31.296
 10
95.004
 20
31.253
 10
94.95
 20
31.217
 10
94.891
 20
31.188
 10
94.829
 20
31.167
 10
94.765
 20
31.154
 10
94.7
 20
31.15
 10
94.635
 20
31.154
 10
94.571
 20
31.167
 10
94.509
 20
31.188
 10
94.45
 20
31.217
 10
94.396
 20
31.253
 10
94.346
 20
31.296
 10
94.303
 20
31.346
 10
94.267
 20
31.4
 10
94.238
 20
31.459
 10
94.217
 20
31.521
 10
94.204
 20
31.585
 10
94.2
 20
31.65
 10
94.204
 20
31.715
 10
94.217
 20
31.779
 10
94.238
 20
31.841
 10
94.267
 20
31.9
 10
94.303
 20
31.954
 10
94.346
 20
32.004
 10
94.396
 20
32.047
 10
94.45
 20
32.083
 10
94.509
 20
32.112
 10
94.571
 20
32.133
 10
94.635
 20
32.146
 10
94.7
 20
32.15
 10
94.765
 20
32.146
 10
94.829
 20
32.133
 10
94.891
 20
32.112
 10
94.95
 20
32.083
 10
95.004
 20
32.047
 10
95.054
 20
32.004
 10
95.097
 20
31.954
 10
95.133
 20
31.9
 10
95.162
 20
31.841
 10
95.183
 20
31.779
 10
95.196
 20
31.715
 97
0
 75
0
 76
1
 98
0
  0
HATCH
  5
BE
330
17
100
AcDbEntity
  8
RASTER
 62
7
100
AcDbHatch
 10
0.0
 20
0.0
 30
0.0
210
0.0
220
0.0
230
1.0
  2
SOLID
 70
1
 71
0
 91
1
 92
3
 72
0
 73
1
 93
48
 10
121.8
 20
31.65
 10
121.796
 20
31.585
 10
121.783
 20
31.521
 10
121.762
 20
31.459
 10
121.733
 20
31.4
 10
121.697
 20
31.346
 10
121.654
 20
31.296
 10
121.604
 20
31.253
 10
121.55
 20
31.217
 10
121.491
 20
31.188
 10
121.429
 20
31.167
 10
121.365
 20
31.154
 10
121.3
 20
31.15
 10
121.235
 20
31.154
 10
121.171
 20
31.167
 10
121.109
 20
31.188
 10
121.05
 20
31.217
 10
120.996
 20
31.253
 10
120.946
 20
31.296
 10
120.903
 20
31.346
 10
120.867
 20
31.4
 10
120.838
 20
31.459
 10
120.817
 20
31.521
 10
120.804
 20
31.585
 10
120.8
 20
31.65
 10
120.804
 20
31.715
 10
120.817
 20
31.779
 10
120.838
 20
31.841
 10
120.867
 20
31.9
 10
120.903
 20
31.954
 10
120.946
 20
32.004
 10
120.996
 20
32.047
 10
121.05
 20
32.083
 10
121.109
 20
32.112
 10
121.171
 20
32.133
 10
121.235
 20
32.146
 10
121.3
 20
32.15
 10
121.365
 20
32.146
 10
121.429
 20
32.133
 10
121.491
 20
32.112
 10
121.55
 20
32.083
 10
121.604
 20
32.047
 10
121.654
 20
32.004
 10
121.697
 20
31.954
 10
121.733
 20
31.9
 10
121.762
 20
31.841
 10
121.783
 20
31.779
 10
121.796
 20
31.715
 97
0
 75
0
 76
1
 98
0
  0
HATCH
  5
BF
330
17
100
AcDbEntity
  8
RASTER
 62
7
100
AcDbHatch
 10
0.0
 20
0.0
 30
0.0
210
0.0
220
0.0
230
1.0
  2
SOLID
 70
1
 71
0
 91
1
 92
3
 72
0
 73
1
 93
48
 10
95.2
 20
26.55
 10
95.196
 20
26.485
 10
95.183
 20
26.421
 10
95.162
 20
26.359
 10
95.133
 20
26.3
 10
95.097
 20
26.246
 10
95.054
 20
26.196
 10
95.004
 20
26.153
 10
94.95
 20
26.117
 10
94.891
 20
26.088
 10
94.829
 20
26.067
 10
94.765
 20
26.054
 10
94.7
 20
26.05
 10
94.635
 20
26.054
 10
94.571
 20
26.067
 10
94.509
 20
26.088
 10
94.45
 20
26.117
 10
94.396
 20
26.153
 10
94.346
 20
26.196
 10
94.303
 20
26.246
 10
94.267
 20
26.3
 10
94.238
 20
26.359
 10
94.217
 20
26.421
 10
94.204
 20
26.485
 10
94.2
 20
26.55
 10
94.204
 20
26.615
 10
94.217
 20
26.679
 10
94.238
 20
26.741
 10
94.267
 20
26.8
 10
94.303
 20
26.854
 10
94.346
 20
26.904
 10
94.396
 20
26.947
 10
94.45
 20
26.983
 10
94.509
 20
27.012
 10
94.571
 20
27.033
 10
94.635
 20
27.046
 10
94.7
 20
27.05
 10
94.765
 20
27.046
 10
94.829
 20
27.033
 10
94.891
 20
27.012
 10
94.95
 20
26.983
 10
95.004
 20
26.947
 10
95.054
 20
26.904
 10
95.097
 20
26.854
 10
95.133
 20
26.8
 10
95.162
 20
26.741
 10
95.183
 20
26.679
 10
95.196
 20
26.615
 97
0
 75
0
 76
1
 98
0
  0
HATCH
  5
C0
330
17
100
AcDbEntity
  8
RASTER
 62
7
100
AcDbHatch
 10
0.0
 20
0.0
 30
0.0
210
0.0
220
0.0
230
1.0
  2
SOLID
 70
1
 71
0
 91
1
 92
3
 72
0
 73
1
 93
48
 10
121.8
 20
26.55
 10
121.796
 20
26.485
 10
121.783
 20
26.421
 10
121.762
 20
26.359
 10
121.733
 20
26.3
 10
121.697
 20
26.246
 10
121.654
 20
26.196
 10
121.604
 20
26.153
 10
121.55
 20
26.117
 10
121.491
 20
26.088
 10
121.429
 20
26.067
 10
121.365
 20
26.054
 10
121.3
 20
26.05
 10
121.235
 20
26.054
 10
121.171
 20
26.067
 10
121.109
 20
26.088
 10
121.05
 20
26.117
 10
120.996
 20
26.153
 10
120.946
 20
26.196
 10
120.903
 20
26.246
 10
120.867
 20
26.3
 10
120.838
 20
26.359
 10
120.817
 20
26.421
 10
120.804
 20
26.485
 10
120.8
 20
26.55
 10
120.804
 20
26.615
 10
120.817
 20
26.679
 10
120.838
 20
26.741
 10
120.867
 20
26.8
 10
120.903
 20
26.854
 10
120.946
 20
26.904
 10
120.996
 20
26.947
 10
121.05
 20
26.983
 10
121.109
 20
27.012
 10
121.171
 20
27.033
 10
121.235
 20
27.046
 10
121.3
 20
27.05
 10
121.365
 20
27.046
 10
121.429
 20
27.033
 10
121.491
 20
27.012
 10
121.55
 20
26.983
 10
121.604
 20
26.947
 10
121.654
 20
26.904
 10
121.697
 20
26.854
 10
121.733
 20
26.8
 10
121.762
 20
26.741
 10
121.783
 20
26.679
 10
121.796
 20
26.615
 97
0
 75
0
 76
1
 98
0
  0
HATCH
  5
C1
330
17
100
AcDbEntity
  8
RASTER
 62
7
100
AcDbHatch
 10
0.0
 20
0.0
 30
0.0
210
0.0
220
0.0
230
1.0
  2
SOLID
 70
1
 71
0
 91
1
 92
3
 72
0
 73
1
 93
48
 10
95.2
 20
21.45
 10
95.196
 20
21.385
 10
95.183
 20
21.321
 10
95.162
 20
21.259
 10
95.133
 20
21.2
 10
95.097
 20
21.146
 10
95.054
 20
21.096
 10
95.004
 20
21.053
 10
94.95
 20
21.017
 10
94.891
 20
20.988
 10
94.829
 20
20.967
 10
94.765
 20
20.954
 10
94.7
 20
20.95
 10
94.635
 20
20.954
 10
94.571
 20
20.967
 10
94.509
 20
20.988
 10
94.45
 20
21.017
 10
94.396
 20
21.053
 10
94.346
 20
21.096
 10
94.303
 20
21.146
 10
94.267
 20
21.2
 10
94.238
 20
21.259
 10
94.217
 20
21.321
 10
94.204
 20
21.385
 10
94.2
 20
21.45
 10
94.204
 20
21.515
 10
94.217
 20
21.579
 10
94.238
 20
21.641
 10
94.267
 20
21.7
 10
94.303
 20
21.754
 10
94.346
 20
21.804
 10
94.396
 20
21.847
 10
94.45
 20
21.883
 10
94.509
 20
21.912
 10
94.571
 20
21.933
 10
94.635
 20
21.946
 10
94.7
 20
21.95
 10
94.765
 20
21.946
 10
94.829
 20
21.933
 10
94.891
 20
21.912
 10
94.95
 20
21.883
 10
95.004
 20
21.847
 10
95.054
 20
21.804
 10
95.097
 20
21.754
 10
95.133
 20
21.7
 10
95.162
 20
21.641
 10
95.183
 20
21.579
 10
95.196
 20
21.515
 97
0
 75
0
 76
1
 98
0
  0
HATCH
  5
C2
330
17
100
AcDbEntity
  8
RASTER
 62
7
100
AcDbHatch
 10
0.0
 20
0.0
 30
0.0
210
0.0
220
0.0
230
1.0
  2
SOLID
 70
1
 71
0
 91
1
 92
3
 72
0
 73
1
 93
48
 10
121.8
 20
21.45
 10
121.796
 20
21.385
 10
121.783
 20
21.321
 10
121.762
 20
21.259
 10
121.733
 20
21.2
 10
121.697
 20
21.146
 10
121.654
 20
21.096
 10
121.604
 20
21.053
 10
121.55
 20
21.017
 10
121.491
 20
20.988
 10
121.429
 20
20.967
 10
121.365
 20
20.954
 10
121.3
 20
20.95
 10
121.235
 20
20.954
 10
121.171
 20
20.967
 10
121.109
 20
20.988
 10
121.05
 20
21.017
 10
120.996
 20
21.053
 10
120.946
 20
21.096
 10
120.903
 20
21.146
 10
120.867
 20
21.2
 10
120.838
 20
21.259
 10
120.817
 20
21.321
 10
120.804
 20
21.385
 10
120.8
 20
21.45
 10
120.804
 20
21.515
 10
120.817
 20
21.579
 10
120.838
 20
21.641
 10
120.867
 20
21.7
 10
120.903
 20
21.754
 10
120.946
 20
21.804
 10
120.996
 20
21.847
 10
121.05
 20
21.883
 10
121.109
 20
21.912
 10
121.171
 20
21.933
 10
121.235
 20
21.946
 10
121.3
 20
21.95
 10
121.365
 20
21.946
 10
121.429
 20
21.933
 10
121.491
 20
21.912
 10
121.55
 20
21.883
 10
121.604
 20
21.847
 10
121.654
 20
21.804
 10
121.697
 20
21.754
 10
121.733
 20
21.7
 10
121.762
 20
21.641
 10
121.783
 20
21.579
 10
121.796
 20
21.515
 97
0
 75
0
 76
1
 98
0
  0
LWPOLYLINE
  5
C3
330
17
100
AcDbEntity
  8
CUT
100
AcDbPolyline
 90
28
 70
1
 10
137.1
 20
34.04
 10
174.9
 20
34.04
 10
178.04
 20
34.04
 10
178.04
 20
28.993
 10
174.94
 20
28.993
 10
174.94
 20
24.107
 10
178.04
 20
24.107
 10
178.04
 20
19.06
 10
174.9
 20
19.06
 10
169.54
 20
19.06
 10
169.54
 20
15.96
 10
164.06
 20
15.96
 10
164.06
 20
19.06
 10
158.74
 20
19.06
 10
158.74
 20
15.96
 10
153.26
 20
15.96
 10
153.26
 20
19.06
 10
147.94
 20
19.06
 10
147.94
 20
15.96
 10
142.46
 20
15.96
 10
142.46
 20
19.06
 10
137.1
 20
19.06
 10
133.96
 20
19.06
 10
133.96
 20
24.107
 10
137.06
 20
24.107
 10
137.06
 20
28.993
 10
133.96
 20
28.993
 10
133.96
 20
34.04
  0
LWPOLYLINE
  5
C4
330
17
100
AcDbEntity
  8
CUT
100
AcDbPolyline
 90
4
 70
1
 10
141.14
 20
29.76
 10
170.86
 20
29.76
 10
170.86
 20
28.44
 10
141.14
 20
28.44
  0
LWPOLYLINE
  5
C5
330
17
100
AcDbEntity
  8
CUT
100
AcDbPolyline
 90
4
 70
1
 10
141.14
 20
24.66
 10
170.86
 20
24.66
 10
170.86
 20
23.34
 10
141.14
 20
23.34
  0
HATCH
  5
C6
330
17
100
AcDbEntity
  8
RASTER
 62
7
100
AcDbHatch
 10
0.0
 20
0.0
 30
0.0
210
0.0
220
0.0
230
1.0
  2
SOLID
 70
1
 71
0
 91
1
 92
3
 72
0
 73
1
 93
4
 10
137.7
 20
33.6
 10
140.5
 20
33.6
 10
140.5
 20
19.5
 10
137.7
 20
19.5
 97
0
 75
0
 76
1
 98
0
  0
HATCH
  5
C7
330
17
100
AcDbEntity
  8
RASTER
 62
7
100
AcDbHatch
 10
0.0
 20
0.0
 30
0.0
210
0.0
220
0.0
230
1.0
  2
SOLID
 70
1
 71
0
 91
1
 92
3
 72
0
 73
1
 93
4
 10
171.5
 20
33.6
 10
174.3
 20
33.6
 10
174.3
 20
19.5
 10
171.5
 20
19.5
 97
0
 75
0
 76
1
 98
0
  0
HATCH
  5
C8
330
17
100
AcDbEntity
  8
RASTER
 62
7
100
AcDbHatch
 10
0.0
 20
0.0
 30
0.0
210
0.0
220
0.0
230
1.0
  2
SOLID
 70
1
 71
0
 91
1
 92
3
 72
0
 73
1
 93
48
 10
143.2
 20
31.65
 10
143.196
 20
31.585
 10
143.183
 20
31.521
 10
143.162
 20
31.459
 10
143.133
 20
31.4
 10
143.097
 20
31.346
 10
143.054
 20
31.296
 10
143.004
 20
31.253
 10
142.95
 20
31.217
 10
142.891
 20
31.188
 10
142.829
 20
31.167
 10
142.765
 20
31.154
 10
142.7
 20
31.15
 10
142.635
 20
31.154
 10
142.571
 20
31.167
 10
142.509
 20
31.188
 10
142.45
 20
31.217
 10
142.396
 20
31.253
 10
142.346
 20
31.296
 10
142.303
 20
31.346
 10
142.267
 20
31.4
 10
142.238
 20
31.459
 10
142.217
 20
31.521
 10
142.204
 20
31.585
 10
142.2
 20
31.65
 10
142.204
 20
31.715
 10
142.217
 20
31.779
 10
142.238
 20
31.841
 10
142.267
 20
31.9
 10
142.303
 20
31.954
 10
142.346
 20
32.004
 10
142.396
 20
32.047
 10
142.45
 20
32.083
 10
142.509
 20
32.112
 10
142.571
 20
32.133
 10
142.635
 20
32.146
 10
142.7
 20
32.15
 10
142.765
 20
32.146
 10
142.829
 20
32.133
 10
142.891
 20
32.112
 10
142.95
 20
32.083
 10
143.004
 20
32.047
 10
143.054
 20
32.004
 10
143.097
 20
31.954
 10
143.133
 20
31.9
 10
143.162
 20
31.841
 10
143.183
 20
31.779
 10
143.196
 20
31.715
 97
0
 75
0
 76
1
 98
0
  0
HATCH
  5
C9
330
17
100
AcDbEntity
  8
RASTER
 62
7
100
AcDbHatch
 10
0.0
 20
0.0
 30
0.0
210
0.0
220
0.0
230
1.0
  2
SOLID
 70
1
 71
0
 91
1
 92
3
 72
0
 73
1
 93
48
 10
169.8
 20
31.65
 10
169.796
 20
31.585
 10
169.783
 20
31.521
 10
169.762
 20
31.459
 10
169.733
 20
31.4
 10
169.697
 20
31.346
 10
169.654
 20
31.296
 10
169.604
 20
31.253
 10
169.55
 20
31.217
 10
169.491
 20
31.188
 10
169.429
 20
31.167
 10
169.365
 20
31.154
 10
169.3
 20
31.15
 10
169.235
 20
31.154
 10
169.171
 20
31.167
 10
169.109
 20
31.188
 10
169.05
 20
31.217
 10
168.996
 20
31.253
 10
168.946
 20
31.296
 10
168.903
 20
31.346
 10
168.867
 20
31.4
 10
168.838
 20
31.459
 10
168.817
 20
31.521
 10
168.804
 20
31.585
 10
168.8
 20
31.65
 10
168.804
 20
31.715
 10
168.817
 20
31.779
 10
168.838
 20
31.841
 10
168.867
 20
31.9
 10
168.903
 20
31.954
 10
168.946
 20
32.004
 10
168.996
 20
32.047
 10
169.05
 20
32.083
 10
169.109
 20
32.112
 10
169.171
 20
32.133
 10
169.235
 20
32.146
 10
169.3
 20
32.15
 10
169.365
 20
32.146
 10
169.429
 20
32.133
 10
169.491
 20
32.112
 10
169.55
 20
32.083
 10
169.604
 20
32.047
 10
169.654
 20
32.004
 10
169.697
 20
31.954
 10
169.733
 20
31.9
 10
169.762
 20
31.841
 10
169.783
 20
31.779
 10
169.796
 20
31.715
 97
0
 75
0
 76
1
 98
0
  0
HATCH
  5
CA
330
17
100
AcDbEntity
  8
RASTER
 62
7
100
AcDbHatch
 10
0.0
 20
0.0
 30
0.0
210
0.0
220
0.0
230
1.0
  2
SOLID
 70
1
 71
0
 91
1
 92
3
 72
0
 73
1
 93
48
 10
143.2
 20
26.55
 10
143.196
 20
26.485
 10
143.183
 20
26.421
 10
143.162
 20
26.359
 10
143.133
 20
26.3
 10
143.097
 20
26.246
 10
143.054
 20
26.196
 10
143.004
 20
26.153
 10
142.95
 20
26.117
 10
142.891
 20
26.088
 10
142.829
 20
26.067
 10
142.765
 20
26.054
 10
142.7
 20
26.05
 10
142.635
 20
26.054
 10
142.571
 20
26.067
 10
142.509
 20
26.088
 10
142.45
 20
26.117
 10
142.396
 20
26.153
 10
142.346
 20
26.196
 10
142.303
 20
26.246
 10
142.267
 20
26.3
 10
142.238
 20
26.359
 10
142.217
 20
26.421
 10
142.204
 20
26.485
 10
142.2
 20
26.55
 10
142.204
 20
26.615
 10
142.217
 20
26.679
 10
142.238
 20
26.741
 10
142.267
 20
26.8
 10
142.303
 20
26.854
 10
142.346
 20
26.904
 10
142.396
 20
26.947
 10
142.45
 20
26.983
 10
142.509
 20
27.012
 10
142.571
 20
27.033
 10
142.635
 20
27.046
 10
142.7
 20
27.05
 10
142.765
 20
27.046
 10
142.829
 20
27.033
 10
142.891
 20
27.012
 10
142.95
 20
26.983
 10
143.004
 20
26.947
 10
143.054
 20
26.904
 10
143.097
 20
26.854
 10
143.133
 20
26.8
 10
143.162
 20
26.741
 10
143.183
 20
26.679
 10
143.196
 20
26.615
 97
0
 75
0
 76
1
 98
0
  0
HATCH
  5
CB
330
17
100
AcDbEntity
  8
RASTER
 62
7
100
AcDbHatch
 10
0.0
 20
0.0
 30
0.0
210
0.0
220
0.0
230
1.0
  2
SOLID
 70
1
 71
0
 91
1
 92
3
 72
0
 73
1
 93
48
 10
169.8
 20
26.55
 10
169.796
 20
26.485
 10
169.783
 20
26.421
 10
169.762
 20
26.359
 10
169.733
 20
26.3
 10
169.697
 20
26.246
 10
169.654
 20
26.196
 10
169.604
 20
26.153
 10
169.55
 20
26.117
 10
169.491
 20
26.088
 10
169.429
 20
26.067
 10
169.365
 20
26.054
 10
169.3
 20
26.05
 10
169.235
 20
26.054
 10
169.171
 20
26.067
 10
169.109
 20
26.088
 10
169.05
 20
26.117
 10
168.996
 20
26.153
 10
168.946
 20
26.196
 10
168.903
 20
26.246
 10
168.867
 20
26.3
 10
168.838
 20
26.359
 10
168.817
 20
26.421
 10
168.804
 20
26.485
 10
168.8
 20
26.55
 10
168.804
 20
26.615
 10
168.817
 20
26.679
 10
168.838
 20
26.741
 10
168.867
 20
26.8
 10
168.903
 20
26.854
 10
168.946
 20
26.904
 10
168.996
 20
26.947
 10
169.05
 20
26.983
 10
169.109
 20
27.012
 10
169.171
 20
27.033
 10
169.235
 20
27.046
 10
169.3
 20
27.05
 10
169.365
 20
27.046
 10
169.429
 20
27.033
 10
169.491
 20
27.012
 10
169.55
 20
26.983
 10
169.604
 20
26.947
 10
169.654
 20
26.904
 10
169.697
 20
26.854
 10
169.733
 20
26.8
 10
169.762
 20
26.741
 10
169.783
 20
26.679
 10
169.796
 20
26.615
 97
0
 75
0
 76
1
 98
0
  0
HATCH
  5
CC
330
17
100
AcDbEntity
  8
RASTER
 62
7
100
AcDbHatch
 10
0.0
 20
0.0
 30
0.0
210
0.0
220
0.0
230
1.0
  2
SOLID
 70
1
 71
0
 91
1
 92
3
 72
0
 73
1
 93
48
 10
143.2
 20
21.45
 10
143.196
 20
21.385
 10
143.183
 20
21.321
 10
143.162
 20
21.259
 10
143.133
 20
21.2
 10
143.097
 20
21.146
 10
143.054
 20
21.096
 10
143.004
 20
21.053
 10
142.95
 20
21.017
 10
142.891
 20
20.988
 10
142.829
 20
20.967
 10
142.765
 20
20.954
 10
142.7
 20
20.95
 10
142.635
 20
20.954
 10
142.571
 20
20.967
 10
142.509
 20
20.988
 10
142.45
 20
21.017
 10
142.396
 20
21.053
 10
142.346
 20
21.096
 10
142.303
 20
21.146
 10
142.267
 20
21.2
 10
142.238
 20
21.259
 10
142.217
 20
21.321
 10
142.204
 20
21.385
 10
142.2
 20
21.45
 10
142.204
 20
21.515
 10
142.217
 20
21.579
 10
142.238
 20
21.641
 10
142.267
 20
21.7
 10
142.303
 20
21.754
 10
142.346
 20
21.804
 10
142.396
 20
21.847
 10
142.45
 20
21.883
 10
142.509
 20
21.912
 10
142.571
 20
21.933
 10
142.635
 20
21.946
 10
142.7
 20
21.95
 10
142.765
 20
21.946
 10
142.829
 20
21.933
 10
142.891
 20
21.912
 10
142.95
 20
21.883
 10
143.004
 20
21.847
 10
143.054
 20
21.804
 10
143.097
 20
21.754
 10
143.133
 20
21.7
 10
143.162
 20
21.641
 10
143.183
 20
21.579
 10
143.196
 20
21.515
 97
0
 75
0
 76
1
 98
0
  0
HATCH
  5
CD
330
17
100
AcDbEntity
  8
RASTER
 62
7
100
AcDbHatch
 10
0.0
 20
0.0
 30
0.0
210
0.0
220
0.0
230
1.0
  2
SOLID
 70
1
 71
0
 91
1
 92
3
 72
0
 73
1
 93
48
 10
169.8
 20
21.45
 10
169.796
 20
21.385
 10
169.783
 20
21.321
 10
169.762
 20
21.259
 10
169.733
 20
21.2
 10
169.697
 20
21.146
 10
169.654
 20
21.096
 10
169.604
 20
21.053
 10
169.55
 20
21.017
 10
169.491
 20
20.988
 10
169.429
 20
20.967
 10
169.365
 20
20.954
 10
169.3
 20
20.95
 10
169.235
 20
20.954
 10
169.171
 20
20.967
 10
169.109
 20
20.988
 10
169.05
 20
21.017
 10
168.996
 20
21.053
 10
168.946
 20
21.096
 10
168.903
 20
21.146
 10
168.867
 20
21.2
 10
168.838
 20
21.259
 10
168.817
 20
21.321
 10
168.804
 20
21.385
 10
168.8
 20
21.45
 10
168.804
 20
21.515
 10
168.817
 20
21.579
 10
168.838
 20
21.641
 10
168.867
 20
21.7
 10
168.903
 20
21.754
 10
168.946
 20
21.804
 10
168.996
 20
21.847
 10
169.05
 20
21.883
 10
169.109
 20
21.912
 10
169.171
 20
21.933
 10
169.235
 20
21.946
 10
169.3
 20
21.95
 10
169.365
 20
21.946
 10
169.429
 20
21.933
 10
169.491
 20
21.912
 10
169.55
 20
21.883
 10
169.604
 20
21.847
 10
169.654
 20
21.804
 10
169.697
 20
21.754
 10
169.733
 20
21.7
 10
169.762
 20
21.641
 10
169.783
 20
21.579
 10
169.796
 20
21.515
 97
0
 75
0
 76
1
 98
0
  0
LWPOLYLINE
  5
CE
330
17
100
AcDbEntity
  8
CUT
100
AcDbPolyline
 90
20
 70
1
 10
185.06
 20
34.04
 10
208.94
 20
34.04
 10
208.94
 20
29.073
 10
212.04
 20
29.073
 10
212.04
 20
24.027
 10
208.94
 20
24.027
 10
208.94
 20
19.06
 10
204.18
 20
19.06
 10
204.18
 20
15.96
 10
199.34
 20
15.96
 10
199.34
 20
19.06
 10
194.66
 20
19.06
 10
194.66
 20
15.96
 10
189.82
 20
15.96
 10
189.82
 20
19.06
 10
185.06
 20
19.06
 10
185.06
 20
24.027
 10
181.96
 20
24.027
 10
181.96
 20
29.073
 10
185.06
 20
29.073
  0
LWPOLYLINE
  5
CF
330
17
100
AcDbEntity
  8
CUT
100
AcDbPolyline
 90
4
 70
1
 10
189.14
 20
29.76
 10
204.86
 20
29.76
 10
204.86
 20
28.44
 10
189.14
 20
28.44
  0
LWPOLYLINE
  5
D0
330
17
100
AcDbEntity
  8
CUT
100
AcDbPolyline
 90
4
 70
1
 10
189.14
 20
24.66
 10
204.86
 20
24.66
 10
204.86
 20
23.34
 10
189.14
 20
23.34
  0
HATCH
  5
D1
330
17
100
AcDbEntity
  8
RASTER
 62
7
100
AcDbHatch
 10
0.0
 20
0.0
 30
0.0
210
0.0
220
0.0
230
1.0
  2
SOLID
 70
1
 71
0
 91
1
 92
3
 72
0
 73
1
 93
4
 10
185.7
 20
33.6
 10
188.5
 20
33.6
 10
188.5
 20
19.5
 10
185.7
 20
19.5
 97
0
 75
0
 76
1
 98
0
  0
HATCH
  5
D2
330
17
100
AcDbEntity
  8
RASTER
 62
7
100
AcDbHatch
 10
0.0
 20
0.0
 30
0.0
210
0.0
220
0.0
230
1.0
  2
SOLID
 70
1
 71
0
 91
1
 92
3
 72
0
 73
1
 93
4
 10
205.5
 20
33.6
 10
208.3
 20
33.6
 10
208.3
 20
19.5
 10
205.5
 20
19.5
 97
0
 75
0
 76
1
 98
0
  0
HATCH
  5
D3
330
17
100
AcDbEntity
  8
RASTER
 62
7
100
AcDbHatch
 10
0.0
 20
0.0
 30
0.0
210
0.0
220
0.0
230
1.0
  2
SOLID
 70
1
 71
0
 91
1
 92
3
 72
0
 73
1
 93
48
 10
191.2
 20
31.65
 10
191.196
 20
31.585
 10
191.183
 20
31.521
 10
191.162
 20
31.459
 10
191.133
 20
31.4
 10
191.097
 20
31.346
 10
191.054
 20
31.296
 10
191.004
 20
31.253
 10
190.95
 20
31.217
 10
190.891
 20
31.188
 10
190.829
 20
31.167
 10
190.765
 20
31.154
 10
190.7
 20
31.15
 10
190.635
 20
31.154
 10
190.571
 20
31.167
 10
190.509
 20
31.188
 10
190.45
 20
31.217
 10
190.396
 20
31.253
 10
190.346
 20
31.296
 10
190.303
 20
31.346
 10
190.267
 20
31.4
 10
190.238
 20
31.459
 10
190.217
 20
31.521
 10
190.204
 20
31.585
 10
190.2
 20
31.65
 10
190.204
 20
31.715
 10
190.217
 20
31.779
 10
190.238
 20
31.841
 10
190.267
 20
31.9
 10
190.303
 20
31.954
 10
190.346
 20
32.004
 10
190.396
 20
32.047
 10
190.45
 20
32.083
 10
190.509
 20
32.112
 10
190.571
 20
32.133
 10
190.635
 20
32.146
 10
190.7
 20
32.15
 10
190.765
 20
32.146
 10
190.829
 20
32.133
 10
190.891
 20
32.112
 10
190.95
 20
32.083
 10
191.004
 20
32.047
 10
191.054
 20
32.004
 10
191.097
 20
31.954
 10
191.133
 20
31.9
 10
191.162
 20
31.841
 10
191.183
 20
31.779
 10
191.196
 20
31.715
 97
0
 75
0
 76
1
 98
0
  0
HATCH
  5
D4
330
17
100
AcDbEntity
  8
RASTER
 62
7
100
AcDbHatch
 10
0.0
 20
0.0
 30
0.0
210
0.0
220
0.0
230
1.0
  2
SOLID
 70
1
 71
0
 91
1
 92
3
 72
0
 73
1
 93
48
 10
203.8
 20
31.65
 10
203.796
 20
31.585
 10
203.783
 20
31.521
 10
203.762
 20
31.459
 10
203.733
 20
31.4
 10
203.697
 20
31.346
 10
203.654
 20
31.296
 10
203.604
 20
31.253
 10
203.55
 20
31.217
 10
203.491
 20
31.188
 10
203.429
 20
31.167
 10
203.365
 20
31.154
 10
203.3
 20
31.15
 10
203.235
 20
31.154
 10
203.171
 20
31.167
 10
203.109
 20
31.188
 10
203.05
 20
31.217
 10
202.996
 20
31.253
 10
202.946
 20
31.296
 10
202.903
 20
31.346
 10
202.867
 20
31.4
 10
202.838
 20
31.459
 10
202.817
 20
31.521
 10
202.804
 20
31.585
 10
202.8
 20
31.65
 10
202.804
 20
31.715
 10
202.817
 20
31.779
 10
202.838
 20
31.841
 10
202.867
 20
31.9
 10
202.903
 20
31.954
 10
202.946
 20
32.004
 10
202.996
 20
32.047
 10
203.05
 20
32.083
 10
203.109
 20
32.112
 10
203.171
 20
32.133
 10
203.235
 20
32.146
 10
203.3
 20
32.15
 10
203.365
 20
32.146
 10
203.429
 20
32.133
 10
203.491
 20
32.112
 10
203.55
 20
32.083
 10
203.604
 20
32.047
 10
203.654
 20
32.004
 10
203.697
 20
31.954
 10
203.733
 20
31.9
 10
203.762
 20
31.841
 10
203.783
 20
31.779
 10
203.796
 20
31.715
 97
0
 75
0
 76
1
 98
0
  0
HATCH
  5
D5
330
17
100
AcDbEntity
  8
RASTER
 62
7
100
AcDbHatch
 10
0.0
 20
0.0
 30
0.0
210
0.0
220
0.0
230
1.0
  2
SOLID
 70
1
 71
0
 91
1
 92
3
 72
0
 73
1
 93
48
 10
191.2
 20
26.55
 10
191.196
 20
26.485
 10
191.183
 20
26.421
 10
191.162
 20
26.359
 10
191.133
 20
26.3
 10
191.097
 20
26.246
 10
191.054
 20
26.196
 10
191.004
 20
26.153
 10
190.95
 20
26.117
 10
190.891
 20
26.088
 10
190.829
 20
26.067
 10
190.765
 20
26.054
 10
190.7
 20
26.05
 10
190.635
 20
26.054
 10
190.571
 20
26.067
 10
190.509
 20
26.088
 10
190.45
 20
26.117
 10
190.396
 20
26.153
 10
190.346
 20
26.196
 10
190.303
 20
26.246
 10
190.267
 20
26.3
 10
190.238
 20
26.359
 10
190.217
 20
26.421
 10
190.204
 20
26.485
 10
190.2
 20
26.55
 10
190.204
 20
26.615
 10
190.217
 20
26.679
 10
190.238
 20
26.741
 10
190.267
 20
26.8
 10
190.303
 20
26.854
 10
190.346
 20
26.904
 10
190.396
 20
26.947
 10
190.45
 20
26.983
 10
190.509
 20
27.012
 10
190.571
 20
27.033
 10
190.635
 20
27.046
 10
190.7
 20
27.05
 10
190.765
 20
27.046
 10
190.829
 20
27.033
 10
190.891
 20
27.012
 10
190.95
 20
26.983
 10
191.004
 20
26.947
 10
191.054
 20
26.904
 10
191.097
 20
26.854
 10
191.133
 20
26.8
 10
191.162
 20
26.741
 10
191.183
 20
26.679
 10
191.196
 20
26.615
 97
0
 75
0
 76
1
 98
0
  0
HATCH
  5
D6
330
17
100
AcDbEntity
  8
RASTER
 62
7
100
AcDbHatch
 10
0.0
 20
0.0
 30
0.0
210
0.0
220
0.0
230
1.0
  2
SOLID
 70
1
 71
0
 91
1
 92
3
 72
0
 73
1
 93
48
 10
203.8
 20
26.55
 10
203.796
 20
26.485
 10
203.783
 20
26.421
 10
203.762
 20
26.359
 10
203.733
 20
26.3
 10
203.697
 20
26.246
 10
203.654
 20
26.196
 10
203.604
 20
26.153
 10
203.55
 20
26.117
 10
203.491
 20
26.088
 10
203.429
 20
26.067
 10
203.365
 20
26.054
 10
203.3
 20
26.05
 10
203.235
 20
26.054
 10
203.171
 20
26.067
 10
203.109
 20
26.088
 10
203.05
 20
26.117
 10
202.996
 20
26.153
 10
202.946
 20
26.196
 10
202.903
 20
26.246
 10
202.867
 20
26.3
 10
202.838
 20
26.359
 10
202.817
 20
26.421
 10
202.804
 20
26.485
 10
202.8
 20
26.55
 10
202.804
 20
26.615
 10
202.817
 20
26.679
 10
202.838
 20
26.741
 10
202.867
 20
26.8
 10
202.903
 20
26.854
 10
202.946
 20
26.904
 10
202.996
 20
26.947
 10
203.05
 20
26.983
 10
203.109
 20
27.012
 10
203.171
 20
27.033
 10
203.235
 20
27.046
 10
203.3
 20
27.05
 10
203.365
 20
27.046
 10
203.429
 20
27.033
 10
203.491
 20
27.012
 10
203.55
 20
26.983
 10
203.604
 20
26.947
 10
203.654
 20
26.904
 10
203.697
 20
26.854
 10
203.733
 20
26.8
 10
203.762
 20
26.741
 10
203.783
 20
26.679
 10
203.796
 20
26.615
 97
0
 75
0
 76
1
 98
0
  0
HATCH
  5
D7
330
17
100
AcDbEntity
  8
RASTER
 62
7
100
AcDbHatch
 10
0.0
 20
0.0
 30
0.0
210
0.0
220
0.0
230
1.0
  2
SOLID
 70
1
 71
0
 91
1
 92
3
 72
0
 73
1
 93
48
 10
191.2
 20
21.45
 10
191.196
 20
21.385
 10
191.183
 20
21.321
 10
191.162
 20
21.259
 10
191.133
 20
21.2
 10
191.097
 20
21.146
 10
191.054
 20
21.096
 10
191.004
 20
21.053
 10
190.95
 20
21.017
 10
190.891
 20
20.988
 10
190.829
 20
20.967
 10
190.765
 20
20.954
 10
190.7
 20
20.95
 10
190.635
 20
20.954
 10
190.571
 20
20.967
 10
190.509
 20
20.988
 10
190.45
 20
21.017
 10
190.396
 20
21.053
 10
190.346
 20
21.096
 10
190.303
 20
21.146
 10
190.267
 20
21.2
 10
190.238
 20
21.259
 10
190.217
 20
21.321
 10
190.204
 20
21.385
 10
190.2
 20
21.45
 10
190.204
 20
21.515
 10
190.217
 20
21.579
 10
190.238
 20
21.641
 10
190.267
 20
21.7
 10
190.303
 20
21.754
 10
190.346
 20
21.804
 10
190.396
 20
21.847
 10
190.45
 20
21.883
 10
190.509
 20
21.912
 10
190.571
 20
21.933
 10
190.635
 20
21.946
 10
190.7
 20
21.95
 10
190.765
 20
21.946
 10
190.829
 20
21.933
 10
190.891
 20
21.912
 10
190.95
 20
21.883
 10
191.004
 20
21.847
 10
191.054
 20
21.804
 10
191.097
 20
21.754
 10
191.133
 20
21.7
 10
191.162
 20
21.641
 10
191.183
 20
21.579
 10
191.196
 20
21.515
 97
0
 75
0
 76
1
 98
0
  0
HATCH
  5
D8
330
17
100
AcDbEntity
  8
RASTER
 62
7
100
AcDbHatch
 10
0.0
 20
0.0
 30
0.0
210
0.0
220
0.0
230
1.0
  2
SOLID
 70
1
 71
0
 91
1
 92
3
 72
0
 73
1
 93
48
 10
203.8
 20
21.45
 10
203.796
 20
21.385
 10
203.783
 20
21.321
 10
203.762
 20
21.259
 10
203.733
 20
21.2
 10
203.697
 20
21.146
 10
203.654
 20
21.096
 10
203.604
 20
21.053
 10
203.55
 20
21.017
 10
203.491
 20
20.988
 10
203.429
 20
20.967
 10
203.365
 20
20.954
 10
203.3
 20
20.95
 10
203.235
 20
20.954
 10
203.171
 20
20.967
 10
203.109
 20
20.988
 10
203.05
 20
21.017
 10
202.996
 20
21.053
 10
202.946
 20
21.096
 10
202.903
 20
21.146
 10
202.867
 20
21.2
 10
202.838
 20
21.259
 10
202.817
 20
21.321
 10
202.804
 20
21.385
 10
202.8
 20
21.45
 10
202.804
 20
21.515
 10
202.817
 20
21.579
 10
202.838
 20
21.641
 10
202.867
 20
21.7
 10
202.903
 20
21.754
 10
202.946
 20
21.804
 10
202.996
 20
21.847
 10
203.05
 20
21.883
 10
203.109
 20
21.912
 10
203.171
 20
21.933
 10
203.235
 20
21.946
 10
203.3
 20
21.95
 10
203.365
 20
21.946
 10
203.429
 20
21.933
 10
203.491
 20
21.912
 10
203.55
 20
21.883
 10
203.604
 20
21.847
 10
203.654
 20
21.804
 10
203.697
 20
21.754
 10
203.733
 20
21.7
 10
203.762
 20
21.641
 10
203.783
 20
21.579
 10
203.796
 20
21.515
 97
0
 75
0
 76
1
 98
0
  0
LWPOLYLINE
  5
D9
330
17
100
AcDbEntity
  8
CUT
100
AcDbPolyline
 90
20
 70
1
 10
219.06
 20
34.04
 10
242.94
 20
34.04
 10
242.94
 20
29.073
 10
246.04
 20
29.073
 10
246.04
 20
24.027
 10
242.94
 20
24.027
 10
242.94
 20
19.06
 10
238.18
 20
19.06
 10
238.18
 20
15.96
 10
233.34
 20
15.96
 10
233.34
 20
19.06
 10
228.66
 20
19.06
 10
228.66
 20
15.96
 10
223.82
 20
15.96
 10
223.82
 20
19.06
 10
219.06
 20
19.06
 10
219.06
 20
24.027
 10
215.96
 20
24.027
 10
215.96
 20
29.073
 10
219.06
 20
29.073
  0
LWPOLYLINE
  5
DA
330
17
100
AcDbEntity
  8
CUT
100
AcDbPolyline
 90
4
 70
1
 10
223.14
 20
29.76
 10
238.86
 20
29.76
 10
238.86
 20
28.44
 10
223.14
 20
28.44
  0
LWPOLYLINE
  5
DB
330
17
100
AcDbEntity
  8
CUT
100
AcDbPolyline
 90
4
 70
1
 10
223.14
 20
24.66
 10
238.86
 20
24.66
 10
238.86
 20
23.34
 10
223.14
 20
23.34
  0
HATCH
  5
DC
330
17
100
AcDbEntity
  8
RASTER
 62
7
100
AcDbHatch
 10
0.0
 20
0.0
 30
0.0
210
0.0
220
0.0
230
1.0
  2
SOLID
 70
1
 71
0
 91
1
 92
3
 72
0
 73
1
 93
4
 10
219.7
 20
33.6
 10
222.5
 20
33.6
 10
222.5
 20
19.5
 10
219.7
 20
19.5
 97
0
 75
0
 76
1
 98
0
  0
HATCH
  5
DD
330
17
100
AcDbEntity
  8
RASTER
 62
7
100
AcDbHatch
 10
0.0
 20
0.0
 30
0.0
210
0.0
220
0.0
230
1.0
  2
SOLID
 70
1
 71
0
 91
1
 92
3
 72
0
 73
1
 93
4
 10
239.5
 20
33.6
 10
242.3
 20
33.6
 10
242.3
 20
19.5
 10
239.5
 20
19.5
 97
0
 75
0
 76
1
 98
0
  0
HATCH
  5
DE
330
17
100
AcDbEntity
  8
RASTER
 62
7
100
AcDbHatch
 10
0.0
 20
0.0
 30
0.0
210
0.0
220
0.0
230
1.0
  2
SOLID
 70
1
 71
0
 91
1
 92
3
 72
0
 73
1
 93
48
 10
225.2
 20
31.65
 10
225.196
 20
31.585
 10
225.183
 20
31.521
 10
225.162
 20
31.459
 10
225.133
 20
31.4
 10
225.097
 20
31.346
 10
225.054
 20
31.296
 10
225.004
 20
31.253
 10
224.95
 20
31.217
 10
224.891
 20
31.188
 10
224.829
 20
31.167
 10
224.765
 20
31.154
 10
224.7
 20
31.15
 10
224.635
 20
31.154
 10
224.571
 20
31.167
 10
224.509
 20
31.188
 10
224.45
 20
31.217
 10
224.396
 20
31.253
 10
224.346
 20
31.296
 10
224.303
 20
31.346
 10
224.267
 20
31.4
 10
224.238
 20
31.459
 10
224.217
 20
31.521
 10
224.204
 20
31.585
 10
224.2
 20
31.65
 10
224.204
 20
31.715
 10
224.217
 20
31.779
 10
224.238
 20
31.841
 10
224.267
 20
31.9
 10
224.303
 20
31.954
 10
224.346
 20
32.004
 10
224.396
 20
32.047
 10
224.45
 20
32.083
 10
224.509
 20
32.112
 10
224.571
 20
32.133
 10
224.635
 20
32.146
 10
224.7
 20
32.15
 10
224.765
 20
32.146
 10
224.829
 20
32.133
 10
224.891
 20
32.112
 10
224.95
 20
32.083
 10
225.004
 20
32.047
 10
225.054
 20
32.004
 10
225.097
 20
31.954
 10
225.133
 20
31.9
 10
225.162
 20
31.841
 10
225.183
 20
31.779
 10
225.196
 20
31.715
 97
0
 75
0
 76
1
 98
0
  0
HATCH
  5
DF
330
17
100
AcDbEntity
  8
RASTER
 62
7
100
AcDbHatch
 10
0.0
 20
0.0
 30
0.0
210
0.0
220
0.0
230
1.0
  2
SOLID
 70
1
 71
0
 91
1
 92
3
 72
0
 73
1
 93
48
 10
237.8
 20
31.65
 10
237.796
 20
31.585
 10
237.783
 20
31.521
 10
237.762
 20
31.459
 10
237.733
 20
31.4
 10
237.697
 20
31.346
 10
237.654
 20
31.296
 10
237.604
 20
31.253
 10
237.55
 20
31.217
 10
237.491
 20
31.188
 10
237.429
 20
31.167
 10
237.365
 20
31.154
 10
237.3
 20
31.15
 10
237.235
 20
31.154
 10
237.171
 20
31.167
 10
237.109
 20
31.188
 10
237.05
 20
31.217
 10
236.996
 20
31.253
 10
236.946
 20
31.296
 10
236.903
 20
31.346
 10
236.867
 20
31.4
 10
236.838
 20
31.459
 10
236.817
 20
31.521
 10
236.804
 20
31.585
 10
236.8
 20
31.65
 10
236.804
 20
31.715
 10
236.817
 20
31.779
 10
236.838
 20
31.841
 10
236.867
 20
31.9
 10
236.903
 20
31.954
 10
236.946
 20
32.004
 10
236.996
 20
32.047
 10
237.05
 20
32.083
 10
237.109
 20
32.112
 10
237.171
 20
32.133
 10
237.235
 20
32.146
 10
237.3
 20
32.15
 10
237.365
 20
32.146
 10
237.429
 20
32.133
 10
237.491
 20
32.112
 10
237.55
 20
32.083
 10
237.604
 20
32.047
 10
237.654
 20
32.004
 10
237.697
 20
31.954
 10
237.733
 20
31.9
 10
237.762
 20
31.841
 10
237.783
 20
31.779
 10
237.796
 20
31.715
 97
0
 75
0
 76
1
 98
0
  0
HATCH
  5
E0
330
17
100
AcDbEntity
  8
RASTER
 62
7
100
AcDbHatch
 10
0.0
 20
0.0
 30
0.0
210
0.0
220
0.0
230
1.0
  2
SOLID
 70
1
 71
0
 91
1
 92
3
 72
0
 73
1
 93
48
 10
225.2
 20
26.55
 10
225.196
 20
26.485
 10
225.183
 20
26.421
 10
225.162
 20
26.359
 10
225.133
 20
26.3
 10
225.097
 20
26.246
 10
225.054
 20
26.196
 10
225.004
 20
26.153
 10
224.95
 20
26.117
 10
224.891
 20
26.088
 10
224.829
 20
26.067
 10
224.765
 20
26.054
 10
224.7
 20
26.05
 10
224.635
 20
26.054
 10
224.571
 20
26.067
 10
224.509
 20
26.088
 10
224.45
 20
26.117
 10
224.396
 20
26.153
 10
224.346
 20
26.196
 10
224.303
 20
26.246
 10
224.267
 20
26.3
 10
224.238
 20
26.359
 10
224.217
 20
26.421
 10
224.204
 20
26.485
 10
224.2
 20
26.55
 10
224.204
 20
26.615
 10
224.217
 20
26.679
 10
224.238
 20
26.741
 10
224.267
 20
26.8
 10
224.303
 20
26.854
 10
224.346
 20
26.904
 10
224.396
 20
26.947
 10
224.45
 20
26.983
 10
224.509
 20
27.012
 10
224.571
 20
27.033
 10
224.635
 20
27.046
 10
224.7
 20
27.05
 10
224.765
 20
27.046
 10
224.829
 20
27.033
 10
224.891
 20
27.012
 10
224.95
 20
26.983
 10
225.004
 20
26.947
 10
225.054
 20
26.904
 10
225.097
 20
26.854
 10
225.133
 20
26.8
 10
225.162
 20
26.741
 10
225.183
 20
26.679
 10
225.196
 20
26.615
 97
0
 75
0
 76
1
 98
0
  0
HATCH
  5
E1
330
17
100
AcDbEntity
  8
RASTER
 62
7
100
AcDbHatch
 10
0.0
 20
0.0
 30
0.0
210
0.0
220
0.0
230
1.0
  2
SOLID
 70
1
 71
0
 91
1
 92
3
 72
0
 73
1
 93
48
 10
237.8
 20
26.55
 10
237.796
 20
26.485
 10
237.783
 20
26.421
 10
237.762
 20
26.359
 10
237.733
 20
26.3
 10
237.697
 20
26.246
 10
237.654
 20
26.196
 10
237.604
 20
26.153
 10
237.55
 20
26.117
 10
237.491
 20
26.088
 10
237.429
 20
26.067
 10
237.365
 20
26.054
 10
237.3
 20
26.05
 10
237.235
 20
26.054
 10
237.171
 20
26.067
 10
237.109
 20
26.088
 10
237.05
 20
26.117
 10
236.996
 20
26.153
 10
236.946
 20
26.196
 10
236.903
 20
26.246
 10
236.867
 20
26.3
 10
236.838
 20
26.359
 10
236.817
 20
26.421
 10
236.804
 20
26.485
 10
236.8
 20
26.55
 10
236.804
 20
26.615
 10
236.817
 20
26.679
 10
236.838
 20
26.741
 10
236.867
 20
26.8
 10
236.903
 20
26.854
 10
236.946
 20
26.904
 10
236.996
 20
26.947
 10
237.05
 20
26.983
 10
237.109
 20
27.012
 10
237.171
 20
27.033
 10
237.235
 20
27.046
 10
237.3
 20
27.05
 10
237.365
 20
27.046
 10
237.429
 20
27.033
 10
237.491
 20
27.012
 10
237.55
 20
26.983
 10
237.604
 20
26.947
 10
237.654
 20
26.904
 10
237.697
 20
26.854
 10
237.733
 20
26.8
 10
237.762
 20
26.741
 10
237.783
 20
26.679
 10
237.796
 20
26.615
 97
0
 75
0
 76
1
 98
0
  0
HATCH
  5
E2
330
17
100
AcDbEntity
  8
RASTER
 62
7
100
AcDbHatch
 10
0.0
 20
0.0
 30
0.0
210
0.0
220
0.0
230
1.0
  2
SOLID
 70
1
 71
0
 91
1
 92
3
 72
0
 73
1
 93
48
 10
225.2
 20
21.45
 10
225.196
 20
21.385
 10
225.183
 20
21.321
 10
225.162
 20
21.259
 10
225.133
 20
21.2
 10
225.097
 20
21.146
 10
225.054
 20
21.096
 10
225.004
 20
21.053
 10
224.95
 20
21.017
 10
224.891
 20
20.988
 10
224.829
 20
20.967
 10
224.765
 20
20.954
 10
224.7
 20
20.95
 10
224.635
 20
20.954
 10
224.571
 20
20.967
 10
224.509
 20
20.988
 10
224.45
 20
21.017
 10
224.396
 20
21.053
 10
224.346
 20
21.096
 10
224.303
 20
21.146
 10
224.267
 20
21.2
 10
224.238
 20
21.259
 10
224.217
 20
21.321
 10
224.204
 20
21.385
 10
224.2
 20
21.45
 10
224.204
 20
21.515
 10
224.217
 20
21.579
 10
224.238
 20
21.641
 10
224.267
 20
21.7
 10
224.303
 20
21.754
 10
224.346
 20
21.804
 10
224.396
 20
21.847
 10
224.45
 20
21.883
 10
224.509
 20
21.912
 10
224.571
 20
21.933
 10
224.635
 20
21.946
 10
224.7
 20
21.95
 10
224.765
 20
21.946
 10
224.829
 20
21.933
 10
224.891
 20
21.912
 10
224.95
 20
21.883
 10
225.004
 20
21.847
 10
225.054
 20
21.804
 10
225.097
 20
21.754
 10
225.133
 20
21.7
 10
225.162
 20
21.641
 10
225.183
 20
21.579
 10
225.196
 20
21.515
 97
0
 75
0
 76
1
 98
0
  0
HATCH
  5
E3
330
17
100
AcDbEntity
  8
RASTER
 62
7
100
AcDbHatch
 10
0.0
 20
0.0
 30
0.0
210
0.0
220
0.0
230
1.0
  2
SOLID
 70
1
 71
0
 91
1
 92
3
 72
0
 73
1
 93
48
 10
237.8
 20
21.45
 10
237.796
 20
21.385
 10
237.783
 20
21.321
 10
237.762
 20
21.259
 10
237.733
 20
21.2
 10
237.697
 20
21.146
 10
237.654
 20
21.096
 10
237.604
 20
21.053
 10
237.55
 20
21.017
 10
237.491
 20
20.988
 10
237.429
 20
20.967
 10
237.365
 20
20.954
 10
237.3
 20
20.95
 10
237.235
 20
20.954
 10
237.171
 20
20.967
 10
237.109
 20
20.988
 10
237.05
 20
21.017
 10
236.996
 20
21.053
 10
236.946
 20
21.096
 10
236.903
 20
21.146
 10
236.867
 20
21.2
 10
236.838
 20
21.259
 10
236.817
 20
21.321
 10
236.804
 20
21.385
 10
236.8
 20
21.45
 10
236.804
 20
21.515
 10
236.817
 20
21.579
 10
236.838
 20
21.641
 10
236.867
 20
21.7
 10
236.903
 20
21.754
 10
236.946
 20
21.804
 10
236.996
 20
21.847
 10
237.05
 20
21.883
 10
237.109
 20
21.912
 10
237.171
 20
21.933
 10
237.235
 20
21.946
 10
237.3
 20
21.95
 10
237.365
 20
21.946
 10
237.429
 20
21.933
 10
237.491
 20
21.912
 10
237.55
 20
21.883
 10
237.604
 20
21.847
 10
237.654
 20
21.804
 10
237.697
 20
21.754
 10
237.733
 20
21.7
 10
237.762
 20
21.641
 10
237.783
 20
21.579
 10
237.796
 20
21.515
 97
0
 75
0
 76
1
 98
0
  0
LWPOLYLINE
  5
E4
330
17
100
AcDbEntity
  8
CUT
100
AcDbPolyline
 90
52
 70
1
 10
249.96
 20
34.04
 10
253.1
 20
34.04
 10
258.54
 20
34.04
 10
258.54
 20
30.94
 10
263.86
 20
30.94
 10
263.86
 20
34.04
 10
269.34
 20
34.04
 10
269.34
 20
30.94
 10
274.66
 20
30.94
 10
274.66
 20
34.04
 10
280.14
 20
34.04
 10
280.14
 20
30.94
 10
285.46
 20
30.94
 10
285.46
 20
34.04
 10
290.9
 20
34.04
 10
294.04
 20
34.04
 10
294.04
 20
30.9
 10
294.04
 20
26.1
 10
290.94
 20
26.1
 10
290.94
 20
21.42
 10
294.04
 20
21.42
 10
294.04
 20
16.58
 10
290.94
 20
16.58
 10
290.94
 20
11.9
 10
294.04
 20
11.9
 10
294.04
 20
7.1
 10
294.04
 20
3.96
 10
290.9
 20
3.96
 10
285.46
 20
3.96
 10
285.46
 20
7.06
 10
280.14
 20
7.06
 10
280.14
 20
3.96
 10
274.66
 20
3.96
 10
274.66
 20
7.06
 10
269.34
 20
7.06
 10
269.34
 20
3.96
 10
263.86
 20
3.96
 10
263.86
 20
7.06
 10
258.54
 20
7.06
 10
258.54
 20
3.96
 10
253.1
 20
3.96
 10
249.96
 20
3.96
 10
249.96
 20
7.1
 10
249.96
 20
11.9
 10
253.06
 20
11.9
 10
253.06
 20
16.58
 10
249.96
 20
16.58
 10
249.96
 20
21.42
 10
253.06
 20
21.42
 10
253.06
 20
26.1
 10
249.96
 20
26.1
 10
249.96
 20
30.9
  0
ENDSEC
  0
SECTION
  2
OBJECTS
  0
DICTIONARY
  5
A
330
0
100
AcDbDictionary
281
1
  3
ACAD_COLOR
350
B
  3
ACAD_GROUP
350
C
  3
ACAD_LAYOUT
350
D
  3
ACAD_MATERIAL
350
E
  3
ACAD_MLEADERSTYLE
350
F
  3
ACAD_MLINESTYLE
350
10
  3
ACAD_PLOTSETTINGS
350
11
  3
ACAD_PLOTSTYLENAME
350
12
  3
ACAD_SCALELIST
350
14
  3
ACAD_TABLESTYLE
350
15
  3
ACAD_VISUALSTYLE
350
16
  3
EZDXF_META
350
2D
  0
DICTIONARY
  5
B
330
A
100
AcDbDictionary
281
1
  0
DICTIONARY
  5
C
330
A
100
AcDbDictionary
281
1
  0
DICTIONARY
  5
D
330
A
100
AcDbDictionary
281
1
  3
Model
350
1A
  3
Layout1
350
1E
  0
DICTIONARY
  5
E
330
A
100
AcDbDictionary
281
1
  3
ByBlock
350
1F
  3
ByLayer
350
20
  3
Global
350
21
  0
DICTIONARY
  5
F
330
A
100
AcDbDictionary
281
1
  3
Standard
350
2C
  0
DICTIONARY
  5
10
330
A
100
AcDbDictionary
281
1
  3
Standard
350
22
  0
DICTIONARY
  5
11
330
A
100
AcDbDictionary
281
1
  0
ACDBDICTIONARYWDFLT
  5
12
330
A
100
AcDbDictionary
281
1
  3
Normal
350
13
100
AcDbDictionaryWithDefault
340
13
  0
ACDBPLACEHOLDER
  5
13
330
12
  0
DICTIONARY
  5
14
330
A
100
AcDbDictionary
281
1
  0
DICTIONARY
  5
15
330
A
100
AcDbDictionary
281
1
  0
DICTIONARY
  5
16
330
A
100
AcDbDictionary
281
1
  0
LAYOUT
  5
1A
330
D
100
AcDbPlotSettings
  1

  4
A3
  6

 40
7.5
 41
20.0
 42
7.5
 43
20.0
 44
420.0
 45
297.0
 46
0.0
 47
0.0
 48
0.0
 49
0.0
140
0.0
141
0.0
142
1.0
143
1.0
 70
1024
 72
1
 73
0
 74
5
  7

 75
16
 76
0
 77
2
 78
300
147
1.0
148
0.0
149
0.0
100
AcDbLayout
  1
Model
 70
1
 71
0
 10
0.0
 20
0.0
 11
420.0
 21
297.0
 12
0.0
 22
0.0
 32
0.0
 14
1e+20
 24
1e+20
 34
1e+20
 15
-1e+20
 25
-1e+20
 35
-1e+20
146
0.0
 13
0.0
 23
0.0
 33
0.0
 16
1.0
 26
0.0
 36
0.0
 17
0.0
 27
1.0
 37
0.0
 76
1
330
17
  0
LAYOUT
  5
1E
330
D
100
AcDbPlotSettings
  1

  4
A3
  6

 40
7.5
 41
20.0
 42
7.5
 43
20.0
 44
420.0
 45
297.0
 46
0.0
 47
0.0
 48
0.0
 49
0.0
140
0.0
141
0.0
142
1.0
143
1.0
 70
0
 72
1
 73
0
 74
5
  7

 75
16
 76
0
 77
2
 78
300
147
1.0
148
0.0
149
0.0
100
AcDbLayout
  1
Layout1
 70
1
 71
1
 10
0.0
 20
0.0
 11
420.0
 21
297.0
 12
0.0
 22
0.0
 32
0.0
 14
1e+20
 24
1e+20
 34
1e+20
 15
-1e+20
 25
-1e+20
 35
-1e+20
146
0.0
 13
0.0
 23
0.0
 33
0.0
 16
1.0
 26
0.0
 36
0.0
 17
0.0
 27
1.0
 37
0.0
 76
1
330
1B
  0
MATERIAL
  5
1F
102
{ACAD_REACTORS
330
E
102
}
330
E
100
AcDbMaterial
  1
ByBlock
  2

 70
0
 40
1.0
 71
1
 41
1.0
 91
-1023410177
 42
1.0
 72
1
  3

 73
1
 74
1
 75
1
 44
0.5
 73
0
 45
1.0
 46
1.0
 77
1
  4

 78
1
 79
1
170
1
 48
1.0
171
1
  6

172
1
173
1
174
1
140
1.0
141
1.0
175
1
  7

176
1
177
1
178
1
143
1.0
179
1
  8

270
1
271
1
272
1
145
1.0
146
1.0
273
1
  9

274
1
275
1
276
1
 42
1.0
 72
1
  3

 73
1
 74
1
 75
1
 94
63
  0
MATERIAL
  5
20
102
{ACAD_REACTORS
330
E
102
}
330
E
100
AcDbMaterial
  1
ByLayer
  2

 70
0
 40
1.0
 71
1
 41
1.0
 91
-1023410177
 42
1.0
 72
1
  3

 73
1
 74
1
 75
1
 44
0.5
 73
0
 45
1.0
 46
1.0
 77
1
  4

 78
1
 79
1
170
1
 48
1.0
171
1
  6

172
1
173
1
174
1
140
1.0
141
1.0
175
1
  7

176
1
177
1
178
1
143
1.0
179
1
  8

270
1
271
1
272
1
145
1.0
146
1.0
273
1
  9

274
1
275
1
276
1
 42
1.0
 72
1
  3

 73
1
 74
1
 75
1
 94
63
  0
MATERIAL
  5
21
102
{ACAD_REACTORS
330
E
102
}
330
E
100
AcDbMaterial
  1
Global
  2

 70
0
 40
1.0
 71
1
 41
1.0
 91
-1023410177
 42
1.0
 72
1
  3

 73
1
 74
1
 75
1
 44
0.5
 73
0
 45
1.0
 46
1.0
 77
1
  4

 78
1
 79
1
170
1
 48
1.0
171
1
  6

172
1
173
1
174
1
140
1.0
141
1.0
175
1
  7

176
1
177
1
178
1
143
1.0
179
1
  8

270
1
271
1
272
1
145
1.0
146
1.0
273
1
  9

274
1
275
1
276
1
 42
1.0
 72
1
  3

 73
1
 74
1
 75
1
 94
63
  0
MLINESTYLE
  5
22
102
{ACAD_REACTORS
330
10
102
}
330
10
100
AcDbMlineStyle
  2
Standard
 70
0
  3

 62
256
 51
90.0
 52
90.0
 71
2
 49
0.5
 62
256
  6
BYLAYER
 49
-0.5
 62
256
  6
BYLAYER
  0
MLEADERSTYLE
  5
2C
102
{ACAD_REACTORS
330
F
102
}
330
F
100
AcDbMLeaderStyle
179
2
170
2
171
1
172
0
 90
2
 40
0.0
 41
0.0
173
1
 91
-1056964608
 92
-2
290
1
 42
2.0
291
1
 43
8.0
  3
Standard
 44
4.0
300

342
29
174
1
175
1
176
0
178
1
 93
-1056964608
 45
4.0
292
0
297
0
 46
4.0
 94
-1056964608
 47
1.0
 49
1.0
140
1.0
294
1
141
0.0
177
0
142
1.0
295
0
296
0
143
3.75
271
0
272
9
273
9
  0
DICTIONARY
  5
2D
330
A
100
AcDbDictionary
280
1
281
1
  3
CREATED_BY_EZDXF
350
2E
  3
WRITTEN_BY_EZDXF
350
E7
  0
DICTIONARYVAR
  5
2E
330
2D
100
DictionaryVariables
280
0
  1
1.4.2 @ 2026-08-25T23:57:12.791133+00:00
  0
DICTIONARYVAR
  5
E7
330
2D
100
DictionaryVariables
280
0
  1
1.4.2 @ 2026-08-25T23:57:12.796811+00:00
  0
ENDSEC
  0
EOF
