  0
SECTION
  2
HEADER
  9
$ACADVER
  1
AC1015
  9
$ACADMAINTVER
 70
6
  9
$DWGCODEPAGE
  3
ANSI_1252
  9
$INSBASE
 10
0.0
 20
0.0
 30
0.0
  9
$EXTMIN
 10
1e+20
 20
1e+20
 30
1e+20
  9
$EXTMAX
 10
-1e+20
 20
-1e+20
 30
-1e+20
  9
$LIMMIN
 10
0.0
 20
0.0
  9
$LIMMAX
 10
420.0
 20
297.0
  9
$ORTHOMODE
 70
0
  9
$REGENMODE
 70
1
  9
$FILLMODE
 70
1
  9
$QTEXTMODE
 70
0
  9
$MIRRTEXT
 70
1
  9
$LTSCALE
 40
1.0
  9
$ATTMODE
 70
1
  9
$TEXTSIZE
 40
2.5
  9
$TRACEWID
 40
1.0
  9
$TEXTSTYLE
  7
Standard
  9
$CLAYER
  8
0
  9
$CELTYPE
  6
ByLayer
  9
$CECOLOR
 62
256
  9
$CELTSCALE
 40
1.0
  9
$DISPSILH
 70
0
  9
$DIMSCALE
 40
1.0
  9
$DIMASZ
 40
2.5
  9
$DIMEXO
 40
0.625
  9
$DIMDLI
 40
3.75
  9
$DIMRND
 40
0.0
  9
$DIMDLE
 40
0.0
  9
$DIMEXE
 40
1.25
  9
$DIMTP
 40
0.0
  9
$DIMTM
 40
0.0
  9
$DIMTXT
 40
2.5
  9
$DIMCEN
 40
2.5
  9
$DIMTSZ
 40
0.0
  9
$DIMTOL
 70
0
  9
$DIMLIM
 70
0
  9
$DIMTIH
 70
0
  9
$DIMTOH
 70
0
  9
$DIMSE1
 70
0
  9
$DIMSE2
 70
0
  9
$DIMTAD
 70
1
  9
$DIMZIN
 70
8
  9
$DIMBLK
  1

  9
$DIMASO
 70
1
  9
$DIMSHO
 70
1
  9
$DIMPOST
  1

  9
$DIMAPOST
  1

  9
$DIMALT
 70
0
  9
$DIMALTD
 70
3
  9
$DIMALTF
 40
0.03937007874
  9
$DIMLFAC
 40
1.0
  9
$DIMTOFL
 70
1
  9
$DIMTVP
 40
0.0
  9
$DIMTIX
 70
0
  9
$DIMSOXD
 70
0
  9
$DIMSAH
 70
0
  9
$DIMBLK1
  1

  9
$DIMBLK2
  1

  9
$DIMSTYLE
  2
ISO-25
  9
$DIMCLRD
 70
0
  9
$DIMCLRE
 70
0
  9
$DIMCLRT
 70
0
  9
$DIMTFAC
 40
1.0
  9
$DIMGAP
 40
0.625
  9
$DIMJUST
 70
0
  9
$DIMSD1
 70
0
  9
$DIMSD2
 70
0
  9
$DIMTOLJ
 70
0
  9
$DIMTZIN
 70
8
  9
$DIMALTZ
 70
0
  9
$DIMALTTZ
 70
0
  9
$DIMUPT
 70
0
  9
$DIMDEC
 70
2
  9
$DIMTDEC
 70
2
  9
$DIMALTU
 70
2
  9
$DIMALTTD
 70
3
  9
$DIMTXSTY
  7
Standard
  9
$DIMAUNIT
 70
0
  9
$DIMADEC
 70
0
  9
$DIMALTRND
 40
0.0
  9
$DIMAZIN
 70
0
  9
$DIMDSEP
 70
44
  9
$DIMATFIT
 70
3
  9
$DIMFRAC
 70
0
  9
$DIMLDRBLK
  1

  9
$DIMLUNIT
 70
2
  9
$DIMLWD
 70
-2
  9
$DIMLWE
 70
-2
  9
$DIMTMOVE
 70
0
  9
$LUNITS
 70
2
  9
$LUPREC
 70
4
  9
$SKETCHINC
 40
1.0
  9
$FILLETRAD
 40
10.0
  9
$AUNITS
 70
0
  9
$AUPREC
 70
2
  9
$MENU
  1
.
  9
$ELEVATION
 40
0.0
  9
$PELEVATION
 40
0.0
  9
$THICKNESS
 40
0.0
  9
$LIMCHECK
 70
0
  9
$CHAMFERA
 40
0.0
  9
$CHAMFERB
 40
0.0
  9
$CHAMFERC
 40
0.0
  9
$CHAMFERD
 40
0.0
  9
$SKPOLY
 70
0
  9
$TDCREATE
 40
2461278.831388889
  9
$TDUCREATE
 40
2458532.153996898
  9
$TDUPDATE
 40
2461278.831388889
  9
$TDUUPDATE
 40
2458532.1544311
  9
$TDINDWG
 40
0.0
  9
$TDUSRTIMER
 40
0.0
  9
$USRTIMER
 70
1
  9
$ANGBASE
 50
0.0
  9
$ANGDIR
 70
0
  9
$PDMODE
 70
0
  9
$PDSIZE
 40
0.0
  9
$PLINEWID
 40
0.0
  9
$SPLFRAME
 70
0
  9
$SPLINETYPE
 70
6
  9
$SPLINESEGS
 70
8
  9
$HANDSEED
  5
49
  9
$SURFTAB1
 70
6
  9
$SURFTAB2
 70
6
  9
$SURFTYPE
 70
6
  9
$SURFU
 70
6
  9
$SURFV
 70
6
  9
$UCSBASE
  2

  9
$UCSNAME
  2

  9
$UCSORG
 10
0.0
 20
0.0
 30
0.0
  9
$UCSXDIR
 10
1.0
 20
0.0
 30
0.0
  9
$UCSYDIR
 10
0.0
 20
1.0
 30
0.0
  9
$UCSORTHOREF
  2

  9
$UCSORTHOVIEW
 70
0
  9
$UCSORGTOP
 10
0.0
 20
0.0
 30
0.0
  9
$UCSORGBOTTOM
 10
0.0
 20
0.0
 30
0.0
  9
$UCSORGLEFT
 10
0.0
 20
0.0
 30
0.0
  9
$UCSORGRIGHT
 10
0.0
 20
0.0
 30
0.0
  9
$UCSORGFRONT
 10
0.0
 20
0.0
 30
0.0
  9
$UCSORGBACK
 10
0.0
 20
0.0
 30
0.0
  9
$PUCSBASE
  2

  9
$PUCSNAME
  2

  9
$PUCSORG
 10
0.0
 20
0.0
 30
0.0
  9
$PUCSXDIR
 10
1.0
 20
0.0
 30
0.0
  9
$PUCSYDIR
 10
0.0
 20
1.0
 30
0.0
  9
$PUCSORTHOREF
  2

  9
$PUCSORTHOVIEW
 70
0
  9
$PUCSORGTOP
 10
0.0
 20
0.0
 30
0.0
  9
$PUCSORGBOTTOM
 10
0.0
 20
0.0
 30
0.0
  9
$PUCSORGLEFT
 10
0.0
 20
0.0
 30
0.0
  9
$PUCSORGRIGHT
 10
0.0
 20
0.0
 30
0.0
  9
$PUCSORGFRONT
 10
0.0
 20
0.0
 30
0.0
  9
$PUCSORGBACK
 10
0.0
 20
0.0
 30
0.0
  9
$USERI1
 70
0
  9
$USERI2
 70
0
  9
$USERI3
 70
0
  9
$USERI4
 70
0
  9
$USERI5
 70
0
  9
$USERR1
 40
0.0
  9
$USERR2
 40
0.0
  9
$USERR3
 40
0.0
  9
$USERR4
 40
0.0
  9
$USERR5
 40
0.0
  9
$WORLDVIEW
 70
1
  9
$SHADEDGE
 70
3
  9
$SHADEDIF
 70
70
  9
$TILEMODE
 70
1
  9
$MAXACTVP
 70
64
  9
$PINSBASE
 10
0.0
 20
0.0
 30
0.0
  9
$PLIMCHECK
 70
0
  9
$PEXTMIN
 10
1e+20
 20
1e+20
 30
1e+20
  9
$PEXTMAX
 10
-1e+20
 20
-1e+20
 30
-1e+20
  9
$PLIMMIN
 10
0.0
 20
0.0
  9
$PLIMMAX
 10
420.0
 20
297.0
  9
$UNITMODE
 70
0
  9
$VISRETAIN
 70
1
  9
$PLINEGEN
 70
0
  9
$PSLTSCALE
 70
1
  9
$TREEDEPTH
 70
3020
  9
$CMLSTYLE
  2
Standard
  9
$CMLJUST
 70
0
  9
$CMLSCALE
 40
20.0
  9
$PROXYGRAPHICS
 70
1
  9
$MEASUREMENT
 70
1
  9
$CELWEIGHT
370
-1
  9
$ENDCAPS
280
0
  9
$JOINSTYLE
280
0
  9
$LWDISPLAY
290
0
  9
$INSUNITS
 70
4
  9
$HYPERLINKBASE
  1

  9
$STYLESHEET
  1

  9
$XEDIT
290
1
  9
$CEPSNTYPE
380
0
  9
$PSTYLEMODE
290
1
  9
$FINGERPRINTGUID
  2
{B8EB8A93-468A-40E1-B9AF-D05AE848AC6C}
  9
$VERSIONGUID
  2
{58AA376F-5FD4-4236-927D-2DCC74BDD987}
  9
$EXTNAMES
290
1
  9
$PSVPSCALE
 40
0.0
  9
$OLESTARTUP
290
0
  0
ENDSEC
  0
SECTION
  2
CLASSES
  0
CLASS
  1
ACDBDICTIONARYWDFLT
  2
AcDbDictionaryWithDefault
  3
ObjectDBX Classes
 90
0
280
0
281
0
  0
CLASS
  1
SUN
  2
AcDbSun
  3
SCENEOE
 90
1153
280
0
281
0
  0
CLASS
  1
VISUALSTYLE
  2
AcDbVisualStyle
  3
ObjectDBX Classes
 90
4095
280
0
281
0
  0
CLASS
  1
MATERIAL
  2
AcDbMaterial
  3
ObjectDBX Classes
 90
1153
280
0
281
0
  0
CLASS
  1
SCALE
  2
AcDbScale
  3
ObjectDBX Classes
 90
1153
280
0
281
0
  0
CLASS
  1
TABLESTYLE
  2
AcDbTableStyle
  3
ObjectDBX Classes
 90
4095
280
0
281
0
  0
CLASS
  1
MLEADERSTYLE
  2
AcDbMLeaderStyle
  3
ACDB_MLEADERSTYLE_CLASS
 90
4095
280
0
281
0
  0
CLASS
  1
DICTIONARYVAR
  2
AcDbDictionaryVar
  3
ObjectDBX Classes
 90
0
280
0
281
0
  0
CLASS
  1
CELLSTYLEMAP
  2
AcDbCellStyleMap
  3
ObjectDBX Classes
 90
1152
280
0
281
0
  0
CLASS
  1
MENTALRAYRENDERSETTINGS
  2
AcDbMentalRayRenderSettings
  3
SCENEOE
 90
1024
280
0
281
0
  0
CLASS
  1
ACDBDETAILVIEWSTYLE
  2
AcDbDetailViewStyle
  3
ObjectDBX Classes
 90
1025
280
0
281
0
  0
CLASS
  1
ACDBSECTIONVIEWSTYLE
  2
AcDbSectionViewStyle
  3
ObjectDBX Classes
 90
1025
280
0
281
0
  0
CLASS
  1
RASTERVARIABLES
  2
AcDbRasterVariables
  3
ISM
 90
0
280
0
281
0
  0
CLASS
  1
ACDBPLACEHOLDER
  2
AcDbPlaceHolder
  3
ObjectDBX Classes
 90
0
280
0
281
0
  0
CLASS
  1
LAYOUT
  2
AcDbLayout
  3
ObjectDBX Classes
 90
0
280
0
281
0
  0
ENDSEC
  0
SECTION
  2
TABLES
  0
TABLE
  2
VPORT
  5
8
330
0
100
AcDbSymbolTable
 70
1
  0
VPORT
  5
23
330
8
100
AcDbSymbolTableRecord
100
AcDbViewportTableRecord
  2
*Active
 70
0
 10
0.0
 20
0.0
 11
1.0
 21
1.0
 12
0.0
 22
0.0
 13
0.0
 23
0.0
 14
0.5
 24
0.5
 15
0.5
 25
0.5
 16
0.0
 26
0.0
 36
1.0
 17
0.0
 27
0.0
 37
0.0
 40
1000.0
 41
1.34
 42
50.0
 43
0.0
 44
0.0
 50
0.0
 51
0.0
 71
0
 72
1000
 73
1
 74
3
 75
0
 76
0
 77
0
 78
0
281
0
 65
0
146
0.0
  0
ENDTAB
  0
TABLE
  2
LTYPE
  5
2
330
0
100
AcDbSymbolTable
 70
3
  0
LTYPE
  5
24
330
2
100
AcDbSymbolTableRecord
100
AcDbLinetypeTableRecord
  2
ByBlock
 70
0
  3

 72
65
 73
0
 40
0.0
  0
LTYPE
  5
25
330
2
100
AcDbSymbolTableRecord
100
AcDbLinetypeTableRecord
  2
ByLayer
 70
0
  3

 72
65
 73
0
 40
0.0
  0
LTYPE
  5
26
330
2
100
AcDbSymbolTableRecord
100
AcDbLinetypeTableRecord
  2
Continuous
 70
0
  3

 72
65
 73
0
 40
0.0
  0
ENDTAB
  0
TABLE
  2
LAYER
  5
1
330
0
100
AcDbSymbolTable
 70
4
  0
LAYER
  5
27
330
1
100
AcDbSymbolTableRecord
100
AcDbLayerTableRecord
  2
0
 70
0
 62
7
  6
Continuous
370
-3
390
13
  0
LAYER
  5
28
330
1
100
AcDbSymbolTableRecord
100
AcDbLayerTableRecord
  2
Defpoints
 70
0
 62
7
  6
Continuous
290
0
370
-3
390
13
  0
LAYER
  5
2F
330
1
100
AcDbSymbolTableRecord
100
AcDbLayerTableRecord
  2
CUT
 70
0
 62
1
  6
Continuous
370
-3
390
13
  0
LAYER
  5
30
330
1
100
AcDbSymbolTableRecord
100
AcDbLayerTableRecord
  2
RASTER
 70
0
 62
7
  6
Continuous
370
-3
390
13
  0
ENDTAB
  0
TABLE
  2
STYLE
  5
5
330
0
100
AcDbSymbolTable
 70
1
  0
STYLE
  5
29
330
5
100
AcDbSymbolTableRecord
100
AcDbTextStyleTableRecord
  2
Standard
 70
0
 40
0.0
 41
1.0
 50
0.0
 71
0
 42
2.5
  3
txt
  4

  0
ENDTAB
  0
TABLE
  2
VIEW
  5
7
330
0
100
AcDbSymbolTable
 70
0
  0
ENDTAB
  0
TABLE
  2
UCS
  5
6
330
0
100
AcDbSymbolTable
 70
0
  0
ENDTAB
  0
TABLE
  2
APPID
  5
3
330
0
100
AcDbSymbolTable
 70
3
  0
APPID
  5
2A
330
3
100
AcDbSymbolTableRecord
100
AcDbRegAppTableRecord
  2
ACAD
 70
0
  0
APPID
  5
46
330
3
100
AcDbSymbolTableRecord
100
AcDbRegAppTableRecord
  2
HATCHBACKGROUNDCOLOR
 70
0
  0
APPID
  5
47
330
3
100
AcDbSymbolTableRecord
100
AcDbRegAppTableRecord
  2
EZDXF
 70
0
  0
ENDTAB
  0
TABLE
  2
DIMSTYLE
  5
4
330
0
100
AcDbSymbolTable
 70
1
100
AcDbDimStyleTable
  0
DIMSTYLE
105
2B
330
4
100
AcDbSymbolTableRecord
100
AcDbDimStyleTableRecord
  2
Standard
 70
0
  3

  4

 40
1.0
 41
2.5
 42
0.625
 43
3.75
 44
1.25
 45
0.0
 46
0.0
 47
0.0
 48
0.0
140
2.5
141
2.5
142
0.0
143
0.03937007874
144
1.0
145
0.0
146
1.0
147
0.625
148
0.0
 71
0
 72
0
 73
0
 74
0
 75
0
 76
0
 77
1
 78
8
 79
3
170
0
171
3
172
1
173
0
174
0
175
0
176
0
177
0
178
0
179
2
271
2
272
2
273
2
274
3
275
0
276
0
277
2
278
44
279
0
280
0
281
0
282
0
283
0
284
8
285
0
286
0
288
0
289
3
371
-2
372
-2
  0
ENDTAB
  0
TABLE
  2
BLOCK_RECORD
  5
9
330
0
100
AcDbSymbolTable
 70
2
  0
BLOCK_RECORD
  5
17
330
9
100
AcDbSymbolTableRecord
100
AcDbBlockTableRecord
  2
*Model_Space
340
1A
  0
BLOCK_RECORD
  5
1B
330
9
100
AcDbSymbolTableRecord
100
AcDbBlockTableRecord
  2
*Paper_Space
340
1E
  0
ENDTAB
  0
ENDSEC
  0
SECTION
  2
BLOCKS
  0
BLOCK
  5
18
330
17
100
AcDbEntity
  8
0
100
AcDbBlockBegin
  2
*Model_Space
 70
0
 10
0.0
 20
0.0
 30
0.0
  3
*Model_Space
  1

  0
ENDBLK
  5
19
330
17
100
AcDbEntity
  8
0
100
AcDbBlockEnd
  0
BLOCK
  5
1C
330
1B
100
AcDbEntity
  8
0
100
AcDbBlockBegin
  2
*Paper_Space
 70
0
 10
0.0
 20
0.0
 30
0.0
  3
*Paper_Space
  1

  0
ENDBLK
  5
1D
330
1B
100
AcDbEntity
  8
0
100
AcDbBlockEnd
  0
ENDSEC
  0
SECTION
  2
ENTITIES
  0
LWPOLYLINE
  5
31
330
17
100
AcDbEntity
  8
CUT
100
AcDbPolyline
 90
78
 70
1
 10
19.138
 20
17.638
 10
19.138
 20
8.363
 10
16.5
 20
8.363
 10
15.721
 20
8.363
 10
15.834
 20
8.202
 10
15.94
 20
7.724
 10
15.853
 20
7.242
 10
15.585
 20
6.832
 10
15.18
 20
6.556
 10
14.7
 20
6.46
 10
14.22
 20
6.556
 10
13.815
 20
6.832
 10
13.547
 20
7.242
 10
13.46
 20
7.724
 10
13.566
 20
8.202
 10
13.679
 20
8.363
 10
10.321
 20
8.363
 10
10.434
 20
8.202
 10
10.54
 20
7.724
 10
10.453
 20
7.242
 10
10.185
 20
6.832
 10
9.78
 20
6.556
 10
9.3
 20
6.46
 10
8.82
 20
6.556
 10
8.415
 20
6.832
 10
8.147
 20
7.242
 10
8.06
 20
7.724
 10
8.166
 20
8.202
 10
8.279
 20
8.363
 10
7.638
 20
8.363
 10
7.638
 20
4.986
 10
7.553
 20
4.564
 10
7.306
 20
4.194
 10
6.936
 20
3.947
 10
6.514
 20
3.863
 10
4.986
 20
3.863
 10
4.564
 20
3.947
 10
4.194
 20
4.194
 10
3.947
 20
4.564
 10
3.863
 20
4.986
 10
3.863
 20
21.014
 10
3.947
 20
21.436
 10
4.194
 20
21.806
 10
4.564
 20
22.053
 10
4.986
 20
22.138
 10
6.514
 20
22.138
 10
6.936
 20
22.053
 10
7.306
 20
21.806
 10
7.553
 20
21.436
 10
7.638
 20
21.014
 10
7.638
 20
17.638
 10
8.279
 20
17.638
 10
8.166
 20
17.798
 10
8.06
 20
18.276
 10
8.147
 20
18.758
 10
8.415
 20
19.168
 10
8.82
 20
19.444
 10
9.3
 20
19.54
 10
9.78
 20
19.444
 10
10.185
 20
19.168
 10
10.453
 20
18.758
 10
10.54
 20
18.276
 10
10.434
 20
17.798
 10
10.321
 20
17.638
 10
13.679
 20
17.638
 10
13.566
 20
17.798
 10
13.46
 20
18.276
 10
13.547
 20
18.758
 10
13.815
 20
19.168
 10
14.22
 20
19.444
 10
14.7
 20
19.54
 10
15.18
 20
19.444
 10
15.585
 20
19.168
 10
15.853
 20
18.758
 10
15.94
 20
18.276
 10
15.834
 20
17.798
 10
15.721
 20
17.638
 10
16.5
 20
17.638
  0
HATCH
  5
32
330
17
100
AcDbEntity
  8
RASTER
 62
7
100
AcDbHatch
 10
0.0
 20
0.0
 30
0.0
210
0.0
220
0.0
230
1.0
  2
SOLID
 70
1
 71
0
 91
6
 92
3
 72
0
 73
1
 93
4
 10
18.75
 20
17.5
 10
18.75
 20
8.5
 10
7.8
 20
8.5
 10
7.8
 20
17.5
 97
0
 92
3
 72
0
 73
1
 93
5
 10
17.05
 20
17.0
 10
16.65
 20
17.0
 10
16.65
 20
9.0
 10
17.05
 20
9.0
 10
17.05
 20
17.0
 97
0
 92
3
 72
0
 73
1
 93
5
 10
15.15
 20
17.0
 10
14.75
 20
17.0
 10
14.75
 20
9.0
 10
15.15
 20
9.0
 10
15.15
 20
17.0
 97
0
 92
3
 72
0
 73
1
 93
5
 10
13.25
 20
17.0
 10
12.85
 20
17.0
 10
12.85
 20
9.0
 10
13.25
 20
9.0
 10
13.25
 20
17.0
 97
0
 92
3
 72
0
 73
1
 93
5
 10
11.35
 20
17.0
 10
10.95
 20
17.0
 10
10.95
 20
9.0
 10
11.35
 20
9.0
 10
11.35
 20
17.0
 97
0
 92
3
 72
0
 73
1
 93
5
 10
9.45
 20
17.0
 10
9.05
 20
17.0
 10
9.05
 20
9.0
 10
9.45
 20
9.0
 10
9.45
 20
17.0
 97
0
 75
0
 76
1
 98
0
  0
HATCH
  5
33
330
17
100
AcDbEntity
  8
RASTER
 62
7
100
AcDbHatch
 10
0.0
 20
0.0
 30
0.0
210
0.0
220
0.0
230
1.0
  2
SOLID
 70
1
 71
0
 91
8
 92
3
 72
0
 73
1
 93
4
 10
7.2
 20
21.4
 10
7.2
 20
4.6
 10
4.6
 20
4.6
 10
4.6
 20
21.4
 97
0
 92
3
 72
0
 73
1
 93
5
 10
7.2
 20
18.9
 10
4.6
 20
18.9
 10
4.6
 20
18.5
 10
7.2
 20
18.5
 10
7.2
 20
18.9
 97
0
 92
3
 72
0
 73
1
 93
5
 10
7.2
 20
17.0
 10
4.6
 20
17.0
 10
4.6
 20
16.6
 10
7.2
 20
16.6
 10
7.2
 20
17.0
 97
0
 92
3
 72
0
 73
1
 93
5
 10
7.2
 20
15.1
 10
4.6
 20
15.1
 10
4.6
 20
14.7
 10
7.2
 20
14.7
 10
7.2
 20
15.1
 97
0
 92
3
 72
0
 73
1
 93
5
 10
7.2
 20
13.2
 10
4.6
 20
13.2
 10
4.6
 20
12.8
 10
7.2
 20
12.8
 10
7.2
 20
13.2
 97
0
 92
3
 72
0
 73
1
 93
5
 10
7.2
 20
11.3
 10
4.6
 20
11.3
 10
4.6
 20
10.9
 10
7.2
 20
10.9
 10
7.2
 20
11.3
 97
0
 92
3
 72
0
 73
1
 93
5
 10
7.2
 20
9.4
 10
4.6
 20
9.4
 10
4.6
 20
9.0
 10
7.2
 20
9.0
 10
7.2
 20
9.4
 97
0
 92
3
 72
0
 73
1
 93
5
 10
7.2
 20
7.5
 10
4.6
 20
7.5
 10
4.6
 20
7.1
 10
7.2
 20
7.1
 10
7.2
 20
7.5
 97
0
 75
0
 76
1
 98
0
  0
LWPOLYLINE
  5
34
330
17
100
AcDbEntity
  8
CUT
100
AcDbPolyline
 90
78
 70
1
 10
38.138
 20
17.638
 10
38.138
 20
8.363
 10
35.5
 20
8.363
 10
34.721
 20
8.363
 10
34.834
 20
8.202
 10
34.94
 20
7.724
 10
34.853
 20
7.242
 10
34.585
 20
6.832
 10
34.18
 20
6.556
 10
33.7
 20
6.46
 10
33.22
 20
6.556
 10
32.815
 20
6.832
 10
32.547
 20
7.242
 10
32.46
 20
7.724
 10
32.566
 20
8.202
 10
32.679
 20
8.363
 10
29.321
 20
8.363
 10
29.434
 20
8.202
 10
29.54
 20
7.724
 10
29.453
 20
7.242
 10
29.185
 20
6.832
 10
28.78
 20
6.556
 10
28.3
 20
6.46
 10
27.82
 20
6.556
 10
27.415
 20
6.832
 10
27.147
 20
7.242
 10
27.06
 20
7.724
 10
27.166
 20
8.202
 10
27.279
 20
8.363
 10
26.638
 20
8.363
 10
26.638
 20
4.986
 10
26.553
 20
4.564
 10
26.306
 20
4.194
 10
25.936
 20
3.947
 10
25.514
 20
3.863
 10
23.986
 20
3.863
 10
23.564
 20
3.947
 10
23.194
 20
4.194
 10
22.947
 20
4.564
 10
22.863
 20
4.986
 10
22.863
 20
21.014
 10
22.947
 20
21.436
 10
23.194
 20
21.806
 10
23.564
 20
22.053
 10
23.986
 20
22.138
 10
25.514
 20
22.138
 10
25.936
 20
22.053
 10
26.306
 20
21.806
 10
26.553
 20
21.436
 10
26.638
 20
21.014
 10
26.638
 20
17.638
 10
27.279
 20
17.638
 10
27.166
 20
17.798
 10
27.06
 20
18.276
 10
27.147
 20
18.758
 10
27.415
 20
19.168
 10
27.82
 20
19.444
 10
28.3
 20
19.54
 10
28.78
 20
19.444
 10
29.185
 20
19.168
 10
29.453
 20
18.758
 10
29.54
 20
18.276
 10
29.434
 20
17.798
 10
29.321
 20
17.638
 10
32.679
 20
17.638
 10
32.566
 20
17.798
 10
32.46
 20
18.276
 10
32.547
 20
18.758
 10
32.815
 20
19.168
 10
33.22
 20
19.444
 10
33.7
 20
19.54
 10
34.18
 20
19.444
 10
34.585
 20
19.168
 10
34.853
 20
18.758
 10
34.94
 20
18.276
 10
34.834
 20
17.798
 10
34.721
 20
17.638
 10
35.5
 20
17.638
  0
HATCH
  5
35
330
17
100
AcDbEntity
  8
RASTER
 62
7
100
AcDbHatch
 10
0.0
 20
0.0
 30
0.0
210
0.0
220
0.0
230
1.0
  2
SOLID
 70
1
 71
0
 91
6
 92
3
 72
0
 73
1
 93
4
 10
37.75
 20
17.5
 10
37.75
 20
8.5
 10
26.8
 20
8.5
 10
26.8
 20
17.5
 97
0
 92
3
 72
0
 73
1
 93
5
 10
36.05
 20
17.0
 10
35.65
 20
17.0
 10
35.65
 20
9.0
 10
36.05
 20
9.0
 10
36.05
 20
17.0
 97
0
 92
3
 72
0
 73
1
 93
5
 10
34.15
 20
17.0
 10
33.75
 20
17.0
 10
33.75
 20
9.0
 10
34.15
 20
9.0
 10
34.15
 20
17.0
 97
0
 92
3
 72
0
 73
1
 93
5
 10
32.25
 20
17.0
 10
31.85
 20
17.0
 10
31.85
 20
9.0
 10
32.25
 20
9.0
 10
32.25
 20
17.0
 97
0
 92
3
 72
0
 73
1
 93
5
 10
30.35
 20
17.0
 10
29.95
 20
17.0
 10
29.95
 20
9.0
 10
30.35
 20
9.0
 10
30.35
 20
17.0
 97
0
 92
3
 72
0
 73
1
 93
5
 10
28.45
 20
17.0
 10
28.05
 20
17.0
 10
28.05
 20
9.0
 10
28.45
 20
9.0
 10
28.45
 20
17.0
 97
0
 75
0
 76
1
 98
0
  0
HATCH
  5
36
330
17
100
AcDbEntity
  8
RASTER
 62
7
100
AcDbHatch
 10
0.0
 20
0.0
 30
0.0
210
0.0
220
0.0
230
1.0
  2
SOLID
 70
1
 71
0
 91
8
 92
3
 72
0
 73
1
 93
4
 10
26.2
 20
21.4
 10
26.2
 20
4.6
 10
23.6
 20
4.6
 10
23.6
 20
21.4
 97
0
 92
3
 72
0
 73
1
 93
5
 10
26.2
 20
18.9
 10
23.6
 20
18.9
 10
23.6
 20
18.5
 10
26.2
 20
18.5
 10
26.2
 20
18.9
 97
0
 92
3
 72
0
 73
1
 93
5
 10
26.2
 20
17.0
 10
23.6
 20
17.0
 10
23.6
 20
16.6
 10
26.2
 20
16.6
 10
26.2
 20
17.0
 97
0
 92
3
 72
0
 73
1
 93
5
 10
26.2
 20
15.1
 10
23.6
 20
15.1
 10
23.6
 20
14.7
 10
26.2
 20
14.7
 10
26.2
 20
15.1
 97
0
 92
3
 72
0
 73
1
 93
5
 10
26.2
 20
13.2
 10
23.6
 20
13.2
 10
23.6
 20
12.8
 10
26.2
 20
12.8
 10
26.2
 20
13.2
 97
0
 92
3
 72
0
 73
1
 93
5
 10
26.2
 20
11.3
 10
23.6
 20
11.3
 10
23.6
 20
10.9
 10
26.2
 20
10.9
 10
26.2
 20
11.3
 97
0
 92
3
 72
0
 73
1
 93
5
 10
26.2
 20
9.4
 10
23.6
 20
9.4
 10
23.6
 20
9.0
 10
26.2
 20
9.0
 10
26.2
 20
9.4
 97
0
 92
3
 72
0
 73
1
 93
5
 10
26.2
 20
7.5
 10
23.6
 20
7.5
 10
23.6
 20
7.1
 10
26.2
 20
7.1
 10
26.2
 20
7.5
 97
0
 75
0
 76
1
 98
0
  0
LWPOLYLINE
  5
37
330
17
100
AcDbEntity
  8
CUT
100
AcDbPolyline
 90
78
 70
1
 10
57.138
 20
17.638
 10
57.138
 20
8.363
 10
54.5
 20
8.363
 10
53.721
 20
8.363
 10
53.834
 20
8.202
 10
53.94
 20
7.724
 10
53.853
 20
7.242
 10
53.585
 20
6.832
 10
53.18
 20
6.556
 10
52.7
 20
6.46
 10
52.22
 20
6.556
 10
51.815
 20
6.832
 10
51.547
 20
7.242
 10
51.46
 20
7.724
 10
51.566
 20
8.202
 10
51.679
 20
8.363
 10
48.321
 20
8.363
 10
48.434
 20
8.202
 10
48.54
 20
7.724
 10
48.453
 20
7.242
 10
48.185
 20
6.832
 10
47.78
 20
6.556
 10
47.3
 20
6.46
 10
46.82
 20
6.556
 10
46.415
 20
6.832
 10
46.147
 20
7.242
 10
46.06
 20
7.724
 10
46.166
 20
8.202
 10
46.279
 20
8.363
 10
45.638
 20
8.363
 10
45.638
 20
4.986
 10
45.553
 20
4.564
 10
45.306
 20
4.194
 10
44.936
 20
3.947
 10
44.514
 20
3.863
 10
42.986
 20
3.863
 10
42.564
 20
3.947
 10
42.194
 20
4.194
 10
41.947
 20
4.564
 10
41.863
 20
4.986
 10
41.863
 20
21.014
 10
41.947
 20
21.436
 10
42.194
 20
21.806
 10
42.564
 20
22.053
 10
42.986
 20
22.138
 10
44.514
 20
22.138
 10
44.936
 20
22.053
 10
45.306
 20
21.806
 10
45.553
 20
21.436
 10
45.638
 20
21.014
 10
45.638
 20
17.638
 10
46.279
 20
17.638
 10
46.166
 20
17.798
 10
46.06
 20
18.276
 10
46.147
 20
18.758
 10
46.415
 20
19.168
 10
46.82
 20
19.444
 10
47.3
 20
19.54
 10
47.78
 20
19.444
 10
48.185
 20
19.168
 10
48.453
 20
18.758
 10
48.54
 20
18.276
 10
48.434
 20
17.798
 10
48.321
 20
17.638
 10
51.679
 20
17.638
 10
51.566
 20
17.798
 10
51.46
 20
18.276
 10
51.547
 20
18.758
 10
51.815
 20
19.168
 10
52.22
 20
19.444
 10
52.7
 20
19.54
 10
53.18
 20
19.444
 10
53.585
 20
19.168
 10
53.853
 20
18.758
 10
53.94
 20
18.276
 10
53.834
 20
17.798
 10
53.721
 20
17.638
 10
54.5
 20
17.638
  0
HATCH
  5
38
330
17
100
AcDbEntity
  8
RASTER
 62
7
100
AcDbHatch
 10
0.0
 20
0.0
 30
0.0
210
0.0
220
0.0
230
1.0
  2
SOLID
 70
1
 71
0
 91
6
 92
3
 72
0
 73
1
 93
4
 10
56.75
 20
17.5
 10
56.75
 20
8.5
 10
45.8
 20
8.5
 10
45.8
 20
17.5
 97
0
 92
3
 72
0
 73
1
 93
5
 10
55.05
 20
17.0
 10
54.65
 20
17.0
 10
54.65
 20
9.0
 10
55.05
 20
9.0
 10
55.05
 20
17.0
 97
0
 92
3
 72
0
 73
1
 93
5
 10
53.15
 20
17.0
 10
52.75
 20
17.0
 10
52.75
 20
9.0
 10
53.15
 20
9.0
 10
53.15
 20
17.0
 97
0
 92
3
 72
0
 73
1
 93
5
 10
51.25
 20
17.0
 10
50.85
 20
17.0
 10
50.85
 20
9.0
 10
51.25
 20
9.0
 10
51.25
 20
17.0
 97
0
 92
3
 72
0
 73
1
 93
5
 10
49.35
 20
17.0
 10
48.95
 20
17.0
 10
48.95
 20
9.0
 10
49.35
 20
9.0
 10
49.35
 20
17.0
 97
0
 92
3
 72
0
 73
1
 93
5
 10
47.45
 20
17.0
 10
47.05
 20
17.0
 10
47.05
 20
9.0
 10
47.45
 20
9.0
 10
47.45
 20
17.0
 97
0
 75
0
 76
1
 98
0
  0
HATCH
  5
39
330
17
100
AcDbEntity
  8
RASTER
 62
7
100
AcDbHatch
 10
0.0
 20
0.0
 30
0.0
210
0.0
220
0.0
230
1.0
  2
SOLID
 70
1
 71
0
 91
8
 92
3
 72
0
 73
1
 93
4
 10
45.2
 20
21.4
 10
45.2
 20
4.6
 10
42.6
 20
4.6
 10
42.6
 20
21.4
 97
0
 92
3
 72
0
 73
1
 93
5
 10
45.2
 20
18.9
 10
42.6
 20
18.9
 10
42.6
 20
18.5
 10
45.2
 20
18.5
 10
45.2
 20
18.9
 97
0
 92
3
 72
0
 73
1
 93
5
 10
45.2
 20
17.0
 10
42.6
 20
17.0
 10
42.6
 20
16.6
 10
45.2
 20
16.6
 10
45.2
 20
17.0
 97
0
 92
3
 72
0
 73
1
 93
5
 10
45.2
 20
15.1
 10
42.6
 20
15.1
 10
42.6
 20
14.7
 10
45.2
 20
14.7
 10
45.2
 20
15.1
 97
0
 92
3
 72
0
 73
1
 93
5
 10
45.2
 20
13.2
 10
42.6
 20
13.2
 10
42.6
 20
12.8
 10
45.2
 20
12.8
 10
45.2
 20
13.2
 97
0
 92
3
 72
0
 73
1
 93
5
 10
45.2
 20
11.3
 10
42.6
 20
11.3
 10
42.6
 20
10.9
 10
45.2
 20
10.9
 10
45.2
 20
11.3
 97
0
 92
3
 72
0
 73
1
 93
5
 10
45.2
 20
9.4
 10
42.6
 20
9.4
 10
42.6
 20
9.0
 10
45.2
 20
9.0
 10
45.2
 20
9.4
 97
0
 92
3
 72
0
 73
1
 93
5
 10
45.2
 20
7.5
 10
42.6
 20
7.5
 10
42.6
 20
7.1
 10
45.2
 20
7.1
 10
45.2
 20
7.5
 97
0
 75
0
 76
1
 98
0
  0
LWPOLYLINE
  5
3A
330
17
100
AcDbEntity
  8
CUT
100
AcDbPolyline
 90
78
 70
1
 10
76.138
 20
17.638
 10
76.138
 20
8.363
 10
73.5
 20
8.363
 10
72.721
 20
8.363
 10
72.834
 20
8.202
 10
72.94
 20
7.724
 10
72.853
 20
7.242
 10
72.585
 20
6.832
 10
72.18
 20
6.556
 10
71.7
 20
6.46
 10
71.22
 20
6.556
 10
70.815
 20
6.832
 10
70.547
 20
7.242
 10
70.46
 20
7.724
 10
70.566
 20
8.202
 10
70.679
 20
8.363
 10
67.321
 20
8.363
 10
67.434
 20
8.202
 10
67.54
 20
7.724
 10
67.453
 20
7.242
 10
67.185
 20
6.832
 10
66.78
 20
6.556
 10
66.3
 20
6.46
 10
65.82
 20
6.556
 10
65.415
 20
6.832
 10
65.147
 20
7.242
 10
65.06
 20
7.724
 10
65.166
 20
8.202
 10
65.279
 20
8.363
 10
64.638
 20
8.363
 10
64.638
 20
4.986
 10
64.553
 20
4.564
 10
64.306
 20
4.194
 10
63.936
 20
3.947
 10
63.514
 20
3.863
 10
61.986
 20
3.863
 10
61.564
 20
3.947
 10
61.194
 20
4.194
 10
60.947
 20
4.564
 10
60.863
 20
4.986
 10
60.863
 20
21.014
 10
60.947
 20
21.436
 10
61.194
 20
21.806
 10
61.564
 20
22.053
 10
61.986
 20
22.138
 10
63.514
 20
22.138
 10
63.936
 20
22.053
 10
64.306
 20
21.806
 10
64.553
 20
21.436
 10
64.638
 20
21.014
 10
64.638
 20
17.638
 10
65.279
 20
17.638
 10
65.166
 20
17.798
 10
65.06
 20
18.276
 10
65.147
 20
18.758
 10
65.415
 20
19.168
 10
65.82
 20
19.444
 10
66.3
 20
19.54
 10
66.78
 20
19.444
 10
67.185
 20
19.168
 10
67.453
 20
18.758
 10
67.54
 20
18.276
 10
67.434
 20
17.798
 10
67.321
 20
17.638
 10
70.679
 20
17.638
 10
70.566
 20
17.798
 10
70.46
 20
18.276
 10
70.547
 20
18.758
 10
70.815
 20
19.168
 10
71.22
 20
19.444
 10
71.7
 20
19.54
 10
72.18
 20
19.444
 10
72.585
 20
19.168
 10
72.853
 20
18.758
 10
72.94
 20
18.276
 10
72.834
 20
17.798
 10
72.721
 20
17.638
 10
73.5
 20
17.638
  0
HATCH
  5
3B
330
17
100
AcDbEntity
  8
RASTER
 62
7
100
AcDbHatch
 10
0.0
 20
0.0
 30
0.0
210
0.0
220
0.0
230
1.0
  2
SOLID
 70
1
 71
0
 91
6
 92
3
 72
0
 73
1
 93
4
 10
75.75
 20
17.5
 10
75.75
 20
8.5
 10
64.8
 20
8.5
 10
64.8
 20
17.5
 97
0
 92
3
 72
0
 73
1
 93
5
 10
74.05
 20
17.0
 10
73.65
 20
17.0
 10
73.65
 20
9.0
 10
74.05
 20
9.0
 10
74.05
 20
17.0
 97
0
 92
3
 72
0
 73
1
 93
5
 10
72.15
 20
17.0
 10
71.75
 20
17.0
 10
71.75
 20
9.0
 10
72.15
 20
9.0
 10
72.15
 20
17.0
 97
0
 92
3
 72
0
 73
1
 93
5
 10
70.25
 20
17.0
 10
69.85
 20
17.0
 10
69.85
 20
9.0
 10
70.25
 20
9.0
 10
70.25
 20
17.0
 97
0
 92
3
 72
0
 73
1
 93
5
 10
68.35
 20
17.0
 10
67.95
 20
17.0
 10
67.95
 20
9.0
 10
68.35
 20
9.0
 10
68.35
 20
17.0
 97
0
 92
3
 72
0
 73
1
 93
5
 10
66.45
 20
17.0
 10
66.05
 20
17.0
 10
66.05
 20
9.0
 10
66.45
 20
9.0
 10
66.45
 20
17.0
 97
0
 75
0
 76
1
 98
0
  0
HATCH
  5
3C
330
17
100
AcDbEntity
  8
RASTER
 62
7
100
AcDbHatch
 10
0.0
 20
0.0
 30
0.0
210
0.0
220
0.0
230
1.0
  2
SOLID
 70
1
 71
0
 91
8
 92
3
 72
0
 73
1
 93
4
 10
64.2
 20
21.4
 10
64.2
 20
4.6
 10
61.6
 20
4.6
 10
61.6
 20
21.4
 97
0
 92
3
 72
0
 73
1
 93
5
 10
64.2
 20
18.9
 10
61.6
 20
18.9
 10
61.6
 20
18.5
 10
64.2
 20
18.5
 10
64.2
 20
18.9
 97
0
 92
3
 72
0
 73
1
 93
5
 10
64.2
 20
17.0
 10
61.6
 20
17.0
 10
61.6
 20
16.6
 10
64.2
 20
16.6
 10
64.2
 20
17.0
 97
0
 92
3
 72
0
 73
1
 93
5
 10
64.2
 20
15.1
 10
61.6
 20
15.1
 10
61.6
 20
14.7
 10
64.2
 20
14.7
 10
64.2
 20
15.1
 97
0
 92
3
 72
0
 73
1
 93
5
 10
64.2
 20
13.2
 10
61.6
 20
13.2
 10
61.6
 20
12.8
 10
64.2
 20
12.8
 10
64.2
 20
13.2
 97
0
 92
3
 72
0
 73
1
 93
5
 10
64.2
 20
11.3
 10
61.6
 20
11.3
 10
61.6
 20
10.9
 10
64.2
 20
10.9
 10
64.2
 20
11.3
 97
0
 92
3
 72
0
 73
1
 93
5
 10
64.2
 20
9.4
 10
61.6
 20
9.4
 10
61.6
 20
9.0
 10
64.2
 20
9.0
 10
64.2
 20
9.4
 97
0
 92
3
 72
0
 73
1
 93
5
 10
64.2
 20
7.5
 10
61.6
 20
7.5
 10
61.6
 20
7.1
 10
64.2
 20
7.1
 10
64.2
 20
7.5
 97
0
 75
0
 76
1
 98
0
  0
LWPOLYLINE
  5
3D
330
17
100
AcDbEntity
  8
CUT
100
AcDbPolyline
 90
78
 70
1
 10
95.138
 20
17.638
 10
95.138
 20
8.363
 10
92.5
 20
8.363
 10
91.721
 20
8.363
 10
91.834
 20
8.202
 10
91.94
 20
7.724
 10
91.853
 20
7.242
 10
91.585
 20
6.832
 10
91.18
 20
6.556
 10
90.7
 20
6.46
 10
90.22
 20
6.556
 10
89.815
 20
6.832
 10
89.547
 20
7.242
 10
89.46
 20
7.724
 10
89.566
 20
8.202
 10
89.679
 20
8.363
 10
86.321
 20
8.363
 10
86.434
 20
8.202
 10
86.54
 20
7.724
 10
86.453
 20
7.242
 10
86.185
 20
6.832
 10
85.78
 20
6.556
 10
85.3
 20
6.46
 10
84.82
 20
6.556
 10
84.415
 20
6.832
 10
84.147
 20
7.242
 10
84.06
 20
7.724
 10
84.166
 20
8.202
 10
84.279
 20
8.363
 10
83.638
 20
8.363
 10
83.638
 20
4.986
 10
83.553
 20
4.564
 10
83.306
 20
4.194
 10
82.936
 20
3.947
 10
82.514
 20
3.863
 10
80.986
 20
3.863
 10
80.564
 20
3.947
 10
80.194
 20
4.194
 10
79.947
 20
4.564
 10
79.863
 20
4.986
 10
79.863
 20
21.014
 10
79.947
 20
21.436
 10
80.194
 20
21.806
 10
80.564
 20
22.053
 10
80.986
 20
22.138
 10
82.514
 20
22.138
 10
82.936
 20
22.053
 10
83.306
 20
21.806
 10
83.553
 20
21.436
 10
83.638
 20
21.014
 10
83.638
 20
17.638
 10
84.279
 20
17.638
 10
84.166
 20
17.798
 10
84.06
 20
18.276
 10
84.147
 20
18.758
 10
84.415
 20
19.168
 10
84.82
 20
19.444
 10
85.3
 20
19.54
 10
85.78
 20
19.444
 10
86.185
 20
19.168
 10
86.453
 20
18.758
 10
86.54
 20
18.276
 10
86.434
 20
17.798
 10
86.321
 20
17.638
 10
89.679
 20
17.638
 10
89.566
 20
17.798
 10
89.46
 20
18.276
 10
89.547
 20
18.758
 10
89.815
 20
19.168
 10
90.22
 20
19.444
 10
90.7
 20
19.54
 10
91.18
 20
19.444
 10
91.585
 20
19.168
 10
91.853
 20
18.758
 10
91.94
 20
18.276
 10
91.834
 20
17.798
 10
91.721
 20
17.638
 10
92.5
 20
17.638
  0
HATCH
  5
3E
330
17
100
AcDbEntity
  8
RASTER
 62
7
100
AcDbHatch
 10
0.0
 20
0.0
 30
0.0
210
0.0
220
0.0
230
1.0
  2
SOLID
 70
1
 71
0
 91
6
 92
3
 72
0
 73
1
 93
4
 10
94.75
 20
17.5
 10
94.75
 20
8.5
 10
83.8
 20
8.5
 10
83.8
 20
17.5
 97
0
 92
3
 72
0
 73
1
 93
5
 10
93.05
 20
17.0
 10
92.65
 20
17.0
 10
92.65
 20
9.0
 10
93.05
 20
9.0
 10
93.05
 20
17.0
 97
0
 92
3
 72
0
 73
1
 93
5
 10
91.15
 20
17.0
 10
90.75
 20
17.0
 10
90.75
 20
9.0
 10
91.15
 20
9.0
 10
91.15
 20
17.0
 97
0
 92
3
 72
0
 73
1
 93
5
 10
89.25
 20
17.0
 10
88.85
 20
17.0
 10
88.85
 20
9.0
 10
89.25
 20
9.0
 10
89.25
 20
17.0
 97
0
 92
3
 72
0
 73
1
 93
5
 10
87.35
 20
17.0
 10
86.95
 20
17.0
 10
86.95
 20
9.0
 10
87.35
 20
9.0
 10
87.35
 20
17.0
 97
0
 92
3
 72
0
 73
1
 93
5
 10
85.45
 20
17.0
 10
85.05
 20
17.0
 10
85.05
 20
9.0
 10
85.45
 20
9.0
 10
85.45
 20
17.0
 97
0
 75
0
 76
1
 98
0
  0
HATCH
  5
3F
330
17
100
AcDbEntity
  8
RASTER
 62
7
100
AcDbHatch
 10
0.0
 20
0.0
 30
0.0
210
0.0
220
0.0
230
1.0
  2
SOLID
 70
1
 71
0
 91
8
 92
3
 72
0
 73
1
 93
4
 10
83.2
 20
21.4
 10
83.2
 20
4.6
 10
80.6
 20
4.6
 10
80.6
 20
21.4
 97
0
 92
3
 72
0
 73
1
 93
5
 10
83.2
 20
18.9
 10
80.6
 20
18.9
 10
80.6
 20
18.5
 10
83.2
 20
18.5
 10
83.2
 20
18.9
 97
0
 92
3
 72
0
 73
1
 93
5
 10
83.2
 20
17.0
 10
80.6
 20
17.0
 10
80.6
 20
16.6
 10
83.2
 20
16.6
 10
83.2
 20
17.0
 97
0
 92
3
 72
0
 73
1
 93
5
 10
83.2
 20
15.1
 10
80.6
 20
15.1
 10
80.6
 20
14.7
 10
83.2
 20
14.7
 10
83.2
 20
15.1
 97
0
 92
3
 72
0
 73
1
 93
5
 10
83.2
 20
13.2
 10
80.6
 20
13.2
 10
80.6
 20
12.8
 10
83.2
 20
12.8
 10
83.2
 20
13.2
 97
0
 92
3
 72
0
 73
1
 93
5
 10
83.2
 20
11.3
 10
80.6
 20
11.3
 10
80.6
 20
10.9
 10
83.2
 20
10.9
 10
83.2
 20
11.3
 97
0
 92
3
 72
0
 73
1
 93
5
 10
83.2
 20
9.4
 10
80.6
 20
9.4
 10
80.6
 20
9.0
 10
83.2
 20
9.0
 10
83.2
 20
9.4
 97
0
 92
3
 72
0
 73
1
 93
5
 10
83.2
 20
7.5
 10
80.6
 20
7.5
 10
80.6
 20
7.1
 10
83.2
 20
7.1
 10
83.2
 20
7.5
 97
0
 75
0
 76
1
 98
0
  0
LWPOLYLINE
  5
40
330
17
100
AcDbEntity
  8
CUT
100
AcDbPolyline
 90
78
 70
1
 10
114.138
 20
17.638
 10
114.138
 20
8.363
 10
111.5
 20
8.363
 10
110.721
 20
8.363
 10
110.834
 20
8.202
 10
110.94
 20
7.724
 10
110.853
 20
7.242
 10
110.585
 20
6.832
 10
110.18
 20
6.556
 10
109.7
 20
6.46
 10
109.22
 20
6.556
 10
108.815
 20
6.832
 10
108.547
 20
7.242
 10
108.46
 20
7.724
 10
108.566
 20
8.202
 10
108.679
 20
8.363
 10
105.321
 20
8.363
 10
105.434
 20
8.202
 10
105.54
 20
7.724
 10
105.453
 20
7.242
 10
105.185
 20
6.832
 10
104.78
 20
6.556
 10
104.3
 20
6.46
 10
103.82
 20
6.556
 10
103.415
 20
6.832
 10
103.147
 20
7.242
 10
103.06
 20
7.724
 10
103.166
 20
8.202
 10
103.279
 20
8.363
 10
102.638
 20
8.363
 10
102.638
 20
4.986
 10
102.553
 20
4.564
 10
102.306
 20
4.194
 10
101.936
 20
3.947
 10
101.514
 20
3.863
 10
99.986
 20
3.863
 10
99.564
 20
3.947
 10
99.194
 20
4.194
 10
98.947
 20
4.564
 10
98.863
 20
4.986
 10
98.863
 20
21.014
 10
98.947
 20
21.436
 10
99.194
 20
21.806
 10
99.564
 20
22.053
 10
99.986
 20
22.138
 10
101.514
 20
22.138
 10
101.936
 20
22.053
 10
102.306
 20
21.806
 10
102.553
 20
21.436
 10
102.638
 20
21.014
 10
102.638
 20
17.638
 10
103.279
 20
17.638
 10
103.166
 20
17.798
 10
103.06
 20
18.276
 10
103.147
 20
18.758
 10
103.415
 20
19.168
 10
103.82
 20
19.444
 10
104.3
 20
19.54
 10
104.78
 20
19.444
 10
105.185
 20
19.168
 10
105.453
 20
18.758
 10
105.54
 20
18.276
 10
105.434
 20
17.798
 10
105.321
 20
17.638
 10
108.679
 20
17.638
 10
108.566
 20
17.798
 10
108.46
 20
18.276
 10
108.547
 20
18.758
 10
108.815
 20
19.168
 10
109.22
 20
19.444
 10
109.7
 20
19.54
 10
110.18
 20
19.444
 10
110.585
 20
19.168
 10
110.853
 20
18.758
 10
110.94
 20
18.276
 10
110.834
 20
17.798
 10
110.721
 20
17.638
 10
111.5
 20
17.638
  0
HATCH
  5
41
330
17
100
AcDbEntity
  8
RASTER
 62
7
100
AcDbHatch
 10
0.0
 20
0.0
 30
0.0
210
0.0
220
0.0
230
1.0
  2
SOLID
 70
1
 71
0
 91
6
 92
3
 72
0
 73
1
 93
4
 10
113.75
 20
17.5
 10
113.75
 20
8.5
 10
102.8
 20
8.5
 10
102.8
 20
17.5
 97
0
 92
3
 72
0
 73
1
 93
5
 10
112.05
 20
17.0
 10
111.65
 20
17.0
 10
111.65
 20
9.0
 10
112.05
 20
9.0
 10
112.05
 20
17.0
 97
0
 92
3
 72
0
 73
1
 93
5
 10
110.15
 20
17.0
 10
109.75
 20
17.0
 10
109.75
 20
9.0
 10
110.15
 20
9.0
 10
110.15
 20
17.0
 97
0
 92
3
 72
0
 73
1
 93
5
 10
108.25
 20
17.0
 10
107.85
 20
17.0
 10
107.85
 20
9.0
 10
108.25
 20
9.0
 10
108.25
 20
17.0
 97
0
 92
3
 72
0
 73
1
 93
5
 10
106.35
 20
17.0
 10
105.95
 20
17.0
 10
105.95
 20
9.0
 10
106.35
 20
9.0
 10
106.35
 20
17.0
 97
0
 92
3
 72
0
 73
1
 93
5
 10
104.45
 20
17.0
 10
104.05
 20
17.0
 10
104.05
 20
9.0
 10
104.45
 20
9.0
 10
104.45
 20
17.0
 97
0
 75
0
 76
1
 98
0
  0
HATCH
  5
42
330
17
100
AcDbEntity
  8
RASTER
 62
7
100
AcDbHatch
 10
0.0
 20
0.0
 30
0.0
210
0.0
220
0.0
230
1.0
  2
SOLID
 70
1
 71
0
 91
8
 92
3
 72
0
 73
1
 93
4
 10
102.2
 20
21.4
 10
102.2
 20
4.6
 10
99.6
 20
4.6
 10
99.6
 20
21.4
 97
0
 92
3
 72
0
 73
1
 93
5
 10
102.2
 20
18.9
 10
99.6
 20
18.9
 10
99.6
 20
18.5
 10
102.2
 20
18.5
 10
102.2
 20
18.9
 97
0
 92
3
 72
0
 73
1
 93
5
 10
102.2
 20
17.0
 10
99.6
 20
17.0
 10
99.6
 20
16.6
 10
102.2
 20
16.6
 10
102.2
 20
17.0
 97
0
 92
3
 72
0
 73
1
 93
5
 10
102.2
 20
15.1
 10
99.6
 20
15.1
 10
99.6
 20
14.7
 10
102.2
 20
14.7
 10
102.2
 20
15.1
 97
0
 92
3
 72
0
 73
1
 93
5
 10
102.2
 20
13.2
 10
99.6
 20
13.2
 10
99.6
 20
12.8
 10
102.2
 20
12.8
 10
102.2
 20
13.2
 97
0
 92
3
 72
0
 73
1
 93
5
 10
102.2
 20
11.3
 10
99.6
 20
11.3
 10
99.6
 20
10.9
 10
102.2
 20
10.9
 10
102.2
 20
11.3
 97
0
 92
3
 72
0
 73
1
 93
5
 10
102.2
 20
9.4
 10
99.6
 20
9.4
 10
99.6
 20
9.0
 10
102.2
 20
9.0
 10
102.2
 20
9.4
 97
0
 92
3
 72
0
 73
1
 93
5
 10
102.2
 20
7.5
 10
99.6
 20
7.5
 10
99.6
 20
7.1
 10
102.2
 20
7.1
 10
102.2
 20
7.5
 97
0
 75
0
 76
1
 98
0
  0
LWPOLYLINE
  5
43
330
17
100
AcDbEntity
  8
CUT
100
AcDbPolyline
 90
78
 70
1
 10
133.138
 20
17.638
 10
133.138
 20
8.363
 10
130.5
 20
8.363
 10
129.721
 20
8.363
 10
129.834
 20
8.202
 10
129.94
 20
7.724
 10
129.853
 20
7.242
 10
129.585
 20
6.832
 10
129.18
 20
6.556
 10
128.7
 20
6.46
 10
128.22
 20
6.556
 10
127.815
 20
6.832
 10
127.547
 20
7.242
 10
127.46
 20
7.724
 10
127.566
 20
8.202
 10
127.679
 20
8.363
 10
124.321
 20
8.363
 10
124.434
 20
8.202
 10
124.54
 20
7.724
 10
124.453
 20
7.242
 10
124.185
 20
6.832
 10
123.78
 20
6.556
 10
123.3
 20
6.46
 10
122.82
 20
6.556
 10
122.415
 20
6.832
 10
122.147
 20
7.242
 10
122.06
 20
7.724
 10
122.166
 20
8.202
 10
122.279
 20
8.363
 10
121.638
 20
8.363
 10
121.638
 20
4.986
 10
121.553
 20
4.564
 10
121.306
 20
4.194
 10
120.936
 20
3.947
 10
120.514
 20
3.863
 10
118.986
 20
3.863
 10
118.564
 20
3.947
 10
118.194
 20
4.194
 10
117.947
 20
4.564
 10
117.863
 20
4.986
 10
117.863
 20
21.014
 10
117.947
 20
21.436
 10
118.194
 20
21.806
 10
118.564
 20
22.053
 10
118.986
 20
22.138
 10
120.514
 20
22.138
 10
120.936
 20
22.053
 10
121.306
 20
21.806
 10
121.553
 20
21.436
 10
121.638
 20
21.014
 10
121.638
 20
17.638
 10
122.279
 20
17.638
 10
122.166
 20
17.798
 10
122.06
 20
18.276
 10
122.147
 20
18.758
 10
122.415
 20
19.168
 10
122.82
 20
19.444
 10
123.3
 20
19.54
 10
123.78
 20
19.444
 10
124.185
 20
19.168
 10
124.453
 20
18.758
 10
124.54
 20
18.276
 10
124.434
 20
17.798
 10
124.321
 20
17.638
 10
127.679
 20
17.638
 10
127.566
 20
17.798
 10
127.46
 20
18.276
 10
127.547
 20
18.758
 10
127.815
 20
19.168
 10
128.22
 20
19.444
 10
128.7
 20
19.54
 10
129.18
 20
19.444
 10
129.585
 20
19.168
 10
129.853
 20
18.758
 10
129.94
 20
18.276
 10
129.834
 20
17.798
 10
129.721
 20
17.638
 10
130.5
 20
17.638
  0
HATCH
  5
44
330
17
100
AcDbEntity
  8
RASTER
 62
7
100
AcDbHatch
 10
0.0
 20
0.0
 30
0.0
210
0.0
220
0.0
230
1.0
  2
SOLID
 70
1
 71
0
 91
6
 92
3
 72
0
 73
1
 93
4
 10
132.75
 20
17.5
 10
132.75
 20
8.5
 10
121.8
 20
8.5
 10
121.8
 20
17.5
 97
0
 92
3
 72
0
 73
1
 93
5
 10
131.05
 20
17.0
 10
130.65
 20
17.0
 10
130.65
 20
9.0
 10
131.05
 20
9.0
 10
131.05
 20
17.0
 97
0
 92
3
 72
0
 73
1
 93
5
 10
129.15
 20
17.0
 10
128.75
 20
17.0
 10
128.75
 20
9.0
 10
129.15
 20
9.0
 10
129.15
 20
17.0
 97
0
 92
3
 72
0
 73
1
 93
5
 10
127.25
 20
17.0
 10
126.85
 20
17.0
 10
126.85
 20
9.0
 10
127.25
 20
9.0
 10
127.25
 20
17.0
 97
0
 92
3
 72
0
 73
1
 93
5
 10
125.35
 20
17.0
 10
124.95
 20
17.0
 10
124.95
 20
9.0
 10
125.35
 20
9.0
 10
125.35
 20
17.0
 97
0
 92
3
 72
0
 73
1
 93
5
 10
123.45
 20
17.0
 10
123.05
 20
17.0
 10
123.05
 20
9.0
 10
123.45
 20
9.0
 10
123.45
 20
17.0
 97
0
 75
0
 76
1
 98
0
  0
HATCH
  5
45
330
17
100
AcDbEntity
  8
RASTER
 62
7
100
AcDbHatch
 10
0.0
 20
0.0
 30
0.0
210
0.0
220
0.0
230
1.0
  2
SOLID
 70
1
 71
0
 91
8
 92
3
 72
0
 73
1
 93
4
 10
121.2
 20
21.4
 10
121.2
 20
4.6
 10
118.6
 20
4.6
 10
118.6
 20
21.4
 97
0
 92
3
 72
0
 73
1
 93
5
 10
121.2
 20
18.9
 10
118.6
 20
18.9
 10
118.6
 20
18.5
 10
121.2
 20
18.5
 10
121.2
 20
18.9
 97
0
 92
3
 72
0
 73
1
 93
5
 10
121.2
 20
17.0
 10
118.6
 20
17.0
 10
118.6
 20
16.6
 10
121.2
 20
16.6
 10
121.2
 20
17.0
 97
0
 92
3
 72
0
 73
1
 93
5
 10
121.2
 20
15.1
 10
118.6
 20
15.1
 10
118.6
 20
14.7
 10
121.2
 20
14.7
 10
121.2
 20
15.1
 97
0
 92
3
 72
0
 73
1
 93
5
 10
121.2
 20
13.2
 10
118.6
 20
13.2
 10
118.6
 20
12.8
 10
121.2
 20
12.8
 10
121.2
 20
13.2
 97
0
 92
3
 72
0
 73
1
 93
5
 10
121.2
 20
11.3
 10
118.6
 20
11.3
 10
118.6
 20
10.9
 10
121.2
 20
10.9
 10
121.2
 20
11.3
 97
0
 92
3
 72
0
 73
1
 93
5
 10
121.2
 20
9.4
 10
118.6
 20
9.4
 10
118.6
 20
9.0
 10
121.2
 20
9.0
 10
121.2
 20
9.4
 97
0
 92
3
 72
0
 73
1
 93
5
 10
121.2
 20
7.5
 10
118.6
 20
7.5
 10
118.6
 20
7.1
 10
121.2
 20
7.1
 10
121.2
 20
7.5
 97
0
 75
0
 76
1
 98
0
  0
ENDSEC
  0
SECTION
  2
OBJECTS
  0
DICTIONARY
  5
A
330
0
100
AcDbDictionary
281
1
  3
ACAD_COLOR
350
B
  3
ACAD_GROUP
350
C
  3
ACAD_LAYOUT
350
D
  3
ACAD_MATERIAL
350
E
  3
ACAD_MLEADERSTYLE
350
F
  3
ACAD_MLINESTYLE
350
10
  3
ACAD_PLOTSETTINGS
350
11
  3
ACAD_PLOTSTYLENAME
350
12
  3
ACAD_SCALELIST
350
14
  3
ACAD_TABLESTYLE
350
15
  3
ACAD_VISUALSTYLE
350
16
  3
EZDXF_META
350
2D
  0
DICTIONARY
  5
B
330
A
100
AcDbDictionary
281
1
  0
DICTIONARY
  5
C
330
A
100
AcDbDictionary
281
1
  0
DICTIONARY
  5
D
330
A
100
AcDbDictionary
281
1
  3
Model
350
1A
  3
Layout1
350
1E
  0
DICTIONARY
  5
E
330
A
100
AcDbDictionary
281
1
  3
ByBlock
350
1F
  3
ByLayer
350
20
  3
Global
350
21
  0
DICTIONARY
  5
F
330
A
100
AcDbDictionary
281
1
  3
Standard
350
2C
  0
DICTIONARY
  5
10
330
A
100
AcDbDictionary
281
1
  3
Standard
350
22
  0
DICTIONARY
  5
11
330
A
100
AcDbDictionary
281
1
  0
ACDBDICTIONARYWDFLT
  5
12
330
A
100
AcDbDictionary
281
1
  3
Normal
350
13
100
AcDbDictionaryWithDefault
340
13
  0
ACDBPLACEHOLDER
  5
13
330
12
  0
DICTIONARY
  5
14
330
A
100
AcDbDictionary
281
1
  0
DICTIONARY
  5
15
330
A
100
AcDbDictionary
281
1
  0
DICTIONARY
  5
16
330
A
100
AcDbDictionary
281
1
  0
LAYOUT
  5
1A
330
D
100
AcDbPlotSettings
  1

  4
A3
  6

 40
7.5
 41
20.0
 42
7.5
 43
20.0
 44
420.0
 45
297.0
 46
0.0
 47
0.0
 48
0.0
 49
0.0
140
0.0
141
0.0
142
1.0
143
1.0
 70
1024
 72
1
 73
0
 74
5
  7

 75
16
 76
0
 77
2
 78
300
147
1.0
148
0.0
149
0.0
100
AcDbLayout
  1
Model
 70
1
 71
0
 10
0.0
 20
0.0
 11
420.0
 21
297.0
 12
0.0
 22
0.0
 32
0.0
 14
1e+20
 24
1e+20
 34
1e+20
 15
-1e+20
 25
-1e+20
 35
-1e+20
146
0.0
 13
0.0
 23
0.0
 33
0.0
 16
1.0
 26
0.0
 36
0.0
 17
0.0
 27
1.0
 37
0.0
 76
1
330
17
  0
LAYOUT
  5
1E
330
D
100
AcDbPlotSettings
  1

  4
A3
  6

 40
7.5
 41
20.0
 42
7.5
 43
20.0
 44
420.0
 45
297.0
 46
0.0
 47
0.0
 48
0.0
 49
0.0
140
0.0
141
0.0
142
1.0
143
1.0
 70
0
 72
1
 73
0
 74
5
  7

 75
16
 76
0
 77
2
 78
300
147
1.0
148
0.0
149
0.0
100
AcDbLayout
  1
Layout1
 70
1
 71
1
 10
0.0
 20
0.0
 11
420.0
 21
297.0
 12
0.0
 22
0.0
 32
0.0
 14
1e+20
 24
1e+20
 34
1e+20
 15
-1e+20
 25
-1e+20
 35
-1e+20
146
0.0
 13
0.0
 23
0.0
 33
0.0
 16
1.0
 26
0.0
 36
0.0
 17
0.0
 27
1.0
 37
0.0
 76
1
330
1B
  0
MATERIAL
  5
1F
102
{ACAD_REACTORS
330
E
102
}
330
E
100
AcDbMaterial
  1
ByBlock
  2

 70
0
 40
1.0
 71
1
 41
1.0
 91
-1023410177
 42
1.0
 72
1
  3

 73
1
 74
1
 75
1
 44
0.5
 73
0
 45
1.0
 46
1.0
 77
1
  4

 78
1
 79
1
170
1
 48
1.0
171
1
  6

172
1
173
1
174
1
140
1.0
141
1.0
175
1
  7

176
1
177
1
178
1
143
1.0
179
1
  8

270
1
271
1
272
1
145
1.0
146
1.0
273
1
  9

274
1
275
1
276
1
 42
1.0
 72
1
  3

 73
1
 74
1
 75
1
 94
63
  0
MATERIAL
  5
20
102
{ACAD_REACTORS
330
E
102
}
330
E
100
AcDbMaterial
  1
ByLayer
  2

 70
0
 40
1.0
 71
1
 41
1.0
 91
-1023410177
 42
1.0
 72
1
  3

 73
1
 74
1
 75
1
 44
0.5
 73
0
 45
1.0
 46
1.0
 77
1
  4

 78
1
 79
1
170
1
 48
1.0
171
1
  6

172
1
173
1
174
1
140
1.0
141
1.0
175
1
  7

176
1
177
1
178
1
143
1.0
179
1
  8

270
1
271
1
272
1
145
1.0
146
1.0
273
1
  9

274
1
275
1
276
1
 42
1.0
 72
1
  3

 73
1
 74
1
 75
1
 94
63
  0
MATERIAL
  5
21
102
{ACAD_REACTORS
330
E
102
}
330
E
100
AcDbMaterial
  1
Global
  2

 70
0
 40
1.0
 71
1
 41
1.0
 91
-1023410177
 42
1.0
 72
1
  3

 73
1
 74
1
 75
1
 44
0.5
 73
0
 45
1.0
 46
1.0
 77
1
  4

 78
1
 79
1
170
1
 48
1.0
171
1
  6

172
1
173
1
174
1
140
1.0
141
1.0
175
1
  7

176
1
177
1
178
1
143
1.0
179
1
  8

270
1
271
1
272
1
145
1.0
146
1.0
273
1
  9

274
1
275
1
276
1
 42
1.0
 72
1
  3

 73
1
 74
1
 75
1
 94
63
  0
MLINESTYLE
  5
22
102
{ACAD_REACTORS
330
10
102
}
330
10
100
AcDbMlineStyle
  2
Standard
 70
0
  3

 62
256
 51
90.0
 52
90.0
 71
2
 49
0.5
 62
256
  6
BYLAYER
 49
-0.5
 62
256
  6
BYLAYER
  0
MLEADERSTYLE
  5
2C
102
{ACAD_REACTORS
330
F
102
}
330
F
100
AcDbMLeaderStyle
179
2
170
2
171
1
172
0
 90
2
 40
0.0
 41
0.0
173
1
 91
-1056964608
 92
-2
290
1
 42
2.0
291
1
 43
8.0
  3
Standard
 44
4.0
300

342
29
174
1
175
1
176
0
178
1
 93
-1056964608
 45
4.0
292
0
297
0
 46
4.0
 94
-1056964608
 47
1.0
 49
1.0
140
1.0
294
1
141
0.0
177
0
142
1.0
295
0
296
0
143
3.75
271
0
272
9
273
9
  0
DICTIONARY
  5
2D
330
A
100
AcDbDictionary
280
1
281
1
  3
CREATED_BY_EZDXF
350
2E
  3
WRITTEN_BY_EZDXF
350
48
  0
DICTIONARYVAR
  5
2E
330
2D
100
DictionaryVariables
280
0
  1
1.4.2 @ 2026-08-25T23:57:12.450618+00:00
  0
DICTIONARYVAR
  5
48
330
2D
100
DictionaryVariables
280
0
  1
1.4.2 @ 2026-08-25T23:57:12.452901+00:00
  0
ENDSEC
  0
EOF
