<svg xmlns="http://www.w3.org/2000/svg" xmlns:inkscape="http://www.inkscape.org/namespaces/inkscape" width="100mm" height="82mm" viewBox="0 0 100 82">
<title>Pastry Pirates — V3 · The Round Table — One cargo crate (test cut, thin ply)</title>
<desc>A single crate, 3.1 mm ply: four slatted walls and the base. Kerf-compensated — cut on the line. Units: mm. 25 mm squares, 5.9 mm material. KERF-COMPENSATED: cut lines offset 0.1375 mm away from the kept wood (kerf 0.275 mm) — cut exactly on the line. RASTER = black fill (engrave), CUT = red hairline (cut). Generated by physical-board/generate.mjs.</desc>
<g id="RASTER" class="layer-raster" inkscape:label="RASTER" inkscape:groupmode="layer" fill="#000000" fill-rule="nonzero" stroke="none">
<g class="piece" data-piece="crate-CRUMBLE-front">
<path d="M7.7 4.4L10.5 4.4L10.5 18.5L7.7 18.5Z"/>
<path d="M41.5 4.4L44.3 4.4L44.3 18.5L41.5 18.5Z"/>
<circle cx="12.7" cy="6.35" r="0.5"/>
<circle cx="39.3" cy="6.35" r="0.5"/>
<circle cx="12.7" cy="11.45" r="0.5"/>
<circle cx="39.3" cy="11.45" r="0.5"/>
<circle cx="12.7" cy="16.55" r="0.5"/>
<circle cx="39.3" cy="16.55" r="0.5"/>
</g>
<g class="piece" data-piece="crate-CRUMBLE-back">
<path d="M55.7 4.4L58.5 4.4L58.5 18.5L55.7 18.5Z"/>
<path d="M89.5 4.4L92.3 4.4L92.3 18.5L89.5 18.5Z"/>
<circle cx="60.7" cy="6.35" r="0.5"/>
<circle cx="87.3" cy="6.35" r="0.5"/>
<circle cx="60.7" cy="11.45" r="0.5"/>
<circle cx="87.3" cy="11.45" r="0.5"/>
<circle cx="60.7" cy="16.55" r="0.5"/>
<circle cx="87.3" cy="16.55" r="0.5"/>
</g>
<g class="piece" data-piece="crate-CRUMBLE-side-1">
<path d="M7.7 26.4L10.5 26.4L10.5 40.5L7.7 40.5Z"/>
<path d="M27.5 26.4L30.3 26.4L30.3 40.5L27.5 40.5Z"/>
<circle cx="12.7" cy="28.35" r="0.5"/>
<circle cx="25.3" cy="28.35" r="0.5"/>
<circle cx="12.7" cy="33.45" r="0.5"/>
<circle cx="25.3" cy="33.45" r="0.5"/>
<circle cx="12.7" cy="38.55" r="0.5"/>
<circle cx="25.3" cy="38.55" r="0.5"/>
</g>
<g class="piece" data-piece="crate-CRUMBLE-side-2">
<path d="M41.7 26.4L44.5 26.4L44.5 40.5L41.7 40.5Z"/>
<path d="M61.5 26.4L64.3 26.4L64.3 40.5L61.5 40.5Z"/>
<circle cx="46.7" cy="28.35" r="0.5"/>
<circle cx="59.3" cy="28.35" r="0.5"/>
<circle cx="46.7" cy="33.45" r="0.5"/>
<circle cx="59.3" cy="33.45" r="0.5"/>
<circle cx="46.7" cy="38.55" r="0.5"/>
<circle cx="59.3" cy="38.55" r="0.5"/>
</g>
</g>
<g id="CUT" class="layer-cut" inkscape:label="CUT" inkscape:groupmode="layer" fill="none" stroke="#ff0000" stroke-width="0.1">
<g class="piece" data-piece="crate-CRUMBLE-front">
<path d="M7.1 3.96L44.9 3.96L48.04 3.96L48.04 9.007L44.94 9.007L44.94 13.893L48.04 13.893L48.04 18.94L44.9 18.94L39.54 18.94L39.54 22.04L34.06 22.04L34.06 18.94L28.74 18.94L28.74 22.04L23.26 22.04L23.26 18.94L17.94 18.94L17.94 22.04L12.46 22.04L12.46 18.94L7.1 18.94L3.96 18.94L3.96 13.893L7.06 13.893L7.06 9.007L3.96 9.007L3.96 3.96Z"/>
<path d="M11.14 8.24L40.86 8.24L40.86 9.56L11.14 9.56Z"/>
<path d="M11.14 13.34L40.86 13.34L40.86 14.66L11.14 14.66Z"/>
</g>
<g class="piece" data-piece="crate-CRUMBLE-back">
<path d="M55.1 3.96L92.9 3.96L96.04 3.96L96.04 9.007L92.94 9.007L92.94 13.893L96.04 13.893L96.04 18.94L92.9 18.94L87.54 18.94L87.54 22.04L82.06 22.04L82.06 18.94L76.74 18.94L76.74 22.04L71.26 22.04L71.26 18.94L65.94 18.94L65.94 22.04L60.46 22.04L60.46 18.94L55.1 18.94L51.96 18.94L51.96 13.893L55.06 13.893L55.06 9.007L51.96 9.007L51.96 3.96Z"/>
<path d="M59.14 8.24L88.86 8.24L88.86 9.56L59.14 9.56Z"/>
<path d="M59.14 13.34L88.86 13.34L88.86 14.66L59.14 14.66Z"/>
</g>
<g class="piece" data-piece="crate-CRUMBLE-side-1">
<path d="M7.06 25.96L30.94 25.96L30.94 30.927L34.04 30.927L34.04 35.973L30.94 35.973L30.94 40.94L26.18 40.94L26.18 44.04L21.34 44.04L21.34 40.94L16.66 40.94L16.66 44.04L11.82 44.04L11.82 40.94L7.06 40.94L7.06 35.973L3.96 35.973L3.96 30.927L7.06 30.927Z"/>
<path d="M11.14 30.24L26.86 30.24L26.86 31.56L11.14 31.56Z"/>
<path d="M11.14 35.34L26.86 35.34L26.86 36.66L11.14 36.66Z"/>
</g>
<g class="piece" data-piece="crate-CRUMBLE-side-2">
<path d="M41.06 25.96L64.94 25.96L64.94 30.927L68.04 30.927L68.04 35.973L64.94 35.973L64.94 40.94L60.18 40.94L60.18 44.04L55.34 44.04L55.34 40.94L50.66 40.94L50.66 44.04L45.82 44.04L45.82 40.94L41.06 40.94L41.06 35.973L37.96 35.973L37.96 30.927L41.06 30.927Z"/>
<path d="M45.14 30.24L60.86 30.24L60.86 31.56L45.14 31.56Z"/>
<path d="M45.14 35.34L60.86 35.34L60.86 36.66L45.14 36.66Z"/>
</g>
<g class="piece" data-piece="crate-CRUMBLE-base">
<path d="M3.96 47.96L7.1 47.96L12.54 47.96L12.54 51.06L17.86 51.06L17.86 47.96L23.34 47.96L23.34 51.06L28.66 51.06L28.66 47.96L34.14 47.96L34.14 51.06L39.46 51.06L39.46 47.96L44.9 47.96L48.04 47.96L48.04 51.1L48.04 55.9L44.94 55.9L44.94 60.58L48.04 60.58L48.04 65.42L44.94 65.42L44.94 70.1L48.04 70.1L48.04 74.9L48.04 78.04L44.9 78.04L39.46 78.04L39.46 74.94L34.14 74.94L34.14 78.04L28.66 78.04L28.66 74.94L23.34 74.94L23.34 78.04L17.86 78.04L17.86 74.94L12.54 74.94L12.54 78.04L7.1 78.04L3.96 78.04L3.96 74.9L3.96 70.1L7.06 70.1L7.06 65.42L3.96 65.42L3.96 60.58L7.06 60.58L7.06 55.9L3.96 55.9L3.96 51.1Z"/>
</g>
</g>
</svg>
