  0
SECTION
  2
HEADER
  9
$ACADVER
  1
AC1015
  9
$ACADMAINTVER
 70
6
  9
$DWGCODEPAGE
  3
ANSI_1252
  9
$INSBASE
 10
0.0
 20
0.0
 30
0.0
  9
$EXTMIN
 10
1e+20
 20
1e+20
 30
1e+20
  9
$EXTMAX
 10
-1e+20
 20
-1e+20
 30
-1e+20
  9
$LIMMIN
 10
0.0
 20
0.0
  9
$LIMMAX
 10
420.0
 20
297.0
  9
$ORTHOMODE
 70
0
  9
$REGENMODE
 70
1
  9
$FILLMODE
 70
1
  9
$QTEXTMODE
 70
0
  9
$MIRRTEXT
 70
1
  9
$LTSCALE
 40
1.0
  9
$ATTMODE
 70
1
  9
$TEXTSIZE
 40
2.5
  9
$TRACEWID
 40
1.0
  9
$TEXTSTYLE
  7
Standard
  9
$CLAYER
  8
0
  9
$CELTYPE
  6
ByLayer
  9
$CECOLOR
 62
256
  9
$CELTSCALE
 40
1.0
  9
$DISPSILH
 70
0
  9
$DIMSCALE
 40
1.0
  9
$DIMASZ
 40
2.5
  9
$DIMEXO
 40
0.625
  9
$DIMDLI
 40
3.75
  9
$DIMRND
 40
0.0
  9
$DIMDLE
 40
0.0
  9
$DIMEXE
 40
1.25
  9
$DIMTP
 40
0.0
  9
$DIMTM
 40
0.0
  9
$DIMTXT
 40
2.5
  9
$DIMCEN
 40
2.5
  9
$DIMTSZ
 40
0.0
  9
$DIMTOL
 70
0
  9
$DIMLIM
 70
0
  9
$DIMTIH
 70
0
  9
$DIMTOH
 70
0
  9
$DIMSE1
 70
0
  9
$DIMSE2
 70
0
  9
$DIMTAD
 70
1
  9
$DIMZIN
 70
8
  9
$DIMBLK
  1

  9
$DIMASO
 70
1
  9
$DIMSHO
 70
1
  9
$DIMPOST
  1

  9
$DIMAPOST
  1

  9
$DIMALT
 70
0
  9
$DIMALTD
 70
3
  9
$DIMALTF
 40
0.03937007874
  9
$DIMLFAC
 40
1.0
  9
$DIMTOFL
 70
1
  9
$DIMTVP
 40
0.0
  9
$DIMTIX
 70
0
  9
$DIMSOXD
 70
0
  9
$DIMSAH
 70
0
  9
$DIMBLK1
  1

  9
$DIMBLK2
  1

  9
$DIMSTYLE
  2
ISO-25
  9
$DIMCLRD
 70
0
  9
$DIMCLRE
 70
0
  9
$DIMCLRT
 70
0
  9
$DIMTFAC
 40
1.0
  9
$DIMGAP
 40
0.625
  9
$DIMJUST
 70
0
  9
$DIMSD1
 70
0
  9
$DIMSD2
 70
0
  9
$DIMTOLJ
 70
0
  9
$DIMTZIN
 70
8
  9
$DIMALTZ
 70
0
  9
$DIMALTTZ
 70
0
  9
$DIMUPT
 70
0
  9
$DIMDEC
 70
2
  9
$DIMTDEC
 70
2
  9
$DIMALTU
 70
2
  9
$DIMALTTD
 70
3
  9
$DIMTXSTY
  7
Standard
  9
$DIMAUNIT
 70
0
  9
$DIMADEC
 70
0
  9
$DIMALTRND
 40
0.0
  9
$DIMAZIN
 70
0
  9
$DIMDSEP
 70
44
  9
$DIMATFIT
 70
3
  9
$DIMFRAC
 70
0
  9
$DIMLDRBLK
  1

  9
$DIMLUNIT
 70
2
  9
$DIMLWD
 70
-2
  9
$DIMLWE
 70
-2
  9
$DIMTMOVE
 70
0
  9
$LUNITS
 70
2
  9
$LUPREC
 70
4
  9
$SKETCHINC
 40
1.0
  9
$FILLETRAD
 40
10.0
  9
$AUNITS
 70
0
  9
$AUPREC
 70
2
  9
$MENU
  1
.
  9
$ELEVATION
 40
0.0
  9
$PELEVATION
 40
0.0
  9
$THICKNESS
 40
0.0
  9
$LIMCHECK
 70
0
  9
$CHAMFERA
 40
0.0
  9
$CHAMFERB
 40
0.0
  9
$CHAMFERC
 40
0.0
  9
$CHAMFERD
 40
0.0
  9
$SKPOLY
 70
0
  9
$TDCREATE
 40
2461278.831388889
  9
$TDUCREATE
 40
2458532.153996898
  9
$TDUPDATE
 40
2461278.831388889
  9
$TDUUPDATE
 40
2458532.1544311
  9
$TDINDWG
 40
0.0
  9
$TDUSRTIMER
 40
0.0
  9
$USRTIMER
 70
1
  9
$ANGBASE
 50
0.0
  9
$ANGDIR
 70
0
  9
$PDMODE
 70
0
  9
$PDSIZE
 40
0.0
  9
$PLINEWID
 40
0.0
  9
$SPLFRAME
 70
0
  9
$SPLINETYPE
 70
6
  9
$SPLINESEGS
 70
8
  9
$HANDSEED
  5
7F
  9
$SURFTAB1
 70
6
  9
$SURFTAB2
 70
6
  9
$SURFTYPE
 70
6
  9
$SURFU
 70
6
  9
$SURFV
 70
6
  9
$UCSBASE
  2

  9
$UCSNAME
  2

  9
$UCSORG
 10
0.0
 20
0.0
 30
0.0
  9
$UCSXDIR
 10
1.0
 20
0.0
 30
0.0
  9
$UCSYDIR
 10
0.0
 20
1.0
 30
0.0
  9
$UCSORTHOREF
  2

  9
$UCSORTHOVIEW
 70
0
  9
$UCSORGTOP
 10
0.0
 20
0.0
 30
0.0
  9
$UCSORGBOTTOM
 10
0.0
 20
0.0
 30
0.0
  9
$UCSORGLEFT
 10
0.0
 20
0.0
 30
0.0
  9
$UCSORGRIGHT
 10
0.0
 20
0.0
 30
0.0
  9
$UCSORGFRONT
 10
0.0
 20
0.0
 30
0.0
  9
$UCSORGBACK
 10
0.0
 20
0.0
 30
0.0
  9
$PUCSBASE
  2

  9
$PUCSNAME
  2

  9
$PUCSORG
 10
0.0
 20
0.0
 30
0.0
  9
$PUCSXDIR
 10
1.0
 20
0.0
 30
0.0
  9
$PUCSYDIR
 10
0.0
 20
1.0
 30
0.0
  9
$PUCSORTHOREF
  2

  9
$PUCSORTHOVIEW
 70
0
  9
$PUCSORGTOP
 10
0.0
 20
0.0
 30
0.0
  9
$PUCSORGBOTTOM
 10
0.0
 20
0.0
 30
0.0
  9
$PUCSORGLEFT
 10
0.0
 20
0.0
 30
0.0
  9
$PUCSORGRIGHT
 10
0.0
 20
0.0
 30
0.0
  9
$PUCSORGFRONT
 10
0.0
 20
0.0
 30
0.0
  9
$PUCSORGBACK
 10
0.0
 20
0.0
 30
0.0
  9
$USERI1
 70
0
  9
$USERI2
 70
0
  9
$USERI3
 70
0
  9
$USERI4
 70
0
  9
$USERI5
 70
0
  9
$USERR1
 40
0.0
  9
$USERR2
 40
0.0
  9
$USERR3
 40
0.0
  9
$USERR4
 40
0.0
  9
$USERR5
 40
0.0
  9
$WORLDVIEW
 70
1
  9
$SHADEDGE
 70
3
  9
$SHADEDIF
 70
70
  9
$TILEMODE
 70
1
  9
$MAXACTVP
 70
64
  9
$PINSBASE
 10
0.0
 20
0.0
 30
0.0
  9
$PLIMCHECK
 70
0
  9
$PEXTMIN
 10
1e+20
 20
1e+20
 30
1e+20
  9
$PEXTMAX
 10
-1e+20
 20
-1e+20
 30
-1e+20
  9
$PLIMMIN
 10
0.0
 20
0.0
  9
$PLIMMAX
 10
420.0
 20
297.0
  9
$UNITMODE
 70
0
  9
$VISRETAIN
 70
1
  9
$PLINEGEN
 70
0
  9
$PSLTSCALE
 70
1
  9
$TREEDEPTH
 70
3020
  9
$CMLSTYLE
  2
Standard
  9
$CMLJUST
 70
0
  9
$CMLSCALE
 40
20.0
  9
$PROXYGRAPHICS
 70
1
  9
$MEASUREMENT
 70
1
  9
$CELWEIGHT
370
-1
  9
$ENDCAPS
280
0
  9
$JOINSTYLE
280
0
  9
$LWDISPLAY
290
0
  9
$INSUNITS
 70
4
  9
$HYPERLINKBASE
  1

  9
$STYLESHEET
  1

  9
$XEDIT
290
1
  9
$CEPSNTYPE
380
0
  9
$PSTYLEMODE
290
1
  9
$FINGERPRINTGUID
  2
{B4D7E740-CA8A-4788-8EC2-7D6A577207A3}
  9
$VERSIONGUID
  2
{A4412EF2-A4A9-416D-B4B5-3DE422B2E160}
  9
$EXTNAMES
290
1
  9
$PSVPSCALE
 40
0.0
  9
$OLESTARTUP
290
0
  0
ENDSEC
  0
SECTION
  2
CLASSES
  0
CLASS
  1
ACDBDICTIONARYWDFLT
  2
AcDbDictionaryWithDefault
  3
ObjectDBX Classes
 90
0
280
0
281
0
  0
CLASS
  1
SUN
  2
AcDbSun
  3
SCENEOE
 90
1153
280
0
281
0
  0
CLASS
  1
VISUALSTYLE
  2
AcDbVisualStyle
  3
ObjectDBX Classes
 90
4095
280
0
281
0
  0
CLASS
  1
MATERIAL
  2
AcDbMaterial
  3
ObjectDBX Classes
 90
1153
280
0
281
0
  0
CLASS
  1
SCALE
  2
AcDbScale
  3
ObjectDBX Classes
 90
1153
280
0
281
0
  0
CLASS
  1
TABLESTYLE
  2
AcDbTableStyle
  3
ObjectDBX Classes
 90
4095
280
0
281
0
  0
CLASS
  1
MLEADERSTYLE
  2
AcDbMLeaderStyle
  3
ACDB_MLEADERSTYLE_CLASS
 90
4095
280
0
281
0
  0
CLASS
  1
DICTIONARYVAR
  2
AcDbDictionaryVar
  3
ObjectDBX Classes
 90
0
280
0
281
0
  0
CLASS
  1
CELLSTYLEMAP
  2
AcDbCellStyleMap
  3
ObjectDBX Classes
 90
1152
280
0
281
0
  0
CLASS
  1
MENTALRAYRENDERSETTINGS
  2
AcDbMentalRayRenderSettings
  3
SCENEOE
 90
1024
280
0
281
0
  0
CLASS
  1
ACDBDETAILVIEWSTYLE
  2
AcDbDetailViewStyle
  3
ObjectDBX Classes
 90
1025
280
0
281
0
  0
CLASS
  1
ACDBSECTIONVIEWSTYLE
  2
AcDbSectionViewStyle
  3
ObjectDBX Classes
 90
1025
280
0
281
0
  0
CLASS
  1
RASTERVARIABLES
  2
AcDbRasterVariables
  3
ISM
 90
0
280
0
281
0
  0
CLASS
  1
ACDBPLACEHOLDER
  2
AcDbPlaceHolder
  3
ObjectDBX Classes
 90
0
280
0
281
0
  0
CLASS
  1
LAYOUT
  2
AcDbLayout
  3
ObjectDBX Classes
 90
0
280
0
281
0
  0
ENDSEC
  0
SECTION
  2
TABLES
  0
TABLE
  2
VPORT
  5
8
330
0
100
AcDbSymbolTable
 70
1
  0
VPORT
  5
23
330
8
100
AcDbSymbolTableRecord
100
AcDbViewportTableRecord
  2
*Active
 70
0
 10
0.0
 20
0.0
 11
1.0
 21
1.0
 12
0.0
 22
0.0
 13
0.0
 23
0.0
 14
0.5
 24
0.5
 15
0.5
 25
0.5
 16
0.0
 26
0.0
 36
1.0
 17
0.0
 27
0.0
 37
0.0
 40
1000.0
 41
1.34
 42
50.0
 43
0.0
 44
0.0
 50
0.0
 51
0.0
 71
0
 72
1000
 73
1
 74
3
 75
0
 76
0
 77
0
 78
0
281
0
 65
0
146
0.0
  0
ENDTAB
  0
TABLE
  2
LTYPE
  5
2
330
0
100
AcDbSymbolTable
 70
3
  0
LTYPE
  5
24
330
2
100
AcDbSymbolTableRecord
100
AcDbLinetypeTableRecord
  2
ByBlock
 70
0
  3

 72
65
 73
0
 40
0.0
  0
LTYPE
  5
25
330
2
100
AcDbSymbolTableRecord
100
AcDbLinetypeTableRecord
  2
ByLayer
 70
0
  3

 72
65
 73
0
 40
0.0
  0
LTYPE
  5
26
330
2
100
AcDbSymbolTableRecord
100
AcDbLinetypeTableRecord
  2
Continuous
 70
0
  3

 72
65
 73
0
 40
0.0
  0
ENDTAB
  0
TABLE
  2
LAYER
  5
1
330
0
100
AcDbSymbolTable
 70
4
  0
LAYER
  5
27
330
1
100
AcDbSymbolTableRecord
100
AcDbLayerTableRecord
  2
0
 70
0
 62
7
  6
Continuous
370
-3
390
13
  0
LAYER
  5
28
330
1
100
AcDbSymbolTableRecord
100
AcDbLayerTableRecord
  2
Defpoints
 70
0
 62
7
  6
Continuous
290
0
370
-3
390
13
  0
LAYER
  5
2F
330
1
100
AcDbSymbolTableRecord
100
AcDbLayerTableRecord
  2
CUT
 70
0
 62
1
  6
Continuous
370
-3
390
13
  0
LAYER
  5
30
330
1
100
AcDbSymbolTableRecord
100
AcDbLayerTableRecord
  2
RASTER
 70
0
 62
7
  6
Continuous
370
-3
390
13
  0
ENDTAB
  0
TABLE
  2
STYLE
  5
5
330
0
100
AcDbSymbolTable
 70
1
  0
STYLE
  5
29
330
5
100
AcDbSymbolTableRecord
100
AcDbTextStyleTableRecord
  2
Standard
 70
0
 40
0.0
 41
1.0
 50
0.0
 71
0
 42
2.5
  3
txt
  4

  0
ENDTAB
  0
TABLE
  2
VIEW
  5
7
330
0
100
AcDbSymbolTable
 70
0
  0
ENDTAB
  0
TABLE
  2
UCS
  5
6
330
0
100
AcDbSymbolTable
 70
0
  0
ENDTAB
  0
TABLE
  2
APPID
  5
3
330
0
100
AcDbSymbolTable
 70
3
  0
APPID
  5
2A
330
3
100
AcDbSymbolTableRecord
100
AcDbRegAppTableRecord
  2
ACAD
 70
0
  0
APPID
  5
7C
330
3
100
AcDbSymbolTableRecord
100
AcDbRegAppTableRecord
  2
HATCHBACKGROUNDCOLOR
 70
0
  0
APPID
  5
7D
330
3
100
AcDbSymbolTableRecord
100
AcDbRegAppTableRecord
  2
EZDXF
 70
0
  0
ENDTAB
  0
TABLE
  2
DIMSTYLE
  5
4
330
0
100
AcDbSymbolTable
 70
1
100
AcDbDimStyleTable
  0
DIMSTYLE
105
2B
330
4
100
AcDbSymbolTableRecord
100
AcDbDimStyleTableRecord
  2
Standard
 70
0
  3

  4

 40
1.0
 41
2.5
 42
0.625
 43
3.75
 44
1.25
 45
0.0
 46
0.0
 47
0.0
 48
0.0
140
2.5
141
2.5
142
0.0
143
0.03937007874
144
1.0
145
0.0
146
1.0
147
0.625
148
0.0
 71
0
 72
0
 73
0
 74
0
 75
0
 76
0
 77
1
 78
8
 79
3
170
0
171
3
172
1
173
0
174
0
175
0
176
0
177
0
178
0
179
2
271
2
272
2
273
2
274
3
275
0
276
0
277
2
278
44
279
0
280
0
281
0
282
0
283
0
284
8
285
0
286
0
288
0
289
3
371
-2
372
-2
  0
ENDTAB
  0
TABLE
  2
BLOCK_RECORD
  5
9
330
0
100
AcDbSymbolTable
 70
2
  0
BLOCK_RECORD
  5
17
330
9
100
AcDbSymbolTableRecord
100
AcDbBlockTableRecord
  2
*Model_Space
340
1A
  0
BLOCK_RECORD
  5
1B
330
9
100
AcDbSymbolTableRecord
100
AcDbBlockTableRecord
  2
*Paper_Space
340
1E
  0
ENDTAB
  0
ENDSEC
  0
SECTION
  2
BLOCKS
  0
BLOCK
  5
18
330
17
100
AcDbEntity
  8
0
100
AcDbBlockBegin
  2
*Model_Space
 70
0
 10
0.0
 20
0.0
 30
0.0
  3
*Model_Space
  1

  0
ENDBLK
  5
19
330
17
100
AcDbEntity
  8
0
100
AcDbBlockEnd
  0
BLOCK
  5
1C
330
1B
100
AcDbEntity
  8
0
100
AcDbBlockBegin
  2
*Paper_Space
 70
0
 10
0.0
 20
0.0
 30
0.0
  3
*Paper_Space
  1

  0
ENDBLK
  5
1D
330
1B
100
AcDbEntity
  8
0
100
AcDbBlockEnd
  0
ENDSEC
  0
SECTION
  2
ENTITIES
  0
LWPOLYLINE
  5
31
330
17
100
AcDbEntity
  8
CUT
100
AcDbPolyline
 90
40
 70
1
 10
7.1
 20
119.75
 10
80.9
 20
119.75
 10
84.04
 20
119.75
 10
84.04
 20
114.037
 10
80.94
 20
114.037
 10
80.94
 20
108.483
 10
84.04
 20
108.483
 10
84.04
 20
102.77
 10
80.9
 20
102.77
 10
75.263
 20
102.77
 10
75.263
 20
99.67
 10
69.506
 20
99.67
 10
69.506
 20
102.77
 10
63.909
 20
102.77
 10
63.909
 20
99.67
 10
58.152
 20
99.67
 10
58.152
 20
102.77
 10
52.555
 20
102.77
 10
52.555
 20
99.67
 10
46.798
 20
99.67
 10
46.798
 20
102.77
 10
41.202
 20
102.77
 10
41.202
 20
99.67
 10
35.445
 20
99.67
 10
35.445
 20
102.77
 10
29.848
 20
102.77
 10
29.848
 20
99.67
 10
24.091
 20
99.67
 10
24.091
 20
102.77
 10
18.494
 20
102.77
 10
18.494
 20
99.67
 10
12.737
 20
99.67
 10
12.737
 20
102.77
 10
7.1
 20
102.77
 10
3.96
 20
102.77
 10
3.96
 20
108.483
 10
7.06
 20
108.483
 10
7.06
 20
114.037
 10
3.96
 20
114.037
 10
3.96
 20
119.75
  0
HATCH
  5
32
330
17
100
AcDbEntity
  8
RASTER
 62
7
100
AcDbHatch
 10
0.0
 20
0.0
 30
0.0
210
0.0
220
0.0
230
1.0
  2
SOLID
 70
1
 71
0
 91
1
 92
3
 72
0
 73
1
 93
4
 10
8.1
 20
115.81
 10
79.9
 20
115.81
 10
79.9
 20
115.21
 10
8.1
 20
115.21
 97
0
 75
0
 76
1
 98
0
  0
HATCH
  5
33
330
17
100
AcDbEntity
  8
RASTER
 62
7
100
AcDbHatch
 10
0.0
 20
0.0
 30
0.0
210
0.0
220
0.0
230
1.0
  2
SOLID
 70
1
 71
0
 91
1
 92
3
 72
0
 73
1
 93
4
 10
8.1
 20
111.61
 10
79.9
 20
111.61
 10
79.9
 20
111.01
 10
8.1
 20
111.01
 97
0
 75
0
 76
1
 98
0
  0
HATCH
  5
34
330
17
100
AcDbEntity
  8
RASTER
 62
7
100
AcDbHatch
 10
0.0
 20
0.0
 30
0.0
210
0.0
220
0.0
230
1.0
  2
SOLID
 70
1
 71
0
 91
1
 92
3
 72
0
 73
1
 93
4
 10
8.1
 20
107.41
 10
79.9
 20
107.41
 10
79.9
 20
106.81
 10
8.1
 20
106.81
 97
0
 75
0
 76
1
 98
0
  0
HATCH
  5
35
330
17
100
AcDbEntity
  8
RASTER
 62
7
100
AcDbHatch
 10
0.0
 20
0.0
 30
0.0
210
0.0
220
0.0
230
1.0
  2
SOLID
 70
1
 71
0
 91
1
 92
3
 72
0
 73
1
 93
4
 10
22.0
 20
119.71
 10
26.0
 20
119.71
 10
26.0
 20
102.81
 10
22.0
 20
102.81
 97
0
 75
0
 76
1
 98
0
  0
HATCH
  5
36
330
17
100
AcDbEntity
  8
RASTER
 62
7
100
AcDbHatch
 10
0.0
 20
0.0
 30
0.0
210
0.0
220
0.0
230
1.0
  2
SOLID
 70
1
 71
0
 91
1
 92
3
 72
0
 73
1
 93
48
 10
24.55
 20
116.33
 10
24.545
 20
116.258
 10
24.531
 20
116.188
 10
24.508
 20
116.12
 10
24.476
 20
116.055
 10
24.436
 20
115.995
 10
24.389
 20
115.941
 10
24.335
 20
115.894
 10
24.275
 20
115.854
 10
24.21
 20
115.822
 10
24.142
 20
115.799
 10
24.072
 20
115.785
 10
24.0
 20
115.78
 10
23.928
 20
115.785
 10
23.858
 20
115.799
 10
23.79
 20
115.822
 10
23.725
 20
115.854
 10
23.665
 20
115.894
 10
23.611
 20
115.941
 10
23.564
 20
115.995
 10
23.524
 20
116.055
 10
23.492
 20
116.12
 10
23.469
 20
116.188
 10
23.455
 20
116.258
 10
23.45
 20
116.33
 10
23.455
 20
116.402
 10
23.469
 20
116.472
 10
23.492
 20
116.54
 10
23.524
 20
116.605
 10
23.564
 20
116.665
 10
23.611
 20
116.719
 10
23.665
 20
116.766
 10
23.725
 20
116.806
 10
23.79
 20
116.838
 10
23.858
 20
116.861
 10
23.928
 20
116.875
 10
24.0
 20
116.88
 10
24.072
 20
116.875
 10
24.142
 20
116.861
 10
24.21
 20
116.838
 10
24.275
 20
116.806
 10
24.335
 20
116.766
 10
24.389
 20
116.719
 10
24.436
 20
116.665
 10
24.476
 20
116.605
 10
24.508
 20
116.54
 10
24.531
 20
116.472
 10
24.545
 20
116.402
 97
0
 75
0
 76
1
 98
0
  0
HATCH
  5
37
330
17
100
AcDbEntity
  8
RASTER
 62
7
100
AcDbHatch
 10
0.0
 20
0.0
 30
0.0
210
0.0
220
0.0
230
1.0
  2
SOLID
 70
1
 71
0
 91
1
 92
3
 72
0
 73
1
 93
48
 10
24.55
 20
111.26
 10
24.545
 20
111.188
 10
24.531
 20
111.118
 10
24.508
 20
111.05
 10
24.476
 20
110.985
 10
24.436
 20
110.925
 10
24.389
 20
110.871
 10
24.335
 20
110.824
 10
24.275
 20
110.784
 10
24.21
 20
110.752
 10
24.142
 20
110.729
 10
24.072
 20
110.715
 10
24.0
 20
110.71
 10
23.928
 20
110.715
 10
23.858
 20
110.729
 10
23.79
 20
110.752
 10
23.725
 20
110.784
 10
23.665
 20
110.824
 10
23.611
 20
110.871
 10
23.564
 20
110.925
 10
23.524
 20
110.985
 10
23.492
 20
111.05
 10
23.469
 20
111.118
 10
23.455
 20
111.188
 10
23.45
 20
111.26
 10
23.455
 20
111.332
 10
23.469
 20
111.402
 10
23.492
 20
111.47
 10
23.524
 20
111.535
 10
23.564
 20
111.595
 10
23.611
 20
111.649
 10
23.665
 20
111.696
 10
23.725
 20
111.736
 10
23.79
 20
111.768
 10
23.858
 20
111.791
 10
23.928
 20
111.805
 10
24.0
 20
111.81
 10
24.072
 20
111.805
 10
24.142
 20
111.791
 10
24.21
 20
111.768
 10
24.275
 20
111.736
 10
24.335
 20
111.696
 10
24.389
 20
111.649
 10
24.436
 20
111.595
 10
24.476
 20
111.535
 10
24.508
 20
111.47
 10
24.531
 20
111.402
 10
24.545
 20
111.332
 97
0
 75
0
 76
1
 98
0
  0
HATCH
  5
38
330
17
100
AcDbEntity
  8
RASTER
 62
7
100
AcDbHatch
 10
0.0
 20
0.0
 30
0.0
210
0.0
220
0.0
230
1.0
  2
SOLID
 70
1
 71
0
 91
1
 92
3
 72
0
 73
1
 93
48
 10
24.55
 20
106.19
 10
24.545
 20
106.118
 10
24.531
 20
106.048
 10
24.508
 20
105.98
 10
24.476
 20
105.915
 10
24.436
 20
105.855
 10
24.389
 20
105.801
 10
24.335
 20
105.754
 10
24.275
 20
105.714
 10
24.21
 20
105.682
 10
24.142
 20
105.659
 10
24.072
 20
105.645
 10
24.0
 20
105.64
 10
23.928
 20
105.645
 10
23.858
 20
105.659
 10
23.79
 20
105.682
 10
23.725
 20
105.714
 10
23.665
 20
105.754
 10
23.611
 20
105.801
 10
23.564
 20
105.855
 10
23.524
 20
105.915
 10
23.492
 20
105.98
 10
23.469
 20
106.048
 10
23.455
 20
106.118
 10
23.45
 20
106.19
 10
23.455
 20
106.262
 10
23.469
 20
106.332
 10
23.492
 20
106.4
 10
23.524
 20
106.465
 10
23.564
 20
106.525
 10
23.611
 20
106.579
 10
23.665
 20
106.626
 10
23.725
 20
106.666
 10
23.79
 20
106.698
 10
23.858
 20
106.721
 10
23.928
 20
106.735
 10
24.0
 20
106.74
 10
24.072
 20
106.735
 10
24.142
 20
106.721
 10
24.21
 20
106.698
 10
24.275
 20
106.666
 10
24.335
 20
106.626
 10
24.389
 20
106.579
 10
24.436
 20
106.525
 10
24.476
 20
106.465
 10
24.508
 20
106.4
 10
24.531
 20
106.332
 10
24.545
 20
106.262
 97
0
 75
0
 76
1
 98
0
  0
HATCH
  5
39
330
17
100
AcDbEntity
  8
RASTER
 62
7
100
AcDbHatch
 10
0.0
 20
0.0
 30
0.0
210
0.0
220
0.0
230
1.0
  2
SOLID
 70
1
 71
0
 91
1
 92
3
 72
0
 73
1
 93
4
 10
62.0
 20
119.71
 10
66.0
 20
119.71
 10
66.0
 20
102.81
 10
62.0
 20
102.81
 97
0
 75
0
 76
1
 98
0
  0
HATCH
  5
3A
330
17
100
AcDbEntity
  8
RASTER
 62
7
100
AcDbHatch
 10
0.0
 20
0.0
 30
0.0
210
0.0
220
0.0
230
1.0
  2
SOLID
 70
1
 71
0
 91
1
 92
3
 72
0
 73
1
 93
48
 10
64.55
 20
116.33
 10
64.545
 20
116.258
 10
64.531
 20
116.188
 10
64.508
 20
116.12
 10
64.476
 20
116.055
 10
64.436
 20
115.995
 10
64.389
 20
115.941
 10
64.335
 20
115.894
 10
64.275
 20
115.854
 10
64.21
 20
115.822
 10
64.142
 20
115.799
 10
64.072
 20
115.785
 10
64.0
 20
115.78
 10
63.928
 20
115.785
 10
63.858
 20
115.799
 10
63.79
 20
115.822
 10
63.725
 20
115.854
 10
63.665
 20
115.894
 10
63.611
 20
115.941
 10
63.564
 20
115.995
 10
63.524
 20
116.055
 10
63.492
 20
116.12
 10
63.469
 20
116.188
 10
63.455
 20
116.258
 10
63.45
 20
116.33
 10
63.455
 20
116.402
 10
63.469
 20
116.472
 10
63.492
 20
116.54
 10
63.524
 20
116.605
 10
63.564
 20
116.665
 10
63.611
 20
116.719
 10
63.665
 20
116.766
 10
63.725
 20
116.806
 10
63.79
 20
116.838
 10
63.858
 20
116.861
 10
63.928
 20
116.875
 10
64.0
 20
116.88
 10
64.072
 20
116.875
 10
64.142
 20
116.861
 10
64.21
 20
116.838
 10
64.275
 20
116.806
 10
64.335
 20
116.766
 10
64.389
 20
116.719
 10
64.436
 20
116.665
 10
64.476
 20
116.605
 10
64.508
 20
116.54
 10
64.531
 20
116.472
 10
64.545
 20
116.402
 97
0
 75
0
 76
1
 98
0
  0
HATCH
  5
3B
330
17
100
AcDbEntity
  8
RASTER
 62
7
100
AcDbHatch
 10
0.0
 20
0.0
 30
0.0
210
0.0
220
0.0
230
1.0
  2
SOLID
 70
1
 71
0
 91
1
 92
3
 72
0
 73
1
 93
48
 10
64.55
 20
111.26
 10
64.545
 20
111.188
 10
64.531
 20
111.118
 10
64.508
 20
111.05
 10
64.476
 20
110.985
 10
64.436
 20
110.925
 10
64.389
 20
110.871
 10
64.335
 20
110.824
 10
64.275
 20
110.784
 10
64.21
 20
110.752
 10
64.142
 20
110.729
 10
64.072
 20
110.715
 10
64.0
 20
110.71
 10
63.928
 20
110.715
 10
63.858
 20
110.729
 10
63.79
 20
110.752
 10
63.725
 20
110.784
 10
63.665
 20
110.824
 10
63.611
 20
110.871
 10
63.564
 20
110.925
 10
63.524
 20
110.985
 10
63.492
 20
111.05
 10
63.469
 20
111.118
 10
63.455
 20
111.188
 10
63.45
 20
111.26
 10
63.455
 20
111.332
 10
63.469
 20
111.402
 10
63.492
 20
111.47
 10
63.524
 20
111.535
 10
63.564
 20
111.595
 10
63.611
 20
111.649
 10
63.665
 20
111.696
 10
63.725
 20
111.736
 10
63.79
 20
111.768
 10
63.858
 20
111.791
 10
63.928
 20
111.805
 10
64.0
 20
111.81
 10
64.072
 20
111.805
 10
64.142
 20
111.791
 10
64.21
 20
111.768
 10
64.275
 20
111.736
 10
64.335
 20
111.696
 10
64.389
 20
111.649
 10
64.436
 20
111.595
 10
64.476
 20
111.535
 10
64.508
 20
111.47
 10
64.531
 20
111.402
 10
64.545
 20
111.332
 97
0
 75
0
 76
1
 98
0
  0
HATCH
  5
3C
330
17
100
AcDbEntity
  8
RASTER
 62
7
100
AcDbHatch
 10
0.0
 20
0.0
 30
0.0
210
0.0
220
0.0
230
1.0
  2
SOLID
 70
1
 71
0
 91
1
 92
3
 72
0
 73
1
 93
48
 10
64.55
 20
106.19
 10
64.545
 20
106.118
 10
64.531
 20
106.048
 10
64.508
 20
105.98
 10
64.476
 20
105.915
 10
64.436
 20
105.855
 10
64.389
 20
105.801
 10
64.335
 20
105.754
 10
64.275
 20
105.714
 10
64.21
 20
105.682
 10
64.142
 20
105.659
 10
64.072
 20
105.645
 10
64.0
 20
105.64
 10
63.928
 20
105.645
 10
63.858
 20
105.659
 10
63.79
 20
105.682
 10
63.725
 20
105.714
 10
63.665
 20
105.754
 10
63.611
 20
105.801
 10
63.564
 20
105.855
 10
63.524
 20
105.915
 10
63.492
 20
105.98
 10
63.469
 20
106.048
 10
63.455
 20
106.118
 10
63.45
 20
106.19
 10
63.455
 20
106.262
 10
63.469
 20
106.332
 10
63.492
 20
106.4
 10
63.524
 20
106.465
 10
63.564
 20
106.525
 10
63.611
 20
106.579
 10
63.665
 20
106.626
 10
63.725
 20
106.666
 10
63.79
 20
106.698
 10
63.858
 20
106.721
 10
63.928
 20
106.735
 10
64.0
 20
106.74
 10
64.072
 20
106.735
 10
64.142
 20
106.721
 10
64.21
 20
106.698
 10
64.275
 20
106.666
 10
64.335
 20
106.626
 10
64.389
 20
106.579
 10
64.436
 20
106.525
 10
64.476
 20
106.465
 10
64.508
 20
106.4
 10
64.531
 20
106.332
 10
64.545
 20
106.262
 97
0
 75
0
 76
1
 98
0
  0
HATCH
  5
3D
330
17
100
AcDbEntity
  8
RASTER
 62
7
100
AcDbHatch
 10
0.0
 20
0.0
 30
0.0
210
0.0
220
0.0
230
1.0
  2
SOLID
 70
1
 71
0
 91
3
 92
3
 72
0
 73
1
 93
36
 10
40.0
 20
114.06
 10
40.019
 20
114.341
 10
40.075
 20
114.585
 10
40.169
 20
114.791
 10
40.3
 20
114.96
 10
40.469
 20
115.091
 10
40.675
 20
115.185
 10
40.919
 20
115.241
 10
41.2
 20
115.26
 10
46.8
 20
115.26
 10
47.081
 20
115.241
 10
47.325
 20
115.185
 10
47.531
 20
115.091
 10
47.7
 20
114.96
 10
47.831
 20
114.791
 10
47.925
 20
114.585
 10
47.981
 20
114.341
 10
48.0
 20
114.06
 10
48.0
 20
108.46
 10
47.981
 20
108.179
 10
47.925
 20
107.935
 10
47.831
 20
107.729
 10
47.7
 20
107.56
 10
47.531
 20
107.429
 10
47.325
 20
107.335
 10
47.081
 20
107.279
 10
46.8
 20
107.26
 10
41.2
 20
107.26
 10
40.919
 20
107.279
 10
40.675
 20
107.335
 10
40.469
 20
107.429
 10
40.3
 20
107.56
 10
40.169
 20
107.729
 10
40.075
 20
107.935
 10
40.019
 20
108.179
 10
40.0
 20
108.46
 97
0
 92
3
 72
0
 73
1
 93
48
 10
45.1
 20
112.26
 10
45.091
 20
112.116
 10
45.063
 20
111.975
 10
45.016
 20
111.839
 10
44.953
 20
111.71
 10
44.873
 20
111.59
 10
44.778
 20
111.482
 10
44.67
 20
111.387
 10
44.55
 20
111.307
 10
44.421
 20
111.244
 10
44.285
 20
111.197
 10
44.144
 20
111.169
 10
44.0
 20
111.16
 10
43.856
 20
111.169
 10
43.715
 20
111.197
 10
43.579
 20
111.244
 10
43.45
 20
111.307
 10
43.33
 20
111.387
 10
43.222
 20
111.482
 10
43.127
 20
111.59
 10
43.047
 20
111.71
 10
42.984
 20
111.839
 10
42.937
 20
111.975
 10
42.909
 20
112.116
 10
42.9
 20
112.26
 10
42.909
 20
112.404
 10
42.937
 20
112.545
 10
42.984
 20
112.681
 10
43.047
 20
112.81
 10
43.127
 20
112.93
 10
43.222
 20
113.038
 10
43.33
 20
113.133
 10
43.45
 20
113.213
 10
43.579
 20
113.276
 10
43.715
 20
113.323
 10
43.856
 20
113.351
 10
44.0
 20
113.36
 10
44.144
 20
113.351
 10
44.285
 20
113.323
 10
44.421
 20
113.276
 10
44.55
 20
113.213
 10
44.67
 20
113.133
 10
44.778
 20
113.038
 10
44.873
 20
112.93
 10
44.953
 20
112.81
 10
45.016
 20
112.681
 10
45.063
 20
112.545
 10
45.091
 20
112.404
 97
0
 92
3
 72
0
 73
1
 93
5
 10
43.3
 20
111.66
 10
43.0
 20
108.66
 10
45.0
 20
108.66
 10
44.7
 20
111.66
 10
43.3
 20
111.66
 97
0
 75
0
 76
1
 98
0
  0
LWPOLYLINE
  5
3E
330
17
100
AcDbEntity
  8
CUT
100
AcDbPolyline
 90
92
 70
1
 10
91.1
 20
113.35
 10
91.09
 20
113.35
 10
91.09
 20
116.613
 10
91.197
 20
117.423
 10
91.51
 20
118.18
 10
92.009
 20
118.831
 10
92.66
 20
119.33
 10
93.417
 20
119.643
 10
94.227
 20
119.75
 10
102.733
 20
119.75
 10
103.543
 20
119.643
 10
104.3
 20
119.33
 10
104.951
 20
118.831
 10
105.45
 20
118.18
 10
105.763
 20
117.423
 10
105.87
 20
116.613
 10
105.87
 20
113.35
 10
105.86
 20
113.35
 10
120.62
 20
113.35
 10
120.61
 20
113.35
 10
120.61
 20
116.613
 10
120.717
 20
117.423
 10
121.03
 20
118.18
 10
121.529
 20
118.831
 10
122.18
 20
119.33
 10
122.937
 20
119.643
 10
123.747
 20
119.75
 10
132.253
 20
119.75
 10
133.063
 20
119.643
 10
133.82
 20
119.33
 10
134.471
 20
118.831
 10
134.97
 20
118.18
 10
135.283
 20
117.423
 10
135.39
 20
116.613
 10
135.39
 20
113.35
 10
135.38
 20
113.35
 10
150.14
 20
113.35
 10
150.13
 20
113.35
 10
150.13
 20
116.613
 10
150.237
 20
117.423
 10
150.55
 20
118.18
 10
151.049
 20
118.831
 10
151.7
 20
119.33
 10
152.457
 20
119.643
 10
153.267
 20
119.75
 10
161.773
 20
119.75
 10
162.583
 20
119.643
 10
163.34
 20
119.33
 10
163.991
 20
118.831
 10
164.49
 20
118.18
 10
164.803
 20
117.423
 10
164.91
 20
116.613
 10
164.91
 20
113.35
 10
164.9
 20
113.35
 10
168.04
 20
113.35
 10
168.04
 20
107.637
 10
164.94
 20
107.637
 10
164.94
 20
102.083
 10
168.04
 20
102.083
 10
168.04
 20
96.37
 10
164.9
 20
96.37
 10
159.263
 20
96.37
 10
159.263
 20
93.27
 10
153.506
 20
93.27
 10
153.506
 20
96.37
 10
147.909
 20
96.37
 10
147.909
 20
93.27
 10
142.152
 20
93.27
 10
142.152
 20
96.37
 10
136.555
 20
96.37
 10
136.555
 20
93.27
 10
130.798
 20
93.27
 10
130.798
 20
96.37
 10
125.202
 20
96.37
 10
125.202
 20
93.27
 10
119.445
 20
93.27
 10
119.445
 20
96.37
 10
113.848
 20
96.37
 10
113.848
 20
93.27
 10
108.091
 20
93.27
 10
108.091
 20
96.37
 10
102.494
 20
96.37
 10
102.494
 20
93.27
 10
96.737
 20
93.27
 10
96.737
 20
96.37
 10
91.1
 20
96.37
 10
87.96
 20
96.37
 10
87.96
 20
102.083
 10
91.06
 20
102.083
 10
91.06
 20
107.637
 10
87.96
 20
107.637
 10
87.96
 20
113.35
  0
HATCH
  5
3F
330
17
100
AcDbEntity
  8
RASTER
 62
7
100
AcDbHatch
 10
0.0
 20
0.0
 30
0.0
210
0.0
220
0.0
230
1.0
  2
SOLID
 70
1
 71
0
 91
1
 92
3
 72
0
 73
1
 93
4
 10
92.1
 20
109.41
 10
163.9
 20
109.41
 10
163.9
 20
108.81
 10
92.1
 20
108.81
 97
0
 75
0
 76
1
 98
0
  0
HATCH
  5
40
330
17
100
AcDbEntity
  8
RASTER
 62
7
100
AcDbHatch
 10
0.0
 20
0.0
 30
0.0
210
0.0
220
0.0
230
1.0
  2
SOLID
 70
1
 71
0
 91
1
 92
3
 72
0
 73
1
 93
4
 10
92.1
 20
105.21
 10
163.9
 20
105.21
 10
163.9
 20
104.61
 10
92.1
 20
104.61
 97
0
 75
0
 76
1
 98
0
  0
HATCH
  5
41
330
17
100
AcDbEntity
  8
RASTER
 62
7
100
AcDbHatch
 10
0.0
 20
0.0
 30
0.0
210
0.0
220
0.0
230
1.0
  2
SOLID
 70
1
 71
0
 91
1
 92
3
 72
0
 73
1
 93
4
 10
92.1
 20
101.01
 10
163.9
 20
101.01
 10
163.9
 20
100.41
 10
92.1
 20
100.41
 97
0
 75
0
 76
1
 98
0
  0
HATCH
  5
42
330
17
100
AcDbEntity
  8
RASTER
 62
7
100
AcDbHatch
 10
0.0
 20
0.0
 30
0.0
210
0.0
220
0.0
230
1.0
  2
SOLID
 70
1
 71
0
 91
1
 92
3
 72
0
 73
1
 93
4
 10
106.0
 20
113.31
 10
110.0
 20
113.31
 10
110.0
 20
96.41
 10
106.0
 20
96.41
 97
0
 75
0
 76
1
 98
0
  0
HATCH
  5
43
330
17
100
AcDbEntity
  8
RASTER
 62
7
100
AcDbHatch
 10
0.0
 20
0.0
 30
0.0
210
0.0
220
0.0
230
1.0
  2
SOLID
 70
1
 71
0
 91
1
 92
3
 72
0
 73
1
 93
48
 10
108.55
 20
109.93
 10
108.545
 20
109.858
 10
108.531
 20
109.788
 10
108.508
 20
109.72
 10
108.476
 20
109.655
 10
108.436
 20
109.595
 10
108.389
 20
109.541
 10
108.335
 20
109.494
 10
108.275
 20
109.454
 10
108.21
 20
109.422
 10
108.142
 20
109.399
 10
108.072
 20
109.385
 10
108.0
 20
109.38
 10
107.928
 20
109.385
 10
107.858
 20
109.399
 10
107.79
 20
109.422
 10
107.725
 20
109.454
 10
107.665
 20
109.494
 10
107.611
 20
109.541
 10
107.564
 20
109.595
 10
107.524
 20
109.655
 10
107.492
 20
109.72
 10
107.469
 20
109.788
 10
107.455
 20
109.858
 10
107.45
 20
109.93
 10
107.455
 20
110.002
 10
107.469
 20
110.072
 10
107.492
 20
110.14
 10
107.524
 20
110.205
 10
107.564
 20
110.265
 10
107.611
 20
110.319
 10
107.665
 20
110.366
 10
107.725
 20
110.406
 10
107.79
 20
110.438
 10
107.858
 20
110.461
 10
107.928
 20
110.475
 10
108.0
 20
110.48
 10
108.072
 20
110.475
 10
108.142
 20
110.461
 10
108.21
 20
110.438
 10
108.275
 20
110.406
 10
108.335
 20
110.366
 10
108.389
 20
110.319
 10
108.436
 20
110.265
 10
108.476
 20
110.205
 10
108.508
 20
110.14
 10
108.531
 20
110.072
 10
108.545
 20
110.002
 97
0
 75
0
 76
1
 98
0
  0
HATCH
  5
44
330
17
100
AcDbEntity
  8
RASTER
 62
7
100
AcDbHatch
 10
0.0
 20
0.0
 30
0.0
210
0.0
220
0.0
230
1.0
  2
SOLID
 70
1
 71
0
 91
1
 92
3
 72
0
 73
1
 93
48
 10
108.55
 20
104.86
 10
108.545
 20
104.788
 10
108.531
 20
104.718
 10
108.508
 20
104.65
 10
108.476
 20
104.585
 10
108.436
 20
104.525
 10
108.389
 20
104.471
 10
108.335
 20
104.424
 10
108.275
 20
104.384
 10
108.21
 20
104.352
 10
108.142
 20
104.329
 10
108.072
 20
104.315
 10
108.0
 20
104.31
 10
107.928
 20
104.315
 10
107.858
 20
104.329
 10
107.79
 20
104.352
 10
107.725
 20
104.384
 10
107.665
 20
104.424
 10
107.611
 20
104.471
 10
107.564
 20
104.525
 10
107.524
 20
104.585
 10
107.492
 20
104.65
 10
107.469
 20
104.718
 10
107.455
 20
104.788
 10
107.45
 20
104.86
 10
107.455
 20
104.932
 10
107.469
 20
105.002
 10
107.492
 20
105.07
 10
107.524
 20
105.135
 10
107.564
 20
105.195
 10
107.611
 20
105.249
 10
107.665
 20
105.296
 10
107.725
 20
105.336
 10
107.79
 20
105.368
 10
107.858
 20
105.391
 10
107.928
 20
105.405
 10
108.0
 20
105.41
 10
108.072
 20
105.405
 10
108.142
 20
105.391
 10
108.21
 20
105.368
 10
108.275
 20
105.336
 10
108.335
 20
105.296
 10
108.389
 20
105.249
 10
108.436
 20
105.195
 10
108.476
 20
105.135
 10
108.508
 20
105.07
 10
108.531
 20
105.002
 10
108.545
 20
104.932
 97
0
 75
0
 76
1
 98
0
  0
HATCH
  5
45
330
17
100
AcDbEntity
  8
RASTER
 62
7
100
AcDbHatch
 10
0.0
 20
0.0
 30
0.0
210
0.0
220
0.0
230
1.0
  2
SOLID
 70
1
 71
0
 91
1
 92
3
 72
0
 73
1
 93
48
 10
108.55
 20
99.79
 10
108.545
 20
99.718
 10
108.531
 20
99.648
 10
108.508
 20
99.58
 10
108.476
 20
99.515
 10
108.436
 20
99.455
 10
108.389
 20
99.401
 10
108.335
 20
99.354
 10
108.275
 20
99.314
 10
108.21
 20
99.282
 10
108.142
 20
99.259
 10
108.072
 20
99.245
 10
108.0
 20
99.24
 10
107.928
 20
99.245
 10
107.858
 20
99.259
 10
107.79
 20
99.282
 10
107.725
 20
99.314
 10
107.665
 20
99.354
 10
107.611
 20
99.401
 10
107.564
 20
99.455
 10
107.524
 20
99.515
 10
107.492
 20
99.58
 10
107.469
 20
99.648
 10
107.455
 20
99.718
 10
107.45
 20
99.79
 10
107.455
 20
99.862
 10
107.469
 20
99.932
 10
107.492
 20
100.0
 10
107.524
 20
100.065
 10
107.564
 20
100.125
 10
107.611
 20
100.179
 10
107.665
 20
100.226
 10
107.725
 20
100.266
 10
107.79
 20
100.298
 10
107.858
 20
100.321
 10
107.928
 20
100.335
 10
108.0
 20
100.34
 10
108.072
 20
100.335
 10
108.142
 20
100.321
 10
108.21
 20
100.298
 10
108.275
 20
100.266
 10
108.335
 20
100.226
 10
108.389
 20
100.179
 10
108.436
 20
100.125
 10
108.476
 20
100.065
 10
108.508
 20
100.0
 10
108.531
 20
99.932
 10
108.545
 20
99.862
 97
0
 75
0
 76
1
 98
0
  0
HATCH
  5
46
330
17
100
AcDbEntity
  8
RASTER
 62
7
100
AcDbHatch
 10
0.0
 20
0.0
 30
0.0
210
0.0
220
0.0
230
1.0
  2
SOLID
 70
1
 71
0
 91
1
 92
3
 72
0
 73
1
 93
4
 10
146.0
 20
113.31
 10
150.0
 20
113.31
 10
150.0
 20
96.41
 10
146.0
 20
96.41
 97
0
 75
0
 76
1
 98
0
  0
HATCH
  5
47
330
17
100
AcDbEntity
  8
RASTER
 62
7
100
AcDbHatch
 10
0.0
 20
0.0
 30
0.0
210
0.0
220
0.0
230
1.0
  2
SOLID
 70
1
 71
0
 91
1
 92
3
 72
0
 73
1
 93
48
 10
148.55
 20
109.93
 10
148.545
 20
109.858
 10
148.531
 20
109.788
 10
148.508
 20
109.72
 10
148.476
 20
109.655
 10
148.436
 20
109.595
 10
148.389
 20
109.541
 10
148.335
 20
109.494
 10
148.275
 20
109.454
 10
148.21
 20
109.422
 10
148.142
 20
109.399
 10
148.072
 20
109.385
 10
148.0
 20
109.38
 10
147.928
 20
109.385
 10
147.858
 20
109.399
 10
147.79
 20
109.422
 10
147.725
 20
109.454
 10
147.665
 20
109.494
 10
147.611
 20
109.541
 10
147.564
 20
109.595
 10
147.524
 20
109.655
 10
147.492
 20
109.72
 10
147.469
 20
109.788
 10
147.455
 20
109.858
 10
147.45
 20
109.93
 10
147.455
 20
110.002
 10
147.469
 20
110.072
 10
147.492
 20
110.14
 10
147.524
 20
110.205
 10
147.564
 20
110.265
 10
147.611
 20
110.319
 10
147.665
 20
110.366
 10
147.725
 20
110.406
 10
147.79
 20
110.438
 10
147.858
 20
110.461
 10
147.928
 20
110.475
 10
148.0
 20
110.48
 10
148.072
 20
110.475
 10
148.142
 20
110.461
 10
148.21
 20
110.438
 10
148.275
 20
110.406
 10
148.335
 20
110.366
 10
148.389
 20
110.319
 10
148.436
 20
110.265
 10
148.476
 20
110.205
 10
148.508
 20
110.14
 10
148.531
 20
110.072
 10
148.545
 20
110.002
 97
0
 75
0
 76
1
 98
0
  0
HATCH
  5
48
330
17
100
AcDbEntity
  8
RASTER
 62
7
100
AcDbHatch
 10
0.0
 20
0.0
 30
0.0
210
0.0
220
0.0
230
1.0
  2
SOLID
 70
1
 71
0
 91
1
 92
3
 72
0
 73
1
 93
48
 10
148.55
 20
104.86
 10
148.545
 20
104.788
 10
148.531
 20
104.718
 10
148.508
 20
104.65
 10
148.476
 20
104.585
 10
148.436
 20
104.525
 10
148.389
 20
104.471
 10
148.335
 20
104.424
 10
148.275
 20
104.384
 10
148.21
 20
104.352
 10
148.142
 20
104.329
 10
148.072
 20
104.315
 10
148.0
 20
104.31
 10
147.928
 20
104.315
 10
147.858
 20
104.329
 10
147.79
 20
104.352
 10
147.725
 20
104.384
 10
147.665
 20
104.424
 10
147.611
 20
104.471
 10
147.564
 20
104.525
 10
147.524
 20
104.585
 10
147.492
 20
104.65
 10
147.469
 20
104.718
 10
147.455
 20
104.788
 10
147.45
 20
104.86
 10
147.455
 20
104.932
 10
147.469
 20
105.002
 10
147.492
 20
105.07
 10
147.524
 20
105.135
 10
147.564
 20
105.195
 10
147.611
 20
105.249
 10
147.665
 20
105.296
 10
147.725
 20
105.336
 10
147.79
 20
105.368
 10
147.858
 20
105.391
 10
147.928
 20
105.405
 10
148.0
 20
105.41
 10
148.072
 20
105.405
 10
148.142
 20
105.391
 10
148.21
 20
105.368
 10
148.275
 20
105.336
 10
148.335
 20
105.296
 10
148.389
 20
105.249
 10
148.436
 20
105.195
 10
148.476
 20
105.135
 10
148.508
 20
105.07
 10
148.531
 20
105.002
 10
148.545
 20
104.932
 97
0
 75
0
 76
1
 98
0
  0
HATCH
  5
49
330
17
100
AcDbEntity
  8
RASTER
 62
7
100
AcDbHatch
 10
0.0
 20
0.0
 30
0.0
210
0.0
220
0.0
230
1.0
  2
SOLID
 70
1
 71
0
 91
1
 92
3
 72
0
 73
1
 93
48
 10
148.55
 20
99.79
 10
148.545
 20
99.718
 10
148.531
 20
99.648
 10
148.508
 20
99.58
 10
148.476
 20
99.515
 10
148.436
 20
99.455
 10
148.389
 20
99.401
 10
148.335
 20
99.354
 10
148.275
 20
99.314
 10
148.21
 20
99.282
 10
148.142
 20
99.259
 10
148.072
 20
99.245
 10
148.0
 20
99.24
 10
147.928
 20
99.245
 10
147.858
 20
99.259
 10
147.79
 20
99.282
 10
147.725
 20
99.314
 10
147.665
 20
99.354
 10
147.611
 20
99.401
 10
147.564
 20
99.455
 10
147.524
 20
99.515
 10
147.492
 20
99.58
 10
147.469
 20
99.648
 10
147.455
 20
99.718
 10
147.45
 20
99.79
 10
147.455
 20
99.862
 10
147.469
 20
99.932
 10
147.492
 20
100.0
 10
147.524
 20
100.065
 10
147.564
 20
100.125
 10
147.611
 20
100.179
 10
147.665
 20
100.226
 10
147.725
 20
100.266
 10
147.79
 20
100.298
 10
147.858
 20
100.321
 10
147.928
 20
100.335
 10
148.0
 20
100.34
 10
148.072
 20
100.335
 10
148.142
 20
100.321
 10
148.21
 20
100.298
 10
148.275
 20
100.266
 10
148.335
 20
100.226
 10
148.389
 20
100.179
 10
148.436
 20
100.125
 10
148.476
 20
100.065
 10
148.508
 20
100.0
 10
148.531
 20
99.932
 10
148.545
 20
99.862
 97
0
 75
0
 76
1
 98
0
  0
LWPOLYLINE
  5
4A
330
17
100
AcDbEntity
  8
CUT
100
AcDbPolyline
 90
16
 70
1
 10
7.06
 20
89.35
 10
27.94
 20
89.35
 10
27.94
 20
83.717
 10
31.04
 20
83.717
 10
31.04
 20
78.003
 10
27.94
 20
78.003
 10
27.94
 20
72.37
 10
21.007
 20
72.37
 10
21.007
 20
69.27
 10
13.993
 20
69.27
 10
13.993
 20
72.37
 10
7.06
 20
72.37
 10
7.06
 20
78.003
 10
3.96
 20
78.003
 10
3.96
 20
83.717
 10
7.06
 20
83.717
  0
HATCH
  5
4B
330
17
100
AcDbEntity
  8
RASTER
 62
7
100
AcDbHatch
 10
0.0
 20
0.0
 30
0.0
210
0.0
220
0.0
230
1.0
  2
SOLID
 70
1
 71
0
 91
1
 92
3
 72
0
 73
1
 93
4
 10
8.1
 20
85.41
 10
26.9
 20
85.41
 10
26.9
 20
84.81
 10
8.1
 20
84.81
 97
0
 75
0
 76
1
 98
0
  0
HATCH
  5
4C
330
17
100
AcDbEntity
  8
RASTER
 62
7
100
AcDbHatch
 10
0.0
 20
0.0
 30
0.0
210
0.0
220
0.0
230
1.0
  2
SOLID
 70
1
 71
0
 91
1
 92
3
 72
0
 73
1
 93
4
 10
8.1
 20
81.21
 10
26.9
 20
81.21
 10
26.9
 20
80.61
 10
8.1
 20
80.61
 97
0
 75
0
 76
1
 98
0
  0
HATCH
  5
4D
330
17
100
AcDbEntity
  8
RASTER
 62
7
100
AcDbHatch
 10
0.0
 20
0.0
 30
0.0
210
0.0
220
0.0
230
1.0
  2
SOLID
 70
1
 71
0
 91
1
 92
3
 72
0
 73
1
 93
4
 10
8.1
 20
77.01
 10
26.9
 20
77.01
 10
26.9
 20
76.41
 10
8.1
 20
76.41
 97
0
 75
0
 76
1
 98
0
  0
LWPOLYLINE
  5
4E
330
17
100
AcDbEntity
  8
CUT
100
AcDbPolyline
 90
16
 70
1
 10
38.06
 20
89.35
 10
58.94
 20
89.35
 10
58.94
 20
83.717
 10
62.04
 20
83.717
 10
62.04
 20
78.003
 10
58.94
 20
78.003
 10
58.94
 20
72.37
 10
52.007
 20
72.37
 10
52.007
 20
69.27
 10
44.993
 20
69.27
 10
44.993
 20
72.37
 10
38.06
 20
72.37
 10
38.06
 20
78.003
 10
34.96
 20
78.003
 10
34.96
 20
83.717
 10
38.06
 20
83.717
  0
HATCH
  5
4F
330
17
100
AcDbEntity
  8
RASTER
 62
7
100
AcDbHatch
 10
0.0
 20
0.0
 30
0.0
210
0.0
220
0.0
230
1.0
  2
SOLID
 70
1
 71
0
 91
1
 92
3
 72
0
 73
1
 93
4
 10
39.1
 20
85.41
 10
57.9
 20
85.41
 10
57.9
 20
84.81
 10
39.1
 20
84.81
 97
0
 75
0
 76
1
 98
0
  0
HATCH
  5
50
330
17
100
AcDbEntity
  8
RASTER
 62
7
100
AcDbHatch
 10
0.0
 20
0.0
 30
0.0
210
0.0
220
0.0
230
1.0
  2
SOLID
 70
1
 71
0
 91
1
 92
3
 72
0
 73
1
 93
4
 10
39.1
 20
81.21
 10
57.9
 20
81.21
 10
57.9
 20
80.61
 10
39.1
 20
80.61
 97
0
 75
0
 76
1
 98
0
  0
HATCH
  5
51
330
17
100
AcDbEntity
  8
RASTER
 62
7
100
AcDbHatch
 10
0.0
 20
0.0
 30
0.0
210
0.0
220
0.0
230
1.0
  2
SOLID
 70
1
 71
0
 91
1
 92
3
 72
0
 73
1
 93
4
 10
39.1
 20
77.01
 10
57.9
 20
77.01
 10
57.9
 20
76.41
 10
39.1
 20
76.41
 97
0
 75
0
 76
1
 98
0
  0
LWPOLYLINE
  5
52
330
17
100
AcDbEntity
  8
CUT
100
AcDbPolyline
 90
68
 70
1
 10
65.96
 20
89.35
 10
69.1
 20
89.35
 10
74.817
 20
89.35
 10
74.817
 20
86.25
 10
80.414
 20
86.25
 10
80.414
 20
89.35
 10
86.171
 20
89.35
 10
86.171
 20
86.25
 10
91.768
 20
86.25
 10
91.768
 20
89.35
 10
97.525
 20
89.35
 10
97.525
 20
86.25
 10
103.122
 20
86.25
 10
103.122
 20
89.35
 10
108.878
 20
89.35
 10
108.878
 20
86.25
 10
114.475
 20
86.25
 10
114.475
 20
89.35
 10
120.232
 20
89.35
 10
120.232
 20
86.25
 10
125.829
 20
86.25
 10
125.829
 20
89.35
 10
131.586
 20
89.35
 10
131.586
 20
86.25
 10
137.183
 20
86.25
 10
137.183
 20
89.35
 10
142.9
 20
89.35
 10
146.04
 20
89.35
 10
146.04
 20
86.21
 10
146.04
 20
79.237
 10
142.94
 20
79.237
 10
142.94
 20
72.383
 10
146.04
 20
72.383
 10
146.04
 20
65.41
 10
146.04
 20
62.27
 10
142.9
 20
62.27
 10
137.183
 20
62.27
 10
137.183
 20
65.37
 10
131.586
 20
65.37
 10
131.586
 20
62.27
 10
125.829
 20
62.27
 10
125.829
 20
65.37
 10
120.232
 20
65.37
 10
120.232
 20
62.27
 10
114.475
 20
62.27
 10
114.475
 20
65.37
 10
108.878
 20
65.37
 10
108.878
 20
62.27
 10
103.122
 20
62.27
 10
103.122
 20
65.37
 10
97.525
 20
65.37
 10
97.525
 20
62.27
 10
91.768
 20
62.27
 10
91.768
 20
65.37
 10
86.171
 20
65.37
 10
86.171
 20
62.27
 10
80.414
 20
62.27
 10
80.414
 20
65.37
 10
74.817
 20
65.37
 10
74.817
 20
62.27
 10
69.1
 20
62.27
 10
65.96
 20
62.27
 10
65.96
 20
65.41
 10
65.96
 20
72.383
 10
69.06
 20
72.383
 10
69.06
 20
79.237
 10
65.96
 20
79.237
 10
65.96
 20
86.21
  0
HATCH
  5
53
330
17
100
AcDbEntity
  8
RASTER
 62
7
100
AcDbHatch
 10
0.0
 20
0.0
 30
0.0
210
0.0
220
0.0
230
1.0
  2
SOLID
 70
1
 71
0
 91
1
 92
3
 72
0
 73
1
 93
4
 10
70.1
 20
81.51
 10
141.9
 20
81.51
 10
141.9
 20
80.91
 10
70.1
 20
80.91
 97
0
 75
0
 76
1
 98
0
  0
HATCH
  5
54
330
17
100
AcDbEntity
  8
RASTER
 62
7
100
AcDbHatch
 10
0.0
 20
0.0
 30
0.0
210
0.0
220
0.0
230
1.0
  2
SOLID
 70
1
 71
0
 91
1
 92
3
 72
0
 73
1
 93
4
 10
70.1
 20
76.51
 10
141.9
 20
76.51
 10
141.9
 20
75.91
 10
70.1
 20
75.91
 97
0
 75
0
 76
1
 98
0
  0
HATCH
  5
55
330
17
100
AcDbEntity
  8
RASTER
 62
7
100
AcDbHatch
 10
0.0
 20
0.0
 30
0.0
210
0.0
220
0.0
230
1.0
  2
SOLID
 70
1
 71
0
 91
1
 92
3
 72
0
 73
1
 93
4
 10
70.1
 20
71.51
 10
141.9
 20
71.51
 10
141.9
 20
70.91
 10
70.1
 20
70.91
 97
0
 75
0
 76
1
 98
0
  0
HATCH
  5
56
330
17
100
AcDbEntity
  8
RASTER
 62
7
100
AcDbHatch
 10
0.0
 20
0.0
 30
0.0
210
0.0
220
0.0
230
1.0
  2
SOLID
 70
1
 71
0
 91
1
 92
3
 72
0
 73
1
 93
4
 10
84.0
 20
89.31
 10
88.0
 20
89.31
 10
88.0
 20
62.31
 10
84.0
 20
62.31
 97
0
 75
0
 76
1
 98
0
  0
HATCH
  5
57
330
17
100
AcDbEntity
  8
RASTER
 62
7
100
AcDbHatch
 10
0.0
 20
0.0
 30
0.0
210
0.0
220
0.0
230
1.0
  2
SOLID
 70
1
 71
0
 91
1
 92
3
 72
0
 73
1
 93
48
 10
86.55
 20
83.91
 10
86.545
 20
83.838
 10
86.531
 20
83.768
 10
86.508
 20
83.7
 10
86.476
 20
83.635
 10
86.436
 20
83.575
 10
86.389
 20
83.521
 10
86.335
 20
83.474
 10
86.275
 20
83.434
 10
86.21
 20
83.402
 10
86.142
 20
83.379
 10
86.072
 20
83.365
 10
86.0
 20
83.36
 10
85.928
 20
83.365
 10
85.858
 20
83.379
 10
85.79
 20
83.402
 10
85.725
 20
83.434
 10
85.665
 20
83.474
 10
85.611
 20
83.521
 10
85.564
 20
83.575
 10
85.524
 20
83.635
 10
85.492
 20
83.7
 10
85.469
 20
83.768
 10
85.455
 20
83.838
 10
85.45
 20
83.91
 10
85.455
 20
83.982
 10
85.469
 20
84.052
 10
85.492
 20
84.12
 10
85.524
 20
84.185
 10
85.564
 20
84.245
 10
85.611
 20
84.299
 10
85.665
 20
84.346
 10
85.725
 20
84.386
 10
85.79
 20
84.418
 10
85.858
 20
84.441
 10
85.928
 20
84.455
 10
86.0
 20
84.46
 10
86.072
 20
84.455
 10
86.142
 20
84.441
 10
86.21
 20
84.418
 10
86.275
 20
84.386
 10
86.335
 20
84.346
 10
86.389
 20
84.299
 10
86.436
 20
84.245
 10
86.476
 20
84.185
 10
86.508
 20
84.12
 10
86.531
 20
84.052
 10
86.545
 20
83.982
 97
0
 75
0
 76
1
 98
0
  0
HATCH
  5
58
330
17
100
AcDbEntity
  8
RASTER
 62
7
100
AcDbHatch
 10
0.0
 20
0.0
 30
0.0
210
0.0
220
0.0
230
1.0
  2
SOLID
 70
1
 71
0
 91
1
 92
3
 72
0
 73
1
 93
48
 10
86.55
 20
75.81
 10
86.545
 20
75.738
 10
86.531
 20
75.668
 10
86.508
 20
75.6
 10
86.476
 20
75.535
 10
86.436
 20
75.475
 10
86.389
 20
75.421
 10
86.335
 20
75.374
 10
86.275
 20
75.334
 10
86.21
 20
75.302
 10
86.142
 20
75.279
 10
86.072
 20
75.265
 10
86.0
 20
75.26
 10
85.928
 20
75.265
 10
85.858
 20
75.279
 10
85.79
 20
75.302
 10
85.725
 20
75.334
 10
85.665
 20
75.374
 10
85.611
 20
75.421
 10
85.564
 20
75.475
 10
85.524
 20
75.535
 10
85.492
 20
75.6
 10
85.469
 20
75.668
 10
85.455
 20
75.738
 10
85.45
 20
75.81
 10
85.455
 20
75.882
 10
85.469
 20
75.952
 10
85.492
 20
76.02
 10
85.524
 20
76.085
 10
85.564
 20
76.145
 10
85.611
 20
76.199
 10
85.665
 20
76.246
 10
85.725
 20
76.286
 10
85.79
 20
76.318
 10
85.858
 20
76.341
 10
85.928
 20
76.355
 10
86.0
 20
76.36
 10
86.072
 20
76.355
 10
86.142
 20
76.341
 10
86.21
 20
76.318
 10
86.275
 20
76.286
 10
86.335
 20
76.246
 10
86.389
 20
76.199
 10
86.436
 20
76.145
 10
86.476
 20
76.085
 10
86.508
 20
76.02
 10
86.531
 20
75.952
 10
86.545
 20
75.882
 97
0
 75
0
 76
1
 98
0
  0
HATCH
  5
59
330
17
100
AcDbEntity
  8
RASTER
 62
7
100
AcDbHatch
 10
0.0
 20
0.0
 30
0.0
210
0.0
220
0.0
230
1.0
  2
SOLID
 70
1
 71
0
 91
1
 92
3
 72
0
 73
1
 93
48
 10
86.55
 20
67.71
 10
86.545
 20
67.638
 10
86.531
 20
67.568
 10
86.508
 20
67.5
 10
86.476
 20
67.435
 10
86.436
 20
67.375
 10
86.389
 20
67.321
 10
86.335
 20
67.274
 10
86.275
 20
67.234
 10
86.21
 20
67.202
 10
86.142
 20
67.179
 10
86.072
 20
67.165
 10
86.0
 20
67.16
 10
85.928
 20
67.165
 10
85.858
 20
67.179
 10
85.79
 20
67.202
 10
85.725
 20
67.234
 10
85.665
 20
67.274
 10
85.611
 20
67.321
 10
85.564
 20
67.375
 10
85.524
 20
67.435
 10
85.492
 20
67.5
 10
85.469
 20
67.568
 10
85.455
 20
67.638
 10
85.45
 20
67.71
 10
85.455
 20
67.782
 10
85.469
 20
67.852
 10
85.492
 20
67.92
 10
85.524
 20
67.985
 10
85.564
 20
68.045
 10
85.611
 20
68.099
 10
85.665
 20
68.146
 10
85.725
 20
68.186
 10
85.79
 20
68.218
 10
85.858
 20
68.241
 10
85.928
 20
68.255
 10
86.0
 20
68.26
 10
86.072
 20
68.255
 10
86.142
 20
68.241
 10
86.21
 20
68.218
 10
86.275
 20
68.186
 10
86.335
 20
68.146
 10
86.389
 20
68.099
 10
86.436
 20
68.045
 10
86.476
 20
67.985
 10
86.508
 20
67.92
 10
86.531
 20
67.852
 10
86.545
 20
67.782
 97
0
 75
0
 76
1
 98
0
  0
HATCH
  5
5A
330
17
100
AcDbEntity
  8
RASTER
 62
7
100
AcDbHatch
 10
0.0
 20
0.0
 30
0.0
210
0.0
220
0.0
230
1.0
  2
SOLID
 70
1
 71
0
 91
1
 92
3
 72
0
 73
1
 93
4
 10
124.0
 20
89.31
 10
128.0
 20
89.31
 10
128.0
 20
62.31
 10
124.0
 20
62.31
 97
0
 75
0
 76
1
 98
0
  0
HATCH
  5
5B
330
17
100
AcDbEntity
  8
RASTER
 62
7
100
AcDbHatch
 10
0.0
 20
0.0
 30
0.0
210
0.0
220
0.0
230
1.0
  2
SOLID
 70
1
 71
0
 91
1
 92
3
 72
0
 73
1
 93
48
 10
126.55
 20
83.91
 10
126.545
 20
83.838
 10
126.531
 20
83.768
 10
126.508
 20
83.7
 10
126.476
 20
83.635
 10
126.436
 20
83.575
 10
126.389
 20
83.521
 10
126.335
 20
83.474
 10
126.275
 20
83.434
 10
126.21
 20
83.402
 10
126.142
 20
83.379
 10
126.072
 20
83.365
 10
126.0
 20
83.36
 10
125.928
 20
83.365
 10
125.858
 20
83.379
 10
125.79
 20
83.402
 10
125.725
 20
83.434
 10
125.665
 20
83.474
 10
125.611
 20
83.521
 10
125.564
 20
83.575
 10
125.524
 20
83.635
 10
125.492
 20
83.7
 10
125.469
 20
83.768
 10
125.455
 20
83.838
 10
125.45
 20
83.91
 10
125.455
 20
83.982
 10
125.469
 20
84.052
 10
125.492
 20
84.12
 10
125.524
 20
84.185
 10
125.564
 20
84.245
 10
125.611
 20
84.299
 10
125.665
 20
84.346
 10
125.725
 20
84.386
 10
125.79
 20
84.418
 10
125.858
 20
84.441
 10
125.928
 20
84.455
 10
126.0
 20
84.46
 10
126.072
 20
84.455
 10
126.142
 20
84.441
 10
126.21
 20
84.418
 10
126.275
 20
84.386
 10
126.335
 20
84.346
 10
126.389
 20
84.299
 10
126.436
 20
84.245
 10
126.476
 20
84.185
 10
126.508
 20
84.12
 10
126.531
 20
84.052
 10
126.545
 20
83.982
 97
0
 75
0
 76
1
 98
0
  0
HATCH
  5
5C
330
17
100
AcDbEntity
  8
RASTER
 62
7
100
AcDbHatch
 10
0.0
 20
0.0
 30
0.0
210
0.0
220
0.0
230
1.0
  2
SOLID
 70
1
 71
0
 91
1
 92
3
 72
0
 73
1
 93
48
 10
126.55
 20
75.81
 10
126.545
 20
75.738
 10
126.531
 20
75.668
 10
126.508
 20
75.6
 10
126.476
 20
75.535
 10
126.436
 20
75.475
 10
126.389
 20
75.421
 10
126.335
 20
75.374
 10
126.275
 20
75.334
 10
126.21
 20
75.302
 10
126.142
 20
75.279
 10
126.072
 20
75.265
 10
126.0
 20
75.26
 10
125.928
 20
75.265
 10
125.858
 20
75.279
 10
125.79
 20
75.302
 10
125.725
 20
75.334
 10
125.665
 20
75.374
 10
125.611
 20
75.421
 10
125.564
 20
75.475
 10
125.524
 20
75.535
 10
125.492
 20
75.6
 10
125.469
 20
75.668
 10
125.455
 20
75.738
 10
125.45
 20
75.81
 10
125.455
 20
75.882
 10
125.469
 20
75.952
 10
125.492
 20
76.02
 10
125.524
 20
76.085
 10
125.564
 20
76.145
 10
125.611
 20
76.199
 10
125.665
 20
76.246
 10
125.725
 20
76.286
 10
125.79
 20
76.318
 10
125.858
 20
76.341
 10
125.928
 20
76.355
 10
126.0
 20
76.36
 10
126.072
 20
76.355
 10
126.142
 20
76.341
 10
126.21
 20
76.318
 10
126.275
 20
76.286
 10
126.335
 20
76.246
 10
126.389
 20
76.199
 10
126.436
 20
76.145
 10
126.476
 20
76.085
 10
126.508
 20
76.02
 10
126.531
 20
75.952
 10
126.545
 20
75.882
 97
0
 75
0
 76
1
 98
0
  0
HATCH
  5
5D
330
17
100
AcDbEntity
  8
RASTER
 62
7
100
AcDbHatch
 10
0.0
 20
0.0
 30
0.0
210
0.0
220
0.0
230
1.0
  2
SOLID
 70
1
 71
0
 91
1
 92
3
 72
0
 73
1
 93
48
 10
126.55
 20
67.71
 10
126.545
 20
67.638
 10
126.531
 20
67.568
 10
126.508
 20
67.5
 10
126.476
 20
67.435
 10
126.436
 20
67.375
 10
126.389
 20
67.321
 10
126.335
 20
67.274
 10
126.275
 20
67.234
 10
126.21
 20
67.202
 10
126.142
 20
67.179
 10
126.072
 20
67.165
 10
126.0
 20
67.16
 10
125.928
 20
67.165
 10
125.858
 20
67.179
 10
125.79
 20
67.202
 10
125.725
 20
67.234
 10
125.665
 20
67.274
 10
125.611
 20
67.321
 10
125.564
 20
67.375
 10
125.524
 20
67.435
 10
125.492
 20
67.5
 10
125.469
 20
67.568
 10
125.455
 20
67.638
 10
125.45
 20
67.71
 10
125.455
 20
67.782
 10
125.469
 20
67.852
 10
125.492
 20
67.92
 10
125.524
 20
67.985
 10
125.564
 20
68.045
 10
125.611
 20
68.099
 10
125.665
 20
68.146
 10
125.725
 20
68.186
 10
125.79
 20
68.218
 10
125.858
 20
68.241
 10
125.928
 20
68.255
 10
126.0
 20
68.26
 10
126.072
 20
68.255
 10
126.142
 20
68.241
 10
126.21
 20
68.218
 10
126.275
 20
68.186
 10
126.335
 20
68.146
 10
126.389
 20
68.099
 10
126.436
 20
68.045
 10
126.476
 20
67.985
 10
126.508
 20
67.92
 10
126.531
 20
67.852
 10
126.545
 20
67.782
 97
0
 75
0
 76
1
 98
0
  0
LWPOLYLINE
  5
5E
330
17
100
AcDbEntity
  8
CUT
100
AcDbPolyline
 90
40
 70
1
 10
7.1
 20
58.35
 10
80.9
 20
58.35
 10
84.04
 20
58.35
 10
84.04
 20
55.303
 10
80.94
 20
55.303
 10
80.94
 20
52.417
 10
84.04
 20
52.417
 10
84.04
 20
49.37
 10
80.9
 20
49.37
 10
75.263
 20
49.37
 10
75.263
 20
46.27
 10
69.506
 20
46.27
 10
69.506
 20
49.37
 10
63.909
 20
49.37
 10
63.909
 20
46.27
 10
58.152
 20
46.27
 10
58.152
 20
49.37
 10
52.555
 20
49.37
 10
52.555
 20
46.27
 10
46.798
 20
46.27
 10
46.798
 20
49.37
 10
41.202
 20
49.37
 10
41.202
 20
46.27
 10
35.445
 20
46.27
 10
35.445
 20
49.37
 10
29.848
 20
49.37
 10
29.848
 20
46.27
 10
24.091
 20
46.27
 10
24.091
 20
49.37
 10
18.494
 20
49.37
 10
18.494
 20
46.27
 10
12.737
 20
46.27
 10
12.737
 20
49.37
 10
7.1
 20
49.37
 10
3.96
 20
49.37
 10
3.96
 20
52.417
 10
7.06
 20
52.417
 10
7.06
 20
55.303
 10
3.96
 20
55.303
 10
3.96
 20
58.35
  0
HATCH
  5
5F
330
17
100
AcDbEntity
  8
RASTER
 62
7
100
AcDbHatch
 10
0.0
 20
0.0
 30
0.0
210
0.0
220
0.0
230
1.0
  2
SOLID
 70
1
 71
0
 91
1
 92
3
 72
0
 73
1
 93
4
 10
8.1
 20
55.11
 10
79.9
 20
55.11
 10
79.9
 20
54.51
 10
8.1
 20
54.51
 97
0
 75
0
 76
1
 98
0
  0
HATCH
  5
60
330
17
100
AcDbEntity
  8
RASTER
 62
7
100
AcDbHatch
 10
0.0
 20
0.0
 30
0.0
210
0.0
220
0.0
230
1.0
  2
SOLID
 70
1
 71
0
 91
1
 92
3
 72
0
 73
1
 93
4
 10
8.1
 20
51.61
 10
79.9
 20
51.61
 10
79.9
 20
51.01
 10
8.1
 20
51.01
 97
0
 75
0
 76
1
 98
0
  0
HATCH
  5
61
330
17
100
AcDbEntity
  8
RASTER
 62
7
100
AcDbHatch
 10
0.0
 20
0.0
 30
0.0
210
0.0
220
0.0
230
1.0
  2
SOLID
 70
1
 71
0
 91
1
 92
3
 72
0
 73
1
 93
4
 10
22.0
 20
58.31
 10
26.0
 20
58.31
 10
26.0
 20
49.41
 10
22.0
 20
49.41
 97
0
 75
0
 76
1
 98
0
  0
HATCH
  5
62
330
17
100
AcDbEntity
  8
RASTER
 62
7
100
AcDbHatch
 10
0.0
 20
0.0
 30
0.0
210
0.0
220
0.0
230
1.0
  2
SOLID
 70
1
 71
0
 91
1
 92
3
 72
0
 73
1
 93
48
 10
24.55
 20
56.53
 10
24.545
 20
56.458
 10
24.531
 20
56.388
 10
24.508
 20
56.32
 10
24.476
 20
56.255
 10
24.436
 20
56.195
 10
24.389
 20
56.141
 10
24.335
 20
56.094
 10
24.275
 20
56.054
 10
24.21
 20
56.022
 10
24.142
 20
55.999
 10
24.072
 20
55.985
 10
24.0
 20
55.98
 10
23.928
 20
55.985
 10
23.858
 20
55.999
 10
23.79
 20
56.022
 10
23.725
 20
56.054
 10
23.665
 20
56.094
 10
23.611
 20
56.141
 10
23.564
 20
56.195
 10
23.524
 20
56.255
 10
23.492
 20
56.32
 10
23.469
 20
56.388
 10
23.455
 20
56.458
 10
23.45
 20
56.53
 10
23.455
 20
56.602
 10
23.469
 20
56.672
 10
23.492
 20
56.74
 10
23.524
 20
56.805
 10
23.564
 20
56.865
 10
23.611
 20
56.919
 10
23.665
 20
56.966
 10
23.725
 20
57.006
 10
23.79
 20
57.038
 10
23.858
 20
57.061
 10
23.928
 20
57.075
 10
24.0
 20
57.08
 10
24.072
 20
57.075
 10
24.142
 20
57.061
 10
24.21
 20
57.038
 10
24.275
 20
57.006
 10
24.335
 20
56.966
 10
24.389
 20
56.919
 10
24.436
 20
56.865
 10
24.476
 20
56.805
 10
24.508
 20
56.74
 10
24.531
 20
56.672
 10
24.545
 20
56.602
 97
0
 75
0
 76
1
 98
0
  0
HATCH
  5
63
330
17
100
AcDbEntity
  8
RASTER
 62
7
100
AcDbHatch
 10
0.0
 20
0.0
 30
0.0
210
0.0
220
0.0
230
1.0
  2
SOLID
 70
1
 71
0
 91
1
 92
3
 72
0
 73
1
 93
48
 10
24.55
 20
53.86
 10
24.545
 20
53.788
 10
24.531
 20
53.718
 10
24.508
 20
53.65
 10
24.476
 20
53.585
 10
24.436
 20
53.525
 10
24.389
 20
53.471
 10
24.335
 20
53.424
 10
24.275
 20
53.384
 10
24.21
 20
53.352
 10
24.142
 20
53.329
 10
24.072
 20
53.315
 10
24.0
 20
53.31
 10
23.928
 20
53.315
 10
23.858
 20
53.329
 10
23.79
 20
53.352
 10
23.725
 20
53.384
 10
23.665
 20
53.424
 10
23.611
 20
53.471
 10
23.564
 20
53.525
 10
23.524
 20
53.585
 10
23.492
 20
53.65
 10
23.469
 20
53.718
 10
23.455
 20
53.788
 10
23.45
 20
53.86
 10
23.455
 20
53.932
 10
23.469
 20
54.002
 10
23.492
 20
54.07
 10
23.524
 20
54.135
 10
23.564
 20
54.195
 10
23.611
 20
54.249
 10
23.665
 20
54.296
 10
23.725
 20
54.336
 10
23.79
 20
54.368
 10
23.858
 20
54.391
 10
23.928
 20
54.405
 10
24.0
 20
54.41
 10
24.072
 20
54.405
 10
24.142
 20
54.391
 10
24.21
 20
54.368
 10
24.275
 20
54.336
 10
24.335
 20
54.296
 10
24.389
 20
54.249
 10
24.436
 20
54.195
 10
24.476
 20
54.135
 10
24.508
 20
54.07
 10
24.531
 20
54.002
 10
24.545
 20
53.932
 97
0
 75
0
 76
1
 98
0
  0
HATCH
  5
64
330
17
100
AcDbEntity
  8
RASTER
 62
7
100
AcDbHatch
 10
0.0
 20
0.0
 30
0.0
210
0.0
220
0.0
230
1.0
  2
SOLID
 70
1
 71
0
 91
1
 92
3
 72
0
 73
1
 93
48
 10
24.55
 20
51.19
 10
24.545
 20
51.118
 10
24.531
 20
51.048
 10
24.508
 20
50.98
 10
24.476
 20
50.915
 10
24.436
 20
50.855
 10
24.389
 20
50.801
 10
24.335
 20
50.754
 10
24.275
 20
50.714
 10
24.21
 20
50.682
 10
24.142
 20
50.659
 10
24.072
 20
50.645
 10
24.0
 20
50.64
 10
23.928
 20
50.645
 10
23.858
 20
50.659
 10
23.79
 20
50.682
 10
23.725
 20
50.714
 10
23.665
 20
50.754
 10
23.611
 20
50.801
 10
23.564
 20
50.855
 10
23.524
 20
50.915
 10
23.492
 20
50.98
 10
23.469
 20
51.048
 10
23.455
 20
51.118
 10
23.45
 20
51.19
 10
23.455
 20
51.262
 10
23.469
 20
51.332
 10
23.492
 20
51.4
 10
23.524
 20
51.465
 10
23.564
 20
51.525
 10
23.611
 20
51.579
 10
23.665
 20
51.626
 10
23.725
 20
51.666
 10
23.79
 20
51.698
 10
23.858
 20
51.721
 10
23.928
 20
51.735
 10
24.0
 20
51.74
 10
24.072
 20
51.735
 10
24.142
 20
51.721
 10
24.21
 20
51.698
 10
24.275
 20
51.666
 10
24.335
 20
51.626
 10
24.389
 20
51.579
 10
24.436
 20
51.525
 10
24.476
 20
51.465
 10
24.508
 20
51.4
 10
24.531
 20
51.332
 10
24.545
 20
51.262
 97
0
 75
0
 76
1
 98
0
  0
HATCH
  5
65
330
17
100
AcDbEntity
  8
RASTER
 62
7
100
AcDbHatch
 10
0.0
 20
0.0
 30
0.0
210
0.0
220
0.0
230
1.0
  2
SOLID
 70
1
 71
0
 91
1
 92
3
 72
0
 73
1
 93
4
 10
62.0
 20
58.31
 10
66.0
 20
58.31
 10
66.0
 20
49.41
 10
62.0
 20
49.41
 97
0
 75
0
 76
1
 98
0
  0
HATCH
  5
66
330
17
100
AcDbEntity
  8
RASTER
 62
7
100
AcDbHatch
 10
0.0
 20
0.0
 30
0.0
210
0.0
220
0.0
230
1.0
  2
SOLID
 70
1
 71
0
 91
1
 92
3
 72
0
 73
1
 93
48
 10
64.55
 20
56.53
 10
64.545
 20
56.458
 10
64.531
 20
56.388
 10
64.508
 20
56.32
 10
64.476
 20
56.255
 10
64.436
 20
56.195
 10
64.389
 20
56.141
 10
64.335
 20
56.094
 10
64.275
 20
56.054
 10
64.21
 20
56.022
 10
64.142
 20
55.999
 10
64.072
 20
55.985
 10
64.0
 20
55.98
 10
63.928
 20
55.985
 10
63.858
 20
55.999
 10
63.79
 20
56.022
 10
63.725
 20
56.054
 10
63.665
 20
56.094
 10
63.611
 20
56.141
 10
63.564
 20
56.195
 10
63.524
 20
56.255
 10
63.492
 20
56.32
 10
63.469
 20
56.388
 10
63.455
 20
56.458
 10
63.45
 20
56.53
 10
63.455
 20
56.602
 10
63.469
 20
56.672
 10
63.492
 20
56.74
 10
63.524
 20
56.805
 10
63.564
 20
56.865
 10
63.611
 20
56.919
 10
63.665
 20
56.966
 10
63.725
 20
57.006
 10
63.79
 20
57.038
 10
63.858
 20
57.061
 10
63.928
 20
57.075
 10
64.0
 20
57.08
 10
64.072
 20
57.075
 10
64.142
 20
57.061
 10
64.21
 20
57.038
 10
64.275
 20
57.006
 10
64.335
 20
56.966
 10
64.389
 20
56.919
 10
64.436
 20
56.865
 10
64.476
 20
56.805
 10
64.508
 20
56.74
 10
64.531
 20
56.672
 10
64.545
 20
56.602
 97
0
 75
0
 76
1
 98
0
  0
HATCH
  5
67
330
17
100
AcDbEntity
  8
RASTER
 62
7
100
AcDbHatch
 10
0.0
 20
0.0
 30
0.0
210
0.0
220
0.0
230
1.0
  2
SOLID
 70
1
 71
0
 91
1
 92
3
 72
0
 73
1
 93
48
 10
64.55
 20
53.86
 10
64.545
 20
53.788
 10
64.531
 20
53.718
 10
64.508
 20
53.65
 10
64.476
 20
53.585
 10
64.436
 20
53.525
 10
64.389
 20
53.471
 10
64.335
 20
53.424
 10
64.275
 20
53.384
 10
64.21
 20
53.352
 10
64.142
 20
53.329
 10
64.072
 20
53.315
 10
64.0
 20
53.31
 10
63.928
 20
53.315
 10
63.858
 20
53.329
 10
63.79
 20
53.352
 10
63.725
 20
53.384
 10
63.665
 20
53.424
 10
63.611
 20
53.471
 10
63.564
 20
53.525
 10
63.524
 20
53.585
 10
63.492
 20
53.65
 10
63.469
 20
53.718
 10
63.455
 20
53.788
 10
63.45
 20
53.86
 10
63.455
 20
53.932
 10
63.469
 20
54.002
 10
63.492
 20
54.07
 10
63.524
 20
54.135
 10
63.564
 20
54.195
 10
63.611
 20
54.249
 10
63.665
 20
54.296
 10
63.725
 20
54.336
 10
63.79
 20
54.368
 10
63.858
 20
54.391
 10
63.928
 20
54.405
 10
64.0
 20
54.41
 10
64.072
 20
54.405
 10
64.142
 20
54.391
 10
64.21
 20
54.368
 10
64.275
 20
54.336
 10
64.335
 20
54.296
 10
64.389
 20
54.249
 10
64.436
 20
54.195
 10
64.476
 20
54.135
 10
64.508
 20
54.07
 10
64.531
 20
54.002
 10
64.545
 20
53.932
 97
0
 75
0
 76
1
 98
0
  0
HATCH
  5
68
330
17
100
AcDbEntity
  8
RASTER
 62
7
100
AcDbHatch
 10
0.0
 20
0.0
 30
0.0
210
0.0
220
0.0
230
1.0
  2
SOLID
 70
1
 71
0
 91
1
 92
3
 72
0
 73
1
 93
48
 10
64.55
 20
51.19
 10
64.545
 20
51.118
 10
64.531
 20
51.048
 10
64.508
 20
50.98
 10
64.476
 20
50.915
 10
64.436
 20
50.855
 10
64.389
 20
50.801
 10
64.335
 20
50.754
 10
64.275
 20
50.714
 10
64.21
 20
50.682
 10
64.142
 20
50.659
 10
64.072
 20
50.645
 10
64.0
 20
50.64
 10
63.928
 20
50.645
 10
63.858
 20
50.659
 10
63.79
 20
50.682
 10
63.725
 20
50.714
 10
63.665
 20
50.754
 10
63.611
 20
50.801
 10
63.564
 20
50.855
 10
63.524
 20
50.915
 10
63.492
 20
50.98
 10
63.469
 20
51.048
 10
63.455
 20
51.118
 10
63.45
 20
51.19
 10
63.455
 20
51.262
 10
63.469
 20
51.332
 10
63.492
 20
51.4
 10
63.524
 20
51.465
 10
63.564
 20
51.525
 10
63.611
 20
51.579
 10
63.665
 20
51.626
 10
63.725
 20
51.666
 10
63.79
 20
51.698
 10
63.858
 20
51.721
 10
63.928
 20
51.735
 10
64.0
 20
51.74
 10
64.072
 20
51.735
 10
64.142
 20
51.721
 10
64.21
 20
51.698
 10
64.275
 20
51.666
 10
64.335
 20
51.626
 10
64.389
 20
51.579
 10
64.436
 20
51.525
 10
64.476
 20
51.465
 10
64.508
 20
51.4
 10
64.531
 20
51.332
 10
64.545
 20
51.262
 97
0
 75
0
 76
1
 98
0
  0
LWPOLYLINE
  5
69
330
17
100
AcDbEntity
  8
CUT
100
AcDbPolyline
 90
68
 70
1
 10
87.96
 20
51.95
 10
91.1
 20
51.95
 10
105.86
 20
51.95
 10
105.85
 20
51.95
 10
105.85
 20
55.213
 10
105.957
 20
56.023
 10
106.27
 20
56.78
 10
106.769
 20
57.431
 10
107.42
 20
57.93
 10
108.177
 20
58.243
 10
108.987
 20
58.35
 10
117.493
 20
58.35
 10
118.303
 20
58.243
 10
119.06
 20
57.93
 10
119.711
 20
57.431
 10
120.21
 20
56.78
 10
120.523
 20
56.023
 10
120.63
 20
55.213
 10
120.63
 20
51.95
 10
120.62
 20
51.95
 10
135.38
 20
51.95
 10
135.37
 20
51.95
 10
135.37
 20
55.213
 10
135.477
 20
56.023
 10
135.79
 20
56.78
 10
136.289
 20
57.431
 10
136.94
 20
57.93
 10
137.697
 20
58.243
 10
138.507
 20
58.35
 10
147.013
 20
58.35
 10
147.823
 20
58.243
 10
148.58
 20
57.93
 10
149.231
 20
57.431
 10
149.73
 20
56.78
 10
150.043
 20
56.023
 10
150.15
 20
55.213
 10
150.15
 20
51.95
 10
150.14
 20
51.95
 10
164.9
 20
51.95
 10
168.04
 20
51.95
 10
168.04
 20
49.47
 10
164.9
 20
49.47
 10
159.263
 20
49.47
 10
159.263
 20
46.37
 10
153.506
 20
46.37
 10
153.506
 20
49.47
 10
147.909
 20
49.47
 10
147.909
 20
46.37
 10
142.152
 20
46.37
 10
142.152
 20
49.47
 10
136.555
 20
49.47
 10
136.555
 20
46.37
 10
130.798
 20
46.37
 10
130.798
 20
49.47
 10
125.202
 20
49.47
 10
125.202
 20
46.37
 10
119.445
 20
46.37
 10
119.445
 20
49.47
 10
113.848
 20
49.47
 10
113.848
 20
46.37
 10
108.091
 20
46.37
 10
108.091
 20
49.47
 10
102.494
 20
49.47
 10
102.494
 20
46.37
 10
96.737
 20
46.37
 10
96.737
 20
49.47
 10
91.1
 20
49.47
 10
87.96
 20
49.47
  0
LWPOLYLINE
  5
6A
330
17
100
AcDbEntity
  8
CUT
100
AcDbPolyline
 90
16
 70
1
 10
7.06
 20
38.04
 10
27.94
 20
38.04
 10
27.94
 20
35.073
 10
31.04
 20
35.073
 10
31.04
 20
32.027
 10
27.94
 20
32.027
 10
27.94
 20
29.06
 10
21.007
 20
29.06
 10
21.007
 20
25.96
 10
13.993
 20
25.96
 10
13.993
 20
29.06
 10
7.06
 20
29.06
 10
7.06
 20
32.027
 10
3.96
 20
32.027
 10
3.96
 20
35.073
 10
7.06
 20
35.073
  0
HATCH
  5
6B
330
17
100
AcDbEntity
  8
RASTER
 62
7
100
AcDbHatch
 10
0.0
 20
0.0
 30
0.0
210
0.0
220
0.0
230
1.0
  2
SOLID
 70
1
 71
0
 91
1
 92
3
 72
0
 73
1
 93
4
 10
8.1
 20
32.4
 10
26.9
 20
32.4
 10
26.9
 20
32.0
 10
8.1
 20
32.0
 97
0
 75
0
 76
1
 98
0
  0
LWPOLYLINE
  5
6C
330
17
100
AcDbEntity
  8
CUT
100
AcDbPolyline
 90
16
 70
1
 10
38.06
 20
38.04
 10
58.94
 20
38.04
 10
58.94
 20
35.073
 10
62.04
 20
35.073
 10
62.04
 20
32.027
 10
58.94
 20
32.027
 10
58.94
 20
29.06
 10
52.007
 20
29.06
 10
52.007
 20
25.96
 10
44.993
 20
25.96
 10
44.993
 20
29.06
 10
38.06
 20
29.06
 10
38.06
 20
32.027
 10
34.96
 20
32.027
 10
34.96
 20
35.073
 10
38.06
 20
35.073
  0
HATCH
  5
6D
330
17
100
AcDbEntity
  8
RASTER
 62
7
100
AcDbHatch
 10
0.0
 20
0.0
 30
0.0
210
0.0
220
0.0
230
1.0
  2
SOLID
 70
1
 71
0
 91
1
 92
3
 72
0
 73
1
 93
4
 10
39.1
 20
32.4
 10
57.9
 20
32.4
 10
57.9
 20
32.0
 10
39.1
 20
32.0
 97
0
 75
0
 76
1
 98
0
  0
LWPOLYLINE
  5
6E
330
17
100
AcDbEntity
  8
CUT
100
AcDbPolyline
 90
68
 70
1
 10
65.96
 20
38.04
 10
69.1
 20
38.04
 10
74.817
 20
38.04
 10
74.817
 20
34.94
 10
80.414
 20
34.94
 10
80.414
 20
38.04
 10
86.171
 20
38.04
 10
86.171
 20
34.94
 10
91.768
 20
34.94
 10
91.768
 20
38.04
 10
97.525
 20
38.04
 10
97.525
 20
34.94
 10
103.122
 20
34.94
 10
103.122
 20
38.04
 10
108.878
 20
38.04
 10
108.878
 20
34.94
 10
114.475
 20
34.94
 10
114.475
 20
38.04
 10
120.232
 20
38.04
 10
120.232
 20
34.94
 10
125.829
 20
34.94
 10
125.829
 20
38.04
 10
131.586
 20
38.04
 10
131.586
 20
34.94
 10
137.183
 20
34.94
 10
137.183
 20
38.04
 10
142.9
 20
38.04
 10
146.04
 20
38.04
 10
146.04
 20
34.9
 10
146.04
 20
27.927
 10
142.94
 20
27.927
 10
142.94
 20
21.073
 10
146.04
 20
21.073
 10
146.04
 20
14.1
 10
146.04
 20
10.96
 10
142.9
 20
10.96
 10
137.183
 20
10.96
 10
137.183
 20
14.06
 10
131.586
 20
14.06
 10
131.586
 20
10.96
 10
125.829
 20
10.96
 10
125.829
 20
14.06
 10
120.232
 20
14.06
 10
120.232
 20
10.96
 10
114.475
 20
10.96
 10
114.475
 20
14.06
 10
108.878
 20
14.06
 10
108.878
 20
10.96
 10
103.122
 20
10.96
 10
103.122
 20
14.06
 10
97.525
 20
14.06
 10
97.525
 20
10.96
 10
91.768
 20
10.96
 10
91.768
 20
14.06
 10
86.171
 20
14.06
 10
86.171
 20
10.96
 10
80.414
 20
10.96
 10
80.414
 20
14.06
 10
74.817
 20
14.06
 10
74.817
 20
10.96
 10
69.1
 20
10.96
 10
65.96
 20
10.96
 10
65.96
 20
14.1
 10
65.96
 20
21.073
 10
69.06
 20
21.073
 10
69.06
 20
27.927
 10
65.96
 20
27.927
 10
65.96
 20
34.9
  0
HATCH
  5
6F
330
17
100
AcDbEntity
  8
RASTER
 62
7
100
AcDbHatch
 10
0.0
 20
0.0
 30
0.0
210
0.0
220
0.0
230
1.0
  2
SOLID
 70
1
 71
0
 91
1
 92
3
 72
0
 73
1
 93
4
 10
70.1
 20
30.2
 10
141.9
 20
30.2
 10
141.9
 20
29.6
 10
70.1
 20
29.6
 97
0
 75
0
 76
1
 98
0
  0
HATCH
  5
70
330
17
100
AcDbEntity
  8
RASTER
 62
7
100
AcDbHatch
 10
0.0
 20
0.0
 30
0.0
210
0.0
220
0.0
230
1.0
  2
SOLID
 70
1
 71
0
 91
1
 92
3
 72
0
 73
1
 93
4
 10
70.1
 20
25.2
 10
141.9
 20
25.2
 10
141.9
 20
24.6
 10
70.1
 20
24.6
 97
0
 75
0
 76
1
 98
0
  0
HATCH
  5
71
330
17
100
AcDbEntity
  8
RASTER
 62
7
100
AcDbHatch
 10
0.0
 20
0.0
 30
0.0
210
0.0
220
0.0
230
1.0
  2
SOLID
 70
1
 71
0
 91
1
 92
3
 72
0
 73
1
 93
4
 10
70.1
 20
20.2
 10
141.9
 20
20.2
 10
141.9
 20
19.6
 10
70.1
 20
19.6
 97
0
 75
0
 76
1
 98
0
  0
HATCH
  5
72
330
17
100
AcDbEntity
  8
RASTER
 62
7
100
AcDbHatch
 10
0.0
 20
0.0
 30
0.0
210
0.0
220
0.0
230
1.0
  2
SOLID
 70
1
 71
0
 91
1
 92
3
 72
0
 73
1
 93
4
 10
84.0
 20
38.0
 10
88.0
 20
38.0
 10
88.0
 20
11.0
 10
84.0
 20
11.0
 97
0
 75
0
 76
1
 98
0
  0
HATCH
  5
73
330
17
100
AcDbEntity
  8
RASTER
 62
7
100
AcDbHatch
 10
0.0
 20
0.0
 30
0.0
210
0.0
220
0.0
230
1.0
  2
SOLID
 70
1
 71
0
 91
1
 92
3
 72
0
 73
1
 93
48
 10
86.55
 20
32.6
 10
86.545
 20
32.528
 10
86.531
 20
32.458
 10
86.508
 20
32.39
 10
86.476
 20
32.325
 10
86.436
 20
32.265
 10
86.389
 20
32.211
 10
86.335
 20
32.164
 10
86.275
 20
32.124
 10
86.21
 20
32.092
 10
86.142
 20
32.069
 10
86.072
 20
32.055
 10
86.0
 20
32.05
 10
85.928
 20
32.055
 10
85.858
 20
32.069
 10
85.79
 20
32.092
 10
85.725
 20
32.124
 10
85.665
 20
32.164
 10
85.611
 20
32.211
 10
85.564
 20
32.265
 10
85.524
 20
32.325
 10
85.492
 20
32.39
 10
85.469
 20
32.458
 10
85.455
 20
32.528
 10
85.45
 20
32.6
 10
85.455
 20
32.672
 10
85.469
 20
32.742
 10
85.492
 20
32.81
 10
85.524
 20
32.875
 10
85.564
 20
32.935
 10
85.611
 20
32.989
 10
85.665
 20
33.036
 10
85.725
 20
33.076
 10
85.79
 20
33.108
 10
85.858
 20
33.131
 10
85.928
 20
33.145
 10
86.0
 20
33.15
 10
86.072
 20
33.145
 10
86.142
 20
33.131
 10
86.21
 20
33.108
 10
86.275
 20
33.076
 10
86.335
 20
33.036
 10
86.389
 20
32.989
 10
86.436
 20
32.935
 10
86.476
 20
32.875
 10
86.508
 20
32.81
 10
86.531
 20
32.742
 10
86.545
 20
32.672
 97
0
 75
0
 76
1
 98
0
  0
HATCH
  5
74
330
17
100
AcDbEntity
  8
RASTER
 62
7
100
AcDbHatch
 10
0.0
 20
0.0
 30
0.0
210
0.0
220
0.0
230
1.0
  2
SOLID
 70
1
 71
0
 91
1
 92
3
 72
0
 73
1
 93
48
 10
86.55
 20
24.5
 10
86.545
 20
24.428
 10
86.531
 20
24.358
 10
86.508
 20
24.29
 10
86.476
 20
24.225
 10
86.436
 20
24.165
 10
86.389
 20
24.111
 10
86.335
 20
24.064
 10
86.275
 20
24.024
 10
86.21
 20
23.992
 10
86.142
 20
23.969
 10
86.072
 20
23.955
 10
86.0
 20
23.95
 10
85.928
 20
23.955
 10
85.858
 20
23.969
 10
85.79
 20
23.992
 10
85.725
 20
24.024
 10
85.665
 20
24.064
 10
85.611
 20
24.111
 10
85.564
 20
24.165
 10
85.524
 20
24.225
 10
85.492
 20
24.29
 10
85.469
 20
24.358
 10
85.455
 20
24.428
 10
85.45
 20
24.5
 10
85.455
 20
24.572
 10
85.469
 20
24.642
 10
85.492
 20
24.71
 10
85.524
 20
24.775
 10
85.564
 20
24.835
 10
85.611
 20
24.889
 10
85.665
 20
24.936
 10
85.725
 20
24.976
 10
85.79
 20
25.008
 10
85.858
 20
25.031
 10
85.928
 20
25.045
 10
86.0
 20
25.05
 10
86.072
 20
25.045
 10
86.142
 20
25.031
 10
86.21
 20
25.008
 10
86.275
 20
24.976
 10
86.335
 20
24.936
 10
86.389
 20
24.889
 10
86.436
 20
24.835
 10
86.476
 20
24.775
 10
86.508
 20
24.71
 10
86.531
 20
24.642
 10
86.545
 20
24.572
 97
0
 75
0
 76
1
 98
0
  0
HATCH
  5
75
330
17
100
AcDbEntity
  8
RASTER
 62
7
100
AcDbHatch
 10
0.0
 20
0.0
 30
0.0
210
0.0
220
0.0
230
1.0
  2
SOLID
 70
1
 71
0
 91
1
 92
3
 72
0
 73
1
 93
48
 10
86.55
 20
16.4
 10
86.545
 20
16.328
 10
86.531
 20
16.258
 10
86.508
 20
16.19
 10
86.476
 20
16.125
 10
86.436
 20
16.065
 10
86.389
 20
16.011
 10
86.335
 20
15.964
 10
86.275
 20
15.924
 10
86.21
 20
15.892
 10
86.142
 20
15.869
 10
86.072
 20
15.855
 10
86.0
 20
15.85
 10
85.928
 20
15.855
 10
85.858
 20
15.869
 10
85.79
 20
15.892
 10
85.725
 20
15.924
 10
85.665
 20
15.964
 10
85.611
 20
16.011
 10
85.564
 20
16.065
 10
85.524
 20
16.125
 10
85.492
 20
16.19
 10
85.469
 20
16.258
 10
85.455
 20
16.328
 10
85.45
 20
16.4
 10
85.455
 20
16.472
 10
85.469
 20
16.542
 10
85.492
 20
16.61
 10
85.524
 20
16.675
 10
85.564
 20
16.735
 10
85.611
 20
16.789
 10
85.665
 20
16.836
 10
85.725
 20
16.876
 10
85.79
 20
16.908
 10
85.858
 20
16.931
 10
85.928
 20
16.945
 10
86.0
 20
16.95
 10
86.072
 20
16.945
 10
86.142
 20
16.931
 10
86.21
 20
16.908
 10
86.275
 20
16.876
 10
86.335
 20
16.836
 10
86.389
 20
16.789
 10
86.436
 20
16.735
 10
86.476
 20
16.675
 10
86.508
 20
16.61
 10
86.531
 20
16.542
 10
86.545
 20
16.472
 97
0
 75
0
 76
1
 98
0
  0
HATCH
  5
76
330
17
100
AcDbEntity
  8
RASTER
 62
7
100
AcDbHatch
 10
0.0
 20
0.0
 30
0.0
210
0.0
220
0.0
230
1.0
  2
SOLID
 70
1
 71
0
 91
1
 92
3
 72
0
 73
1
 93
4
 10
124.0
 20
38.0
 10
128.0
 20
38.0
 10
128.0
 20
11.0
 10
124.0
 20
11.0
 97
0
 75
0
 76
1
 98
0
  0
HATCH
  5
77
330
17
100
AcDbEntity
  8
RASTER
 62
7
100
AcDbHatch
 10
0.0
 20
0.0
 30
0.0
210
0.0
220
0.0
230
1.0
  2
SOLID
 70
1
 71
0
 91
1
 92
3
 72
0
 73
1
 93
48
 10
126.55
 20
32.6
 10
126.545
 20
32.528
 10
126.531
 20
32.458
 10
126.508
 20
32.39
 10
126.476
 20
32.325
 10
126.436
 20
32.265
 10
126.389
 20
32.211
 10
126.335
 20
32.164
 10
126.275
 20
32.124
 10
126.21
 20
32.092
 10
126.142
 20
32.069
 10
126.072
 20
32.055
 10
126.0
 20
32.05
 10
125.928
 20
32.055
 10
125.858
 20
32.069
 10
125.79
 20
32.092
 10
125.725
 20
32.124
 10
125.665
 20
32.164
 10
125.611
 20
32.211
 10
125.564
 20
32.265
 10
125.524
 20
32.325
 10
125.492
 20
32.39
 10
125.469
 20
32.458
 10
125.455
 20
32.528
 10
125.45
 20
32.6
 10
125.455
 20
32.672
 10
125.469
 20
32.742
 10
125.492
 20
32.81
 10
125.524
 20
32.875
 10
125.564
 20
32.935
 10
125.611
 20
32.989
 10
125.665
 20
33.036
 10
125.725
 20
33.076
 10
125.79
 20
33.108
 10
125.858
 20
33.131
 10
125.928
 20
33.145
 10
126.0
 20
33.15
 10
126.072
 20
33.145
 10
126.142
 20
33.131
 10
126.21
 20
33.108
 10
126.275
 20
33.076
 10
126.335
 20
33.036
 10
126.389
 20
32.989
 10
126.436
 20
32.935
 10
126.476
 20
32.875
 10
126.508
 20
32.81
 10
126.531
 20
32.742
 10
126.545
 20
32.672
 97
0
 75
0
 76
1
 98
0
  0
HATCH
  5
78
330
17
100
AcDbEntity
  8
RASTER
 62
7
100
AcDbHatch
 10
0.0
 20
0.0
 30
0.0
210
0.0
220
0.0
230
1.0
  2
SOLID
 70
1
 71
0
 91
1
 92
3
 72
0
 73
1
 93
48
 10
126.55
 20
24.5
 10
126.545
 20
24.428
 10
126.531
 20
24.358
 10
126.508
 20
24.29
 10
126.476
 20
24.225
 10
126.436
 20
24.165
 10
126.389
 20
24.111
 10
126.335
 20
24.064
 10
126.275
 20
24.024
 10
126.21
 20
23.992
 10
126.142
 20
23.969
 10
126.072
 20
23.955
 10
126.0
 20
23.95
 10
125.928
 20
23.955
 10
125.858
 20
23.969
 10
125.79
 20
23.992
 10
125.725
 20
24.024
 10
125.665
 20
24.064
 10
125.611
 20
24.111
 10
125.564
 20
24.165
 10
125.524
 20
24.225
 10
125.492
 20
24.29
 10
125.469
 20
24.358
 10
125.455
 20
24.428
 10
125.45
 20
24.5
 10
125.455
 20
24.572
 10
125.469
 20
24.642
 10
125.492
 20
24.71
 10
125.524
 20
24.775
 10
125.564
 20
24.835
 10
125.611
 20
24.889
 10
125.665
 20
24.936
 10
125.725
 20
24.976
 10
125.79
 20
25.008
 10
125.858
 20
25.031
 10
125.928
 20
25.045
 10
126.0
 20
25.05
 10
126.072
 20
25.045
 10
126.142
 20
25.031
 10
126.21
 20
25.008
 10
126.275
 20
24.976
 10
126.335
 20
24.936
 10
126.389
 20
24.889
 10
126.436
 20
24.835
 10
126.476
 20
24.775
 10
126.508
 20
24.71
 10
126.531
 20
24.642
 10
126.545
 20
24.572
 97
0
 75
0
 76
1
 98
0
  0
HATCH
  5
79
330
17
100
AcDbEntity
  8
RASTER
 62
7
100
AcDbHatch
 10
0.0
 20
0.0
 30
0.0
210
0.0
220
0.0
230
1.0
  2
SOLID
 70
1
 71
0
 91
1
 92
3
 72
0
 73
1
 93
48
 10
126.55
 20
16.4
 10
126.545
 20
16.328
 10
126.531
 20
16.258
 10
126.508
 20
16.19
 10
126.476
 20
16.125
 10
126.436
 20
16.065
 10
126.389
 20
16.011
 10
126.335
 20
15.964
 10
126.275
 20
15.924
 10
126.21
 20
15.892
 10
126.142
 20
15.869
 10
126.072
 20
15.855
 10
126.0
 20
15.85
 10
125.928
 20
15.855
 10
125.858
 20
15.869
 10
125.79
 20
15.892
 10
125.725
 20
15.924
 10
125.665
 20
15.964
 10
125.611
 20
16.011
 10
125.564
 20
16.065
 10
125.524
 20
16.125
 10
125.492
 20
16.19
 10
125.469
 20
16.258
 10
125.455
 20
16.328
 10
125.45
 20
16.4
 10
125.455
 20
16.472
 10
125.469
 20
16.542
 10
125.492
 20
16.61
 10
125.524
 20
16.675
 10
125.564
 20
16.735
 10
125.611
 20
16.789
 10
125.665
 20
16.836
 10
125.725
 20
16.876
 10
125.79
 20
16.908
 10
125.858
 20
16.931
 10
125.928
 20
16.945
 10
126.0
 20
16.95
 10
126.072
 20
16.945
 10
126.142
 20
16.931
 10
126.21
 20
16.908
 10
126.275
 20
16.876
 10
126.335
 20
16.836
 10
126.389
 20
16.789
 10
126.436
 20
16.735
 10
126.476
 20
16.675
 10
126.508
 20
16.61
 10
126.531
 20
16.542
 10
126.545
 20
16.472
 97
0
 75
0
 76
1
 98
0
  0
LWPOLYLINE
  5
7A
330
17
100
AcDbEntity
  8
CUT
100
AcDbPolyline
 90
52
 70
1
 10
149.96
 20
37.601
 10
149.963
 20
37.668
 10
149.972
 20
37.73
 10
149.987
 20
37.788
 10
150.009
 20
37.84
 10
150.037
 20
37.887
 10
150.072
 20
37.928
 10
150.113
 20
37.963
 10
150.16
 20
37.991
 10
150.212
 20
38.013
 10
150.27
 20
38.028
 10
150.332
 20
38.037
 10
150.399
 20
38.04
 10
162.081
 20
38.04
 10
162.148
 20
38.037
 10
162.21
 20
38.028
 10
162.268
 20
38.013
 10
162.32
 20
37.991
 10
162.367
 20
37.963
 10
162.408
 20
37.928
 10
162.443
 20
37.887
 10
162.471
 20
37.84
 10
162.493
 20
37.788
 10
162.508
 20
37.73
 10
162.517
 20
37.668
 10
162.52
 20
37.601
 10
162.52
 20
35.399
 10
162.517
 20
35.332
 10
162.508
 20
35.27
 10
162.493
 20
35.212
 10
162.471
 20
35.16
 10
162.443
 20
35.113
 10
162.408
 20
35.072
 10
162.367
 20
35.037
 10
162.32
 20
35.009
 10
162.268
 20
34.987
 10
162.21
 20
34.972
 10
162.148
 20
34.963
 10
162.081
 20
34.96
 10
150.399
 20
34.96
 10
150.332
 20
34.963
 10
150.27
 20
34.972
 10
150.212
 20
34.987
 10
150.16
 20
35.009
 10
150.113
 20
35.037
 10
150.072
 20
35.072
 10
150.037
 20
35.113
 10
150.009
 20
35.16
 10
149.987
 20
35.212
 10
149.972
 20
35.27
 10
149.963
 20
35.332
 10
149.96
 20
35.399
  0
LWPOLYLINE
  5
7B
330
17
100
AcDbEntity
  8
CUT
100
AcDbPolyline
 90
52
 70
1
 10
3.96
 20
6.601
 10
3.963
 20
6.668
 10
3.972
 20
6.73
 10
3.987
 20
6.788
 10
4.009
 20
6.84
 10
4.037
 20
6.887
 10
4.072
 20
6.928
 10
4.113
 20
6.963
 10
4.16
 20
6.991
 10
4.212
 20
7.013
 10
4.27
 20
7.028
 10
4.332
 20
7.037
 10
4.399
 20
7.04
 10
16.081
 20
7.04
 10
16.148
 20
7.037
 10
16.21
 20
7.028
 10
16.268
 20
7.013
 10
16.32
 20
6.991
 10
16.367
 20
6.963
 10
16.408
 20
6.928
 10
16.443
 20
6.887
 10
16.471
 20
6.84
 10
16.493
 20
6.788
 10
16.508
 20
6.73
 10
16.517
 20
6.668
 10
16.52
 20
6.601
 10
16.52
 20
4.399
 10
16.517
 20
4.332
 10
16.508
 20
4.27
 10
16.493
 20
4.212
 10
16.471
 20
4.16
 10
16.443
 20
4.113
 10
16.408
 20
4.072
 10
16.367
 20
4.037
 10
16.32
 20
4.009
 10
16.268
 20
3.987
 10
16.21
 20
3.972
 10
16.148
 20
3.963
 10
16.081
 20
3.96
 10
4.399
 20
3.96
 10
4.332
 20
3.963
 10
4.27
 20
3.972
 10
4.212
 20
3.987
 10
4.16
 20
4.009
 10
4.113
 20
4.037
 10
4.072
 20
4.072
 10
4.037
 20
4.113
 10
4.009
 20
4.16
 10
3.987
 20
4.212
 10
3.972
 20
4.27
 10
3.963
 20
4.332
 10
3.96
 20
4.399
  0
ENDSEC
  0
SECTION
  2
OBJECTS
  0
DICTIONARY
  5
A
330
0
100
AcDbDictionary
281
1
  3
ACAD_COLOR
350
B
  3
ACAD_GROUP
350
C
  3
ACAD_LAYOUT
350
D
  3
ACAD_MATERIAL
350
E
  3
ACAD_MLEADERSTYLE
350
F
  3
ACAD_MLINESTYLE
350
10
  3
ACAD_PLOTSETTINGS
350
11
  3
ACAD_PLOTSTYLENAME
350
12
  3
ACAD_SCALELIST
350
14
  3
ACAD_TABLESTYLE
350
15
  3
ACAD_VISUALSTYLE
350
16
  3
EZDXF_META
350
2D
  0
DICTIONARY
  5
B
330
A
100
AcDbDictionary
281
1
  0
DICTIONARY
  5
C
330
A
100
AcDbDictionary
281
1
  0
DICTIONARY
  5
D
330
A
100
AcDbDictionary
281
1
  3
Model
350
1A
  3
Layout1
350
1E
  0
DICTIONARY
  5
E
330
A
100
AcDbDictionary
281
1
  3
ByBlock
350
1F
  3
ByLayer
350
20
  3
Global
350
21
  0
DICTIONARY
  5
F
330
A
100
AcDbDictionary
281
1
  3
Standard
350
2C
  0
DICTIONARY
  5
10
330
A
100
AcDbDictionary
281
1
  3
Standard
350
22
  0
DICTIONARY
  5
11
330
A
100
AcDbDictionary
281
1
  0
ACDBDICTIONARYWDFLT
  5
12
330
A
100
AcDbDictionary
281
1
  3
Normal
350
13
100
AcDbDictionaryWithDefault
340
13
  0
ACDBPLACEHOLDER
  5
13
330
12
  0
DICTIONARY
  5
14
330
A
100
AcDbDictionary
281
1
  0
DICTIONARY
  5
15
330
A
100
AcDbDictionary
281
1
  0
DICTIONARY
  5
16
330
A
100
AcDbDictionary
281
1
  0
LAYOUT
  5
1A
330
D
100
AcDbPlotSettings
  1

  4
A3
  6

 40
7.5
 41
20.0
 42
7.5
 43
20.0
 44
420.0
 45
297.0
 46
0.0
 47
0.0
 48
0.0
 49
0.0
140
0.0
141
0.0
142
1.0
143
1.0
 70
1024
 72
1
 73
0
 74
5
  7

 75
16
 76
0
 77
2
 78
300
147
1.0
148
0.0
149
0.0
100
AcDbLayout
  1
Model
 70
1
 71
0
 10
0.0
 20
0.0
 11
420.0
 21
297.0
 12
0.0
 22
0.0
 32
0.0
 14
1e+20
 24
1e+20
 34
1e+20
 15
-1e+20
 25
-1e+20
 35
-1e+20
146
0.0
 13
0.0
 23
0.0
 33
0.0
 16
1.0
 26
0.0
 36
0.0
 17
0.0
 27
1.0
 37
0.0
 76
1
330
17
  0
LAYOUT
  5
1E
330
D
100
AcDbPlotSettings
  1

  4
A3
  6

 40
7.5
 41
20.0
 42
7.5
 43
20.0
 44
420.0
 45
297.0
 46
0.0
 47
0.0
 48
0.0
 49
0.0
140
0.0
141
0.0
142
1.0
143
1.0
 70
0
 72
1
 73
0
 74
5
  7

 75
16
 76
0
 77
2
 78
300
147
1.0
148
0.0
149
0.0
100
AcDbLayout
  1
Layout1
 70
1
 71
1
 10
0.0
 20
0.0
 11
420.0
 21
297.0
 12
0.0
 22
0.0
 32
0.0
 14
1e+20
 24
1e+20
 34
1e+20
 15
-1e+20
 25
-1e+20
 35
-1e+20
146
0.0
 13
0.0
 23
0.0
 33
0.0
 16
1.0
 26
0.0
 36
0.0
 17
0.0
 27
1.0
 37
0.0
 76
1
330
1B
  0
MATERIAL
  5
1F
102
{ACAD_REACTORS
330
E
102
}
330
E
100
AcDbMaterial
  1
ByBlock
  2

 70
0
 40
1.0
 71
1
 41
1.0
 91
-1023410177
 42
1.0
 72
1
  3

 73
1
 74
1
 75
1
 44
0.5
 73
0
 45
1.0
 46
1.0
 77
1
  4

 78
1
 79
1
170
1
 48
1.0
171
1
  6

172
1
173
1
174
1
140
1.0
141
1.0
175
1
  7

176
1
177
1
178
1
143
1.0
179
1
  8

270
1
271
1
272
1
145
1.0
146
1.0
273
1
  9

274
1
275
1
276
1
 42
1.0
 72
1
  3

 73
1
 74
1
 75
1
 94
63
  0
MATERIAL
  5
20
102
{ACAD_REACTORS
330
E
102
}
330
E
100
AcDbMaterial
  1
ByLayer
  2

 70
0
 40
1.0
 71
1
 41
1.0
 91
-1023410177
 42
1.0
 72
1
  3

 73
1
 74
1
 75
1
 44
0.5
 73
0
 45
1.0
 46
1.0
 77
1
  4

 78
1
 79
1
170
1
 48
1.0
171
1
  6

172
1
173
1
174
1
140
1.0
141
1.0
175
1
  7

176
1
177
1
178
1
143
1.0
179
1
  8

270
1
271
1
272
1
145
1.0
146
1.0
273
1
  9

274
1
275
1
276
1
 42
1.0
 72
1
  3

 73
1
 74
1
 75
1
 94
63
  0
MATERIAL
  5
21
102
{ACAD_REACTORS
330
E
102
}
330
E
100
AcDbMaterial
  1
Global
  2

 70
0
 40
1.0
 71
1
 41
1.0
 91
-1023410177
 42
1.0
 72
1
  3

 73
1
 74
1
 75
1
 44
0.5
 73
0
 45
1.0
 46
1.0
 77
1
  4

 78
1
 79
1
170
1
 48
1.0
171
1
  6

172
1
173
1
174
1
140
1.0
141
1.0
175
1
  7

176
1
177
1
178
1
143
1.0
179
1
  8

270
1
271
1
272
1
145
1.0
146
1.0
273
1
  9

274
1
275
1
276
1
 42
1.0
 72
1
  3

 73
1
 74
1
 75
1
 94
63
  0
MLINESTYLE
  5
22
102
{ACAD_REACTORS
330
10
102
}
330
10
100
AcDbMlineStyle
  2
Standard
 70
0
  3

 62
256
 51
90.0
 52
90.0
 71
2
 49
0.5
 62
256
  6
BYLAYER
 49
-0.5
 62
256
  6
BYLAYER
  0
MLEADERSTYLE
  5
2C
102
{ACAD_REACTORS
330
F
102
}
330
F
100
AcDbMLeaderStyle
179
2
170
2
171
1
172
0
 90
2
 40
0.0
 41
0.0
173
1
 91
-1056964608
 92
-2
290
1
 42
2.0
291
1
 43
8.0
  3
Standard
 44
4.0
300

342
29
174
1
175
1
176
0
178
1
 93
-1056964608
 45
4.0
292
0
297
0
 46
4.0
 94
-1056964608
 47
1.0
 49
1.0
140
1.0
294
1
141
0.0
177
0
142
1.0
295
0
296
0
143
3.75
271
0
272
9
273
9
  0
DICTIONARY
  5
2D
330
A
100
AcDbDictionary
280
1
281
1
  3
CREATED_BY_EZDXF
350
2E
  3
WRITTEN_BY_EZDXF
350
7E
  0
DICTIONARYVAR
  5
2E
330
2D
100
DictionaryVariables
280
0
  1
1.4.2 @ 2026-08-25T23:57:12.872315+00:00
  0
DICTIONARYVAR
  5
7E
330
2D
100
DictionaryVariables
280
0
  1
1.4.2 @ 2026-08-25T23:57:12.875500+00:00
  0
ENDSEC
  0
EOF
