  0
SECTION
  2
HEADER
  9
$ACADVER
  1
AC1015
  9
$ACADMAINTVER
 70
6
  9
$DWGCODEPAGE
  3
ANSI_1252
  9
$INSBASE
 10
0.0
 20
0.0
 30
0.0
  9
$EXTMIN
 10
1e+20
 20
1e+20
 30
1e+20
  9
$EXTMAX
 10
-1e+20
 20
-1e+20
 30
-1e+20
  9
$LIMMIN
 10
0.0
 20
0.0
  9
$LIMMAX
 10
420.0
 20
297.0
  9
$ORTHOMODE
 70
0
  9
$REGENMODE
 70
1
  9
$FILLMODE
 70
1
  9
$QTEXTMODE
 70
0
  9
$MIRRTEXT
 70
1
  9
$LTSCALE
 40
1.0
  9
$ATTMODE
 70
1
  9
$TEXTSIZE
 40
2.5
  9
$TRACEWID
 40
1.0
  9
$TEXTSTYLE
  7
Standard
  9
$CLAYER
  8
0
  9
$CELTYPE
  6
ByLayer
  9
$CECOLOR
 62
256
  9
$CELTSCALE
 40
1.0
  9
$DISPSILH
 70
0
  9
$DIMSCALE
 40
1.0
  9
$DIMASZ
 40
2.5
  9
$DIMEXO
 40
0.625
  9
$DIMDLI
 40
3.75
  9
$DIMRND
 40
0.0
  9
$DIMDLE
 40
0.0
  9
$DIMEXE
 40
1.25
  9
$DIMTP
 40
0.0
  9
$DIMTM
 40
0.0
  9
$DIMTXT
 40
2.5
  9
$DIMCEN
 40
2.5
  9
$DIMTSZ
 40
0.0
  9
$DIMTOL
 70
0
  9
$DIMLIM
 70
0
  9
$DIMTIH
 70
0
  9
$DIMTOH
 70
0
  9
$DIMSE1
 70
0
  9
$DIMSE2
 70
0
  9
$DIMTAD
 70
1
  9
$DIMZIN
 70
8
  9
$DIMBLK
  1

  9
$DIMASO
 70
1
  9
$DIMSHO
 70
1
  9
$DIMPOST
  1

  9
$DIMAPOST
  1

  9
$DIMALT
 70
0
  9
$DIMALTD
 70
3
  9
$DIMALTF
 40
0.03937007874
  9
$DIMLFAC
 40
1.0
  9
$DIMTOFL
 70
1
  9
$DIMTVP
 40
0.0
  9
$DIMTIX
 70
0
  9
$DIMSOXD
 70
0
  9
$DIMSAH
 70
0
  9
$DIMBLK1
  1

  9
$DIMBLK2
  1

  9
$DIMSTYLE
  2
ISO-25
  9
$DIMCLRD
 70
0
  9
$DIMCLRE
 70
0
  9
$DIMCLRT
 70
0
  9
$DIMTFAC
 40
1.0
  9
$DIMGAP
 40
0.625
  9
$DIMJUST
 70
0
  9
$DIMSD1
 70
0
  9
$DIMSD2
 70
0
  9
$DIMTOLJ
 70
0
  9
$DIMTZIN
 70
8
  9
$DIMALTZ
 70
0
  9
$DIMALTTZ
 70
0
  9
$DIMUPT
 70
0
  9
$DIMDEC
 70
2
  9
$DIMTDEC
 70
2
  9
$DIMALTU
 70
2
  9
$DIMALTTD
 70
3
  9
$DIMTXSTY
  7
Standard
  9
$DIMAUNIT
 70
0
  9
$DIMADEC
 70
0
  9
$DIMALTRND
 40
0.0
  9
$DIMAZIN
 70
0
  9
$DIMDSEP
 70
44
  9
$DIMATFIT
 70
3
  9
$DIMFRAC
 70
0
  9
$DIMLDRBLK
  1

  9
$DIMLUNIT
 70
2
  9
$DIMLWD
 70
-2
  9
$DIMLWE
 70
-2
  9
$DIMTMOVE
 70
0
  9
$LUNITS
 70
2
  9
$LUPREC
 70
4
  9
$SKETCHINC
 40
1.0
  9
$FILLETRAD
 40
10.0
  9
$AUNITS
 70
0
  9
$AUPREC
 70
2
  9
$MENU
  1
.
  9
$ELEVATION
 40
0.0
  9
$PELEVATION
 40
0.0
  9
$THICKNESS
 40
0.0
  9
$LIMCHECK
 70
0
  9
$CHAMFERA
 40
0.0
  9
$CHAMFERB
 40
0.0
  9
$CHAMFERC
 40
0.0
  9
$CHAMFERD
 40
0.0
  9
$SKPOLY
 70
0
  9
$TDCREATE
 40
2461278.831388889
  9
$TDUCREATE
 40
2458532.153996898
  9
$TDUPDATE
 40
2461278.831388889
  9
$TDUUPDATE
 40
2458532.1544311
  9
$TDINDWG
 40
0.0
  9
$TDUSRTIMER
 40
0.0
  9
$USRTIMER
 70
1
  9
$ANGBASE
 50
0.0
  9
$ANGDIR
 70
0
  9
$PDMODE
 70
0
  9
$PDSIZE
 40
0.0
  9
$PLINEWID
 40
0.0
  9
$SPLFRAME
 70
0
  9
$SPLINETYPE
 70
6
  9
$SPLINESEGS
 70
8
  9
$HANDSEED
  5
44
  9
$SURFTAB1
 70
6
  9
$SURFTAB2
 70
6
  9
$SURFTYPE
 70
6
  9
$SURFU
 70
6
  9
$SURFV
 70
6
  9
$UCSBASE
  2

  9
$UCSNAME
  2

  9
$UCSORG
 10
0.0
 20
0.0
 30
0.0
  9
$UCSXDIR
 10
1.0
 20
0.0
 30
0.0
  9
$UCSYDIR
 10
0.0
 20
1.0
 30
0.0
  9
$UCSORTHOREF
  2

  9
$UCSORTHOVIEW
 70
0
  9
$UCSORGTOP
 10
0.0
 20
0.0
 30
0.0
  9
$UCSORGBOTTOM
 10
0.0
 20
0.0
 30
0.0
  9
$UCSORGLEFT
 10
0.0
 20
0.0
 30
0.0
  9
$UCSORGRIGHT
 10
0.0
 20
0.0
 30
0.0
  9
$UCSORGFRONT
 10
0.0
 20
0.0
 30
0.0
  9
$UCSORGBACK
 10
0.0
 20
0.0
 30
0.0
  9
$PUCSBASE
  2

  9
$PUCSNAME
  2

  9
$PUCSORG
 10
0.0
 20
0.0
 30
0.0
  9
$PUCSXDIR
 10
1.0
 20
0.0
 30
0.0
  9
$PUCSYDIR
 10
0.0
 20
1.0
 30
0.0
  9
$PUCSORTHOREF
  2

  9
$PUCSORTHOVIEW
 70
0
  9
$PUCSORGTOP
 10
0.0
 20
0.0
 30
0.0
  9
$PUCSORGBOTTOM
 10
0.0
 20
0.0
 30
0.0
  9
$PUCSORGLEFT
 10
0.0
 20
0.0
 30
0.0
  9
$PUCSORGRIGHT
 10
0.0
 20
0.0
 30
0.0
  9
$PUCSORGFRONT
 10
0.0
 20
0.0
 30
0.0
  9
$PUCSORGBACK
 10
0.0
 20
0.0
 30
0.0
  9
$USERI1
 70
0
  9
$USERI2
 70
0
  9
$USERI3
 70
0
  9
$USERI4
 70
0
  9
$USERI5
 70
0
  9
$USERR1
 40
0.0
  9
$USERR2
 40
0.0
  9
$USERR3
 40
0.0
  9
$USERR4
 40
0.0
  9
$USERR5
 40
0.0
  9
$WORLDVIEW
 70
1
  9
$SHADEDGE
 70
3
  9
$SHADEDIF
 70
70
  9
$TILEMODE
 70
1
  9
$MAXACTVP
 70
64
  9
$PINSBASE
 10
0.0
 20
0.0
 30
0.0
  9
$PLIMCHECK
 70
0
  9
$PEXTMIN
 10
1e+20
 20
1e+20
 30
1e+20
  9
$PEXTMAX
 10
-1e+20
 20
-1e+20
 30
-1e+20
  9
$PLIMMIN
 10
0.0
 20
0.0
  9
$PLIMMAX
 10
420.0
 20
297.0
  9
$UNITMODE
 70
0
  9
$VISRETAIN
 70
1
  9
$PLINEGEN
 70
0
  9
$PSLTSCALE
 70
1
  9
$TREEDEPTH
 70
3020
  9
$CMLSTYLE
  2
Standard
  9
$CMLJUST
 70
0
  9
$CMLSCALE
 40
20.0
  9
$PROXYGRAPHICS
 70
1
  9
$MEASUREMENT
 70
1
  9
$CELWEIGHT
370
-1
  9
$ENDCAPS
280
0
  9
$JOINSTYLE
280
0
  9
$LWDISPLAY
290
0
  9
$INSUNITS
 70
4
  9
$HYPERLINKBASE
  1

  9
$STYLESHEET
  1

  9
$XEDIT
290
1
  9
$CEPSNTYPE
380
0
  9
$PSTYLEMODE
290
1
  9
$FINGERPRINTGUID
  2
{5A7AA7D1-A96A-4B2C-AD95-B4B7E20284EF}
  9
$VERSIONGUID
  2
{FFD84893-D179-4522-968C-FA8402527219}
  9
$EXTNAMES
290
1
  9
$PSVPSCALE
 40
0.0
  9
$OLESTARTUP
290
0
  0
ENDSEC
  0
SECTION
  2
CLASSES
  0
CLASS
  1
ACDBDICTIONARYWDFLT
  2
AcDbDictionaryWithDefault
  3
ObjectDBX Classes
 90
0
280
0
281
0
  0
CLASS
  1
SUN
  2
AcDbSun
  3
SCENEOE
 90
1153
280
0
281
0
  0
CLASS
  1
VISUALSTYLE
  2
AcDbVisualStyle
  3
ObjectDBX Classes
 90
4095
280
0
281
0
  0
CLASS
  1
MATERIAL
  2
AcDbMaterial
  3
ObjectDBX Classes
 90
1153
280
0
281
0
  0
CLASS
  1
SCALE
  2
AcDbScale
  3
ObjectDBX Classes
 90
1153
280
0
281
0
  0
CLASS
  1
TABLESTYLE
  2
AcDbTableStyle
  3
ObjectDBX Classes
 90
4095
280
0
281
0
  0
CLASS
  1
MLEADERSTYLE
  2
AcDbMLeaderStyle
  3
ACDB_MLEADERSTYLE_CLASS
 90
4095
280
0
281
0
  0
CLASS
  1
DICTIONARYVAR
  2
AcDbDictionaryVar
  3
ObjectDBX Classes
 90
0
280
0
281
0
  0
CLASS
  1
CELLSTYLEMAP
  2
AcDbCellStyleMap
  3
ObjectDBX Classes
 90
1152
280
0
281
0
  0
CLASS
  1
MENTALRAYRENDERSETTINGS
  2
AcDbMentalRayRenderSettings
  3
SCENEOE
 90
1024
280
0
281
0
  0
CLASS
  1
ACDBDETAILVIEWSTYLE
  2
AcDbDetailViewStyle
  3
ObjectDBX Classes
 90
1025
280
0
281
0
  0
CLASS
  1
ACDBSECTIONVIEWSTYLE
  2
AcDbSectionViewStyle
  3
ObjectDBX Classes
 90
1025
280
0
281
0
  0
CLASS
  1
RASTERVARIABLES
  2
AcDbRasterVariables
  3
ISM
 90
0
280
0
281
0
  0
CLASS
  1
ACDBPLACEHOLDER
  2
AcDbPlaceHolder
  3
ObjectDBX Classes
 90
0
280
0
281
0
  0
CLASS
  1
LAYOUT
  2
AcDbLayout
  3
ObjectDBX Classes
 90
0
280
0
281
0
  0
ENDSEC
  0
SECTION
  2
TABLES
  0
TABLE
  2
VPORT
  5
8
330
0
100
AcDbSymbolTable
 70
1
  0
VPORT
  5
23
330
8
100
AcDbSymbolTableRecord
100
AcDbViewportTableRecord
  2
*Active
 70
0
 10
0.0
 20
0.0
 11
1.0
 21
1.0
 12
0.0
 22
0.0
 13
0.0
 23
0.0
 14
0.5
 24
0.5
 15
0.5
 25
0.5
 16
0.0
 26
0.0
 36
1.0
 17
0.0
 27
0.0
 37
0.0
 40
1000.0
 41
1.34
 42
50.0
 43
0.0
 44
0.0
 50
0.0
 51
0.0
 71
0
 72
1000
 73
1
 74
3
 75
0
 76
0
 77
0
 78
0
281
0
 65
0
146
0.0
  0
ENDTAB
  0
TABLE
  2
LTYPE
  5
2
330
0
100
AcDbSymbolTable
 70
3
  0
LTYPE
  5
24
330
2
100
AcDbSymbolTableRecord
100
AcDbLinetypeTableRecord
  2
ByBlock
 70
0
  3

 72
65
 73
0
 40
0.0
  0
LTYPE
  5
25
330
2
100
AcDbSymbolTableRecord
100
AcDbLinetypeTableRecord
  2
ByLayer
 70
0
  3

 72
65
 73
0
 40
0.0
  0
LTYPE
  5
26
330
2
100
AcDbSymbolTableRecord
100
AcDbLinetypeTableRecord
  2
Continuous
 70
0
  3

 72
65
 73
0
 40
0.0
  0
ENDTAB
  0
TABLE
  2
LAYER
  5
1
330
0
100
AcDbSymbolTable
 70
4
  0
LAYER
  5
27
330
1
100
AcDbSymbolTableRecord
100
AcDbLayerTableRecord
  2
0
 70
0
 62
7
  6
Continuous
370
-3
390
13
  0
LAYER
  5
28
330
1
100
AcDbSymbolTableRecord
100
AcDbLayerTableRecord
  2
Defpoints
 70
0
 62
7
  6
Continuous
290
0
370
-3
390
13
  0
LAYER
  5
2F
330
1
100
AcDbSymbolTableRecord
100
AcDbLayerTableRecord
  2
CUT
 70
0
 62
1
  6
Continuous
370
-3
390
13
  0
LAYER
  5
30
330
1
100
AcDbSymbolTableRecord
100
AcDbLayerTableRecord
  2
RASTER
 70
0
 62
7
  6
Continuous
370
-3
390
13
  0
ENDTAB
  0
TABLE
  2
STYLE
  5
5
330
0
100
AcDbSymbolTable
 70
1
  0
STYLE
  5
29
330
5
100
AcDbSymbolTableRecord
100
AcDbTextStyleTableRecord
  2
Standard
 70
0
 40
0.0
 41
1.0
 50
0.0
 71
0
 42
2.5
  3
txt
  4

  0
ENDTAB
  0
TABLE
  2
VIEW
  5
7
330
0
100
AcDbSymbolTable
 70
0
  0
ENDTAB
  0
TABLE
  2
UCS
  5
6
330
0
100
AcDbSymbolTable
 70
0
  0
ENDTAB
  0
TABLE
  2
APPID
  5
3
330
0
100
AcDbSymbolTable
 70
3
  0
APPID
  5
2A
330
3
100
AcDbSymbolTableRecord
100
AcDbRegAppTableRecord
  2
ACAD
 70
0
  0
APPID
  5
41
330
3
100
AcDbSymbolTableRecord
100
AcDbRegAppTableRecord
  2
HATCHBACKGROUNDCOLOR
 70
0
  0
APPID
  5
42
330
3
100
AcDbSymbolTableRecord
100
AcDbRegAppTableRecord
  2
EZDXF
 70
0
  0
ENDTAB
  0
TABLE
  2
DIMSTYLE
  5
4
330
0
100
AcDbSymbolTable
 70
1
100
AcDbDimStyleTable
  0
DIMSTYLE
105
2B
330
4
100
AcDbSymbolTableRecord
100
AcDbDimStyleTableRecord
  2
Standard
 70
0
  3

  4

 40
1.0
 41
2.5
 42
0.625
 43
3.75
 44
1.25
 45
0.0
 46
0.0
 47
0.0
 48
0.0
140
2.5
141
2.5
142
0.0
143
0.03937007874
144
1.0
145
0.0
146
1.0
147
0.625
148
0.0
 71
0
 72
0
 73
0
 74
0
 75
0
 76
0
 77
1
 78
8
 79
3
170
0
171
3
172
1
173
0
174
0
175
0
176
0
177
0
178
0
179
2
271
2
272
2
273
2
274
3
275
0
276
0
277
2
278
44
279
0
280
0
281
0
282
0
283
0
284
8
285
0
286
0
288
0
289
3
371
-2
372
-2
  0
ENDTAB
  0
TABLE
  2
BLOCK_RECORD
  5
9
330
0
100
AcDbSymbolTable
 70
2
  0
BLOCK_RECORD
  5
17
330
9
100
AcDbSymbolTableRecord
100
AcDbBlockTableRecord
  2
*Model_Space
340
1A
  0
BLOCK_RECORD
  5
1B
330
9
100
AcDbSymbolTableRecord
100
AcDbBlockTableRecord
  2
*Paper_Space
340
1E
  0
ENDTAB
  0
ENDSEC
  0
SECTION
  2
BLOCKS
  0
BLOCK
  5
18
330
17
100
AcDbEntity
  8
0
100
AcDbBlockBegin
  2
*Model_Space
 70
0
 10
0.0
 20
0.0
 30
0.0
  3
*Model_Space
  1

  0
ENDBLK
  5
19
330
17
100
AcDbEntity
  8
0
100
AcDbBlockEnd
  0
BLOCK
  5
1C
330
1B
100
AcDbEntity
  8
0
100
AcDbBlockBegin
  2
*Paper_Space
 70
0
 10
0.0
 20
0.0
 30
0.0
  3
*Paper_Space
  1

  0
ENDBLK
  5
1D
330
1B
100
AcDbEntity
  8
0
100
AcDbBlockEnd
  0
ENDSEC
  0
SECTION
  2
ENTITIES
  0
LWPOLYLINE
  5
31
330
17
100
AcDbEntity
  8
CUT
100
AcDbPolyline
 90
436
 70
1
 10
53.253
 20
37.036
 10
53.338
 20
36.614
 10
53.338
 20
20.586
 10
53.253
 20
20.164
 10
53.006
 20
19.794
 10
52.636
 20
19.547
 10
52.214
 20
19.463
 10
50.686
 20
19.463
 10
50.264
 20
19.547
 10
49.894
 20
19.794
 10
49.647
 20
20.164
 10
49.563
 20
20.586
 10
49.563
 20
23.963
 10
48.921
 20
23.963
 10
49.034
 20
23.802
 10
49.14
 20
23.324
 10
49.053
 20
22.842
 10
48.785
 20
22.432
 10
48.38
 20
22.156
 10
47.9
 20
22.06
 10
47.42
 20
22.156
 10
47.015
 20
22.432
 10
46.747
 20
22.842
 10
46.66
 20
23.324
 10
46.766
 20
23.802
 10
46.879
 20
23.963
 10
43.521
 20
23.963
 10
43.634
 20
23.802
 10
43.74
 20
23.324
 10
43.653
 20
22.842
 10
43.385
 20
22.432
 10
42.98
 20
22.156
 10
42.5
 20
22.06
 10
42.02
 20
22.156
 10
41.615
 20
22.432
 10
41.347
 20
22.842
 10
41.26
 20
23.324
 10
41.366
 20
23.802
 10
41.479
 20
23.963
 10
40.838
 20
23.963
 10
40.838
 20
23.459
 10
40.838
 20
22.969
 10
40.838
 20
22.479
 10
40.838
 20
21.99
 10
40.838
 20
21.498
 10
40.828
 20
21.193
 10
40.818
 20
20.885
 10
40.788
 20
20.597
 10
40.758
 20
20.309
 10
40.708
 20
20.039
 10
40.658
 20
19.77
 10
40.588
 20
19.52
 10
40.518
 20
19.269
 10
40.337
 20
18.806
 10
40.115
 20
18.382
 10
39.852
 20
17.997
 10
39.547
 20
17.653
 10
39.203
 20
17.348
 10
38.818
 20
17.085
 10
38.394
 20
16.863
 10
37.931
 20
16.682
 10
37.68
 20
16.612
 10
37.43
 20
16.542
 10
37.161
 20
16.492
 10
36.891
 20
16.442
 10
36.603
 20
16.412
 10
36.315
 20
16.382
 10
36.007
 20
16.372
 10
35.702
 20
16.362
 10
35.21
 20
16.362
 10
34.721
 20
16.362
 10
34.231
 20
16.362
 10
33.741
 20
16.362
 10
33.238
 20
16.362
 10
33.238
 20
15.721
 10
33.398
 20
15.834
 10
33.876
 20
15.94
 10
34.358
 20
15.853
 10
34.768
 20
15.585
 10
35.044
 20
15.18
 10
35.14
 20
14.7
 10
35.044
 20
14.22
 10
34.768
 20
13.815
 10
34.358
 20
13.547
 10
33.876
 20
13.46
 10
33.398
 20
13.566
 10
33.238
 20
13.679
 10
33.238
 20
10.321
 10
33.398
 20
10.434
 10
33.876
 20
10.54
 10
34.358
 20
10.453
 10
34.768
 20
10.185
 10
35.044
 20
9.78
 10
35.14
 20
9.3
 10
35.044
 20
8.82
 10
34.768
 20
8.415
 10
34.358
 20
8.147
 10
33.876
 20
8.06
 10
33.398
 20
8.166
 10
33.238
 20
8.279
 10
33.238
 20
7.638
 10
36.614
 20
7.638
 10
37.036
 20
7.553
 10
37.406
 20
7.306
 10
37.653
 20
6.936
 10
37.738
 20
6.514
 10
37.738
 20
4.986
 10
37.653
 20
4.564
 10
37.406
 20
4.194
 10
37.036
 20
3.947
 10
36.614
 20
3.862
 10
20.586
 20
3.862
 10
20.164
 20
3.947
 10
19.794
 20
4.194
 10
19.547
 20
4.564
 10
19.463
 20
4.986
 10
19.463
 20
6.514
 10
19.547
 20
6.936
 10
19.794
 20
7.306
 10
20.164
 20
7.553
 10
20.586
 20
7.638
 10
23.963
 20
7.638
 10
23.963
 20
8.279
 10
23.802
 20
8.166
 10
23.324
 20
8.06
 10
22.842
 20
8.147
 10
22.432
 20
8.415
 10
22.156
 20
8.82
 10
22.06
 20
9.3
 10
22.156
 20
9.78
 10
22.432
 20
10.185
 10
22.842
 20
10.453
 10
23.324
 20
10.54
 10
23.802
 20
10.434
 10
23.963
 20
10.321
 10
23.963
 20
13.679
 10
23.802
 20
13.566
 10
23.324
 20
13.46
 10
22.842
 20
13.547
 10
22.432
 20
13.815
 10
22.156
 20
14.22
 10
22.06
 20
14.7
 10
22.156
 20
15.18
 10
22.432
 20
15.585
 10
22.842
 20
15.853
 10
23.324
 20
15.94
 10
23.802
 20
15.834
 10
23.963
 20
15.721
 10
23.963
 20
16.362
 10
23.459
 20
16.362
 10
22.969
 20
16.362
 10
22.479
 20
16.362
 10
21.99
 20
16.362
 10
21.498
 20
16.362
 10
21.193
 20
16.372
 10
20.885
 20
16.382
 10
20.597
 20
16.412
 10
20.309
 20
16.442
 10
20.039
 20
16.492
 10
19.77
 20
16.542
 10
19.52
 20
16.612
 10
19.269
 20
16.682
 10
18.806
 20
16.863
 10
18.382
 20
17.085
 10
17.997
 20
17.348
 10
17.653
 20
17.653
 10
17.348
 20
17.997
 10
17.085
 20
18.382
 10
16.863
 20
18.806
 10
16.682
 20
19.269
 10
16.612
 20
19.52
 10
16.542
 20
19.77
 10
16.492
 20
20.039
 10
16.442
 20
20.309
 10
16.412
 20
20.597
 10
16.382
 20
20.885
 10
16.372
 20
21.193
 10
16.363
 20
21.498
 10
16.363
 20
21.99
 10
16.363
 20
22.479
 10
16.363
 20
22.969
 10
16.363
 20
23.459
 10
16.363
 20
23.963
 10
15.721
 20
23.963
 10
15.834
 20
23.802
 10
15.94
 20
23.324
 10
15.853
 20
22.842
 10
15.585
 20
22.432
 10
15.18
 20
22.156
 10
14.7
 20
22.06
 10
14.22
 20
22.156
 10
13.815
 20
22.432
 10
13.547
 20
22.842
 10
13.46
 20
23.324
 10
13.566
 20
23.802
 10
13.679
 20
23.963
 10
10.321
 20
23.963
 10
10.434
 20
23.802
 10
10.54
 20
23.324
 10
10.453
 20
22.842
 10
10.185
 20
22.432
 10
9.78
 20
22.156
 10
9.3
 20
22.06
 10
8.82
 20
22.156
 10
8.415
 20
22.432
 10
8.147
 20
22.842
 10
8.06
 20
23.324
 10
8.166
 20
23.802
 10
8.279
 20
23.963
 10
7.638
 20
23.963
 10
7.638
 20
20.586
 10
7.553
 20
20.164
 10
7.306
 20
19.794
 10
6.936
 20
19.547
 10
6.514
 20
19.463
 10
4.986
 20
19.463
 10
4.564
 20
19.547
 10
4.194
 20
19.794
 10
3.947
 20
20.164
 10
3.863
 20
20.586
 10
3.863
 20
36.614
 10
3.947
 20
37.036
 10
4.194
 20
37.406
 10
4.564
 20
37.653
 10
4.986
 20
37.738
 10
6.514
 20
37.738
 10
6.936
 20
37.653
 10
7.306
 20
37.406
 10
7.553
 20
37.036
 10
7.638
 20
36.614
 10
7.638
 20
33.238
 10
8.279
 20
33.238
 10
8.166
 20
33.398
 10
8.06
 20
33.876
 10
8.147
 20
34.358
 10
8.415
 20
34.768
 10
8.82
 20
35.044
 10
9.3
 20
35.14
 10
9.78
 20
35.044
 10
10.185
 20
34.768
 10
10.453
 20
34.358
 10
10.54
 20
33.876
 10
10.434
 20
33.398
 10
10.321
 20
33.238
 10
13.679
 20
33.238
 10
13.566
 20
33.398
 10
13.46
 20
33.876
 10
13.547
 20
34.358
 10
13.815
 20
34.768
 10
14.22
 20
35.044
 10
14.7
 20
35.14
 10
15.18
 20
35.044
 10
15.585
 20
34.768
 10
15.853
 20
34.358
 10
15.94
 20
33.876
 10
15.834
 20
33.398
 10
15.721
 20
33.238
 10
16.363
 20
33.238
 10
16.363
 20
33.741
 10
16.363
 20
34.231
 10
16.363
 20
34.721
 10
16.363
 20
35.21
 10
16.363
 20
35.702
 10
16.372
 20
36.007
 10
16.382
 20
36.315
 10
16.412
 20
36.603
 10
16.442
 20
36.891
 10
16.492
 20
37.161
 10
16.542
 20
37.43
 10
16.612
 20
37.68
 10
16.682
 20
37.931
 10
16.863
 20
38.394
 10
17.085
 20
38.818
 10
17.348
 20
39.203
 10
17.653
 20
39.547
 10
17.997
 20
39.852
 10
18.382
 20
40.115
 10
18.806
 20
40.337
 10
19.269
 20
40.518
 10
19.52
 20
40.588
 10
19.77
 20
40.658
 10
20.039
 20
40.708
 10
20.309
 20
40.758
 10
20.597
 20
40.788
 10
20.885
 20
40.818
 10
21.193
 20
40.828
 10
21.498
 20
40.838
 10
21.99
 20
40.838
 10
22.479
 20
40.838
 10
22.969
 20
40.838
 10
23.459
 20
40.838
 10
23.963
 20
40.838
 10
23.963
 20
41.479
 10
23.802
 20
41.366
 10
23.324
 20
41.26
 10
22.842
 20
41.347
 10
22.432
 20
41.615
 10
22.156
 20
42.02
 10
22.06
 20
42.5
 10
22.156
 20
42.98
 10
22.432
 20
43.385
 10
22.842
 20
43.653
 10
23.324
 20
43.74
 10
23.802
 20
43.634
 10
23.963
 20
43.521
 10
23.963
 20
46.879
 10
23.802
 20
46.766
 10
23.324
 20
46.66
 10
22.842
 20
46.747
 10
22.432
 20
47.015
 10
22.156
 20
47.42
 10
22.06
 20
47.9
 10
22.156
 20
48.38
 10
22.432
 20
48.785
 10
22.842
 20
49.053
 10
23.324
 20
49.14
 10
23.802
 20
49.034
 10
23.963
 20
48.921
 10
23.963
 20
49.563
 10
20.586
 20
49.563
 10
20.164
 20
49.647
 10
19.794
 20
49.894
 10
19.547
 20
50.264
 10
19.463
 20
50.686
 10
19.463
 20
52.214
 10
19.547
 20
52.636
 10
19.794
 20
53.006
 10
20.164
 20
53.253
 10
20.586
 20
53.338
 10
36.614
 20
53.338
 10
37.036
 20
53.253
 10
37.406
 20
53.006
 10
37.653
 20
52.636
 10
37.738
 20
52.214
 10
37.738
 20
50.686
 10
37.653
 20
50.264
 10
37.406
 20
49.894
 10
37.036
 20
49.647
 10
36.614
 20
49.563
 10
33.238
 20
49.563
 10
33.238
 20
48.921
 10
33.398
 20
49.034
 10
33.876
 20
49.14
 10
34.358
 20
49.053
 10
34.768
 20
48.785
 10
35.044
 20
48.38
 10
35.14
 20
47.9
 10
35.044
 20
47.42
 10
34.768
 20
47.015
 10
34.358
 20
46.747
 10
33.876
 20
46.66
 10
33.398
 20
46.766
 10
33.238
 20
46.879
 10
33.238
 20
43.521
 10
33.398
 20
43.634
 10
33.876
 20
43.74
 10
34.358
 20
43.653
 10
34.768
 20
43.385
 10
35.044
 20
42.98
 10
35.14
 20
42.5
 10
35.044
 20
42.02
 10
34.768
 20
41.615
 10
34.358
 20
41.347
 10
33.876
 20
41.26
 10
33.398
 20
41.366
 10
33.238
 20
41.479
 10
33.238
 20
40.838
 10
33.741
 20
40.838
 10
34.231
 20
40.838
 10
34.721
 20
40.838
 10
35.21
 20
40.838
 10
35.702
 20
40.838
 10
36.007
 20
40.828
 10
36.315
 20
40.818
 10
36.603
 20
40.788
 10
36.891
 20
40.758
 10
37.161
 20
40.708
 10
37.43
 20
40.658
 10
37.68
 20
40.588
 10
37.931
 20
40.518
 10
38.394
 20
40.337
 10
38.818
 20
40.115
 10
39.203
 20
39.852
 10
39.547
 20
39.547
 10
39.852
 20
39.203
 10
40.115
 20
38.818
 10
40.337
 20
38.394
 10
40.518
 20
37.931
 10
40.588
 20
37.68
 10
40.658
 20
37.43
 10
40.708
 20
37.161
 10
40.758
 20
36.891
 10
40.788
 20
36.603
 10
40.818
 20
36.315
 10
40.828
 20
36.007
 10
40.838
 20
35.702
 10
40.838
 20
35.21
 10
40.838
 20
34.721
 10
40.838
 20
34.231
 10
40.838
 20
33.741
 10
40.838
 20
33.238
 10
41.479
 20
33.238
 10
41.366
 20
33.398
 10
41.26
 20
33.876
 10
41.347
 20
34.358
 10
41.615
 20
34.768
 10
42.02
 20
35.044
 10
42.5
 20
35.14
 10
42.98
 20
35.044
 10
43.385
 20
34.768
 10
43.653
 20
34.358
 10
43.74
 20
33.876
 10
43.634
 20
33.398
 10
43.521
 20
33.238
 10
46.879
 20
33.238
 10
46.766
 20
33.398
 10
46.66
 20
33.876
 10
46.747
 20
34.358
 10
47.015
 20
34.768
 10
47.42
 20
35.044
 10
47.9
 20
35.14
 10
48.38
 20
35.044
 10
48.785
 20
34.768
 10
49.053
 20
34.358
 10
49.14
 20
33.876
 10
49.034
 20
33.398
 10
48.921
 20
33.238
 10
49.563
 20
33.238
 10
49.563
 20
36.614
 10
49.647
 20
37.036
 10
49.894
 20
37.406
 10
50.264
 20
37.653
 10
50.686
 20
37.738
 10
52.214
 20
37.738
 10
52.636
 20
37.653
 10
53.006
 20
37.406
  0
HATCH
  5
32
330
17
100
AcDbEntity
  8
RASTER
 62
7
100
AcDbHatch
 10
0.0
 20
0.0
 30
0.0
210
0.0
220
0.0
230
1.0
  2
SOLID
 70
1
 71
0
 91
2
 92
3
 72
0
 73
1
 93
92
 10
21.722
 20
30.012
 10
21.633
 20
30.338
 10
21.559
 20
30.687
 10
21.526
 20
31.337
 10
21.621
 20
31.956
 10
21.816
 20
32.514
 10
22.076
 20
33.008
 10
22.375
 20
33.443
 10
22.7
 20
33.828
 10
23.05
 20
34.173
 10
23.43
 20
34.483
 10
23.85
 20
34.755
 10
24.318
 20
34.976
 10
24.835
 20
35.13
 10
25.392
 20
35.2
 10
25.974
 20
35.182
 10
26.569
 20
35.096
 10
26.864
 20
35.034
 10
27.145
 20
34.987
 10
27.708
 20
34.927
 10
28.26
 20
34.956
 10
28.822
 20
35.077
 10
29.404
 20
35.266
 10
30.012
 20
35.478
 10
30.338
 20
35.567
 10
30.687
 20
35.641
 10
31.337
 20
35.674
 10
31.956
 20
35.579
 10
32.514
 20
35.384
 10
33.008
 20
35.124
 10
33.443
 20
34.825
 10
33.828
 20
34.5
 10
34.173
 20
34.15
 10
34.483
 20
33.77
 10
34.755
 20
33.35
 10
34.976
 20
32.882
 10
35.13
 20
32.365
 10
35.2
 20
31.808
 10
35.182
 20
31.226
 10
35.096
 20
30.631
 10
35.034
 20
30.336
 10
34.987
 20
30.055
 10
34.927
 20
29.492
 10
34.956
 20
28.94
 10
35.077
 20
28.378
 10
35.266
 20
27.796
 10
35.478
 20
27.188
 10
35.567
 20
26.862
 10
35.641
 20
26.513
 10
35.674
 20
25.863
 10
35.579
 20
25.244
 10
35.384
 20
24.686
 10
35.124
 20
24.192
 10
34.825
 20
23.757
 10
34.5
 20
23.372
 10
34.15
 20
23.027
 10
33.77
 20
22.717
 10
33.35
 20
22.445
 10
32.882
 20
22.224
 10
32.365
 20
22.07
 10
31.808
 20
22.0
 10
31.226
 20
22.018
 10
30.631
 20
22.104
 10
30.336
 20
22.166
 10
30.055
 20
22.213
 10
29.492
 20
22.273
 10
28.94
 20
22.244
 10
28.378
 20
22.123
 10
27.796
 20
21.934
 10
27.188
 20
21.722
 10
26.862
 20
21.633
 10
26.513
 20
21.559
 10
25.863
 20
21.526
 10
25.244
 20
21.621
 10
24.686
 20
21.816
 10
24.192
 20
22.076
 10
23.757
 20
22.375
 10
23.372
 20
22.7
 10
23.027
 20
23.05
 10
22.717
 20
23.43
 10
22.445
 20
23.85
 10
22.224
 20
24.318
 10
22.07
 20
24.835
 10
22.0
 20
25.392
 10
22.018
 20
25.974
 10
22.104
 20
26.569
 10
22.166
 20
26.864
 10
22.213
 20
27.145
 10
22.273
 20
27.708
 10
22.244
 20
28.26
 10
22.123
 20
28.822
 10
21.934
 20
29.404
 97
0
 92
3
 72
0
 73
1
 93
93
 10
22.296
 20
30.19
 10
22.503
 20
29.596
 10
22.703
 20
28.978
 10
22.84
 20
28.34
 10
22.875
 20
27.692
 10
22.808
 20
27.064
 10
22.755
 20
26.753
 10
22.695
 20
26.464
 10
22.616
 20
25.922
 10
22.601
 20
25.421
 10
22.659
 20
24.959
 10
22.786
 20
24.533
 10
22.971
 20
24.142
 10
23.203
 20
23.783
 10
23.474
 20
23.451
 10
23.78
 20
23.141
 10
24.122
 20
22.852
 10
24.503
 20
22.59
 10
24.925
 20
22.367
 10
25.39
 20
22.206
 10
25.893
 20
22.128
 10
26.435
 20
22.155
 10
26.72
 20
22.216
 10
27.01
 20
22.296
 10
27.604
 20
22.503
 10
28.222
 20
22.703
 10
28.86
 20
22.84
 10
29.508
 20
22.875
 10
30.136
 20
22.808
 10
30.447
 20
22.755
 10
30.736
 20
22.695
 10
31.278
 20
22.616
 10
31.779
 20
22.601
 10
32.241
 20
22.659
 10
32.667
 20
22.786
 10
33.058
 20
22.971
 10
33.417
 20
23.203
 10
33.749
 20
23.474
 10
34.059
 20
23.78
 10
34.348
 20
24.122
 10
34.61
 20
24.503
 10
34.833
 20
24.925
 10
34.994
 20
25.39
 10
35.072
 20
25.893
 10
35.045
 20
26.435
 10
34.984
 20
26.72
 10
34.904
 20
27.01
 10
34.697
 20
27.604
 10
34.497
 20
28.222
 10
34.36
 20
28.86
 10
34.325
 20
29.508
 10
34.392
 20
30.136
 10
34.445
 20
30.447
 10
34.505
 20
30.736
 10
34.584
 20
31.278
 10
34.599
 20
31.779
 10
34.541
 20
32.241
 10
34.414
 20
32.667
 10
34.229
 20
33.058
 10
33.997
 20
33.417
 10
33.726
 20
33.749
 10
33.42
 20
34.059
 10
33.078
 20
34.348
 10
32.697
 20
34.61
 10
32.275
 20
34.833
 10
31.81
 20
34.994
 10
31.307
 20
35.072
 10
30.765
 20
35.045
 10
30.48
 20
34.984
 10
30.19
 20
34.904
 10
29.596
 20
34.697
 10
28.978
 20
34.497
 10
28.34
 20
34.36
 10
27.692
 20
34.325
 10
27.064
 20
34.392
 10
26.753
 20
34.445
 10
26.464
 20
34.505
 10
25.922
 20
34.584
 10
25.421
 20
34.599
 10
24.959
 20
34.541
 10
24.533
 20
34.414
 10
24.142
 20
34.229
 10
23.783
 20
33.997
 10
23.451
 20
33.726
 10
23.141
 20
33.42
 10
22.852
 20
33.078
 10
22.59
 20
32.697
 10
22.367
 20
32.275
 10
22.206
 20
31.81
 10
22.128
 20
31.307
 10
22.155
 20
30.765
 10
22.216
 20
30.48
 10
22.296
 20
30.19
 97
0
 75
0
 76
1
 98
0
  0
HATCH
  5
33
330
17
100
AcDbEntity
  8
RASTER
 62
7
100
AcDbHatch
 10
0.0
 20
0.0
 30
0.0
210
0.0
220
0.0
230
1.0
  2
SOLID
 70
1
 71
0
 91
1
 92
3
 72
0
 73
1
 93
26
 10
19.887
 20
34.191
 10
19.924
 20
34.692
 10
19.972
 20
35.155
 10
20.056
 20
35.578
 10
20.187
 20
35.962
 10
20.372
 20
36.307
 10
20.609
 20
36.615
 10
20.895
 20
36.89
 10
21.227
 20
37.139
 10
21.603
 20
37.368
 10
22.021
 20
37.588
 10
22.483
 20
37.799
 10
23.0
 20
38.001
 10
22.782
 20
38.56
 10
22.249
 20
38.352
 10
21.757
 20
38.126
 10
21.307
 20
37.891
 10
20.891
 20
37.636
 10
20.506
 20
37.348
 10
20.161
 20
37.015
 10
19.868
 20
36.632
 10
19.637
 20
36.201
 10
19.476
 20
35.734
 10
19.379
 20
35.244
 10
19.327
 20
34.745
 10
19.288
 20
34.236
 97
0
 75
0
 76
1
 98
0
  0
HATCH
  5
34
330
17
100
AcDbEntity
  8
RASTER
 62
7
100
AcDbHatch
 10
0.0
 20
0.0
 30
0.0
210
0.0
220
0.0
230
1.0
  2
SOLID
 70
1
 71
0
 91
1
 92
3
 72
0
 73
1
 93
26
 10
34.307
 20
37.969
 10
34.857
 20
37.969
 10
35.351
 20
37.898
 10
35.794
 20
37.746
 10
36.177
 20
37.513
 10
36.491
 20
37.21
 10
36.733
 20
36.851
 10
36.905
 20
36.454
 10
37.017
 20
36.031
 10
37.091
 20
35.59
 10
37.152
 20
35.133
 10
37.224
 20
34.655
 10
37.322
 20
34.156
 10
37.91
 20
34.271
 10
37.815
 20
34.757
 10
37.746
 20
35.217
 10
37.685
 20
35.68
 10
37.604
 20
36.159
 10
37.471
 20
36.652
 10
37.259
 20
37.14
 10
36.95
 20
37.597
 10
36.542
 20
37.989
 10
36.048
 20
38.289
 10
35.492
 20
38.481
 10
34.9
 20
38.567
 10
34.308
 20
38.569
 97
0
 75
0
 76
1
 98
0
  0
HATCH
  5
35
330
17
100
AcDbEntity
  8
RASTER
 62
7
100
AcDbHatch
 10
0.0
 20
0.0
 30
0.0
210
0.0
220
0.0
230
1.0
  2
SOLID
 70
1
 71
0
 91
1
 92
3
 72
0
 73
1
 93
26
 10
37.313
 20
23.009
 10
37.276
 20
22.508
 10
37.228
 20
22.045
 10
37.144
 20
21.622
 10
37.013
 20
21.238
 10
36.828
 20
20.893
 10
36.591
 20
20.585
 10
36.305
 20
20.31
 10
35.973
 20
20.061
 10
35.597
 20
19.832
 10
35.179
 20
19.612
 10
34.717
 20
19.401
 10
34.2
 20
19.199
 10
34.418
 20
18.64
 10
34.951
 20
18.848
 10
35.443
 20
19.074
 10
35.893
 20
19.309
 10
36.309
 20
19.564
 10
36.694
 20
19.852
 10
37.039
 20
20.185
 10
37.332
 20
20.568
 10
37.563
 20
20.999
 10
37.724
 20
21.466
 10
37.821
 20
21.956
 10
37.873
 20
22.455
 10
37.912
 20
22.964
 97
0
 75
0
 76
1
 98
0
  0
HATCH
  5
36
330
17
100
AcDbEntity
  8
RASTER
 62
7
100
AcDbHatch
 10
0.0
 20
0.0
 30
0.0
210
0.0
220
0.0
230
1.0
  2
SOLID
 70
1
 71
0
 91
1
 92
3
 72
0
 73
1
 93
26
 10
22.893
 20
19.231
 10
22.343
 20
19.231
 10
21.849
 20
19.302
 10
21.406
 20
19.454
 10
21.023
 20
19.687
 10
20.709
 20
19.99
 10
20.467
 20
20.349
 10
20.295
 20
20.746
 10
20.183
 20
21.169
 10
20.109
 20
21.61
 10
20.048
 20
22.067
 10
19.976
 20
22.545
 10
19.878
 20
23.044
 10
19.29
 20
22.929
 10
19.385
 20
22.443
 10
19.454
 20
21.983
 10
19.515
 20
21.52
 10
19.596
 20
21.041
 10
19.729
 20
20.548
 10
19.941
 20
20.06
 10
20.25
 20
19.603
 10
20.658
 20
19.211
 10
21.152
 20
18.911
 10
21.708
 20
18.719
 10
22.3
 20
18.633
 10
22.892
 20
18.631
 97
0
 75
0
 76
1
 98
0
  0
HATCH
  5
37
330
17
100
AcDbEntity
  8
RASTER
 62
7
100
AcDbHatch
 10
0.0
 20
0.0
 30
0.0
210
0.0
220
0.0
230
1.0
  2
SOLID
 70
1
 71
0
 91
2
 92
3
 72
0
 73
1
 93
48
 10
29.545
 20
32.38
 10
29.537
 20
32.257
 10
29.513
 20
32.135
 10
29.473
 20
32.018
 10
29.418
 20
31.908
 10
29.35
 20
31.805
 10
29.268
 20
31.712
 10
29.175
 20
31.63
 10
29.073
 20
31.562
 10
28.962
 20
31.507
 10
28.845
 20
31.467
 10
28.723
 20
31.443
 10
28.6
 20
31.435
 10
28.477
 20
31.443
 10
28.355
 20
31.467
 10
28.238
 20
31.507
 10
28.128
 20
31.562
 10
28.025
 20
31.63
 10
27.932
 20
31.712
 10
27.85
 20
31.805
 10
27.782
 20
31.908
 10
27.727
 20
32.018
 10
27.687
 20
32.135
 10
27.663
 20
32.257
 10
27.655
 20
32.38
 10
27.663
 20
32.503
 10
27.687
 20
32.625
 10
27.727
 20
32.742
 10
27.782
 20
32.853
 10
27.85
 20
32.955
 10
27.932
 20
33.048
 10
28.025
 20
33.13
 10
28.128
 20
33.198
 10
28.238
 20
33.253
 10
28.355
 20
33.293
 10
28.477
 20
33.317
 10
28.6
 20
33.325
 10
28.723
 20
33.317
 10
28.845
 20
33.293
 10
28.962
 20
33.253
 10
29.073
 20
33.198
 10
29.175
 20
33.13
 10
29.268
 20
33.048
 10
29.35
 20
32.955
 10
29.418
 20
32.853
 10
29.473
 20
32.742
 10
29.513
 20
32.625
 10
29.537
 20
32.503
 97
0
 92
3
 72
0
 73
1
 93
48
 10
29.125
 20
32.38
 10
29.121
 20
32.311
 10
29.107
 20
32.244
 10
29.085
 20
32.179
 10
29.055
 20
32.118
 10
29.017
 20
32.06
 10
28.971
 20
32.009
 10
28.92
 20
31.963
 10
28.863
 20
31.925
 10
28.801
 20
31.895
 10
28.736
 20
31.873
 10
28.669
 20
31.859
 10
28.6
 20
31.855
 10
28.531
 20
31.859
 10
28.464
 20
31.873
 10
28.399
 20
31.895
 10
28.338
 20
31.925
 10
28.28
 20
31.963
 10
28.229
 20
32.009
 10
28.183
 20
32.06
 10
28.145
 20
32.118
 10
28.115
 20
32.179
 10
28.093
 20
32.244
 10
28.079
 20
32.311
 10
28.075
 20
32.38
 10
28.079
 20
32.449
 10
28.093
 20
32.516
 10
28.115
 20
32.581
 10
28.145
 20
32.643
 10
28.183
 20
32.7
 10
28.229
 20
32.751
 10
28.28
 20
32.797
 10
28.338
 20
32.835
 10
28.399
 20
32.865
 10
28.464
 20
32.887
 10
28.531
 20
32.901
 10
28.6
 20
32.905
 10
28.669
 20
32.901
 10
28.736
 20
32.887
 10
28.801
 20
32.865
 10
28.863
 20
32.835
 10
28.92
 20
32.797
 10
28.971
 20
32.751
 10
29.017
 20
32.7
 10
29.055
 20
32.643
 10
29.085
 20
32.581
 10
29.107
 20
32.516
 10
29.121
 20
32.449
 97
0
 75
0
 76
1
 98
0
  0
HATCH
  5
38
330
17
100
AcDbEntity
  8
RASTER
 62
7
100
AcDbHatch
 10
0.0
 20
0.0
 30
0.0
210
0.0
220
0.0
230
1.0
  2
SOLID
 70
1
 71
0
 91
1
 92
3
 72
0
 73
1
 93
45
 10
28.18
 20
31.12
 10
29.02
 20
31.12
 10
29.02
 20
30.07
 10
30.91
 20
30.07
 10
30.91
 20
29.44
 10
29.02
 20
29.44
 10
29.02
 20
26.5
 10
29.265
 20
26.45
 10
29.522
 20
26.457
 10
29.784
 20
26.518
 10
30.044
 20
26.631
 10
30.294
 20
26.793
 10
30.526
 20
27.002
 10
30.734
 20
27.255
 10
30.91
 20
27.55
 10
31.96
 20
26.71
 10
31.755
 20
26.101
 10
31.465
 20
25.542
 10
31.1
 20
25.041
 10
30.674
 20
24.61
 10
30.198
 20
24.257
 10
29.686
 20
23.993
 10
29.149
 20
23.827
 10
28.6
 20
23.77
 10
28.051
 20
23.827
 10
27.514
 20
23.993
 10
27.002
 20
24.257
 10
26.526
 20
24.61
 10
26.1
 20
25.041
 10
25.735
 20
25.542
 10
25.445
 20
26.101
 10
25.24
 20
26.71
 10
26.29
 20
27.55
 10
26.466
 20
27.255
 10
26.674
 20
27.002
 10
26.906
 20
26.793
 10
27.156
 20
26.631
 10
27.416
 20
26.518
 10
27.678
 20
26.457
 10
27.935
 20
26.45
 10
28.18
 20
26.5
 10
28.18
 20
29.44
 10
26.29
 20
29.44
 10
26.29
 20
30.07
 10
28.18
 20
30.07
 97
0
 75
0
 76
1
 98
0
  0
HATCH
  5
39
330
17
100
AcDbEntity
  8
RASTER
 62
7
100
AcDbHatch
 10
0.0
 20
0.0
 30
0.0
210
0.0
220
0.0
230
1.0
  2
SOLID
 70
1
 71
0
 91
6
 92
3
 72
0
 73
1
 93
4
 10
24.1
 20
37.5
 10
33.1
 20
37.5
 10
33.1
 20
49.4
 10
24.1
 20
49.4
 97
0
 92
3
 72
0
 73
1
 93
5
 10
24.6
 20
39.2
 10
24.6
 20
39.6
 10
32.6
 20
39.6
 10
32.6
 20
39.2
 10
24.6
 20
39.2
 97
0
 92
3
 72
0
 73
1
 93
5
 10
24.6
 20
41.1
 10
24.6
 20
41.5
 10
32.6
 20
41.5
 10
32.6
 20
41.1
 10
24.6
 20
41.1
 97
0
 92
3
 72
0
 73
1
 93
5
 10
24.6
 20
43.0
 10
24.6
 20
43.4
 10
32.6
 20
43.4
 10
32.6
 20
43.0
 10
24.6
 20
43.0
 97
0
 92
3
 72
0
 73
1
 93
5
 10
24.6
 20
44.9
 10
24.6
 20
45.3
 10
32.6
 20
45.3
 10
32.6
 20
44.9
 10
24.6
 20
44.9
 97
0
 92
3
 72
0
 73
1
 93
5
 10
24.6
 20
46.8
 10
24.6
 20
47.2
 10
32.6
 20
47.2
 10
32.6
 20
46.8
 10
24.6
 20
46.8
 97
0
 75
0
 76
1
 98
0
  0
HATCH
  5
3A
330
17
100
AcDbEntity
  8
RASTER
 62
7
100
AcDbHatch
 10
0.0
 20
0.0
 30
0.0
210
0.0
220
0.0
230
1.0
  2
SOLID
 70
1
 71
0
 91
8
 92
3
 72
0
 73
1
 93
4
 10
20.2
 20
50.0
 10
37.0
 20
50.0
 10
37.0
 20
52.6
 10
20.2
 20
52.6
 97
0
 92
3
 72
0
 73
1
 93
5
 10
22.7
 20
50.0
 10
22.7
 20
52.6
 10
23.1
 20
52.6
 10
23.1
 20
50.0
 10
22.7
 20
50.0
 97
0
 92
3
 72
0
 73
1
 93
5
 10
24.6
 20
50.0
 10
24.6
 20
52.6
 10
25.0
 20
52.6
 10
25.0
 20
50.0
 10
24.6
 20
50.0
 97
0
 92
3
 72
0
 73
1
 93
5
 10
26.5
 20
50.0
 10
26.5
 20
52.6
 10
26.9
 20
52.6
 10
26.9
 20
50.0
 10
26.5
 20
50.0
 97
0
 92
3
 72
0
 73
1
 93
5
 10
28.4
 20
50.0
 10
28.4
 20
52.6
 10
28.8
 20
52.6
 10
28.8
 20
50.0
 10
28.4
 20
50.0
 97
0
 92
3
 72
0
 73
1
 93
5
 10
30.3
 20
50.0
 10
30.3
 20
52.6
 10
30.7
 20
52.6
 10
30.7
 20
50.0
 10
30.3
 20
50.0
 97
0
 92
3
 72
0
 73
1
 93
5
 10
32.2
 20
50.0
 10
32.2
 20
52.6
 10
32.6
 20
52.6
 10
32.6
 20
50.0
 10
32.2
 20
50.0
 97
0
 92
3
 72
0
 73
1
 93
5
 10
34.1
 20
50.0
 10
34.1
 20
52.6
 10
34.5
 20
52.6
 10
34.5
 20
50.0
 10
34.1
 20
50.0
 97
0
 75
0
 76
1
 98
0
  0
HATCH
  5
3B
330
17
100
AcDbEntity
  8
RASTER
 62
7
100
AcDbHatch
 10
0.0
 20
0.0
 30
0.0
210
0.0
220
0.0
230
1.0
  2
SOLID
 70
1
 71
0
 91
6
 92
3
 72
0
 73
1
 93
4
 10
37.5
 20
33.1
 10
37.5
 20
24.1
 10
49.4
 20
24.1
 10
49.4
 20
33.1
 97
0
 92
3
 72
0
 73
1
 93
5
 10
39.2
 20
32.6
 10
39.6
 20
32.6
 10
39.6
 20
24.6
 10
39.2
 20
24.6
 10
39.2
 20
32.6
 97
0
 92
3
 72
0
 73
1
 93
5
 10
41.1
 20
32.6
 10
41.5
 20
32.6
 10
41.5
 20
24.6
 10
41.1
 20
24.6
 10
41.1
 20
32.6
 97
0
 92
3
 72
0
 73
1
 93
5
 10
43.0
 20
32.6
 10
43.4
 20
32.6
 10
43.4
 20
24.6
 10
43.0
 20
24.6
 10
43.0
 20
32.6
 97
0
 92
3
 72
0
 73
1
 93
5
 10
44.9
 20
32.6
 10
45.3
 20
32.6
 10
45.3
 20
24.6
 10
44.9
 20
24.6
 10
44.9
 20
32.6
 97
0
 92
3
 72
0
 73
1
 93
5
 10
46.8
 20
32.6
 10
47.2
 20
32.6
 10
47.2
 20
24.6
 10
46.8
 20
24.6
 10
46.8
 20
32.6
 97
0
 75
0
 76
1
 98
0
  0
HATCH
  5
3C
330
17
100
AcDbEntity
  8
RASTER
 62
7
100
AcDbHatch
 10
0.0
 20
0.0
 30
0.0
210
0.0
220
0.0
230
1.0
  2
SOLID
 70
1
 71
0
 91
8
 92
3
 72
0
 73
1
 93
4
 10
50.0
 20
37.0
 10
50.0
 20
20.2
 10
52.6
 20
20.2
 10
52.6
 20
37.0
 97
0
 92
3
 72
0
 73
1
 93
5
 10
50.0
 20
34.5
 10
52.6
 20
34.5
 10
52.6
 20
34.1
 10
50.0
 20
34.1
 10
50.0
 20
34.5
 97
0
 92
3
 72
0
 73
1
 93
5
 10
50.0
 20
32.6
 10
52.6
 20
32.6
 10
52.6
 20
32.2
 10
50.0
 20
32.2
 10
50.0
 20
32.6
 97
0
 92
3
 72
0
 73
1
 93
5
 10
50.0
 20
30.7
 10
52.6
 20
30.7
 10
52.6
 20
30.3
 10
50.0
 20
30.3
 10
50.0
 20
30.7
 97
0
 92
3
 72
0
 73
1
 93
5
 10
50.0
 20
28.8
 10
52.6
 20
28.8
 10
52.6
 20
28.4
 10
50.0
 20
28.4
 10
50.0
 20
28.8
 97
0
 92
3
 72
0
 73
1
 93
5
 10
50.0
 20
26.9
 10
52.6
 20
26.9
 10
52.6
 20
26.5
 10
50.0
 20
26.5
 10
50.0
 20
26.9
 97
0
 92
3
 72
0
 73
1
 93
5
 10
50.0
 20
25.0
 10
52.6
 20
25.0
 10
52.6
 20
24.6
 10
50.0
 20
24.6
 10
50.0
 20
25.0
 97
0
 92
3
 72
0
 73
1
 93
5
 10
50.0
 20
23.1
 10
52.6
 20
23.1
 10
52.6
 20
22.7
 10
50.0
 20
22.7
 10
50.0
 20
23.1
 97
0
 75
0
 76
1
 98
0
  0
HATCH
  5
3D
330
17
100
AcDbEntity
  8
RASTER
 62
7
100
AcDbHatch
 10
0.0
 20
0.0
 30
0.0
210
0.0
220
0.0
230
1.0
  2
SOLID
 70
1
 71
0
 91
6
 92
3
 72
0
 73
1
 93
4
 10
33.1
 20
19.7
 10
24.1
 20
19.7
 10
24.1
 20
7.8
 10
33.1
 20
7.8
 97
0
 92
3
 72
0
 73
1
 93
5
 10
32.6
 20
18.0
 10
32.6
 20
17.6
 10
24.6
 20
17.6
 10
24.6
 20
18.0
 10
32.6
 20
18.0
 97
0
 92
3
 72
0
 73
1
 93
5
 10
32.6
 20
16.1
 10
32.6
 20
15.7
 10
24.6
 20
15.7
 10
24.6
 20
16.1
 10
32.6
 20
16.1
 97
0
 92
3
 72
0
 73
1
 93
5
 10
32.6
 20
14.2
 10
32.6
 20
13.8
 10
24.6
 20
13.8
 10
24.6
 20
14.2
 10
32.6
 20
14.2
 97
0
 92
3
 72
0
 73
1
 93
5
 10
32.6
 20
12.3
 10
32.6
 20
11.9
 10
24.6
 20
11.9
 10
24.6
 20
12.3
 10
32.6
 20
12.3
 97
0
 92
3
 72
0
 73
1
 93
5
 10
32.6
 20
10.4
 10
32.6
 20
10.0
 10
24.6
 20
10.0
 10
24.6
 20
10.4
 10
32.6
 20
10.4
 97
0
 75
0
 76
1
 98
0
  0
HATCH
  5
3E
330
17
100
AcDbEntity
  8
RASTER
 62
7
100
AcDbHatch
 10
0.0
 20
0.0
 30
0.0
210
0.0
220
0.0
230
1.0
  2
SOLID
 70
1
 71
0
 91
8
 92
3
 72
0
 73
1
 93
4
 10
37.0
 20
7.2
 10
20.2
 20
7.2
 10
20.2
 20
4.6
 10
37.0
 20
4.6
 97
0
 92
3
 72
0
 73
1
 93
5
 10
34.5
 20
7.2
 10
34.5
 20
4.6
 10
34.1
 20
4.6
 10
34.1
 20
7.2
 10
34.5
 20
7.2
 97
0
 92
3
 72
0
 73
1
 93
5
 10
32.6
 20
7.2
 10
32.6
 20
4.6
 10
32.2
 20
4.6
 10
32.2
 20
7.2
 10
32.6
 20
7.2
 97
0
 92
3
 72
0
 73
1
 93
5
 10
30.7
 20
7.2
 10
30.7
 20
4.6
 10
30.3
 20
4.6
 10
30.3
 20
7.2
 10
30.7
 20
7.2
 97
0
 92
3
 72
0
 73
1
 93
5
 10
28.8
 20
7.2
 10
28.8
 20
4.6
 10
28.4
 20
4.6
 10
28.4
 20
7.2
 10
28.8
 20
7.2
 97
0
 92
3
 72
0
 73
1
 93
5
 10
26.9
 20
7.2
 10
26.9
 20
4.6
 10
26.5
 20
4.6
 10
26.5
 20
7.2
 10
26.9
 20
7.2
 97
0
 92
3
 72
0
 73
1
 93
5
 10
25.0
 20
7.2
 10
25.0
 20
4.6
 10
24.6
 20
4.6
 10
24.6
 20
7.2
 10
25.0
 20
7.2
 97
0
 92
3
 72
0
 73
1
 93
5
 10
23.1
 20
7.2
 10
23.1
 20
4.6
 10
22.7
 20
4.6
 10
22.7
 20
7.2
 10
23.1
 20
7.2
 97
0
 75
0
 76
1
 98
0
  0
HATCH
  5
3F
330
17
100
AcDbEntity
  8
RASTER
 62
7
100
AcDbHatch
 10
0.0
 20
0.0
 30
0.0
210
0.0
220
0.0
230
1.0
  2
SOLID
 70
1
 71
0
 91
6
 92
3
 72
0
 73
1
 93
4
 10
19.7
 20
24.1
 10
19.7
 20
33.1
 10
7.8
 20
33.1
 10
7.8
 20
24.1
 97
0
 92
3
 72
0
 73
1
 93
5
 10
18.0
 20
24.6
 10
17.6
 20
24.6
 10
17.6
 20
32.6
 10
18.0
 20
32.6
 10
18.0
 20
24.6
 97
0
 92
3
 72
0
 73
1
 93
5
 10
16.1
 20
24.6
 10
15.7
 20
24.6
 10
15.7
 20
32.6
 10
16.1
 20
32.6
 10
16.1
 20
24.6
 97
0
 92
3
 72
0
 73
1
 93
5
 10
14.2
 20
24.6
 10
13.8
 20
24.6
 10
13.8
 20
32.6
 10
14.2
 20
32.6
 10
14.2
 20
24.6
 97
0
 92
3
 72
0
 73
1
 93
5
 10
12.3
 20
24.6
 10
11.9
 20
24.6
 10
11.9
 20
32.6
 10
12.3
 20
32.6
 10
12.3
 20
24.6
 97
0
 92
3
 72
0
 73
1
 93
5
 10
10.4
 20
24.6
 10
10.0
 20
24.6
 10
10.0
 20
32.6
 10
10.4
 20
32.6
 10
10.4
 20
24.6
 97
0
 75
0
 76
1
 98
0
  0
HATCH
  5
40
330
17
100
AcDbEntity
  8
RASTER
 62
7
100
AcDbHatch
 10
0.0
 20
0.0
 30
0.0
210
0.0
220
0.0
230
1.0
  2
SOLID
 70
1
 71
0
 91
8
 92
3
 72
0
 73
1
 93
4
 10
7.2
 20
20.2
 10
7.2
 20
37.0
 10
4.6
 20
37.0
 10
4.6
 20
20.2
 97
0
 92
3
 72
0
 73
1
 93
5
 10
7.2
 20
22.7
 10
4.6
 20
22.7
 10
4.6
 20
23.1
 10
7.2
 20
23.1
 10
7.2
 20
22.7
 97
0
 92
3
 72
0
 73
1
 93
5
 10
7.2
 20
24.6
 10
4.6
 20
24.6
 10
4.6
 20
25.0
 10
7.2
 20
25.0
 10
7.2
 20
24.6
 97
0
 92
3
 72
0
 73
1
 93
5
 10
7.2
 20
26.5
 10
4.6
 20
26.5
 10
4.6
 20
26.9
 10
7.2
 20
26.9
 10
7.2
 20
26.5
 97
0
 92
3
 72
0
 73
1
 93
5
 10
7.2
 20
28.4
 10
4.6
 20
28.4
 10
4.6
 20
28.8
 10
7.2
 20
28.8
 10
7.2
 20
28.4
 97
0
 92
3
 72
0
 73
1
 93
5
 10
7.2
 20
30.3
 10
4.6
 20
30.3
 10
4.6
 20
30.7
 10
7.2
 20
30.7
 10
7.2
 20
30.3
 97
0
 92
3
 72
0
 73
1
 93
5
 10
7.2
 20
32.2
 10
4.6
 20
32.2
 10
4.6
 20
32.6
 10
7.2
 20
32.6
 10
7.2
 20
32.2
 97
0
 92
3
 72
0
 73
1
 93
5
 10
7.2
 20
34.1
 10
4.6
 20
34.1
 10
4.6
 20
34.5
 10
7.2
 20
34.5
 10
7.2
 20
34.1
 97
0
 75
0
 76
1
 98
0
  0
ENDSEC
  0
SECTION
  2
OBJECTS
  0
DICTIONARY
  5
A
330
0
100
AcDbDictionary
281
1
  3
ACAD_COLOR
350
B
  3
ACAD_GROUP
350
C
  3
ACAD_LAYOUT
350
D
  3
ACAD_MATERIAL
350
E
  3
ACAD_MLEADERSTYLE
350
F
  3
ACAD_MLINESTYLE
350
10
  3
ACAD_PLOTSETTINGS
350
11
  3
ACAD_PLOTSTYLENAME
350
12
  3
ACAD_SCALELIST
350
14
  3
ACAD_TABLESTYLE
350
15
  3
ACAD_VISUALSTYLE
350
16
  3
EZDXF_META
350
2D
  0
DICTIONARY
  5
B
330
A
100
AcDbDictionary
281
1
  0
DICTIONARY
  5
C
330
A
100
AcDbDictionary
281
1
  0
DICTIONARY
  5
D
330
A
100
AcDbDictionary
281
1
  3
Model
350
1A
  3
Layout1
350
1E
  0
DICTIONARY
  5
E
330
A
100
AcDbDictionary
281
1
  3
ByBlock
350
1F
  3
ByLayer
350
20
  3
Global
350
21
  0
DICTIONARY
  5
F
330
A
100
AcDbDictionary
281
1
  3
Standard
350
2C
  0
DICTIONARY
  5
10
330
A
100
AcDbDictionary
281
1
  3
Standard
350
22
  0
DICTIONARY
  5
11
330
A
100
AcDbDictionary
281
1
  0
ACDBDICTIONARYWDFLT
  5
12
330
A
100
AcDbDictionary
281
1
  3
Normal
350
13
100
AcDbDictionaryWithDefault
340
13
  0
ACDBPLACEHOLDER
  5
13
330
12
  0
DICTIONARY
  5
14
330
A
100
AcDbDictionary
281
1
  0
DICTIONARY
  5
15
330
A
100
AcDbDictionary
281
1
  0
DICTIONARY
  5
16
330
A
100
AcDbDictionary
281
1
  0
LAYOUT
  5
1A
330
D
100
AcDbPlotSettings
  1

  4
A3
  6

 40
7.5
 41
20.0
 42
7.5
 43
20.0
 44
420.0
 45
297.0
 46
0.0
 47
0.0
 48
0.0
 49
0.0
140
0.0
141
0.0
142
1.0
143
1.0
 70
1024
 72
1
 73
0
 74
5
  7

 75
16
 76
0
 77
2
 78
300
147
1.0
148
0.0
149
0.0
100
AcDbLayout
  1
Model
 70
1
 71
0
 10
0.0
 20
0.0
 11
420.0
 21
297.0
 12
0.0
 22
0.0
 32
0.0
 14
1e+20
 24
1e+20
 34
1e+20
 15
-1e+20
 25
-1e+20
 35
-1e+20
146
0.0
 13
0.0
 23
0.0
 33
0.0
 16
1.0
 26
0.0
 36
0.0
 17
0.0
 27
1.0
 37
0.0
 76
1
330
17
  0
LAYOUT
  5
1E
330
D
100
AcDbPlotSettings
  1

  4
A3
  6

 40
7.5
 41
20.0
 42
7.5
 43
20.0
 44
420.0
 45
297.0
 46
0.0
 47
0.0
 48
0.0
 49
0.0
140
0.0
141
0.0
142
1.0
143
1.0
 70
0
 72
1
 73
0
 74
5
  7

 75
16
 76
0
 77
2
 78
300
147
1.0
148
0.0
149
0.0
100
AcDbLayout
  1
Layout1
 70
1
 71
1
 10
0.0
 20
0.0
 11
420.0
 21
297.0
 12
0.0
 22
0.0
 32
0.0
 14
1e+20
 24
1e+20
 34
1e+20
 15
-1e+20
 25
-1e+20
 35
-1e+20
146
0.0
 13
0.0
 23
0.0
 33
0.0
 16
1.0
 26
0.0
 36
0.0
 17
0.0
 27
1.0
 37
0.0
 76
1
330
1B
  0
MATERIAL
  5
1F
102
{ACAD_REACTORS
330
E
102
}
330
E
100
AcDbMaterial
  1
ByBlock
  2

 70
0
 40
1.0
 71
1
 41
1.0
 91
-1023410177
 42
1.0
 72
1
  3

 73
1
 74
1
 75
1
 44
0.5
 73
0
 45
1.0
 46
1.0
 77
1
  4

 78
1
 79
1
170
1
 48
1.0
171
1
  6

172
1
173
1
174
1
140
1.0
141
1.0
175
1
  7

176
1
177
1
178
1
143
1.0
179
1
  8

270
1
271
1
272
1
145
1.0
146
1.0
273
1
  9

274
1
275
1
276
1
 42
1.0
 72
1
  3

 73
1
 74
1
 75
1
 94
63
  0
MATERIAL
  5
20
102
{ACAD_REACTORS
330
E
102
}
330
E
100
AcDbMaterial
  1
ByLayer
  2

 70
0
 40
1.0
 71
1
 41
1.0
 91
-1023410177
 42
1.0
 72
1
  3

 73
1
 74
1
 75
1
 44
0.5
 73
0
 45
1.0
 46
1.0
 77
1
  4

 78
1
 79
1
170
1
 48
1.0
171
1
  6

172
1
173
1
174
1
140
1.0
141
1.0
175
1
  7

176
1
177
1
178
1
143
1.0
179
1
  8

270
1
271
1
272
1
145
1.0
146
1.0
273
1
  9

274
1
275
1
276
1
 42
1.0
 72
1
  3

 73
1
 74
1
 75
1
 94
63
  0
MATERIAL
  5
21
102
{ACAD_REACTORS
330
E
102
}
330
E
100
AcDbMaterial
  1
Global
  2

 70
0
 40
1.0
 71
1
 41
1.0
 91
-1023410177
 42
1.0
 72
1
  3

 73
1
 74
1
 75
1
 44
0.5
 73
0
 45
1.0
 46
1.0
 77
1
  4

 78
1
 79
1
170
1
 48
1.0
171
1
  6

172
1
173
1
174
1
140
1.0
141
1.0
175
1
  7

176
1
177
1
178
1
143
1.0
179
1
  8

270
1
271
1
272
1
145
1.0
146
1.0
273
1
  9

274
1
275
1
276
1
 42
1.0
 72
1
  3

 73
1
 74
1
 75
1
 94
63
  0
MLINESTYLE
  5
22
102
{ACAD_REACTORS
330
10
102
}
330
10
100
AcDbMlineStyle
  2
Standard
 70
0
  3

 62
256
 51
90.0
 52
90.0
 71
2
 49
0.5
 62
256
  6
BYLAYER
 49
-0.5
 62
256
  6
BYLAYER
  0
MLEADERSTYLE
  5
2C
102
{ACAD_REACTORS
330
F
102
}
330
F
100
AcDbMLeaderStyle
179
2
170
2
171
1
172
0
 90
2
 40
0.0
 41
0.0
173
1
 91
-1056964608
 92
-2
290
1
 42
2.0
291
1
 43
8.0
  3
Standard
 44
4.0
300

342
29
174
1
175
1
176
0
178
1
 93
-1056964608
 45
4.0
292
0
297
0
 46
4.0
 94
-1056964608
 47
1.0
 49
1.0
140
1.0
294
1
141
0.0
177
0
142
1.0
295
0
296
0
143
3.75
271
0
272
9
273
9
  0
DICTIONARY
  5
2D
330
A
100
AcDbDictionary
280
1
281
1
  3
CREATED_BY_EZDXF
350
2E
  3
WRITTEN_BY_EZDXF
350
43
  0
DICTIONARYVAR
  5
2E
330
2D
100
DictionaryVariables
280
0
  1
1.4.2 @ 2026-08-25T23:57:12.884709+00:00
  0
DICTIONARYVAR
  5
43
330
2D
100
DictionaryVariables
280
0
  1
1.4.2 @ 2026-08-25T23:57:12.886724+00:00
  0
ENDSEC
  0
EOF
