  0
SECTION
  2
HEADER
  9
$ACADVER
  1
AC1015
  9
$ACADMAINTVER
 70
6
  9
$DWGCODEPAGE
  3
ANSI_1252
  9
$INSBASE
 10
0.0
 20
0.0
 30
0.0
  9
$EXTMIN
 10
1e+20
 20
1e+20
 30
1e+20
  9
$EXTMAX
 10
-1e+20
 20
-1e+20
 30
-1e+20
  9
$LIMMIN
 10
0.0
 20
0.0
  9
$LIMMAX
 10
420.0
 20
297.0
  9
$ORTHOMODE
 70
0
  9
$REGENMODE
 70
1
  9
$FILLMODE
 70
1
  9
$QTEXTMODE
 70
0
  9
$MIRRTEXT
 70
1
  9
$LTSCALE
 40
1.0
  9
$ATTMODE
 70
1
  9
$TEXTSIZE
 40
2.5
  9
$TRACEWID
 40
1.0
  9
$TEXTSTYLE
  7
Standard
  9
$CLAYER
  8
0
  9
$CELTYPE
  6
ByLayer
  9
$CECOLOR
 62
256
  9
$CELTSCALE
 40
1.0
  9
$DISPSILH
 70
0
  9
$DIMSCALE
 40
1.0
  9
$DIMASZ
 40
2.5
  9
$DIMEXO
 40
0.625
  9
$DIMDLI
 40
3.75
  9
$DIMRND
 40
0.0
  9
$DIMDLE
 40
0.0
  9
$DIMEXE
 40
1.25
  9
$DIMTP
 40
0.0
  9
$DIMTM
 40
0.0
  9
$DIMTXT
 40
2.5
  9
$DIMCEN
 40
2.5
  9
$DIMTSZ
 40
0.0
  9
$DIMTOL
 70
0
  9
$DIMLIM
 70
0
  9
$DIMTIH
 70
0
  9
$DIMTOH
 70
0
  9
$DIMSE1
 70
0
  9
$DIMSE2
 70
0
  9
$DIMTAD
 70
1
  9
$DIMZIN
 70
8
  9
$DIMBLK
  1

  9
$DIMASO
 70
1
  9
$DIMSHO
 70
1
  9
$DIMPOST
  1

  9
$DIMAPOST
  1

  9
$DIMALT
 70
0
  9
$DIMALTD
 70
3
  9
$DIMALTF
 40
0.03937007874
  9
$DIMLFAC
 40
1.0
  9
$DIMTOFL
 70
1
  9
$DIMTVP
 40
0.0
  9
$DIMTIX
 70
0
  9
$DIMSOXD
 70
0
  9
$DIMSAH
 70
0
  9
$DIMBLK1
  1

  9
$DIMBLK2
  1

  9
$DIMSTYLE
  2
ISO-25
  9
$DIMCLRD
 70
0
  9
$DIMCLRE
 70
0
  9
$DIMCLRT
 70
0
  9
$DIMTFAC
 40
1.0
  9
$DIMGAP
 40
0.625
  9
$DIMJUST
 70
0
  9
$DIMSD1
 70
0
  9
$DIMSD2
 70
0
  9
$DIMTOLJ
 70
0
  9
$DIMTZIN
 70
8
  9
$DIMALTZ
 70
0
  9
$DIMALTTZ
 70
0
  9
$DIMUPT
 70
0
  9
$DIMDEC
 70
2
  9
$DIMTDEC
 70
2
  9
$DIMALTU
 70
2
  9
$DIMALTTD
 70
3
  9
$DIMTXSTY
  7
Standard
  9
$DIMAUNIT
 70
0
  9
$DIMADEC
 70
0
  9
$DIMALTRND
 40
0.0
  9
$DIMAZIN
 70
0
  9
$DIMDSEP
 70
44
  9
$DIMATFIT
 70
3
  9
$DIMFRAC
 70
0
  9
$DIMLDRBLK
  1

  9
$DIMLUNIT
 70
2
  9
$DIMLWD
 70
-2
  9
$DIMLWE
 70
-2
  9
$DIMTMOVE
 70
0
  9
$LUNITS
 70
2
  9
$LUPREC
 70
4
  9
$SKETCHINC
 40
1.0
  9
$FILLETRAD
 40
10.0
  9
$AUNITS
 70
0
  9
$AUPREC
 70
2
  9
$MENU
  1
.
  9
$ELEVATION
 40
0.0
  9
$PELEVATION
 40
0.0
  9
$THICKNESS
 40
0.0
  9
$LIMCHECK
 70
0
  9
$CHAMFERA
 40
0.0
  9
$CHAMFERB
 40
0.0
  9
$CHAMFERC
 40
0.0
  9
$CHAMFERD
 40
0.0
  9
$SKPOLY
 70
0
  9
$TDCREATE
 40
2461278.831388889
  9
$TDUCREATE
 40
2458532.153996898
  9
$TDUPDATE
 40
2461278.831388889
  9
$TDUUPDATE
 40
2458532.1544311
  9
$TDINDWG
 40
0.0
  9
$TDUSRTIMER
 40
0.0
  9
$USRTIMER
 70
1
  9
$ANGBASE
 50
0.0
  9
$ANGDIR
 70
0
  9
$PDMODE
 70
0
  9
$PDSIZE
 40
0.0
  9
$PLINEWID
 40
0.0
  9
$SPLFRAME
 70
0
  9
$SPLINETYPE
 70
6
  9
$SPLINESEGS
 70
8
  9
$HANDSEED
  5
61
  9
$SURFTAB1
 70
6
  9
$SURFTAB2
 70
6
  9
$SURFTYPE
 70
6
  9
$SURFU
 70
6
  9
$SURFV
 70
6
  9
$UCSBASE
  2

  9
$UCSNAME
  2

  9
$UCSORG
 10
0.0
 20
0.0
 30
0.0
  9
$UCSXDIR
 10
1.0
 20
0.0
 30
0.0
  9
$UCSYDIR
 10
0.0
 20
1.0
 30
0.0
  9
$UCSORTHOREF
  2

  9
$UCSORTHOVIEW
 70
0
  9
$UCSORGTOP
 10
0.0
 20
0.0
 30
0.0
  9
$UCSORGBOTTOM
 10
0.0
 20
0.0
 30
0.0
  9
$UCSORGLEFT
 10
0.0
 20
0.0
 30
0.0
  9
$UCSORGRIGHT
 10
0.0
 20
0.0
 30
0.0
  9
$UCSORGFRONT
 10
0.0
 20
0.0
 30
0.0
  9
$UCSORGBACK
 10
0.0
 20
0.0
 30
0.0
  9
$PUCSBASE
  2

  9
$PUCSNAME
  2

  9
$PUCSORG
 10
0.0
 20
0.0
 30
0.0
  9
$PUCSXDIR
 10
1.0
 20
0.0
 30
0.0
  9
$PUCSYDIR
 10
0.0
 20
1.0
 30
0.0
  9
$PUCSORTHOREF
  2

  9
$PUCSORTHOVIEW
 70
0
  9
$PUCSORGTOP
 10
0.0
 20
0.0
 30
0.0
  9
$PUCSORGBOTTOM
 10
0.0
 20
0.0
 30
0.0
  9
$PUCSORGLEFT
 10
0.0
 20
0.0
 30
0.0
  9
$PUCSORGRIGHT
 10
0.0
 20
0.0
 30
0.0
  9
$PUCSORGFRONT
 10
0.0
 20
0.0
 30
0.0
  9
$PUCSORGBACK
 10
0.0
 20
0.0
 30
0.0
  9
$USERI1
 70
0
  9
$USERI2
 70
0
  9
$USERI3
 70
0
  9
$USERI4
 70
0
  9
$USERI5
 70
0
  9
$USERR1
 40
0.0
  9
$USERR2
 40
0.0
  9
$USERR3
 40
0.0
  9
$USERR4
 40
0.0
  9
$USERR5
 40
0.0
  9
$WORLDVIEW
 70
1
  9
$SHADEDGE
 70
3
  9
$SHADEDIF
 70
70
  9
$TILEMODE
 70
1
  9
$MAXACTVP
 70
64
  9
$PINSBASE
 10
0.0
 20
0.0
 30
0.0
  9
$PLIMCHECK
 70
0
  9
$PEXTMIN
 10
1e+20
 20
1e+20
 30
1e+20
  9
$PEXTMAX
 10
-1e+20
 20
-1e+20
 30
-1e+20
  9
$PLIMMIN
 10
0.0
 20
0.0
  9
$PLIMMAX
 10
420.0
 20
297.0
  9
$UNITMODE
 70
0
  9
$VISRETAIN
 70
1
  9
$PLINEGEN
 70
0
  9
$PSLTSCALE
 70
1
  9
$TREEDEPTH
 70
3020
  9
$CMLSTYLE
  2
Standard
  9
$CMLJUST
 70
0
  9
$CMLSCALE
 40
20.0
  9
$PROXYGRAPHICS
 70
1
  9
$MEASUREMENT
 70
1
  9
$CELWEIGHT
370
-1
  9
$ENDCAPS
280
0
  9
$JOINSTYLE
280
0
  9
$LWDISPLAY
290
0
  9
$INSUNITS
 70
4
  9
$HYPERLINKBASE
  1

  9
$STYLESHEET
  1

  9
$XEDIT
290
1
  9
$CEPSNTYPE
380
0
  9
$PSTYLEMODE
290
1
  9
$FINGERPRINTGUID
  2
{403C8381-740A-4407-96D2-C422E5CFB20E}
  9
$VERSIONGUID
  2
{60372F7E-23D5-49F7-8144-A13D3C7773C2}
  9
$EXTNAMES
290
1
  9
$PSVPSCALE
 40
0.0
  9
$OLESTARTUP
290
0
  0
ENDSEC
  0
SECTION
  2
CLASSES
  0
CLASS
  1
ACDBDICTIONARYWDFLT
  2
AcDbDictionaryWithDefault
  3
ObjectDBX Classes
 90
0
280
0
281
0
  0
CLASS
  1
SUN
  2
AcDbSun
  3
SCENEOE
 90
1153
280
0
281
0
  0
CLASS
  1
VISUALSTYLE
  2
AcDbVisualStyle
  3
ObjectDBX Classes
 90
4095
280
0
281
0
  0
CLASS
  1
MATERIAL
  2
AcDbMaterial
  3
ObjectDBX Classes
 90
1153
280
0
281
0
  0
CLASS
  1
SCALE
  2
AcDbScale
  3
ObjectDBX Classes
 90
1153
280
0
281
0
  0
CLASS
  1
TABLESTYLE
  2
AcDbTableStyle
  3
ObjectDBX Classes
 90
4095
280
0
281
0
  0
CLASS
  1
MLEADERSTYLE
  2
AcDbMLeaderStyle
  3
ACDB_MLEADERSTYLE_CLASS
 90
4095
280
0
281
0
  0
CLASS
  1
DICTIONARYVAR
  2
AcDbDictionaryVar
  3
ObjectDBX Classes
 90
0
280
0
281
0
  0
CLASS
  1
CELLSTYLEMAP
  2
AcDbCellStyleMap
  3
ObjectDBX Classes
 90
1152
280
0
281
0
  0
CLASS
  1
MENTALRAYRENDERSETTINGS
  2
AcDbMentalRayRenderSettings
  3
SCENEOE
 90
1024
280
0
281
0
  0
CLASS
  1
ACDBDETAILVIEWSTYLE
  2
AcDbDetailViewStyle
  3
ObjectDBX Classes
 90
1025
280
0
281
0
  0
CLASS
  1
ACDBSECTIONVIEWSTYLE
  2
AcDbSectionViewStyle
  3
ObjectDBX Classes
 90
1025
280
0
281
0
  0
CLASS
  1
RASTERVARIABLES
  2
AcDbRasterVariables
  3
ISM
 90
0
280
0
281
0
  0
CLASS
  1
ACDBPLACEHOLDER
  2
AcDbPlaceHolder
  3
ObjectDBX Classes
 90
0
280
0
281
0
  0
CLASS
  1
LAYOUT
  2
AcDbLayout
  3
ObjectDBX Classes
 90
0
280
0
281
0
  0
ENDSEC
  0
SECTION
  2
TABLES
  0
TABLE
  2
VPORT
  5
8
330
0
100
AcDbSymbolTable
 70
1
  0
VPORT
  5
23
330
8
100
AcDbSymbolTableRecord
100
AcDbViewportTableRecord
  2
*Active
 70
0
 10
0.0
 20
0.0
 11
1.0
 21
1.0
 12
0.0
 22
0.0
 13
0.0
 23
0.0
 14
0.5
 24
0.5
 15
0.5
 25
0.5
 16
0.0
 26
0.0
 36
1.0
 17
0.0
 27
0.0
 37
0.0
 40
1000.0
 41
1.34
 42
50.0
 43
0.0
 44
0.0
 50
0.0
 51
0.0
 71
0
 72
1000
 73
1
 74
3
 75
0
 76
0
 77
0
 78
0
281
0
 65
0
146
0.0
  0
ENDTAB
  0
TABLE
  2
LTYPE
  5
2
330
0
100
AcDbSymbolTable
 70
3
  0
LTYPE
  5
24
330
2
100
AcDbSymbolTableRecord
100
AcDbLinetypeTableRecord
  2
ByBlock
 70
0
  3

 72
65
 73
0
 40
0.0
  0
LTYPE
  5
25
330
2
100
AcDbSymbolTableRecord
100
AcDbLinetypeTableRecord
  2
ByLayer
 70
0
  3

 72
65
 73
0
 40
0.0
  0
LTYPE
  5
26
330
2
100
AcDbSymbolTableRecord
100
AcDbLinetypeTableRecord
  2
Continuous
 70
0
  3

 72
65
 73
0
 40
0.0
  0
ENDTAB
  0
TABLE
  2
LAYER
  5
1
330
0
100
AcDbSymbolTable
 70
4
  0
LAYER
  5
27
330
1
100
AcDbSymbolTableRecord
100
AcDbLayerTableRecord
  2
0
 70
0
 62
7
  6
Continuous
370
-3
390
13
  0
LAYER
  5
28
330
1
100
AcDbSymbolTableRecord
100
AcDbLayerTableRecord
  2
Defpoints
 70
0
 62
7
  6
Continuous
290
0
370
-3
390
13
  0
LAYER
  5
2F
330
1
100
AcDbSymbolTableRecord
100
AcDbLayerTableRecord
  2
CUT
 70
0
 62
1
  6
Continuous
370
-3
390
13
  0
LAYER
  5
30
330
1
100
AcDbSymbolTableRecord
100
AcDbLayerTableRecord
  2
RASTER
 70
0
 62
7
  6
Continuous
370
-3
390
13
  0
ENDTAB
  0
TABLE
  2
STYLE
  5
5
330
0
100
AcDbSymbolTable
 70
1
  0
STYLE
  5
29
330
5
100
AcDbSymbolTableRecord
100
AcDbTextStyleTableRecord
  2
Standard
 70
0
 40
0.0
 41
1.0
 50
0.0
 71
0
 42
2.5
  3
txt
  4

  0
ENDTAB
  0
TABLE
  2
VIEW
  5
7
330
0
100
AcDbSymbolTable
 70
0
  0
ENDTAB
  0
TABLE
  2
UCS
  5
6
330
0
100
AcDbSymbolTable
 70
0
  0
ENDTAB
  0
TABLE
  2
APPID
  5
3
330
0
100
AcDbSymbolTable
 70
3
  0
APPID
  5
2A
330
3
100
AcDbSymbolTableRecord
100
AcDbRegAppTableRecord
  2
ACAD
 70
0
  0
APPID
  5
5E
330
3
100
AcDbSymbolTableRecord
100
AcDbRegAppTableRecord
  2
HATCHBACKGROUNDCOLOR
 70
0
  0
APPID
  5
5F
330
3
100
AcDbSymbolTableRecord
100
AcDbRegAppTableRecord
  2
EZDXF
 70
0
  0
ENDTAB
  0
TABLE
  2
DIMSTYLE
  5
4
330
0
100
AcDbSymbolTable
 70
1
100
AcDbDimStyleTable
  0
DIMSTYLE
105
2B
330
4
100
AcDbSymbolTableRecord
100
AcDbDimStyleTableRecord
  2
Standard
 70
0
  3

  4

 40
1.0
 41
2.5
 42
0.625
 43
3.75
 44
1.25
 45
0.0
 46
0.0
 47
0.0
 48
0.0
140
2.5
141
2.5
142
0.0
143
0.03937007874
144
1.0
145
0.0
146
1.0
147
0.625
148
0.0
 71
0
 72
0
 73
0
 74
0
 75
0
 76
0
 77
1
 78
8
 79
3
170
0
171
3
172
1
173
0
174
0
175
0
176
0
177
0
178
0
179
2
271
2
272
2
273
2
274
3
275
0
276
0
277
2
278
44
279
0
280
0
281
0
282
0
283
0
284
8
285
0
286
0
288
0
289
3
371
-2
372
-2
  0
ENDTAB
  0
TABLE
  2
BLOCK_RECORD
  5
9
330
0
100
AcDbSymbolTable
 70
2
  0
BLOCK_RECORD
  5
17
330
9
100
AcDbSymbolTableRecord
100
AcDbBlockTableRecord
  2
*Model_Space
340
1A
  0
BLOCK_RECORD
  5
1B
330
9
100
AcDbSymbolTableRecord
100
AcDbBlockTableRecord
  2
*Paper_Space
340
1E
  0
ENDTAB
  0
ENDSEC
  0
SECTION
  2
BLOCKS
  0
BLOCK
  5
18
330
17
100
AcDbEntity
  8
0
100
AcDbBlockBegin
  2
*Model_Space
 70
0
 10
0.0
 20
0.0
 30
0.0
  3
*Model_Space
  1

  0
ENDBLK
  5
19
330
17
100
AcDbEntity
  8
0
100
AcDbBlockEnd
  0
BLOCK
  5
1C
330
1B
100
AcDbEntity
  8
0
100
AcDbBlockBegin
  2
*Paper_Space
 70
0
 10
0.0
 20
0.0
 30
0.0
  3
*Paper_Space
  1

  0
ENDBLK
  5
1D
330
1B
100
AcDbEntity
  8
0
100
AcDbBlockEnd
  0
ENDSEC
  0
SECTION
  2
ENTITIES
  0
LWPOLYLINE
  5
31
330
17
100
AcDbEntity
  8
CUT
100
AcDbPolyline
 90
28
 70
1
 10
7.1
 20
78.04
 10
44.9
 20
78.04
 10
48.04
 20
78.04
 10
48.04
 20
72.993
 10
44.94
 20
72.993
 10
44.94
 20
68.107
 10
48.04
 20
68.107
 10
48.04
 20
63.06
 10
44.9
 20
63.06
 10
39.54
 20
63.06
 10
39.54
 20
59.96
 10
34.06
 20
59.96
 10
34.06
 20
63.06
 10
28.74
 20
63.06
 10
28.74
 20
59.96
 10
23.26
 20
59.96
 10
23.26
 20
63.06
 10
17.94
 20
63.06
 10
17.94
 20
59.96
 10
12.46
 20
59.96
 10
12.46
 20
63.06
 10
7.1
 20
63.06
 10
3.96
 20
63.06
 10
3.96
 20
68.107
 10
7.06
 20
68.107
 10
7.06
 20
72.993
 10
3.96
 20
72.993
 10
3.96
 20
78.04
  0
LWPOLYLINE
  5
32
330
17
100
AcDbEntity
  8
CUT
100
AcDbPolyline
 90
4
 70
1
 10
11.14
 20
73.76
 10
40.86
 20
73.76
 10
40.86
 20
72.44
 10
11.14
 20
72.44
  0
LWPOLYLINE
  5
33
330
17
100
AcDbEntity
  8
CUT
100
AcDbPolyline
 90
4
 70
1
 10
11.14
 20
68.66
 10
40.86
 20
68.66
 10
40.86
 20
67.34
 10
11.14
 20
67.34
  0
HATCH
  5
34
330
17
100
AcDbEntity
  8
RASTER
 62
7
100
AcDbHatch
 10
0.0
 20
0.0
 30
0.0
210
0.0
220
0.0
230
1.0
  2
SOLID
 70
1
 71
0
 91
1
 92
3
 72
0
 73
1
 93
4
 10
7.7
 20
77.6
 10
10.5
 20
77.6
 10
10.5
 20
63.5
 10
7.7
 20
63.5
 97
0
 75
0
 76
1
 98
0
  0
HATCH
  5
35
330
17
100
AcDbEntity
  8
RASTER
 62
7
100
AcDbHatch
 10
0.0
 20
0.0
 30
0.0
210
0.0
220
0.0
230
1.0
  2
SOLID
 70
1
 71
0
 91
1
 92
3
 72
0
 73
1
 93
4
 10
41.5
 20
77.6
 10
44.3
 20
77.6
 10
44.3
 20
63.5
 10
41.5
 20
63.5
 97
0
 75
0
 76
1
 98
0
  0
HATCH
  5
36
330
17
100
AcDbEntity
  8
RASTER
 62
7
100
AcDbHatch
 10
0.0
 20
0.0
 30
0.0
210
0.0
220
0.0
230
1.0
  2
SOLID
 70
1
 71
0
 91
1
 92
3
 72
0
 73
1
 93
48
 10
13.2
 20
75.65
 10
13.196
 20
75.585
 10
13.183
 20
75.521
 10
13.162
 20
75.459
 10
13.133
 20
75.4
 10
13.097
 20
75.346
 10
13.054
 20
75.296
 10
13.004
 20
75.253
 10
12.95
 20
75.217
 10
12.891
 20
75.188
 10
12.829
 20
75.167
 10
12.765
 20
75.154
 10
12.7
 20
75.15
 10
12.635
 20
75.154
 10
12.571
 20
75.167
 10
12.509
 20
75.188
 10
12.45
 20
75.217
 10
12.396
 20
75.253
 10
12.346
 20
75.296
 10
12.303
 20
75.346
 10
12.267
 20
75.4
 10
12.238
 20
75.459
 10
12.217
 20
75.521
 10
12.204
 20
75.585
 10
12.2
 20
75.65
 10
12.204
 20
75.715
 10
12.217
 20
75.779
 10
12.238
 20
75.841
 10
12.267
 20
75.9
 10
12.303
 20
75.954
 10
12.346
 20
76.004
 10
12.396
 20
76.047
 10
12.45
 20
76.083
 10
12.509
 20
76.112
 10
12.571
 20
76.133
 10
12.635
 20
76.146
 10
12.7
 20
76.15
 10
12.765
 20
76.146
 10
12.829
 20
76.133
 10
12.891
 20
76.112
 10
12.95
 20
76.083
 10
13.004
 20
76.047
 10
13.054
 20
76.004
 10
13.097
 20
75.954
 10
13.133
 20
75.9
 10
13.162
 20
75.841
 10
13.183
 20
75.779
 10
13.196
 20
75.715
 97
0
 75
0
 76
1
 98
0
  0
HATCH
  5
37
330
17
100
AcDbEntity
  8
RASTER
 62
7
100
AcDbHatch
 10
0.0
 20
0.0
 30
0.0
210
0.0
220
0.0
230
1.0
  2
SOLID
 70
1
 71
0
 91
1
 92
3
 72
0
 73
1
 93
48
 10
39.8
 20
75.65
 10
39.796
 20
75.585
 10
39.783
 20
75.521
 10
39.762
 20
75.459
 10
39.733
 20
75.4
 10
39.697
 20
75.346
 10
39.654
 20
75.296
 10
39.604
 20
75.253
 10
39.55
 20
75.217
 10
39.491
 20
75.188
 10
39.429
 20
75.167
 10
39.365
 20
75.154
 10
39.3
 20
75.15
 10
39.235
 20
75.154
 10
39.171
 20
75.167
 10
39.109
 20
75.188
 10
39.05
 20
75.217
 10
38.996
 20
75.253
 10
38.946
 20
75.296
 10
38.903
 20
75.346
 10
38.867
 20
75.4
 10
38.838
 20
75.459
 10
38.817
 20
75.521
 10
38.804
 20
75.585
 10
38.8
 20
75.65
 10
38.804
 20
75.715
 10
38.817
 20
75.779
 10
38.838
 20
75.841
 10
38.867
 20
75.9
 10
38.903
 20
75.954
 10
38.946
 20
76.004
 10
38.996
 20
76.047
 10
39.05
 20
76.083
 10
39.109
 20
76.112
 10
39.171
 20
76.133
 10
39.235
 20
76.146
 10
39.3
 20
76.15
 10
39.365
 20
76.146
 10
39.429
 20
76.133
 10
39.491
 20
76.112
 10
39.55
 20
76.083
 10
39.604
 20
76.047
 10
39.654
 20
76.004
 10
39.697
 20
75.954
 10
39.733
 20
75.9
 10
39.762
 20
75.841
 10
39.783
 20
75.779
 10
39.796
 20
75.715
 97
0
 75
0
 76
1
 98
0
  0
HATCH
  5
38
330
17
100
AcDbEntity
  8
RASTER
 62
7
100
AcDbHatch
 10
0.0
 20
0.0
 30
0.0
210
0.0
220
0.0
230
1.0
  2
SOLID
 70
1
 71
0
 91
1
 92
3
 72
0
 73
1
 93
48
 10
13.2
 20
70.55
 10
13.196
 20
70.485
 10
13.183
 20
70.421
 10
13.162
 20
70.359
 10
13.133
 20
70.3
 10
13.097
 20
70.246
 10
13.054
 20
70.196
 10
13.004
 20
70.153
 10
12.95
 20
70.117
 10
12.891
 20
70.088
 10
12.829
 20
70.067
 10
12.765
 20
70.054
 10
12.7
 20
70.05
 10
12.635
 20
70.054
 10
12.571
 20
70.067
 10
12.509
 20
70.088
 10
12.45
 20
70.117
 10
12.396
 20
70.153
 10
12.346
 20
70.196
 10
12.303
 20
70.246
 10
12.267
 20
70.3
 10
12.238
 20
70.359
 10
12.217
 20
70.421
 10
12.204
 20
70.485
 10
12.2
 20
70.55
 10
12.204
 20
70.615
 10
12.217
 20
70.679
 10
12.238
 20
70.741
 10
12.267
 20
70.8
 10
12.303
 20
70.854
 10
12.346
 20
70.904
 10
12.396
 20
70.947
 10
12.45
 20
70.983
 10
12.509
 20
71.012
 10
12.571
 20
71.033
 10
12.635
 20
71.046
 10
12.7
 20
71.05
 10
12.765
 20
71.046
 10
12.829
 20
71.033
 10
12.891
 20
71.012
 10
12.95
 20
70.983
 10
13.004
 20
70.947
 10
13.054
 20
70.904
 10
13.097
 20
70.854
 10
13.133
 20
70.8
 10
13.162
 20
70.741
 10
13.183
 20
70.679
 10
13.196
 20
70.615
 97
0
 75
0
 76
1
 98
0
  0
HATCH
  5
39
330
17
100
AcDbEntity
  8
RASTER
 62
7
100
AcDbHatch
 10
0.0
 20
0.0
 30
0.0
210
0.0
220
0.0
230
1.0
  2
SOLID
 70
1
 71
0
 91
1
 92
3
 72
0
 73
1
 93
48
 10
39.8
 20
70.55
 10
39.796
 20
70.485
 10
39.783
 20
70.421
 10
39.762
 20
70.359
 10
39.733
 20
70.3
 10
39.697
 20
70.246
 10
39.654
 20
70.196
 10
39.604
 20
70.153
 10
39.55
 20
70.117
 10
39.491
 20
70.088
 10
39.429
 20
70.067
 10
39.365
 20
70.054
 10
39.3
 20
70.05
 10
39.235
 20
70.054
 10
39.171
 20
70.067
 10
39.109
 20
70.088
 10
39.05
 20
70.117
 10
38.996
 20
70.153
 10
38.946
 20
70.196
 10
38.903
 20
70.246
 10
38.867
 20
70.3
 10
38.838
 20
70.359
 10
38.817
 20
70.421
 10
38.804
 20
70.485
 10
38.8
 20
70.55
 10
38.804
 20
70.615
 10
38.817
 20
70.679
 10
38.838
 20
70.741
 10
38.867
 20
70.8
 10
38.903
 20
70.854
 10
38.946
 20
70.904
 10
38.996
 20
70.947
 10
39.05
 20
70.983
 10
39.109
 20
71.012
 10
39.171
 20
71.033
 10
39.235
 20
71.046
 10
39.3
 20
71.05
 10
39.365
 20
71.046
 10
39.429
 20
71.033
 10
39.491
 20
71.012
 10
39.55
 20
70.983
 10
39.604
 20
70.947
 10
39.654
 20
70.904
 10
39.697
 20
70.854
 10
39.733
 20
70.8
 10
39.762
 20
70.741
 10
39.783
 20
70.679
 10
39.796
 20
70.615
 97
0
 75
0
 76
1
 98
0
  0
HATCH
  5
3A
330
17
100
AcDbEntity
  8
RASTER
 62
7
100
AcDbHatch
 10
0.0
 20
0.0
 30
0.0
210
0.0
220
0.0
230
1.0
  2
SOLID
 70
1
 71
0
 91
1
 92
3
 72
0
 73
1
 93
48
 10
13.2
 20
65.45
 10
13.196
 20
65.385
 10
13.183
 20
65.321
 10
13.162
 20
65.259
 10
13.133
 20
65.2
 10
13.097
 20
65.146
 10
13.054
 20
65.096
 10
13.004
 20
65.053
 10
12.95
 20
65.017
 10
12.891
 20
64.988
 10
12.829
 20
64.967
 10
12.765
 20
64.954
 10
12.7
 20
64.95
 10
12.635
 20
64.954
 10
12.571
 20
64.967
 10
12.509
 20
64.988
 10
12.45
 20
65.017
 10
12.396
 20
65.053
 10
12.346
 20
65.096
 10
12.303
 20
65.146
 10
12.267
 20
65.2
 10
12.238
 20
65.259
 10
12.217
 20
65.321
 10
12.204
 20
65.385
 10
12.2
 20
65.45
 10
12.204
 20
65.515
 10
12.217
 20
65.579
 10
12.238
 20
65.641
 10
12.267
 20
65.7
 10
12.303
 20
65.754
 10
12.346
 20
65.804
 10
12.396
 20
65.847
 10
12.45
 20
65.883
 10
12.509
 20
65.912
 10
12.571
 20
65.933
 10
12.635
 20
65.946
 10
12.7
 20
65.95
 10
12.765
 20
65.946
 10
12.829
 20
65.933
 10
12.891
 20
65.912
 10
12.95
 20
65.883
 10
13.004
 20
65.847
 10
13.054
 20
65.804
 10
13.097
 20
65.754
 10
13.133
 20
65.7
 10
13.162
 20
65.641
 10
13.183
 20
65.579
 10
13.196
 20
65.515
 97
0
 75
0
 76
1
 98
0
  0
HATCH
  5
3B
330
17
100
AcDbEntity
  8
RASTER
 62
7
100
AcDbHatch
 10
0.0
 20
0.0
 30
0.0
210
0.0
220
0.0
230
1.0
  2
SOLID
 70
1
 71
0
 91
1
 92
3
 72
0
 73
1
 93
48
 10
39.8
 20
65.45
 10
39.796
 20
65.385
 10
39.783
 20
65.321
 10
39.762
 20
65.259
 10
39.733
 20
65.2
 10
39.697
 20
65.146
 10
39.654
 20
65.096
 10
39.604
 20
65.053
 10
39.55
 20
65.017
 10
39.491
 20
64.988
 10
39.429
 20
64.967
 10
39.365
 20
64.954
 10
39.3
 20
64.95
 10
39.235
 20
64.954
 10
39.171
 20
64.967
 10
39.109
 20
64.988
 10
39.05
 20
65.017
 10
38.996
 20
65.053
 10
38.946
 20
65.096
 10
38.903
 20
65.146
 10
38.867
 20
65.2
 10
38.838
 20
65.259
 10
38.817
 20
65.321
 10
38.804
 20
65.385
 10
38.8
 20
65.45
 10
38.804
 20
65.515
 10
38.817
 20
65.579
 10
38.838
 20
65.641
 10
38.867
 20
65.7
 10
38.903
 20
65.754
 10
38.946
 20
65.804
 10
38.996
 20
65.847
 10
39.05
 20
65.883
 10
39.109
 20
65.912
 10
39.171
 20
65.933
 10
39.235
 20
65.946
 10
39.3
 20
65.95
 10
39.365
 20
65.946
 10
39.429
 20
65.933
 10
39.491
 20
65.912
 10
39.55
 20
65.883
 10
39.604
 20
65.847
 10
39.654
 20
65.804
 10
39.697
 20
65.754
 10
39.733
 20
65.7
 10
39.762
 20
65.641
 10
39.783
 20
65.579
 10
39.796
 20
65.515
 97
0
 75
0
 76
1
 98
0
  0
LWPOLYLINE
  5
3C
330
17
100
AcDbEntity
  8
CUT
100
AcDbPolyline
 90
28
 70
1
 10
55.1
 20
78.04
 10
92.9
 20
78.04
 10
96.04
 20
78.04
 10
96.04
 20
72.993
 10
92.94
 20
72.993
 10
92.94
 20
68.107
 10
96.04
 20
68.107
 10
96.04
 20
63.06
 10
92.9
 20
63.06
 10
87.54
 20
63.06
 10
87.54
 20
59.96
 10
82.06
 20
59.96
 10
82.06
 20
63.06
 10
76.74
 20
63.06
 10
76.74
 20
59.96
 10
71.26
 20
59.96
 10
71.26
 20
63.06
 10
65.94
 20
63.06
 10
65.94
 20
59.96
 10
60.46
 20
59.96
 10
60.46
 20
63.06
 10
55.1
 20
63.06
 10
51.96
 20
63.06
 10
51.96
 20
68.107
 10
55.06
 20
68.107
 10
55.06
 20
72.993
 10
51.96
 20
72.993
 10
51.96
 20
78.04
  0
LWPOLYLINE
  5
3D
330
17
100
AcDbEntity
  8
CUT
100
AcDbPolyline
 90
4
 70
1
 10
59.14
 20
73.76
 10
88.86
 20
73.76
 10
88.86
 20
72.44
 10
59.14
 20
72.44
  0
LWPOLYLINE
  5
3E
330
17
100
AcDbEntity
  8
CUT
100
AcDbPolyline
 90
4
 70
1
 10
59.14
 20
68.66
 10
88.86
 20
68.66
 10
88.86
 20
67.34
 10
59.14
 20
67.34
  0
HATCH
  5
3F
330
17
100
AcDbEntity
  8
RASTER
 62
7
100
AcDbHatch
 10
0.0
 20
0.0
 30
0.0
210
0.0
220
0.0
230
1.0
  2
SOLID
 70
1
 71
0
 91
1
 92
3
 72
0
 73
1
 93
4
 10
55.7
 20
77.6
 10
58.5
 20
77.6
 10
58.5
 20
63.5
 10
55.7
 20
63.5
 97
0
 75
0
 76
1
 98
0
  0
HATCH
  5
40
330
17
100
AcDbEntity
  8
RASTER
 62
7
100
AcDbHatch
 10
0.0
 20
0.0
 30
0.0
210
0.0
220
0.0
230
1.0
  2
SOLID
 70
1
 71
0
 91
1
 92
3
 72
0
 73
1
 93
4
 10
89.5
 20
77.6
 10
92.3
 20
77.6
 10
92.3
 20
63.5
 10
89.5
 20
63.5
 97
0
 75
0
 76
1
 98
0
  0
HATCH
  5
41
330
17
100
AcDbEntity
  8
RASTER
 62
7
100
AcDbHatch
 10
0.0
 20
0.0
 30
0.0
210
0.0
220
0.0
230
1.0
  2
SOLID
 70
1
 71
0
 91
1
 92
3
 72
0
 73
1
 93
48
 10
61.2
 20
75.65
 10
61.196
 20
75.585
 10
61.183
 20
75.521
 10
61.162
 20
75.459
 10
61.133
 20
75.4
 10
61.097
 20
75.346
 10
61.054
 20
75.296
 10
61.004
 20
75.253
 10
60.95
 20
75.217
 10
60.891
 20
75.188
 10
60.829
 20
75.167
 10
60.765
 20
75.154
 10
60.7
 20
75.15
 10
60.635
 20
75.154
 10
60.571
 20
75.167
 10
60.509
 20
75.188
 10
60.45
 20
75.217
 10
60.396
 20
75.253
 10
60.346
 20
75.296
 10
60.303
 20
75.346
 10
60.267
 20
75.4
 10
60.238
 20
75.459
 10
60.217
 20
75.521
 10
60.204
 20
75.585
 10
60.2
 20
75.65
 10
60.204
 20
75.715
 10
60.217
 20
75.779
 10
60.238
 20
75.841
 10
60.267
 20
75.9
 10
60.303
 20
75.954
 10
60.346
 20
76.004
 10
60.396
 20
76.047
 10
60.45
 20
76.083
 10
60.509
 20
76.112
 10
60.571
 20
76.133
 10
60.635
 20
76.146
 10
60.7
 20
76.15
 10
60.765
 20
76.146
 10
60.829
 20
76.133
 10
60.891
 20
76.112
 10
60.95
 20
76.083
 10
61.004
 20
76.047
 10
61.054
 20
76.004
 10
61.097
 20
75.954
 10
61.133
 20
75.9
 10
61.162
 20
75.841
 10
61.183
 20
75.779
 10
61.196
 20
75.715
 97
0
 75
0
 76
1
 98
0
  0
HATCH
  5
42
330
17
100
AcDbEntity
  8
RASTER
 62
7
100
AcDbHatch
 10
0.0
 20
0.0
 30
0.0
210
0.0
220
0.0
230
1.0
  2
SOLID
 70
1
 71
0
 91
1
 92
3
 72
0
 73
1
 93
48
 10
87.8
 20
75.65
 10
87.796
 20
75.585
 10
87.783
 20
75.521
 10
87.762
 20
75.459
 10
87.733
 20
75.4
 10
87.697
 20
75.346
 10
87.654
 20
75.296
 10
87.604
 20
75.253
 10
87.55
 20
75.217
 10
87.491
 20
75.188
 10
87.429
 20
75.167
 10
87.365
 20
75.154
 10
87.3
 20
75.15
 10
87.235
 20
75.154
 10
87.171
 20
75.167
 10
87.109
 20
75.188
 10
87.05
 20
75.217
 10
86.996
 20
75.253
 10
86.946
 20
75.296
 10
86.903
 20
75.346
 10
86.867
 20
75.4
 10
86.838
 20
75.459
 10
86.817
 20
75.521
 10
86.804
 20
75.585
 10
86.8
 20
75.65
 10
86.804
 20
75.715
 10
86.817
 20
75.779
 10
86.838
 20
75.841
 10
86.867
 20
75.9
 10
86.903
 20
75.954
 10
86.946
 20
76.004
 10
86.996
 20
76.047
 10
87.05
 20
76.083
 10
87.109
 20
76.112
 10
87.171
 20
76.133
 10
87.235
 20
76.146
 10
87.3
 20
76.15
 10
87.365
 20
76.146
 10
87.429
 20
76.133
 10
87.491
 20
76.112
 10
87.55
 20
76.083
 10
87.604
 20
76.047
 10
87.654
 20
76.004
 10
87.697
 20
75.954
 10
87.733
 20
75.9
 10
87.762
 20
75.841
 10
87.783
 20
75.779
 10
87.796
 20
75.715
 97
0
 75
0
 76
1
 98
0
  0
HATCH
  5
43
330
17
100
AcDbEntity
  8
RASTER
 62
7
100
AcDbHatch
 10
0.0
 20
0.0
 30
0.0
210
0.0
220
0.0
230
1.0
  2
SOLID
 70
1
 71
0
 91
1
 92
3
 72
0
 73
1
 93
48
 10
61.2
 20
70.55
 10
61.196
 20
70.485
 10
61.183
 20
70.421
 10
61.162
 20
70.359
 10
61.133
 20
70.3
 10
61.097
 20
70.246
 10
61.054
 20
70.196
 10
61.004
 20
70.153
 10
60.95
 20
70.117
 10
60.891
 20
70.088
 10
60.829
 20
70.067
 10
60.765
 20
70.054
 10
60.7
 20
70.05
 10
60.635
 20
70.054
 10
60.571
 20
70.067
 10
60.509
 20
70.088
 10
60.45
 20
70.117
 10
60.396
 20
70.153
 10
60.346
 20
70.196
 10
60.303
 20
70.246
 10
60.267
 20
70.3
 10
60.238
 20
70.359
 10
60.217
 20
70.421
 10
60.204
 20
70.485
 10
60.2
 20
70.55
 10
60.204
 20
70.615
 10
60.217
 20
70.679
 10
60.238
 20
70.741
 10
60.267
 20
70.8
 10
60.303
 20
70.854
 10
60.346
 20
70.904
 10
60.396
 20
70.947
 10
60.45
 20
70.983
 10
60.509
 20
71.012
 10
60.571
 20
71.033
 10
60.635
 20
71.046
 10
60.7
 20
71.05
 10
60.765
 20
71.046
 10
60.829
 20
71.033
 10
60.891
 20
71.012
 10
60.95
 20
70.983
 10
61.004
 20
70.947
 10
61.054
 20
70.904
 10
61.097
 20
70.854
 10
61.133
 20
70.8
 10
61.162
 20
70.741
 10
61.183
 20
70.679
 10
61.196
 20
70.615
 97
0
 75
0
 76
1
 98
0
  0
HATCH
  5
44
330
17
100
AcDbEntity
  8
RASTER
 62
7
100
AcDbHatch
 10
0.0
 20
0.0
 30
0.0
210
0.0
220
0.0
230
1.0
  2
SOLID
 70
1
 71
0
 91
1
 92
3
 72
0
 73
1
 93
48
 10
87.8
 20
70.55
 10
87.796
 20
70.485
 10
87.783
 20
70.421
 10
87.762
 20
70.359
 10
87.733
 20
70.3
 10
87.697
 20
70.246
 10
87.654
 20
70.196
 10
87.604
 20
70.153
 10
87.55
 20
70.117
 10
87.491
 20
70.088
 10
87.429
 20
70.067
 10
87.365
 20
70.054
 10
87.3
 20
70.05
 10
87.235
 20
70.054
 10
87.171
 20
70.067
 10
87.109
 20
70.088
 10
87.05
 20
70.117
 10
86.996
 20
70.153
 10
86.946
 20
70.196
 10
86.903
 20
70.246
 10
86.867
 20
70.3
 10
86.838
 20
70.359
 10
86.817
 20
70.421
 10
86.804
 20
70.485
 10
86.8
 20
70.55
 10
86.804
 20
70.615
 10
86.817
 20
70.679
 10
86.838
 20
70.741
 10
86.867
 20
70.8
 10
86.903
 20
70.854
 10
86.946
 20
70.904
 10
86.996
 20
70.947
 10
87.05
 20
70.983
 10
87.109
 20
71.012
 10
87.171
 20
71.033
 10
87.235
 20
71.046
 10
87.3
 20
71.05
 10
87.365
 20
71.046
 10
87.429
 20
71.033
 10
87.491
 20
71.012
 10
87.55
 20
70.983
 10
87.604
 20
70.947
 10
87.654
 20
70.904
 10
87.697
 20
70.854
 10
87.733
 20
70.8
 10
87.762
 20
70.741
 10
87.783
 20
70.679
 10
87.796
 20
70.615
 97
0
 75
0
 76
1
 98
0
  0
HATCH
  5
45
330
17
100
AcDbEntity
  8
RASTER
 62
7
100
AcDbHatch
 10
0.0
 20
0.0
 30
0.0
210
0.0
220
0.0
230
1.0
  2
SOLID
 70
1
 71
0
 91
1
 92
3
 72
0
 73
1
 93
48
 10
61.2
 20
65.45
 10
61.196
 20
65.385
 10
61.183
 20
65.321
 10
61.162
 20
65.259
 10
61.133
 20
65.2
 10
61.097
 20
65.146
 10
61.054
 20
65.096
 10
61.004
 20
65.053
 10
60.95
 20
65.017
 10
60.891
 20
64.988
 10
60.829
 20
64.967
 10
60.765
 20
64.954
 10
60.7
 20
64.95
 10
60.635
 20
64.954
 10
60.571
 20
64.967
 10
60.509
 20
64.988
 10
60.45
 20
65.017
 10
60.396
 20
65.053
 10
60.346
 20
65.096
 10
60.303
 20
65.146
 10
60.267
 20
65.2
 10
60.238
 20
65.259
 10
60.217
 20
65.321
 10
60.204
 20
65.385
 10
60.2
 20
65.45
 10
60.204
 20
65.515
 10
60.217
 20
65.579
 10
60.238
 20
65.641
 10
60.267
 20
65.7
 10
60.303
 20
65.754
 10
60.346
 20
65.804
 10
60.396
 20
65.847
 10
60.45
 20
65.883
 10
60.509
 20
65.912
 10
60.571
 20
65.933
 10
60.635
 20
65.946
 10
60.7
 20
65.95
 10
60.765
 20
65.946
 10
60.829
 20
65.933
 10
60.891
 20
65.912
 10
60.95
 20
65.883
 10
61.004
 20
65.847
 10
61.054
 20
65.804
 10
61.097
 20
65.754
 10
61.133
 20
65.7
 10
61.162
 20
65.641
 10
61.183
 20
65.579
 10
61.196
 20
65.515
 97
0
 75
0
 76
1
 98
0
  0
HATCH
  5
46
330
17
100
AcDbEntity
  8
RASTER
 62
7
100
AcDbHatch
 10
0.0
 20
0.0
 30
0.0
210
0.0
220
0.0
230
1.0
  2
SOLID
 70
1
 71
0
 91
1
 92
3
 72
0
 73
1
 93
48
 10
87.8
 20
65.45
 10
87.796
 20
65.385
 10
87.783
 20
65.321
 10
87.762
 20
65.259
 10
87.733
 20
65.2
 10
87.697
 20
65.146
 10
87.654
 20
65.096
 10
87.604
 20
65.053
 10
87.55
 20
65.017
 10
87.491
 20
64.988
 10
87.429
 20
64.967
 10
87.365
 20
64.954
 10
87.3
 20
64.95
 10
87.235
 20
64.954
 10
87.171
 20
64.967
 10
87.109
 20
64.988
 10
87.05
 20
65.017
 10
86.996
 20
65.053
 10
86.946
 20
65.096
 10
86.903
 20
65.146
 10
86.867
 20
65.2
 10
86.838
 20
65.259
 10
86.817
 20
65.321
 10
86.804
 20
65.385
 10
86.8
 20
65.45
 10
86.804
 20
65.515
 10
86.817
 20
65.579
 10
86.838
 20
65.641
 10
86.867
 20
65.7
 10
86.903
 20
65.754
 10
86.946
 20
65.804
 10
86.996
 20
65.847
 10
87.05
 20
65.883
 10
87.109
 20
65.912
 10
87.171
 20
65.933
 10
87.235
 20
65.946
 10
87.3
 20
65.95
 10
87.365
 20
65.946
 10
87.429
 20
65.933
 10
87.491
 20
65.912
 10
87.55
 20
65.883
 10
87.604
 20
65.847
 10
87.654
 20
65.804
 10
87.697
 20
65.754
 10
87.733
 20
65.7
 10
87.762
 20
65.641
 10
87.783
 20
65.579
 10
87.796
 20
65.515
 97
0
 75
0
 76
1
 98
0
  0
LWPOLYLINE
  5
47
330
17
100
AcDbEntity
  8
CUT
100
AcDbPolyline
 90
20
 70
1
 10
7.06
 20
56.04
 10
30.94
 20
56.04
 10
30.94
 20
51.073
 10
34.04
 20
51.073
 10
34.04
 20
46.027
 10
30.94
 20
46.027
 10
30.94
 20
41.06
 10
26.18
 20
41.06
 10
26.18
 20
37.96
 10
21.34
 20
37.96
 10
21.34
 20
41.06
 10
16.66
 20
41.06
 10
16.66
 20
37.96
 10
11.82
 20
37.96
 10
11.82
 20
41.06
 10
7.06
 20
41.06
 10
7.06
 20
46.027
 10
3.96
 20
46.027
 10
3.96
 20
51.073
 10
7.06
 20
51.073
  0
LWPOLYLINE
  5
48
330
17
100
AcDbEntity
  8
CUT
100
AcDbPolyline
 90
4
 70
1
 10
11.14
 20
51.76
 10
26.86
 20
51.76
 10
26.86
 20
50.44
 10
11.14
 20
50.44
  0
LWPOLYLINE
  5
49
330
17
100
AcDbEntity
  8
CUT
100
AcDbPolyline
 90
4
 70
1
 10
11.14
 20
46.66
 10
26.86
 20
46.66
 10
26.86
 20
45.34
 10
11.14
 20
45.34
  0
HATCH
  5
4A
330
17
100
AcDbEntity
  8
RASTER
 62
7
100
AcDbHatch
 10
0.0
 20
0.0
 30
0.0
210
0.0
220
0.0
230
1.0
  2
SOLID
 70
1
 71
0
 91
1
 92
3
 72
0
 73
1
 93
4
 10
7.7
 20
55.6
 10
10.5
 20
55.6
 10
10.5
 20
41.5
 10
7.7
 20
41.5
 97
0
 75
0
 76
1
 98
0
  0
HATCH
  5
4B
330
17
100
AcDbEntity
  8
RASTER
 62
7
100
AcDbHatch
 10
0.0
 20
0.0
 30
0.0
210
0.0
220
0.0
230
1.0
  2
SOLID
 70
1
 71
0
 91
1
 92
3
 72
0
 73
1
 93
4
 10
27.5
 20
55.6
 10
30.3
 20
55.6
 10
30.3
 20
41.5
 10
27.5
 20
41.5
 97
0
 75
0
 76
1
 98
0
  0
HATCH
  5
4C
330
17
100
AcDbEntity
  8
RASTER
 62
7
100
AcDbHatch
 10
0.0
 20
0.0
 30
0.0
210
0.0
220
0.0
230
1.0
  2
SOLID
 70
1
 71
0
 91
1
 92
3
 72
0
 73
1
 93
48
 10
13.2
 20
53.65
 10
13.196
 20
53.585
 10
13.183
 20
53.521
 10
13.162
 20
53.459
 10
13.133
 20
53.4
 10
13.097
 20
53.346
 10
13.054
 20
53.296
 10
13.004
 20
53.253
 10
12.95
 20
53.217
 10
12.891
 20
53.188
 10
12.829
 20
53.167
 10
12.765
 20
53.154
 10
12.7
 20
53.15
 10
12.635
 20
53.154
 10
12.571
 20
53.167
 10
12.509
 20
53.188
 10
12.45
 20
53.217
 10
12.396
 20
53.253
 10
12.346
 20
53.296
 10
12.303
 20
53.346
 10
12.267
 20
53.4
 10
12.238
 20
53.459
 10
12.217
 20
53.521
 10
12.204
 20
53.585
 10
12.2
 20
53.65
 10
12.204
 20
53.715
 10
12.217
 20
53.779
 10
12.238
 20
53.841
 10
12.267
 20
53.9
 10
12.303
 20
53.954
 10
12.346
 20
54.004
 10
12.396
 20
54.047
 10
12.45
 20
54.083
 10
12.509
 20
54.112
 10
12.571
 20
54.133
 10
12.635
 20
54.146
 10
12.7
 20
54.15
 10
12.765
 20
54.146
 10
12.829
 20
54.133
 10
12.891
 20
54.112
 10
12.95
 20
54.083
 10
13.004
 20
54.047
 10
13.054
 20
54.004
 10
13.097
 20
53.954
 10
13.133
 20
53.9
 10
13.162
 20
53.841
 10
13.183
 20
53.779
 10
13.196
 20
53.715
 97
0
 75
0
 76
1
 98
0
  0
HATCH
  5
4D
330
17
100
AcDbEntity
  8
RASTER
 62
7
100
AcDbHatch
 10
0.0
 20
0.0
 30
0.0
210
0.0
220
0.0
230
1.0
  2
SOLID
 70
1
 71
0
 91
1
 92
3
 72
0
 73
1
 93
48
 10
25.8
 20
53.65
 10
25.796
 20
53.585
 10
25.783
 20
53.521
 10
25.762
 20
53.459
 10
25.733
 20
53.4
 10
25.697
 20
53.346
 10
25.654
 20
53.296
 10
25.604
 20
53.253
 10
25.55
 20
53.217
 10
25.491
 20
53.188
 10
25.429
 20
53.167
 10
25.365
 20
53.154
 10
25.3
 20
53.15
 10
25.235
 20
53.154
 10
25.171
 20
53.167
 10
25.109
 20
53.188
 10
25.05
 20
53.217
 10
24.996
 20
53.253
 10
24.946
 20
53.296
 10
24.903
 20
53.346
 10
24.867
 20
53.4
 10
24.838
 20
53.459
 10
24.817
 20
53.521
 10
24.804
 20
53.585
 10
24.8
 20
53.65
 10
24.804
 20
53.715
 10
24.817
 20
53.779
 10
24.838
 20
53.841
 10
24.867
 20
53.9
 10
24.903
 20
53.954
 10
24.946
 20
54.004
 10
24.996
 20
54.047
 10
25.05
 20
54.083
 10
25.109
 20
54.112
 10
25.171
 20
54.133
 10
25.235
 20
54.146
 10
25.3
 20
54.15
 10
25.365
 20
54.146
 10
25.429
 20
54.133
 10
25.491
 20
54.112
 10
25.55
 20
54.083
 10
25.604
 20
54.047
 10
25.654
 20
54.004
 10
25.697
 20
53.954
 10
25.733
 20
53.9
 10
25.762
 20
53.841
 10
25.783
 20
53.779
 10
25.796
 20
53.715
 97
0
 75
0
 76
1
 98
0
  0
HATCH
  5
4E
330
17
100
AcDbEntity
  8
RASTER
 62
7
100
AcDbHatch
 10
0.0
 20
0.0
 30
0.0
210
0.0
220
0.0
230
1.0
  2
SOLID
 70
1
 71
0
 91
1
 92
3
 72
0
 73
1
 93
48
 10
13.2
 20
48.55
 10
13.196
 20
48.485
 10
13.183
 20
48.421
 10
13.162
 20
48.359
 10
13.133
 20
48.3
 10
13.097
 20
48.246
 10
13.054
 20
48.196
 10
13.004
 20
48.153
 10
12.95
 20
48.117
 10
12.891
 20
48.088
 10
12.829
 20
48.067
 10
12.765
 20
48.054
 10
12.7
 20
48.05
 10
12.635
 20
48.054
 10
12.571
 20
48.067
 10
12.509
 20
48.088
 10
12.45
 20
48.117
 10
12.396
 20
48.153
 10
12.346
 20
48.196
 10
12.303
 20
48.246
 10
12.267
 20
48.3
 10
12.238
 20
48.359
 10
12.217
 20
48.421
 10
12.204
 20
48.485
 10
12.2
 20
48.55
 10
12.204
 20
48.615
 10
12.217
 20
48.679
 10
12.238
 20
48.741
 10
12.267
 20
48.8
 10
12.303
 20
48.854
 10
12.346
 20
48.904
 10
12.396
 20
48.947
 10
12.45
 20
48.983
 10
12.509
 20
49.012
 10
12.571
 20
49.033
 10
12.635
 20
49.046
 10
12.7
 20
49.05
 10
12.765
 20
49.046
 10
12.829
 20
49.033
 10
12.891
 20
49.012
 10
12.95
 20
48.983
 10
13.004
 20
48.947
 10
13.054
 20
48.904
 10
13.097
 20
48.854
 10
13.133
 20
48.8
 10
13.162
 20
48.741
 10
13.183
 20
48.679
 10
13.196
 20
48.615
 97
0
 75
0
 76
1
 98
0
  0
HATCH
  5
4F
330
17
100
AcDbEntity
  8
RASTER
 62
7
100
AcDbHatch
 10
0.0
 20
0.0
 30
0.0
210
0.0
220
0.0
230
1.0
  2
SOLID
 70
1
 71
0
 91
1
 92
3
 72
0
 73
1
 93
48
 10
25.8
 20
48.55
 10
25.796
 20
48.485
 10
25.783
 20
48.421
 10
25.762
 20
48.359
 10
25.733
 20
48.3
 10
25.697
 20
48.246
 10
25.654
 20
48.196
 10
25.604
 20
48.153
 10
25.55
 20
48.117
 10
25.491
 20
48.088
 10
25.429
 20
48.067
 10
25.365
 20
48.054
 10
25.3
 20
48.05
 10
25.235
 20
48.054
 10
25.171
 20
48.067
 10
25.109
 20
48.088
 10
25.05
 20
48.117
 10
24.996
 20
48.153
 10
24.946
 20
48.196
 10
24.903
 20
48.246
 10
24.867
 20
48.3
 10
24.838
 20
48.359
 10
24.817
 20
48.421
 10
24.804
 20
48.485
 10
24.8
 20
48.55
 10
24.804
 20
48.615
 10
24.817
 20
48.679
 10
24.838
 20
48.741
 10
24.867
 20
48.8
 10
24.903
 20
48.854
 10
24.946
 20
48.904
 10
24.996
 20
48.947
 10
25.05
 20
48.983
 10
25.109
 20
49.012
 10
25.171
 20
49.033
 10
25.235
 20
49.046
 10
25.3
 20
49.05
 10
25.365
 20
49.046
 10
25.429
 20
49.033
 10
25.491
 20
49.012
 10
25.55
 20
48.983
 10
25.604
 20
48.947
 10
25.654
 20
48.904
 10
25.697
 20
48.854
 10
25.733
 20
48.8
 10
25.762
 20
48.741
 10
25.783
 20
48.679
 10
25.796
 20
48.615
 97
0
 75
0
 76
1
 98
0
  0
HATCH
  5
50
330
17
100
AcDbEntity
  8
RASTER
 62
7
100
AcDbHatch
 10
0.0
 20
0.0
 30
0.0
210
0.0
220
0.0
230
1.0
  2
SOLID
 70
1
 71
0
 91
1
 92
3
 72
0
 73
1
 93
48
 10
13.2
 20
43.45
 10
13.196
 20
43.385
 10
13.183
 20
43.321
 10
13.162
 20
43.259
 10
13.133
 20
43.2
 10
13.097
 20
43.146
 10
13.054
 20
43.096
 10
13.004
 20
43.053
 10
12.95
 20
43.017
 10
12.891
 20
42.988
 10
12.829
 20
42.967
 10
12.765
 20
42.954
 10
12.7
 20
42.95
 10
12.635
 20
42.954
 10
12.571
 20
42.967
 10
12.509
 20
42.988
 10
12.45
 20
43.017
 10
12.396
 20
43.053
 10
12.346
 20
43.096
 10
12.303
 20
43.146
 10
12.267
 20
43.2
 10
12.238
 20
43.259
 10
12.217
 20
43.321
 10
12.204
 20
43.385
 10
12.2
 20
43.45
 10
12.204
 20
43.515
 10
12.217
 20
43.579
 10
12.238
 20
43.641
 10
12.267
 20
43.7
 10
12.303
 20
43.754
 10
12.346
 20
43.804
 10
12.396
 20
43.847
 10
12.45
 20
43.883
 10
12.509
 20
43.912
 10
12.571
 20
43.933
 10
12.635
 20
43.946
 10
12.7
 20
43.95
 10
12.765
 20
43.946
 10
12.829
 20
43.933
 10
12.891
 20
43.912
 10
12.95
 20
43.883
 10
13.004
 20
43.847
 10
13.054
 20
43.804
 10
13.097
 20
43.754
 10
13.133
 20
43.7
 10
13.162
 20
43.641
 10
13.183
 20
43.579
 10
13.196
 20
43.515
 97
0
 75
0
 76
1
 98
0
  0
HATCH
  5
51
330
17
100
AcDbEntity
  8
RASTER
 62
7
100
AcDbHatch
 10
0.0
 20
0.0
 30
0.0
210
0.0
220
0.0
230
1.0
  2
SOLID
 70
1
 71
0
 91
1
 92
3
 72
0
 73
1
 93
48
 10
25.8
 20
43.45
 10
25.796
 20
43.385
 10
25.783
 20
43.321
 10
25.762
 20
43.259
 10
25.733
 20
43.2
 10
25.697
 20
43.146
 10
25.654
 20
43.096
 10
25.604
 20
43.053
 10
25.55
 20
43.017
 10
25.491
 20
42.988
 10
25.429
 20
42.967
 10
25.365
 20
42.954
 10
25.3
 20
42.95
 10
25.235
 20
42.954
 10
25.171
 20
42.967
 10
25.109
 20
42.988
 10
25.05
 20
43.017
 10
24.996
 20
43.053
 10
24.946
 20
43.096
 10
24.903
 20
43.146
 10
24.867
 20
43.2
 10
24.838
 20
43.259
 10
24.817
 20
43.321
 10
24.804
 20
43.385
 10
24.8
 20
43.45
 10
24.804
 20
43.515
 10
24.817
 20
43.579
 10
24.838
 20
43.641
 10
24.867
 20
43.7
 10
24.903
 20
43.754
 10
24.946
 20
43.804
 10
24.996
 20
43.847
 10
25.05
 20
43.883
 10
25.109
 20
43.912
 10
25.171
 20
43.933
 10
25.235
 20
43.946
 10
25.3
 20
43.95
 10
25.365
 20
43.946
 10
25.429
 20
43.933
 10
25.491
 20
43.912
 10
25.55
 20
43.883
 10
25.604
 20
43.847
 10
25.654
 20
43.804
 10
25.697
 20
43.754
 10
25.733
 20
43.7
 10
25.762
 20
43.641
 10
25.783
 20
43.579
 10
25.796
 20
43.515
 97
0
 75
0
 76
1
 98
0
  0
LWPOLYLINE
  5
52
330
17
100
AcDbEntity
  8
CUT
100
AcDbPolyline
 90
20
 70
1
 10
41.06
 20
56.04
 10
64.94
 20
56.04
 10
64.94
 20
51.073
 10
68.04
 20
51.073
 10
68.04
 20
46.027
 10
64.94
 20
46.027
 10
64.94
 20
41.06
 10
60.18
 20
41.06
 10
60.18
 20
37.96
 10
55.34
 20
37.96
 10
55.34
 20
41.06
 10
50.66
 20
41.06
 10
50.66
 20
37.96
 10
45.82
 20
37.96
 10
45.82
 20
41.06
 10
41.06
 20
41.06
 10
41.06
 20
46.027
 10
37.96
 20
46.027
 10
37.96
 20
51.073
 10
41.06
 20
51.073
  0
LWPOLYLINE
  5
53
330
17
100
AcDbEntity
  8
CUT
100
AcDbPolyline
 90
4
 70
1
 10
45.14
 20
51.76
 10
60.86
 20
51.76
 10
60.86
 20
50.44
 10
45.14
 20
50.44
  0
LWPOLYLINE
  5
54
330
17
100
AcDbEntity
  8
CUT
100
AcDbPolyline
 90
4
 70
1
 10
45.14
 20
46.66
 10
60.86
 20
46.66
 10
60.86
 20
45.34
 10
45.14
 20
45.34
  0
HATCH
  5
55
330
17
100
AcDbEntity
  8
RASTER
 62
7
100
AcDbHatch
 10
0.0
 20
0.0
 30
0.0
210
0.0
220
0.0
230
1.0
  2
SOLID
 70
1
 71
0
 91
1
 92
3
 72
0
 73
1
 93
4
 10
41.7
 20
55.6
 10
44.5
 20
55.6
 10
44.5
 20
41.5
 10
41.7
 20
41.5
 97
0
 75
0
 76
1
 98
0
  0
HATCH
  5
56
330
17
100
AcDbEntity
  8
RASTER
 62
7
100
AcDbHatch
 10
0.0
 20
0.0
 30
0.0
210
0.0
220
0.0
230
1.0
  2
SOLID
 70
1
 71
0
 91
1
 92
3
 72
0
 73
1
 93
4
 10
61.5
 20
55.6
 10
64.3
 20
55.6
 10
64.3
 20
41.5
 10
61.5
 20
41.5
 97
0
 75
0
 76
1
 98
0
  0
HATCH
  5
57
330
17
100
AcDbEntity
  8
RASTER
 62
7
100
AcDbHatch
 10
0.0
 20
0.0
 30
0.0
210
0.0
220
0.0
230
1.0
  2
SOLID
 70
1
 71
0
 91
1
 92
3
 72
0
 73
1
 93
48
 10
47.2
 20
53.65
 10
47.196
 20
53.585
 10
47.183
 20
53.521
 10
47.162
 20
53.459
 10
47.133
 20
53.4
 10
47.097
 20
53.346
 10
47.054
 20
53.296
 10
47.004
 20
53.253
 10
46.95
 20
53.217
 10
46.891
 20
53.188
 10
46.829
 20
53.167
 10
46.765
 20
53.154
 10
46.7
 20
53.15
 10
46.635
 20
53.154
 10
46.571
 20
53.167
 10
46.509
 20
53.188
 10
46.45
 20
53.217
 10
46.396
 20
53.253
 10
46.346
 20
53.296
 10
46.303
 20
53.346
 10
46.267
 20
53.4
 10
46.238
 20
53.459
 10
46.217
 20
53.521
 10
46.204
 20
53.585
 10
46.2
 20
53.65
 10
46.204
 20
53.715
 10
46.217
 20
53.779
 10
46.238
 20
53.841
 10
46.267
 20
53.9
 10
46.303
 20
53.954
 10
46.346
 20
54.004
 10
46.396
 20
54.047
 10
46.45
 20
54.083
 10
46.509
 20
54.112
 10
46.571
 20
54.133
 10
46.635
 20
54.146
 10
46.7
 20
54.15
 10
46.765
 20
54.146
 10
46.829
 20
54.133
 10
46.891
 20
54.112
 10
46.95
 20
54.083
 10
47.004
 20
54.047
 10
47.054
 20
54.004
 10
47.097
 20
53.954
 10
47.133
 20
53.9
 10
47.162
 20
53.841
 10
47.183
 20
53.779
 10
47.196
 20
53.715
 97
0
 75
0
 76
1
 98
0
  0
HATCH
  5
58
330
17
100
AcDbEntity
  8
RASTER
 62
7
100
AcDbHatch
 10
0.0
 20
0.0
 30
0.0
210
0.0
220
0.0
230
1.0
  2
SOLID
 70
1
 71
0
 91
1
 92
3
 72
0
 73
1
 93
48
 10
59.8
 20
53.65
 10
59.796
 20
53.585
 10
59.783
 20
53.521
 10
59.762
 20
53.459
 10
59.733
 20
53.4
 10
59.697
 20
53.346
 10
59.654
 20
53.296
 10
59.604
 20
53.253
 10
59.55
 20
53.217
 10
59.491
 20
53.188
 10
59.429
 20
53.167
 10
59.365
 20
53.154
 10
59.3
 20
53.15
 10
59.235
 20
53.154
 10
59.171
 20
53.167
 10
59.109
 20
53.188
 10
59.05
 20
53.217
 10
58.996
 20
53.253
 10
58.946
 20
53.296
 10
58.903
 20
53.346
 10
58.867
 20
53.4
 10
58.838
 20
53.459
 10
58.817
 20
53.521
 10
58.804
 20
53.585
 10
58.8
 20
53.65
 10
58.804
 20
53.715
 10
58.817
 20
53.779
 10
58.838
 20
53.841
 10
58.867
 20
53.9
 10
58.903
 20
53.954
 10
58.946
 20
54.004
 10
58.996
 20
54.047
 10
59.05
 20
54.083
 10
59.109
 20
54.112
 10
59.171
 20
54.133
 10
59.235
 20
54.146
 10
59.3
 20
54.15
 10
59.365
 20
54.146
 10
59.429
 20
54.133
 10
59.491
 20
54.112
 10
59.55
 20
54.083
 10
59.604
 20
54.047
 10
59.654
 20
54.004
 10
59.697
 20
53.954
 10
59.733
 20
53.9
 10
59.762
 20
53.841
 10
59.783
 20
53.779
 10
59.796
 20
53.715
 97
0
 75
0
 76
1
 98
0
  0
HATCH
  5
59
330
17
100
AcDbEntity
  8
RASTER
 62
7
100
AcDbHatch
 10
0.0
 20
0.0
 30
0.0
210
0.0
220
0.0
230
1.0
  2
SOLID
 70
1
 71
0
 91
1
 92
3
 72
0
 73
1
 93
48
 10
47.2
 20
48.55
 10
47.196
 20
48.485
 10
47.183
 20
48.421
 10
47.162
 20
48.359
 10
47.133
 20
48.3
 10
47.097
 20
48.246
 10
47.054
 20
48.196
 10
47.004
 20
48.153
 10
46.95
 20
48.117
 10
46.891
 20
48.088
 10
46.829
 20
48.067
 10
46.765
 20
48.054
 10
46.7
 20
48.05
 10
46.635
 20
48.054
 10
46.571
 20
48.067
 10
46.509
 20
48.088
 10
46.45
 20
48.117
 10
46.396
 20
48.153
 10
46.346
 20
48.196
 10
46.303
 20
48.246
 10
46.267
 20
48.3
 10
46.238
 20
48.359
 10
46.217
 20
48.421
 10
46.204
 20
48.485
 10
46.2
 20
48.55
 10
46.204
 20
48.615
 10
46.217
 20
48.679
 10
46.238
 20
48.741
 10
46.267
 20
48.8
 10
46.303
 20
48.854
 10
46.346
 20
48.904
 10
46.396
 20
48.947
 10
46.45
 20
48.983
 10
46.509
 20
49.012
 10
46.571
 20
49.033
 10
46.635
 20
49.046
 10
46.7
 20
49.05
 10
46.765
 20
49.046
 10
46.829
 20
49.033
 10
46.891
 20
49.012
 10
46.95
 20
48.983
 10
47.004
 20
48.947
 10
47.054
 20
48.904
 10
47.097
 20
48.854
 10
47.133
 20
48.8
 10
47.162
 20
48.741
 10
47.183
 20
48.679
 10
47.196
 20
48.615
 97
0
 75
0
 76
1
 98
0
  0
HATCH
  5
5A
330
17
100
AcDbEntity
  8
RASTER
 62
7
100
AcDbHatch
 10
0.0
 20
0.0
 30
0.0
210
0.0
220
0.0
230
1.0
  2
SOLID
 70
1
 71
0
 91
1
 92
3
 72
0
 73
1
 93
48
 10
59.8
 20
48.55
 10
59.796
 20
48.485
 10
59.783
 20
48.421
 10
59.762
 20
48.359
 10
59.733
 20
48.3
 10
59.697
 20
48.246
 10
59.654
 20
48.196
 10
59.604
 20
48.153
 10
59.55
 20
48.117
 10
59.491
 20
48.088
 10
59.429
 20
48.067
 10
59.365
 20
48.054
 10
59.3
 20
48.05
 10
59.235
 20
48.054
 10
59.171
 20
48.067
 10
59.109
 20
48.088
 10
59.05
 20
48.117
 10
58.996
 20
48.153
 10
58.946
 20
48.196
 10
58.903
 20
48.246
 10
58.867
 20
48.3
 10
58.838
 20
48.359
 10
58.817
 20
48.421
 10
58.804
 20
48.485
 10
58.8
 20
48.55
 10
58.804
 20
48.615
 10
58.817
 20
48.679
 10
58.838
 20
48.741
 10
58.867
 20
48.8
 10
58.903
 20
48.854
 10
58.946
 20
48.904
 10
58.996
 20
48.947
 10
59.05
 20
48.983
 10
59.109
 20
49.012
 10
59.171
 20
49.033
 10
59.235
 20
49.046
 10
59.3
 20
49.05
 10
59.365
 20
49.046
 10
59.429
 20
49.033
 10
59.491
 20
49.012
 10
59.55
 20
48.983
 10
59.604
 20
48.947
 10
59.654
 20
48.904
 10
59.697
 20
48.854
 10
59.733
 20
48.8
 10
59.762
 20
48.741
 10
59.783
 20
48.679
 10
59.796
 20
48.615
 97
0
 75
0
 76
1
 98
0
  0
HATCH
  5
5B
330
17
100
AcDbEntity
  8
RASTER
 62
7
100
AcDbHatch
 10
0.0
 20
0.0
 30
0.0
210
0.0
220
0.0
230
1.0
  2
SOLID
 70
1
 71
0
 91
1
 92
3
 72
0
 73
1
 93
48
 10
47.2
 20
43.45
 10
47.196
 20
43.385
 10
47.183
 20
43.321
 10
47.162
 20
43.259
 10
47.133
 20
43.2
 10
47.097
 20
43.146
 10
47.054
 20
43.096
 10
47.004
 20
43.053
 10
46.95
 20
43.017
 10
46.891
 20
42.988
 10
46.829
 20
42.967
 10
46.765
 20
42.954
 10
46.7
 20
42.95
 10
46.635
 20
42.954
 10
46.571
 20
42.967
 10
46.509
 20
42.988
 10
46.45
 20
43.017
 10
46.396
 20
43.053
 10
46.346
 20
43.096
 10
46.303
 20
43.146
 10
46.267
 20
43.2
 10
46.238
 20
43.259
 10
46.217
 20
43.321
 10
46.204
 20
43.385
 10
46.2
 20
43.45
 10
46.204
 20
43.515
 10
46.217
 20
43.579
 10
46.238
 20
43.641
 10
46.267
 20
43.7
 10
46.303
 20
43.754
 10
46.346
 20
43.804
 10
46.396
 20
43.847
 10
46.45
 20
43.883
 10
46.509
 20
43.912
 10
46.571
 20
43.933
 10
46.635
 20
43.946
 10
46.7
 20
43.95
 10
46.765
 20
43.946
 10
46.829
 20
43.933
 10
46.891
 20
43.912
 10
46.95
 20
43.883
 10
47.004
 20
43.847
 10
47.054
 20
43.804
 10
47.097
 20
43.754
 10
47.133
 20
43.7
 10
47.162
 20
43.641
 10
47.183
 20
43.579
 10
47.196
 20
43.515
 97
0
 75
0
 76
1
 98
0
  0
HATCH
  5
5C
330
17
100
AcDbEntity
  8
RASTER
 62
7
100
AcDbHatch
 10
0.0
 20
0.0
 30
0.0
210
0.0
220
0.0
230
1.0
  2
SOLID
 70
1
 71
0
 91
1
 92
3
 72
0
 73
1
 93
48
 10
59.8
 20
43.45
 10
59.796
 20
43.385
 10
59.783
 20
43.321
 10
59.762
 20
43.259
 10
59.733
 20
43.2
 10
59.697
 20
43.146
 10
59.654
 20
43.096
 10
59.604
 20
43.053
 10
59.55
 20
43.017
 10
59.491
 20
42.988
 10
59.429
 20
42.967
 10
59.365
 20
42.954
 10
59.3
 20
42.95
 10
59.235
 20
42.954
 10
59.171
 20
42.967
 10
59.109
 20
42.988
 10
59.05
 20
43.017
 10
58.996
 20
43.053
 10
58.946
 20
43.096
 10
58.903
 20
43.146
 10
58.867
 20
43.2
 10
58.838
 20
43.259
 10
58.817
 20
43.321
 10
58.804
 20
43.385
 10
58.8
 20
43.45
 10
58.804
 20
43.515
 10
58.817
 20
43.579
 10
58.838
 20
43.641
 10
58.867
 20
43.7
 10
58.903
 20
43.754
 10
58.946
 20
43.804
 10
58.996
 20
43.847
 10
59.05
 20
43.883
 10
59.109
 20
43.912
 10
59.171
 20
43.933
 10
59.235
 20
43.946
 10
59.3
 20
43.95
 10
59.365
 20
43.946
 10
59.429
 20
43.933
 10
59.491
 20
43.912
 10
59.55
 20
43.883
 10
59.604
 20
43.847
 10
59.654
 20
43.804
 10
59.697
 20
43.754
 10
59.733
 20
43.7
 10
59.762
 20
43.641
 10
59.783
 20
43.579
 10
59.796
 20
43.515
 97
0
 75
0
 76
1
 98
0
  0
LWPOLYLINE
  5
5D
330
17
100
AcDbEntity
  8
CUT
100
AcDbPolyline
 90
52
 70
1
 10
3.96
 20
34.04
 10
7.1
 20
34.04
 10
12.54
 20
34.04
 10
12.54
 20
30.94
 10
17.86
 20
30.94
 10
17.86
 20
34.04
 10
23.34
 20
34.04
 10
23.34
 20
30.94
 10
28.66
 20
30.94
 10
28.66
 20
34.04
 10
34.14
 20
34.04
 10
34.14
 20
30.94
 10
39.46
 20
30.94
 10
39.46
 20
34.04
 10
44.9
 20
34.04
 10
48.04
 20
34.04
 10
48.04
 20
30.9
 10
48.04
 20
26.1
 10
44.94
 20
26.1
 10
44.94
 20
21.42
 10
48.04
 20
21.42
 10
48.04
 20
16.58
 10
44.94
 20
16.58
 10
44.94
 20
11.9
 10
48.04
 20
11.9
 10
48.04
 20
7.1
 10
48.04
 20
3.96
 10
44.9
 20
3.96
 10
39.46
 20
3.96
 10
39.46
 20
7.06
 10
34.14
 20
7.06
 10
34.14
 20
3.96
 10
28.66
 20
3.96
 10
28.66
 20
7.06
 10
23.34
 20
7.06
 10
23.34
 20
3.96
 10
17.86
 20
3.96
 10
17.86
 20
7.06
 10
12.54
 20
7.06
 10
12.54
 20
3.96
 10
7.1
 20
3.96
 10
3.96
 20
3.96
 10
3.96
 20
7.1
 10
3.96
 20
11.9
 10
7.06
 20
11.9
 10
7.06
 20
16.58
 10
3.96
 20
16.58
 10
3.96
 20
21.42
 10
7.06
 20
21.42
 10
7.06
 20
26.1
 10
3.96
 20
26.1
 10
3.96
 20
30.9
  0
ENDSEC
  0
SECTION
  2
OBJECTS
  0
DICTIONARY
  5
A
330
0
100
AcDbDictionary
281
1
  3
ACAD_COLOR
350
B
  3
ACAD_GROUP
350
C
  3
ACAD_LAYOUT
350
D
  3
ACAD_MATERIAL
350
E
  3
ACAD_MLEADERSTYLE
350
F
  3
ACAD_MLINESTYLE
350
10
  3
ACAD_PLOTSETTINGS
350
11
  3
ACAD_PLOTSTYLENAME
350
12
  3
ACAD_SCALELIST
350
14
  3
ACAD_TABLESTYLE
350
15
  3
ACAD_VISUALSTYLE
350
16
  3
EZDXF_META
350
2D
  0
DICTIONARY
  5
B
330
A
100
AcDbDictionary
281
1
  0
DICTIONARY
  5
C
330
A
100
AcDbDictionary
281
1
  0
DICTIONARY
  5
D
330
A
100
AcDbDictionary
281
1
  3
Model
350
1A
  3
Layout1
350
1E
  0
DICTIONARY
  5
E
330
A
100
AcDbDictionary
281
1
  3
ByBlock
350
1F
  3
ByLayer
350
20
  3
Global
350
21
  0
DICTIONARY
  5
F
330
A
100
AcDbDictionary
281
1
  3
Standard
350
2C
  0
DICTIONARY
  5
10
330
A
100
AcDbDictionary
281
1
  3
Standard
350
22
  0
DICTIONARY
  5
11
330
A
100
AcDbDictionary
281
1
  0
ACDBDICTIONARYWDFLT
  5
12
330
A
100
AcDbDictionary
281
1
  3
Normal
350
13
100
AcDbDictionaryWithDefault
340
13
  0
ACDBPLACEHOLDER
  5
13
330
12
  0
DICTIONARY
  5
14
330
A
100
AcDbDictionary
281
1
  0
DICTIONARY
  5
15
330
A
100
AcDbDictionary
281
1
  0
DICTIONARY
  5
16
330
A
100
AcDbDictionary
281
1
  0
LAYOUT
  5
1A
330
D
100
AcDbPlotSettings
  1

  4
A3
  6

 40
7.5
 41
20.0
 42
7.5
 43
20.0
 44
420.0
 45
297.0
 46
0.0
 47
0.0
 48
0.0
 49
0.0
140
0.0
141
0.0
142
1.0
143
1.0
 70
1024
 72
1
 73
0
 74
5
  7

 75
16
 76
0
 77
2
 78
300
147
1.0
148
0.0
149
0.0
100
AcDbLayout
  1
Model
 70
1
 71
0
 10
0.0
 20
0.0
 11
420.0
 21
297.0
 12
0.0
 22
0.0
 32
0.0
 14
1e+20
 24
1e+20
 34
1e+20
 15
-1e+20
 25
-1e+20
 35
-1e+20
146
0.0
 13
0.0
 23
0.0
 33
0.0
 16
1.0
 26
0.0
 36
0.0
 17
0.0
 27
1.0
 37
0.0
 76
1
330
17
  0
LAYOUT
  5
1E
330
D
100
AcDbPlotSettings
  1

  4
A3
  6

 40
7.5
 41
20.0
 42
7.5
 43
20.0
 44
420.0
 45
297.0
 46
0.0
 47
0.0
 48
0.0
 49
0.0
140
0.0
141
0.0
142
1.0
143
1.0
 70
0
 72
1
 73
0
 74
5
  7

 75
16
 76
0
 77
2
 78
300
147
1.0
148
0.0
149
0.0
100
AcDbLayout
  1
Layout1
 70
1
 71
1
 10
0.0
 20
0.0
 11
420.0
 21
297.0
 12
0.0
 22
0.0
 32
0.0
 14
1e+20
 24
1e+20
 34
1e+20
 15
-1e+20
 25
-1e+20
 35
-1e+20
146
0.0
 13
0.0
 23
0.0
 33
0.0
 16
1.0
 26
0.0
 36
0.0
 17
0.0
 27
1.0
 37
0.0
 76
1
330
1B
  0
MATERIAL
  5
1F
102
{ACAD_REACTORS
330
E
102
}
330
E
100
AcDbMaterial
  1
ByBlock
  2

 70
0
 40
1.0
 71
1
 41
1.0
 91
-1023410177
 42
1.0
 72
1
  3

 73
1
 74
1
 75
1
 44
0.5
 73
0
 45
1.0
 46
1.0
 77
1
  4

 78
1
 79
1
170
1
 48
1.0
171
1
  6

172
1
173
1
174
1
140
1.0
141
1.0
175
1
  7

176
1
177
1
178
1
143
1.0
179
1
  8

270
1
271
1
272
1
145
1.0
146
1.0
273
1
  9

274
1
275
1
276
1
 42
1.0
 72
1
  3

 73
1
 74
1
 75
1
 94
63
  0
MATERIAL
  5
20
102
{ACAD_REACTORS
330
E
102
}
330
E
100
AcDbMaterial
  1
ByLayer
  2

 70
0
 40
1.0
 71
1
 41
1.0
 91
-1023410177
 42
1.0
 72
1
  3

 73
1
 74
1
 75
1
 44
0.5
 73
0
 45
1.0
 46
1.0
 77
1
  4

 78
1
 79
1
170
1
 48
1.0
171
1
  6

172
1
173
1
174
1
140
1.0
141
1.0
175
1
  7

176
1
177
1
178
1
143
1.0
179
1
  8

270
1
271
1
272
1
145
1.0
146
1.0
273
1
  9

274
1
275
1
276
1
 42
1.0
 72
1
  3

 73
1
 74
1
 75
1
 94
63
  0
MATERIAL
  5
21
102
{ACAD_REACTORS
330
E
102
}
330
E
100
AcDbMaterial
  1
Global
  2

 70
0
 40
1.0
 71
1
 41
1.0
 91
-1023410177
 42
1.0
 72
1
  3

 73
1
 74
1
 75
1
 44
0.5
 73
0
 45
1.0
 46
1.0
 77
1
  4

 78
1
 79
1
170
1
 48
1.0
171
1
  6

172
1
173
1
174
1
140
1.0
141
1.0
175
1
  7

176
1
177
1
178
1
143
1.0
179
1
  8

270
1
271
1
272
1
145
1.0
146
1.0
273
1
  9

274
1
275
1
276
1
 42
1.0
 72
1
  3

 73
1
 74
1
 75
1
 94
63
  0
MLINESTYLE
  5
22
102
{ACAD_REACTORS
330
10
102
}
330
10
100
AcDbMlineStyle
  2
Standard
 70
0
  3

 62
256
 51
90.0
 52
90.0
 71
2
 49
0.5
 62
256
  6
BYLAYER
 49
-0.5
 62
256
  6
BYLAYER
  0
MLEADERSTYLE
  5
2C
102
{ACAD_REACTORS
330
F
102
}
330
F
100
AcDbMLeaderStyle
179
2
170
2
171
1
172
0
 90
2
 40
0.0
 41
0.0
173
1
 91
-1056964608
 92
-2
290
1
 42
2.0
291
1
 43
8.0
  3
Standard
 44
4.0
300

342
29
174
1
175
1
176
0
178
1
 93
-1056964608
 45
4.0
292
0
297
0
 46
4.0
 94
-1056964608
 47
1.0
 49
1.0
140
1.0
294
1
141
0.0
177
0
142
1.0
295
0
296
0
143
3.75
271
0
272
9
273
9
  0
DICTIONARY
  5
2D
330
A
100
AcDbDictionary
280
1
281
1
  3
CREATED_BY_EZDXF
350
2E
  3
WRITTEN_BY_EZDXF
350
60
  0
DICTIONARYVAR
  5
2E
330
2D
100
DictionaryVariables
280
0
  1
1.4.2 @ 2026-08-25T23:57:12.863505+00:00
  0
DICTIONARYVAR
  5
60
330
2D
100
DictionaryVariables
280
0
  1
1.4.2 @ 2026-08-25T23:57:12.865897+00:00
  0
ENDSEC
  0
EOF
