  0
SECTION
  2
HEADER
  9
$ACADVER
  1
AC1015
  9
$ACADMAINTVER
 70
6
  9
$DWGCODEPAGE
  3
ANSI_1252
  9
$INSBASE
 10
0.0
 20
0.0
 30
0.0
  9
$EXTMIN
 10
1e+20
 20
1e+20
 30
1e+20
  9
$EXTMAX
 10
-1e+20
 20
-1e+20
 30
-1e+20
  9
$LIMMIN
 10
0.0
 20
0.0
  9
$LIMMAX
 10
420.0
 20
297.0
  9
$ORTHOMODE
 70
0
  9
$REGENMODE
 70
1
  9
$FILLMODE
 70
1
  9
$QTEXTMODE
 70
0
  9
$MIRRTEXT
 70
1
  9
$LTSCALE
 40
1.0
  9
$ATTMODE
 70
1
  9
$TEXTSIZE
 40
2.5
  9
$TRACEWID
 40
1.0
  9
$TEXTSTYLE
  7
Standard
  9
$CLAYER
  8
0
  9
$CELTYPE
  6
ByLayer
  9
$CECOLOR
 62
256
  9
$CELTSCALE
 40
1.0
  9
$DISPSILH
 70
0
  9
$DIMSCALE
 40
1.0
  9
$DIMASZ
 40
2.5
  9
$DIMEXO
 40
0.625
  9
$DIMDLI
 40
3.75
  9
$DIMRND
 40
0.0
  9
$DIMDLE
 40
0.0
  9
$DIMEXE
 40
1.25
  9
$DIMTP
 40
0.0
  9
$DIMTM
 40
0.0
  9
$DIMTXT
 40
2.5
  9
$DIMCEN
 40
2.5
  9
$DIMTSZ
 40
0.0
  9
$DIMTOL
 70
0
  9
$DIMLIM
 70
0
  9
$DIMTIH
 70
0
  9
$DIMTOH
 70
0
  9
$DIMSE1
 70
0
  9
$DIMSE2
 70
0
  9
$DIMTAD
 70
1
  9
$DIMZIN
 70
8
  9
$DIMBLK
  1

  9
$DIMASO
 70
1
  9
$DIMSHO
 70
1
  9
$DIMPOST
  1

  9
$DIMAPOST
  1

  9
$DIMALT
 70
0
  9
$DIMALTD
 70
3
  9
$DIMALTF
 40
0.03937007874
  9
$DIMLFAC
 40
1.0
  9
$DIMTOFL
 70
1
  9
$DIMTVP
 40
0.0
  9
$DIMTIX
 70
0
  9
$DIMSOXD
 70
0
  9
$DIMSAH
 70
0
  9
$DIMBLK1
  1

  9
$DIMBLK2
  1

  9
$DIMSTYLE
  2
ISO-25
  9
$DIMCLRD
 70
0
  9
$DIMCLRE
 70
0
  9
$DIMCLRT
 70
0
  9
$DIMTFAC
 40
1.0
  9
$DIMGAP
 40
0.625
  9
$DIMJUST
 70
0
  9
$DIMSD1
 70
0
  9
$DIMSD2
 70
0
  9
$DIMTOLJ
 70
0
  9
$DIMTZIN
 70
8
  9
$DIMALTZ
 70
0
  9
$DIMALTTZ
 70
0
  9
$DIMUPT
 70
0
  9
$DIMDEC
 70
2
  9
$DIMTDEC
 70
2
  9
$DIMALTU
 70
2
  9
$DIMALTTD
 70
3
  9
$DIMTXSTY
  7
Standard
  9
$DIMAUNIT
 70
0
  9
$DIMADEC
 70
0
  9
$DIMALTRND
 40
0.0
  9
$DIMAZIN
 70
0
  9
$DIMDSEP
 70
44
  9
$DIMATFIT
 70
3
  9
$DIMFRAC
 70
0
  9
$DIMLDRBLK
  1

  9
$DIMLUNIT
 70
2
  9
$DIMLWD
 70
-2
  9
$DIMLWE
 70
-2
  9
$DIMTMOVE
 70
0
  9
$LUNITS
 70
2
  9
$LUPREC
 70
4
  9
$SKETCHINC
 40
1.0
  9
$FILLETRAD
 40
10.0
  9
$AUNITS
 70
0
  9
$AUPREC
 70
2
  9
$MENU
  1
.
  9
$ELEVATION
 40
0.0
  9
$PELEVATION
 40
0.0
  9
$THICKNESS
 40
0.0
  9
$LIMCHECK
 70
0
  9
$CHAMFERA
 40
0.0
  9
$CHAMFERB
 40
0.0
  9
$CHAMFERC
 40
0.0
  9
$CHAMFERD
 40
0.0
  9
$SKPOLY
 70
0
  9
$TDCREATE
 40
2461278.831388889
  9
$TDUCREATE
 40
2458532.153996898
  9
$TDUPDATE
 40
2461278.831388889
  9
$TDUUPDATE
 40
2458532.1544311
  9
$TDINDWG
 40
0.0
  9
$TDUSRTIMER
 40
0.0
  9
$USRTIMER
 70
1
  9
$ANGBASE
 50
0.0
  9
$ANGDIR
 70
0
  9
$PDMODE
 70
0
  9
$PDSIZE
 40
0.0
  9
$PLINEWID
 40
0.0
  9
$SPLFRAME
 70
0
  9
$SPLINETYPE
 70
6
  9
$SPLINESEGS
 70
8
  9
$HANDSEED
  5
3A
  9
$SURFTAB1
 70
6
  9
$SURFTAB2
 70
6
  9
$SURFTYPE
 70
6
  9
$SURFU
 70
6
  9
$SURFV
 70
6
  9
$UCSBASE
  2

  9
$UCSNAME
  2

  9
$UCSORG
 10
0.0
 20
0.0
 30
0.0
  9
$UCSXDIR
 10
1.0
 20
0.0
 30
0.0
  9
$UCSYDIR
 10
0.0
 20
1.0
 30
0.0
  9
$UCSORTHOREF
  2

  9
$UCSORTHOVIEW
 70
0
  9
$UCSORGTOP
 10
0.0
 20
0.0
 30
0.0
  9
$UCSORGBOTTOM
 10
0.0
 20
0.0
 30
0.0
  9
$UCSORGLEFT
 10
0.0
 20
0.0
 30
0.0
  9
$UCSORGRIGHT
 10
0.0
 20
0.0
 30
0.0
  9
$UCSORGFRONT
 10
0.0
 20
0.0
 30
0.0
  9
$UCSORGBACK
 10
0.0
 20
0.0
 30
0.0
  9
$PUCSBASE
  2

  9
$PUCSNAME
  2

  9
$PUCSORG
 10
0.0
 20
0.0
 30
0.0
  9
$PUCSXDIR
 10
1.0
 20
0.0
 30
0.0
  9
$PUCSYDIR
 10
0.0
 20
1.0
 30
0.0
  9
$PUCSORTHOREF
  2

  9
$PUCSORTHOVIEW
 70
0
  9
$PUCSORGTOP
 10
0.0
 20
0.0
 30
0.0
  9
$PUCSORGBOTTOM
 10
0.0
 20
0.0
 30
0.0
  9
$PUCSORGLEFT
 10
0.0
 20
0.0
 30
0.0
  9
$PUCSORGRIGHT
 10
0.0
 20
0.0
 30
0.0
  9
$PUCSORGFRONT
 10
0.0
 20
0.0
 30
0.0
  9
$PUCSORGBACK
 10
0.0
 20
0.0
 30
0.0
  9
$USERI1
 70
0
  9
$USERI2
 70
0
  9
$USERI3
 70
0
  9
$USERI4
 70
0
  9
$USERI5
 70
0
  9
$USERR1
 40
0.0
  9
$USERR2
 40
0.0
  9
$USERR3
 40
0.0
  9
$USERR4
 40
0.0
  9
$USERR5
 40
0.0
  9
$WORLDVIEW
 70
1
  9
$SHADEDGE
 70
3
  9
$SHADEDIF
 70
70
  9
$TILEMODE
 70
1
  9
$MAXACTVP
 70
64
  9
$PINSBASE
 10
0.0
 20
0.0
 30
0.0
  9
$PLIMCHECK
 70
0
  9
$PEXTMIN
 10
1e+20
 20
1e+20
 30
1e+20
  9
$PEXTMAX
 10
-1e+20
 20
-1e+20
 30
-1e+20
  9
$PLIMMIN
 10
0.0
 20
0.0
  9
$PLIMMAX
 10
420.0
 20
297.0
  9
$UNITMODE
 70
0
  9
$VISRETAIN
 70
1
  9
$PLINEGEN
 70
0
  9
$PSLTSCALE
 70
1
  9
$TREEDEPTH
 70
3020
  9
$CMLSTYLE
  2
Standard
  9
$CMLJUST
 70
0
  9
$CMLSCALE
 40
20.0
  9
$PROXYGRAPHICS
 70
1
  9
$MEASUREMENT
 70
1
  9
$CELWEIGHT
370
-1
  9
$ENDCAPS
280
0
  9
$JOINSTYLE
280
0
  9
$LWDISPLAY
290
0
  9
$INSUNITS
 70
4
  9
$HYPERLINKBASE
  1

  9
$STYLESHEET
  1

  9
$XEDIT
290
1
  9
$CEPSNTYPE
380
0
  9
$PSTYLEMODE
290
1
  9
$FINGERPRINTGUID
  2
{CCCA2BCF-190A-48AC-AD1D-D3BC7D050E14}
  9
$VERSIONGUID
  2
{EB82AE9C-1198-4C83-AB5E-A28F7E8C7085}
  9
$EXTNAMES
290
1
  9
$PSVPSCALE
 40
0.0
  9
$OLESTARTUP
290
0
  0
ENDSEC
  0
SECTION
  2
CLASSES
  0
CLASS
  1
ACDBDICTIONARYWDFLT
  2
AcDbDictionaryWithDefault
  3
ObjectDBX Classes
 90
0
280
0
281
0
  0
CLASS
  1
SUN
  2
AcDbSun
  3
SCENEOE
 90
1153
280
0
281
0
  0
CLASS
  1
VISUALSTYLE
  2
AcDbVisualStyle
  3
ObjectDBX Classes
 90
4095
280
0
281
0
  0
CLASS
  1
MATERIAL
  2
AcDbMaterial
  3
ObjectDBX Classes
 90
1153
280
0
281
0
  0
CLASS
  1
SCALE
  2
AcDbScale
  3
ObjectDBX Classes
 90
1153
280
0
281
0
  0
CLASS
  1
TABLESTYLE
  2
AcDbTableStyle
  3
ObjectDBX Classes
 90
4095
280
0
281
0
  0
CLASS
  1
MLEADERSTYLE
  2
AcDbMLeaderStyle
  3
ACDB_MLEADERSTYLE_CLASS
 90
4095
280
0
281
0
  0
CLASS
  1
DICTIONARYVAR
  2
AcDbDictionaryVar
  3
ObjectDBX Classes
 90
0
280
0
281
0
  0
CLASS
  1
CELLSTYLEMAP
  2
AcDbCellStyleMap
  3
ObjectDBX Classes
 90
1152
280
0
281
0
  0
CLASS
  1
MENTALRAYRENDERSETTINGS
  2
AcDbMentalRayRenderSettings
  3
SCENEOE
 90
1024
280
0
281
0
  0
CLASS
  1
ACDBDETAILVIEWSTYLE
  2
AcDbDetailViewStyle
  3
ObjectDBX Classes
 90
1025
280
0
281
0
  0
CLASS
  1
ACDBSECTIONVIEWSTYLE
  2
AcDbSectionViewStyle
  3
ObjectDBX Classes
 90
1025
280
0
281
0
  0
CLASS
  1
RASTERVARIABLES
  2
AcDbRasterVariables
  3
ISM
 90
0
280
0
281
0
  0
CLASS
  1
ACDBPLACEHOLDER
  2
AcDbPlaceHolder
  3
ObjectDBX Classes
 90
0
280
0
281
0
  0
CLASS
  1
LAYOUT
  2
AcDbLayout
  3
ObjectDBX Classes
 90
0
280
0
281
0
  0
ENDSEC
  0
SECTION
  2
TABLES
  0
TABLE
  2
VPORT
  5
8
330
0
100
AcDbSymbolTable
 70
1
  0
VPORT
  5
23
330
8
100
AcDbSymbolTableRecord
100
AcDbViewportTableRecord
  2
*Active
 70
0
 10
0.0
 20
0.0
 11
1.0
 21
1.0
 12
0.0
 22
0.0
 13
0.0
 23
0.0
 14
0.5
 24
0.5
 15
0.5
 25
0.5
 16
0.0
 26
0.0
 36
1.0
 17
0.0
 27
0.0
 37
0.0
 40
1000.0
 41
1.34
 42
50.0
 43
0.0
 44
0.0
 50
0.0
 51
0.0
 71
0
 72
1000
 73
1
 74
3
 75
0
 76
0
 77
0
 78
0
281
0
 65
0
146
0.0
  0
ENDTAB
  0
TABLE
  2
LTYPE
  5
2
330
0
100
AcDbSymbolTable
 70
3
  0
LTYPE
  5
24
330
2
100
AcDbSymbolTableRecord
100
AcDbLinetypeTableRecord
  2
ByBlock
 70
0
  3

 72
65
 73
0
 40
0.0
  0
LTYPE
  5
25
330
2
100
AcDbSymbolTableRecord
100
AcDbLinetypeTableRecord
  2
ByLayer
 70
0
  3

 72
65
 73
0
 40
0.0
  0
LTYPE
  5
26
330
2
100
AcDbSymbolTableRecord
100
AcDbLinetypeTableRecord
  2
Continuous
 70
0
  3

 72
65
 73
0
 40
0.0
  0
ENDTAB
  0
TABLE
  2
LAYER
  5
1
330
0
100
AcDbSymbolTable
 70
4
  0
LAYER
  5
27
330
1
100
AcDbSymbolTableRecord
100
AcDbLayerTableRecord
  2
0
 70
0
 62
7
  6
Continuous
370
-3
390
13
  0
LAYER
  5
28
330
1
100
AcDbSymbolTableRecord
100
AcDbLayerTableRecord
  2
Defpoints
 70
0
 62
7
  6
Continuous
290
0
370
-3
390
13
  0
LAYER
  5
2F
330
1
100
AcDbSymbolTableRecord
100
AcDbLayerTableRecord
  2
CUT
 70
0
 62
1
  6
Continuous
370
-3
390
13
  0
LAYER
  5
30
330
1
100
AcDbSymbolTableRecord
100
AcDbLayerTableRecord
  2
RASTER
 70
0
 62
7
  6
Continuous
370
-3
390
13
  0
ENDTAB
  0
TABLE
  2
STYLE
  5
5
330
0
100
AcDbSymbolTable
 70
1
  0
STYLE
  5
29
330
5
100
AcDbSymbolTableRecord
100
AcDbTextStyleTableRecord
  2
Standard
 70
0
 40
0.0
 41
1.0
 50
0.0
 71
0
 42
2.5
  3
txt
  4

  0
ENDTAB
  0
TABLE
  2
VIEW
  5
7
330
0
100
AcDbSymbolTable
 70
0
  0
ENDTAB
  0
TABLE
  2
UCS
  5
6
330
0
100
AcDbSymbolTable
 70
0
  0
ENDTAB
  0
TABLE
  2
APPID
  5
3
330
0
100
AcDbSymbolTable
 70
3
  0
APPID
  5
2A
330
3
100
AcDbSymbolTableRecord
100
AcDbRegAppTableRecord
  2
ACAD
 70
0
  0
APPID
  5
37
330
3
100
AcDbSymbolTableRecord
100
AcDbRegAppTableRecord
  2
HATCHBACKGROUNDCOLOR
 70
0
  0
APPID
  5
38
330
3
100
AcDbSymbolTableRecord
100
AcDbRegAppTableRecord
  2
EZDXF
 70
0
  0
ENDTAB
  0
TABLE
  2
DIMSTYLE
  5
4
330
0
100
AcDbSymbolTable
 70
1
100
AcDbDimStyleTable
  0
DIMSTYLE
105
2B
330
4
100
AcDbSymbolTableRecord
100
AcDbDimStyleTableRecord
  2
Standard
 70
0
  3

  4

 40
1.0
 41
2.5
 42
0.625
 43
3.75
 44
1.25
 45
0.0
 46
0.0
 47
0.0
 48
0.0
140
2.5
141
2.5
142
0.0
143
0.03937007874
144
1.0
145
0.0
146
1.0
147
0.625
148
0.0
 71
0
 72
0
 73
0
 74
0
 75
0
 76
0
 77
1
 78
8
 79
3
170
0
171
3
172
1
173
0
174
0
175
0
176
0
177
0
178
0
179
2
271
2
272
2
273
2
274
3
275
0
276
0
277
2
278
44
279
0
280
0
281
0
282
0
283
0
284
8
285
0
286
0
288
0
289
3
371
-2
372
-2
  0
ENDTAB
  0
TABLE
  2
BLOCK_RECORD
  5
9
330
0
100
AcDbSymbolTable
 70
2
  0
BLOCK_RECORD
  5
17
330
9
100
AcDbSymbolTableRecord
100
AcDbBlockTableRecord
  2
*Model_Space
340
1A
  0
BLOCK_RECORD
  5
1B
330
9
100
AcDbSymbolTableRecord
100
AcDbBlockTableRecord
  2
*Paper_Space
340
1E
  0
ENDTAB
  0
ENDSEC
  0
SECTION
  2
BLOCKS
  0
BLOCK
  5
18
330
17
100
AcDbEntity
  8
0
100
AcDbBlockBegin
  2
*Model_Space
 70
0
 10
0.0
 20
0.0
 30
0.0
  3
*Model_Space
  1

  0
ENDBLK
  5
19
330
17
100
AcDbEntity
  8
0
100
AcDbBlockEnd
  0
BLOCK
  5
1C
330
1B
100
AcDbEntity
  8
0
100
AcDbBlockBegin
  2
*Paper_Space
 70
0
 10
0.0
 20
0.0
 30
0.0
  3
*Paper_Space
  1

  0
ENDBLK
  5
1D
330
1B
100
AcDbEntity
  8
0
100
AcDbBlockEnd
  0
ENDSEC
  0
SECTION
  2
ENTITIES
  0
LWPOLYLINE
  5
31
330
17
100
AcDbEntity
  8
CUT
100
AcDbPolyline
 90
18
 70
1
 10
10.16
 20
30.94
 10
12.84
 20
30.94
 10
12.84
 20
28.94
 10
19.04
 20
28.94
 10
19.04
 20
15.877
 10
16.215
 20
14.262
 10
12.84
 20
13.468
 10
12.84
 20
9.94
 10
14.99
 20
9.94
 10
14.99
 20
3.96
 10
8.01
 20
3.96
 10
8.01
 20
9.94
 10
10.16
 20
9.94
 10
10.16
 20
13.466
 10
5.48
 20
14.263
 10
3.96
 20
15.884
 10
3.96
 20
28.94
 10
10.16
 20
28.94
  0
HATCH
  5
32
330
17
100
AcDbEntity
  8
RASTER
 62
7
100
AcDbHatch
 10
0.0
 20
0.0
 30
0.0
210
0.0
220
0.0
230
1.0
  2
SOLID
 70
1
 71
0
 91
1
 92
3
 72
0
 73
1
 93
4
 10
4.0
 20
28.3
 10
19.0
 20
28.3
 10
19.0
 20
27.8
 10
4.0
 20
27.8
 97
0
 75
0
 76
1
 98
0
  0
HATCH
  5
33
330
17
100
AcDbEntity
  8
RASTER
 62
7
100
AcDbHatch
 10
0.0
 20
0.0
 30
0.0
210
0.0
220
0.0
230
1.0
  2
SOLID
 70
1
 71
0
 91
4
 92
3
 72
0
 73
1
 93
45
 10
11.183
 20
26.49
 10
11.751
 20
26.5
 10
12.437
 20
26.382
 10
12.857
 20
26.224
 10
13.292
 20
25.955
 10
13.543
 20
25.728
 10
13.88
 20
25.211
 10
14.124
 20
24.575
 10
14.214
 20
24.062
 10
14.149
 20
23.499
 10
13.729
 20
22.587
 10
13.712
 20
22.303
 10
13.812
 20
21.876
 10
13.737
 20
21.599
 10
13.611
 20
21.474
 10
13.42
 20
21.388
 10
12.684
 20
21.27
 10
12.581
 20
21.097
 10
12.656
 20
20.619
 10
12.613
 20
20.461
 10
12.294
 20
20.278
 10
11.676
 20
20.167
 10
11.299
 20
20.167
 10
10.864
 20
20.235
 10
10.445
 20
20.393
 10
10.344
 20
20.494
 10
10.319
 20
20.594
 10
10.394
 20
20.996
 10
10.362
 20
21.215
 10
10.201
 20
21.305
 10
9.575
 20
21.383
 10
9.296
 20
21.532
 10
9.188
 20
21.801
 10
9.206
 20
22.059
 10
9.288
 20
22.328
 10
9.248
 20
22.615
 10
8.944
 20
23.215
 10
8.786
 20
23.761
 10
8.786
 20
24.188
 10
8.876
 20
24.625
 10
9.12
 20
25.236
 10
9.381
 20
25.653
 10
9.819
 20
26.045
 10
10.226
 20
26.266
 10
10.661
 20
26.41
 97
0
 92
3
 72
0
 73
1
 93
15
 10
10.427
 20
23.175
 10
10.068
 20
23.082
 10
9.909
 20
22.964
 10
9.751
 20
22.695
 10
9.718
 20
22.507
 10
9.774
 20
22.311
 10
9.884
 20
22.17
 10
10.083
 20
22.067
 10
10.52
 20
22.077
 10
10.736
 20
22.137
 10
10.93
 20
22.27
 10
11.088
 20
22.565
 10
11.083
 20
22.841
 10
10.965
 20
23.05
 10
10.756
 20
23.168
 97
0
 92
3
 72
0
 73
1
 93
14
 10
12.261
 20
23.175
 10
12.07
 20
23.09
 10
11.912
 20
22.871
 10
11.912
 20
22.539
 10
12.045
 20
22.296
 10
12.314
 20
22.112
 10
12.706
 20
22.052
 10
12.917
 20
22.067
 10
13.141
 20
22.195
 10
13.244
 20
22.394
 10
13.259
 20
22.58
 10
13.116
 20
22.914
 10
12.958
 20
23.057
 10
12.767
 20
23.143
 97
0
 92
3
 72
0
 73
1
 93
70
 10
8.394
 20
20.961
 10
8.617
 20
20.954
 10
8.811
 20
20.871
 10
9.256
 20
20.411
 10
9.675
 20
20.127
 10
11.475
 20
19.363
 10
11.895
 20
19.496
 10
13.407
 20
20.17
 10
13.744
 20
20.411
 10
14.131
 20
20.828
 10
14.272
 20
20.913
 10
14.491
 20
20.971
 10
14.717
 20
20.921
 10
14.85
 20
20.702
 10
14.857
 20
20.408
 10
15.026
 20
20.275
 10
15.111
 20
20.134
 10
15.109
 20
19.875
 10
15.001
 20
19.732
 10
14.719
 20
19.612
 10
14.29
 20
19.614
 10
13.772
 20
19.529
 10
12.573
 20
19.019
 10
12.53
 20
18.936
 10
12.591
 20
18.845
 10
13.696
 20
18.368
 10
14.239
 20
18.257
 10
14.802
 20
18.242
 10
15.001
 20
18.139
 10
15.109
 20
17.996
 10
15.109
 20
17.739
 10
15.026
 20
17.596
 10
14.857
 20
17.463
 10
14.817
 20
17.076
 10
14.626
 20
16.915
 10
14.491
 20
16.9
 10
14.272
 20
16.958
 10
14.106
 20
17.068
 10
13.719
 20
17.486
 10
13.458
 20
17.677
 10
11.668
 20
18.476
 10
11.45
 20
18.508
 10
9.542
 20
17.677
 10
9.281
 20
17.486
 10
8.894
 20
17.068
 10
8.728
 20
16.958
 10
8.509
 20
16.9
 10
8.286
 20
16.953
 10
8.15
 20
17.169
 10
8.143
 20
17.463
 10
7.974
 20
17.596
 10
7.891
 20
17.739
 10
7.891
 20
17.996
 10
7.999
 20
18.139
 10
8.198
 20
18.242
 10
8.761
 20
18.257
 10
9.304
 20
18.368
 10
10.409
 20
18.845
 10
10.47
 20
18.936
 10
10.427
 20
19.019
 10
9.228
 20
19.529
 10
8.71
 20
19.614
 10
8.281
 20
19.612
 10
7.999
 20
19.732
 10
7.891
 20
19.875
 10
7.889
 20
20.134
 10
7.974
 20
20.275
 10
8.143
 20
20.408
 10
8.132
 20
20.594
 10
8.208
 20
20.846
 97
0
 75
0
 76
1
 98
0
  0
LWPOLYLINE
  5
34
330
17
100
AcDbEntity
  8
CUT
100
AcDbPolyline
 90
18
 70
1
 10
27.66
 20
30.94
 10
30.34
 20
30.94
 10
30.34
 20
28.94
 10
35.04
 20
28.94
 10
35.04
 20
17.877
 10
32.218
 20
16.264
 10
30.34
 20
15.473
 10
30.34
 20
11.94
 10
32.49
 20
11.94
 10
32.49
 20
5.96
 10
25.51
 20
5.96
 10
25.51
 20
11.94
 10
27.66
 20
11.94
 10
27.66
 20
15.469
 10
24.479
 20
16.264
 10
22.96
 20
17.884
 10
22.96
 20
28.94
 10
27.66
 20
28.94
  0
HATCH
  5
35
330
17
100
AcDbEntity
  8
RASTER
 62
7
100
AcDbHatch
 10
0.0
 20
0.0
 30
0.0
210
0.0
220
0.0
230
1.0
  2
SOLID
 70
1
 71
0
 91
1
 92
3
 72
0
 73
1
 93
4
 10
23.0
 20
28.3
 10
35.0
 20
28.3
 10
35.0
 20
27.8
 10
23.0
 20
27.8
 97
0
 75
0
 76
1
 98
0
  0
HATCH
  5
36
330
17
100
AcDbEntity
  8
RASTER
 62
7
100
AcDbHatch
 10
0.0
 20
0.0
 30
0.0
210
0.0
220
0.0
230
1.0
  2
SOLID
 70
1
 71
0
 91
4
 92
3
 72
0
 73
1
 93
45
 10
28.749
 20
26.492
 10
29.199
 20
26.5
 10
29.742
 20
26.406
 10
30.074
 20
26.281
 10
30.419
 20
26.068
 10
30.617
 20
25.889
 10
30.884
 20
25.479
 10
31.077
 20
24.976
 10
31.149
 20
24.57
 10
31.097
 20
24.125
 10
30.765
 20
23.402
 10
30.751
 20
23.177
 10
30.83
 20
22.839
 10
30.771
 20
22.62
 10
30.671
 20
22.521
 10
30.52
 20
22.453
 10
29.937
 20
22.36
 10
29.855
 20
22.223
 10
29.915
 20
21.845
 10
29.881
 20
21.719
 10
29.629
 20
21.574
 10
29.139
 20
21.486
 10
28.841
 20
21.486
 10
28.497
 20
21.54
 10
28.164
 20
21.665
 10
28.085
 20
21.745
 10
28.065
 20
21.825
 10
28.125
 20
22.143
 10
28.099
 20
22.316
 10
27.971
 20
22.388
 10
27.476
 20
22.449
 10
27.255
 20
22.567
 10
27.17
 20
22.78
 10
27.184
 20
22.985
 10
27.249
 20
23.197
 10
27.217
 20
23.424
 10
26.977
 20
23.9
 10
26.851
 20
24.331
 10
26.851
 20
24.67
 10
26.923
 20
25.016
 10
27.116
 20
25.499
 10
27.323
 20
25.83
 10
27.669
 20
26.14
 10
27.991
 20
26.315
 10
28.335
 20
26.428
 97
0
 92
3
 72
0
 73
1
 93
15
 10
28.15
 20
23.868
 10
27.866
 20
23.794
 10
27.741
 20
23.701
 10
27.615
 20
23.488
 10
27.589
 20
23.339
 10
27.633
 20
23.183
 10
27.721
 20
23.072
 10
27.878
 20
22.99
 10
28.224
 20
22.998
 10
28.395
 20
23.046
 10
28.548
 20
23.152
 10
28.674
 20
23.384
 10
28.67
 20
23.603
 10
28.576
 20
23.768
 10
28.411
 20
23.862
 97
0
 92
3
 72
0
 73
1
 93
14
 10
29.603
 20
23.868
 10
29.452
 20
23.8
 10
29.326
 20
23.627
 10
29.326
 20
23.365
 10
29.432
 20
23.172
 10
29.645
 20
23.026
 10
29.955
 20
22.979
 10
30.122
 20
22.99
 10
30.299
 20
23.092
 10
30.381
 20
23.249
 10
30.393
 20
23.396
 10
30.279
 20
23.661
 10
30.154
 20
23.774
 10
30.003
 20
23.842
 97
0
 92
3
 72
0
 73
1
 93
70
 10
26.541
 20
22.115
 10
26.718
 20
22.109
 10
26.871
 20
22.043
 10
27.223
 20
21.679
 10
27.556
 20
21.455
 10
28.98
 20
20.85
 10
29.312
 20
20.955
 10
30.51
 20
21.488
 10
30.777
 20
21.679
 10
31.083
 20
22.01
 10
31.194
 20
22.077
 10
31.368
 20
22.123
 10
31.547
 20
22.083
 10
31.652
 20
21.91
 10
31.658
 20
21.677
 10
31.791
 20
21.572
 10
31.859
 20
21.461
 10
31.857
 20
21.256
 10
31.771
 20
21.142
 10
31.549
 20
21.047
 10
31.208
 20
21.049
 10
30.799
 20
20.981
 10
29.85
 20
20.577
 10
29.816
 20
20.512
 10
29.863
 20
20.44
 10
30.739
 20
20.062
 10
31.169
 20
19.974
 10
31.614
 20
19.962
 10
31.771
 20
19.881
 10
31.857
 20
19.767
 10
31.857
 20
19.565
 10
31.791
 20
19.451
 10
31.658
 20
19.346
 10
31.626
 20
19.039
 10
31.475
 20
18.912
 10
31.368
 20
18.9
 10
31.194
 20
18.946
 10
31.063
 20
19.033
 10
30.757
 20
19.364
 10
30.55
 20
19.515
 10
29.133
 20
20.147
 10
28.96
 20
20.173
 10
27.45
 20
19.515
 10
27.243
 20
19.364
 10
26.937
 20
19.033
 10
26.806
 20
18.946
 10
26.632
 20
18.9
 10
26.455
 20
18.942
 10
26.348
 20
19.113
 10
26.342
 20
19.346
 10
26.209
 20
19.451
 10
26.143
 20
19.565
 10
26.143
 20
19.767
 10
26.229
 20
19.881
 10
26.386
 20
19.962
 10
26.831
 20
19.974
 10
27.261
 20
20.062
 10
28.137
 20
20.44
 10
28.184
 20
20.512
 10
28.15
 20
20.577
 10
27.201
 20
20.981
 10
26.792
 20
21.049
 10
26.451
 20
21.047
 10
26.229
 20
21.142
 10
26.143
 20
21.256
 10
26.141
 20
21.461
 10
26.209
 20
21.572
 10
26.342
 20
21.677
 10
26.334
 20
21.825
 10
26.394
 20
22.024
 97
0
 75
0
 76
1
 98
0
  0
ENDSEC
  0
SECTION
  2
OBJECTS
  0
DICTIONARY
  5
A
330
0
100
AcDbDictionary
281
1
  3
ACAD_COLOR
350
B
  3
ACAD_GROUP
350
C
  3
ACAD_LAYOUT
350
D
  3
ACAD_MATERIAL
350
E
  3
ACAD_MLEADERSTYLE
350
F
  3
ACAD_MLINESTYLE
350
10
  3
ACAD_PLOTSETTINGS
350
11
  3
ACAD_PLOTSTYLENAME
350
12
  3
ACAD_SCALELIST
350
14
  3
ACAD_TABLESTYLE
350
15
  3
ACAD_VISUALSTYLE
350
16
  3
EZDXF_META
350
2D
  0
DICTIONARY
  5
B
330
A
100
AcDbDictionary
281
1
  0
DICTIONARY
  5
C
330
A
100
AcDbDictionary
281
1
  0
DICTIONARY
  5
D
330
A
100
AcDbDictionary
281
1
  3
Model
350
1A
  3
Layout1
350
1E
  0
DICTIONARY
  5
E
330
A
100
AcDbDictionary
281
1
  3
ByBlock
350
1F
  3
ByLayer
350
20
  3
Global
350
21
  0
DICTIONARY
  5
F
330
A
100
AcDbDictionary
281
1
  3
Standard
350
2C
  0
DICTIONARY
  5
10
330
A
100
AcDbDictionary
281
1
  3
Standard
350
22
  0
DICTIONARY
  5
11
330
A
100
AcDbDictionary
281
1
  0
ACDBDICTIONARYWDFLT
  5
12
330
A
100
AcDbDictionary
281
1
  3
Normal
350
13
100
AcDbDictionaryWithDefault
340
13
  0
ACDBPLACEHOLDER
  5
13
330
12
  0
DICTIONARY
  5
14
330
A
100
AcDbDictionary
281
1
  0
DICTIONARY
  5
15
330
A
100
AcDbDictionary
281
1
  0
DICTIONARY
  5
16
330
A
100
AcDbDictionary
281
1
  0
LAYOUT
  5
1A
330
D
100
AcDbPlotSettings
  1

  4
A3
  6

 40
7.5
 41
20.0
 42
7.5
 43
20.0
 44
420.0
 45
297.0
 46
0.0
 47
0.0
 48
0.0
 49
0.0
140
0.0
141
0.0
142
1.0
143
1.0
 70
1024
 72
1
 73
0
 74
5
  7

 75
16
 76
0
 77
2
 78
300
147
1.0
148
0.0
149
0.0
100
AcDbLayout
  1
Model
 70
1
 71
0
 10
0.0
 20
0.0
 11
420.0
 21
297.0
 12
0.0
 22
0.0
 32
0.0
 14
1e+20
 24
1e+20
 34
1e+20
 15
-1e+20
 25
-1e+20
 35
-1e+20
146
0.0
 13
0.0
 23
0.0
 33
0.0
 16
1.0
 26
0.0
 36
0.0
 17
0.0
 27
1.0
 37
0.0
 76
1
330
17
  0
LAYOUT
  5
1E
330
D
100
AcDbPlotSettings
  1

  4
A3
  6

 40
7.5
 41
20.0
 42
7.5
 43
20.0
 44
420.0
 45
297.0
 46
0.0
 47
0.0
 48
0.0
 49
0.0
140
0.0
141
0.0
142
1.0
143
1.0
 70
0
 72
1
 73
0
 74
5
  7

 75
16
 76
0
 77
2
 78
300
147
1.0
148
0.0
149
0.0
100
AcDbLayout
  1
Layout1
 70
1
 71
1
 10
0.0
 20
0.0
 11
420.0
 21
297.0
 12
0.0
 22
0.0
 32
0.0
 14
1e+20
 24
1e+20
 34
1e+20
 15
-1e+20
 25
-1e+20
 35
-1e+20
146
0.0
 13
0.0
 23
0.0
 33
0.0
 16
1.0
 26
0.0
 36
0.0
 17
0.0
 27
1.0
 37
0.0
 76
1
330
1B
  0
MATERIAL
  5
1F
102
{ACAD_REACTORS
330
E
102
}
330
E
100
AcDbMaterial
  1
ByBlock
  2

 70
0
 40
1.0
 71
1
 41
1.0
 91
-1023410177
 42
1.0
 72
1
  3

 73
1
 74
1
 75
1
 44
0.5
 73
0
 45
1.0
 46
1.0
 77
1
  4

 78
1
 79
1
170
1
 48
1.0
171
1
  6

172
1
173
1
174
1
140
1.0
141
1.0
175
1
  7

176
1
177
1
178
1
143
1.0
179
1
  8

270
1
271
1
272
1
145
1.0
146
1.0
273
1
  9

274
1
275
1
276
1
 42
1.0
 72
1
  3

 73
1
 74
1
 75
1
 94
63
  0
MATERIAL
  5
20
102
{ACAD_REACTORS
330
E
102
}
330
E
100
AcDbMaterial
  1
ByLayer
  2

 70
0
 40
1.0
 71
1
 41
1.0
 91
-1023410177
 42
1.0
 72
1
  3

 73
1
 74
1
 75
1
 44
0.5
 73
0
 45
1.0
 46
1.0
 77
1
  4

 78
1
 79
1
170
1
 48
1.0
171
1
  6

172
1
173
1
174
1
140
1.0
141
1.0
175
1
  7

176
1
177
1
178
1
143
1.0
179
1
  8

270
1
271
1
272
1
145
1.0
146
1.0
273
1
  9

274
1
275
1
276
1
 42
1.0
 72
1
  3

 73
1
 74
1
 75
1
 94
63
  0
MATERIAL
  5
21
102
{ACAD_REACTORS
330
E
102
}
330
E
100
AcDbMaterial
  1
Global
  2

 70
0
 40
1.0
 71
1
 41
1.0
 91
-1023410177
 42
1.0
 72
1
  3

 73
1
 74
1
 75
1
 44
0.5
 73
0
 45
1.0
 46
1.0
 77
1
  4

 78
1
 79
1
170
1
 48
1.0
171
1
  6

172
1
173
1
174
1
140
1.0
141
1.0
175
1
  7

176
1
177
1
178
1
143
1.0
179
1
  8

270
1
271
1
272
1
145
1.0
146
1.0
273
1
  9

274
1
275
1
276
1
 42
1.0
 72
1
  3

 73
1
 74
1
 75
1
 94
63
  0
MLINESTYLE
  5
22
102
{ACAD_REACTORS
330
10
102
}
330
10
100
AcDbMlineStyle
  2
Standard
 70
0
  3

 62
256
 51
90.0
 52
90.0
 71
2
 49
0.5
 62
256
  6
BYLAYER
 49
-0.5
 62
256
  6
BYLAYER
  0
MLEADERSTYLE
  5
2C
102
{ACAD_REACTORS
330
F
102
}
330
F
100
AcDbMLeaderStyle
179
2
170
2
171
1
172
0
 90
2
 40
0.0
 41
0.0
173
1
 91
-1056964608
 92
-2
290
1
 42
2.0
291
1
 43
8.0
  3
Standard
 44
4.0
300

342
29
174
1
175
1
176
0
178
1
 93
-1056964608
 45
4.0
292
0
297
0
 46
4.0
 94
-1056964608
 47
1.0
 49
1.0
140
1.0
294
1
141
0.0
177
0
142
1.0
295
0
296
0
143
3.75
271
0
272
9
273
9
  0
DICTIONARY
  5
2D
330
A
100
AcDbDictionary
280
1
281
1
  3
CREATED_BY_EZDXF
350
2E
  3
WRITTEN_BY_EZDXF
350
39
  0
DICTIONARYVAR
  5
2E
330
2D
100
DictionaryVariables
280
0
  1
1.4.2 @ 2026-08-25T23:57:12.859396+00:00
  0
DICTIONARYVAR
  5
39
330
2D
100
DictionaryVariables
280
0
  1
1.4.2 @ 2026-08-25T23:57:12.860103+00:00
  0
ENDSEC
  0
EOF
