  0
SECTION
  2
HEADER
  9
$ACADVER
  1
AC1015
  9
$ACADMAINTVER
 70
6
  9
$DWGCODEPAGE
  3
ANSI_1252
  9
$INSBASE
 10
0.0
 20
0.0
 30
0.0
  9
$EXTMIN
 10
1e+20
 20
1e+20
 30
1e+20
  9
$EXTMAX
 10
-1e+20
 20
-1e+20
 30
-1e+20
  9
$LIMMIN
 10
0.0
 20
0.0
  9
$LIMMAX
 10
420.0
 20
297.0
  9
$ORTHOMODE
 70
0
  9
$REGENMODE
 70
1
  9
$FILLMODE
 70
1
  9
$QTEXTMODE
 70
0
  9
$MIRRTEXT
 70
1
  9
$LTSCALE
 40
1.0
  9
$ATTMODE
 70
1
  9
$TEXTSIZE
 40
2.5
  9
$TRACEWID
 40
1.0
  9
$TEXTSTYLE
  7
Standard
  9
$CLAYER
  8
0
  9
$CELTYPE
  6
ByLayer
  9
$CECOLOR
 62
256
  9
$CELTSCALE
 40
1.0
  9
$DISPSILH
 70
0
  9
$DIMSCALE
 40
1.0
  9
$DIMASZ
 40
2.5
  9
$DIMEXO
 40
0.625
  9
$DIMDLI
 40
3.75
  9
$DIMRND
 40
0.0
  9
$DIMDLE
 40
0.0
  9
$DIMEXE
 40
1.25
  9
$DIMTP
 40
0.0
  9
$DIMTM
 40
0.0
  9
$DIMTXT
 40
2.5
  9
$DIMCEN
 40
2.5
  9
$DIMTSZ
 40
0.0
  9
$DIMTOL
 70
0
  9
$DIMLIM
 70
0
  9
$DIMTIH
 70
0
  9
$DIMTOH
 70
0
  9
$DIMSE1
 70
0
  9
$DIMSE2
 70
0
  9
$DIMTAD
 70
1
  9
$DIMZIN
 70
8
  9
$DIMBLK
  1

  9
$DIMASO
 70
1
  9
$DIMSHO
 70
1
  9
$DIMPOST
  1

  9
$DIMAPOST
  1

  9
$DIMALT
 70
0
  9
$DIMALTD
 70
3
  9
$DIMALTF
 40
0.03937007874
  9
$DIMLFAC
 40
1.0
  9
$DIMTOFL
 70
1
  9
$DIMTVP
 40
0.0
  9
$DIMTIX
 70
0
  9
$DIMSOXD
 70
0
  9
$DIMSAH
 70
0
  9
$DIMBLK1
  1

  9
$DIMBLK2
  1

  9
$DIMSTYLE
  2
ISO-25
  9
$DIMCLRD
 70
0
  9
$DIMCLRE
 70
0
  9
$DIMCLRT
 70
0
  9
$DIMTFAC
 40
1.0
  9
$DIMGAP
 40
0.625
  9
$DIMJUST
 70
0
  9
$DIMSD1
 70
0
  9
$DIMSD2
 70
0
  9
$DIMTOLJ
 70
0
  9
$DIMTZIN
 70
8
  9
$DIMALTZ
 70
0
  9
$DIMALTTZ
 70
0
  9
$DIMUPT
 70
0
  9
$DIMDEC
 70
2
  9
$DIMTDEC
 70
2
  9
$DIMALTU
 70
2
  9
$DIMALTTD
 70
3
  9
$DIMTXSTY
  7
Standard
  9
$DIMAUNIT
 70
0
  9
$DIMADEC
 70
0
  9
$DIMALTRND
 40
0.0
  9
$DIMAZIN
 70
0
  9
$DIMDSEP
 70
44
  9
$DIMATFIT
 70
3
  9
$DIMFRAC
 70
0
  9
$DIMLDRBLK
  1

  9
$DIMLUNIT
 70
2
  9
$DIMLWD
 70
-2
  9
$DIMLWE
 70
-2
  9
$DIMTMOVE
 70
0
  9
$LUNITS
 70
2
  9
$LUPREC
 70
4
  9
$SKETCHINC
 40
1.0
  9
$FILLETRAD
 40
10.0
  9
$AUNITS
 70
0
  9
$AUPREC
 70
2
  9
$MENU
  1
.
  9
$ELEVATION
 40
0.0
  9
$PELEVATION
 40
0.0
  9
$THICKNESS
 40
0.0
  9
$LIMCHECK
 70
0
  9
$CHAMFERA
 40
0.0
  9
$CHAMFERB
 40
0.0
  9
$CHAMFERC
 40
0.0
  9
$CHAMFERD
 40
0.0
  9
$SKPOLY
 70
0
  9
$TDCREATE
 40
2461278.831388889
  9
$TDUCREATE
 40
2458532.153996898
  9
$TDUPDATE
 40
2461278.831388889
  9
$TDUUPDATE
 40
2458532.1544311
  9
$TDINDWG
 40
0.0
  9
$TDUSRTIMER
 40
0.0
  9
$USRTIMER
 70
1
  9
$ANGBASE
 50
0.0
  9
$ANGDIR
 70
0
  9
$PDMODE
 70
0
  9
$PDSIZE
 40
0.0
  9
$PLINEWID
 40
0.0
  9
$SPLFRAME
 70
0
  9
$SPLINETYPE
 70
6
  9
$SPLINESEGS
 70
8
  9
$HANDSEED
  5
68
  9
$SURFTAB1
 70
6
  9
$SURFTAB2
 70
6
  9
$SURFTYPE
 70
6
  9
$SURFU
 70
6
  9
$SURFV
 70
6
  9
$UCSBASE
  2

  9
$UCSNAME
  2

  9
$UCSORG
 10
0.0
 20
0.0
 30
0.0
  9
$UCSXDIR
 10
1.0
 20
0.0
 30
0.0
  9
$UCSYDIR
 10
0.0
 20
1.0
 30
0.0
  9
$UCSORTHOREF
  2

  9
$UCSORTHOVIEW
 70
0
  9
$UCSORGTOP
 10
0.0
 20
0.0
 30
0.0
  9
$UCSORGBOTTOM
 10
0.0
 20
0.0
 30
0.0
  9
$UCSORGLEFT
 10
0.0
 20
0.0
 30
0.0
  9
$UCSORGRIGHT
 10
0.0
 20
0.0
 30
0.0
  9
$UCSORGFRONT
 10
0.0
 20
0.0
 30
0.0
  9
$UCSORGBACK
 10
0.0
 20
0.0
 30
0.0
  9
$PUCSBASE
  2

  9
$PUCSNAME
  2

  9
$PUCSORG
 10
0.0
 20
0.0
 30
0.0
  9
$PUCSXDIR
 10
1.0
 20
0.0
 30
0.0
  9
$PUCSYDIR
 10
0.0
 20
1.0
 30
0.0
  9
$PUCSORTHOREF
  2

  9
$PUCSORTHOVIEW
 70
0
  9
$PUCSORGTOP
 10
0.0
 20
0.0
 30
0.0
  9
$PUCSORGBOTTOM
 10
0.0
 20
0.0
 30
0.0
  9
$PUCSORGLEFT
 10
0.0
 20
0.0
 30
0.0
  9
$PUCSORGRIGHT
 10
0.0
 20
0.0
 30
0.0
  9
$PUCSORGFRONT
 10
0.0
 20
0.0
 30
0.0
  9
$PUCSORGBACK
 10
0.0
 20
0.0
 30
0.0
  9
$USERI1
 70
0
  9
$USERI2
 70
0
  9
$USERI3
 70
0
  9
$USERI4
 70
0
  9
$USERI5
 70
0
  9
$USERR1
 40
0.0
  9
$USERR2
 40
0.0
  9
$USERR3
 40
0.0
  9
$USERR4
 40
0.0
  9
$USERR5
 40
0.0
  9
$WORLDVIEW
 70
1
  9
$SHADEDGE
 70
3
  9
$SHADEDIF
 70
70
  9
$TILEMODE
 70
1
  9
$MAXACTVP
 70
64
  9
$PINSBASE
 10
0.0
 20
0.0
 30
0.0
  9
$PLIMCHECK
 70
0
  9
$PEXTMIN
 10
1e+20
 20
1e+20
 30
1e+20
  9
$PEXTMAX
 10
-1e+20
 20
-1e+20
 30
-1e+20
  9
$PLIMMIN
 10
0.0
 20
0.0
  9
$PLIMMAX
 10
420.0
 20
297.0
  9
$UNITMODE
 70
0
  9
$VISRETAIN
 70
1
  9
$PLINEGEN
 70
0
  9
$PSLTSCALE
 70
1
  9
$TREEDEPTH
 70
3020
  9
$CMLSTYLE
  2
Standard
  9
$CMLJUST
 70
0
  9
$CMLSCALE
 40
20.0
  9
$PROXYGRAPHICS
 70
1
  9
$MEASUREMENT
 70
1
  9
$CELWEIGHT
370
-1
  9
$ENDCAPS
280
0
  9
$JOINSTYLE
280
0
  9
$LWDISPLAY
290
0
  9
$INSUNITS
 70
4
  9
$HYPERLINKBASE
  1

  9
$STYLESHEET
  1

  9
$XEDIT
290
1
  9
$CEPSNTYPE
380
0
  9
$PSTYLEMODE
290
1
  9
$FINGERPRINTGUID
  2
{660EFFCE-75F2-4196-A938-CB9D818DAD77}
  9
$VERSIONGUID
  2
{2E7A5F67-DBC4-4461-91C2-2AB51F6D3890}
  9
$EXTNAMES
290
1
  9
$PSVPSCALE
 40
0.0
  9
$OLESTARTUP
290
0
  0
ENDSEC
  0
SECTION
  2
CLASSES
  0
CLASS
  1
ACDBDICTIONARYWDFLT
  2
AcDbDictionaryWithDefault
  3
ObjectDBX Classes
 90
0
280
0
281
0
  0
CLASS
  1
SUN
  2
AcDbSun
  3
SCENEOE
 90
1153
280
0
281
0
  0
CLASS
  1
VISUALSTYLE
  2
AcDbVisualStyle
  3
ObjectDBX Classes
 90
4095
280
0
281
0
  0
CLASS
  1
MATERIAL
  2
AcDbMaterial
  3
ObjectDBX Classes
 90
1153
280
0
281
0
  0
CLASS
  1
SCALE
  2
AcDbScale
  3
ObjectDBX Classes
 90
1153
280
0
281
0
  0
CLASS
  1
TABLESTYLE
  2
AcDbTableStyle
  3
ObjectDBX Classes
 90
4095
280
0
281
0
  0
CLASS
  1
MLEADERSTYLE
  2
AcDbMLeaderStyle
  3
ACDB_MLEADERSTYLE_CLASS
 90
4095
280
0
281
0
  0
CLASS
  1
DICTIONARYVAR
  2
AcDbDictionaryVar
  3
ObjectDBX Classes
 90
0
280
0
281
0
  0
CLASS
  1
CELLSTYLEMAP
  2
AcDbCellStyleMap
  3
ObjectDBX Classes
 90
1152
280
0
281
0
  0
CLASS
  1
MENTALRAYRENDERSETTINGS
  2
AcDbMentalRayRenderSettings
  3
SCENEOE
 90
1024
280
0
281
0
  0
CLASS
  1
ACDBDETAILVIEWSTYLE
  2
AcDbDetailViewStyle
  3
ObjectDBX Classes
 90
1025
280
0
281
0
  0
CLASS
  1
ACDBSECTIONVIEWSTYLE
  2
AcDbSectionViewStyle
  3
ObjectDBX Classes
 90
1025
280
0
281
0
  0
CLASS
  1
RASTERVARIABLES
  2
AcDbRasterVariables
  3
ISM
 90
0
280
0
281
0
  0
CLASS
  1
ACDBPLACEHOLDER
  2
AcDbPlaceHolder
  3
ObjectDBX Classes
 90
0
280
0
281
0
  0
CLASS
  1
LAYOUT
  2
AcDbLayout
  3
ObjectDBX Classes
 90
0
280
0
281
0
  0
ENDSEC
  0
SECTION
  2
TABLES
  0
TABLE
  2
VPORT
  5
8
330
0
100
AcDbSymbolTable
 70
1
  0
VPORT
  5
23
330
8
100
AcDbSymbolTableRecord
100
AcDbViewportTableRecord
  2
*Active
 70
0
 10
0.0
 20
0.0
 11
1.0
 21
1.0
 12
0.0
 22
0.0
 13
0.0
 23
0.0
 14
0.5
 24
0.5
 15
0.5
 25
0.5
 16
0.0
 26
0.0
 36
1.0
 17
0.0
 27
0.0
 37
0.0
 40
1000.0
 41
1.34
 42
50.0
 43
0.0
 44
0.0
 50
0.0
 51
0.0
 71
0
 72
1000
 73
1
 74
3
 75
0
 76
0
 77
0
 78
0
281
0
 65
0
146
0.0
  0
ENDTAB
  0
TABLE
  2
LTYPE
  5
2
330
0
100
AcDbSymbolTable
 70
3
  0
LTYPE
  5
24
330
2
100
AcDbSymbolTableRecord
100
AcDbLinetypeTableRecord
  2
ByBlock
 70
0
  3

 72
65
 73
0
 40
0.0
  0
LTYPE
  5
25
330
2
100
AcDbSymbolTableRecord
100
AcDbLinetypeTableRecord
  2
ByLayer
 70
0
  3

 72
65
 73
0
 40
0.0
  0
LTYPE
  5
26
330
2
100
AcDbSymbolTableRecord
100
AcDbLinetypeTableRecord
  2
Continuous
 70
0
  3

 72
65
 73
0
 40
0.0
  0
ENDTAB
  0
TABLE
  2
LAYER
  5
1
330
0
100
AcDbSymbolTable
 70
4
  0
LAYER
  5
27
330
1
100
AcDbSymbolTableRecord
100
AcDbLayerTableRecord
  2
0
 70
0
 62
7
  6
Continuous
370
-3
390
13
  0
LAYER
  5
28
330
1
100
AcDbSymbolTableRecord
100
AcDbLayerTableRecord
  2
Defpoints
 70
0
 62
7
  6
Continuous
290
0
370
-3
390
13
  0
LAYER
  5
2F
330
1
100
AcDbSymbolTableRecord
100
AcDbLayerTableRecord
  2
CUT
 70
0
 62
1
  6
Continuous
370
-3
390
13
  0
LAYER
  5
30
330
1
100
AcDbSymbolTableRecord
100
AcDbLayerTableRecord
  2
RASTER
 70
0
 62
7
  6
Continuous
370
-3
390
13
  0
ENDTAB
  0
TABLE
  2
STYLE
  5
5
330
0
100
AcDbSymbolTable
 70
1
  0
STYLE
  5
29
330
5
100
AcDbSymbolTableRecord
100
AcDbTextStyleTableRecord
  2
Standard
 70
0
 40
0.0
 41
1.0
 50
0.0
 71
0
 42
2.5
  3
txt
  4

  0
ENDTAB
  0
TABLE
  2
VIEW
  5
7
330
0
100
AcDbSymbolTable
 70
0
  0
ENDTAB
  0
TABLE
  2
UCS
  5
6
330
0
100
AcDbSymbolTable
 70
0
  0
ENDTAB
  0
TABLE
  2
APPID
  5
3
330
0
100
AcDbSymbolTable
 70
3
  0
APPID
  5
2A
330
3
100
AcDbSymbolTableRecord
100
AcDbRegAppTableRecord
  2
ACAD
 70
0
  0
APPID
  5
65
330
3
100
AcDbSymbolTableRecord
100
AcDbRegAppTableRecord
  2
HATCHBACKGROUNDCOLOR
 70
0
  0
APPID
  5
66
330
3
100
AcDbSymbolTableRecord
100
AcDbRegAppTableRecord
  2
EZDXF
 70
0
  0
ENDTAB
  0
TABLE
  2
DIMSTYLE
  5
4
330
0
100
AcDbSymbolTable
 70
1
100
AcDbDimStyleTable
  0
DIMSTYLE
105
2B
330
4
100
AcDbSymbolTableRecord
100
AcDbDimStyleTableRecord
  2
Standard
 70
0
  3

  4

 40
1.0
 41
2.5
 42
0.625
 43
3.75
 44
1.25
 45
0.0
 46
0.0
 47
0.0
 48
0.0
140
2.5
141
2.5
142
0.0
143
0.03937007874
144
1.0
145
0.0
146
1.0
147
0.625
148
0.0
 71
0
 72
0
 73
0
 74
0
 75
0
 76
0
 77
1
 78
8
 79
3
170
0
171
3
172
1
173
0
174
0
175
0
176
0
177
0
178
0
179
2
271
2
272
2
273
2
274
3
275
0
276
0
277
2
278
44
279
0
280
0
281
0
282
0
283
0
284
8
285
0
286
0
288
0
289
3
371
-2
372
-2
  0
ENDTAB
  0
TABLE
  2
BLOCK_RECORD
  5
9
330
0
100
AcDbSymbolTable
 70
2
  0
BLOCK_RECORD
  5
17
330
9
100
AcDbSymbolTableRecord
100
AcDbBlockTableRecord
  2
*Model_Space
340
1A
  0
BLOCK_RECORD
  5
1B
330
9
100
AcDbSymbolTableRecord
100
AcDbBlockTableRecord
  2
*Paper_Space
340
1E
  0
ENDTAB
  0
ENDSEC
  0
SECTION
  2
BLOCKS
  0
BLOCK
  5
18
330
17
100
AcDbEntity
  8
0
100
AcDbBlockBegin
  2
*Model_Space
 70
0
 10
0.0
 20
0.0
 30
0.0
  3
*Model_Space
  1

  0
ENDBLK
  5
19
330
17
100
AcDbEntity
  8
0
100
AcDbBlockEnd
  0
BLOCK
  5
1C
330
1B
100
AcDbEntity
  8
0
100
AcDbBlockBegin
  2
*Paper_Space
 70
0
 10
0.0
 20
0.0
 30
0.0
  3
*Paper_Space
  1

  0
ENDBLK
  5
1D
330
1B
100
AcDbEntity
  8
0
100
AcDbBlockEnd
  0
ENDSEC
  0
SECTION
  2
ENTITIES
  0
LWPOLYLINE
  5
31
330
17
100
AcDbEntity
  8
CUT
100
AcDbPolyline
 90
38
 70
1
 10
5.775
 20
31.037
 10
16.802
 20
31.037
 10
17.904
 20
30.999
 10
18.95
 20
30.884
 10
19.941
 20
30.694
 10
20.88
 20
30.429
 10
21.771
 20
30.091
 10
22.615
 20
29.681
 10
23.418
 20
29.2
 10
24.181
 20
28.65
 10
24.909
 20
28.031
 10
25.603
 20
27.347
 10
26.27
 20
26.596
 10
26.975
 20
25.7
 10
26.27
 20
24.804
 10
25.603
 20
24.053
 10
24.909
 20
23.369
 10
24.181
 20
22.75
 10
23.418
 20
22.2
 10
22.615
 20
21.719
 10
21.771
 20
21.309
 10
20.88
 20
20.971
 10
19.941
 20
20.706
 10
18.95
 20
20.516
 10
17.904
 20
20.401
 10
16.802
 20
20.363
 10
5.775
 20
20.363
 10
5.166
 20
20.589
 10
4.68
 20
21.2
 10
4.319
 20
22.083
 10
4.064
 20
23.172
 10
3.913
 20
24.401
 10
3.862
 20
25.7
 10
3.913
 20
26.999
 10
4.064
 20
28.228
 10
4.319
 20
29.317
 10
4.68
 20
30.2
 10
5.166
 20
30.811
  0
LWPOLYLINE
  5
32
330
17
100
AcDbEntity
  8
CUT
100
AcDbPolyline
 90
4
 70
1
 10
8.862
 20
29.063
 10
11.738
 20
29.063
 10
11.738
 20
22.338
 10
8.862
 20
22.338
  0
LWPOLYLINE
  5
33
330
17
100
AcDbEntity
  8
CUT
100
AcDbPolyline
 90
4
 70
1
 10
16.863
 20
29.063
 10
19.738
 20
29.063
 10
19.738
 20
22.338
 10
16.863
 20
22.338
  0
HATCH
  5
34
330
17
100
AcDbEntity
  8
RASTER
 62
7
100
AcDbHatch
 10
0.0
 20
0.0
 30
0.0
210
0.0
220
0.0
230
1.0
  2
SOLID
 70
1
 71
0
 91
1
 92
3
 72
0
 73
1
 93
4
 10
6.0
 20
28.92
 10
22.5
 20
28.92
 10
22.5
 20
28.48
 10
6.0
 20
28.48
 97
0
 75
0
 76
1
 98
0
  0
HATCH
  5
35
330
17
100
AcDbEntity
  8
RASTER
 62
7
100
AcDbHatch
 10
0.0
 20
0.0
 30
0.0
210
0.0
220
0.0
230
1.0
  2
SOLID
 70
1
 71
0
 91
1
 92
3
 72
0
 73
1
 93
4
 10
6.0
 20
25.92
 10
22.5
 20
25.92
 10
22.5
 20
25.48
 10
6.0
 20
25.48
 97
0
 75
0
 76
1
 98
0
  0
HATCH
  5
36
330
17
100
AcDbEntity
  8
RASTER
 62
7
100
AcDbHatch
 10
0.0
 20
0.0
 30
0.0
210
0.0
220
0.0
230
1.0
  2
SOLID
 70
1
 71
0
 91
1
 92
3
 72
0
 73
1
 93
4
 10
6.0
 20
22.92
 10
22.5
 20
22.92
 10
22.5
 20
22.48
 10
6.0
 20
22.48
 97
0
 75
0
 76
1
 98
0
  0
HATCH
  5
37
330
17
100
AcDbEntity
  8
RASTER
 62
7
100
AcDbHatch
 10
0.0
 20
0.0
 30
0.0
210
0.0
220
0.0
230
1.0
  2
SOLID
 70
1
 71
0
 91
1
 92
3
 72
0
 73
1
 93
4
 10
4.4
 20
26.0
 10
6.0
 20
26.0
 10
6.0
 20
25.4
 10
4.4
 20
25.4
 97
0
 75
0
 76
1
 98
0
  0
LWPOLYLINE
  5
38
330
17
100
AcDbEntity
  8
CUT
100
AcDbPolyline
 90
18
 70
1
 10
36.96
 20
30.94
 10
39.64
 20
30.94
 10
39.64
 20
28.94
 10
45.84
 20
28.94
 10
45.84
 20
15.877
 10
43.015
 20
14.262
 10
39.64
 20
13.468
 10
39.64
 20
9.94
 10
41.79
 20
9.94
 10
41.79
 20
3.96
 10
34.81
 20
3.96
 10
34.81
 20
9.94
 10
36.96
 20
9.94
 10
36.96
 20
13.466
 10
32.28
 20
14.263
 10
30.76
 20
15.884
 10
30.76
 20
28.94
 10
36.96
 20
28.94
  0
HATCH
  5
39
330
17
100
AcDbEntity
  8
RASTER
 62
7
100
AcDbHatch
 10
0.0
 20
0.0
 30
0.0
210
0.0
220
0.0
230
1.0
  2
SOLID
 70
1
 71
0
 91
1
 92
3
 72
0
 73
1
 93
4
 10
30.8
 20
28.3
 10
45.8
 20
28.3
 10
45.8
 20
27.8
 10
30.8
 20
27.8
 97
0
 75
0
 76
1
 98
0
  0
HATCH
  5
3A
330
17
100
AcDbEntity
  8
RASTER
 62
7
100
AcDbHatch
 10
0.0
 20
0.0
 30
0.0
210
0.0
220
0.0
230
1.0
  2
SOLID
 70
1
 71
0
 91
4
 92
3
 72
0
 73
1
 93
45
 10
37.983
 20
26.49
 10
38.551
 20
26.5
 10
39.237
 20
26.382
 10
39.657
 20
26.224
 10
40.092
 20
25.955
 10
40.343
 20
25.728
 10
40.68
 20
25.211
 10
40.924
 20
24.575
 10
41.014
 20
24.062
 10
40.949
 20
23.499
 10
40.529
 20
22.587
 10
40.512
 20
22.303
 10
40.612
 20
21.876
 10
40.537
 20
21.599
 10
40.411
 20
21.474
 10
40.22
 20
21.388
 10
39.484
 20
21.27
 10
39.381
 20
21.097
 10
39.456
 20
20.619
 10
39.413
 20
20.461
 10
39.094
 20
20.278
 10
38.476
 20
20.167
 10
38.099
 20
20.167
 10
37.664
 20
20.235
 10
37.245
 20
20.393
 10
37.144
 20
20.494
 10
37.119
 20
20.594
 10
37.194
 20
20.996
 10
37.162
 20
21.215
 10
37.001
 20
21.305
 10
36.375
 20
21.383
 10
36.096
 20
21.532
 10
35.988
 20
21.801
 10
36.006
 20
22.059
 10
36.088
 20
22.328
 10
36.048
 20
22.615
 10
35.744
 20
23.215
 10
35.586
 20
23.761
 10
35.586
 20
24.188
 10
35.676
 20
24.625
 10
35.92
 20
25.236
 10
36.181
 20
25.653
 10
36.619
 20
26.045
 10
37.026
 20
26.266
 10
37.461
 20
26.41
 97
0
 92
3
 72
0
 73
1
 93
15
 10
37.227
 20
23.175
 10
36.868
 20
23.082
 10
36.709
 20
22.964
 10
36.551
 20
22.695
 10
36.518
 20
22.507
 10
36.574
 20
22.311
 10
36.684
 20
22.17
 10
36.883
 20
22.067
 10
37.32
 20
22.077
 10
37.536
 20
22.137
 10
37.73
 20
22.27
 10
37.888
 20
22.565
 10
37.883
 20
22.841
 10
37.765
 20
23.05
 10
37.556
 20
23.168
 97
0
 92
3
 72
0
 73
1
 93
14
 10
39.061
 20
23.175
 10
38.87
 20
23.09
 10
38.712
 20
22.871
 10
38.712
 20
22.539
 10
38.845
 20
22.296
 10
39.114
 20
22.112
 10
39.506
 20
22.052
 10
39.717
 20
22.067
 10
39.941
 20
22.195
 10
40.044
 20
22.394
 10
40.059
 20
22.58
 10
39.916
 20
22.914
 10
39.758
 20
23.057
 10
39.567
 20
23.143
 97
0
 92
3
 72
0
 73
1
 93
70
 10
35.194
 20
20.961
 10
35.417
 20
20.954
 10
35.611
 20
20.871
 10
36.056
 20
20.411
 10
36.475
 20
20.127
 10
38.275
 20
19.363
 10
38.695
 20
19.496
 10
40.207
 20
20.17
 10
40.544
 20
20.411
 10
40.931
 20
20.828
 10
41.072
 20
20.913
 10
41.291
 20
20.971
 10
41.517
 20
20.921
 10
41.65
 20
20.702
 10
41.657
 20
20.408
 10
41.826
 20
20.275
 10
41.911
 20
20.134
 10
41.909
 20
19.875
 10
41.801
 20
19.732
 10
41.519
 20
19.612
 10
41.09
 20
19.614
 10
40.572
 20
19.529
 10
39.373
 20
19.019
 10
39.33
 20
18.936
 10
39.391
 20
18.845
 10
40.496
 20
18.368
 10
41.039
 20
18.257
 10
41.602
 20
18.242
 10
41.801
 20
18.139
 10
41.909
 20
17.996
 10
41.909
 20
17.739
 10
41.826
 20
17.596
 10
41.657
 20
17.463
 10
41.617
 20
17.076
 10
41.426
 20
16.915
 10
41.291
 20
16.9
 10
41.072
 20
16.958
 10
40.906
 20
17.068
 10
40.519
 20
17.486
 10
40.258
 20
17.677
 10
38.468
 20
18.476
 10
38.25
 20
18.508
 10
36.342
 20
17.677
 10
36.081
 20
17.486
 10
35.694
 20
17.068
 10
35.528
 20
16.958
 10
35.309
 20
16.9
 10
35.086
 20
16.953
 10
34.95
 20
17.169
 10
34.943
 20
17.463
 10
34.774
 20
17.596
 10
34.691
 20
17.739
 10
34.691
 20
17.996
 10
34.799
 20
18.139
 10
34.998
 20
18.242
 10
35.561
 20
18.257
 10
36.104
 20
18.368
 10
37.209
 20
18.845
 10
37.27
 20
18.936
 10
37.227
 20
19.019
 10
36.028
 20
19.529
 10
35.51
 20
19.614
 10
35.081
 20
19.612
 10
34.799
 20
19.732
 10
34.691
 20
19.875
 10
34.689
 20
20.134
 10
34.774
 20
20.275
 10
34.943
 20
20.408
 10
34.932
 20
20.594
 10
35.008
 20
20.846
 97
0
 75
0
 76
1
 98
0
  0
LWPOLYLINE
  5
3B
330
17
100
AcDbEntity
  8
CUT
100
AcDbPolyline
 90
18
 70
1
 10
54.46
 20
30.94
 10
57.14
 20
30.94
 10
57.14
 20
28.94
 10
61.84
 20
28.94
 10
61.84
 20
17.877
 10
59.018
 20
16.264
 10
57.14
 20
15.473
 10
57.14
 20
11.94
 10
59.29
 20
11.94
 10
59.29
 20
5.96
 10
52.31
 20
5.96
 10
52.31
 20
11.94
 10
54.46
 20
11.94
 10
54.46
 20
15.469
 10
51.279
 20
16.264
 10
49.76
 20
17.884
 10
49.76
 20
28.94
 10
54.46
 20
28.94
  0
HATCH
  5
3C
330
17
100
AcDbEntity
  8
RASTER
 62
7
100
AcDbHatch
 10
0.0
 20
0.0
 30
0.0
210
0.0
220
0.0
230
1.0
  2
SOLID
 70
1
 71
0
 91
1
 92
3
 72
0
 73
1
 93
4
 10
49.8
 20
28.3
 10
61.8
 20
28.3
 10
61.8
 20
27.8
 10
49.8
 20
27.8
 97
0
 75
0
 76
1
 98
0
  0
HATCH
  5
3D
330
17
100
AcDbEntity
  8
RASTER
 62
7
100
AcDbHatch
 10
0.0
 20
0.0
 30
0.0
210
0.0
220
0.0
230
1.0
  2
SOLID
 70
1
 71
0
 91
4
 92
3
 72
0
 73
1
 93
45
 10
55.549
 20
26.492
 10
55.999
 20
26.5
 10
56.542
 20
26.406
 10
56.874
 20
26.281
 10
57.219
 20
26.068
 10
57.417
 20
25.889
 10
57.684
 20
25.479
 10
57.877
 20
24.976
 10
57.949
 20
24.57
 10
57.897
 20
24.125
 10
57.565
 20
23.402
 10
57.551
 20
23.177
 10
57.63
 20
22.839
 10
57.571
 20
22.62
 10
57.471
 20
22.521
 10
57.32
 20
22.453
 10
56.737
 20
22.36
 10
56.655
 20
22.223
 10
56.715
 20
21.845
 10
56.681
 20
21.719
 10
56.429
 20
21.574
 10
55.939
 20
21.486
 10
55.641
 20
21.486
 10
55.297
 20
21.54
 10
54.964
 20
21.665
 10
54.885
 20
21.745
 10
54.865
 20
21.825
 10
54.925
 20
22.143
 10
54.899
 20
22.316
 10
54.771
 20
22.388
 10
54.276
 20
22.449
 10
54.055
 20
22.567
 10
53.97
 20
22.78
 10
53.984
 20
22.985
 10
54.049
 20
23.197
 10
54.017
 20
23.424
 10
53.777
 20
23.9
 10
53.651
 20
24.331
 10
53.651
 20
24.67
 10
53.723
 20
25.016
 10
53.916
 20
25.499
 10
54.123
 20
25.83
 10
54.469
 20
26.14
 10
54.791
 20
26.315
 10
55.135
 20
26.428
 97
0
 92
3
 72
0
 73
1
 93
15
 10
54.95
 20
23.868
 10
54.666
 20
23.794
 10
54.541
 20
23.701
 10
54.415
 20
23.488
 10
54.389
 20
23.339
 10
54.433
 20
23.183
 10
54.521
 20
23.072
 10
54.678
 20
22.99
 10
55.024
 20
22.998
 10
55.195
 20
23.046
 10
55.348
 20
23.152
 10
55.474
 20
23.384
 10
55.47
 20
23.603
 10
55.376
 20
23.768
 10
55.211
 20
23.862
 97
0
 92
3
 72
0
 73
1
 93
14
 10
56.403
 20
23.868
 10
56.252
 20
23.8
 10
56.126
 20
23.627
 10
56.126
 20
23.365
 10
56.232
 20
23.172
 10
56.445
 20
23.026
 10
56.755
 20
22.979
 10
56.922
 20
22.99
 10
57.099
 20
23.092
 10
57.181
 20
23.249
 10
57.193
 20
23.396
 10
57.079
 20
23.661
 10
56.954
 20
23.774
 10
56.803
 20
23.842
 97
0
 92
3
 72
0
 73
1
 93
70
 10
53.341
 20
22.115
 10
53.518
 20
22.109
 10
53.671
 20
22.043
 10
54.023
 20
21.679
 10
54.356
 20
21.455
 10
55.78
 20
20.85
 10
56.112
 20
20.955
 10
57.31
 20
21.488
 10
57.577
 20
21.679
 10
57.883
 20
22.01
 10
57.994
 20
22.077
 10
58.168
 20
22.123
 10
58.347
 20
22.083
 10
58.452
 20
21.91
 10
58.458
 20
21.677
 10
58.591
 20
21.572
 10
58.659
 20
21.461
 10
58.657
 20
21.256
 10
58.571
 20
21.142
 10
58.349
 20
21.047
 10
58.008
 20
21.049
 10
57.599
 20
20.981
 10
56.65
 20
20.577
 10
56.616
 20
20.512
 10
56.663
 20
20.44
 10
57.539
 20
20.062
 10
57.969
 20
19.974
 10
58.414
 20
19.962
 10
58.571
 20
19.881
 10
58.657
 20
19.767
 10
58.657
 20
19.565
 10
58.591
 20
19.451
 10
58.458
 20
19.346
 10
58.426
 20
19.039
 10
58.275
 20
18.912
 10
58.168
 20
18.9
 10
57.994
 20
18.946
 10
57.863
 20
19.033
 10
57.557
 20
19.364
 10
57.35
 20
19.515
 10
55.933
 20
20.147
 10
55.76
 20
20.173
 10
54.25
 20
19.515
 10
54.043
 20
19.364
 10
53.737
 20
19.033
 10
53.606
 20
18.946
 10
53.432
 20
18.9
 10
53.255
 20
18.942
 10
53.148
 20
19.113
 10
53.142
 20
19.346
 10
53.009
 20
19.451
 10
52.943
 20
19.565
 10
52.943
 20
19.767
 10
53.029
 20
19.881
 10
53.186
 20
19.962
 10
53.631
 20
19.974
 10
54.061
 20
20.062
 10
54.937
 20
20.44
 10
54.984
 20
20.512
 10
54.95
 20
20.577
 10
54.001
 20
20.981
 10
53.592
 20
21.049
 10
53.251
 20
21.047
 10
53.029
 20
21.142
 10
52.943
 20
21.256
 10
52.941
 20
21.461
 10
53.009
 20
21.572
 10
53.142
 20
21.677
 10
53.134
 20
21.825
 10
53.194
 20
22.024
 97
0
 75
0
 76
1
 98
0
  0
LWPOLYLINE
  5
3E
330
17
100
AcDbEntity
  8
CUT
100
AcDbPolyline
 90
38
 70
1
 10
67.575
 20
31.037
 10
78.602
 20
31.037
 10
79.704
 20
30.999
 10
80.75
 20
30.884
 10
81.741
 20
30.694
 10
82.68
 20
30.429
 10
83.571
 20
30.091
 10
84.415
 20
29.681
 10
85.218
 20
29.2
 10
85.981
 20
28.65
 10
86.709
 20
28.031
 10
87.403
 20
27.347
 10
88.07
 20
26.596
 10
88.775
 20
25.7
 10
88.07
 20
24.804
 10
87.403
 20
24.053
 10
86.709
 20
23.369
 10
85.981
 20
22.75
 10
85.218
 20
22.2
 10
84.415
 20
21.719
 10
83.571
 20
21.309
 10
82.68
 20
20.971
 10
81.741
 20
20.706
 10
80.75
 20
20.516
 10
79.704
 20
20.401
 10
78.602
 20
20.363
 10
67.575
 20
20.363
 10
66.966
 20
20.589
 10
66.48
 20
21.2
 10
66.119
 20
22.083
 10
65.864
 20
23.172
 10
65.713
 20
24.401
 10
65.662
 20
25.7
 10
65.713
 20
26.999
 10
65.864
 20
28.228
 10
66.119
 20
29.317
 10
66.48
 20
30.2
 10
66.966
 20
30.811
  0
LWPOLYLINE
  5
3F
330
17
100
AcDbEntity
  8
CUT
100
AcDbPolyline
 90
4
 70
1
 10
70.663
 20
29.063
 10
73.538
 20
29.063
 10
73.538
 20
22.338
 10
70.663
 20
22.338
  0
LWPOLYLINE
  5
40
330
17
100
AcDbEntity
  8
CUT
100
AcDbPolyline
 90
4
 70
1
 10
78.663
 20
29.063
 10
81.538
 20
29.063
 10
81.538
 20
22.338
 10
78.663
 20
22.338
  0
HATCH
  5
41
330
17
100
AcDbEntity
  8
RASTER
 62
7
100
AcDbHatch
 10
0.0
 20
0.0
 30
0.0
210
0.0
220
0.0
230
1.0
  2
SOLID
 70
1
 71
0
 91
1
 92
3
 72
0
 73
1
 93
4
 10
67.8
 20
28.92
 10
84.3
 20
28.92
 10
84.3
 20
28.48
 10
67.8
 20
28.48
 97
0
 75
0
 76
1
 98
0
  0
HATCH
  5
42
330
17
100
AcDbEntity
  8
RASTER
 62
7
100
AcDbHatch
 10
0.0
 20
0.0
 30
0.0
210
0.0
220
0.0
230
1.0
  2
SOLID
 70
1
 71
0
 91
1
 92
3
 72
0
 73
1
 93
4
 10
67.8
 20
25.92
 10
84.3
 20
25.92
 10
84.3
 20
25.48
 10
67.8
 20
25.48
 97
0
 75
0
 76
1
 98
0
  0
HATCH
  5
43
330
17
100
AcDbEntity
  8
RASTER
 62
7
100
AcDbHatch
 10
0.0
 20
0.0
 30
0.0
210
0.0
220
0.0
230
1.0
  2
SOLID
 70
1
 71
0
 91
1
 92
3
 72
0
 73
1
 93
4
 10
67.8
 20
22.92
 10
84.3
 20
22.92
 10
84.3
 20
22.48
 10
67.8
 20
22.48
 97
0
 75
0
 76
1
 98
0
  0
HATCH
  5
44
330
17
100
AcDbEntity
  8
RASTER
 62
7
100
AcDbHatch
 10
0.0
 20
0.0
 30
0.0
210
0.0
220
0.0
230
1.0
  2
SOLID
 70
1
 71
0
 91
1
 92
3
 72
0
 73
1
 93
4
 10
66.2
 20
26.0
 10
67.8
 20
26.0
 10
67.8
 20
25.4
 10
66.2
 20
25.4
 97
0
 75
0
 76
1
 98
0
  0
LWPOLYLINE
  5
45
330
17
100
AcDbEntity
  8
CUT
100
AcDbPolyline
 90
18
 70
1
 10
98.76
 20
30.94
 10
101.44
 20
30.94
 10
101.44
 20
28.94
 10
107.64
 20
28.94
 10
107.64
 20
15.877
 10
104.815
 20
14.262
 10
101.44
 20
13.468
 10
101.44
 20
9.94
 10
103.59
 20
9.94
 10
103.59
 20
3.96
 10
96.61
 20
3.96
 10
96.61
 20
9.94
 10
98.76
 20
9.94
 10
98.76
 20
13.466
 10
94.08
 20
14.263
 10
92.56
 20
15.884
 10
92.56
 20
28.94
 10
98.76
 20
28.94
  0
HATCH
  5
46
330
17
100
AcDbEntity
  8
RASTER
 62
7
100
AcDbHatch
 10
0.0
 20
0.0
 30
0.0
210
0.0
220
0.0
230
1.0
  2
SOLID
 70
1
 71
0
 91
1
 92
3
 72
0
 73
1
 93
4
 10
92.6
 20
28.3
 10
107.6
 20
28.3
 10
107.6
 20
27.8
 10
92.6
 20
27.8
 97
0
 75
0
 76
1
 98
0
  0
HATCH
  5
47
330
17
100
AcDbEntity
  8
RASTER
 62
7
100
AcDbHatch
 10
0.0
 20
0.0
 30
0.0
210
0.0
220
0.0
230
1.0
  2
SOLID
 70
1
 71
0
 91
4
 92
3
 72
0
 73
1
 93
45
 10
99.783
 20
26.49
 10
100.351
 20
26.5
 10
101.037
 20
26.382
 10
101.457
 20
26.224
 10
101.892
 20
25.955
 10
102.143
 20
25.728
 10
102.48
 20
25.211
 10
102.724
 20
24.575
 10
102.814
 20
24.062
 10
102.749
 20
23.499
 10
102.329
 20
22.587
 10
102.312
 20
22.303
 10
102.412
 20
21.876
 10
102.337
 20
21.599
 10
102.211
 20
21.474
 10
102.02
 20
21.388
 10
101.284
 20
21.27
 10
101.181
 20
21.097
 10
101.256
 20
20.619
 10
101.213
 20
20.461
 10
100.894
 20
20.278
 10
100.276
 20
20.167
 10
99.899
 20
20.167
 10
99.464
 20
20.235
 10
99.045
 20
20.393
 10
98.944
 20
20.494
 10
98.919
 20
20.594
 10
98.994
 20
20.996
 10
98.962
 20
21.215
 10
98.801
 20
21.305
 10
98.175
 20
21.383
 10
97.896
 20
21.532
 10
97.788
 20
21.801
 10
97.806
 20
22.059
 10
97.888
 20
22.328
 10
97.848
 20
22.615
 10
97.544
 20
23.215
 10
97.386
 20
23.761
 10
97.386
 20
24.188
 10
97.476
 20
24.625
 10
97.72
 20
25.236
 10
97.981
 20
25.653
 10
98.419
 20
26.045
 10
98.826
 20
26.266
 10
99.261
 20
26.41
 97
0
 92
3
 72
0
 73
1
 93
15
 10
99.027
 20
23.175
 10
98.668
 20
23.082
 10
98.509
 20
22.964
 10
98.351
 20
22.695
 10
98.318
 20
22.507
 10
98.374
 20
22.311
 10
98.484
 20
22.17
 10
98.683
 20
22.067
 10
99.12
 20
22.077
 10
99.336
 20
22.137
 10
99.53
 20
22.27
 10
99.688
 20
22.565
 10
99.683
 20
22.841
 10
99.565
 20
23.05
 10
99.356
 20
23.168
 97
0
 92
3
 72
0
 73
1
 93
14
 10
100.861
 20
23.175
 10
100.67
 20
23.09
 10
100.512
 20
22.871
 10
100.512
 20
22.539
 10
100.645
 20
22.296
 10
100.914
 20
22.112
 10
101.306
 20
22.052
 10
101.517
 20
22.067
 10
101.741
 20
22.195
 10
101.844
 20
22.394
 10
101.859
 20
22.58
 10
101.716
 20
22.914
 10
101.558
 20
23.057
 10
101.367
 20
23.143
 97
0
 92
3
 72
0
 73
1
 93
70
 10
96.994
 20
20.961
 10
97.217
 20
20.954
 10
97.411
 20
20.871
 10
97.856
 20
20.411
 10
98.275
 20
20.127
 10
100.075
 20
19.363
 10
100.495
 20
19.496
 10
102.007
 20
20.17
 10
102.344
 20
20.411
 10
102.731
 20
20.828
 10
102.872
 20
20.913
 10
103.091
 20
20.971
 10
103.317
 20
20.921
 10
103.45
 20
20.702
 10
103.457
 20
20.408
 10
103.626
 20
20.275
 10
103.711
 20
20.134
 10
103.709
 20
19.875
 10
103.601
 20
19.732
 10
103.319
 20
19.612
 10
102.89
 20
19.614
 10
102.372
 20
19.529
 10
101.173
 20
19.019
 10
101.13
 20
18.936
 10
101.191
 20
18.845
 10
102.296
 20
18.368
 10
102.839
 20
18.257
 10
103.402
 20
18.242
 10
103.601
 20
18.139
 10
103.709
 20
17.996
 10
103.709
 20
17.739
 10
103.626
 20
17.596
 10
103.457
 20
17.463
 10
103.417
 20
17.076
 10
103.226
 20
16.915
 10
103.091
 20
16.9
 10
102.872
 20
16.958
 10
102.706
 20
17.068
 10
102.319
 20
17.486
 10
102.058
 20
17.677
 10
100.268
 20
18.476
 10
100.05
 20
18.508
 10
98.142
 20
17.677
 10
97.881
 20
17.486
 10
97.494
 20
17.068
 10
97.328
 20
16.958
 10
97.109
 20
16.9
 10
96.886
 20
16.953
 10
96.75
 20
17.169
 10
96.743
 20
17.463
 10
96.574
 20
17.596
 10
96.491
 20
17.739
 10
96.491
 20
17.996
 10
96.599
 20
18.139
 10
96.798
 20
18.242
 10
97.361
 20
18.257
 10
97.904
 20
18.368
 10
99.009
 20
18.845
 10
99.07
 20
18.936
 10
99.027
 20
19.019
 10
97.828
 20
19.529
 10
97.31
 20
19.614
 10
96.881
 20
19.612
 10
96.599
 20
19.732
 10
96.491
 20
19.875
 10
96.489
 20
20.134
 10
96.574
 20
20.275
 10
96.743
 20
20.408
 10
96.732
 20
20.594
 10
96.808
 20
20.846
 97
0
 75
0
 76
1
 98
0
  0
LWPOLYLINE
  5
48
330
17
100
AcDbEntity
  8
CUT
100
AcDbPolyline
 90
18
 70
1
 10
116.26
 20
30.94
 10
118.94
 20
30.94
 10
118.94
 20
28.94
 10
123.64
 20
28.94
 10
123.64
 20
17.877
 10
120.818
 20
16.264
 10
118.94
 20
15.473
 10
118.94
 20
11.94
 10
121.09
 20
11.94
 10
121.09
 20
5.96
 10
114.11
 20
5.96
 10
114.11
 20
11.94
 10
116.26
 20
11.94
 10
116.26
 20
15.469
 10
113.079
 20
16.264
 10
111.56
 20
17.884
 10
111.56
 20
28.94
 10
116.26
 20
28.94
  0
HATCH
  5
49
330
17
100
AcDbEntity
  8
RASTER
 62
7
100
AcDbHatch
 10
0.0
 20
0.0
 30
0.0
210
0.0
220
0.0
230
1.0
  2
SOLID
 70
1
 71
0
 91
1
 92
3
 72
0
 73
1
 93
4
 10
111.6
 20
28.3
 10
123.6
 20
28.3
 10
123.6
 20
27.8
 10
111.6
 20
27.8
 97
0
 75
0
 76
1
 98
0
  0
HATCH
  5
4A
330
17
100
AcDbEntity
  8
RASTER
 62
7
100
AcDbHatch
 10
0.0
 20
0.0
 30
0.0
210
0.0
220
0.0
230
1.0
  2
SOLID
 70
1
 71
0
 91
4
 92
3
 72
0
 73
1
 93
45
 10
117.349
 20
26.492
 10
117.799
 20
26.5
 10
118.342
 20
26.406
 10
118.674
 20
26.281
 10
119.019
 20
26.068
 10
119.217
 20
25.889
 10
119.484
 20
25.479
 10
119.677
 20
24.976
 10
119.749
 20
24.57
 10
119.697
 20
24.125
 10
119.365
 20
23.402
 10
119.351
 20
23.177
 10
119.43
 20
22.839
 10
119.371
 20
22.62
 10
119.271
 20
22.521
 10
119.12
 20
22.453
 10
118.537
 20
22.36
 10
118.455
 20
22.223
 10
118.515
 20
21.845
 10
118.481
 20
21.719
 10
118.229
 20
21.574
 10
117.739
 20
21.486
 10
117.441
 20
21.486
 10
117.097
 20
21.54
 10
116.764
 20
21.665
 10
116.685
 20
21.745
 10
116.665
 20
21.825
 10
116.725
 20
22.143
 10
116.699
 20
22.316
 10
116.571
 20
22.388
 10
116.076
 20
22.449
 10
115.855
 20
22.567
 10
115.77
 20
22.78
 10
115.784
 20
22.985
 10
115.849
 20
23.197
 10
115.817
 20
23.424
 10
115.577
 20
23.9
 10
115.451
 20
24.331
 10
115.451
 20
24.67
 10
115.523
 20
25.016
 10
115.716
 20
25.499
 10
115.923
 20
25.83
 10
116.269
 20
26.14
 10
116.591
 20
26.315
 10
116.935
 20
26.428
 97
0
 92
3
 72
0
 73
1
 93
15
 10
116.75
 20
23.868
 10
116.466
 20
23.794
 10
116.341
 20
23.701
 10
116.215
 20
23.488
 10
116.189
 20
23.339
 10
116.233
 20
23.183
 10
116.321
 20
23.072
 10
116.478
 20
22.99
 10
116.824
 20
22.998
 10
116.995
 20
23.046
 10
117.148
 20
23.152
 10
117.274
 20
23.384
 10
117.27
 20
23.603
 10
117.176
 20
23.768
 10
117.011
 20
23.862
 97
0
 92
3
 72
0
 73
1
 93
14
 10
118.203
 20
23.868
 10
118.052
 20
23.8
 10
117.926
 20
23.627
 10
117.926
 20
23.365
 10
118.032
 20
23.172
 10
118.245
 20
23.026
 10
118.555
 20
22.979
 10
118.722
 20
22.99
 10
118.899
 20
23.092
 10
118.981
 20
23.249
 10
118.993
 20
23.396
 10
118.879
 20
23.661
 10
118.754
 20
23.774
 10
118.603
 20
23.842
 97
0
 92
3
 72
0
 73
1
 93
70
 10
115.141
 20
22.115
 10
115.318
 20
22.109
 10
115.471
 20
22.043
 10
115.823
 20
21.679
 10
116.156
 20
21.455
 10
117.58
 20
20.85
 10
117.912
 20
20.955
 10
119.11
 20
21.488
 10
119.377
 20
21.679
 10
119.683
 20
22.01
 10
119.794
 20
22.077
 10
119.968
 20
22.123
 10
120.147
 20
22.083
 10
120.252
 20
21.91
 10
120.258
 20
21.677
 10
120.391
 20
21.572
 10
120.459
 20
21.461
 10
120.457
 20
21.256
 10
120.371
 20
21.142
 10
120.149
 20
21.047
 10
119.808
 20
21.049
 10
119.399
 20
20.981
 10
118.45
 20
20.577
 10
118.416
 20
20.512
 10
118.463
 20
20.44
 10
119.339
 20
20.062
 10
119.769
 20
19.974
 10
120.214
 20
19.962
 10
120.371
 20
19.881
 10
120.457
 20
19.767
 10
120.457
 20
19.565
 10
120.391
 20
19.451
 10
120.258
 20
19.346
 10
120.226
 20
19.039
 10
120.075
 20
18.912
 10
119.968
 20
18.9
 10
119.794
 20
18.946
 10
119.663
 20
19.033
 10
119.357
 20
19.364
 10
119.15
 20
19.515
 10
117.733
 20
20.147
 10
117.56
 20
20.173
 10
116.05
 20
19.515
 10
115.843
 20
19.364
 10
115.537
 20
19.033
 10
115.406
 20
18.946
 10
115.232
 20
18.9
 10
115.055
 20
18.942
 10
114.948
 20
19.113
 10
114.942
 20
19.346
 10
114.809
 20
19.451
 10
114.743
 20
19.565
 10
114.743
 20
19.767
 10
114.829
 20
19.881
 10
114.986
 20
19.962
 10
115.431
 20
19.974
 10
115.861
 20
20.062
 10
116.737
 20
20.44
 10
116.784
 20
20.512
 10
116.75
 20
20.577
 10
115.801
 20
20.981
 10
115.392
 20
21.049
 10
115.051
 20
21.047
 10
114.829
 20
21.142
 10
114.743
 20
21.256
 10
114.741
 20
21.461
 10
114.809
 20
21.572
 10
114.942
 20
21.677
 10
114.934
 20
21.825
 10
114.994
 20
22.024
 97
0
 75
0
 76
1
 98
0
  0
LWPOLYLINE
  5
4B
330
17
100
AcDbEntity
  8
CUT
100
AcDbPolyline
 90
38
 70
1
 10
129.375
 20
31.037
 10
140.402
 20
31.037
 10
141.504
 20
30.999
 10
142.55
 20
30.884
 10
143.541
 20
30.694
 10
144.48
 20
30.429
 10
145.371
 20
30.091
 10
146.215
 20
29.681
 10
147.018
 20
29.2
 10
147.781
 20
28.65
 10
148.509
 20
28.031
 10
149.203
 20
27.347
 10
149.87
 20
26.596
 10
150.575
 20
25.7
 10
149.87
 20
24.804
 10
149.203
 20
24.053
 10
148.509
 20
23.369
 10
147.781
 20
22.75
 10
147.018
 20
22.2
 10
146.215
 20
21.719
 10
145.371
 20
21.309
 10
144.48
 20
20.971
 10
143.541
 20
20.706
 10
142.55
 20
20.516
 10
141.504
 20
20.401
 10
140.402
 20
20.363
 10
129.375
 20
20.363
 10
128.766
 20
20.589
 10
128.28
 20
21.2
 10
127.919
 20
22.083
 10
127.664
 20
23.172
 10
127.513
 20
24.401
 10
127.462
 20
25.7
 10
127.513
 20
26.999
 10
127.664
 20
28.228
 10
127.919
 20
29.317
 10
128.28
 20
30.2
 10
128.766
 20
30.811
  0
LWPOLYLINE
  5
4C
330
17
100
AcDbEntity
  8
CUT
100
AcDbPolyline
 90
4
 70
1
 10
132.462
 20
29.063
 10
135.338
 20
29.063
 10
135.338
 20
22.338
 10
132.462
 20
22.338
  0
LWPOLYLINE
  5
4D
330
17
100
AcDbEntity
  8
CUT
100
AcDbPolyline
 90
4
 70
1
 10
140.462
 20
29.063
 10
143.338
 20
29.063
 10
143.338
 20
22.338
 10
140.462
 20
22.338
  0
HATCH
  5
4E
330
17
100
AcDbEntity
  8
RASTER
 62
7
100
AcDbHatch
 10
0.0
 20
0.0
 30
0.0
210
0.0
220
0.0
230
1.0
  2
SOLID
 70
1
 71
0
 91
1
 92
3
 72
0
 73
1
 93
4
 10
129.6
 20
28.92
 10
146.1
 20
28.92
 10
146.1
 20
28.48
 10
129.6
 20
28.48
 97
0
 75
0
 76
1
 98
0
  0
HATCH
  5
4F
330
17
100
AcDbEntity
  8
RASTER
 62
7
100
AcDbHatch
 10
0.0
 20
0.0
 30
0.0
210
0.0
220
0.0
230
1.0
  2
SOLID
 70
1
 71
0
 91
1
 92
3
 72
0
 73
1
 93
4
 10
129.6
 20
25.92
 10
146.1
 20
25.92
 10
146.1
 20
25.48
 10
129.6
 20
25.48
 97
0
 75
0
 76
1
 98
0
  0
HATCH
  5
50
330
17
100
AcDbEntity
  8
RASTER
 62
7
100
AcDbHatch
 10
0.0
 20
0.0
 30
0.0
210
0.0
220
0.0
230
1.0
  2
SOLID
 70
1
 71
0
 91
1
 92
3
 72
0
 73
1
 93
4
 10
129.6
 20
22.92
 10
146.1
 20
22.92
 10
146.1
 20
22.48
 10
129.6
 20
22.48
 97
0
 75
0
 76
1
 98
0
  0
HATCH
  5
51
330
17
100
AcDbEntity
  8
RASTER
 62
7
100
AcDbHatch
 10
0.0
 20
0.0
 30
0.0
210
0.0
220
0.0
230
1.0
  2
SOLID
 70
1
 71
0
 91
1
 92
3
 72
0
 73
1
 93
4
 10
128.0
 20
26.0
 10
129.6
 20
26.0
 10
129.6
 20
25.4
 10
128.0
 20
25.4
 97
0
 75
0
 76
1
 98
0
  0
LWPOLYLINE
  5
52
330
17
100
AcDbEntity
  8
CUT
100
AcDbPolyline
 90
18
 70
1
 10
160.56
 20
30.94
 10
163.24
 20
30.94
 10
163.24
 20
28.94
 10
169.44
 20
28.94
 10
169.44
 20
15.877
 10
166.615
 20
14.262
 10
163.24
 20
13.468
 10
163.24
 20
9.94
 10
165.39
 20
9.94
 10
165.39
 20
3.96
 10
158.41
 20
3.96
 10
158.41
 20
9.94
 10
160.56
 20
9.94
 10
160.56
 20
13.466
 10
155.88
 20
14.263
 10
154.36
 20
15.884
 10
154.36
 20
28.94
 10
160.56
 20
28.94
  0
HATCH
  5
53
330
17
100
AcDbEntity
  8
RASTER
 62
7
100
AcDbHatch
 10
0.0
 20
0.0
 30
0.0
210
0.0
220
0.0
230
1.0
  2
SOLID
 70
1
 71
0
 91
1
 92
3
 72
0
 73
1
 93
4
 10
154.4
 20
28.3
 10
169.4
 20
28.3
 10
169.4
 20
27.8
 10
154.4
 20
27.8
 97
0
 75
0
 76
1
 98
0
  0
HATCH
  5
54
330
17
100
AcDbEntity
  8
RASTER
 62
7
100
AcDbHatch
 10
0.0
 20
0.0
 30
0.0
210
0.0
220
0.0
230
1.0
  2
SOLID
 70
1
 71
0
 91
4
 92
3
 72
0
 73
1
 93
45
 10
161.583
 20
26.49
 10
162.151
 20
26.5
 10
162.837
 20
26.382
 10
163.257
 20
26.224
 10
163.692
 20
25.955
 10
163.943
 20
25.728
 10
164.28
 20
25.211
 10
164.524
 20
24.575
 10
164.614
 20
24.062
 10
164.549
 20
23.499
 10
164.129
 20
22.587
 10
164.112
 20
22.303
 10
164.212
 20
21.876
 10
164.137
 20
21.599
 10
164.011
 20
21.474
 10
163.82
 20
21.388
 10
163.084
 20
21.27
 10
162.981
 20
21.097
 10
163.056
 20
20.619
 10
163.013
 20
20.461
 10
162.694
 20
20.278
 10
162.076
 20
20.167
 10
161.699
 20
20.167
 10
161.264
 20
20.235
 10
160.845
 20
20.393
 10
160.744
 20
20.494
 10
160.719
 20
20.594
 10
160.794
 20
20.996
 10
160.762
 20
21.215
 10
160.601
 20
21.305
 10
159.975
 20
21.383
 10
159.696
 20
21.532
 10
159.588
 20
21.801
 10
159.606
 20
22.059
 10
159.688
 20
22.328
 10
159.648
 20
22.615
 10
159.344
 20
23.215
 10
159.186
 20
23.761
 10
159.186
 20
24.188
 10
159.276
 20
24.625
 10
159.52
 20
25.236
 10
159.781
 20
25.653
 10
160.219
 20
26.045
 10
160.626
 20
26.266
 10
161.061
 20
26.41
 97
0
 92
3
 72
0
 73
1
 93
15
 10
160.827
 20
23.175
 10
160.468
 20
23.082
 10
160.309
 20
22.964
 10
160.151
 20
22.695
 10
160.118
 20
22.507
 10
160.174
 20
22.311
 10
160.284
 20
22.17
 10
160.483
 20
22.067
 10
160.92
 20
22.077
 10
161.136
 20
22.137
 10
161.33
 20
22.27
 10
161.488
 20
22.565
 10
161.483
 20
22.841
 10
161.365
 20
23.05
 10
161.156
 20
23.168
 97
0
 92
3
 72
0
 73
1
 93
14
 10
162.661
 20
23.175
 10
162.47
 20
23.09
 10
162.312
 20
22.871
 10
162.312
 20
22.539
 10
162.445
 20
22.296
 10
162.714
 20
22.112
 10
163.106
 20
22.052
 10
163.317
 20
22.067
 10
163.541
 20
22.195
 10
163.644
 20
22.394
 10
163.659
 20
22.58
 10
163.516
 20
22.914
 10
163.358
 20
23.057
 10
163.167
 20
23.143
 97
0
 92
3
 72
0
 73
1
 93
70
 10
158.794
 20
20.961
 10
159.017
 20
20.954
 10
159.211
 20
20.871
 10
159.656
 20
20.411
 10
160.075
 20
20.127
 10
161.875
 20
19.363
 10
162.295
 20
19.496
 10
163.807
 20
20.17
 10
164.144
 20
20.411
 10
164.531
 20
20.828
 10
164.672
 20
20.913
 10
164.891
 20
20.971
 10
165.117
 20
20.921
 10
165.25
 20
20.702
 10
165.257
 20
20.408
 10
165.426
 20
20.275
 10
165.511
 20
20.134
 10
165.509
 20
19.875
 10
165.401
 20
19.732
 10
165.119
 20
19.612
 10
164.69
 20
19.614
 10
164.172
 20
19.529
 10
162.973
 20
19.019
 10
162.93
 20
18.936
 10
162.991
 20
18.845
 10
164.096
 20
18.368
 10
164.639
 20
18.257
 10
165.202
 20
18.242
 10
165.401
 20
18.139
 10
165.509
 20
17.996
 10
165.509
 20
17.739
 10
165.426
 20
17.596
 10
165.257
 20
17.463
 10
165.217
 20
17.076
 10
165.026
 20
16.915
 10
164.891
 20
16.9
 10
164.672
 20
16.958
 10
164.506
 20
17.068
 10
164.119
 20
17.486
 10
163.858
 20
17.677
 10
162.068
 20
18.476
 10
161.85
 20
18.508
 10
159.942
 20
17.677
 10
159.681
 20
17.486
 10
159.294
 20
17.068
 10
159.128
 20
16.958
 10
158.909
 20
16.9
 10
158.686
 20
16.953
 10
158.55
 20
17.169
 10
158.543
 20
17.463
 10
158.374
 20
17.596
 10
158.291
 20
17.739
 10
158.291
 20
17.996
 10
158.399
 20
18.139
 10
158.598
 20
18.242
 10
159.161
 20
18.257
 10
159.704
 20
18.368
 10
160.809
 20
18.845
 10
160.87
 20
18.936
 10
160.827
 20
19.019
 10
159.628
 20
19.529
 10
159.11
 20
19.614
 10
158.681
 20
19.612
 10
158.399
 20
19.732
 10
158.291
 20
19.875
 10
158.289
 20
20.134
 10
158.374
 20
20.275
 10
158.543
 20
20.408
 10
158.532
 20
20.594
 10
158.608
 20
20.846
 97
0
 75
0
 76
1
 98
0
  0
LWPOLYLINE
  5
55
330
17
100
AcDbEntity
  8
CUT
100
AcDbPolyline
 90
18
 70
1
 10
178.06
 20
30.94
 10
180.74
 20
30.94
 10
180.74
 20
28.94
 10
185.44
 20
28.94
 10
185.44
 20
17.877
 10
182.618
 20
16.264
 10
180.74
 20
15.473
 10
180.74
 20
11.94
 10
182.89
 20
11.94
 10
182.89
 20
5.96
 10
175.91
 20
5.96
 10
175.91
 20
11.94
 10
178.06
 20
11.94
 10
178.06
 20
15.469
 10
174.879
 20
16.264
 10
173.36
 20
17.884
 10
173.36
 20
28.94
 10
178.06
 20
28.94
  0
HATCH
  5
56
330
17
100
AcDbEntity
  8
RASTER
 62
7
100
AcDbHatch
 10
0.0
 20
0.0
 30
0.0
210
0.0
220
0.0
230
1.0
  2
SOLID
 70
1
 71
0
 91
1
 92
3
 72
0
 73
1
 93
4
 10
173.4
 20
28.3
 10
185.4
 20
28.3
 10
185.4
 20
27.8
 10
173.4
 20
27.8
 97
0
 75
0
 76
1
 98
0
  0
HATCH
  5
57
330
17
100
AcDbEntity
  8
RASTER
 62
7
100
AcDbHatch
 10
0.0
 20
0.0
 30
0.0
210
0.0
220
0.0
230
1.0
  2
SOLID
 70
1
 71
0
 91
4
 92
3
 72
0
 73
1
 93
45
 10
179.149
 20
26.492
 10
179.599
 20
26.5
 10
180.142
 20
26.406
 10
180.474
 20
26.281
 10
180.819
 20
26.068
 10
181.017
 20
25.889
 10
181.284
 20
25.479
 10
181.477
 20
24.976
 10
181.549
 20
24.57
 10
181.497
 20
24.125
 10
181.165
 20
23.402
 10
181.151
 20
23.177
 10
181.23
 20
22.839
 10
181.171
 20
22.62
 10
181.071
 20
22.521
 10
180.92
 20
22.453
 10
180.337
 20
22.36
 10
180.255
 20
22.223
 10
180.315
 20
21.845
 10
180.281
 20
21.719
 10
180.029
 20
21.574
 10
179.539
 20
21.486
 10
179.241
 20
21.486
 10
178.897
 20
21.54
 10
178.564
 20
21.665
 10
178.485
 20
21.745
 10
178.465
 20
21.825
 10
178.525
 20
22.143
 10
178.499
 20
22.316
 10
178.371
 20
22.388
 10
177.876
 20
22.449
 10
177.655
 20
22.567
 10
177.57
 20
22.78
 10
177.584
 20
22.985
 10
177.649
 20
23.197
 10
177.617
 20
23.424
 10
177.377
 20
23.9
 10
177.251
 20
24.331
 10
177.251
 20
24.67
 10
177.323
 20
25.016
 10
177.516
 20
25.499
 10
177.723
 20
25.83
 10
178.069
 20
26.14
 10
178.391
 20
26.315
 10
178.735
 20
26.428
 97
0
 92
3
 72
0
 73
1
 93
15
 10
178.55
 20
23.868
 10
178.266
 20
23.794
 10
178.141
 20
23.701
 10
178.015
 20
23.488
 10
177.989
 20
23.339
 10
178.033
 20
23.183
 10
178.121
 20
23.072
 10
178.278
 20
22.99
 10
178.624
 20
22.998
 10
178.795
 20
23.046
 10
178.948
 20
23.152
 10
179.074
 20
23.384
 10
179.07
 20
23.603
 10
178.976
 20
23.768
 10
178.811
 20
23.862
 97
0
 92
3
 72
0
 73
1
 93
14
 10
180.003
 20
23.868
 10
179.852
 20
23.8
 10
179.726
 20
23.627
 10
179.726
 20
23.365
 10
179.832
 20
23.172
 10
180.045
 20
23.026
 10
180.355
 20
22.979
 10
180.522
 20
22.99
 10
180.699
 20
23.092
 10
180.781
 20
23.249
 10
180.793
 20
23.396
 10
180.679
 20
23.661
 10
180.554
 20
23.774
 10
180.403
 20
23.842
 97
0
 92
3
 72
0
 73
1
 93
70
 10
176.941
 20
22.115
 10
177.118
 20
22.109
 10
177.271
 20
22.043
 10
177.623
 20
21.679
 10
177.956
 20
21.455
 10
179.38
 20
20.85
 10
179.712
 20
20.955
 10
180.91
 20
21.488
 10
181.177
 20
21.679
 10
181.483
 20
22.01
 10
181.594
 20
22.077
 10
181.768
 20
22.123
 10
181.947
 20
22.083
 10
182.052
 20
21.91
 10
182.058
 20
21.677
 10
182.191
 20
21.572
 10
182.259
 20
21.461
 10
182.257
 20
21.256
 10
182.171
 20
21.142
 10
181.949
 20
21.047
 10
181.608
 20
21.049
 10
181.199
 20
20.981
 10
180.25
 20
20.577
 10
180.216
 20
20.512
 10
180.263
 20
20.44
 10
181.139
 20
20.062
 10
181.569
 20
19.974
 10
182.014
 20
19.962
 10
182.171
 20
19.881
 10
182.257
 20
19.767
 10
182.257
 20
19.565
 10
182.191
 20
19.451
 10
182.058
 20
19.346
 10
182.026
 20
19.039
 10
181.875
 20
18.912
 10
181.768
 20
18.9
 10
181.594
 20
18.946
 10
181.463
 20
19.033
 10
181.157
 20
19.364
 10
180.95
 20
19.515
 10
179.533
 20
20.147
 10
179.36
 20
20.173
 10
177.85
 20
19.515
 10
177.643
 20
19.364
 10
177.337
 20
19.033
 10
177.206
 20
18.946
 10
177.032
 20
18.9
 10
176.855
 20
18.942
 10
176.748
 20
19.113
 10
176.742
 20
19.346
 10
176.609
 20
19.451
 10
176.543
 20
19.565
 10
176.543
 20
19.767
 10
176.629
 20
19.881
 10
176.786
 20
19.962
 10
177.231
 20
19.974
 10
177.661
 20
20.062
 10
178.537
 20
20.44
 10
178.584
 20
20.512
 10
178.55
 20
20.577
 10
177.601
 20
20.981
 10
177.192
 20
21.049
 10
176.851
 20
21.047
 10
176.629
 20
21.142
 10
176.543
 20
21.256
 10
176.541
 20
21.461
 10
176.609
 20
21.572
 10
176.742
 20
21.677
 10
176.734
 20
21.825
 10
176.794
 20
22.024
 97
0
 75
0
 76
1
 98
0
  0
LWPOLYLINE
  5
58
330
17
100
AcDbEntity
  8
CUT
100
AcDbPolyline
 90
38
 70
1
 10
191.175
 20
31.037
 10
202.202
 20
31.037
 10
203.304
 20
30.999
 10
204.35
 20
30.884
 10
205.341
 20
30.694
 10
206.28
 20
30.429
 10
207.171
 20
30.091
 10
208.015
 20
29.681
 10
208.818
 20
29.2
 10
209.581
 20
28.65
 10
210.309
 20
28.031
 10
211.003
 20
27.347
 10
211.67
 20
26.596
 10
212.375
 20
25.7
 10
211.67
 20
24.804
 10
211.003
 20
24.053
 10
210.309
 20
23.369
 10
209.581
 20
22.75
 10
208.818
 20
22.2
 10
208.015
 20
21.719
 10
207.171
 20
21.309
 10
206.28
 20
20.971
 10
205.341
 20
20.706
 10
204.35
 20
20.516
 10
203.304
 20
20.401
 10
202.202
 20
20.363
 10
191.175
 20
20.363
 10
190.566
 20
20.589
 10
190.08
 20
21.2
 10
189.719
 20
22.083
 10
189.464
 20
23.172
 10
189.313
 20
24.401
 10
189.262
 20
25.7
 10
189.313
 20
26.999
 10
189.464
 20
28.228
 10
189.719
 20
29.317
 10
190.08
 20
30.2
 10
190.566
 20
30.811
  0
LWPOLYLINE
  5
59
330
17
100
AcDbEntity
  8
CUT
100
AcDbPolyline
 90
4
 70
1
 10
194.263
 20
29.063
 10
197.138
 20
29.063
 10
197.138
 20
22.338
 10
194.263
 20
22.338
  0
LWPOLYLINE
  5
5A
330
17
100
AcDbEntity
  8
CUT
100
AcDbPolyline
 90
4
 70
1
 10
202.263
 20
29.063
 10
205.138
 20
29.063
 10
205.138
 20
22.338
 10
202.263
 20
22.338
  0
HATCH
  5
5B
330
17
100
AcDbEntity
  8
RASTER
 62
7
100
AcDbHatch
 10
0.0
 20
0.0
 30
0.0
210
0.0
220
0.0
230
1.0
  2
SOLID
 70
1
 71
0
 91
1
 92
3
 72
0
 73
1
 93
4
 10
191.4
 20
28.92
 10
207.9
 20
28.92
 10
207.9
 20
28.48
 10
191.4
 20
28.48
 97
0
 75
0
 76
1
 98
0
  0
HATCH
  5
5C
330
17
100
AcDbEntity
  8
RASTER
 62
7
100
AcDbHatch
 10
0.0
 20
0.0
 30
0.0
210
0.0
220
0.0
230
1.0
  2
SOLID
 70
1
 71
0
 91
1
 92
3
 72
0
 73
1
 93
4
 10
191.4
 20
25.92
 10
207.9
 20
25.92
 10
207.9
 20
25.48
 10
191.4
 20
25.48
 97
0
 75
0
 76
1
 98
0
  0
HATCH
  5
5D
330
17
100
AcDbEntity
  8
RASTER
 62
7
100
AcDbHatch
 10
0.0
 20
0.0
 30
0.0
210
0.0
220
0.0
230
1.0
  2
SOLID
 70
1
 71
0
 91
1
 92
3
 72
0
 73
1
 93
4
 10
191.4
 20
22.92
 10
207.9
 20
22.92
 10
207.9
 20
22.48
 10
191.4
 20
22.48
 97
0
 75
0
 76
1
 98
0
  0
HATCH
  5
5E
330
17
100
AcDbEntity
  8
RASTER
 62
7
100
AcDbHatch
 10
0.0
 20
0.0
 30
0.0
210
0.0
220
0.0
230
1.0
  2
SOLID
 70
1
 71
0
 91
1
 92
3
 72
0
 73
1
 93
4
 10
189.8
 20
26.0
 10
191.4
 20
26.0
 10
191.4
 20
25.4
 10
189.8
 20
25.4
 97
0
 75
0
 76
1
 98
0
  0
LWPOLYLINE
  5
5F
330
17
100
AcDbEntity
  8
CUT
100
AcDbPolyline
 90
18
 70
1
 10
222.36
 20
30.94
 10
225.04
 20
30.94
 10
225.04
 20
28.94
 10
231.24
 20
28.94
 10
231.24
 20
15.877
 10
228.415
 20
14.262
 10
225.04
 20
13.468
 10
225.04
 20
9.94
 10
227.19
 20
9.94
 10
227.19
 20
3.96
 10
220.21
 20
3.96
 10
220.21
 20
9.94
 10
222.36
 20
9.94
 10
222.36
 20
13.466
 10
217.68
 20
14.263
 10
216.16
 20
15.884
 10
216.16
 20
28.94
 10
222.36
 20
28.94
  0
HATCH
  5
60
330
17
100
AcDbEntity
  8
RASTER
 62
7
100
AcDbHatch
 10
0.0
 20
0.0
 30
0.0
210
0.0
220
0.0
230
1.0
  2
SOLID
 70
1
 71
0
 91
1
 92
3
 72
0
 73
1
 93
4
 10
216.2
 20
28.3
 10
231.2
 20
28.3
 10
231.2
 20
27.8
 10
216.2
 20
27.8
 97
0
 75
0
 76
1
 98
0
  0
HATCH
  5
61
330
17
100
AcDbEntity
  8
RASTER
 62
7
100
AcDbHatch
 10
0.0
 20
0.0
 30
0.0
210
0.0
220
0.0
230
1.0
  2
SOLID
 70
1
 71
0
 91
4
 92
3
 72
0
 73
1
 93
45
 10
223.383
 20
26.49
 10
223.951
 20
26.5
 10
224.637
 20
26.382
 10
225.057
 20
26.224
 10
225.492
 20
25.955
 10
225.743
 20
25.728
 10
226.08
 20
25.211
 10
226.324
 20
24.575
 10
226.414
 20
24.062
 10
226.349
 20
23.499
 10
225.929
 20
22.587
 10
225.912
 20
22.303
 10
226.012
 20
21.876
 10
225.937
 20
21.599
 10
225.811
 20
21.474
 10
225.62
 20
21.388
 10
224.884
 20
21.27
 10
224.781
 20
21.097
 10
224.856
 20
20.619
 10
224.813
 20
20.461
 10
224.494
 20
20.278
 10
223.876
 20
20.167
 10
223.499
 20
20.167
 10
223.064
 20
20.235
 10
222.645
 20
20.393
 10
222.544
 20
20.494
 10
222.519
 20
20.594
 10
222.594
 20
20.996
 10
222.562
 20
21.215
 10
222.401
 20
21.305
 10
221.775
 20
21.383
 10
221.496
 20
21.532
 10
221.388
 20
21.801
 10
221.406
 20
22.059
 10
221.488
 20
22.328
 10
221.448
 20
22.615
 10
221.144
 20
23.215
 10
220.986
 20
23.761
 10
220.986
 20
24.188
 10
221.076
 20
24.625
 10
221.32
 20
25.236
 10
221.581
 20
25.653
 10
222.019
 20
26.045
 10
222.426
 20
26.266
 10
222.861
 20
26.41
 97
0
 92
3
 72
0
 73
1
 93
15
 10
222.627
 20
23.175
 10
222.268
 20
23.082
 10
222.109
 20
22.964
 10
221.951
 20
22.695
 10
221.918
 20
22.507
 10
221.974
 20
22.311
 10
222.084
 20
22.17
 10
222.283
 20
22.067
 10
222.72
 20
22.077
 10
222.936
 20
22.137
 10
223.13
 20
22.27
 10
223.288
 20
22.565
 10
223.283
 20
22.841
 10
223.165
 20
23.05
 10
222.956
 20
23.168
 97
0
 92
3
 72
0
 73
1
 93
14
 10
224.461
 20
23.175
 10
224.27
 20
23.09
 10
224.112
 20
22.871
 10
224.112
 20
22.539
 10
224.245
 20
22.296
 10
224.514
 20
22.112
 10
224.906
 20
22.052
 10
225.117
 20
22.067
 10
225.341
 20
22.195
 10
225.444
 20
22.394
 10
225.459
 20
22.58
 10
225.316
 20
22.914
 10
225.158
 20
23.057
 10
224.967
 20
23.143
 97
0
 92
3
 72
0
 73
1
 93
70
 10
220.594
 20
20.961
 10
220.817
 20
20.954
 10
221.011
 20
20.871
 10
221.456
 20
20.411
 10
221.875
 20
20.127
 10
223.675
 20
19.363
 10
224.095
 20
19.496
 10
225.607
 20
20.17
 10
225.944
 20
20.411
 10
226.331
 20
20.828
 10
226.472
 20
20.913
 10
226.691
 20
20.971
 10
226.917
 20
20.921
 10
227.05
 20
20.702
 10
227.057
 20
20.408
 10
227.226
 20
20.275
 10
227.311
 20
20.134
 10
227.309
 20
19.875
 10
227.201
 20
19.732
 10
226.919
 20
19.612
 10
226.49
 20
19.614
 10
225.972
 20
19.529
 10
224.773
 20
19.019
 10
224.73
 20
18.936
 10
224.791
 20
18.845
 10
225.896
 20
18.368
 10
226.439
 20
18.257
 10
227.002
 20
18.242
 10
227.201
 20
18.139
 10
227.309
 20
17.996
 10
227.309
 20
17.739
 10
227.226
 20
17.596
 10
227.057
 20
17.463
 10
227.017
 20
17.076
 10
226.826
 20
16.915
 10
226.691
 20
16.9
 10
226.472
 20
16.958
 10
226.306
 20
17.068
 10
225.919
 20
17.486
 10
225.658
 20
17.677
 10
223.868
 20
18.476
 10
223.65
 20
18.508
 10
221.742
 20
17.677
 10
221.481
 20
17.486
 10
221.094
 20
17.068
 10
220.928
 20
16.958
 10
220.709
 20
16.9
 10
220.486
 20
16.953
 10
220.35
 20
17.169
 10
220.343
 20
17.463
 10
220.174
 20
17.596
 10
220.091
 20
17.739
 10
220.091
 20
17.996
 10
220.199
 20
18.139
 10
220.398
 20
18.242
 10
220.961
 20
18.257
 10
221.504
 20
18.368
 10
222.609
 20
18.845
 10
222.67
 20
18.936
 10
222.627
 20
19.019
 10
221.428
 20
19.529
 10
220.91
 20
19.614
 10
220.481
 20
19.612
 10
220.199
 20
19.732
 10
220.091
 20
19.875
 10
220.089
 20
20.134
 10
220.174
 20
20.275
 10
220.343
 20
20.408
 10
220.332
 20
20.594
 10
220.408
 20
20.846
 97
0
 75
0
 76
1
 98
0
  0
LWPOLYLINE
  5
62
330
17
100
AcDbEntity
  8
CUT
100
AcDbPolyline
 90
18
 70
1
 10
239.86
 20
30.94
 10
242.54
 20
30.94
 10
242.54
 20
28.94
 10
247.24
 20
28.94
 10
247.24
 20
17.877
 10
244.418
 20
16.264
 10
242.54
 20
15.473
 10
242.54
 20
11.94
 10
244.69
 20
11.94
 10
244.69
 20
5.96
 10
237.71
 20
5.96
 10
237.71
 20
11.94
 10
239.86
 20
11.94
 10
239.86
 20
15.469
 10
236.679
 20
16.264
 10
235.16
 20
17.884
 10
235.16
 20
28.94
 10
239.86
 20
28.94
  0
HATCH
  5
63
330
17
100
AcDbEntity
  8
RASTER
 62
7
100
AcDbHatch
 10
0.0
 20
0.0
 30
0.0
210
0.0
220
0.0
230
1.0
  2
SOLID
 70
1
 71
0
 91
1
 92
3
 72
0
 73
1
 93
4
 10
235.2
 20
28.3
 10
247.2
 20
28.3
 10
247.2
 20
27.8
 10
235.2
 20
27.8
 97
0
 75
0
 76
1
 98
0
  0
HATCH
  5
64
330
17
100
AcDbEntity
  8
RASTER
 62
7
100
AcDbHatch
 10
0.0
 20
0.0
 30
0.0
210
0.0
220
0.0
230
1.0
  2
SOLID
 70
1
 71
0
 91
4
 92
3
 72
0
 73
1
 93
45
 10
240.949
 20
26.492
 10
241.399
 20
26.5
 10
241.942
 20
26.406
 10
242.274
 20
26.281
 10
242.619
 20
26.068
 10
242.817
 20
25.889
 10
243.084
 20
25.479
 10
243.277
 20
24.976
 10
243.349
 20
24.57
 10
243.297
 20
24.125
 10
242.965
 20
23.402
 10
242.951
 20
23.177
 10
243.03
 20
22.839
 10
242.971
 20
22.62
 10
242.871
 20
22.521
 10
242.72
 20
22.453
 10
242.137
 20
22.36
 10
242.055
 20
22.223
 10
242.115
 20
21.845
 10
242.081
 20
21.719
 10
241.829
 20
21.574
 10
241.339
 20
21.486
 10
241.041
 20
21.486
 10
240.697
 20
21.54
 10
240.364
 20
21.665
 10
240.285
 20
21.745
 10
240.265
 20
21.825
 10
240.325
 20
22.143
 10
240.299
 20
22.316
 10
240.171
 20
22.388
 10
239.676
 20
22.449
 10
239.455
 20
22.567
 10
239.37
 20
22.78
 10
239.384
 20
22.985
 10
239.449
 20
23.197
 10
239.417
 20
23.424
 10
239.177
 20
23.9
 10
239.051
 20
24.331
 10
239.051
 20
24.67
 10
239.123
 20
25.016
 10
239.316
 20
25.499
 10
239.523
 20
25.83
 10
239.869
 20
26.14
 10
240.191
 20
26.315
 10
240.535
 20
26.428
 97
0
 92
3
 72
0
 73
1
 93
15
 10
240.35
 20
23.868
 10
240.066
 20
23.794
 10
239.941
 20
23.701
 10
239.815
 20
23.488
 10
239.789
 20
23.339
 10
239.833
 20
23.183
 10
239.921
 20
23.072
 10
240.078
 20
22.99
 10
240.424
 20
22.998
 10
240.595
 20
23.046
 10
240.748
 20
23.152
 10
240.874
 20
23.384
 10
240.87
 20
23.603
 10
240.776
 20
23.768
 10
240.611
 20
23.862
 97
0
 92
3
 72
0
 73
1
 93
14
 10
241.803
 20
23.868
 10
241.652
 20
23.8
 10
241.526
 20
23.627
 10
241.526
 20
23.365
 10
241.632
 20
23.172
 10
241.845
 20
23.026
 10
242.155
 20
22.979
 10
242.322
 20
22.99
 10
242.499
 20
23.092
 10
242.581
 20
23.249
 10
242.593
 20
23.396
 10
242.479
 20
23.661
 10
242.354
 20
23.774
 10
242.203
 20
23.842
 97
0
 92
3
 72
0
 73
1
 93
70
 10
238.741
 20
22.115
 10
238.918
 20
22.109
 10
239.071
 20
22.043
 10
239.423
 20
21.679
 10
239.756
 20
21.455
 10
241.18
 20
20.85
 10
241.512
 20
20.955
 10
242.71
 20
21.488
 10
242.977
 20
21.679
 10
243.283
 20
22.01
 10
243.394
 20
22.077
 10
243.568
 20
22.123
 10
243.747
 20
22.083
 10
243.852
 20
21.91
 10
243.858
 20
21.677
 10
243.991
 20
21.572
 10
244.059
 20
21.461
 10
244.057
 20
21.256
 10
243.971
 20
21.142
 10
243.749
 20
21.047
 10
243.408
 20
21.049
 10
242.999
 20
20.981
 10
242.05
 20
20.577
 10
242.016
 20
20.512
 10
242.063
 20
20.44
 10
242.939
 20
20.062
 10
243.369
 20
19.974
 10
243.814
 20
19.962
 10
243.971
 20
19.881
 10
244.057
 20
19.767
 10
244.057
 20
19.565
 10
243.991
 20
19.451
 10
243.858
 20
19.346
 10
243.826
 20
19.039
 10
243.675
 20
18.912
 10
243.568
 20
18.9
 10
243.394
 20
18.946
 10
243.263
 20
19.033
 10
242.957
 20
19.364
 10
242.75
 20
19.515
 10
241.333
 20
20.147
 10
241.16
 20
20.173
 10
239.65
 20
19.515
 10
239.443
 20
19.364
 10
239.137
 20
19.033
 10
239.006
 20
18.946
 10
238.832
 20
18.9
 10
238.655
 20
18.942
 10
238.548
 20
19.113
 10
238.542
 20
19.346
 10
238.409
 20
19.451
 10
238.343
 20
19.565
 10
238.343
 20
19.767
 10
238.429
 20
19.881
 10
238.586
 20
19.962
 10
239.031
 20
19.974
 10
239.461
 20
20.062
 10
240.337
 20
20.44
 10
240.384
 20
20.512
 10
240.35
 20
20.577
 10
239.401
 20
20.981
 10
238.992
 20
21.049
 10
238.651
 20
21.047
 10
238.429
 20
21.142
 10
238.343
 20
21.256
 10
238.341
 20
21.461
 10
238.409
 20
21.572
 10
238.542
 20
21.677
 10
238.534
 20
21.825
 10
238.594
 20
22.024
 97
0
 75
0
 76
1
 98
0
  0
ENDSEC
  0
SECTION
  2
OBJECTS
  0
DICTIONARY
  5
A
330
0
100
AcDbDictionary
281
1
  3
ACAD_COLOR
350
B
  3
ACAD_GROUP
350
C
  3
ACAD_LAYOUT
350
D
  3
ACAD_MATERIAL
350
E
  3
ACAD_MLEADERSTYLE
350
F
  3
ACAD_MLINESTYLE
350
10
  3
ACAD_PLOTSETTINGS
350
11
  3
ACAD_PLOTSTYLENAME
350
12
  3
ACAD_SCALELIST
350
14
  3
ACAD_TABLESTYLE
350
15
  3
ACAD_VISUALSTYLE
350
16
  3
EZDXF_META
350
2D
  0
DICTIONARY
  5
B
330
A
100
AcDbDictionary
281
1
  0
DICTIONARY
  5
C
330
A
100
AcDbDictionary
281
1
  0
DICTIONARY
  5
D
330
A
100
AcDbDictionary
281
1
  3
Model
350
1A
  3
Layout1
350
1E
  0
DICTIONARY
  5
E
330
A
100
AcDbDictionary
281
1
  3
ByBlock
350
1F
  3
ByLayer
350
20
  3
Global
350
21
  0
DICTIONARY
  5
F
330
A
100
AcDbDictionary
281
1
  3
Standard
350
2C
  0
DICTIONARY
  5
10
330
A
100
AcDbDictionary
281
1
  3
Standard
350
22
  0
DICTIONARY
  5
11
330
A
100
AcDbDictionary
281
1
  0
ACDBDICTIONARYWDFLT
  5
12
330
A
100
AcDbDictionary
281
1
  3
Normal
350
13
100
AcDbDictionaryWithDefault
340
13
  0
ACDBPLACEHOLDER
  5
13
330
12
  0
DICTIONARY
  5
14
330
A
100
AcDbDictionary
281
1
  0
DICTIONARY
  5
15
330
A
100
AcDbDictionary
281
1
  0
DICTIONARY
  5
16
330
A
100
AcDbDictionary
281
1
  0
LAYOUT
  5
1A
330
D
100
AcDbPlotSettings
  1

  4
A3
  6

 40
7.5
 41
20.0
 42
7.5
 43
20.0
 44
420.0
 45
297.0
 46
0.0
 47
0.0
 48
0.0
 49
0.0
140
0.0
141
0.0
142
1.0
143
1.0
 70
1024
 72
1
 73
0
 74
5
  7

 75
16
 76
0
 77
2
 78
300
147
1.0
148
0.0
149
0.0
100
AcDbLayout
  1
Model
 70
1
 71
0
 10
0.0
 20
0.0
 11
420.0
 21
297.0
 12
0.0
 22
0.0
 32
0.0
 14
1e+20
 24
1e+20
 34
1e+20
 15
-1e+20
 25
-1e+20
 35
-1e+20
146
0.0
 13
0.0
 23
0.0
 33
0.0
 16
1.0
 26
0.0
 36
0.0
 17
0.0
 27
1.0
 37
0.0
 76
1
330
17
  0
LAYOUT
  5
1E
330
D
100
AcDbPlotSettings
  1

  4
A3
  6

 40
7.5
 41
20.0
 42
7.5
 43
20.0
 44
420.0
 45
297.0
 46
0.0
 47
0.0
 48
0.0
 49
0.0
140
0.0
141
0.0
142
1.0
143
1.0
 70
0
 72
1
 73
0
 74
5
  7

 75
16
 76
0
 77
2
 78
300
147
1.0
148
0.0
149
0.0
100
AcDbLayout
  1
Layout1
 70
1
 71
1
 10
0.0
 20
0.0
 11
420.0
 21
297.0
 12
0.0
 22
0.0
 32
0.0
 14
1e+20
 24
1e+20
 34
1e+20
 15
-1e+20
 25
-1e+20
 35
-1e+20
146
0.0
 13
0.0
 23
0.0
 33
0.0
 16
1.0
 26
0.0
 36
0.0
 17
0.0
 27
1.0
 37
0.0
 76
1
330
1B
  0
MATERIAL
  5
1F
102
{ACAD_REACTORS
330
E
102
}
330
E
100
AcDbMaterial
  1
ByBlock
  2

 70
0
 40
1.0
 71
1
 41
1.0
 91
-1023410177
 42
1.0
 72
1
  3

 73
1
 74
1
 75
1
 44
0.5
 73
0
 45
1.0
 46
1.0
 77
1
  4

 78
1
 79
1
170
1
 48
1.0
171
1
  6

172
1
173
1
174
1
140
1.0
141
1.0
175
1
  7

176
1
177
1
178
1
143
1.0
179
1
  8

270
1
271
1
272
1
145
1.0
146
1.0
273
1
  9

274
1
275
1
276
1
 42
1.0
 72
1
  3

 73
1
 74
1
 75
1
 94
63
  0
MATERIAL
  5
20
102
{ACAD_REACTORS
330
E
102
}
330
E
100
AcDbMaterial
  1
ByLayer
  2

 70
0
 40
1.0
 71
1
 41
1.0
 91
-1023410177
 42
1.0
 72
1
  3

 73
1
 74
1
 75
1
 44
0.5
 73
0
 45
1.0
 46
1.0
 77
1
  4

 78
1
 79
1
170
1
 48
1.0
171
1
  6

172
1
173
1
174
1
140
1.0
141
1.0
175
1
  7

176
1
177
1
178
1
143
1.0
179
1
  8

270
1
271
1
272
1
145
1.0
146
1.0
273
1
  9

274
1
275
1
276
1
 42
1.0
 72
1
  3

 73
1
 74
1
 75
1
 94
63
  0
MATERIAL
  5
21
102
{ACAD_REACTORS
330
E
102
}
330
E
100
AcDbMaterial
  1
Global
  2

 70
0
 40
1.0
 71
1
 41
1.0
 91
-1023410177
 42
1.0
 72
1
  3

 73
1
 74
1
 75
1
 44
0.5
 73
0
 45
1.0
 46
1.0
 77
1
  4

 78
1
 79
1
170
1
 48
1.0
171
1
  6

172
1
173
1
174
1
140
1.0
141
1.0
175
1
  7

176
1
177
1
178
1
143
1.0
179
1
  8

270
1
271
1
272
1
145
1.0
146
1.0
273
1
  9

274
1
275
1
276
1
 42
1.0
 72
1
  3

 73
1
 74
1
 75
1
 94
63
  0
MLINESTYLE
  5
22
102
{ACAD_REACTORS
330
10
102
}
330
10
100
AcDbMlineStyle
  2
Standard
 70
0
  3

 62
256
 51
90.0
 52
90.0
 71
2
 49
0.5
 62
256
  6
BYLAYER
 49
-0.5
 62
256
  6
BYLAYER
  0
MLEADERSTYLE
  5
2C
102
{ACAD_REACTORS
330
F
102
}
330
F
100
AcDbMLeaderStyle
179
2
170
2
171
1
172
0
 90
2
 40
0.0
 41
0.0
173
1
 91
-1056964608
 92
-2
290
1
 42
2.0
291
1
 43
8.0
  3
Standard
 44
4.0
300

342
29
174
1
175
1
176
0
178
1
 93
-1056964608
 45
4.0
292
0
297
0
 46
4.0
 94
-1056964608
 47
1.0
 49
1.0
140
1.0
294
1
141
0.0
177
0
142
1.0
295
0
296
0
143
3.75
271
0
272
9
273
9
  0
DICTIONARY
  5
2D
330
A
100
AcDbDictionary
280
1
281
1
  3
CREATED_BY_EZDXF
350
2E
  3
WRITTEN_BY_EZDXF
350
67
  0
DICTIONARYVAR
  5
2E
330
2D
100
DictionaryVariables
280
0
  1
1.4.2 @ 2026-08-25T23:57:12.516757+00:00
  0
DICTIONARYVAR
  5
67
330
2D
100
DictionaryVariables
280
0
  1
1.4.2 @ 2026-08-25T23:57:12.519105+00:00
  0
ENDSEC
  0
EOF
