  0
SECTION
  2
HEADER
  9
$ACADVER
  1
AC1015
  9
$ACADMAINTVER
 70
6
  9
$DWGCODEPAGE
  3
ANSI_1252
  9
$INSBASE
 10
0.0
 20
0.0
 30
0.0
  9
$EXTMIN
 10
1e+20
 20
1e+20
 30
1e+20
  9
$EXTMAX
 10
-1e+20
 20
-1e+20
 30
-1e+20
  9
$LIMMIN
 10
0.0
 20
0.0
  9
$LIMMAX
 10
420.0
 20
297.0
  9
$ORTHOMODE
 70
0
  9
$REGENMODE
 70
1
  9
$FILLMODE
 70
1
  9
$QTEXTMODE
 70
0
  9
$MIRRTEXT
 70
1
  9
$LTSCALE
 40
1.0
  9
$ATTMODE
 70
1
  9
$TEXTSIZE
 40
2.5
  9
$TRACEWID
 40
1.0
  9
$TEXTSTYLE
  7
Standard
  9
$CLAYER
  8
0
  9
$CELTYPE
  6
ByLayer
  9
$CECOLOR
 62
256
  9
$CELTSCALE
 40
1.0
  9
$DISPSILH
 70
0
  9
$DIMSCALE
 40
1.0
  9
$DIMASZ
 40
2.5
  9
$DIMEXO
 40
0.625
  9
$DIMDLI
 40
3.75
  9
$DIMRND
 40
0.0
  9
$DIMDLE
 40
0.0
  9
$DIMEXE
 40
1.25
  9
$DIMTP
 40
0.0
  9
$DIMTM
 40
0.0
  9
$DIMTXT
 40
2.5
  9
$DIMCEN
 40
2.5
  9
$DIMTSZ
 40
0.0
  9
$DIMTOL
 70
0
  9
$DIMLIM
 70
0
  9
$DIMTIH
 70
0
  9
$DIMTOH
 70
0
  9
$DIMSE1
 70
0
  9
$DIMSE2
 70
0
  9
$DIMTAD
 70
1
  9
$DIMZIN
 70
8
  9
$DIMBLK
  1

  9
$DIMASO
 70
1
  9
$DIMSHO
 70
1
  9
$DIMPOST
  1

  9
$DIMAPOST
  1

  9
$DIMALT
 70
0
  9
$DIMALTD
 70
3
  9
$DIMALTF
 40
0.03937007874
  9
$DIMLFAC
 40
1.0
  9
$DIMTOFL
 70
1
  9
$DIMTVP
 40
0.0
  9
$DIMTIX
 70
0
  9
$DIMSOXD
 70
0
  9
$DIMSAH
 70
0
  9
$DIMBLK1
  1

  9
$DIMBLK2
  1

  9
$DIMSTYLE
  2
ISO-25
  9
$DIMCLRD
 70
0
  9
$DIMCLRE
 70
0
  9
$DIMCLRT
 70
0
  9
$DIMTFAC
 40
1.0
  9
$DIMGAP
 40
0.625
  9
$DIMJUST
 70
0
  9
$DIMSD1
 70
0
  9
$DIMSD2
 70
0
  9
$DIMTOLJ
 70
0
  9
$DIMTZIN
 70
8
  9
$DIMALTZ
 70
0
  9
$DIMALTTZ
 70
0
  9
$DIMUPT
 70
0
  9
$DIMDEC
 70
2
  9
$DIMTDEC
 70
2
  9
$DIMALTU
 70
2
  9
$DIMALTTD
 70
3
  9
$DIMTXSTY
  7
Standard
  9
$DIMAUNIT
 70
0
  9
$DIMADEC
 70
0
  9
$DIMALTRND
 40
0.0
  9
$DIMAZIN
 70
0
  9
$DIMDSEP
 70
44
  9
$DIMATFIT
 70
3
  9
$DIMFRAC
 70
0
  9
$DIMLDRBLK
  1

  9
$DIMLUNIT
 70
2
  9
$DIMLWD
 70
-2
  9
$DIMLWE
 70
-2
  9
$DIMTMOVE
 70
0
  9
$LUNITS
 70
2
  9
$LUPREC
 70
4
  9
$SKETCHINC
 40
1.0
  9
$FILLETRAD
 40
10.0
  9
$AUNITS
 70
0
  9
$AUPREC
 70
2
  9
$MENU
  1
.
  9
$ELEVATION
 40
0.0
  9
$PELEVATION
 40
0.0
  9
$THICKNESS
 40
0.0
  9
$LIMCHECK
 70
0
  9
$CHAMFERA
 40
0.0
  9
$CHAMFERB
 40
0.0
  9
$CHAMFERC
 40
0.0
  9
$CHAMFERD
 40
0.0
  9
$SKPOLY
 70
0
  9
$TDCREATE
 40
2461278.831388889
  9
$TDUCREATE
 40
2458532.153996898
  9
$TDUPDATE
 40
2461278.831388889
  9
$TDUUPDATE
 40
2458532.1544311
  9
$TDINDWG
 40
0.0
  9
$TDUSRTIMER
 40
0.0
  9
$USRTIMER
 70
1
  9
$ANGBASE
 50
0.0
  9
$ANGDIR
 70
0
  9
$PDMODE
 70
0
  9
$PDSIZE
 40
0.0
  9
$PLINEWID
 40
0.0
  9
$SPLFRAME
 70
0
  9
$SPLINETYPE
 70
6
  9
$SPLINESEGS
 70
8
  9
$HANDSEED
  5
91
  9
$SURFTAB1
 70
6
  9
$SURFTAB2
 70
6
  9
$SURFTYPE
 70
6
  9
$SURFU
 70
6
  9
$SURFV
 70
6
  9
$UCSBASE
  2

  9
$UCSNAME
  2

  9
$UCSORG
 10
0.0
 20
0.0
 30
0.0
  9
$UCSXDIR
 10
1.0
 20
0.0
 30
0.0
  9
$UCSYDIR
 10
0.0
 20
1.0
 30
0.0
  9
$UCSORTHOREF
  2

  9
$UCSORTHOVIEW
 70
0
  9
$UCSORGTOP
 10
0.0
 20
0.0
 30
0.0
  9
$UCSORGBOTTOM
 10
0.0
 20
0.0
 30
0.0
  9
$UCSORGLEFT
 10
0.0
 20
0.0
 30
0.0
  9
$UCSORGRIGHT
 10
0.0
 20
0.0
 30
0.0
  9
$UCSORGFRONT
 10
0.0
 20
0.0
 30
0.0
  9
$UCSORGBACK
 10
0.0
 20
0.0
 30
0.0
  9
$PUCSBASE
  2

  9
$PUCSNAME
  2

  9
$PUCSORG
 10
0.0
 20
0.0
 30
0.0
  9
$PUCSXDIR
 10
1.0
 20
0.0
 30
0.0
  9
$PUCSYDIR
 10
0.0
 20
1.0
 30
0.0
  9
$PUCSORTHOREF
  2

  9
$PUCSORTHOVIEW
 70
0
  9
$PUCSORGTOP
 10
0.0
 20
0.0
 30
0.0
  9
$PUCSORGBOTTOM
 10
0.0
 20
0.0
 30
0.0
  9
$PUCSORGLEFT
 10
0.0
 20
0.0
 30
0.0
  9
$PUCSORGRIGHT
 10
0.0
 20
0.0
 30
0.0
  9
$PUCSORGFRONT
 10
0.0
 20
0.0
 30
0.0
  9
$PUCSORGBACK
 10
0.0
 20
0.0
 30
0.0
  9
$USERI1
 70
0
  9
$USERI2
 70
0
  9
$USERI3
 70
0
  9
$USERI4
 70
0
  9
$USERI5
 70
0
  9
$USERR1
 40
0.0
  9
$USERR2
 40
0.0
  9
$USERR3
 40
0.0
  9
$USERR4
 40
0.0
  9
$USERR5
 40
0.0
  9
$WORLDVIEW
 70
1
  9
$SHADEDGE
 70
3
  9
$SHADEDIF
 70
70
  9
$TILEMODE
 70
1
  9
$MAXACTVP
 70
64
  9
$PINSBASE
 10
0.0
 20
0.0
 30
0.0
  9
$PLIMCHECK
 70
0
  9
$PEXTMIN
 10
1e+20
 20
1e+20
 30
1e+20
  9
$PEXTMAX
 10
-1e+20
 20
-1e+20
 30
-1e+20
  9
$PLIMMIN
 10
0.0
 20
0.0
  9
$PLIMMAX
 10
420.0
 20
297.0
  9
$UNITMODE
 70
0
  9
$VISRETAIN
 70
1
  9
$PLINEGEN
 70
0
  9
$PSLTSCALE
 70
1
  9
$TREEDEPTH
 70
3020
  9
$CMLSTYLE
  2
Standard
  9
$CMLJUST
 70
0
  9
$CMLSCALE
 40
20.0
  9
$PROXYGRAPHICS
 70
1
  9
$MEASUREMENT
 70
1
  9
$CELWEIGHT
370
-1
  9
$ENDCAPS
280
0
  9
$JOINSTYLE
280
0
  9
$LWDISPLAY
290
0
  9
$INSUNITS
 70
4
  9
$HYPERLINKBASE
  1

  9
$STYLESHEET
  1

  9
$XEDIT
290
1
  9
$CEPSNTYPE
380
0
  9
$PSTYLEMODE
290
1
  9
$FINGERPRINTGUID
  2
{BC4B909E-DB87-4C93-8BFA-75558C43FBE9}
  9
$VERSIONGUID
  2
{4C2141D1-E4BF-4387-A771-0D23B847F9CB}
  9
$EXTNAMES
290
1
  9
$PSVPSCALE
 40
0.0
  9
$OLESTARTUP
290
0
  0
ENDSEC
  0
SECTION
  2
CLASSES
  0
CLASS
  1
ACDBDICTIONARYWDFLT
  2
AcDbDictionaryWithDefault
  3
ObjectDBX Classes
 90
0
280
0
281
0
  0
CLASS
  1
SUN
  2
AcDbSun
  3
SCENEOE
 90
1153
280
0
281
0
  0
CLASS
  1
VISUALSTYLE
  2
AcDbVisualStyle
  3
ObjectDBX Classes
 90
4095
280
0
281
0
  0
CLASS
  1
MATERIAL
  2
AcDbMaterial
  3
ObjectDBX Classes
 90
1153
280
0
281
0
  0
CLASS
  1
SCALE
  2
AcDbScale
  3
ObjectDBX Classes
 90
1153
280
0
281
0
  0
CLASS
  1
TABLESTYLE
  2
AcDbTableStyle
  3
ObjectDBX Classes
 90
4095
280
0
281
0
  0
CLASS
  1
MLEADERSTYLE
  2
AcDbMLeaderStyle
  3
ACDB_MLEADERSTYLE_CLASS
 90
4095
280
0
281
0
  0
CLASS
  1
DICTIONARYVAR
  2
AcDbDictionaryVar
  3
ObjectDBX Classes
 90
0
280
0
281
0
  0
CLASS
  1
CELLSTYLEMAP
  2
AcDbCellStyleMap
  3
ObjectDBX Classes
 90
1152
280
0
281
0
  0
CLASS
  1
MENTALRAYRENDERSETTINGS
  2
AcDbMentalRayRenderSettings
  3
SCENEOE
 90
1024
280
0
281
0
  0
CLASS
  1
ACDBDETAILVIEWSTYLE
  2
AcDbDetailViewStyle
  3
ObjectDBX Classes
 90
1025
280
0
281
0
  0
CLASS
  1
ACDBSECTIONVIEWSTYLE
  2
AcDbSectionViewStyle
  3
ObjectDBX Classes
 90
1025
280
0
281
0
  0
CLASS
  1
RASTERVARIABLES
  2
AcDbRasterVariables
  3
ISM
 90
0
280
0
281
0
  0
CLASS
  1
ACDBPLACEHOLDER
  2
AcDbPlaceHolder
  3
ObjectDBX Classes
 90
0
280
0
281
0
  0
CLASS
  1
LAYOUT
  2
AcDbLayout
  3
ObjectDBX Classes
 90
0
280
0
281
0
  0
ENDSEC
  0
SECTION
  2
TABLES
  0
TABLE
  2
VPORT
  5
8
330
0
100
AcDbSymbolTable
 70
1
  0
VPORT
  5
23
330
8
100
AcDbSymbolTableRecord
100
AcDbViewportTableRecord
  2
*Active
 70
0
 10
0.0
 20
0.0
 11
1.0
 21
1.0
 12
0.0
 22
0.0
 13
0.0
 23
0.0
 14
0.5
 24
0.5
 15
0.5
 25
0.5
 16
0.0
 26
0.0
 36
1.0
 17
0.0
 27
0.0
 37
0.0
 40
1000.0
 41
1.34
 42
50.0
 43
0.0
 44
0.0
 50
0.0
 51
0.0
 71
0
 72
1000
 73
1
 74
3
 75
0
 76
0
 77
0
 78
0
281
0
 65
0
146
0.0
  0
ENDTAB
  0
TABLE
  2
LTYPE
  5
2
330
0
100
AcDbSymbolTable
 70
3
  0
LTYPE
  5
24
330
2
100
AcDbSymbolTableRecord
100
AcDbLinetypeTableRecord
  2
ByBlock
 70
0
  3

 72
65
 73
0
 40
0.0
  0
LTYPE
  5
25
330
2
100
AcDbSymbolTableRecord
100
AcDbLinetypeTableRecord
  2
ByLayer
 70
0
  3

 72
65
 73
0
 40
0.0
  0
LTYPE
  5
26
330
2
100
AcDbSymbolTableRecord
100
AcDbLinetypeTableRecord
  2
Continuous
 70
0
  3

 72
65
 73
0
 40
0.0
  0
ENDTAB
  0
TABLE
  2
LAYER
  5
1
330
0
100
AcDbSymbolTable
 70
4
  0
LAYER
  5
27
330
1
100
AcDbSymbolTableRecord
100
AcDbLayerTableRecord
  2
0
 70
0
 62
7
  6
Continuous
370
-3
390
13
  0
LAYER
  5
28
330
1
100
AcDbSymbolTableRecord
100
AcDbLayerTableRecord
  2
Defpoints
 70
0
 62
7
  6
Continuous
290
0
370
-3
390
13
  0
LAYER
  5
2F
330
1
100
AcDbSymbolTableRecord
100
AcDbLayerTableRecord
  2
CUT
 70
0
 62
1
  6
Continuous
370
-3
390
13
  0
LAYER
  5
30
330
1
100
AcDbSymbolTableRecord
100
AcDbLayerTableRecord
  2
RASTER
 70
0
 62
7
  6
Continuous
370
-3
390
13
  0
ENDTAB
  0
TABLE
  2
STYLE
  5
5
330
0
100
AcDbSymbolTable
 70
1
  0
STYLE
  5
29
330
5
100
AcDbSymbolTableRecord
100
AcDbTextStyleTableRecord
  2
Standard
 70
0
 40
0.0
 41
1.0
 50
0.0
 71
0
 42
2.5
  3
txt
  4

  0
ENDTAB
  0
TABLE
  2
VIEW
  5
7
330
0
100
AcDbSymbolTable
 70
0
  0
ENDTAB
  0
TABLE
  2
UCS
  5
6
330
0
100
AcDbSymbolTable
 70
0
  0
ENDTAB
  0
TABLE
  2
APPID
  5
3
330
0
100
AcDbSymbolTable
 70
3
  0
APPID
  5
2A
330
3
100
AcDbSymbolTableRecord
100
AcDbRegAppTableRecord
  2
ACAD
 70
0
  0
APPID
  5
8E
330
3
100
AcDbSymbolTableRecord
100
AcDbRegAppTableRecord
  2
HATCHBACKGROUNDCOLOR
 70
0
  0
APPID
  5
8F
330
3
100
AcDbSymbolTableRecord
100
AcDbRegAppTableRecord
  2
EZDXF
 70
0
  0
ENDTAB
  0
TABLE
  2
DIMSTYLE
  5
4
330
0
100
AcDbSymbolTable
 70
1
100
AcDbDimStyleTable
  0
DIMSTYLE
105
2B
330
4
100
AcDbSymbolTableRecord
100
AcDbDimStyleTableRecord
  2
Standard
 70
0
  3

  4

 40
1.0
 41
2.5
 42
0.625
 43
3.75
 44
1.25
 45
0.0
 46
0.0
 47
0.0
 48
0.0
140
2.5
141
2.5
142
0.0
143
0.03937007874
144
1.0
145
0.0
146
1.0
147
0.625
148
0.0
 71
0
 72
0
 73
0
 74
0
 75
0
 76
0
 77
1
 78
8
 79
3
170
0
171
3
172
1
173
0
174
0
175
0
176
0
177
0
178
0
179
2
271
2
272
2
273
2
274
3
275
0
276
0
277
2
278
44
279
0
280
0
281
0
282
0
283
0
284
8
285
0
286
0
288
0
289
3
371
-2
372
-2
  0
ENDTAB
  0
TABLE
  2
BLOCK_RECORD
  5
9
330
0
100
AcDbSymbolTable
 70
2
  0
BLOCK_RECORD
  5
17
330
9
100
AcDbSymbolTableRecord
100
AcDbBlockTableRecord
  2
*Model_Space
340
1A
  0
BLOCK_RECORD
  5
1B
330
9
100
AcDbSymbolTableRecord
100
AcDbBlockTableRecord
  2
*Paper_Space
340
1E
  0
ENDTAB
  0
ENDSEC
  0
SECTION
  2
BLOCKS
  0
BLOCK
  5
18
330
17
100
AcDbEntity
  8
0
100
AcDbBlockBegin
  2
*Model_Space
 70
0
 10
0.0
 20
0.0
 30
0.0
  3
*Model_Space
  1

  0
ENDBLK
  5
19
330
17
100
AcDbEntity
  8
0
100
AcDbBlockEnd
  0
BLOCK
  5
1C
330
1B
100
AcDbEntity
  8
0
100
AcDbBlockBegin
  2
*Paper_Space
 70
0
 10
0.0
 20
0.0
 30
0.0
  3
*Paper_Space
  1

  0
ENDBLK
  5
1D
330
1B
100
AcDbEntity
  8
0
100
AcDbBlockEnd
  0
ENDSEC
  0
SECTION
  2
ENTITIES
  0
CIRCLE
  5
31
330
17
100
AcDbEntity
  8
CUT
100
AcDbCircle
 10
52.0
 20
88.5
 30
0.0
 40
48.04
  0
CIRCLE
  5
32
330
17
100
AcDbEntity
  8
CUT
100
AcDbCircle
 10
52.0
 20
88.5
 30
0.0
 40
1.61
  0
HATCH
  5
33
330
17
100
AcDbEntity
  8
RASTER
 62
7
100
AcDbHatch
 10
0.0
 20
0.0
 30
0.0
210
0.0
220
0.0
230
1.0
  2
SOLID
 70
1
 71
0
 91
2
 92
3
 72
0
 73
1
 93
48
 10
87.2
 20
88.5
 10
86.899
 20
83.905
 10
86.001
 20
79.39
 10
84.521
 20
75.03
 10
82.484
 20
70.9
 10
79.926
 20
67.072
 10
76.89
 20
63.61
 10
73.428
 20
60.574
 10
69.6
 20
58.016
 10
65.47
 20
55.979
 10
61.11
 20
54.499
 10
56.595
 20
53.601
 10
52.0
 20
53.3
 10
47.405
 20
53.601
 10
42.89
 20
54.499
 10
38.53
 20
55.979
 10
34.4
 20
58.016
 10
30.572
 20
60.574
 10
27.11
 20
63.61
 10
24.074
 20
67.072
 10
21.516
 20
70.9
 10
19.479
 20
75.03
 10
17.999
 20
79.39
 10
17.101
 20
83.905
 10
16.8
 20
88.5
 10
17.101
 20
93.095
 10
17.999
 20
97.61
 10
19.479
 20
101.97
 10
21.516
 20
106.1
 10
24.074
 20
109.928
 10
27.11
 20
113.39
 10
30.572
 20
116.426
 10
34.4
 20
118.984
 10
38.53
 20
121.021
 10
42.89
 20
122.501
 10
47.405
 20
123.399
 10
52.0
 20
123.7
 10
56.595
 20
123.399
 10
61.11
 20
122.501
 10
65.47
 20
121.021
 10
69.6
 20
118.984
 10
73.428
 20
116.426
 10
76.89
 20
113.39
 10
79.926
 20
109.928
 10
82.484
 20
106.1
 10
84.521
 20
101.97
 10
86.001
 20
97.61
 10
86.899
 20
93.095
 97
0
 92
3
 72
0
 73
1
 93
48
 10
86.7
 20
88.5
 10
86.403
 20
83.971
 10
85.518
 20
79.519
 10
84.059
 20
75.221
 10
82.051
 20
71.15
 10
79.529
 20
67.376
 10
76.537
 20
63.963
 10
73.124
 20
60.971
 10
69.35
 20
58.449
 10
65.279
 20
56.441
 10
60.981
 20
54.982
 10
56.529
 20
54.097
 10
52.0
 20
53.8
 10
47.471
 20
54.097
 10
43.019
 20
54.982
 10
38.721
 20
56.441
 10
34.65
 20
58.449
 10
30.876
 20
60.971
 10
27.463
 20
63.963
 10
24.471
 20
67.376
 10
21.949
 20
71.15
 10
19.941
 20
75.221
 10
18.482
 20
79.519
 10
17.597
 20
83.971
 10
17.3
 20
88.5
 10
17.597
 20
93.029
 10
18.482
 20
97.481
 10
19.941
 20
101.779
 10
21.949
 20
105.85
 10
24.471
 20
109.624
 10
27.463
 20
113.037
 10
30.876
 20
116.029
 10
34.65
 20
118.551
 10
38.721
 20
120.559
 10
43.019
 20
122.018
 10
47.471
 20
122.903
 10
52.0
 20
123.2
 10
56.529
 20
122.903
 10
60.981
 20
122.018
 10
65.279
 20
120.559
 10
69.35
 20
118.551
 10
73.124
 20
116.029
 10
76.537
 20
113.037
 10
79.529
 20
109.624
 10
82.051
 20
105.85
 10
84.059
 20
101.779
 10
85.518
 20
97.481
 10
86.403
 20
93.029
 97
0
 75
0
 76
1
 98
0
  0
CIRCLE
  5
34
330
17
100
AcDbEntity
  8
CUT
100
AcDbCircle
 10
140.8
 20
99.7
 30
0.0
 40
35.04
  0
CIRCLE
  5
35
330
17
100
AcDbEntity
  8
CUT
100
AcDbCircle
 10
140.8
 20
99.7
 30
0.0
 40
1.61
  0
HATCH
  5
36
330
17
100
AcDbEntity
  8
RASTER
 62
7
100
AcDbHatch
 10
0.0
 20
0.0
 30
0.0
210
0.0
220
0.0
230
1.0
  2
SOLID
 70
1
 71
0
 91
2
 92
3
 72
0
 73
1
 93
48
 10
145.0
 20
99.7
 10
144.964
 20
99.152
 10
144.857
 20
98.613
 10
144.68
 20
98.093
 10
144.437
 20
97.6
 10
144.132
 20
97.143
 10
143.77
 20
96.73
 10
143.357
 20
96.368
 10
142.9
 20
96.063
 10
142.407
 20
95.82
 10
141.887
 20
95.643
 10
141.348
 20
95.536
 10
140.8
 20
95.5
 10
140.252
 20
95.536
 10
139.713
 20
95.643
 10
139.193
 20
95.82
 10
138.7
 20
96.063
 10
138.243
 20
96.368
 10
137.83
 20
96.73
 10
137.468
 20
97.143
 10
137.163
 20
97.6
 10
136.92
 20
98.093
 10
136.743
 20
98.613
 10
136.636
 20
99.152
 10
136.6
 20
99.7
 10
136.636
 20
100.248
 10
136.743
 20
100.787
 10
136.92
 20
101.307
 10
137.163
 20
101.8
 10
137.468
 20
102.257
 10
137.83
 20
102.67
 10
138.243
 20
103.032
 10
138.7
 20
103.337
 10
139.193
 20
103.58
 10
139.713
 20
103.757
 10
140.252
 20
103.864
 10
140.8
 20
103.9
 10
141.348
 20
103.864
 10
141.887
 20
103.757
 10
142.407
 20
103.58
 10
142.9
 20
103.337
 10
143.357
 20
103.032
 10
143.77
 20
102.67
 10
144.132
 20
102.257
 10
144.437
 20
101.8
 10
144.68
 20
101.307
 10
144.857
 20
100.787
 10
144.964
 20
100.248
 97
0
 92
3
 72
0
 73
1
 93
48
 10
144.2
 20
99.7
 10
144.171
 20
99.256
 10
144.084
 20
98.82
 10
143.941
 20
98.399
 10
143.744
 20
98.0
 10
143.497
 20
97.63
 10
143.204
 20
97.296
 10
142.87
 20
97.003
 10
142.5
 20
96.756
 10
142.101
 20
96.559
 10
141.68
 20
96.416
 10
141.244
 20
96.329
 10
140.8
 20
96.3
 10
140.356
 20
96.329
 10
139.92
 20
96.416
 10
139.499
 20
96.559
 10
139.1
 20
96.756
 10
138.73
 20
97.003
 10
138.396
 20
97.296
 10
138.103
 20
97.63
 10
137.856
 20
98.0
 10
137.659
 20
98.399
 10
137.516
 20
98.82
 10
137.429
 20
99.256
 10
137.4
 20
99.7
 10
137.429
 20
100.144
 10
137.516
 20
100.58
 10
137.659
 20
101.001
 10
137.856
 20
101.4
 10
138.103
 20
101.77
 10
138.396
 20
102.104
 10
138.73
 20
102.397
 10
139.1
 20
102.644
 10
139.499
 20
102.841
 10
139.92
 20
102.984
 10
140.356
 20
103.071
 10
140.8
 20
103.1
 10
141.244
 20
103.071
 10
141.68
 20
102.984
 10
142.101
 20
102.841
 10
142.5
 20
102.644
 10
142.87
 20
102.397
 10
143.204
 20
102.104
 10
143.497
 20
101.77
 10
143.744
 20
101.4
 10
143.941
 20
101.001
 10
144.084
 20
100.58
 10
144.171
 20
100.144
 97
0
 75
0
 76
1
 98
0
  0
HATCH
  5
37
330
17
100
AcDbEntity
  8
RASTER
 62
7
100
AcDbHatch
 10
0.0
 20
0.0
 30
0.0
210
0.0
220
0.0
230
1.0
  2
SOLID
 70
1
 71
0
 91
1
 92
3
 72
0
 73
1
 93
50
 10
147.064
 20
133.118
 10
148.727
 20
132.763
 10
150.37
 20
132.325
 10
151.989
 20
131.806
 10
153.58
 20
131.207
 10
155.139
 20
130.529
 10
156.662
 20
129.773
 10
158.145
 20
128.943
 10
159.585
 20
128.039
 10
160.978
 20
127.065
 10
162.321
 20
126.022
 10
163.61
 20
124.913
 10
164.842
 20
123.742
 10
166.013
 20
122.51
 10
167.122
 20
121.221
 10
168.165
 20
119.878
 10
169.139
 20
118.485
 10
170.043
 20
117.045
 10
170.873
 20
115.562
 10
171.629
 20
114.039
 10
172.307
 20
112.48
 10
172.906
 20
110.889
 10
173.425
 20
109.27
 10
173.863
 20
107.627
 10
174.218
 20
105.964
 10
173.53
 20
105.836
 10
173.182
 20
107.464
 10
172.754
 20
109.073
 10
172.245
 20
110.658
 10
171.658
 20
112.217
 10
170.994
 20
113.743
 10
170.254
 20
115.235
 10
169.441
 20
116.688
 10
168.556
 20
118.098
 10
167.601
 20
119.463
 10
166.58
 20
120.778
 10
165.494
 20
122.04
 10
164.347
 20
123.247
 10
163.14
 20
124.394
 10
161.878
 20
125.48
 10
160.563
 20
126.501
 10
159.198
 20
127.456
 10
157.788
 20
128.341
 10
156.335
 20
129.154
 10
154.843
 20
129.894
 10
153.317
 20
130.558
 10
151.758
 20
131.145
 10
150.173
 20
131.654
 10
148.564
 20
132.082
 10
146.936
 20
132.43
 97
0
 75
0
 76
1
 98
0
  0
HATCH
  5
38
330
17
100
AcDbEntity
  8
RASTER
 62
7
100
AcDbHatch
 10
0.0
 20
0.0
 30
0.0
210
0.0
220
0.0
230
1.0
  2
SOLID
 70
1
 71
0
 91
1
 92
3
 72
0
 73
1
 93
50
 10
147.064
 20
128.425
 10
148.422
 20
128.095
 10
149.764
 20
127.7
 10
151.085
 20
127.242
 10
152.382
 20
126.722
 10
153.654
 20
126.141
 10
154.896
 20
125.5
 10
156.107
 20
124.801
 10
157.283
 20
124.045
 10
158.422
 20
123.234
 10
159.521
 20
122.369
 10
160.577
 20
121.454
 10
161.589
 20
120.489
 10
162.554
 20
119.477
 10
163.469
 20
118.421
 10
164.334
 20
117.322
 10
165.145
 20
116.183
 10
165.901
 20
115.007
 10
166.6
 20
113.796
 10
167.241
 20
112.554
 10
167.822
 20
111.282
 10
168.342
 20
109.985
 10
168.8
 20
108.664
 10
169.195
 20
107.322
 10
169.525
 20
105.964
 10
168.939
 20
105.836
 10
168.615
 20
107.167
 10
168.229
 20
108.481
 10
167.78
 20
109.775
 10
167.271
 20
111.046
 10
166.702
 20
112.292
 10
166.074
 20
113.509
 10
165.389
 20
114.695
 10
164.648
 20
115.847
 10
163.853
 20
116.962
 10
163.007
 20
118.039
 10
162.11
 20
119.074
 10
161.165
 20
120.065
 10
160.174
 20
121.01
 10
159.139
 20
121.907
 10
158.062
 20
122.753
 10
156.947
 20
123.548
 10
155.795
 20
124.289
 10
154.609
 20
124.974
 10
153.392
 20
125.602
 10
152.146
 20
126.171
 10
150.875
 20
126.68
 10
149.581
 20
127.129
 10
148.267
 20
127.515
 10
146.936
 20
127.839
 97
0
 75
0
 76
1
 98
0
  0
HATCH
  5
39
330
17
100
AcDbEntity
  8
RASTER
 62
7
100
AcDbHatch
 10
0.0
 20
0.0
 30
0.0
210
0.0
220
0.0
230
1.0
  2
SOLID
 70
1
 71
0
 91
1
 92
3
 72
0
 73
1
 93
50
 10
174.218
 20
93.436
 10
173.863
 20
91.773
 10
173.425
 20
90.13
 10
172.906
 20
88.511
 10
172.307
 20
86.92
 10
171.629
 20
85.361
 10
170.873
 20
83.838
 10
170.043
 20
82.355
 10
169.139
 20
80.915
 10
168.165
 20
79.522
 10
167.122
 20
78.179
 10
166.013
 20
76.89
 10
164.842
 20
75.658
 10
163.61
 20
74.487
 10
162.321
 20
73.378
 10
160.978
 20
72.335
 10
159.585
 20
71.361
 10
158.145
 20
70.457
 10
156.662
 20
69.627
 10
155.139
 20
68.871
 10
153.58
 20
68.193
 10
151.989
 20
67.594
 10
150.37
 20
67.075
 10
148.727
 20
66.637
 10
147.064
 20
66.282
 10
146.936
 20
66.97
 10
148.564
 20
67.318
 10
150.173
 20
67.746
 10
151.758
 20
68.255
 10
153.317
 20
68.842
 10
154.843
 20
69.506
 10
156.335
 20
70.246
 10
157.788
 20
71.059
 10
159.198
 20
71.944
 10
160.563
 20
72.899
 10
161.878
 20
73.92
 10
163.14
 20
75.006
 10
164.347
 20
76.153
 10
165.494
 20
77.36
 10
166.58
 20
78.622
 10
167.601
 20
79.937
 10
168.556
 20
81.302
 10
169.441
 20
82.712
 10
170.254
 20
84.165
 10
170.994
 20
85.657
 10
171.658
 20
87.183
 10
172.245
 20
88.742
 10
172.754
 20
90.327
 10
173.182
 20
91.936
 10
173.53
 20
93.564
 97
0
 75
0
 76
1
 98
0
  0
HATCH
  5
3A
330
17
100
AcDbEntity
  8
RASTER
 62
7
100
AcDbHatch
 10
0.0
 20
0.0
 30
0.0
210
0.0
220
0.0
230
1.0
  2
SOLID
 70
1
 71
0
 91
1
 92
3
 72
0
 73
1
 93
50
 10
169.525
 20
93.436
 10
169.195
 20
92.078
 10
168.8
 20
90.736
 10
168.342
 20
89.415
 10
167.822
 20
88.118
 10
167.241
 20
86.846
 10
166.6
 20
85.604
 10
165.901
 20
84.393
 10
165.145
 20
83.217
 10
164.334
 20
82.078
 10
163.469
 20
80.979
 10
162.554
 20
79.923
 10
161.589
 20
78.911
 10
160.577
 20
77.946
 10
159.521
 20
77.031
 10
158.422
 20
76.166
 10
157.283
 20
75.355
 10
156.107
 20
74.599
 10
154.896
 20
73.9
 10
153.654
 20
73.259
 10
152.382
 20
72.678
 10
151.085
 20
72.158
 10
149.764
 20
71.7
 10
148.422
 20
71.305
 10
147.064
 20
70.975
 10
146.936
 20
71.561
 10
148.267
 20
71.885
 10
149.581
 20
72.271
 10
150.875
 20
72.72
 10
152.146
 20
73.229
 10
153.392
 20
73.798
 10
154.609
 20
74.426
 10
155.795
 20
75.111
 10
156.947
 20
75.852
 10
158.062
 20
76.647
 10
159.139
 20
77.493
 10
160.174
 20
78.39
 10
161.165
 20
79.335
 10
162.11
 20
80.326
 10
163.007
 20
81.361
 10
163.853
 20
82.438
 10
164.648
 20
83.553
 10
165.389
 20
84.705
 10
166.074
 20
85.891
 10
166.702
 20
87.108
 10
167.271
 20
88.354
 10
167.78
 20
89.625
 10
168.229
 20
90.919
 10
168.615
 20
92.233
 10
168.939
 20
93.564
 97
0
 75
0
 76
1
 98
0
  0
HATCH
  5
3B
330
17
100
AcDbEntity
  8
RASTER
 62
7
100
AcDbHatch
 10
0.0
 20
0.0
 30
0.0
210
0.0
220
0.0
230
1.0
  2
SOLID
 70
1
 71
0
 91
1
 92
3
 72
0
 73
1
 93
50
 10
134.536
 20
66.282
 10
132.873
 20
66.637
 10
131.23
 20
67.075
 10
129.611
 20
67.594
 10
128.02
 20
68.193
 10
126.461
 20
68.871
 10
124.938
 20
69.627
 10
123.455
 20
70.457
 10
122.015
 20
71.361
 10
120.622
 20
72.335
 10
119.279
 20
73.378
 10
117.99
 20
74.487
 10
116.758
 20
75.658
 10
115.587
 20
76.89
 10
114.478
 20
78.179
 10
113.435
 20
79.522
 10
112.461
 20
80.915
 10
111.557
 20
82.355
 10
110.727
 20
83.838
 10
109.971
 20
85.361
 10
109.293
 20
86.92
 10
108.694
 20
88.511
 10
108.175
 20
90.13
 10
107.737
 20
91.773
 10
107.382
 20
93.436
 10
108.07
 20
93.564
 10
108.418
 20
91.936
 10
108.846
 20
90.327
 10
109.355
 20
88.742
 10
109.942
 20
87.183
 10
110.606
 20
85.657
 10
111.346
 20
84.165
 10
112.159
 20
82.712
 10
113.044
 20
81.302
 10
113.999
 20
79.937
 10
115.02
 20
78.622
 10
116.106
 20
77.36
 10
117.253
 20
76.153
 10
118.46
 20
75.006
 10
119.722
 20
73.92
 10
121.037
 20
72.899
 10
122.402
 20
71.944
 10
123.812
 20
71.059
 10
125.265
 20
70.246
 10
126.757
 20
69.506
 10
128.283
 20
68.842
 10
129.842
 20
68.255
 10
131.427
 20
67.746
 10
133.036
 20
67.318
 10
134.664
 20
66.97
 97
0
 75
0
 76
1
 98
0
  0
HATCH
  5
3C
330
17
100
AcDbEntity
  8
RASTER
 62
7
100
AcDbHatch
 10
0.0
 20
0.0
 30
0.0
210
0.0
220
0.0
230
1.0
  2
SOLID
 70
1
 71
0
 91
1
 92
3
 72
0
 73
1
 93
50
 10
134.536
 20
70.975
 10
133.178
 20
71.305
 10
131.836
 20
71.7
 10
130.515
 20
72.158
 10
129.218
 20
72.678
 10
127.946
 20
73.259
 10
126.704
 20
73.9
 10
125.493
 20
74.599
 10
124.317
 20
75.355
 10
123.178
 20
76.166
 10
122.079
 20
77.031
 10
121.023
 20
77.946
 10
120.011
 20
78.911
 10
119.046
 20
79.923
 10
118.131
 20
80.979
 10
117.266
 20
82.078
 10
116.455
 20
83.217
 10
115.699
 20
84.393
 10
115.0
 20
85.604
 10
114.359
 20
86.846
 10
113.778
 20
88.118
 10
113.258
 20
89.415
 10
112.8
 20
90.736
 10
112.405
 20
92.078
 10
112.075
 20
93.436
 10
112.661
 20
93.564
 10
112.985
 20
92.233
 10
113.371
 20
90.919
 10
113.82
 20
89.625
 10
114.329
 20
88.354
 10
114.898
 20
87.108
 10
115.526
 20
85.891
 10
116.211
 20
84.705
 10
116.952
 20
83.553
 10
117.747
 20
82.438
 10
118.593
 20
81.361
 10
119.49
 20
80.326
 10
120.435
 20
79.335
 10
121.426
 20
78.39
 10
122.461
 20
77.493
 10
123.538
 20
76.647
 10
124.653
 20
75.852
 10
125.805
 20
75.111
 10
126.991
 20
74.426
 10
128.208
 20
73.798
 10
129.454
 20
73.229
 10
130.725
 20
72.72
 10
132.019
 20
72.271
 10
133.333
 20
71.885
 10
134.664
 20
71.561
 97
0
 75
0
 76
1
 98
0
  0
HATCH
  5
3D
330
17
100
AcDbEntity
  8
RASTER
 62
7
100
AcDbHatch
 10
0.0
 20
0.0
 30
0.0
210
0.0
220
0.0
230
1.0
  2
SOLID
 70
1
 71
0
 91
1
 92
3
 72
0
 73
1
 93
50
 10
107.382
 20
105.964
 10
107.737
 20
107.627
 10
108.175
 20
109.27
 10
108.694
 20
110.889
 10
109.293
 20
112.48
 10
109.971
 20
114.039
 10
110.727
 20
115.562
 10
111.557
 20
117.045
 10
112.461
 20
118.485
 10
113.435
 20
119.878
 10
114.478
 20
121.221
 10
115.587
 20
122.51
 10
116.758
 20
123.742
 10
117.99
 20
124.913
 10
119.279
 20
126.022
 10
120.622
 20
127.065
 10
122.015
 20
128.039
 10
123.455
 20
128.943
 10
124.938
 20
129.773
 10
126.461
 20
130.529
 10
128.02
 20
131.207
 10
129.611
 20
131.806
 10
131.23
 20
132.325
 10
132.873
 20
132.763
 10
134.536
 20
133.118
 10
134.664
 20
132.43
 10
133.036
 20
132.082
 10
131.427
 20
131.654
 10
129.842
 20
131.145
 10
128.283
 20
130.558
 10
126.757
 20
129.894
 10
125.265
 20
129.154
 10
123.812
 20
128.341
 10
122.402
 20
127.456
 10
121.037
 20
126.501
 10
119.722
 20
125.48
 10
118.46
 20
124.394
 10
117.253
 20
123.247
 10
116.106
 20
122.04
 10
115.02
 20
120.778
 10
113.999
 20
119.463
 10
113.044
 20
118.098
 10
112.159
 20
116.688
 10
111.346
 20
115.235
 10
110.606
 20
113.743
 10
109.942
 20
112.217
 10
109.355
 20
110.658
 10
108.846
 20
109.073
 10
108.418
 20
107.464
 10
108.07
 20
105.836
 97
0
 75
0
 76
1
 98
0
  0
HATCH
  5
3E
330
17
100
AcDbEntity
  8
RASTER
 62
7
100
AcDbHatch
 10
0.0
 20
0.0
 30
0.0
210
0.0
220
0.0
230
1.0
  2
SOLID
 70
1
 71
0
 91
1
 92
3
 72
0
 73
1
 93
50
 10
112.075
 20
105.964
 10
112.405
 20
107.322
 10
112.8
 20
108.664
 10
113.258
 20
109.985
 10
113.778
 20
111.282
 10
114.359
 20
112.554
 10
115.0
 20
113.796
 10
115.699
 20
115.007
 10
116.455
 20
116.183
 10
117.266
 20
117.322
 10
118.131
 20
118.421
 10
119.046
 20
119.477
 10
120.011
 20
120.489
 10
121.023
 20
121.454
 10
122.079
 20
122.369
 10
123.178
 20
123.234
 10
124.317
 20
124.045
 10
125.493
 20
124.801
 10
126.704
 20
125.5
 10
127.946
 20
126.141
 10
129.218
 20
126.722
 10
130.515
 20
127.242
 10
131.836
 20
127.7
 10
133.178
 20
128.095
 10
134.536
 20
128.425
 10
134.664
 20
127.839
 10
133.333
 20
127.515
 10
132.019
 20
127.129
 10
130.725
 20
126.68
 10
129.454
 20
126.171
 10
128.208
 20
125.602
 10
126.991
 20
124.974
 10
125.805
 20
124.289
 10
124.653
 20
123.548
 10
123.538
 20
122.753
 10
122.461
 20
121.907
 10
121.426
 20
121.01
 10
120.435
 20
120.065
 10
119.49
 20
119.074
 10
118.593
 20
118.039
 10
117.747
 20
116.962
 10
116.952
 20
115.847
 10
116.211
 20
114.695
 10
115.526
 20
113.509
 10
114.898
 20
112.292
 10
114.329
 20
111.046
 10
113.82
 20
109.775
 10
113.371
 20
108.481
 10
112.985
 20
107.167
 10
112.661
 20
105.836
 97
0
 75
0
 76
1
 98
0
  0
HATCH
  5
3F
330
17
100
AcDbEntity
  8
RASTER
 62
7
100
AcDbHatch
 10
0.0
 20
0.0
 30
0.0
210
0.0
220
0.0
230
1.0
  2
SOLID
 70
1
 71
0
 91
1
 92
3
 72
0
 73
1
 93
48
 10
171.533
 20
91.599
 10
171.529
 20
91.534
 10
171.516
 20
91.47
 10
171.495
 20
91.408
 10
171.466
 20
91.349
 10
171.43
 20
91.295
 10
171.387
 20
91.245
 10
171.338
 20
91.202
 10
171.283
 20
91.166
 10
171.225
 20
91.137
 10
171.163
 20
91.116
 10
171.099
 20
91.103
 10
171.033
 20
91.099
 10
170.968
 20
91.103
 10
170.904
 20
91.116
 10
170.842
 20
91.137
 10
170.783
 20
91.166
 10
170.729
 20
91.202
 10
170.68
 20
91.245
 10
170.637
 20
91.295
 10
170.6
 20
91.349
 10
170.572
 20
91.408
 10
170.551
 20
91.47
 10
170.538
 20
91.534
 10
170.533
 20
91.599
 10
170.538
 20
91.664
 10
170.551
 20
91.728
 10
170.572
 20
91.79
 10
170.6
 20
91.849
 10
170.637
 20
91.903
 10
170.68
 20
91.953
 10
170.729
 20
91.996
 10
170.783
 20
92.032
 10
170.842
 20
92.061
 10
170.904
 20
92.082
 10
170.968
 20
92.095
 10
171.033
 20
92.099
 10
171.099
 20
92.095
 10
171.163
 20
92.082
 10
171.225
 20
92.061
 10
171.283
 20
92.032
 10
171.338
 20
91.996
 10
171.387
 20
91.953
 10
171.43
 20
91.903
 10
171.466
 20
91.849
 10
171.495
 20
91.79
 10
171.516
 20
91.728
 10
171.529
 20
91.664
 97
0
 75
0
 76
1
 98
0
  0
HATCH
  5
40
330
17
100
AcDbEntity
  8
RASTER
 62
7
100
AcDbHatch
 10
0.0
 20
0.0
 30
0.0
210
0.0
220
0.0
230
1.0
  2
SOLID
 70
1
 71
0
 91
1
 92
3
 72
0
 73
1
 93
48
 10
169.667
 20
86.472
 10
169.663
 20
86.407
 10
169.65
 20
86.343
 10
169.629
 20
86.281
 10
169.6
 20
86.222
 10
169.564
 20
86.168
 10
169.521
 20
86.118
 10
169.472
 20
86.075
 10
169.417
 20
86.039
 10
169.359
 20
86.01
 10
169.297
 20
85.989
 10
169.233
 20
85.976
 10
169.167
 20
85.972
 10
169.102
 20
85.976
 10
169.038
 20
85.989
 10
168.976
 20
86.01
 10
168.917
 20
86.039
 10
168.863
 20
86.075
 10
168.814
 20
86.118
 10
168.771
 20
86.168
 10
168.734
 20
86.222
 10
168.705
 20
86.281
 10
168.684
 20
86.343
 10
168.672
 20
86.407
 10
168.667
 20
86.472
 10
168.672
 20
86.537
 10
168.684
 20
86.601
 10
168.705
 20
86.663
 10
168.734
 20
86.722
 10
168.771
 20
86.776
 10
168.814
 20
86.826
 10
168.863
 20
86.869
 10
168.917
 20
86.905
 10
168.976
 20
86.934
 10
169.038
 20
86.955
 10
169.102
 20
86.968
 10
169.167
 20
86.972
 10
169.233
 20
86.968
 10
169.297
 20
86.955
 10
169.359
 20
86.934
 10
169.417
 20
86.905
 10
169.472
 20
86.869
 10
169.521
 20
86.826
 10
169.564
 20
86.776
 10
169.6
 20
86.722
 10
169.629
 20
86.663
 10
169.65
 20
86.601
 10
169.663
 20
86.537
 97
0
 75
0
 76
1
 98
0
  0
HATCH
  5
41
330
17
100
AcDbEntity
  8
RASTER
 62
7
100
AcDbHatch
 10
0.0
 20
0.0
 30
0.0
210
0.0
220
0.0
230
1.0
  2
SOLID
 70
1
 71
0
 91
1
 92
3
 72
0
 73
1
 93
48
 10
166.939
 20
81.747
 10
166.935
 20
81.682
 10
166.922
 20
81.618
 10
166.901
 20
81.556
 10
166.872
 20
81.497
 10
166.836
 20
81.443
 10
166.793
 20
81.394
 10
166.744
 20
81.35
 10
166.689
 20
81.314
 10
166.631
 20
81.285
 10
166.569
 20
81.264
 10
166.505
 20
81.251
 10
166.439
 20
81.247
 10
166.374
 20
81.251
 10
166.31
 20
81.264
 10
166.248
 20
81.285
 10
166.189
 20
81.314
 10
166.135
 20
81.35
 10
166.086
 20
81.394
 10
166.043
 20
81.443
 10
166.006
 20
81.497
 10
165.978
 20
81.556
 10
165.956
 20
81.618
 10
165.944
 20
81.682
 10
165.939
 20
81.747
 10
165.944
 20
81.812
 10
165.956
 20
81.876
 10
165.978
 20
81.938
 10
166.006
 20
81.997
 10
166.043
 20
82.051
 10
166.086
 20
82.101
 10
166.135
 20
82.144
 10
166.189
 20
82.18
 10
166.248
 20
82.209
 10
166.31
 20
82.23
 10
166.374
 20
82.243
 10
166.439
 20
82.247
 10
166.505
 20
82.243
 10
166.569
 20
82.23
 10
166.631
 20
82.209
 10
166.689
 20
82.18
 10
166.744
 20
82.144
 10
166.793
 20
82.101
 10
166.836
 20
82.051
 10
166.872
 20
81.997
 10
166.901
 20
81.938
 10
166.922
 20
81.876
 10
166.935
 20
81.812
 97
0
 75
0
 76
1
 98
0
  0
HATCH
  5
42
330
17
100
AcDbEntity
  8
RASTER
 62
7
100
AcDbHatch
 10
0.0
 20
0.0
 30
0.0
210
0.0
220
0.0
230
1.0
  2
SOLID
 70
1
 71
0
 91
1
 92
3
 72
0
 73
1
 93
48
 10
159.253
 20
74.061
 10
159.249
 20
73.995
 10
159.236
 20
73.931
 10
159.215
 20
73.869
 10
159.186
 20
73.811
 10
159.15
 20
73.756
 10
159.106
 20
73.707
 10
159.057
 20
73.664
 10
159.003
 20
73.628
 10
158.944
 20
73.599
 10
158.882
 20
73.578
 10
158.818
 20
73.565
 10
158.753
 20
73.561
 10
158.688
 20
73.565
 10
158.624
 20
73.578
 10
158.562
 20
73.599
 10
158.503
 20
73.628
 10
158.449
 20
73.664
 10
158.399
 20
73.707
 10
158.356
 20
73.756
 10
158.32
 20
73.811
 10
158.291
 20
73.869
 10
158.27
 20
73.931
 10
158.257
 20
73.995
 10
158.253
 20
74.061
 10
158.257
 20
74.126
 10
158.27
 20
74.19
 10
158.291
 20
74.252
 10
158.32
 20
74.311
 10
158.356
 20
74.365
 10
158.399
 20
74.414
 10
158.449
 20
74.457
 10
158.503
 20
74.494
 10
158.562
 20
74.522
 10
158.624
 20
74.544
 10
158.688
 20
74.556
 10
158.753
 20
74.561
 10
158.818
 20
74.556
 10
158.882
 20
74.544
 10
158.944
 20
74.522
 10
159.003
 20
74.494
 10
159.057
 20
74.457
 10
159.106
 20
74.414
 10
159.15
 20
74.365
 10
159.186
 20
74.311
 10
159.215
 20
74.252
 10
159.236
 20
74.19
 10
159.249
 20
74.126
 97
0
 75
0
 76
1
 98
0
  0
HATCH
  5
43
330
17
100
AcDbEntity
  8
RASTER
 62
7
100
AcDbHatch
 10
0.0
 20
0.0
 30
0.0
210
0.0
220
0.0
230
1.0
  2
SOLID
 70
1
 71
0
 91
1
 92
3
 72
0
 73
1
 93
48
 10
154.528
 20
71.333
 10
154.524
 20
71.267
 10
154.511
 20
71.203
 10
154.49
 20
71.141
 10
154.461
 20
71.083
 10
154.425
 20
71.028
 10
154.382
 20
70.979
 10
154.332
 20
70.936
 10
154.278
 20
70.9
 10
154.219
 20
70.871
 10
154.157
 20
70.85
 10
154.093
 20
70.837
 10
154.028
 20
70.833
 10
153.963
 20
70.837
 10
153.899
 20
70.85
 10
153.837
 20
70.871
 10
153.778
 20
70.9
 10
153.724
 20
70.936
 10
153.674
 20
70.979
 10
153.631
 20
71.028
 10
153.595
 20
71.083
 10
153.566
 20
71.141
 10
153.545
 20
71.203
 10
153.532
 20
71.267
 10
153.528
 20
71.333
 10
153.532
 20
71.398
 10
153.545
 20
71.462
 10
153.566
 20
71.524
 10
153.595
 20
71.583
 10
153.631
 20
71.637
 10
153.674
 20
71.686
 10
153.724
 20
71.729
 10
153.778
 20
71.766
 10
153.837
 20
71.795
 10
153.899
 20
71.816
 10
153.963
 20
71.828
 10
154.028
 20
71.833
 10
154.093
 20
71.828
 10
154.157
 20
71.816
 10
154.219
 20
71.795
 10
154.278
 20
71.766
 10
154.332
 20
71.729
 10
154.382
 20
71.686
 10
154.425
 20
71.637
 10
154.461
 20
71.583
 10
154.49
 20
71.524
 10
154.511
 20
71.462
 10
154.524
 20
71.398
 97
0
 75
0
 76
1
 98
0
  0
HATCH
  5
44
330
17
100
AcDbEntity
  8
RASTER
 62
7
100
AcDbHatch
 10
0.0
 20
0.0
 30
0.0
210
0.0
220
0.0
230
1.0
  2
SOLID
 70
1
 71
0
 91
1
 92
3
 72
0
 73
1
 93
48
 10
149.401
 20
69.467
 10
149.397
 20
69.401
 10
149.384
 20
69.337
 10
149.363
 20
69.275
 10
149.334
 20
69.217
 10
149.298
 20
69.162
 10
149.255
 20
69.113
 10
149.205
 20
69.07
 10
149.151
 20
69.034
 10
149.092
 20
69.005
 10
149.03
 20
68.984
 10
148.966
 20
68.971
 10
148.901
 20
68.967
 10
148.836
 20
68.971
 10
148.772
 20
68.984
 10
148.71
 20
69.005
 10
148.651
 20
69.034
 10
148.597
 20
69.07
 10
148.547
 20
69.113
 10
148.504
 20
69.162
 10
148.468
 20
69.217
 10
148.439
 20
69.275
 10
148.418
 20
69.337
 10
148.405
 20
69.401
 10
148.401
 20
69.467
 10
148.405
 20
69.532
 10
148.418
 20
69.596
 10
148.439
 20
69.658
 10
148.468
 20
69.717
 10
148.504
 20
69.771
 10
148.547
 20
69.82
 10
148.597
 20
69.863
 10
148.651
 20
69.9
 10
148.71
 20
69.928
 10
148.772
 20
69.949
 10
148.836
 20
69.962
 10
148.901
 20
69.967
 10
148.966
 20
69.962
 10
149.03
 20
69.949
 10
149.092
 20
69.928
 10
149.151
 20
69.9
 10
149.205
 20
69.863
 10
149.255
 20
69.82
 10
149.298
 20
69.771
 10
149.334
 20
69.717
 10
149.363
 20
69.658
 10
149.384
 20
69.596
 10
149.397
 20
69.532
 97
0
 75
0
 76
1
 98
0
  0
HATCH
  5
45
330
17
100
AcDbEntity
  8
RASTER
 62
7
100
AcDbHatch
 10
0.0
 20
0.0
 30
0.0
210
0.0
220
0.0
230
1.0
  2
SOLID
 70
1
 71
0
 91
1
 92
3
 72
0
 73
1
 93
48
 10
133.199
 20
69.467
 10
133.195
 20
69.401
 10
133.182
 20
69.337
 10
133.161
 20
69.275
 10
133.132
 20
69.217
 10
133.096
 20
69.162
 10
133.053
 20
69.113
 10
133.003
 20
69.07
 10
132.949
 20
69.034
 10
132.89
 20
69.005
 10
132.828
 20
68.984
 10
132.764
 20
68.971
 10
132.699
 20
68.967
 10
132.634
 20
68.971
 10
132.57
 20
68.984
 10
132.508
 20
69.005
 10
132.449
 20
69.034
 10
132.395
 20
69.07
 10
132.345
 20
69.113
 10
132.302
 20
69.162
 10
132.266
 20
69.217
 10
132.237
 20
69.275
 10
132.216
 20
69.337
 10
132.203
 20
69.401
 10
132.199
 20
69.467
 10
132.203
 20
69.532
 10
132.216
 20
69.596
 10
132.237
 20
69.658
 10
132.266
 20
69.717
 10
132.302
 20
69.771
 10
132.345
 20
69.82
 10
132.395
 20
69.863
 10
132.449
 20
69.9
 10
132.508
 20
69.928
 10
132.57
 20
69.949
 10
132.634
 20
69.962
 10
132.699
 20
69.967
 10
132.764
 20
69.962
 10
132.828
 20
69.949
 10
132.89
 20
69.928
 10
132.949
 20
69.9
 10
133.003
 20
69.863
 10
133.053
 20
69.82
 10
133.096
 20
69.771
 10
133.132
 20
69.717
 10
133.161
 20
69.658
 10
133.182
 20
69.596
 10
133.195
 20
69.532
 97
0
 75
0
 76
1
 98
0
  0
HATCH
  5
46
330
17
100
AcDbEntity
  8
RASTER
 62
7
100
AcDbHatch
 10
0.0
 20
0.0
 30
0.0
210
0.0
220
0.0
230
1.0
  2
SOLID
 70
1
 71
0
 91
1
 92
3
 72
0
 73
1
 93
48
 10
128.072
 20
71.333
 10
128.068
 20
71.267
 10
128.055
 20
71.203
 10
128.034
 20
71.141
 10
128.005
 20
71.083
 10
127.969
 20
71.028
 10
127.926
 20
70.979
 10
127.876
 20
70.936
 10
127.822
 20
70.9
 10
127.763
 20
70.871
 10
127.701
 20
70.85
 10
127.637
 20
70.837
 10
127.572
 20
70.833
 10
127.507
 20
70.837
 10
127.443
 20
70.85
 10
127.381
 20
70.871
 10
127.322
 20
70.9
 10
127.268
 20
70.936
 10
127.218
 20
70.979
 10
127.175
 20
71.028
 10
127.139
 20
71.083
 10
127.11
 20
71.141
 10
127.089
 20
71.203
 10
127.076
 20
71.267
 10
127.072
 20
71.333
 10
127.076
 20
71.398
 10
127.089
 20
71.462
 10
127.11
 20
71.524
 10
127.139
 20
71.583
 10
127.175
 20
71.637
 10
127.218
 20
71.686
 10
127.268
 20
71.729
 10
127.322
 20
71.766
 10
127.381
 20
71.795
 10
127.443
 20
71.816
 10
127.507
 20
71.828
 10
127.572
 20
71.833
 10
127.637
 20
71.828
 10
127.701
 20
71.816
 10
127.763
 20
71.795
 10
127.822
 20
71.766
 10
127.876
 20
71.729
 10
127.926
 20
71.686
 10
127.969
 20
71.637
 10
128.005
 20
71.583
 10
128.034
 20
71.524
 10
128.055
 20
71.462
 10
128.068
 20
71.398
 97
0
 75
0
 76
1
 98
0
  0
HATCH
  5
47
330
17
100
AcDbEntity
  8
RASTER
 62
7
100
AcDbHatch
 10
0.0
 20
0.0
 30
0.0
210
0.0
220
0.0
230
1.0
  2
SOLID
 70
1
 71
0
 91
1
 92
3
 72
0
 73
1
 93
48
 10
123.347
 20
74.061
 10
123.343
 20
73.995
 10
123.33
 20
73.931
 10
123.309
 20
73.869
 10
123.28
 20
73.811
 10
123.244
 20
73.756
 10
123.201
 20
73.707
 10
123.151
 20
73.664
 10
123.097
 20
73.628
 10
123.038
 20
73.599
 10
122.976
 20
73.578
 10
122.912
 20
73.565
 10
122.847
 20
73.561
 10
122.782
 20
73.565
 10
122.718
 20
73.578
 10
122.656
 20
73.599
 10
122.597
 20
73.628
 10
122.543
 20
73.664
 10
122.494
 20
73.707
 10
122.45
 20
73.756
 10
122.414
 20
73.811
 10
122.385
 20
73.869
 10
122.364
 20
73.931
 10
122.351
 20
73.995
 10
122.347
 20
74.061
 10
122.351
 20
74.126
 10
122.364
 20
74.19
 10
122.385
 20
74.252
 10
122.414
 20
74.311
 10
122.45
 20
74.365
 10
122.494
 20
74.414
 10
122.543
 20
74.457
 10
122.597
 20
74.494
 10
122.656
 20
74.522
 10
122.718
 20
74.544
 10
122.782
 20
74.556
 10
122.847
 20
74.561
 10
122.912
 20
74.556
 10
122.976
 20
74.544
 10
123.038
 20
74.522
 10
123.097
 20
74.494
 10
123.151
 20
74.457
 10
123.201
 20
74.414
 10
123.244
 20
74.365
 10
123.28
 20
74.311
 10
123.309
 20
74.252
 10
123.33
 20
74.19
 10
123.343
 20
74.126
 97
0
 75
0
 76
1
 98
0
  0
HATCH
  5
48
330
17
100
AcDbEntity
  8
RASTER
 62
7
100
AcDbHatch
 10
0.0
 20
0.0
 30
0.0
210
0.0
220
0.0
230
1.0
  2
SOLID
 70
1
 71
0
 91
1
 92
3
 72
0
 73
1
 93
48
 10
115.661
 20
81.747
 10
115.656
 20
81.682
 10
115.644
 20
81.618
 10
115.622
 20
81.556
 10
115.594
 20
81.497
 10
115.557
 20
81.443
 10
115.514
 20
81.394
 10
115.465
 20
81.35
 10
115.411
 20
81.314
 10
115.352
 20
81.285
 10
115.29
 20
81.264
 10
115.226
 20
81.251
 10
115.161
 20
81.247
 10
115.095
 20
81.251
 10
115.031
 20
81.264
 10
114.969
 20
81.285
 10
114.911
 20
81.314
 10
114.856
 20
81.35
 10
114.807
 20
81.394
 10
114.764
 20
81.443
 10
114.728
 20
81.497
 10
114.699
 20
81.556
 10
114.678
 20
81.618
 10
114.665
 20
81.682
 10
114.661
 20
81.747
 10
114.665
 20
81.812
 10
114.678
 20
81.876
 10
114.699
 20
81.938
 10
114.728
 20
81.997
 10
114.764
 20
82.051
 10
114.807
 20
82.101
 10
114.856
 20
82.144
 10
114.911
 20
82.18
 10
114.969
 20
82.209
 10
115.031
 20
82.23
 10
115.095
 20
82.243
 10
115.161
 20
82.247
 10
115.226
 20
82.243
 10
115.29
 20
82.23
 10
115.352
 20
82.209
 10
115.411
 20
82.18
 10
115.465
 20
82.144
 10
115.514
 20
82.101
 10
115.557
 20
82.051
 10
115.594
 20
81.997
 10
115.622
 20
81.938
 10
115.644
 20
81.876
 10
115.656
 20
81.812
 97
0
 75
0
 76
1
 98
0
  0
HATCH
  5
49
330
17
100
AcDbEntity
  8
RASTER
 62
7
100
AcDbHatch
 10
0.0
 20
0.0
 30
0.0
210
0.0
220
0.0
230
1.0
  2
SOLID
 70
1
 71
0
 91
1
 92
3
 72
0
 73
1
 93
48
 10
112.933
 20
86.472
 10
112.928
 20
86.407
 10
112.916
 20
86.343
 10
112.895
 20
86.281
 10
112.866
 20
86.222
 10
112.829
 20
86.168
 10
112.786
 20
86.118
 10
112.737
 20
86.075
 10
112.683
 20
86.039
 10
112.624
 20
86.01
 10
112.562
 20
85.989
 10
112.498
 20
85.976
 10
112.433
 20
85.972
 10
112.367
 20
85.976
 10
112.303
 20
85.989
 10
112.241
 20
86.01
 10
112.183
 20
86.039
 10
112.128
 20
86.075
 10
112.079
 20
86.118
 10
112.036
 20
86.168
 10
112.0
 20
86.222
 10
111.971
 20
86.281
 10
111.95
 20
86.343
 10
111.937
 20
86.407
 10
111.933
 20
86.472
 10
111.937
 20
86.537
 10
111.95
 20
86.601
 10
111.971
 20
86.663
 10
112.0
 20
86.722
 10
112.036
 20
86.776
 10
112.079
 20
86.826
 10
112.128
 20
86.869
 10
112.183
 20
86.905
 10
112.241
 20
86.934
 10
112.303
 20
86.955
 10
112.367
 20
86.968
 10
112.433
 20
86.972
 10
112.498
 20
86.968
 10
112.562
 20
86.955
 10
112.624
 20
86.934
 10
112.683
 20
86.905
 10
112.737
 20
86.869
 10
112.786
 20
86.826
 10
112.829
 20
86.776
 10
112.866
 20
86.722
 10
112.895
 20
86.663
 10
112.916
 20
86.601
 10
112.928
 20
86.537
 97
0
 75
0
 76
1
 98
0
  0
HATCH
  5
4A
330
17
100
AcDbEntity
  8
RASTER
 62
7
100
AcDbHatch
 10
0.0
 20
0.0
 30
0.0
210
0.0
220
0.0
230
1.0
  2
SOLID
 70
1
 71
0
 91
1
 92
3
 72
0
 73
1
 93
48
 10
111.067
 20
91.599
 10
111.062
 20
91.534
 10
111.049
 20
91.47
 10
111.028
 20
91.408
 10
111.0
 20
91.349
 10
110.963
 20
91.295
 10
110.92
 20
91.245
 10
110.871
 20
91.202
 10
110.817
 20
91.166
 10
110.758
 20
91.137
 10
110.696
 20
91.116
 10
110.632
 20
91.103
 10
110.567
 20
91.099
 10
110.501
 20
91.103
 10
110.437
 20
91.116
 10
110.375
 20
91.137
 10
110.317
 20
91.166
 10
110.262
 20
91.202
 10
110.213
 20
91.245
 10
110.17
 20
91.295
 10
110.134
 20
91.349
 10
110.105
 20
91.408
 10
110.084
 20
91.47
 10
110.071
 20
91.534
 10
110.067
 20
91.599
 10
110.071
 20
91.664
 10
110.084
 20
91.728
 10
110.105
 20
91.79
 10
110.134
 20
91.849
 10
110.17
 20
91.903
 10
110.213
 20
91.953
 10
110.262
 20
91.996
 10
110.317
 20
92.032
 10
110.375
 20
92.061
 10
110.437
 20
92.082
 10
110.501
 20
92.095
 10
110.567
 20
92.099
 10
110.632
 20
92.095
 10
110.696
 20
92.082
 10
110.758
 20
92.061
 10
110.817
 20
92.032
 10
110.871
 20
91.996
 10
110.92
 20
91.953
 10
110.963
 20
91.903
 10
111.0
 20
91.849
 10
111.028
 20
91.79
 10
111.049
 20
91.728
 10
111.062
 20
91.664
 97
0
 75
0
 76
1
 98
0
  0
HATCH
  5
4B
330
17
100
AcDbEntity
  8
RASTER
 62
7
100
AcDbHatch
 10
0.0
 20
0.0
 30
0.0
210
0.0
220
0.0
230
1.0
  2
SOLID
 70
1
 71
0
 91
1
 92
3
 72
0
 73
1
 93
48
 10
111.067
 20
107.801
 10
111.062
 20
107.736
 10
111.049
 20
107.672
 10
111.028
 20
107.61
 10
111.0
 20
107.551
 10
110.963
 20
107.497
 10
110.92
 20
107.447
 10
110.871
 20
107.404
 10
110.817
 20
107.368
 10
110.758
 20
107.339
 10
110.696
 20
107.318
 10
110.632
 20
107.305
 10
110.567
 20
107.301
 10
110.501
 20
107.305
 10
110.437
 20
107.318
 10
110.375
 20
107.339
 10
110.317
 20
107.368
 10
110.262
 20
107.404
 10
110.213
 20
107.447
 10
110.17
 20
107.497
 10
110.134
 20
107.551
 10
110.105
 20
107.61
 10
110.084
 20
107.672
 10
110.071
 20
107.736
 10
110.067
 20
107.801
 10
110.071
 20
107.866
 10
110.084
 20
107.93
 10
110.105
 20
107.992
 10
110.134
 20
108.051
 10
110.17
 20
108.105
 10
110.213
 20
108.155
 10
110.262
 20
108.198
 10
110.317
 20
108.234
 10
110.375
 20
108.263
 10
110.437
 20
108.284
 10
110.501
 20
108.297
 10
110.567
 20
108.301
 10
110.632
 20
108.297
 10
110.696
 20
108.284
 10
110.758
 20
108.263
 10
110.817
 20
108.234
 10
110.871
 20
108.198
 10
110.92
 20
108.155
 10
110.963
 20
108.105
 10
111.0
 20
108.051
 10
111.028
 20
107.992
 10
111.049
 20
107.93
 10
111.062
 20
107.866
 97
0
 75
0
 76
1
 98
0
  0
HATCH
  5
4C
330
17
100
AcDbEntity
  8
RASTER
 62
7
100
AcDbHatch
 10
0.0
 20
0.0
 30
0.0
210
0.0
220
0.0
230
1.0
  2
SOLID
 70
1
 71
0
 91
1
 92
3
 72
0
 73
1
 93
48
 10
112.933
 20
112.928
 10
112.928
 20
112.863
 10
112.916
 20
112.799
 10
112.895
 20
112.737
 10
112.866
 20
112.678
 10
112.829
 20
112.624
 10
112.786
 20
112.574
 10
112.737
 20
112.531
 10
112.683
 20
112.495
 10
112.624
 20
112.466
 10
112.562
 20
112.445
 10
112.498
 20
112.432
 10
112.433
 20
112.428
 10
112.367
 20
112.432
 10
112.303
 20
112.445
 10
112.241
 20
112.466
 10
112.183
 20
112.495
 10
112.128
 20
112.531
 10
112.079
 20
112.574
 10
112.036
 20
112.624
 10
112.0
 20
112.678
 10
111.971
 20
112.737
 10
111.95
 20
112.799
 10
111.937
 20
112.863
 10
111.933
 20
112.928
 10
111.937
 20
112.993
 10
111.95
 20
113.057
 10
111.971
 20
113.119
 10
112.0
 20
113.178
 10
112.036
 20
113.232
 10
112.079
 20
113.282
 10
112.128
 20
113.325
 10
112.183
 20
113.361
 10
112.241
 20
113.39
 10
112.303
 20
113.411
 10
112.367
 20
113.424
 10
112.433
 20
113.428
 10
112.498
 20
113.424
 10
112.562
 20
113.411
 10
112.624
 20
113.39
 10
112.683
 20
113.361
 10
112.737
 20
113.325
 10
112.786
 20
113.282
 10
112.829
 20
113.232
 10
112.866
 20
113.178
 10
112.895
 20
113.119
 10
112.916
 20
113.057
 10
112.928
 20
112.993
 97
0
 75
0
 76
1
 98
0
  0
HATCH
  5
4D
330
17
100
AcDbEntity
  8
RASTER
 62
7
100
AcDbHatch
 10
0.0
 20
0.0
 30
0.0
210
0.0
220
0.0
230
1.0
  2
SOLID
 70
1
 71
0
 91
1
 92
3
 72
0
 73
1
 93
48
 10
115.661
 20
117.653
 10
115.656
 20
117.588
 10
115.644
 20
117.524
 10
115.622
 20
117.462
 10
115.594
 20
117.403
 10
115.557
 20
117.349
 10
115.514
 20
117.299
 10
115.465
 20
117.256
 10
115.411
 20
117.22
 10
115.352
 20
117.191
 10
115.29
 20
117.17
 10
115.226
 20
117.157
 10
115.161
 20
117.153
 10
115.095
 20
117.157
 10
115.031
 20
117.17
 10
114.969
 20
117.191
 10
114.911
 20
117.22
 10
114.856
 20
117.256
 10
114.807
 20
117.299
 10
114.764
 20
117.349
 10
114.728
 20
117.403
 10
114.699
 20
117.462
 10
114.678
 20
117.524
 10
114.665
 20
117.588
 10
114.661
 20
117.653
 10
114.665
 20
117.718
 10
114.678
 20
117.782
 10
114.699
 20
117.844
 10
114.728
 20
117.903
 10
114.764
 20
117.957
 10
114.807
 20
118.006
 10
114.856
 20
118.05
 10
114.911
 20
118.086
 10
114.969
 20
118.115
 10
115.031
 20
118.136
 10
115.095
 20
118.149
 10
115.161
 20
118.153
 10
115.226
 20
118.149
 10
115.29
 20
118.136
 10
115.352
 20
118.115
 10
115.411
 20
118.086
 10
115.465
 20
118.05
 10
115.514
 20
118.006
 10
115.557
 20
117.957
 10
115.594
 20
117.903
 10
115.622
 20
117.844
 10
115.644
 20
117.782
 10
115.656
 20
117.718
 97
0
 75
0
 76
1
 98
0
  0
HATCH
  5
4E
330
17
100
AcDbEntity
  8
RASTER
 62
7
100
AcDbHatch
 10
0.0
 20
0.0
 30
0.0
210
0.0
220
0.0
230
1.0
  2
SOLID
 70
1
 71
0
 91
1
 92
3
 72
0
 73
1
 93
48
 10
123.347
 20
125.339
 10
123.343
 20
125.274
 10
123.33
 20
125.21
 10
123.309
 20
125.148
 10
123.28
 20
125.089
 10
123.244
 20
125.035
 10
123.201
 20
124.986
 10
123.151
 20
124.943
 10
123.097
 20
124.906
 10
123.038
 20
124.878
 10
122.976
 20
124.856
 10
122.912
 20
124.844
 10
122.847
 20
124.839
 10
122.782
 20
124.844
 10
122.718
 20
124.856
 10
122.656
 20
124.878
 10
122.597
 20
124.906
 10
122.543
 20
124.943
 10
122.494
 20
124.986
 10
122.45
 20
125.035
 10
122.414
 20
125.089
 10
122.385
 20
125.148
 10
122.364
 20
125.21
 10
122.351
 20
125.274
 10
122.347
 20
125.339
 10
122.351
 20
125.405
 10
122.364
 20
125.469
 10
122.385
 20
125.531
 10
122.414
 20
125.589
 10
122.45
 20
125.644
 10
122.494
 20
125.693
 10
122.543
 20
125.736
 10
122.597
 20
125.772
 10
122.656
 20
125.801
 10
122.718
 20
125.822
 10
122.782
 20
125.835
 10
122.847
 20
125.839
 10
122.912
 20
125.835
 10
122.976
 20
125.822
 10
123.038
 20
125.801
 10
123.097
 20
125.772
 10
123.151
 20
125.736
 10
123.201
 20
125.693
 10
123.244
 20
125.644
 10
123.28
 20
125.589
 10
123.309
 20
125.531
 10
123.33
 20
125.469
 10
123.343
 20
125.405
 97
0
 75
0
 76
1
 98
0
  0
HATCH
  5
4F
330
17
100
AcDbEntity
  8
RASTER
 62
7
100
AcDbHatch
 10
0.0
 20
0.0
 30
0.0
210
0.0
220
0.0
230
1.0
  2
SOLID
 70
1
 71
0
 91
1
 92
3
 72
0
 73
1
 93
48
 10
128.072
 20
128.067
 10
128.068
 20
128.002
 10
128.055
 20
127.938
 10
128.034
 20
127.876
 10
128.005
 20
127.817
 10
127.969
 20
127.763
 10
127.926
 20
127.714
 10
127.876
 20
127.671
 10
127.822
 20
127.634
 10
127.763
 20
127.605
 10
127.701
 20
127.584
 10
127.637
 20
127.572
 10
127.572
 20
127.567
 10
127.507
 20
127.572
 10
127.443
 20
127.584
 10
127.381
 20
127.605
 10
127.322
 20
127.634
 10
127.268
 20
127.671
 10
127.218
 20
127.714
 10
127.175
 20
127.763
 10
127.139
 20
127.817
 10
127.11
 20
127.876
 10
127.089
 20
127.938
 10
127.076
 20
128.002
 10
127.072
 20
128.067
 10
127.076
 20
128.133
 10
127.089
 20
128.197
 10
127.11
 20
128.259
 10
127.139
 20
128.317
 10
127.175
 20
128.372
 10
127.218
 20
128.421
 10
127.268
 20
128.464
 10
127.322
 20
128.5
 10
127.381
 20
128.529
 10
127.443
 20
128.55
 10
127.507
 20
128.563
 10
127.572
 20
128.567
 10
127.637
 20
128.563
 10
127.701
 20
128.55
 10
127.763
 20
128.529
 10
127.822
 20
128.5
 10
127.876
 20
128.464
 10
127.926
 20
128.421
 10
127.969
 20
128.372
 10
128.005
 20
128.317
 10
128.034
 20
128.259
 10
128.055
 20
128.197
 10
128.068
 20
128.133
 97
0
 75
0
 76
1
 98
0
  0
HATCH
  5
50
330
17
100
AcDbEntity
  8
RASTER
 62
7
100
AcDbHatch
 10
0.0
 20
0.0
 30
0.0
210
0.0
220
0.0
230
1.0
  2
SOLID
 70
1
 71
0
 91
1
 92
3
 72
0
 73
1
 93
48
 10
133.199
 20
129.933
 10
133.195
 20
129.868
 10
133.182
 20
129.804
 10
133.161
 20
129.742
 10
133.132
 20
129.683
 10
133.096
 20
129.629
 10
133.053
 20
129.58
 10
133.003
 20
129.537
 10
132.949
 20
129.5
 10
132.89
 20
129.472
 10
132.828
 20
129.451
 10
132.764
 20
129.438
 10
132.699
 20
129.433
 10
132.634
 20
129.438
 10
132.57
 20
129.451
 10
132.508
 20
129.472
 10
132.449
 20
129.5
 10
132.395
 20
129.537
 10
132.345
 20
129.58
 10
132.302
 20
129.629
 10
132.266
 20
129.683
 10
132.237
 20
129.742
 10
132.216
 20
129.804
 10
132.203
 20
129.868
 10
132.199
 20
129.933
 10
132.203
 20
129.999
 10
132.216
 20
130.063
 10
132.237
 20
130.125
 10
132.266
 20
130.183
 10
132.302
 20
130.238
 10
132.345
 20
130.287
 10
132.395
 20
130.33
 10
132.449
 20
130.366
 10
132.508
 20
130.395
 10
132.57
 20
130.416
 10
132.634
 20
130.429
 10
132.699
 20
130.433
 10
132.764
 20
130.429
 10
132.828
 20
130.416
 10
132.89
 20
130.395
 10
132.949
 20
130.366
 10
133.003
 20
130.33
 10
133.053
 20
130.287
 10
133.096
 20
130.238
 10
133.132
 20
130.183
 10
133.161
 20
130.125
 10
133.182
 20
130.063
 10
133.195
 20
129.999
 97
0
 75
0
 76
1
 98
0
  0
HATCH
  5
51
330
17
100
AcDbEntity
  8
RASTER
 62
7
100
AcDbHatch
 10
0.0
 20
0.0
 30
0.0
210
0.0
220
0.0
230
1.0
  2
SOLID
 70
1
 71
0
 91
1
 92
3
 72
0
 73
1
 93
48
 10
149.401
 20
129.933
 10
149.397
 20
129.868
 10
149.384
 20
129.804
 10
149.363
 20
129.742
 10
149.334
 20
129.683
 10
149.298
 20
129.629
 10
149.255
 20
129.58
 10
149.205
 20
129.537
 10
149.151
 20
129.5
 10
149.092
 20
129.472
 10
149.03
 20
129.451
 10
148.966
 20
129.438
 10
148.901
 20
129.433
 10
148.836
 20
129.438
 10
148.772
 20
129.451
 10
148.71
 20
129.472
 10
148.651
 20
129.5
 10
148.597
 20
129.537
 10
148.547
 20
129.58
 10
148.504
 20
129.629
 10
148.468
 20
129.683
 10
148.439
 20
129.742
 10
148.418
 20
129.804
 10
148.405
 20
129.868
 10
148.401
 20
129.933
 10
148.405
 20
129.999
 10
148.418
 20
130.063
 10
148.439
 20
130.125
 10
148.468
 20
130.183
 10
148.504
 20
130.238
 10
148.547
 20
130.287
 10
148.597
 20
130.33
 10
148.651
 20
130.366
 10
148.71
 20
130.395
 10
148.772
 20
130.416
 10
148.836
 20
130.429
 10
148.901
 20
130.433
 10
148.966
 20
130.429
 10
149.03
 20
130.416
 10
149.092
 20
130.395
 10
149.151
 20
130.366
 10
149.205
 20
130.33
 10
149.255
 20
130.287
 10
149.298
 20
130.238
 10
149.334
 20
130.183
 10
149.363
 20
130.125
 10
149.384
 20
130.063
 10
149.397
 20
129.999
 97
0
 75
0
 76
1
 98
0
  0
HATCH
  5
52
330
17
100
AcDbEntity
  8
RASTER
 62
7
100
AcDbHatch
 10
0.0
 20
0.0
 30
0.0
210
0.0
220
0.0
230
1.0
  2
SOLID
 70
1
 71
0
 91
1
 92
3
 72
0
 73
1
 93
48
 10
154.528
 20
128.067
 10
154.524
 20
128.002
 10
154.511
 20
127.938
 10
154.49
 20
127.876
 10
154.461
 20
127.817
 10
154.425
 20
127.763
 10
154.382
 20
127.714
 10
154.332
 20
127.671
 10
154.278
 20
127.634
 10
154.219
 20
127.605
 10
154.157
 20
127.584
 10
154.093
 20
127.572
 10
154.028
 20
127.567
 10
153.963
 20
127.572
 10
153.899
 20
127.584
 10
153.837
 20
127.605
 10
153.778
 20
127.634
 10
153.724
 20
127.671
 10
153.674
 20
127.714
 10
153.631
 20
127.763
 10
153.595
 20
127.817
 10
153.566
 20
127.876
 10
153.545
 20
127.938
 10
153.532
 20
128.002
 10
153.528
 20
128.067
 10
153.532
 20
128.133
 10
153.545
 20
128.197
 10
153.566
 20
128.259
 10
153.595
 20
128.317
 10
153.631
 20
128.372
 10
153.674
 20
128.421
 10
153.724
 20
128.464
 10
153.778
 20
128.5
 10
153.837
 20
128.529
 10
153.899
 20
128.55
 10
153.963
 20
128.563
 10
154.028
 20
128.567
 10
154.093
 20
128.563
 10
154.157
 20
128.55
 10
154.219
 20
128.529
 10
154.278
 20
128.5
 10
154.332
 20
128.464
 10
154.382
 20
128.421
 10
154.425
 20
128.372
 10
154.461
 20
128.317
 10
154.49
 20
128.259
 10
154.511
 20
128.197
 10
154.524
 20
128.133
 97
0
 75
0
 76
1
 98
0
  0
HATCH
  5
53
330
17
100
AcDbEntity
  8
RASTER
 62
7
100
AcDbHatch
 10
0.0
 20
0.0
 30
0.0
210
0.0
220
0.0
230
1.0
  2
SOLID
 70
1
 71
0
 91
1
 92
3
 72
0
 73
1
 93
48
 10
159.253
 20
125.339
 10
159.249
 20
125.274
 10
159.236
 20
125.21
 10
159.215
 20
125.148
 10
159.186
 20
125.089
 10
159.15
 20
125.035
 10
159.106
 20
124.986
 10
159.057
 20
124.943
 10
159.003
 20
124.906
 10
158.944
 20
124.878
 10
158.882
 20
124.856
 10
158.818
 20
124.844
 10
158.753
 20
124.839
 10
158.688
 20
124.844
 10
158.624
 20
124.856
 10
158.562
 20
124.878
 10
158.503
 20
124.906
 10
158.449
 20
124.943
 10
158.399
 20
124.986
 10
158.356
 20
125.035
 10
158.32
 20
125.089
 10
158.291
 20
125.148
 10
158.27
 20
125.21
 10
158.257
 20
125.274
 10
158.253
 20
125.339
 10
158.257
 20
125.405
 10
158.27
 20
125.469
 10
158.291
 20
125.531
 10
158.32
 20
125.589
 10
158.356
 20
125.644
 10
158.399
 20
125.693
 10
158.449
 20
125.736
 10
158.503
 20
125.772
 10
158.562
 20
125.801
 10
158.624
 20
125.822
 10
158.688
 20
125.835
 10
158.753
 20
125.839
 10
158.818
 20
125.835
 10
158.882
 20
125.822
 10
158.944
 20
125.801
 10
159.003
 20
125.772
 10
159.057
 20
125.736
 10
159.106
 20
125.693
 10
159.15
 20
125.644
 10
159.186
 20
125.589
 10
159.215
 20
125.531
 10
159.236
 20
125.469
 10
159.249
 20
125.405
 97
0
 75
0
 76
1
 98
0
  0
HATCH
  5
54
330
17
100
AcDbEntity
  8
RASTER
 62
7
100
AcDbHatch
 10
0.0
 20
0.0
 30
0.0
210
0.0
220
0.0
230
1.0
  2
SOLID
 70
1
 71
0
 91
1
 92
3
 72
0
 73
1
 93
48
 10
166.939
 20
117.653
 10
166.935
 20
117.588
 10
166.922
 20
117.524
 10
166.901
 20
117.462
 10
166.872
 20
117.403
 10
166.836
 20
117.349
 10
166.793
 20
117.299
 10
166.744
 20
117.256
 10
166.689
 20
117.22
 10
166.631
 20
117.191
 10
166.569
 20
117.17
 10
166.505
 20
117.157
 10
166.439
 20
117.153
 10
166.374
 20
117.157
 10
166.31
 20
117.17
 10
166.248
 20
117.191
 10
166.189
 20
117.22
 10
166.135
 20
117.256
 10
166.086
 20
117.299
 10
166.043
 20
117.349
 10
166.006
 20
117.403
 10
165.978
 20
117.462
 10
165.956
 20
117.524
 10
165.944
 20
117.588
 10
165.939
 20
117.653
 10
165.944
 20
117.718
 10
165.956
 20
117.782
 10
165.978
 20
117.844
 10
166.006
 20
117.903
 10
166.043
 20
117.957
 10
166.086
 20
118.006
 10
166.135
 20
118.05
 10
166.189
 20
118.086
 10
166.248
 20
118.115
 10
166.31
 20
118.136
 10
166.374
 20
118.149
 10
166.439
 20
118.153
 10
166.505
 20
118.149
 10
166.569
 20
118.136
 10
166.631
 20
118.115
 10
166.689
 20
118.086
 10
166.744
 20
118.05
 10
166.793
 20
118.006
 10
166.836
 20
117.957
 10
166.872
 20
117.903
 10
166.901
 20
117.844
 10
166.922
 20
117.782
 10
166.935
 20
117.718
 97
0
 75
0
 76
1
 98
0
  0
HATCH
  5
55
330
17
100
AcDbEntity
  8
RASTER
 62
7
100
AcDbHatch
 10
0.0
 20
0.0
 30
0.0
210
0.0
220
0.0
230
1.0
  2
SOLID
 70
1
 71
0
 91
1
 92
3
 72
0
 73
1
 93
48
 10
169.667
 20
112.928
 10
169.663
 20
112.863
 10
169.65
 20
112.799
 10
169.629
 20
112.737
 10
169.6
 20
112.678
 10
169.564
 20
112.624
 10
169.521
 20
112.574
 10
169.472
 20
112.531
 10
169.417
 20
112.495
 10
169.359
 20
112.466
 10
169.297
 20
112.445
 10
169.233
 20
112.432
 10
169.167
 20
112.428
 10
169.102
 20
112.432
 10
169.038
 20
112.445
 10
168.976
 20
112.466
 10
168.917
 20
112.495
 10
168.863
 20
112.531
 10
168.814
 20
112.574
 10
168.771
 20
112.624
 10
168.734
 20
112.678
 10
168.705
 20
112.737
 10
168.684
 20
112.799
 10
168.672
 20
112.863
 10
168.667
 20
112.928
 10
168.672
 20
112.993
 10
168.684
 20
113.057
 10
168.705
 20
113.119
 10
168.734
 20
113.178
 10
168.771
 20
113.232
 10
168.814
 20
113.282
 10
168.863
 20
113.325
 10
168.917
 20
113.361
 10
168.976
 20
113.39
 10
169.038
 20
113.411
 10
169.102
 20
113.424
 10
169.167
 20
113.428
 10
169.233
 20
113.424
 10
169.297
 20
113.411
 10
169.359
 20
113.39
 10
169.417
 20
113.361
 10
169.472
 20
113.325
 10
169.521
 20
113.282
 10
169.564
 20
113.232
 10
169.6
 20
113.178
 10
169.629
 20
113.119
 10
169.65
 20
113.057
 10
169.663
 20
112.993
 97
0
 75
0
 76
1
 98
0
  0
HATCH
  5
56
330
17
100
AcDbEntity
  8
RASTER
 62
7
100
AcDbHatch
 10
0.0
 20
0.0
 30
0.0
210
0.0
220
0.0
230
1.0
  2
SOLID
 70
1
 71
0
 91
1
 92
3
 72
0
 73
1
 93
48
 10
171.533
 20
107.801
 10
171.529
 20
107.736
 10
171.516
 20
107.672
 10
171.495
 20
107.61
 10
171.466
 20
107.551
 10
171.43
 20
107.497
 10
171.387
 20
107.447
 10
171.338
 20
107.404
 10
171.283
 20
107.368
 10
171.225
 20
107.339
 10
171.163
 20
107.318
 10
171.099
 20
107.305
 10
171.033
 20
107.301
 10
170.968
 20
107.305
 10
170.904
 20
107.318
 10
170.842
 20
107.339
 10
170.783
 20
107.368
 10
170.729
 20
107.404
 10
170.68
 20
107.447
 10
170.637
 20
107.497
 10
170.6
 20
107.551
 10
170.572
 20
107.61
 10
170.551
 20
107.672
 10
170.538
 20
107.736
 10
170.533
 20
107.801
 10
170.538
 20
107.866
 10
170.551
 20
107.93
 10
170.572
 20
107.992
 10
170.6
 20
108.051
 10
170.637
 20
108.105
 10
170.68
 20
108.155
 10
170.729
 20
108.198
 10
170.783
 20
108.234
 10
170.842
 20
108.263
 10
170.904
 20
108.284
 10
170.968
 20
108.297
 10
171.033
 20
108.301
 10
171.099
 20
108.297
 10
171.163
 20
108.284
 10
171.225
 20
108.263
 10
171.283
 20
108.234
 10
171.338
 20
108.198
 10
171.387
 20
108.155
 10
171.43
 20
108.105
 10
171.466
 20
108.051
 10
171.495
 20
107.992
 10
171.516
 20
107.93
 10
171.529
 20
107.866
 97
0
 75
0
 76
1
 98
0
  0
HATCH
  5
57
330
17
100
AcDbEntity
  8
RASTER
 62
7
100
AcDbHatch
 10
0.0
 20
0.0
 30
0.0
210
0.0
220
0.0
230
1.0
  2
SOLID
 70
1
 71
0
 91
2
 92
3
 72
0
 73
1
 93
48
 10
146.2
 20
131.1
 10
146.154
 20
130.395
 10
146.016
 20
129.702
 10
145.789
 20
129.034
 10
145.477
 20
128.4
 10
145.084
 20
127.813
 10
144.618
 20
127.282
 10
144.087
 20
126.816
 10
143.5
 20
126.423
 10
142.866
 20
126.111
 10
142.198
 20
125.884
 10
141.505
 20
125.746
 10
140.8
 20
125.7
 10
140.095
 20
125.746
 10
139.402
 20
125.884
 10
138.734
 20
126.111
 10
138.1
 20
126.423
 10
137.513
 20
126.816
 10
136.982
 20
127.282
 10
136.516
 20
127.813
 10
136.123
 20
128.4
 10
135.811
 20
129.034
 10
135.584
 20
129.702
 10
135.446
 20
130.395
 10
135.4
 20
131.1
 10
135.446
 20
131.805
 10
135.584
 20
132.498
 10
135.811
 20
133.166
 10
136.123
 20
133.8
 10
136.516
 20
134.387
 10
136.982
 20
134.918
 10
137.513
 20
135.384
 10
138.1
 20
135.777
 10
138.734
 20
136.089
 10
139.402
 20
136.316
 10
140.095
 20
136.454
 10
140.8
 20
136.5
 10
141.505
 20
136.454
 10
142.198
 20
136.316
 10
142.866
 20
136.089
 10
143.5
 20
135.777
 10
144.087
 20
135.384
 10
144.618
 20
134.918
 10
145.084
 20
134.387
 10
145.477
 20
133.8
 10
145.789
 20
133.166
 10
146.016
 20
132.498
 10
146.154
 20
131.805
 97
0
 92
3
 72
0
 73
1
 93
13
 10
138.866
 20
133.32
 10
138.866
 20
128.93
 10
139.647
 20
128.93
 10
139.647
 20
132.321
 10
139.659
 20
132.321
 10
141.742
 20
128.93
 10
142.734
 20
128.93
 10
142.734
 20
133.32
 10
141.953
 20
133.32
 10
141.953
 20
130.034
 10
141.941
 20
130.034
 10
139.901
 20
133.32
 10
138.866
 20
133.32
 97
0
 75
0
 76
1
 98
0
  0
HATCH
  5
58
330
17
100
AcDbEntity
  8
RASTER
 62
7
100
AcDbHatch
 10
0.0
 20
0.0
 30
0.0
210
0.0
220
0.0
230
1.0
  2
SOLID
 70
1
 71
0
 91
2
 92
3
 72
0
 73
1
 93
48
 10
177.6
 20
99.7
 10
177.554
 20
98.995
 10
177.416
 20
98.302
 10
177.189
 20
97.634
 10
176.877
 20
97.0
 10
176.484
 20
96.413
 10
176.018
 20
95.882
 10
175.487
 20
95.416
 10
174.9
 20
95.023
 10
174.266
 20
94.711
 10
173.598
 20
94.484
 10
172.905
 20
94.346
 10
172.2
 20
94.3
 10
171.495
 20
94.346
 10
170.802
 20
94.484
 10
170.134
 20
94.711
 10
169.5
 20
95.023
 10
168.913
 20
95.416
 10
168.382
 20
95.882
 10
167.916
 20
96.413
 10
167.523
 20
97.0
 10
167.211
 20
97.634
 10
166.984
 20
98.302
 10
166.846
 20
98.995
 10
166.8
 20
99.7
 10
166.846
 20
100.405
 10
166.984
 20
101.098
 10
167.211
 20
101.766
 10
167.523
 20
102.4
 10
167.916
 20
102.987
 10
168.382
 20
103.518
 10
168.913
 20
103.984
 10
169.5
 20
104.377
 10
170.134
 20
104.689
 10
170.802
 20
104.916
 10
171.495
 20
105.054
 10
172.2
 20
105.1
 10
172.905
 20
105.054
 10
173.598
 20
104.916
 10
174.266
 20
104.689
 10
174.9
 20
104.377
 10
175.487
 20
103.984
 10
176.018
 20
103.518
 10
176.484
 20
102.987
 10
176.877
 20
102.4
 10
177.189
 20
101.766
 10
177.416
 20
101.098
 10
177.554
 20
100.405
 97
0
 92
3
 72
0
 73
1
 93
13
 10
170.793
 20
101.92
 10
170.793
 20
97.53
 10
173.812
 20
97.53
 10
173.812
 20
98.224
 10
171.574
 20
98.224
 10
171.574
 20
99.464
 10
173.589
 20
99.464
 10
173.589
 20
100.122
 10
171.574
 20
100.122
 10
171.574
 20
101.238
 10
173.7
 20
101.238
 10
173.7
 20
101.92
 10
170.793
 20
101.92
 97
0
 75
0
 76
1
 98
0
  0
HATCH
  5
59
330
17
100
AcDbEntity
  8
RASTER
 62
7
100
AcDbHatch
 10
0.0
 20
0.0
 30
0.0
210
0.0
220
0.0
230
1.0
  2
SOLID
 70
1
 71
0
 91
2
 92
3
 72
0
 73
1
 93
48
 10
146.2
 20
68.3
 10
146.154
 20
67.595
 10
146.016
 20
66.902
 10
145.789
 20
66.234
 10
145.477
 20
65.6
 10
145.084
 20
65.013
 10
144.618
 20
64.482
 10
144.087
 20
64.016
 10
143.5
 20
63.623
 10
142.866
 20
63.311
 10
142.198
 20
63.084
 10
141.505
 20
62.946
 10
140.8
 20
62.9
 10
140.095
 20
62.946
 10
139.402
 20
63.084
 10
138.734
 20
63.311
 10
138.1
 20
63.623
 10
137.513
 20
64.016
 10
136.982
 20
64.482
 10
136.516
 20
65.013
 10
136.123
 20
65.6
 10
135.811
 20
66.234
 10
135.584
 20
66.902
 10
135.446
 20
67.595
 10
135.4
 20
68.3
 10
135.446
 20
69.005
 10
135.584
 20
69.698
 10
135.811
 20
70.366
 10
136.123
 20
71.0
 10
136.516
 20
71.587
 10
136.982
 20
72.118
 10
137.513
 20
72.584
 10
138.1
 20
72.977
 10
138.734
 20
73.289
 10
139.402
 20
73.516
 10
140.095
 20
73.654
 10
140.8
 20
73.7
 10
141.505
 20
73.654
 10
142.198
 20
73.516
 10
142.866
 20
73.289
 10
143.5
 20
72.977
 10
144.087
 20
72.584
 10
144.618
 20
72.118
 10
145.084
 20
71.587
 10
145.477
 20
71.0
 10
145.789
 20
70.366
 10
146.016
 20
69.698
 10
146.154
 20
69.005
 97
0
 92
3
 72
0
 73
1
 93
323
 10
141.742
 20
69.602
 10
142.251
 20
70.16
 10
142.186
 20
70.217
 10
142.118
 20
70.27
 10
142.048
 20
70.32
 10
141.974
 20
70.366
 10
141.898
 20
70.408
 10
141.819
 20
70.447
 10
141.737
 20
70.482
 10
141.653
 20
70.513
 10
141.567
 20
70.541
 10
141.481
 20
70.565
 10
141.396
 20
70.585
 10
141.311
 20
70.602
 10
141.226
 20
70.615
 10
141.142
 20
70.624
 10
141.057
 20
70.629
 10
140.974
 20
70.631
 10
140.899
 20
70.63
 10
140.825
 20
70.626
 10
140.752
 20
70.62
 10
140.678
 20
70.612
 10
140.605
 20
70.601
 10
140.532
 20
70.588
 10
140.46
 20
70.572
 10
140.388
 20
70.554
 10
140.317
 20
70.533
 10
140.247
 20
70.51
 10
140.18
 20
70.484
 10
140.115
 20
70.456
 10
140.052
 20
70.425
 10
139.99
 20
70.392
 10
139.931
 20
70.356
 10
139.873
 20
70.318
 10
139.818
 20
70.277
 10
139.765
 20
70.234
 10
139.716
 20
70.188
 10
139.669
 20
70.139
 10
139.624
 20
70.088
 10
139.582
 20
70.034
 10
139.544
 20
69.977
 10
139.507
 20
69.918
 10
139.475
 20
69.856
 10
139.446
 20
69.791
 10
139.422
 20
69.724
 10
139.403
 20
69.653
 10
139.387
 20
69.58
 10
139.377
 20
69.503
 10
139.37
 20
69.424
 10
139.368
 20
69.342
 10
139.369
 20
69.266
 10
139.374
 20
69.193
 10
139.382
 20
69.123
 10
139.393
 20
69.057
 10
139.407
 20
68.994
 10
139.424
 20
68.934
 10
139.444
 20
68.877
 10
139.467
 20
68.824
 10
139.493
 20
68.773
 10
139.52
 20
68.724
 10
139.55
 20
68.677
 10
139.581
 20
68.632
 10
139.614
 20
68.59
 10
139.649
 20
68.549
 10
139.686
 20
68.51
 10
139.724
 20
68.474
 10
139.764
 20
68.439
 10
139.806
 20
68.406
 10
139.849
 20
68.374
 10
139.892
 20
68.345
 10
139.938
 20
68.317
 10
139.984
 20
68.291
 10
140.032
 20
68.267
 10
140.081
 20
68.244
 10
140.13
 20
68.223
 10
140.18
 20
68.202
 10
140.23
 20
68.183
 10
140.279
 20
68.164
 10
140.329
 20
68.145
 10
140.378
 20
68.128
 10
140.428
 20
68.111
 10
140.478
 20
68.095
 10
140.528
 20
68.078
 10
140.579
 20
68.062
 10
140.628
 20
68.045
 10
140.678
 20
68.029
 10
140.726
 20
68.013
 10
140.774
 20
67.997
 10
140.821
 20
67.981
 10
140.868
 20
67.965
 10
140.914
 20
67.949
 10
140.958
 20
67.933
 10
141.001
 20
67.916
 10
141.042
 20
67.898
 10
141.081
 20
67.879
 10
141.119
 20
67.86
 10
141.156
 20
67.84
 10
141.191
 20
67.82
 10
141.224
 20
67.798
 10
141.255
 20
67.776
 10
141.285
 20
67.752
 10
141.313
 20
67.728
 10
141.339
 20
67.703
 10
141.364
 20
67.677
 10
141.387
 20
67.649
 10
141.408
 20
67.621
 10
141.426
 20
67.592
 10
141.443
 20
67.56
 10
141.457
 20
67.527
 10
141.468
 20
67.492
 10
141.477
 20
67.455
 10
141.483
 20
67.416
 10
141.487
 20
67.375
 10
141.488
 20
67.333
 10
141.487
 20
67.289
 10
141.484
 20
67.247
 10
141.478
 20
67.206
 10
141.47
 20
67.168
 10
141.46
 20
67.131
 10
141.448
 20
67.096
 10
141.434
 20
67.063
 10
141.417
 20
67.032
 10
141.398
 20
67.003
 10
141.379
 20
66.974
 10
141.357
 20
66.947
 10
141.335
 20
66.921
 10
141.311
 20
66.897
 10
141.286
 20
66.873
 10
141.259
 20
66.851
 10
141.231
 20
66.831
 10
141.202
 20
66.811
 10
141.172
 20
66.793
 10
141.141
 20
66.777
 10
141.109
 20
66.762
 10
141.077
 20
66.748
 10
141.043
 20
66.736
 10
141.009
 20
66.725
 10
140.974
 20
66.716
 10
140.938
 20
66.708
 10
140.903
 20
66.701
 10
140.868
 20
66.695
 10
140.833
 20
66.69
 10
140.798
 20
66.687
 10
140.763
 20
66.684
 10
140.729
 20
66.682
 10
140.695
 20
66.682
 10
140.629
 20
66.684
 10
140.564
 20
66.69
 10
140.498
 20
66.7
 10
140.432
 20
66.714
 10
140.365
 20
66.733
 10
140.299
 20
66.755
 10
140.232
 20
66.781
 10
140.165
 20
66.812
 10
140.099
 20
66.846
 10
140.036
 20
66.883
 10
139.977
 20
66.923
 10
139.922
 20
66.965
 10
139.87
 20
67.011
 10
139.821
 20
67.06
 10
139.776
 20
67.111
 10
139.734
 20
67.165
 10
139.176
 20
66.645
 10
139.243
 20
66.569
 10
139.315
 20
66.499
 10
139.392
 20
66.433
 10
139.473
 20
66.373
 10
139.559
 20
66.316
 10
139.65
 20
66.265
 10
139.745
 20
66.218
 10
139.845
 20
66.177
 10
139.948
 20
66.139
 10
140.051
 20
66.107
 10
140.155
 20
66.08
 10
140.259
 20
66.058
 10
140.364
 20
66.041
 10
140.469
 20
66.028
 10
140.576
 20
66.021
 10
140.682
 20
66.018
 10
140.762
 20
66.02
 10
140.841
 20
66.024
 10
140.92
 20
66.031
 10
140.997
 20
66.04
 10
141.073
 20
66.052
 10
141.148
 20
66.067
 10
141.223
 20
66.085
 10
141.296
 20
66.105
 10
141.368
 20
66.128
 10
141.437
 20
66.154
 10
141.504
 20
66.183
 10
141.569
 20
66.214
 10
141.631
 20
66.248
 10
141.691
 20
66.284
 10
141.749
 20
66.324
 10
141.804
 20
66.366
 10
141.857
 20
66.41
 10
141.907
 20
66.458
 10
141.955
 20
66.508
 10
142.0
 20
66.562
 10
142.042
 20
66.618
 10
142.081
 20
66.677
 10
142.118
 20
66.738
 10
142.152
 20
66.803
 10
142.182
 20
66.87
 10
142.209
 20
66.94
 10
142.231
 20
67.013
 10
142.249
 20
67.089
 10
142.263
 20
67.167
 10
142.274
 20
67.249
 10
142.28
 20
67.333
 10
142.282
 20
67.42
 10
142.28
 20
67.499
 10
142.274
 20
67.574
 10
142.265
 20
67.647
 10
142.252
 20
67.716
 10
142.235
 20
67.781
 10
142.214
 20
67.844
 10
142.189
 20
67.903
 10
142.161
 20
67.959
 10
142.13
 20
68.012
 10
142.096
 20
68.063
 10
142.061
 20
68.111
 10
142.023
 20
68.157
 10
141.983
 20
68.201
 10
141.941
 20
68.243
 10
141.897
 20
68.282
 10
141.851
 20
68.319
 10
141.803
 20
68.353
 10
141.754
 20
68.386
 10
141.704
 20
68.418
 10
141.653
 20
68.447
 10
141.6
 20
68.475
 10
141.546
 20
68.501
 10
141.491
 20
68.525
 10
141.436
 20
68.548
 10
141.379
 20
68.569
 10
141.323
 20
68.59
 10
141.268
 20
68.61
 10
141.213
 20
68.63
 10
141.159
 20
68.649
 10
141.105
 20
68.668
 10
141.051
 20
68.686
 10
140.998
 20
68.703
 10
140.952
 20
68.717
 10
140.907
 20
68.731
 10
140.863
 20
68.745
 10
140.82
 20
68.759
 10
140.778
 20
68.773
 10
140.737
 20
68.787
 10
140.697
 20
68.801
 10
140.657
 20
68.815
 10
140.619
 20
68.829
 10
140.583
 20
68.844
 10
140.548
 20
68.859
 10
140.514
 20
68.875
 10
140.482
 20
68.892
 10
140.451
 20
68.909
 10
140.422
 20
68.926
 10
140.394
 20
68.945
 10
140.368
 20
68.964
 10
140.343
 20
68.984
 10
140.319
 20
69.005
 10
140.297
 20
69.027
 10
140.276
 20
69.05
 10
140.257
 20
69.074
 10
140.24
 20
69.099
 10
140.223
 20
69.125
 10
140.209
 20
69.152
 10
140.196
 20
69.18
 10
140.186
 20
69.21
 10
140.177
 20
69.241
 10
140.17
 20
69.273
 10
140.165
 20
69.307
 10
140.162
 20
69.342
 10
140.161
 20
69.379
 10
140.163
 20
69.418
 10
140.166
 20
69.456
 10
140.171
 20
69.493
 10
140.179
 20
69.528
 10
140.189
 20
69.562
 10
140.202
 20
69.594
 10
140.216
 20
69.625
 10
140.233
 20
69.655
 10
140.251
 20
69.683
 10
140.271
 20
69.709
 10
140.292
 20
69.735
 10
140.314
 20
69.759
 10
140.338
 20
69.781
 10
140.362
 20
69.802
 10
140.388
 20
69.822
 10
140.416
 20
69.841
 10
140.444
 20
69.858
 10
140.473
 20
69.874
 10
140.503
 20
69.889
 10
140.533
 20
69.903
 10
140.565
 20
69.915
 10
140.597
 20
69.927
 10
140.63
 20
69.937
 10
140.664
 20
69.946
 10
140.698
 20
69.954
 10
140.732
 20
69.961
 10
140.766
 20
69.967
 10
140.8
 20
69.972
 10
140.834
 20
69.975
 10
140.868
 20
69.978
 10
140.902
 20
69.98
 10
140.936
 20
69.98
 10
140.994
 20
69.979
 10
141.051
 20
69.973
 10
141.108
 20
69.965
 10
141.165
 20
69.953
 10
141.222
 20
69.938
 10
141.279
 20
69.919
 10
141.335
 20
69.897
 10
141.392
 20
69.872
 10
141.447
 20
69.844
 10
141.499
 20
69.814
 10
141.547
 20
69.783
 10
141.593
 20
69.75
 10
141.635
 20
69.715
 10
141.674
 20
69.679
 10
141.71
 20
69.641
 10
141.742
 20
69.602
 97
0
 75
0
 76
1
 98
0
  0
HATCH
  5
5A
330
17
100
AcDbEntity
  8
RASTER
 62
7
100
AcDbHatch
 10
0.0
 20
0.0
 30
0.0
210
0.0
220
0.0
230
1.0
  2
SOLID
 70
1
 71
0
 91
2
 92
3
 72
0
 73
1
 93
48
 10
114.8
 20
99.7
 10
114.754
 20
98.995
 10
114.616
 20
98.302
 10
114.389
 20
97.634
 10
114.077
 20
97.0
 10
113.684
 20
96.413
 10
113.218
 20
95.882
 10
112.687
 20
95.416
 10
112.1
 20
95.023
 10
111.466
 20
94.711
 10
110.798
 20
94.484
 10
110.105
 20
94.346
 10
109.4
 20
94.3
 10
108.695
 20
94.346
 10
108.002
 20
94.484
 10
107.334
 20
94.711
 10
106.7
 20
95.023
 10
106.113
 20
95.416
 10
105.582
 20
95.882
 10
105.116
 20
96.413
 10
104.723
 20
97.0
 10
104.411
 20
97.634
 10
104.184
 20
98.302
 10
104.046
 20
98.995
 10
104.0
 20
99.7
 10
104.046
 20
100.405
 10
104.184
 20
101.098
 10
104.411
 20
101.766
 10
104.723
 20
102.4
 10
105.116
 20
102.987
 10
105.582
 20
103.518
 10
106.113
 20
103.984
 10
106.7
 20
104.377
 10
107.334
 20
104.689
 10
108.002
 20
104.916
 10
108.695
 20
105.054
 10
109.4
 20
105.1
 10
110.105
 20
105.054
 10
110.798
 20
104.916
 10
111.466
 20
104.689
 10
112.1
 20
104.377
 10
112.687
 20
103.984
 10
113.218
 20
103.518
 10
113.684
 20
102.987
 10
114.077
 20
102.4
 10
114.389
 20
101.766
 10
114.616
 20
101.098
 10
114.754
 20
100.405
 97
0
 92
3
 72
0
 73
1
 93
17
 10
106.325
 20
101.92
 10
107.608
 20
97.53
 10
108.365
 20
97.53
 10
109.394
 20
100.822
 10
109.406
 20
100.822
 10
110.435
 20
97.53
 10
111.192
 20
97.53
 10
112.475
 20
101.92
 10
111.644
 20
101.92
 10
110.776
 20
98.696
 10
110.764
 20
98.696
 10
109.815
 20
101.92
 10
109.009
 20
101.92
 10
108.042
 20
98.696
 10
108.03
 20
98.696
 10
107.18
 20
101.92
 10
106.325
 20
101.92
 97
0
 75
0
 76
1
 98
0
  0
HATCH
  5
5B
330
17
100
AcDbEntity
  8
RASTER
 62
7
100
AcDbHatch
 10
0.0
 20
0.0
 30
0.0
210
0.0
220
0.0
230
1.0
  2
SOLID
 70
1
 71
0
 91
9
 92
3
 72
0
 73
1
 93
50
 10
167.336
 20
80.421
 10
167.081
 20
80.075
 10
166.822
 20
79.733
 10
166.558
 20
79.394
 10
166.29
 20
79.058
 10
166.018
 20
78.726
 10
165.741
 20
78.398
 10
165.46
 20
78.073
 10
165.175
 20
77.753
 10
164.886
 20
77.435
 10
164.592
 20
77.122
 10
164.295
 20
76.812
 10
163.993
 20
76.507
 10
163.688
 20
76.205
 10
163.378
 20
75.908
 10
163.065
 20
75.614
 10
162.747
 20
75.325
 10
162.427
 20
75.04
 10
162.102
 20
74.759
 10
161.774
 20
74.482
 10
161.442
 20
74.21
 10
161.106
 20
73.942
 10
160.767
 20
73.678
 10
160.425
 20
73.419
 10
160.079
 20
73.164
 10
143.856
 20
95.493
 10
143.911
 20
95.533
 10
143.966
 20
95.575
 10
144.019
 20
95.616
 10
144.072
 20
95.659
 10
144.125
 20
95.702
 10
144.177
 20
95.746
 10
144.229
 20
95.79
 10
144.279
 20
95.836
 10
144.33
 20
95.882
 10
144.379
 20
95.928
 10
144.429
 20
95.975
 10
144.477
 20
96.023
 10
144.525
 20
96.071
 10
144.572
 20
96.121
 10
144.618
 20
96.17
 10
144.664
 20
96.221
 10
144.71
 20
96.271
 10
144.754
 20
96.323
 10
144.798
 20
96.375
 10
144.841
 20
96.428
 10
144.884
 20
96.481
 10
144.925
 20
96.534
 10
144.967
 20
96.589
 10
145.007
 20
96.644
 97
0
 92
3
 72
0
 73
1
 93
56
 10
159.266
 20
81.156
 10
159.455
 20
81.581
 10
159.527
 20
82.133
 10
159.716
 20
82.293
 10
159.863
 20
82.484
 10
159.956
 20
82.718
 10
159.977
 20
82.856
 10
159.954
 20
83.164
 10
159.767
 20
83.589
 10
159.903
 20
83.982
 10
159.912
 20
84.396
 10
159.841
 20
84.641
 10
159.674
 20
84.928
 10
159.387
 20
85.214
 10
159.153
 20
85.355
 10
158.834
 20
85.45
 10
158.335
 20
85.425
 10
158.027
 20
85.302
 10
157.814
 20
85.151
 10
156.847
 20
84.207
 10
156.748
 20
84.29
 10
156.327
 20
85.021
 10
156.274
 20
85.036
 10
156.235
 20
85.002
 10
156.095
 20
84.619
 10
155.987
 20
84.528
 10
155.919
 20
84.598
 10
155.736
 20
85.076
 10
155.66
 20
85.112
 10
155.638
 20
85.066
 10
155.749
 20
83.451
 10
155.796
 20
83.393
 10
155.857
 20
83.408
 10
156.025
 20
83.748
 10
156.136
 20
83.891
 10
156.208
 20
83.865
 10
156.267
 20
83.684
 10
156.231
 20
83.61
 10
155.509
 20
82.909
 10
155.29
 20
82.622
 10
155.113
 20
82.208
 10
155.082
 20
81.804
 10
155.113
 20
81.549
 10
155.239
 20
81.23
 10
155.456
 20
80.943
 10
155.764
 20
80.718
 10
156.242
 20
80.578
 10
156.677
 20
80.605
 10
157.113
 20
80.771
 10
157.336
 20
80.631
 10
157.634
 20
80.516
 10
157.942
 20
80.478
 10
158.25
 20
80.486
 10
158.569
 20
80.578
 10
158.845
 20
80.724
 10
159.266
 20
81.156
 97
0
 92
3
 72
0
 73
1
 93
323
 10
159.48
 20
77.255
 10
159.469
 20
77.498
 10
159.441
 20
77.496
 10
159.414
 20
77.493
 10
159.386
 20
77.488
 10
159.359
 20
77.482
 10
159.332
 20
77.474
 10
159.305
 20
77.465
 10
159.278
 20
77.455
 10
159.252
 20
77.442
 10
159.226
 20
77.429
 10
159.201
 20
77.415
 10
159.177
 20
77.4
 10
159.154
 20
77.385
 10
159.132
 20
77.368
 10
159.11
 20
77.351
 10
159.09
 20
77.333
 10
159.07
 20
77.314
 10
159.054
 20
77.297
 10
159.038
 20
77.28
 10
159.022
 20
77.261
 10
159.007
 20
77.243
 10
158.993
 20
77.223
 10
158.98
 20
77.204
 10
158.967
 20
77.184
 10
158.954
 20
77.163
 10
158.943
 20
77.142
 10
158.932
 20
77.121
 10
158.923
 20
77.1
 10
158.914
 20
77.079
 10
158.907
 20
77.057
 10
158.9
 20
77.036
 10
158.895
 20
77.014
 10
158.891
 20
76.992
 10
158.887
 20
76.97
 10
158.885
 20
76.948
 10
158.884
 20
76.926
 10
158.885
 20
76.904
 10
158.886
 20
76.883
 10
158.889
 20
76.861
 10
158.893
 20
76.839
 10
158.898
 20
76.817
 10
158.905
 20
76.796
 10
158.913
 20
76.774
 10
158.923
 20
76.754
 10
158.935
 20
76.733
 10
158.948
 20
76.713
 10
158.963
 20
76.693
 10
158.98
 20
76.673
 10
158.998
 20
76.654
 10
159.016
 20
76.637
 10
159.033
 20
76.621
 10
159.051
 20
76.607
 10
159.069
 20
76.595
 10
159.086
 20
76.584
 10
159.104
 20
76.574
 10
159.121
 20
76.565
 10
159.139
 20
76.559
 10
159.156
 20
76.553
 10
159.174
 20
76.548
 10
159.191
 20
76.544
 10
159.208
 20
76.541
 10
159.226
 20
76.539
 10
159.243
 20
76.537
 10
159.26
 20
76.537
 10
159.277
 20
76.537
 10
159.294
 20
76.539
 10
159.311
 20
76.54
 10
159.328
 20
76.543
 10
159.345
 20
76.546
 10
159.362
 20
76.55
 10
159.378
 20
76.555
 10
159.395
 20
76.56
 10
159.411
 20
76.566
 10
159.427
 20
76.573
 10
159.443
 20
76.579
 10
159.459
 20
76.586
 10
159.475
 20
76.593
 10
159.49
 20
76.6
 10
159.505
 20
76.608
 10
159.521
 20
76.615
 10
159.536
 20
76.623
 10
159.551
 20
76.631
 10
159.566
 20
76.638
 10
159.581
 20
76.646
 10
159.596
 20
76.653
 10
159.611
 20
76.661
 10
159.626
 20
76.668
 10
159.64
 20
76.675
 10
159.654
 20
76.682
 10
159.668
 20
76.689
 10
159.682
 20
76.695
 10
159.696
 20
76.701
 10
159.709
 20
76.706
 10
159.723
 20
76.711
 10
159.736
 20
76.716
 10
159.748
 20
76.719
 10
159.761
 20
76.723
 10
159.774
 20
76.725
 10
159.786
 20
76.727
 10
159.798
 20
76.729
 10
159.81
 20
76.73
 10
159.822
 20
76.73
 10
159.833
 20
76.729
 10
159.845
 20
76.728
 10
159.856
 20
76.727
 10
159.867
 20
76.724
 10
159.878
 20
76.721
 10
159.889
 20
76.716
 10
159.899
 20
76.711
 10
159.91
 20
76.705
 10
159.92
 20
76.697
 10
159.93
 20
76.689
 10
159.94
 20
76.679
 10
159.95
 20
76.669
 10
159.959
 20
76.659
 10
159.967
 20
76.648
 10
159.974
 20
76.638
 10
159.98
 20
76.627
 10
159.985
 20
76.616
 10
159.989
 20
76.605
 10
159.992
 20
76.595
 10
159.995
 20
76.584
 10
159.997
 20
76.573
 10
159.998
 20
76.562
 10
159.999
 20
76.551
 10
159.999
 20
76.54
 10
159.999
 20
76.528
 10
159.997
 20
76.517
 10
159.996
 20
76.506
 10
159.994
 20
76.495
 10
159.991
 20
76.484
 10
159.988
 20
76.473
 10
159.984
 20
76.463
 10
159.979
 20
76.452
 10
159.975
 20
76.442
 10
159.969
 20
76.431
 10
159.963
 20
76.421
 10
159.957
 20
76.411
 10
159.951
 20
76.402
 10
159.944
 20
76.392
 10
159.937
 20
76.383
 10
159.93
 20
76.375
 10
159.923
 20
76.366
 10
159.915
 20
76.358
 10
159.907
 20
76.35
 10
159.892
 20
76.336
 10
159.876
 20
76.322
 10
159.858
 20
76.309
 10
159.84
 20
76.297
 10
159.821
 20
76.286
 10
159.8
 20
76.276
 10
159.779
 20
76.267
 10
159.757
 20
76.259
 10
159.734
 20
76.251
 10
159.711
 20
76.246
 10
159.689
 20
76.241
 10
159.666
 20
76.238
 10
159.644
 20
76.237
 10
159.622
 20
76.237
 10
159.6
 20
76.238
 10
159.578
 20
76.241
 10
159.569
 20
75.995
 10
159.602
 20
75.993
 10
159.634
 20
75.994
 10
159.667
 20
75.996
 10
159.699
 20
76.001
 10
159.732
 20
76.008
 10
159.764
 20
76.017
 10
159.797
 20
76.028
 10
159.829
 20
76.041
 10
159.861
 20
76.056
 10
159.892
 20
76.072
 10
159.922
 20
76.09
 10
159.95
 20
76.108
 10
159.978
 20
76.128
 10
160.005
 20
76.149
 10
160.031
 20
76.172
 10
160.056
 20
76.196
 10
160.074
 20
76.214
 10
160.091
 20
76.233
 10
160.107
 20
76.253
 10
160.123
 20
76.272
 10
160.137
 20
76.293
 10
160.151
 20
76.313
 10
160.164
 20
76.334
 10
160.176
 20
76.356
 10
160.187
 20
76.377
 10
160.197
 20
76.399
 10
160.206
 20
76.421
 10
160.214
 20
76.443
 10
160.22
 20
76.465
 10
160.225
 20
76.487
 10
160.23
 20
76.509
 10
160.233
 20
76.531
 10
160.235
 20
76.553
 10
160.235
 20
76.576
 10
160.234
 20
76.598
 10
160.233
 20
76.62
 10
160.229
 20
76.643
 10
160.225
 20
76.665
 10
160.219
 20
76.687
 10
160.212
 20
76.71
 10
160.204
 20
76.732
 10
160.194
 20
76.754
 10
160.182
 20
76.776
 10
160.169
 20
76.797
 10
160.155
 20
76.818
 10
160.138
 20
76.839
 10
160.121
 20
76.86
 10
160.101
 20
76.88
 10
160.083
 20
76.898
 10
160.064
 20
76.914
 10
160.046
 20
76.928
 10
160.027
 20
76.941
 10
160.008
 20
76.952
 10
159.989
 20
76.962
 10
159.97
 20
76.969
 10
159.951
 20
76.976
 10
159.931
 20
76.981
 10
159.912
 20
76.985
 10
159.893
 20
76.988
 10
159.874
 20
76.989
 10
159.855
 20
76.99
 10
159.836
 20
76.99
 10
159.817
 20
76.989
 10
159.798
 20
76.987
 10
159.779
 20
76.984
 10
159.76
 20
76.98
 10
159.742
 20
76.976
 10
159.723
 20
76.971
 10
159.705
 20
76.965
 10
159.687
 20
76.959
 10
159.669
 20
76.952
 10
159.651
 20
76.945
 10
159.633
 20
76.937
 10
159.616
 20
76.929
 10
159.598
 20
76.921
 10
159.581
 20
76.913
 10
159.565
 20
76.905
 10
159.548
 20
76.896
 10
159.532
 20
76.888
 10
159.516
 20
76.88
 10
159.502
 20
76.873
 10
159.489
 20
76.866
 10
159.475
 20
76.859
 10
159.462
 20
76.852
 10
159.45
 20
76.846
 10
159.437
 20
76.84
 10
159.425
 20
76.834
 10
159.412
 20
76.828
 10
159.401
 20
76.822
 10
159.389
 20
76.818
 10
159.377
 20
76.813
 10
159.366
 20
76.809
 10
159.355
 20
76.805
 10
159.344
 20
76.802
 10
159.333
 20
76.8
 10
159.323
 20
76.798
 10
159.312
 20
76.796
 10
159.302
 20
76.795
 10
159.292
 20
76.794
 10
159.282
 20
76.794
 10
159.272
 20
76.795
 10
159.262
 20
76.796
 10
159.252
 20
76.797
 10
159.243
 20
76.8
 10
159.233
 20
76.802
 10
159.224
 20
76.806
 10
159.215
 20
76.81
 10
159.206
 20
76.816
 10
159.197
 20
76.821
 10
159.188
 20
76.828
 10
159.179
 20
76.835
 10
159.171
 20
76.843
 10
159.162
 20
76.853
 10
159.154
 20
76.862
 10
159.147
 20
76.872
 10
159.141
 20
76.882
 10
159.135
 20
76.892
 10
159.131
 20
76.902
 10
159.127
 20
76.912
 10
159.124
 20
76.923
 10
159.122
 20
76.933
 10
159.12
 20
76.944
 10
159.119
 20
76.954
 10
159.119
 20
76.965
 10
159.119
 20
76.975
 10
159.12
 20
76.986
 10
159.121
 20
76.996
 10
159.123
 20
77.007
 10
159.126
 20
77.017
 10
159.129
 20
77.028
 10
159.132
 20
77.038
 10
159.136
 20
77.048
 10
159.14
 20
77.058
 10
159.145
 20
77.068
 10
159.15
 20
77.078
 10
159.156
 20
77.087
 10
159.162
 20
77.097
 10
159.168
 20
77.106
 10
159.174
 20
77.116
 10
159.181
 20
77.124
 10
159.188
 20
77.133
 10
159.195
 20
77.141
 10
159.203
 20
77.15
 10
159.21
 20
77.157
 10
159.224
 20
77.17
 10
159.238
 20
77.182
 10
159.253
 20
77.193
 10
159.269
 20
77.203
 10
159.285
 20
77.213
 10
159.302
 20
77.222
 10
159.32
 20
77.23
 10
159.339
 20
77.237
 10
159.358
 20
77.243
 10
159.376
 20
77.248
 10
159.395
 20
77.252
 10
159.412
 20
77.255
 10
159.43
 20
77.256
 10
159.447
 20
77.257
 10
159.464
 20
77.257
 10
159.48
 20
77.255
 97
0
 92
3
 72
0
 73
1
 93
9
 10
159.93
 20
77.812
 10
160.776
 20
76.967
 10
160.954
 20
77.145
 10
160.108
 20
77.99
 10
160.415
 20
78.297
 10
160.26
 20
78.453
 10
159.468
 20
77.661
 10
159.623
 20
77.505
 10
159.93
 20
77.812
 97
0
 92
3
 72
0
 73
1
 93
129
 10
160.825
 20
78.023
 10
160.855
 20
77.995
 10
160.885
 20
77.968
 10
160.916
 20
77.943
 10
160.948
 20
77.921
 10
160.98
 20
77.9
 10
161.012
 20
77.881
 10
161.046
 20
77.864
 10
161.08
 20
77.849
 10
161.114
 20
77.836
 10
161.149
 20
77.824
 10
161.183
 20
77.815
 10
161.218
 20
77.807
 10
161.253
 20
77.801
 10
161.288
 20
77.797
 10
161.323
 20
77.794
 10
161.358
 20
77.794
 10
161.394
 20
77.795
 10
161.429
 20
77.798
 10
161.464
 20
77.803
 10
161.499
 20
77.81
 10
161.534
 20
77.818
 10
161.568
 20
77.829
 10
161.603
 20
77.841
 10
161.637
 20
77.855
 10
161.671
 20
77.87
 10
161.704
 20
77.888
 10
161.737
 20
77.907
 10
161.769
 20
77.928
 10
161.8
 20
77.951
 10
161.831
 20
77.976
 10
161.861
 20
78.002
 10
161.89
 20
78.03
 10
161.919
 20
78.06
 10
161.945
 20
78.09
 10
161.97
 20
78.121
 10
161.993
 20
78.153
 10
162.015
 20
78.185
 10
162.034
 20
78.218
 10
162.052
 20
78.251
 10
162.068
 20
78.285
 10
162.082
 20
78.32
 10
162.094
 20
78.354
 10
162.105
 20
78.389
 10
162.113
 20
78.424
 10
162.12
 20
78.459
 10
162.125
 20
78.494
 10
162.128
 20
78.53
 10
162.13
 20
78.565
 10
162.129
 20
78.601
 10
162.127
 20
78.636
 10
162.123
 20
78.671
 10
162.117
 20
78.706
 10
162.11
 20
78.741
 10
162.1
 20
78.776
 10
162.089
 20
78.81
 10
162.075
 20
78.845
 10
162.06
 20
78.879
 10
162.043
 20
78.912
 10
162.024
 20
78.945
 10
162.004
 20
78.977
 10
161.981
 20
79.008
 10
161.956
 20
79.039
 10
161.93
 20
79.069
 10
161.901
 20
79.099
 10
161.871
 20
79.128
 10
161.84
 20
79.155
 10
161.809
 20
79.18
 10
161.777
 20
79.203
 10
161.745
 20
79.225
 10
161.712
 20
79.244
 10
161.678
 20
79.261
 10
161.644
 20
79.276
 10
161.61
 20
79.289
 10
161.575
 20
79.3
 10
161.541
 20
79.31
 10
161.506
 20
79.317
 10
161.472
 20
79.323
 10
161.437
 20
79.327
 10
161.402
 20
79.328
 10
161.367
 20
79.328
 10
161.332
 20
79.326
 10
161.297
 20
79.323
 10
161.262
 20
79.317
 10
161.228
 20
79.31
 10
161.194
 20
79.3
 10
161.159
 20
79.289
 10
161.125
 20
79.276
 10
161.091
 20
79.262
 10
161.057
 20
79.245
 10
161.024
 20
79.227
 10
160.992
 20
79.207
 10
160.96
 20
79.186
 10
160.929
 20
79.162
 10
160.898
 20
79.137
 10
160.868
 20
79.111
 10
160.838
 20
79.082
 10
160.81
 20
79.053
 10
160.783
 20
79.023
 10
160.759
 20
78.993
 10
160.736
 20
78.961
 10
160.714
 20
78.93
 10
160.695
 20
78.897
 10
160.677
 20
78.865
 10
160.661
 20
78.831
 10
160.646
 20
78.797
 10
160.633
 20
78.763
 10
160.623
 20
78.729
 10
160.613
 20
78.695
 10
160.606
 20
78.661
 10
160.601
 20
78.626
 10
160.597
 20
78.592
 10
160.595
 20
78.557
 10
160.596
 20
78.522
 10
160.597
 20
78.487
 10
160.601
 20
78.453
 10
160.607
 20
78.418
 10
160.615
 20
78.384
 10
160.624
 20
78.349
 10
160.635
 20
78.315
 10
160.648
 20
78.28
 10
160.664
 20
78.246
 10
160.681
 20
78.213
 10
160.7
 20
78.18
 10
160.721
 20
78.147
 10
160.744
 20
78.115
 10
160.769
 20
78.084
 10
160.796
 20
78.053
 10
160.825
 20
78.023
 97
0
 92
3
 72
0
 73
1
 93
129
 10
161.019
 20
78.217
 10
161.0
 20
78.236
 10
160.982
 20
78.256
 10
160.966
 20
78.277
 10
160.95
 20
78.298
 10
160.936
 20
78.319
 10
160.923
 20
78.341
 10
160.911
 20
78.363
 10
160.9
 20
78.386
 10
160.89
 20
78.409
 10
160.881
 20
78.432
 10
160.873
 20
78.455
 10
160.867
 20
78.478
 10
160.862
 20
78.501
 10
160.858
 20
78.524
 10
160.855
 20
78.548
 10
160.854
 20
78.572
 10
160.853
 20
78.595
 10
160.854
 20
78.619
 10
160.856
 20
78.642
 10
160.859
 20
78.666
 10
160.863
 20
78.689
 10
160.869
 20
78.712
 10
160.876
 20
78.735
 10
160.884
 20
78.758
 10
160.893
 20
78.78
 10
160.904
 20
78.802
 10
160.916
 20
78.824
 10
160.929
 20
78.845
 10
160.944
 20
78.866
 10
160.96
 20
78.887
 10
160.978
 20
78.907
 10
160.996
 20
78.927
 10
161.016
 20
78.945
 10
161.036
 20
78.963
 10
161.057
 20
78.979
 10
161.078
 20
78.994
 10
161.099
 20
79.007
 10
161.121
 20
79.019
 10
161.143
 20
79.03
 10
161.166
 20
79.04
 10
161.189
 20
79.048
 10
161.212
 20
79.055
 10
161.235
 20
79.061
 10
161.259
 20
79.065
 10
161.282
 20
79.068
 10
161.306
 20
79.071
 10
161.329
 20
79.071
 10
161.353
 20
79.071
 10
161.376
 20
79.069
 10
161.4
 20
79.066
 10
161.423
 20
79.062
 10
161.447
 20
79.057
 10
161.47
 20
79.051
 10
161.493
 20
79.043
 10
161.516
 20
79.035
 10
161.539
 20
79.025
 10
161.561
 20
79.014
 10
161.584
 20
79.002
 10
161.605
 20
78.989
 10
161.627
 20
78.974
 10
161.648
 20
78.959
 10
161.668
 20
78.942
 10
161.688
 20
78.924
 10
161.708
 20
78.905
 10
161.727
 20
78.885
 10
161.746
 20
78.864
 10
161.763
 20
78.843
 10
161.779
 20
78.822
 10
161.794
 20
78.8
 10
161.807
 20
78.778
 10
161.82
 20
78.756
 10
161.831
 20
78.733
 10
161.841
 20
78.71
 10
161.85
 20
78.687
 10
161.857
 20
78.663
 10
161.863
 20
78.64
 10
161.869
 20
78.617
 10
161.873
 20
78.593
 10
161.875
 20
78.569
 10
161.877
 20
78.545
 10
161.877
 20
78.522
 10
161.876
 20
78.498
 10
161.874
 20
78.474
 10
161.87
 20
78.451
 10
161.866
 20
78.428
 10
161.86
 20
78.405
 10
161.853
 20
78.382
 10
161.844
 20
78.359
 10
161.835
 20
78.336
 10
161.824
 20
78.314
 10
161.811
 20
78.292
 10
161.798
 20
78.271
 10
161.783
 20
78.251
 10
161.767
 20
78.23
 10
161.75
 20
78.211
 10
161.732
 20
78.191
 10
161.712
 20
78.173
 10
161.693
 20
78.156
 10
161.673
 20
78.14
 10
161.652
 20
78.125
 10
161.631
 20
78.112
 10
161.609
 20
78.1
 10
161.587
 20
78.089
 10
161.565
 20
78.08
 10
161.542
 20
78.071
 10
161.519
 20
78.064
 10
161.496
 20
78.058
 10
161.473
 20
78.054
 10
161.45
 20
78.051
 10
161.426
 20
78.048
 10
161.403
 20
78.047
 10
161.379
 20
78.048
 10
161.355
 20
78.049
 10
161.331
 20
78.052
 10
161.308
 20
78.056
 10
161.284
 20
78.061
 10
161.261
 20
78.067
 10
161.238
 20
78.075
 10
161.215
 20
78.084
 10
161.192
 20
78.094
 10
161.169
 20
78.105
 10
161.146
 20
78.117
 10
161.124
 20
78.131
 10
161.102
 20
78.146
 10
161.081
 20
78.162
 10
161.06
 20
78.179
 10
161.039
 20
78.197
 10
161.019
 20
78.217
 97
0
 92
3
 72
0
 73
1
 93
57
 10
161.576
 20
79.769
 10
162.577
 20
78.768
 10
162.756
 20
78.946
 10
162.331
 20
79.371
 10
162.462
 20
79.501
 10
163.118
 20
79.308
 10
163.333
 20
79.523
 10
162.621
 20
79.7
 10
162.64
 20
79.733
 10
162.657
 20
79.765
 10
162.67
 20
79.798
 10
162.681
 20
79.83
 10
162.689
 20
79.863
 10
162.694
 20
79.895
 10
162.697
 20
79.928
 10
162.696
 20
79.96
 10
162.693
 20
79.993
 10
162.686
 20
80.024
 10
162.677
 20
80.055
 10
162.664
 20
80.085
 10
162.648
 20
80.115
 10
162.628
 20
80.144
 10
162.606
 20
80.172
 10
162.58
 20
80.199
 10
162.56
 20
80.218
 10
162.54
 20
80.236
 10
162.52
 20
80.251
 10
162.499
 20
80.265
 10
162.479
 20
80.277
 10
162.458
 20
80.287
 10
162.436
 20
80.296
 10
162.415
 20
80.303
 10
162.393
 20
80.308
 10
162.372
 20
80.312
 10
162.35
 20
80.315
 10
162.329
 20
80.316
 10
162.307
 20
80.316
 10
162.286
 20
80.315
 10
162.264
 20
80.313
 10
162.243
 20
80.309
 10
162.222
 20
80.304
 10
162.2
 20
80.298
 10
162.179
 20
80.291
 10
162.159
 20
80.283
 10
162.138
 20
80.274
 10
162.117
 20
80.263
 10
162.097
 20
80.252
 10
162.076
 20
80.24
 10
162.056
 20
80.227
 10
162.036
 20
80.213
 10
162.017
 20
80.198
 10
161.997
 20
80.183
 10
161.979
 20
80.168
 10
161.96
 20
80.152
 10
161.942
 20
80.135
 10
161.924
 20
80.117
 10
161.576
 20
79.769
 97
0
 92
3
 72
0
 73
1
 93
68
 10
162.331
 20
79.662
 10
162.186
 20
79.516
 10
161.904
 20
79.798
 10
162.066
 20
79.959
 10
162.074
 20
79.967
 10
162.083
 20
79.976
 10
162.092
 20
79.984
 10
162.101
 20
79.992
 10
162.111
 20
80.0
 10
162.121
 20
80.008
 10
162.131
 20
80.016
 10
162.141
 20
80.023
 10
162.152
 20
80.031
 10
162.162
 20
80.037
 10
162.173
 20
80.044
 10
162.183
 20
80.049
 10
162.194
 20
80.054
 10
162.205
 20
80.059
 10
162.216
 20
80.063
 10
162.227
 20
80.066
 10
162.238
 20
80.069
 10
162.249
 20
80.072
 10
162.26
 20
80.073
 10
162.271
 20
80.074
 10
162.282
 20
80.074
 10
162.293
 20
80.074
 10
162.304
 20
80.073
 10
162.315
 20
80.071
 10
162.326
 20
80.069
 10
162.337
 20
80.065
 10
162.348
 20
80.061
 10
162.359
 20
80.055
 10
162.369
 20
80.049
 10
162.38
 20
80.041
 10
162.39
 20
80.032
 10
162.401
 20
80.023
 10
162.411
 20
80.011
 10
162.421
 20
80.0
 10
162.43
 20
79.988
 10
162.437
 20
79.976
 10
162.443
 20
79.965
 10
162.448
 20
79.953
 10
162.452
 20
79.941
 10
162.455
 20
79.929
 10
162.457
 20
79.916
 10
162.458
 20
79.904
 10
162.459
 20
79.892
 10
162.458
 20
79.881
 10
162.457
 20
79.869
 10
162.455
 20
79.857
 10
162.453
 20
79.845
 10
162.449
 20
79.834
 10
162.445
 20
79.822
 10
162.441
 20
79.811
 10
162.436
 20
79.8
 10
162.43
 20
79.788
 10
162.424
 20
79.777
 10
162.417
 20
79.766
 10
162.41
 20
79.755
 10
162.402
 20
79.744
 10
162.394
 20
79.733
 10
162.385
 20
79.722
 10
162.377
 20
79.712
 10
162.368
 20
79.702
 10
162.359
 20
79.691
 10
162.35
 20
79.681
 10
162.341
 20
79.672
 10
162.331
 20
79.662
 97
0
 92
3
 72
0
 73
1
 93
17
 10
162.466
 20
80.659
 10
163.467
 20
79.658
 10
163.637
 20
79.827
 10
162.832
 20
80.632
 10
162.835
 20
80.635
 10
163.939
 20
80.13
 10
164.064
 20
80.255
 10
163.563
 20
81.363
 10
163.566
 20
81.366
 10
164.371
 20
80.561
 10
164.547
 20
80.738
 10
163.546
 20
81.739
 10
163.266
 20
81.459
 10
163.72
 20
80.491
 10
163.716
 20
80.486
 10
162.744
 20
80.938
 10
162.466
 20
80.659
 97
0
 75
0
 76
1
 98
0
  0
HATCH
  5
5C
330
17
100
AcDbEntity
  8
RASTER
 62
7
100
AcDbHatch
 10
0.0
 20
0.0
 30
0.0
210
0.0
220
0.0
230
1.0
  2
SOLID
 70
1
 71
0
 91
9
 92
3
 72
0
 73
1
 93
50
 10
121.521
 20
73.164
 10
121.175
 20
73.419
 10
120.833
 20
73.678
 10
120.494
 20
73.942
 10
120.158
 20
74.21
 10
119.826
 20
74.482
 10
119.498
 20
74.759
 10
119.173
 20
75.04
 10
118.853
 20
75.325
 10
118.535
 20
75.614
 10
118.222
 20
75.908
 10
117.912
 20
76.205
 10
117.607
 20
76.507
 10
117.305
 20
76.812
 10
117.008
 20
77.122
 10
116.714
 20
77.435
 10
116.425
 20
77.753
 10
116.14
 20
78.073
 10
115.859
 20
78.398
 10
115.582
 20
78.726
 10
115.31
 20
79.058
 10
115.042
 20
79.394
 10
114.778
 20
79.733
 10
114.519
 20
80.075
 10
114.264
 20
80.421
 10
136.593
 20
96.644
 10
136.633
 20
96.589
 10
136.675
 20
96.534
 10
136.716
 20
96.481
 10
136.759
 20
96.428
 10
136.802
 20
96.375
 10
136.846
 20
96.323
 10
136.89
 20
96.271
 10
136.936
 20
96.221
 10
136.982
 20
96.17
 10
137.028
 20
96.121
 10
137.075
 20
96.071
 10
137.123
 20
96.023
 10
137.171
 20
95.975
 10
137.221
 20
95.928
 10
137.27
 20
95.882
 10
137.321
 20
95.836
 10
137.371
 20
95.79
 10
137.423
 20
95.746
 10
137.475
 20
95.702
 10
137.528
 20
95.659
 10
137.581
 20
95.616
 10
137.634
 20
95.575
 10
137.689
 20
95.533
 10
137.744
 20
95.493
 97
0
 92
3
 72
0
 73
1
 93
56
 10
122.256
 20
81.234
 10
122.681
 20
81.045
 10
123.233
 20
80.973
 10
123.393
 20
80.784
 10
123.584
 20
80.637
 10
123.818
 20
80.544
 10
123.956
 20
80.523
 10
124.264
 20
80.546
 10
124.689
 20
80.733
 10
125.082
 20
80.597
 10
125.496
 20
80.588
 10
125.741
 20
80.659
 10
126.028
 20
80.826
 10
126.314
 20
81.113
 10
126.455
 20
81.347
 10
126.55
 20
81.666
 10
126.525
 20
82.165
 10
126.402
 20
82.473
 10
126.251
 20
82.686
 10
125.307
 20
83.653
 10
125.39
 20
83.752
 10
126.121
 20
84.173
 10
126.136
 20
84.226
 10
126.102
 20
84.265
 10
125.719
 20
84.405
 10
125.628
 20
84.513
 10
125.698
 20
84.581
 10
126.176
 20
84.764
 10
126.212
 20
84.84
 10
126.166
 20
84.862
 10
124.551
 20
84.751
 10
124.493
 20
84.704
 10
124.508
 20
84.643
 10
124.848
 20
84.475
 10
124.991
 20
84.364
 10
124.965
 20
84.292
 10
124.784
 20
84.233
 10
124.71
 20
84.269
 10
124.009
 20
84.991
 10
123.722
 20
85.21
 10
123.308
 20
85.387
 10
122.904
 20
85.418
 10
122.649
 20
85.387
 10
122.33
 20
85.261
 10
122.043
 20
85.044
 10
121.818
 20
84.736
 10
121.678
 20
84.258
 10
121.705
 20
83.823
 10
121.871
 20
83.387
 10
121.731
 20
83.164
 10
121.616
 20
82.866
 10
121.578
 20
82.558
 10
121.586
 20
82.25
 10
121.678
 20
81.931
 10
121.824
 20
81.655
 10
122.256
 20
81.234
 97
0
 92
3
 72
0
 73
1
 93
323
 10
118.355
 20
81.02
 10
118.598
 20
81.031
 10
118.596
 20
81.059
 10
118.593
 20
81.086
 10
118.588
 20
81.114
 10
118.582
 20
81.141
 10
118.574
 20
81.168
 10
118.565
 20
81.195
 10
118.555
 20
81.222
 10
118.542
 20
81.248
 10
118.529
 20
81.274
 10
118.515
 20
81.299
 10
118.5
 20
81.323
 10
118.485
 20
81.346
 10
118.468
 20
81.368
 10
118.451
 20
81.39
 10
118.433
 20
81.41
 10
118.414
 20
81.43
 10
118.397
 20
81.446
 10
118.38
 20
81.462
 10
118.361
 20
81.478
 10
118.343
 20
81.493
 10
118.323
 20
81.507
 10
118.304
 20
81.52
 10
118.284
 20
81.533
 10
118.263
 20
81.546
 10
118.242
 20
81.557
 10
118.221
 20
81.568
 10
118.2
 20
81.577
 10
118.179
 20
81.586
 10
118.157
 20
81.593
 10
118.136
 20
81.6
 10
118.114
 20
81.605
 10
118.092
 20
81.609
 10
118.07
 20
81.613
 10
118.048
 20
81.615
 10
118.026
 20
81.616
 10
118.004
 20
81.615
 10
117.983
 20
81.614
 10
117.961
 20
81.611
 10
117.939
 20
81.607
 10
117.917
 20
81.602
 10
117.896
 20
81.595
 10
117.874
 20
81.587
 10
117.854
 20
81.577
 10
117.833
 20
81.565
 10
117.813
 20
81.552
 10
117.793
 20
81.537
 10
117.773
 20
81.52
 10
117.754
 20
81.502
 10
117.737
 20
81.484
 10
117.721
 20
81.467
 10
117.707
 20
81.449
 10
117.695
 20
81.431
 10
117.684
 20
81.414
 10
117.674
 20
81.396
 10
117.665
 20
81.379
 10
117.659
 20
81.361
 10
117.653
 20
81.344
 10
117.648
 20
81.326
 10
117.644
 20
81.309
 10
117.641
 20
81.292
 10
117.639
 20
81.274
 10
117.637
 20
81.257
 10
117.637
 20
81.24
 10
117.637
 20
81.223
 10
117.639
 20
81.206
 10
117.64
 20
81.189
 10
117.643
 20
81.172
 10
117.646
 20
81.155
 10
117.65
 20
81.138
 10
117.655
 20
81.122
 10
117.66
 20
81.105
 10
117.666
 20
81.089
 10
117.673
 20
81.073
 10
117.679
 20
81.057
 10
117.686
 20
81.041
 10
117.693
 20
81.025
 10
117.7
 20
81.01
 10
117.708
 20
80.995
 10
117.715
 20
80.979
 10
117.723
 20
80.964
 10
117.731
 20
80.949
 10
117.738
 20
80.934
 10
117.746
 20
80.919
 10
117.753
 20
80.904
 10
117.761
 20
80.889
 10
117.768
 20
80.874
 10
117.775
 20
80.86
 10
117.782
 20
80.846
 10
117.789
 20
80.832
 10
117.795
 20
80.818
 10
117.801
 20
80.804
 10
117.806
 20
80.791
 10
117.811
 20
80.777
 10
117.816
 20
80.764
 10
117.819
 20
80.752
 10
117.823
 20
80.739
 10
117.825
 20
80.726
 10
117.827
 20
80.714
 10
117.829
 20
80.702
 10
117.83
 20
80.69
 10
117.83
 20
80.678
 10
117.829
 20
80.667
 10
117.828
 20
80.655
 10
117.827
 20
80.644
 10
117.824
 20
80.633
 10
117.821
 20
80.622
 10
117.816
 20
80.611
 10
117.811
 20
80.601
 10
117.805
 20
80.59
 10
117.797
 20
80.58
 10
117.789
 20
80.57
 10
117.779
 20
80.56
 10
117.769
 20
80.55
 10
117.759
 20
80.541
 10
117.748
 20
80.533
 10
117.738
 20
80.526
 10
117.727
 20
80.52
 10
117.716
 20
80.515
 10
117.705
 20
80.511
 10
117.695
 20
80.508
 10
117.684
 20
80.505
 10
117.673
 20
80.503
 10
117.662
 20
80.502
 10
117.651
 20
80.501
 10
117.64
 20
80.501
 10
117.628
 20
80.501
 10
117.617
 20
80.503
 10
117.606
 20
80.504
 10
117.595
 20
80.506
 10
117.584
 20
80.509
 10
117.573
 20
80.512
 10
117.563
 20
80.516
 10
117.552
 20
80.521
 10
117.542
 20
80.525
 10
117.531
 20
80.531
 10
117.521
 20
80.537
 10
117.511
 20
80.543
 10
117.502
 20
80.549
 10
117.492
 20
80.556
 10
117.483
 20
80.563
 10
117.475
 20
80.57
 10
117.466
 20
80.577
 10
117.458
 20
80.585
 10
117.45
 20
80.593
 10
117.436
 20
80.608
 10
117.422
 20
80.624
 10
117.409
 20
80.642
 10
117.397
 20
80.66
 10
117.386
 20
80.679
 10
117.376
 20
80.7
 10
117.367
 20
80.721
 10
117.359
 20
80.743
 10
117.351
 20
80.766
 10
117.346
 20
80.789
 10
117.341
 20
80.811
 10
117.338
 20
80.834
 10
117.337
 20
80.856
 10
117.337
 20
80.878
 10
117.338
 20
80.9
 10
117.341
 20
80.922
 10
117.095
 20
80.931
 10
117.093
 20
80.898
 10
117.094
 20
80.866
 10
117.096
 20
80.833
 10
117.101
 20
80.801
 10
117.108
 20
80.768
 10
117.117
 20
80.736
 10
117.128
 20
80.703
 10
117.141
 20
80.671
 10
117.156
 20
80.639
 10
117.172
 20
80.608
 10
117.19
 20
80.578
 10
117.208
 20
80.55
 10
117.228
 20
80.522
 10
117.249
 20
80.495
 10
117.272
 20
80.469
 10
117.296
 20
80.444
 10
117.314
 20
80.426
 10
117.333
 20
80.409
 10
117.353
 20
80.393
 10
117.372
 20
80.377
 10
117.393
 20
80.363
 10
117.413
 20
80.349
 10
117.434
 20
80.336
 10
117.456
 20
80.324
 10
117.477
 20
80.313
 10
117.499
 20
80.303
 10
117.521
 20
80.294
 10
117.543
 20
80.286
 10
117.565
 20
80.28
 10
117.587
 20
80.275
 10
117.609
 20
80.27
 10
117.631
 20
80.267
 10
117.653
 20
80.265
 10
117.676
 20
80.265
 10
117.698
 20
80.266
 10
117.72
 20
80.267
 10
117.743
 20
80.271
 10
117.765
 20
80.275
 10
117.787
 20
80.281
 10
117.81
 20
80.288
 10
117.832
 20
80.296
 10
117.854
 20
80.306
 10
117.876
 20
80.318
 10
117.897
 20
80.331
 10
117.918
 20
80.345
 10
117.939
 20
80.362
 10
117.96
 20
80.379
 10
117.98
 20
80.399
 10
117.998
 20
80.417
 10
118.014
 20
80.436
 10
118.028
 20
80.454
 10
118.041
 20
80.473
 10
118.052
 20
80.492
 10
118.062
 20
80.511
 10
118.069
 20
80.53
 10
118.076
 20
80.549
 10
118.081
 20
80.569
 10
118.085
 20
80.588
 10
118.088
 20
80.607
 10
118.089
 20
80.626
 10
118.09
 20
80.645
 10
118.09
 20
80.664
 10
118.089
 20
80.683
 10
118.087
 20
80.702
 10
118.084
 20
80.721
 10
118.08
 20
80.74
 10
118.076
 20
80.758
 10
118.071
 20
80.777
 10
118.065
 20
80.795
 10
118.059
 20
80.813
 10
118.052
 20
80.831
 10
118.045
 20
80.849
 10
118.037
 20
80.867
 10
118.029
 20
80.884
 10
118.021
 20
80.902
 10
118.013
 20
80.919
 10
118.005
 20
80.935
 10
117.996
 20
80.952
 10
117.988
 20
80.968
 10
117.98
 20
80.984
 10
117.973
 20
80.998
 10
117.966
 20
81.011
 10
117.959
 20
81.025
 10
117.952
 20
81.038
 10
117.946
 20
81.05
 10
117.94
 20
81.063
 10
117.934
 20
81.075
 10
117.928
 20
81.088
 10
117.922
 20
81.099
 10
117.918
 20
81.111
 10
117.913
 20
81.123
 10
117.909
 20
81.134
 10
117.905
 20
81.145
 10
117.902
 20
81.156
 10
117.9
 20
81.167
 10
117.898
 20
81.177
 10
117.896
 20
81.188
 10
117.895
 20
81.198
 10
117.894
 20
81.208
 10
117.894
 20
81.218
 10
117.895
 20
81.228
 10
117.896
 20
81.238
 10
117.897
 20
81.248
 10
117.9
 20
81.257
 10
117.902
 20
81.267
 10
117.906
 20
81.276
 10
117.91
 20
81.285
 10
117.916
 20
81.294
 10
117.921
 20
81.303
 10
117.928
 20
81.312
 10
117.935
 20
81.321
 10
117.943
 20
81.329
 10
117.953
 20
81.338
 10
117.962
 20
81.346
 10
117.972
 20
81.353
 10
117.982
 20
81.359
 10
117.992
 20
81.365
 10
118.002
 20
81.369
 10
118.012
 20
81.373
 10
118.023
 20
81.376
 10
118.033
 20
81.378
 10
118.044
 20
81.38
 10
118.054
 20
81.381
 10
118.065
 20
81.381
 10
118.075
 20
81.381
 10
118.086
 20
81.38
 10
118.096
 20
81.379
 10
118.107
 20
81.377
 10
118.117
 20
81.374
 10
118.128
 20
81.371
 10
118.138
 20
81.368
 10
118.148
 20
81.364
 10
118.158
 20
81.36
 10
118.168
 20
81.355
 10
118.178
 20
81.35
 10
118.187
 20
81.344
 10
118.197
 20
81.338
 10
118.206
 20
81.332
 10
118.216
 20
81.326
 10
118.224
 20
81.319
 10
118.233
 20
81.312
 10
118.241
 20
81.305
 10
118.25
 20
81.297
 10
118.257
 20
81.29
 10
118.27
 20
81.276
 10
118.282
 20
81.262
 10
118.293
 20
81.247
 10
118.303
 20
81.231
 10
118.313
 20
81.215
 10
118.322
 20
81.198
 10
118.33
 20
81.18
 10
118.337
 20
81.161
 10
118.343
 20
81.142
 10
118.348
 20
81.124
 10
118.352
 20
81.105
 10
118.355
 20
81.088
 10
118.356
 20
81.07
 10
118.357
 20
81.053
 10
118.357
 20
81.036
 10
118.355
 20
81.02
 97
0
 92
3
 72
0
 73
1
 93
9
 10
118.912
 20
80.57
 10
118.067
 20
79.724
 10
118.245
 20
79.546
 10
119.09
 20
80.392
 10
119.397
 20
80.085
 10
119.553
 20
80.24
 10
118.761
 20
81.032
 10
118.605
 20
80.877
 10
118.912
 20
80.57
 97
0
 92
3
 72
0
 73
1
 93
129
 10
119.123
 20
79.675
 10
119.095
 20
79.645
 10
119.068
 20
79.615
 10
119.043
 20
79.584
 10
119.021
 20
79.552
 10
119.0
 20
79.52
 10
118.981
 20
79.488
 10
118.964
 20
79.454
 10
118.949
 20
79.42
 10
118.936
 20
79.386
 10
118.924
 20
79.351
 10
118.915
 20
79.317
 10
118.907
 20
79.282
 10
118.901
 20
79.247
 10
118.897
 20
79.212
 10
118.894
 20
79.177
 10
118.894
 20
79.142
 10
118.895
 20
79.106
 10
118.898
 20
79.071
 10
118.903
 20
79.036
 10
118.91
 20
79.001
 10
118.918
 20
78.966
 10
118.929
 20
78.932
 10
118.941
 20
78.897
 10
118.955
 20
78.863
 10
118.97
 20
78.829
 10
118.988
 20
78.796
 10
119.007
 20
78.763
 10
119.028
 20
78.731
 10
119.051
 20
78.7
 10
119.076
 20
78.669
 10
119.102
 20
78.639
 10
119.13
 20
78.61
 10
119.16
 20
78.581
 10
119.19
 20
78.555
 10
119.221
 20
78.53
 10
119.253
 20
78.507
 10
119.285
 20
78.485
 10
119.318
 20
78.466
 10
119.351
 20
78.448
 10
119.385
 20
78.432
 10
119.42
 20
78.418
 10
119.454
 20
78.406
 10
119.489
 20
78.395
 10
119.524
 20
78.387
 10
119.559
 20
78.38
 10
119.594
 20
78.375
 10
119.63
 20
78.372
 10
119.665
 20
78.37
 10
119.701
 20
78.371
 10
119.736
 20
78.373
 10
119.771
 20
78.377
 10
119.806
 20
78.383
 10
119.841
 20
78.39
 10
119.876
 20
78.4
 10
119.91
 20
78.411
 10
119.945
 20
78.425
 10
119.979
 20
78.44
 10
120.012
 20
78.457
 10
120.045
 20
78.476
 10
120.077
 20
78.496
 10
120.108
 20
78.519
 10
120.139
 20
78.544
 10
120.169
 20
78.57
 10
120.199
 20
78.599
 10
120.228
 20
78.629
 10
120.255
 20
78.66
 10
120.28
 20
78.691
 10
120.303
 20
78.723
 10
120.325
 20
78.755
 10
120.344
 20
78.788
 10
120.361
 20
78.822
 10
120.376
 20
78.856
 10
120.389
 20
78.89
 10
120.4
 20
78.925
 10
120.41
 20
78.959
 10
120.417
 20
78.994
 10
120.423
 20
79.028
 10
120.427
 20
79.063
 10
120.428
 20
79.098
 10
120.428
 20
79.133
 10
120.426
 20
79.168
 10
120.423
 20
79.203
 10
120.417
 20
79.238
 10
120.41
 20
79.272
 10
120.4
 20
79.306
 10
120.389
 20
79.341
 10
120.376
 20
79.375
 10
120.362
 20
79.409
 10
120.345
 20
79.443
 10
120.327
 20
79.476
 10
120.307
 20
79.508
 10
120.286
 20
79.54
 10
120.262
 20
79.571
 10
120.237
 20
79.602
 10
120.211
 20
79.632
 10
120.182
 20
79.662
 10
120.153
 20
79.69
 10
120.123
 20
79.717
 10
120.093
 20
79.741
 10
120.061
 20
79.764
 10
120.03
 20
79.786
 10
119.997
 20
79.805
 10
119.965
 20
79.823
 10
119.931
 20
79.839
 10
119.897
 20
79.854
 10
119.863
 20
79.867
 10
119.829
 20
79.877
 10
119.795
 20
79.887
 10
119.761
 20
79.894
 10
119.726
 20
79.899
 10
119.692
 20
79.903
 10
119.657
 20
79.905
 10
119.622
 20
79.904
 10
119.587
 20
79.903
 10
119.553
 20
79.899
 10
119.518
 20
79.893
 10
119.484
 20
79.885
 10
119.449
 20
79.876
 10
119.415
 20
79.865
 10
119.38
 20
79.852
 10
119.346
 20
79.836
 10
119.313
 20
79.819
 10
119.28
 20
79.8
 10
119.247
 20
79.779
 10
119.215
 20
79.756
 10
119.184
 20
79.731
 10
119.153
 20
79.704
 10
119.123
 20
79.675
 97
0
 92
3
 72
0
 73
1
 93
129
 10
119.317
 20
79.481
 10
119.336
 20
79.5
 10
119.356
 20
79.518
 10
119.377
 20
79.534
 10
119.398
 20
79.55
 10
119.419
 20
79.564
 10
119.441
 20
79.577
 10
119.463
 20
79.589
 10
119.486
 20
79.6
 10
119.509
 20
79.61
 10
119.532
 20
79.619
 10
119.555
 20
79.627
 10
119.578
 20
79.633
 10
119.601
 20
79.638
 10
119.624
 20
79.642
 10
119.648
 20
79.645
 10
119.672
 20
79.646
 10
119.695
 20
79.647
 10
119.719
 20
79.646
 10
119.742
 20
79.644
 10
119.766
 20
79.641
 10
119.789
 20
79.637
 10
119.812
 20
79.631
 10
119.835
 20
79.624
 10
119.858
 20
79.616
 10
119.88
 20
79.607
 10
119.902
 20
79.596
 10
119.924
 20
79.584
 10
119.945
 20
79.571
 10
119.966
 20
79.556
 10
119.987
 20
79.54
 10
120.007
 20
79.522
 10
120.027
 20
79.504
 10
120.045
 20
79.484
 10
120.063
 20
79.464
 10
120.079
 20
79.443
 10
120.094
 20
79.422
 10
120.107
 20
79.401
 10
120.119
 20
79.379
 10
120.13
 20
79.357
 10
120.14
 20
79.334
 10
120.148
 20
79.311
 10
120.155
 20
79.288
 10
120.161
 20
79.265
 10
120.165
 20
79.241
 10
120.168
 20
79.218
 10
120.171
 20
79.194
 10
120.171
 20
79.171
 10
120.171
 20
79.147
 10
120.169
 20
79.124
 10
120.166
 20
79.1
 10
120.162
 20
79.077
 10
120.157
 20
79.053
 10
120.151
 20
79.03
 10
120.143
 20
79.007
 10
120.135
 20
78.984
 10
120.125
 20
78.961
 10
120.114
 20
78.939
 10
120.102
 20
78.916
 10
120.089
 20
78.895
 10
120.074
 20
78.873
 10
120.059
 20
78.852
 10
120.042
 20
78.832
 10
120.024
 20
78.812
 10
120.005
 20
78.792
 10
119.985
 20
78.773
 10
119.964
 20
78.754
 10
119.943
 20
78.737
 10
119.922
 20
78.721
 10
119.9
 20
78.706
 10
119.878
 20
78.693
 10
119.856
 20
78.68
 10
119.833
 20
78.669
 10
119.81
 20
78.659
 10
119.787
 20
78.65
 10
119.763
 20
78.643
 10
119.74
 20
78.637
 10
119.717
 20
78.631
 10
119.693
 20
78.627
 10
119.669
 20
78.625
 10
119.645
 20
78.623
 10
119.622
 20
78.623
 10
119.598
 20
78.624
 10
119.574
 20
78.626
 10
119.551
 20
78.63
 10
119.528
 20
78.634
 10
119.505
 20
78.64
 10
119.482
 20
78.647
 10
119.459
 20
78.656
 10
119.436
 20
78.665
 10
119.414
 20
78.676
 10
119.392
 20
78.689
 10
119.371
 20
78.702
 10
119.351
 20
78.717
 10
119.33
 20
78.733
 10
119.311
 20
78.75
 10
119.291
 20
78.768
 10
119.273
 20
78.788
 10
119.256
 20
78.807
 10
119.24
 20
78.827
 10
119.225
 20
78.848
 10
119.212
 20
78.869
 10
119.2
 20
78.891
 10
119.189
 20
78.913
 10
119.18
 20
78.935
 10
119.171
 20
78.958
 10
119.164
 20
78.981
 10
119.158
 20
79.004
 10
119.154
 20
79.027
 10
119.151
 20
79.05
 10
119.148
 20
79.074
 10
119.147
 20
79.097
 10
119.148
 20
79.121
 10
119.149
 20
79.145
 10
119.152
 20
79.169
 10
119.156
 20
79.192
 10
119.161
 20
79.216
 10
119.167
 20
79.239
 10
119.175
 20
79.262
 10
119.184
 20
79.285
 10
119.194
 20
79.308
 10
119.205
 20
79.331
 10
119.217
 20
79.354
 10
119.231
 20
79.376
 10
119.246
 20
79.398
 10
119.262
 20
79.419
 10
119.279
 20
79.44
 10
119.297
 20
79.461
 10
119.317
 20
79.481
 97
0
 92
3
 72
0
 73
1
 93
57
 10
120.869
 20
78.924
 10
119.868
 20
77.923
 10
120.046
 20
77.744
 10
120.471
 20
78.169
 10
120.601
 20
78.038
 10
120.408
 20
77.382
 10
120.623
 20
77.167
 10
120.8
 20
77.879
 10
120.833
 20
77.86
 10
120.865
 20
77.843
 10
120.898
 20
77.83
 10
120.93
 20
77.819
 10
120.963
 20
77.811
 10
120.995
 20
77.806
 10
121.028
 20
77.803
 10
121.06
 20
77.804
 10
121.093
 20
77.807
 10
121.124
 20
77.814
 10
121.155
 20
77.823
 10
121.185
 20
77.836
 10
121.215
 20
77.852
 10
121.244
 20
77.872
 10
121.272
 20
77.894
 10
121.299
 20
77.92
 10
121.318
 20
77.94
 10
121.336
 20
77.96
 10
121.351
 20
77.98
 10
121.365
 20
78.001
 10
121.377
 20
78.021
 10
121.387
 20
78.042
 10
121.396
 20
78.064
 10
121.403
 20
78.085
 10
121.408
 20
78.107
 10
121.412
 20
78.128
 10
121.415
 20
78.15
 10
121.416
 20
78.171
 10
121.416
 20
78.193
 10
121.415
 20
78.214
 10
121.413
 20
78.236
 10
121.409
 20
78.257
 10
121.404
 20
78.278
 10
121.398
 20
78.3
 10
121.391
 20
78.321
 10
121.383
 20
78.341
 10
121.374
 20
78.362
 10
121.363
 20
78.383
 10
121.352
 20
78.403
 10
121.34
 20
78.424
 10
121.327
 20
78.444
 10
121.313
 20
78.464
 10
121.298
 20
78.483
 10
121.283
 20
78.503
 10
121.268
 20
78.521
 10
121.252
 20
78.54
 10
121.235
 20
78.558
 10
121.217
 20
78.576
 10
120.869
 20
78.924
 97
0
 92
3
 72
0
 73
1
 93
68
 10
120.762
 20
78.169
 10
120.616
 20
78.314
 10
120.898
 20
78.596
 10
121.059
 20
78.434
 10
121.067
 20
78.426
 10
121.076
 20
78.417
 10
121.084
 20
78.408
 10
121.092
 20
78.399
 10
121.1
 20
78.389
 10
121.108
 20
78.379
 10
121.116
 20
78.369
 10
121.123
 20
78.359
 10
121.131
 20
78.348
 10
121.137
 20
78.338
 10
121.144
 20
78.327
 10
121.149
 20
78.317
 10
121.154
 20
78.306
 10
121.159
 20
78.295
 10
121.163
 20
78.284
 10
121.166
 20
78.273
 10
121.169
 20
78.262
 10
121.172
 20
78.251
 10
121.173
 20
78.24
 10
121.174
 20
78.229
 10
121.174
 20
78.218
 10
121.174
 20
78.207
 10
121.173
 20
78.196
 10
121.171
 20
78.185
 10
121.169
 20
78.174
 10
121.165
 20
78.163
 10
121.161
 20
78.152
 10
121.155
 20
78.141
 10
121.149
 20
78.131
 10
121.141
 20
78.12
 10
121.132
 20
78.11
 10
121.123
 20
78.099
 10
121.111
 20
78.089
 10
121.1
 20
78.079
 10
121.088
 20
78.07
 10
121.076
 20
78.063
 10
121.065
 20
78.057
 10
121.053
 20
78.052
 10
121.041
 20
78.048
 10
121.029
 20
78.045
 10
121.016
 20
78.043
 10
121.004
 20
78.042
 10
120.992
 20
78.041
 10
120.981
 20
78.042
 10
120.969
 20
78.043
 10
120.957
 20
78.045
 10
120.945
 20
78.047
 10
120.934
 20
78.051
 10
120.922
 20
78.055
 10
120.911
 20
78.059
 10
120.9
 20
78.064
 10
120.888
 20
78.07
 10
120.877
 20
78.076
 10
120.866
 20
78.083
 10
120.855
 20
78.09
 10
120.844
 20
78.098
 10
120.833
 20
78.106
 10
120.822
 20
78.115
 10
120.812
 20
78.123
 10
120.802
 20
78.132
 10
120.791
 20
78.141
 10
120.781
 20
78.15
 10
120.772
 20
78.159
 10
120.762
 20
78.169
 97
0
 92
3
 72
0
 73
1
 93
17
 10
121.759
 20
78.034
 10
120.758
 20
77.033
 10
120.927
 20
76.863
 10
121.732
 20
77.668
 10
121.735
 20
77.665
 10
121.23
 20
76.561
 10
121.355
 20
76.436
 10
122.463
 20
76.937
 10
122.466
 20
76.934
 10
121.661
 20
76.129
 10
121.838
 20
75.953
 10
122.839
 20
76.954
 10
122.559
 20
77.234
 10
121.591
 20
76.78
 10
121.586
 20
76.784
 10
122.038
 20
77.756
 10
121.759
 20
78.034
 97
0
 75
0
 76
1
 98
0
  0
HATCH
  5
5D
330
17
100
AcDbEntity
  8
RASTER
 62
7
100
AcDbHatch
 10
0.0
 20
0.0
 30
0.0
210
0.0
220
0.0
230
1.0
  2
SOLID
 70
1
 71
0
 91
9
 92
3
 72
0
 73
1
 93
50
 10
114.264
 20
118.979
 10
114.519
 20
119.325
 10
114.778
 20
119.667
 10
115.042
 20
120.006
 10
115.31
 20
120.342
 10
115.582
 20
120.674
 10
115.859
 20
121.002
 10
116.14
 20
121.327
 10
116.425
 20
121.647
 10
116.714
 20
121.965
 10
117.008
 20
122.278
 10
117.305
 20
122.588
 10
117.607
 20
122.893
 10
117.912
 20
123.195
 10
118.222
 20
123.492
 10
118.535
 20
123.786
 10
118.853
 20
124.075
 10
119.173
 20
124.36
 10
119.498
 20
124.641
 10
119.826
 20
124.918
 10
120.158
 20
125.19
 10
120.494
 20
125.458
 10
120.833
 20
125.722
 10
121.175
 20
125.981
 10
121.521
 20
126.236
 10
137.744
 20
103.907
 10
137.689
 20
103.867
 10
137.634
 20
103.825
 10
137.581
 20
103.784
 10
137.528
 20
103.741
 10
137.475
 20
103.698
 10
137.423
 20
103.654
 10
137.371
 20
103.61
 10
137.321
 20
103.564
 10
137.27
 20
103.518
 10
137.221
 20
103.472
 10
137.171
 20
103.425
 10
137.123
 20
103.377
 10
137.075
 20
103.329
 10
137.028
 20
103.279
 10
136.982
 20
103.23
 10
136.936
 20
103.179
 10
136.89
 20
103.129
 10
136.846
 20
103.077
 10
136.802
 20
103.025
 10
136.759
 20
102.972
 10
136.716
 20
102.919
 10
136.675
 20
102.866
 10
136.633
 20
102.811
 10
136.593
 20
102.756
 97
0
 92
3
 72
0
 73
1
 93
56
 10
122.334
 20
118.244
 10
122.145
 20
117.819
 10
122.073
 20
117.267
 10
121.884
 20
117.107
 10
121.737
 20
116.916
 10
121.644
 20
116.682
 10
121.623
 20
116.544
 10
121.646
 20
116.236
 10
121.833
 20
115.811
 10
121.697
 20
115.418
 10
121.688
 20
115.004
 10
121.759
 20
114.759
 10
121.926
 20
114.472
 10
122.213
 20
114.186
 10
122.447
 20
114.045
 10
122.766
 20
113.95
 10
123.265
 20
113.975
 10
123.573
 20
114.098
 10
123.786
 20
114.249
 10
124.753
 20
115.193
 10
124.852
 20
115.11
 10
125.273
 20
114.379
 10
125.326
 20
114.364
 10
125.365
 20
114.398
 10
125.505
 20
114.781
 10
125.613
 20
114.872
 10
125.681
 20
114.802
 10
125.864
 20
114.324
 10
125.94
 20
114.288
 10
125.962
 20
114.334
 10
125.851
 20
115.949
 10
125.804
 20
116.007
 10
125.743
 20
115.992
 10
125.575
 20
115.652
 10
125.464
 20
115.509
 10
125.392
 20
115.535
 10
125.333
 20
115.716
 10
125.369
 20
115.79
 10
126.091
 20
116.491
 10
126.31
 20
116.778
 10
126.487
 20
117.192
 10
126.518
 20
117.596
 10
126.487
 20
117.851
 10
126.361
 20
118.17
 10
126.144
 20
118.457
 10
125.836
 20
118.682
 10
125.358
 20
118.822
 10
124.923
 20
118.795
 10
124.487
 20
118.629
 10
124.264
 20
118.769
 10
123.966
 20
118.884
 10
123.658
 20
118.922
 10
123.35
 20
118.914
 10
123.031
 20
118.822
 10
122.755
 20
118.676
 10
122.334
 20
118.244
 97
0
 92
3
 72
0
 73
1
 93
323
 10
122.12
 20
122.145
 10
122.131
 20
121.902
 10
122.159
 20
121.904
 10
122.186
 20
121.907
 10
122.214
 20
121.912
 10
122.241
 20
121.918
 10
122.268
 20
121.926
 10
122.295
 20
121.935
 10
122.322
 20
121.945
 10
122.348
 20
121.958
 10
122.374
 20
121.971
 10
122.399
 20
121.985
 10
122.423
 20
122.0
 10
122.446
 20
122.015
 10
122.468
 20
122.032
 10
122.49
 20
122.049
 10
122.51
 20
122.067
 10
122.53
 20
122.086
 10
122.546
 20
122.103
 10
122.562
 20
122.12
 10
122.578
 20
122.139
 10
122.593
 20
122.157
 10
122.607
 20
122.177
 10
122.62
 20
122.196
 10
122.633
 20
122.216
 10
122.646
 20
122.237
 10
122.657
 20
122.258
 10
122.668
 20
122.279
 10
122.677
 20
122.3
 10
122.686
 20
122.321
 10
122.693
 20
122.343
 10
122.7
 20
122.364
 10
122.705
 20
122.386
 10
122.709
 20
122.408
 10
122.713
 20
122.43
 10
122.715
 20
122.452
 10
122.716
 20
122.474
 10
122.715
 20
122.496
 10
122.714
 20
122.517
 10
122.711
 20
122.539
 10
122.707
 20
122.561
 10
122.702
 20
122.583
 10
122.695
 20
122.604
 10
122.687
 20
122.626
 10
122.677
 20
122.646
 10
122.665
 20
122.667
 10
122.652
 20
122.687
 10
122.637
 20
122.707
 10
122.62
 20
122.727
 10
122.602
 20
122.746
 10
122.584
 20
122.763
 10
122.567
 20
122.779
 10
122.549
 20
122.793
 10
122.531
 20
122.805
 10
122.514
 20
122.816
 10
122.496
 20
122.826
 10
122.479
 20
122.835
 10
122.461
 20
122.841
 10
122.444
 20
122.847
 10
122.426
 20
122.852
 10
122.409
 20
122.856
 10
122.392
 20
122.859
 10
122.374
 20
122.861
 10
122.357
 20
122.863
 10
122.34
 20
122.863
 10
122.323
 20
122.863
 10
122.306
 20
122.861
 10
122.289
 20
122.86
 10
122.272
 20
122.857
 10
122.255
 20
122.854
 10
122.238
 20
122.85
 10
122.222
 20
122.845
 10
122.205
 20
122.84
 10
122.189
 20
122.834
 10
122.173
 20
122.827
 10
122.157
 20
122.821
 10
122.141
 20
122.814
 10
122.125
 20
122.807
 10
122.11
 20
122.8
 10
122.095
 20
122.792
 10
122.079
 20
122.785
 10
122.064
 20
122.777
 10
122.049
 20
122.769
 10
122.034
 20
122.762
 10
122.019
 20
122.754
 10
122.004
 20
122.747
 10
121.989
 20
122.739
 10
121.974
 20
122.732
 10
121.96
 20
122.725
 10
121.946
 20
122.718
 10
121.932
 20
122.711
 10
121.918
 20
122.705
 10
121.904
 20
122.699
 10
121.891
 20
122.694
 10
121.877
 20
122.689
 10
121.864
 20
122.684
 10
121.852
 20
122.681
 10
121.839
 20
122.677
 10
121.826
 20
122.675
 10
121.814
 20
122.673
 10
121.802
 20
122.671
 10
121.79
 20
122.67
 10
121.778
 20
122.67
 10
121.767
 20
122.671
 10
121.755
 20
122.672
 10
121.744
 20
122.673
 10
121.733
 20
122.676
 10
121.722
 20
122.679
 10
121.711
 20
122.684
 10
121.701
 20
122.689
 10
121.69
 20
122.695
 10
121.68
 20
122.703
 10
121.67
 20
122.711
 10
121.66
 20
122.721
 10
121.65
 20
122.731
 10
121.641
 20
122.741
 10
121.633
 20
122.752
 10
121.626
 20
122.762
 10
121.62
 20
122.773
 10
121.615
 20
122.784
 10
121.611
 20
122.795
 10
121.608
 20
122.805
 10
121.605
 20
122.816
 10
121.603
 20
122.827
 10
121.602
 20
122.838
 10
121.601
 20
122.849
 10
121.601
 20
122.86
 10
121.601
 20
122.872
 10
121.603
 20
122.883
 10
121.604
 20
122.894
 10
121.606
 20
122.905
 10
121.609
 20
122.916
 10
121.612
 20
122.927
 10
121.616
 20
122.937
 10
121.621
 20
122.948
 10
121.625
 20
122.958
 10
121.631
 20
122.969
 10
121.637
 20
122.979
 10
121.643
 20
122.989
 10
121.649
 20
122.998
 10
121.656
 20
123.008
 10
121.663
 20
123.017
 10
121.67
 20
123.025
 10
121.677
 20
123.034
 10
121.685
 20
123.042
 10
121.693
 20
123.05
 10
121.708
 20
123.064
 10
121.724
 20
123.078
 10
121.742
 20
123.091
 10
121.76
 20
123.103
 10
121.779
 20
123.114
 10
121.8
 20
123.124
 10
121.821
 20
123.133
 10
121.843
 20
123.141
 10
121.866
 20
123.149
 10
121.889
 20
123.154
 10
121.911
 20
123.159
 10
121.934
 20
123.162
 10
121.956
 20
123.163
 10
121.978
 20
123.163
 10
122.0
 20
123.162
 10
122.022
 20
123.159
 10
122.031
 20
123.405
 10
121.998
 20
123.407
 10
121.966
 20
123.406
 10
121.933
 20
123.404
 10
121.901
 20
123.399
 10
121.868
 20
123.392
 10
121.836
 20
123.383
 10
121.803
 20
123.372
 10
121.771
 20
123.359
 10
121.739
 20
123.344
 10
121.708
 20
123.328
 10
121.678
 20
123.31
 10
121.65
 20
123.292
 10
121.622
 20
123.272
 10
121.595
 20
123.251
 10
121.569
 20
123.228
 10
121.544
 20
123.204
 10
121.526
 20
123.186
 10
121.509
 20
123.167
 10
121.493
 20
123.147
 10
121.477
 20
123.128
 10
121.463
 20
123.107
 10
121.449
 20
123.087
 10
121.436
 20
123.066
 10
121.424
 20
123.044
 10
121.413
 20
123.023
 10
121.403
 20
123.001
 10
121.394
 20
122.979
 10
121.386
 20
122.957
 10
121.38
 20
122.935
 10
121.375
 20
122.913
 10
121.37
 20
122.891
 10
121.367
 20
122.869
 10
121.365
 20
122.847
 10
121.365
 20
122.824
 10
121.366
 20
122.802
 10
121.367
 20
122.78
 10
121.371
 20
122.757
 10
121.375
 20
122.735
 10
121.381
 20
122.713
 10
121.388
 20
122.69
 10
121.396
 20
122.668
 10
121.406
 20
122.646
 10
121.418
 20
122.624
 10
121.431
 20
122.603
 10
121.445
 20
122.582
 10
121.462
 20
122.561
 10
121.479
 20
122.54
 10
121.499
 20
122.52
 10
121.517
 20
122.502
 10
121.536
 20
122.486
 10
121.554
 20
122.472
 10
121.573
 20
122.459
 10
121.592
 20
122.448
 10
121.611
 20
122.438
 10
121.63
 20
122.431
 10
121.649
 20
122.424
 10
121.669
 20
122.419
 10
121.688
 20
122.415
 10
121.707
 20
122.412
 10
121.726
 20
122.411
 10
121.745
 20
122.41
 10
121.764
 20
122.41
 10
121.783
 20
122.411
 10
121.802
 20
122.413
 10
121.821
 20
122.416
 10
121.84
 20
122.42
 10
121.858
 20
122.424
 10
121.877
 20
122.429
 10
121.895
 20
122.435
 10
121.913
 20
122.441
 10
121.931
 20
122.448
 10
121.949
 20
122.455
 10
121.967
 20
122.463
 10
121.984
 20
122.471
 10
122.002
 20
122.479
 10
122.019
 20
122.487
 10
122.035
 20
122.495
 10
122.052
 20
122.504
 10
122.068
 20
122.512
 10
122.084
 20
122.52
 10
122.098
 20
122.527
 10
122.111
 20
122.534
 10
122.125
 20
122.541
 10
122.138
 20
122.548
 10
122.15
 20
122.554
 10
122.163
 20
122.56
 10
122.175
 20
122.566
 10
122.188
 20
122.572
 10
122.199
 20
122.578
 10
122.211
 20
122.582
 10
122.223
 20
122.587
 10
122.234
 20
122.591
 10
122.245
 20
122.595
 10
122.256
 20
122.598
 10
122.267
 20
122.6
 10
122.277
 20
122.602
 10
122.288
 20
122.604
 10
122.298
 20
122.605
 10
122.308
 20
122.606
 10
122.318
 20
122.606
 10
122.328
 20
122.605
 10
122.338
 20
122.604
 10
122.348
 20
122.603
 10
122.357
 20
122.6
 10
122.367
 20
122.598
 10
122.376
 20
122.594
 10
122.385
 20
122.59
 10
122.394
 20
122.584
 10
122.403
 20
122.579
 10
122.412
 20
122.572
 10
122.421
 20
122.565
 10
122.429
 20
122.557
 10
122.438
 20
122.547
 10
122.446
 20
122.538
 10
122.453
 20
122.528
 10
122.459
 20
122.518
 10
122.465
 20
122.508
 10
122.469
 20
122.498
 10
122.473
 20
122.488
 10
122.476
 20
122.477
 10
122.478
 20
122.467
 10
122.48
 20
122.456
 10
122.481
 20
122.446
 10
122.481
 20
122.435
 10
122.481
 20
122.425
 10
122.48
 20
122.414
 10
122.479
 20
122.404
 10
122.477
 20
122.393
 10
122.474
 20
122.383
 10
122.471
 20
122.372
 10
122.468
 20
122.362
 10
122.464
 20
122.352
 10
122.46
 20
122.342
 10
122.455
 20
122.332
 10
122.45
 20
122.322
 10
122.444
 20
122.313
 10
122.438
 20
122.303
 10
122.432
 20
122.294
 10
122.426
 20
122.284
 10
122.419
 20
122.276
 10
122.412
 20
122.267
 10
122.405
 20
122.259
 10
122.397
 20
122.25
 10
122.39
 20
122.243
 10
122.376
 20
122.23
 10
122.362
 20
122.218
 10
122.347
 20
122.207
 10
122.331
 20
122.197
 10
122.315
 20
122.187
 10
122.298
 20
122.178
 10
122.28
 20
122.17
 10
122.261
 20
122.163
 10
122.242
 20
122.157
 10
122.224
 20
122.152
 10
122.205
 20
122.148
 10
122.188
 20
122.145
 10
122.17
 20
122.144
 10
122.153
 20
122.143
 10
122.136
 20
122.143
 10
122.12
 20
122.145
 97
0
 92
3
 72
0
 73
1
 93
9
 10
121.67
 20
121.588
 10
120.824
 20
122.433
 10
120.646
 20
122.255
 10
121.492
 20
121.41
 10
121.185
 20
121.103
 10
121.34
 20
120.947
 10
122.132
 20
121.739
 10
121.977
 20
121.895
 10
121.67
 20
121.588
 97
0
 92
3
 72
0
 73
1
 93
129
 10
120.775
 20
121.377
 10
120.745
 20
121.405
 10
120.715
 20
121.432
 10
120.684
 20
121.457
 10
120.652
 20
121.479
 10
120.62
 20
121.5
 10
120.588
 20
121.519
 10
120.554
 20
121.536
 10
120.52
 20
121.551
 10
120.486
 20
121.564
 10
120.451
 20
121.576
 10
120.417
 20
121.585
 10
120.382
 20
121.593
 10
120.347
 20
121.599
 10
120.312
 20
121.603
 10
120.277
 20
121.606
 10
120.242
 20
121.606
 10
120.206
 20
121.605
 10
120.171
 20
121.602
 10
120.136
 20
121.597
 10
120.101
 20
121.59
 10
120.066
 20
121.582
 10
120.032
 20
121.571
 10
119.997
 20
121.559
 10
119.963
 20
121.545
 10
119.929
 20
121.53
 10
119.896
 20
121.512
 10
119.863
 20
121.493
 10
119.831
 20
121.472
 10
119.8
 20
121.449
 10
119.769
 20
121.424
 10
119.739
 20
121.398
 10
119.71
 20
121.37
 10
119.681
 20
121.34
 10
119.655
 20
121.31
 10
119.63
 20
121.279
 10
119.607
 20
121.247
 10
119.585
 20
121.215
 10
119.566
 20
121.182
 10
119.548
 20
121.149
 10
119.532
 20
121.115
 10
119.518
 20
121.08
 10
119.506
 20
121.046
 10
119.495
 20
121.011
 10
119.487
 20
120.976
 10
119.48
 20
120.941
 10
119.475
 20
120.906
 10
119.472
 20
120.87
 10
119.47
 20
120.835
 10
119.471
 20
120.799
 10
119.473
 20
120.764
 10
119.477
 20
120.729
 10
119.483
 20
120.694
 10
119.49
 20
120.659
 10
119.5
 20
120.624
 10
119.511
 20
120.59
 10
119.525
 20
120.555
 10
119.54
 20
120.521
 10
119.557
 20
120.488
 10
119.576
 20
120.455
 10
119.596
 20
120.423
 10
119.619
 20
120.392
 10
119.644
 20
120.361
 10
119.67
 20
120.331
 10
119.699
 20
120.301
 10
119.729
 20
120.272
 10
119.76
 20
120.245
 10
119.791
 20
120.22
 10
119.823
 20
120.197
 10
119.855
 20
120.175
 10
119.888
 20
120.156
 10
119.922
 20
120.139
 10
119.956
 20
120.124
 10
119.99
 20
120.111
 10
120.025
 20
120.1
 10
120.059
 20
120.09
 10
120.094
 20
120.083
 10
120.128
 20
120.077
 10
120.163
 20
120.073
 10
120.198
 20
120.072
 10
120.233
 20
120.072
 10
120.268
 20
120.074
 10
120.303
 20
120.077
 10
120.338
 20
120.083
 10
120.372
 20
120.09
 10
120.406
 20
120.1
 10
120.441
 20
120.111
 10
120.475
 20
120.124
 10
120.509
 20
120.138
 10
120.543
 20
120.155
 10
120.576
 20
120.173
 10
120.608
 20
120.193
 10
120.64
 20
120.214
 10
120.671
 20
120.238
 10
120.702
 20
120.263
 10
120.732
 20
120.289
 10
120.762
 20
120.318
 10
120.79
 20
120.347
 10
120.817
 20
120.377
 10
120.841
 20
120.407
 10
120.864
 20
120.439
 10
120.886
 20
120.47
 10
120.905
 20
120.503
 10
120.923
 20
120.535
 10
120.939
 20
120.569
 10
120.954
 20
120.603
 10
120.967
 20
120.637
 10
120.977
 20
120.671
 10
120.987
 20
120.705
 10
120.994
 20
120.739
 10
120.999
 20
120.774
 10
121.003
 20
120.808
 10
121.005
 20
120.843
 10
121.004
 20
120.878
 10
121.003
 20
120.913
 10
120.999
 20
120.947
 10
120.993
 20
120.982
 10
120.985
 20
121.016
 10
120.976
 20
121.051
 10
120.965
 20
121.085
 10
120.952
 20
121.12
 10
120.936
 20
121.154
 10
120.919
 20
121.187
 10
120.9
 20
121.22
 10
120.879
 20
121.253
 10
120.856
 20
121.285
 10
120.831
 20
121.316
 10
120.804
 20
121.347
 10
120.775
 20
121.377
 97
0
 92
3
 72
0
 73
1
 93
129
 10
120.581
 20
121.183
 10
120.6
 20
121.164
 10
120.618
 20
121.144
 10
120.634
 20
121.123
 10
120.65
 20
121.102
 10
120.664
 20
121.081
 10
120.677
 20
121.059
 10
120.689
 20
121.037
 10
120.7
 20
121.014
 10
120.71
 20
120.991
 10
120.719
 20
120.968
 10
120.727
 20
120.945
 10
120.733
 20
120.922
 10
120.738
 20
120.899
 10
120.742
 20
120.876
 10
120.745
 20
120.852
 10
120.746
 20
120.828
 10
120.747
 20
120.805
 10
120.746
 20
120.781
 10
120.744
 20
120.758
 10
120.741
 20
120.734
 10
120.737
 20
120.711
 10
120.731
 20
120.688
 10
120.724
 20
120.665
 10
120.716
 20
120.642
 10
120.707
 20
120.62
 10
120.696
 20
120.598
 10
120.684
 20
120.576
 10
120.671
 20
120.555
 10
120.656
 20
120.534
 10
120.64
 20
120.513
 10
120.622
 20
120.493
 10
120.604
 20
120.473
 10
120.584
 20
120.455
 10
120.564
 20
120.437
 10
120.543
 20
120.421
 10
120.522
 20
120.406
 10
120.501
 20
120.393
 10
120.479
 20
120.381
 10
120.457
 20
120.37
 10
120.434
 20
120.36
 10
120.411
 20
120.352
 10
120.388
 20
120.345
 10
120.365
 20
120.339
 10
120.341
 20
120.335
 10
120.318
 20
120.332
 10
120.294
 20
120.329
 10
120.271
 20
120.329
 10
120.247
 20
120.329
 10
120.224
 20
120.331
 10
120.2
 20
120.334
 10
120.177
 20
120.338
 10
120.153
 20
120.343
 10
120.13
 20
120.349
 10
120.107
 20
120.357
 10
120.084
 20
120.365
 10
120.061
 20
120.375
 10
120.039
 20
120.386
 10
120.016
 20
120.398
 10
119.995
 20
120.411
 10
119.973
 20
120.426
 10
119.952
 20
120.441
 10
119.932
 20
120.458
 10
119.912
 20
120.476
 10
119.892
 20
120.495
 10
119.873
 20
120.515
 10
119.854
 20
120.536
 10
119.837
 20
120.557
 10
119.821
 20
120.578
 10
119.806
 20
120.6
 10
119.793
 20
120.622
 10
119.78
 20
120.644
 10
119.769
 20
120.667
 10
119.759
 20
120.69
 10
119.75
 20
120.713
 10
119.743
 20
120.737
 10
119.737
 20
120.76
 10
119.731
 20
120.783
 10
119.727
 20
120.807
 10
119.725
 20
120.831
 10
119.723
 20
120.855
 10
119.723
 20
120.878
 10
119.724
 20
120.902
 10
119.726
 20
120.926
 10
119.73
 20
120.949
 10
119.734
 20
120.972
 10
119.74
 20
120.995
 10
119.747
 20
121.018
 10
119.756
 20
121.041
 10
119.765
 20
121.064
 10
119.776
 20
121.086
 10
119.789
 20
121.108
 10
119.802
 20
121.129
 10
119.817
 20
121.149
 10
119.833
 20
121.17
 10
119.85
 20
121.189
 10
119.868
 20
121.209
 10
119.888
 20
121.227
 10
119.907
 20
121.244
 10
119.927
 20
121.26
 10
119.948
 20
121.275
 10
119.969
 20
121.288
 10
119.991
 20
121.3
 10
120.013
 20
121.311
 10
120.035
 20
121.32
 10
120.058
 20
121.329
 10
120.081
 20
121.336
 10
120.104
 20
121.342
 10
120.127
 20
121.346
 10
120.15
 20
121.349
 10
120.174
 20
121.352
 10
120.197
 20
121.353
 10
120.221
 20
121.352
 10
120.245
 20
121.351
 10
120.269
 20
121.348
 10
120.292
 20
121.344
 10
120.316
 20
121.339
 10
120.339
 20
121.333
 10
120.362
 20
121.325
 10
120.385
 20
121.316
 10
120.408
 20
121.306
 10
120.431
 20
121.295
 10
120.454
 20
121.283
 10
120.476
 20
121.269
 10
120.498
 20
121.254
 10
120.519
 20
121.238
 10
120.54
 20
121.221
 10
120.561
 20
121.203
 10
120.581
 20
121.183
 97
0
 92
3
 72
0
 73
1
 93
57
 10
120.024
 20
119.631
 10
119.023
 20
120.632
 10
118.844
 20
120.454
 10
119.269
 20
120.029
 10
119.138
 20
119.899
 10
118.482
 20
120.092
 10
118.267
 20
119.877
 10
118.979
 20
119.7
 10
118.96
 20
119.667
 10
118.943
 20
119.635
 10
118.93
 20
119.602
 10
118.919
 20
119.57
 10
118.911
 20
119.537
 10
118.906
 20
119.505
 10
118.903
 20
119.472
 10
118.904
 20
119.44
 10
118.907
 20
119.407
 10
118.914
 20
119.376
 10
118.923
 20
119.345
 10
118.936
 20
119.315
 10
118.952
 20
119.285
 10
118.972
 20
119.256
 10
118.994
 20
119.228
 10
119.02
 20
119.201
 10
119.04
 20
119.182
 10
119.06
 20
119.164
 10
119.08
 20
119.149
 10
119.101
 20
119.135
 10
119.121
 20
119.123
 10
119.142
 20
119.113
 10
119.164
 20
119.104
 10
119.185
 20
119.097
 10
119.207
 20
119.092
 10
119.228
 20
119.088
 10
119.25
 20
119.085
 10
119.271
 20
119.084
 10
119.293
 20
119.084
 10
119.314
 20
119.085
 10
119.336
 20
119.087
 10
119.357
 20
119.091
 10
119.378
 20
119.096
 10
119.4
 20
119.102
 10
119.421
 20
119.109
 10
119.441
 20
119.117
 10
119.462
 20
119.126
 10
119.483
 20
119.137
 10
119.503
 20
119.148
 10
119.524
 20
119.16
 10
119.544
 20
119.173
 10
119.564
 20
119.187
 10
119.583
 20
119.202
 10
119.603
 20
119.217
 10
119.621
 20
119.232
 10
119.64
 20
119.248
 10
119.658
 20
119.265
 10
119.676
 20
119.283
 10
120.024
 20
119.631
 97
0
 92
3
 72
0
 73
1
 93
68
 10
119.269
 20
119.738
 10
119.414
 20
119.884
 10
119.696
 20
119.602
 10
119.534
 20
119.441
 10
119.526
 20
119.433
 10
119.517
 20
119.424
 10
119.508
 20
119.416
 10
119.499
 20
119.408
 10
119.489
 20
119.4
 10
119.479
 20
119.392
 10
119.469
 20
119.384
 10
119.459
 20
119.377
 10
119.448
 20
119.369
 10
119.438
 20
119.363
 10
119.427
 20
119.356
 10
119.417
 20
119.351
 10
119.406
 20
119.346
 10
119.395
 20
119.341
 10
119.384
 20
119.337
 10
119.373
 20
119.334
 10
119.362
 20
119.331
 10
119.351
 20
119.328
 10
119.34
 20
119.327
 10
119.329
 20
119.326
 10
119.318
 20
119.326
 10
119.307
 20
119.326
 10
119.296
 20
119.327
 10
119.285
 20
119.329
 10
119.274
 20
119.331
 10
119.263
 20
119.335
 10
119.252
 20
119.339
 10
119.241
 20
119.345
 10
119.231
 20
119.351
 10
119.22
 20
119.359
 10
119.21
 20
119.368
 10
119.199
 20
119.377
 10
119.189
 20
119.389
 10
119.179
 20
119.4
 10
119.17
 20
119.412
 10
119.163
 20
119.424
 10
119.157
 20
119.435
 10
119.152
 20
119.447
 10
119.148
 20
119.459
 10
119.145
 20
119.471
 10
119.143
 20
119.484
 10
119.142
 20
119.496
 10
119.141
 20
119.508
 10
119.142
 20
119.519
 10
119.143
 20
119.531
 10
119.145
 20
119.543
 10
119.147
 20
119.555
 10
119.151
 20
119.566
 10
119.155
 20
119.578
 10
119.159
 20
119.589
 10
119.164
 20
119.6
 10
119.17
 20
119.612
 10
119.176
 20
119.623
 10
119.183
 20
119.634
 10
119.19
 20
119.645
 10
119.198
 20
119.656
 10
119.206
 20
119.667
 10
119.215
 20
119.678
 10
119.223
 20
119.688
 10
119.232
 20
119.698
 10
119.241
 20
119.709
 10
119.25
 20
119.719
 10
119.259
 20
119.728
 10
119.269
 20
119.738
 97
0
 92
3
 72
0
 73
1
 93
17
 10
119.134
 20
118.741
 10
118.133
 20
119.742
 10
117.963
 20
119.573
 10
118.768
 20
118.768
 10
118.765
 20
118.765
 10
117.661
 20
119.27
 10
117.536
 20
119.145
 10
118.037
 20
118.037
 10
118.034
 20
118.034
 10
117.229
 20
118.839
 10
117.053
 20
118.662
 10
118.054
 20
117.661
 10
118.334
 20
117.941
 10
117.88
 20
118.909
 10
117.884
 20
118.914
 10
118.856
 20
118.462
 10
119.134
 20
118.741
 97
0
 75
0
 76
1
 98
0
  0
HATCH
  5
5E
330
17
100
AcDbEntity
  8
RASTER
 62
7
100
AcDbHatch
 10
0.0
 20
0.0
 30
0.0
210
0.0
220
0.0
230
1.0
  2
SOLID
 70
1
 71
0
 91
9
 92
3
 72
0
 73
1
 93
50
 10
160.079
 20
126.236
 10
160.425
 20
125.981
 10
160.767
 20
125.722
 10
161.106
 20
125.458
 10
161.442
 20
125.19
 10
161.774
 20
124.918
 10
162.102
 20
124.641
 10
162.427
 20
124.36
 10
162.747
 20
124.075
 10
163.065
 20
123.786
 10
163.378
 20
123.492
 10
163.688
 20
123.195
 10
163.993
 20
122.893
 10
164.295
 20
122.588
 10
164.592
 20
122.278
 10
164.886
 20
121.965
 10
165.175
 20
121.647
 10
165.46
 20
121.327
 10
165.741
 20
121.002
 10
166.018
 20
120.674
 10
166.29
 20
120.342
 10
166.558
 20
120.006
 10
166.822
 20
119.667
 10
167.081
 20
119.325
 10
167.336
 20
118.979
 10
145.007
 20
102.756
 10
144.967
 20
102.811
 10
144.925
 20
102.866
 10
144.884
 20
102.919
 10
144.841
 20
102.972
 10
144.798
 20
103.025
 10
144.754
 20
103.077
 10
144.71
 20
103.129
 10
144.664
 20
103.179
 10
144.618
 20
103.23
 10
144.572
 20
103.279
 10
144.525
 20
103.329
 10
144.477
 20
103.377
 10
144.429
 20
103.425
 10
144.379
 20
103.472
 10
144.33
 20
103.518
 10
144.279
 20
103.564
 10
144.229
 20
103.61
 10
144.177
 20
103.654
 10
144.125
 20
103.698
 10
144.072
 20
103.741
 10
144.019
 20
103.784
 10
143.966
 20
103.825
 10
143.911
 20
103.867
 10
143.856
 20
103.907
 97
0
 92
3
 72
0
 73
1
 93
56
 10
159.344
 20
118.166
 10
158.919
 20
118.355
 10
158.367
 20
118.427
 10
158.207
 20
118.616
 10
158.016
 20
118.763
 10
157.782
 20
118.856
 10
157.644
 20
118.877
 10
157.336
 20
118.854
 10
156.911
 20
118.667
 10
156.518
 20
118.803
 10
156.104
 20
118.812
 10
155.859
 20
118.741
 10
155.572
 20
118.574
 10
155.286
 20
118.287
 10
155.145
 20
118.053
 10
155.05
 20
117.734
 10
155.075
 20
117.235
 10
155.198
 20
116.927
 10
155.349
 20
116.714
 10
156.293
 20
115.747
 10
156.21
 20
115.648
 10
155.479
 20
115.227
 10
155.464
 20
115.174
 10
155.498
 20
115.135
 10
155.881
 20
114.995
 10
155.972
 20
114.887
 10
155.902
 20
114.819
 10
155.424
 20
114.636
 10
155.388
 20
114.56
 10
155.434
 20
114.538
 10
157.049
 20
114.649
 10
157.107
 20
114.696
 10
157.092
 20
114.757
 10
156.752
 20
114.925
 10
156.609
 20
115.036
 10
156.635
 20
115.108
 10
156.816
 20
115.167
 10
156.89
 20
115.131
 10
157.591
 20
114.409
 10
157.878
 20
114.19
 10
158.292
 20
114.013
 10
158.696
 20
113.982
 10
158.951
 20
114.013
 10
159.27
 20
114.139
 10
159.557
 20
114.356
 10
159.782
 20
114.664
 10
159.922
 20
115.142
 10
159.895
 20
115.577
 10
159.729
 20
116.013
 10
159.869
 20
116.236
 10
159.984
 20
116.534
 10
160.022
 20
116.842
 10
160.014
 20
117.15
 10
159.922
 20
117.469
 10
159.776
 20
117.745
 10
159.344
 20
118.166
 97
0
 92
3
 72
0
 73
1
 93
323
 10
163.245
 20
118.38
 10
163.002
 20
118.369
 10
163.004
 20
118.341
 10
163.007
 20
118.314
 10
163.012
 20
118.286
 10
163.018
 20
118.259
 10
163.026
 20
118.232
 10
163.035
 20
118.205
 10
163.045
 20
118.178
 10
163.058
 20
118.152
 10
163.071
 20
118.126
 10
163.085
 20
118.101
 10
163.1
 20
118.077
 10
163.115
 20
118.054
 10
163.132
 20
118.032
 10
163.149
 20
118.01
 10
163.167
 20
117.99
 10
163.186
 20
117.97
 10
163.203
 20
117.954
 10
163.22
 20
117.938
 10
163.239
 20
117.922
 10
163.257
 20
117.907
 10
163.277
 20
117.893
 10
163.296
 20
117.88
 10
163.316
 20
117.867
 10
163.337
 20
117.854
 10
163.358
 20
117.843
 10
163.379
 20
117.832
 10
163.4
 20
117.823
 10
163.421
 20
117.814
 10
163.443
 20
117.807
 10
163.464
 20
117.8
 10
163.486
 20
117.795
 10
163.508
 20
117.791
 10
163.53
 20
117.787
 10
163.552
 20
117.785
 10
163.574
 20
117.784
 10
163.596
 20
117.785
 10
163.617
 20
117.786
 10
163.639
 20
117.789
 10
163.661
 20
117.793
 10
163.683
 20
117.798
 10
163.704
 20
117.805
 10
163.726
 20
117.813
 10
163.746
 20
117.823
 10
163.767
 20
117.835
 10
163.787
 20
117.848
 10
163.807
 20
117.863
 10
163.827
 20
117.88
 10
163.846
 20
117.898
 10
163.863
 20
117.916
 10
163.879
 20
117.933
 10
163.893
 20
117.951
 10
163.905
 20
117.969
 10
163.916
 20
117.986
 10
163.926
 20
118.004
 10
163.935
 20
118.021
 10
163.941
 20
118.039
 10
163.947
 20
118.056
 10
163.952
 20
118.074
 10
163.956
 20
118.091
 10
163.959
 20
118.108
 10
163.961
 20
118.126
 10
163.963
 20
118.143
 10
163.963
 20
118.16
 10
163.963
 20
118.177
 10
163.961
 20
118.194
 10
163.96
 20
118.211
 10
163.957
 20
118.228
 10
163.954
 20
118.245
 10
163.95
 20
118.262
 10
163.945
 20
118.278
 10
163.94
 20
118.295
 10
163.934
 20
118.311
 10
163.927
 20
118.327
 10
163.921
 20
118.343
 10
163.914
 20
118.359
 10
163.907
 20
118.375
 10
163.9
 20
118.39
 10
163.892
 20
118.405
 10
163.885
 20
118.421
 10
163.877
 20
118.436
 10
163.869
 20
118.451
 10
163.862
 20
118.466
 10
163.854
 20
118.481
 10
163.847
 20
118.496
 10
163.839
 20
118.511
 10
163.832
 20
118.526
 10
163.825
 20
118.54
 10
163.818
 20
118.554
 10
163.811
 20
118.568
 10
163.805
 20
118.582
 10
163.799
 20
118.596
 10
163.794
 20
118.609
 10
163.789
 20
118.623
 10
163.784
 20
118.636
 10
163.781
 20
118.648
 10
163.777
 20
118.661
 10
163.775
 20
118.674
 10
163.773
 20
118.686
 10
163.771
 20
118.698
 10
163.77
 20
118.71
 10
163.77
 20
118.722
 10
163.771
 20
118.733
 10
163.772
 20
118.745
 10
163.773
 20
118.756
 10
163.776
 20
118.767
 10
163.779
 20
118.778
 10
163.784
 20
118.789
 10
163.789
 20
118.799
 10
163.795
 20
118.81
 10
163.803
 20
118.82
 10
163.811
 20
118.83
 10
163.821
 20
118.84
 10
163.831
 20
118.85
 10
163.841
 20
118.859
 10
163.852
 20
118.867
 10
163.862
 20
118.874
 10
163.873
 20
118.88
 10
163.884
 20
118.885
 10
163.895
 20
118.889
 10
163.905
 20
118.892
 10
163.916
 20
118.895
 10
163.927
 20
118.897
 10
163.938
 20
118.898
 10
163.949
 20
118.899
 10
163.96
 20
118.899
 10
163.972
 20
118.899
 10
163.983
 20
118.897
 10
163.994
 20
118.896
 10
164.005
 20
118.894
 10
164.016
 20
118.891
 10
164.027
 20
118.888
 10
164.037
 20
118.884
 10
164.048
 20
118.879
 10
164.058
 20
118.875
 10
164.069
 20
118.869
 10
164.079
 20
118.863
 10
164.089
 20
118.857
 10
164.098
 20
118.851
 10
164.108
 20
118.844
 10
164.117
 20
118.837
 10
164.125
 20
118.83
 10
164.134
 20
118.823
 10
164.142
 20
118.815
 10
164.15
 20
118.807
 10
164.164
 20
118.792
 10
164.178
 20
118.776
 10
164.191
 20
118.758
 10
164.203
 20
118.74
 10
164.214
 20
118.721
 10
164.224
 20
118.7
 10
164.233
 20
118.679
 10
164.241
 20
118.657
 10
164.249
 20
118.634
 10
164.254
 20
118.611
 10
164.259
 20
118.589
 10
164.262
 20
118.566
 10
164.263
 20
118.544
 10
164.263
 20
118.522
 10
164.262
 20
118.5
 10
164.259
 20
118.478
 10
164.505
 20
118.469
 10
164.507
 20
118.502
 10
164.506
 20
118.534
 10
164.504
 20
118.567
 10
164.499
 20
118.599
 10
164.492
 20
118.632
 10
164.483
 20
118.664
 10
164.472
 20
118.697
 10
164.459
 20
118.729
 10
164.444
 20
118.761
 10
164.428
 20
118.792
 10
164.41
 20
118.822
 10
164.392
 20
118.85
 10
164.372
 20
118.878
 10
164.351
 20
118.905
 10
164.328
 20
118.931
 10
164.304
 20
118.956
 10
164.286
 20
118.974
 10
164.267
 20
118.991
 10
164.247
 20
119.007
 10
164.228
 20
119.023
 10
164.207
 20
119.037
 10
164.187
 20
119.051
 10
164.166
 20
119.064
 10
164.144
 20
119.076
 10
164.123
 20
119.087
 10
164.101
 20
119.097
 10
164.079
 20
119.106
 10
164.057
 20
119.114
 10
164.035
 20
119.12
 10
164.013
 20
119.125
 10
163.991
 20
119.13
 10
163.969
 20
119.133
 10
163.947
 20
119.135
 10
163.924
 20
119.135
 10
163.902
 20
119.134
 10
163.88
 20
119.133
 10
163.857
 20
119.129
 10
163.835
 20
119.125
 10
163.813
 20
119.119
 10
163.79
 20
119.112
 10
163.768
 20
119.104
 10
163.746
 20
119.094
 10
163.724
 20
119.082
 10
163.703
 20
119.069
 10
163.682
 20
119.055
 10
163.661
 20
119.038
 10
163.64
 20
119.021
 10
163.62
 20
119.001
 10
163.602
 20
118.983
 10
163.586
 20
118.964
 10
163.572
 20
118.946
 10
163.559
 20
118.927
 10
163.548
 20
118.908
 10
163.538
 20
118.889
 10
163.531
 20
118.87
 10
163.524
 20
118.851
 10
163.519
 20
118.831
 10
163.515
 20
118.812
 10
163.512
 20
118.793
 10
163.511
 20
118.774
 10
163.51
 20
118.755
 10
163.51
 20
118.736
 10
163.511
 20
118.717
 10
163.513
 20
118.698
 10
163.516
 20
118.679
 10
163.52
 20
118.66
 10
163.524
 20
118.642
 10
163.529
 20
118.623
 10
163.535
 20
118.605
 10
163.541
 20
118.587
 10
163.548
 20
118.569
 10
163.555
 20
118.551
 10
163.563
 20
118.533
 10
163.571
 20
118.516
 10
163.579
 20
118.498
 10
163.587
 20
118.481
 10
163.595
 20
118.465
 10
163.604
 20
118.448
 10
163.612
 20
118.432
 10
163.62
 20
118.416
 10
163.627
 20
118.402
 10
163.634
 20
118.389
 10
163.641
 20
118.375
 10
163.648
 20
118.362
 10
163.654
 20
118.35
 10
163.66
 20
118.337
 10
163.666
 20
118.325
 10
163.672
 20
118.312
 10
163.678
 20
118.301
 10
163.682
 20
118.289
 10
163.687
 20
118.277
 10
163.691
 20
118.266
 10
163.695
 20
118.255
 10
163.698
 20
118.244
 10
163.7
 20
118.233
 10
163.702
 20
118.223
 10
163.704
 20
118.212
 10
163.705
 20
118.202
 10
163.706
 20
118.192
 10
163.706
 20
118.182
 10
163.705
 20
118.172
 10
163.704
 20
118.162
 10
163.703
 20
118.152
 10
163.7
 20
118.143
 10
163.698
 20
118.133
 10
163.694
 20
118.124
 10
163.69
 20
118.115
 10
163.684
 20
118.106
 10
163.679
 20
118.097
 10
163.672
 20
118.088
 10
163.665
 20
118.079
 10
163.657
 20
118.071
 10
163.647
 20
118.062
 10
163.638
 20
118.054
 10
163.628
 20
118.047
 10
163.618
 20
118.041
 10
163.608
 20
118.035
 10
163.598
 20
118.031
 10
163.588
 20
118.027
 10
163.577
 20
118.024
 10
163.567
 20
118.022
 10
163.556
 20
118.02
 10
163.546
 20
118.019
 10
163.535
 20
118.019
 10
163.525
 20
118.019
 10
163.514
 20
118.02
 10
163.504
 20
118.021
 10
163.493
 20
118.023
 10
163.483
 20
118.026
 10
163.472
 20
118.029
 10
163.462
 20
118.032
 10
163.452
 20
118.036
 10
163.442
 20
118.04
 10
163.432
 20
118.045
 10
163.422
 20
118.05
 10
163.413
 20
118.056
 10
163.403
 20
118.062
 10
163.394
 20
118.068
 10
163.384
 20
118.074
 10
163.376
 20
118.081
 10
163.367
 20
118.088
 10
163.359
 20
118.095
 10
163.35
 20
118.103
 10
163.343
 20
118.11
 10
163.33
 20
118.124
 10
163.318
 20
118.138
 10
163.307
 20
118.153
 10
163.297
 20
118.169
 10
163.287
 20
118.185
 10
163.278
 20
118.202
 10
163.27
 20
118.22
 10
163.263
 20
118.239
 10
163.257
 20
118.258
 10
163.252
 20
118.276
 10
163.248
 20
118.295
 10
163.245
 20
118.312
 10
163.244
 20
118.33
 10
163.243
 20
118.347
 10
163.243
 20
118.364
 10
163.245
 20
118.38
 97
0
 92
3
 72
0
 73
1
 93
9
 10
162.688
 20
118.83
 10
163.533
 20
119.676
 10
163.355
 20
119.854
 10
162.51
 20
119.008
 10
162.203
 20
119.315
 10
162.047
 20
119.16
 10
162.839
 20
118.368
 10
162.995
 20
118.523
 10
162.688
 20
118.83
 97
0
 92
3
 72
0
 73
1
 93
129
 10
162.477
 20
119.725
 10
162.505
 20
119.755
 10
162.532
 20
119.785
 10
162.557
 20
119.816
 10
162.579
 20
119.848
 10
162.6
 20
119.88
 10
162.619
 20
119.912
 10
162.636
 20
119.946
 10
162.651
 20
119.98
 10
162.664
 20
120.014
 10
162.676
 20
120.049
 10
162.685
 20
120.083
 10
162.693
 20
120.118
 10
162.699
 20
120.153
 10
162.703
 20
120.188
 10
162.706
 20
120.223
 10
162.706
 20
120.258
 10
162.705
 20
120.294
 10
162.702
 20
120.329
 10
162.697
 20
120.364
 10
162.69
 20
120.399
 10
162.682
 20
120.434
 10
162.671
 20
120.468
 10
162.659
 20
120.503
 10
162.645
 20
120.537
 10
162.63
 20
120.571
 10
162.612
 20
120.604
 10
162.593
 20
120.637
 10
162.572
 20
120.669
 10
162.549
 20
120.7
 10
162.524
 20
120.731
 10
162.498
 20
120.761
 10
162.47
 20
120.79
 10
162.44
 20
120.819
 10
162.41
 20
120.845
 10
162.379
 20
120.87
 10
162.347
 20
120.893
 10
162.315
 20
120.915
 10
162.282
 20
120.934
 10
162.249
 20
120.952
 10
162.215
 20
120.968
 10
162.18
 20
120.982
 10
162.146
 20
120.994
 10
162.111
 20
121.005
 10
162.076
 20
121.013
 10
162.041
 20
121.02
 10
162.006
 20
121.025
 10
161.97
 20
121.028
 10
161.935
 20
121.03
 10
161.899
 20
121.029
 10
161.864
 20
121.027
 10
161.829
 20
121.023
 10
161.794
 20
121.017
 10
161.759
 20
121.01
 10
161.724
 20
121.0
 10
161.69
 20
120.989
 10
161.655
 20
120.975
 10
161.621
 20
120.96
 10
161.588
 20
120.943
 10
161.555
 20
120.924
 10
161.523
 20
120.904
 10
161.492
 20
120.881
 10
161.461
 20
120.856
 10
161.431
 20
120.83
 10
161.401
 20
120.801
 10
161.372
 20
120.771
 10
161.345
 20
120.74
 10
161.32
 20
120.709
 10
161.297
 20
120.677
 10
161.275
 20
120.645
 10
161.256
 20
120.612
 10
161.239
 20
120.578
 10
161.224
 20
120.544
 10
161.211
 20
120.51
 10
161.2
 20
120.475
 10
161.19
 20
120.441
 10
161.183
 20
120.406
 10
161.177
 20
120.372
 10
161.173
 20
120.337
 10
161.172
 20
120.302
 10
161.172
 20
120.267
 10
161.174
 20
120.232
 10
161.177
 20
120.197
 10
161.183
 20
120.162
 10
161.19
 20
120.128
 10
161.2
 20
120.094
 10
161.211
 20
120.059
 10
161.224
 20
120.025
 10
161.238
 20
119.991
 10
161.255
 20
119.957
 10
161.273
 20
119.924
 10
161.293
 20
119.892
 10
161.314
 20
119.86
 10
161.338
 20
119.829
 10
161.363
 20
119.798
 10
161.389
 20
119.768
 10
161.418
 20
119.738
 10
161.447
 20
119.71
 10
161.477
 20
119.683
 10
161.507
 20
119.659
 10
161.539
 20
119.636
 10
161.57
 20
119.614
 10
161.603
 20
119.595
 10
161.635
 20
119.577
 10
161.669
 20
119.561
 10
161.703
 20
119.546
 10
161.737
 20
119.533
 10
161.771
 20
119.523
 10
161.805
 20
119.513
 10
161.839
 20
119.506
 10
161.874
 20
119.501
 10
161.908
 20
119.497
 10
161.943
 20
119.495
 10
161.978
 20
119.496
 10
162.013
 20
119.497
 10
162.047
 20
119.501
 10
162.082
 20
119.507
 10
162.116
 20
119.515
 10
162.151
 20
119.524
 10
162.185
 20
119.535
 10
162.22
 20
119.548
 10
162.254
 20
119.564
 10
162.287
 20
119.581
 10
162.32
 20
119.6
 10
162.353
 20
119.621
 10
162.385
 20
119.644
 10
162.416
 20
119.669
 10
162.447
 20
119.696
 10
162.477
 20
119.725
 97
0
 92
3
 72
0
 73
1
 93
129
 10
162.283
 20
119.919
 10
162.264
 20
119.9
 10
162.244
 20
119.882
 10
162.223
 20
119.866
 10
162.202
 20
119.85
 10
162.181
 20
119.836
 10
162.159
 20
119.823
 10
162.137
 20
119.811
 10
162.114
 20
119.8
 10
162.091
 20
119.79
 10
162.068
 20
119.781
 10
162.045
 20
119.773
 10
162.022
 20
119.767
 10
161.999
 20
119.762
 10
161.976
 20
119.758
 10
161.952
 20
119.755
 10
161.928
 20
119.754
 10
161.905
 20
119.753
 10
161.881
 20
119.754
 10
161.858
 20
119.756
 10
161.834
 20
119.759
 10
161.811
 20
119.763
 10
161.788
 20
119.769
 10
161.765
 20
119.776
 10
161.742
 20
119.784
 10
161.72
 20
119.793
 10
161.698
 20
119.804
 10
161.676
 20
119.816
 10
161.655
 20
119.829
 10
161.634
 20
119.844
 10
161.613
 20
119.86
 10
161.593
 20
119.878
 10
161.573
 20
119.896
 10
161.555
 20
119.916
 10
161.537
 20
119.936
 10
161.521
 20
119.957
 10
161.506
 20
119.978
 10
161.493
 20
119.999
 10
161.481
 20
120.021
 10
161.47
 20
120.043
 10
161.46
 20
120.066
 10
161.452
 20
120.089
 10
161.445
 20
120.112
 10
161.439
 20
120.135
 10
161.435
 20
120.159
 10
161.432
 20
120.182
 10
161.429
 20
120.206
 10
161.429
 20
120.229
 10
161.429
 20
120.253
 10
161.431
 20
120.276
 10
161.434
 20
120.3
 10
161.438
 20
120.323
 10
161.443
 20
120.347
 10
161.449
 20
120.37
 10
161.457
 20
120.393
 10
161.465
 20
120.416
 10
161.475
 20
120.439
 10
161.486
 20
120.461
 10
161.498
 20
120.484
 10
161.511
 20
120.505
 10
161.526
 20
120.527
 10
161.541
 20
120.548
 10
161.558
 20
120.568
 10
161.576
 20
120.588
 10
161.595
 20
120.608
 10
161.615
 20
120.627
 10
161.636
 20
120.646
 10
161.657
 20
120.663
 10
161.678
 20
120.679
 10
161.7
 20
120.694
 10
161.722
 20
120.707
 10
161.744
 20
120.72
 10
161.767
 20
120.731
 10
161.79
 20
120.741
 10
161.813
 20
120.75
 10
161.837
 20
120.757
 10
161.86
 20
120.763
 10
161.883
 20
120.769
 10
161.907
 20
120.773
 10
161.931
 20
120.775
 10
161.955
 20
120.777
 10
161.978
 20
120.777
 10
162.002
 20
120.776
 10
162.026
 20
120.774
 10
162.049
 20
120.77
 10
162.072
 20
120.766
 10
162.095
 20
120.76
 10
162.118
 20
120.753
 10
162.141
 20
120.744
 10
162.164
 20
120.735
 10
162.186
 20
120.724
 10
162.208
 20
120.711
 10
162.229
 20
120.698
 10
162.249
 20
120.683
 10
162.27
 20
120.667
 10
162.289
 20
120.65
 10
162.309
 20
120.632
 10
162.327
 20
120.612
 10
162.344
 20
120.593
 10
162.36
 20
120.573
 10
162.375
 20
120.552
 10
162.388
 20
120.531
 10
162.4
 20
120.509
 10
162.411
 20
120.487
 10
162.42
 20
120.465
 10
162.429
 20
120.442
 10
162.436
 20
120.419
 10
162.442
 20
120.396
 10
162.446
 20
120.373
 10
162.449
 20
120.35
 10
162.452
 20
120.326
 10
162.453
 20
120.303
 10
162.452
 20
120.279
 10
162.451
 20
120.255
 10
162.448
 20
120.231
 10
162.444
 20
120.208
 10
162.439
 20
120.184
 10
162.433
 20
120.161
 10
162.425
 20
120.138
 10
162.416
 20
120.115
 10
162.406
 20
120.092
 10
162.395
 20
120.069
 10
162.383
 20
120.046
 10
162.369
 20
120.024
 10
162.354
 20
120.002
 10
162.338
 20
119.981
 10
162.321
 20
119.96
 10
162.303
 20
119.939
 10
162.283
 20
119.919
 97
0
 92
3
 72
0
 73
1
 93
57
 10
160.731
 20
120.476
 10
161.732
 20
121.477
 10
161.554
 20
121.656
 10
161.129
 20
121.231
 10
160.999
 20
121.362
 10
161.192
 20
122.018
 10
160.977
 20
122.233
 10
160.8
 20
121.521
 10
160.767
 20
121.54
 10
160.735
 20
121.557
 10
160.702
 20
121.57
 10
160.67
 20
121.581
 10
160.637
 20
121.589
 10
160.605
 20
121.594
 10
160.572
 20
121.597
 10
160.54
 20
121.596
 10
160.507
 20
121.593
 10
160.476
 20
121.586
 10
160.445
 20
121.577
 10
160.415
 20
121.564
 10
160.385
 20
121.548
 10
160.356
 20
121.528
 10
160.328
 20
121.506
 10
160.301
 20
121.48
 10
160.282
 20
121.46
 10
160.264
 20
121.44
 10
160.249
 20
121.42
 10
160.235
 20
121.399
 10
160.223
 20
121.379
 10
160.213
 20
121.358
 10
160.204
 20
121.336
 10
160.197
 20
121.315
 10
160.192
 20
121.293
 10
160.188
 20
121.272
 10
160.185
 20
121.25
 10
160.184
 20
121.229
 10
160.184
 20
121.207
 10
160.185
 20
121.186
 10
160.187
 20
121.164
 10
160.191
 20
121.143
 10
160.196
 20
121.122
 10
160.202
 20
121.1
 10
160.209
 20
121.079
 10
160.217
 20
121.059
 10
160.226
 20
121.038
 10
160.237
 20
121.017
 10
160.248
 20
120.997
 10
160.26
 20
120.976
 10
160.273
 20
120.956
 10
160.287
 20
120.936
 10
160.302
 20
120.917
 10
160.317
 20
120.897
 10
160.332
 20
120.879
 10
160.348
 20
120.86
 10
160.365
 20
120.842
 10
160.383
 20
120.824
 10
160.731
 20
120.476
 97
0
 92
3
 72
0
 73
1
 93
68
 10
160.838
 20
121.231
 10
160.984
 20
121.086
 10
160.702
 20
120.804
 10
160.541
 20
120.966
 10
160.533
 20
120.974
 10
160.524
 20
120.983
 10
160.516
 20
120.992
 10
160.508
 20
121.001
 10
160.5
 20
121.011
 10
160.492
 20
121.021
 10
160.484
 20
121.031
 10
160.477
 20
121.041
 10
160.469
 20
121.052
 10
160.463
 20
121.062
 10
160.456
 20
121.073
 10
160.451
 20
121.083
 10
160.446
 20
121.094
 10
160.441
 20
121.105
 10
160.437
 20
121.116
 10
160.434
 20
121.127
 10
160.431
 20
121.138
 10
160.428
 20
121.149
 10
160.427
 20
121.16
 10
160.426
 20
121.171
 10
160.426
 20
121.182
 10
160.426
 20
121.193
 10
160.427
 20
121.204
 10
160.429
 20
121.215
 10
160.431
 20
121.226
 10
160.435
 20
121.237
 10
160.439
 20
121.248
 10
160.445
 20
121.259
 10
160.451
 20
121.269
 10
160.459
 20
121.28
 10
160.468
 20
121.29
 10
160.477
 20
121.301
 10
160.489
 20
121.311
 10
160.5
 20
121.321
 10
160.512
 20
121.33
 10
160.524
 20
121.337
 10
160.535
 20
121.343
 10
160.547
 20
121.348
 10
160.559
 20
121.352
 10
160.571
 20
121.355
 10
160.584
 20
121.357
 10
160.596
 20
121.358
 10
160.608
 20
121.359
 10
160.619
 20
121.358
 10
160.631
 20
121.357
 10
160.643
 20
121.355
 10
160.655
 20
121.353
 10
160.666
 20
121.349
 10
160.678
 20
121.345
 10
160.689
 20
121.341
 10
160.7
 20
121.336
 10
160.712
 20
121.33
 10
160.723
 20
121.324
 10
160.734
 20
121.317
 10
160.745
 20
121.31
 10
160.756
 20
121.302
 10
160.767
 20
121.294
 10
160.778
 20
121.285
 10
160.788
 20
121.277
 10
160.798
 20
121.268
 10
160.809
 20
121.259
 10
160.819
 20
121.25
 10
160.828
 20
121.241
 10
160.838
 20
121.231
 97
0
 92
3
 72
0
 73
1
 93
17
 10
159.841
 20
121.366
 10
160.842
 20
122.367
 10
160.673
 20
122.537
 10
159.868
 20
121.732
 10
159.865
 20
121.735
 10
160.37
 20
122.839
 10
160.245
 20
122.964
 10
159.137
 20
122.463
 10
159.134
 20
122.466
 10
159.939
 20
123.271
 10
159.762
 20
123.447
 10
158.761
 20
122.446
 10
159.041
 20
122.166
 10
160.009
 20
122.62
 10
160.014
 20
122.616
 10
159.562
 20
121.644
 10
159.841
 20
121.366
 97
0
 75
0
 76
1
 98
0
  0
CIRCLE
  5
5F
330
17
100
AcDbEntity
  8
CUT
100
AcDbCircle
 10
229.6
 20
88.5
 30
0.0
 40
48.04
  0
CIRCLE
  5
60
330
17
100
AcDbEntity
  8
CUT
100
AcDbCircle
 10
229.6
 20
88.5
 30
0.0
 40
35.36
  0
LWPOLYLINE
  5
61
330
17
100
AcDbEntity
  8
CUT
100
AcDbPolyline
 90
4
 70
1
 10
228.065
 20
134.96
 10
231.135
 20
134.96
 10
231.135
 20
128.04
 10
228.065
 20
128.04
  0
HATCH
  5
62
330
17
100
AcDbEntity
  8
RASTER
 62
7
100
AcDbHatch
 10
0.0
 20
0.0
 30
0.0
210
0.0
220
0.0
230
1.0
  2
SOLID
 70
1
 71
0
 91
2
 92
3
 72
0
 73
1
 93
48
 10
276.6
 20
88.5
 10
276.198
 20
82.365
 10
274.999
 20
76.336
 10
273.022
 20
70.514
 10
270.303
 20
65.0
 10
266.888
 20
59.888
 10
262.834
 20
55.266
 10
258.212
 20
51.212
 10
253.1
 20
47.797
 10
247.586
 20
45.078
 10
241.764
 20
43.101
 10
235.735
 20
41.902
 10
229.6
 20
41.5
 10
223.465
 20
41.902
 10
217.436
 20
43.101
 10
211.614
 20
45.078
 10
206.1
 20
47.797
 10
200.988
 20
51.212
 10
196.366
 20
55.266
 10
192.312
 20
59.888
 10
188.897
 20
65.0
 10
186.178
 20
70.514
 10
184.201
 20
76.336
 10
183.002
 20
82.365
 10
182.6
 20
88.5
 10
183.002
 20
94.635
 10
184.201
 20
100.664
 10
186.178
 20
106.486
 10
188.897
 20
112.0
 10
192.312
 20
117.112
 10
196.366
 20
121.734
 10
200.988
 20
125.788
 10
206.1
 20
129.203
 10
211.614
 20
131.922
 10
217.436
 20
133.899
 10
223.465
 20
135.098
 10
229.6
 20
135.5
 10
235.735
 20
135.098
 10
241.764
 20
133.899
 10
247.586
 20
131.922
 10
253.1
 20
129.203
 10
258.212
 20
125.788
 10
262.834
 20
121.734
 10
266.888
 20
117.112
 10
270.303
 20
112.0
 10
273.022
 20
106.486
 10
274.999
 20
100.664
 10
276.198
 20
94.635
 97
0
 92
3
 72
0
 73
1
 93
48
 10
276.0
 20
88.5
 10
275.603
 20
82.444
 10
274.419
 20
76.491
 10
272.468
 20
70.743
 10
269.784
 20
65.3
 10
266.412
 20
60.253
 10
262.41
 20
55.69
 10
257.847
 20
51.688
 10
252.8
 20
48.316
 10
247.357
 20
45.632
 10
241.609
 20
43.681
 10
235.656
 20
42.497
 10
229.6
 20
42.1
 10
223.544
 20
42.497
 10
217.591
 20
43.681
 10
211.843
 20
45.632
 10
206.4
 20
48.316
 10
201.353
 20
51.688
 10
196.79
 20
55.69
 10
192.788
 20
60.253
 10
189.416
 20
65.3
 10
186.732
 20
70.743
 10
184.781
 20
76.491
 10
183.597
 20
82.444
 10
183.2
 20
88.5
 10
183.597
 20
94.556
 10
184.781
 20
100.509
 10
186.732
 20
106.257
 10
189.416
 20
111.7
 10
192.788
 20
116.747
 10
196.79
 20
121.31
 10
201.353
 20
125.312
 10
206.4
 20
128.684
 10
211.843
 20
131.368
 10
217.591
 20
133.319
 10
223.544
 20
134.503
 10
229.6
 20
134.9
 10
235.656
 20
134.503
 10
241.609
 20
133.319
 10
247.357
 20
131.368
 10
252.8
 20
128.684
 10
257.847
 20
125.312
 10
262.41
 20
121.31
 10
266.412
 20
116.747
 10
269.784
 20
111.7
 10
272.468
 20
106.257
 10
274.419
 20
100.509
 10
275.603
 20
94.556
 97
0
 75
0
 76
1
 98
0
  0
HATCH
  5
63
330
17
100
AcDbEntity
  8
RASTER
 62
7
100
AcDbHatch
 10
0.0
 20
0.0
 30
0.0
210
0.0
220
0.0
230
1.0
  2
SOLID
 70
1
 71
0
 91
1
 92
3
 72
0
 73
1
 93
4
 10
229.6
 20
124.2
 10
229.1
 20
125.3
 10
229.6
 20
126.0
 10
230.1
 20
125.3
 97
0
 75
0
 76
1
 98
0
  0
HATCH
  5
64
330
17
100
AcDbEntity
  8
RASTER
 62
7
100
AcDbHatch
 10
0.0
 20
0.0
 30
0.0
210
0.0
220
0.0
230
1.0
  2
SOLID
 70
1
 71
0
 91
1
 92
3
 72
0
 73
1
 93
36
 10
229.6
 20
126.0
 10
229.326
 20
125.779
 10
229.042
 20
125.639
 10
228.765
 20
125.576
 10
228.513
 20
125.588
 10
228.302
 20
125.669
 10
228.152
 20
125.817
 10
228.078
 20
126.029
 10
228.1
 20
126.3
 10
228.159
 20
126.46
 10
228.256
 20
126.569
 10
228.381
 20
126.63
 10
228.525
 20
126.65
 10
228.678
 20
126.632
 10
228.831
 20
126.581
 10
228.975
 20
126.502
 10
229.1
 20
126.4
 10
229.3
 20
126.8
 10
229.9
 20
126.8
 10
230.1
 20
126.4
 10
230.225
 20
126.502
 10
230.369
 20
126.581
 10
230.522
 20
126.632
 10
230.675
 20
126.65
 10
230.819
 20
126.63
 10
230.944
 20
126.569
 10
231.041
 20
126.46
 10
231.1
 20
126.3
 10
231.122
 20
126.029
 10
231.048
 20
125.817
 10
230.898
 20
125.669
 10
230.688
 20
125.588
 10
230.435
 20
125.576
 10
230.158
 20
125.639
 10
229.874
 20
125.779
 10
229.6
 20
126.0
 97
0
 75
0
 76
1
 98
0
  0
HATCH
  5
65
330
17
100
AcDbEntity
  8
RASTER
 62
7
100
AcDbHatch
 10
0.0
 20
0.0
 30
0.0
210
0.0
220
0.0
230
1.0
  2
SOLID
 70
1
 71
0
 91
1
 92
3
 72
0
 73
1
 93
4
 10
229.9
 20
126.9
 10
229.3
 20
126.9
 10
229.3
 20
127.2
 10
229.9
 20
127.2
 97
0
 75
0
 76
1
 98
0
  0
HATCH
  5
66
330
17
100
AcDbEntity
  8
RASTER
 62
7
100
AcDbHatch
 10
0.0
 20
0.0
 30
0.0
210
0.0
220
0.0
230
1.0
  2
SOLID
 70
1
 71
0
 91
1
 92
3
 72
0
 73
1
 93
16
 10
221.049
 20
47.624
 10
221.463
 20
47.624
 10
221.874
 20
46.064
 10
221.88
 20
46.064
 10
222.348
 20
47.624
 10
222.737
 20
47.624
 10
223.197
 20
46.064
 10
223.203
 20
46.064
 10
223.623
 20
47.624
 10
224.025
 20
47.624
 10
223.404
 20
45.5
 10
223.038
 20
45.5
 10
222.54
 20
47.093
 10
222.534
 20
47.093
 10
222.035
 20
45.5
 10
221.67
 20
45.5
 97
0
 75
0
 76
1
 98
0
  0
HATCH
  5
67
330
17
100
AcDbEntity
  8
RASTER
 62
7
100
AcDbHatch
 10
0.0
 20
0.0
 30
0.0
210
0.0
220
0.0
230
1.0
  2
SOLID
 70
1
 71
0
 91
1
 92
3
 72
0
 73
1
 93
4
 10
224.277
 20
47.624
 10
224.654
 20
47.624
 10
224.654
 20
45.5
 10
224.277
 20
45.5
 97
0
 75
0
 76
1
 98
0
  0
HATCH
  5
68
330
17
100
AcDbEntity
  8
RASTER
 62
7
100
AcDbHatch
 10
0.0
 20
0.0
 30
0.0
210
0.0
220
0.0
230
1.0
  2
SOLID
 70
1
 71
0
 91
1
 92
3
 72
0
 73
1
 93
12
 10
225.123
 20
47.624
 10
225.624
 20
47.624
 10
226.611
 20
46.034
 10
226.617
 20
46.034
 10
226.617
 20
47.624
 10
226.995
 20
47.624
 10
226.995
 20
45.5
 10
226.515
 20
45.5
 10
225.507
 20
47.141
 10
225.501
 20
47.141
 10
225.501
 20
45.5
 10
225.123
 20
45.5
 97
0
 75
0
 76
1
 98
0
  0
HATCH
  5
69
330
17
100
AcDbEntity
  8
RASTER
 62
7
100
AcDbHatch
 10
0.0
 20
0.0
 30
0.0
210
0.0
220
0.0
230
1.0
  2
SOLID
 70
1
 71
0
 91
2
 92
3
 72
0
 73
1
 93
67
 10
227.463
 20
47.624
 10
228.216
 20
47.624
 10
228.267
 20
47.623
 10
228.319
 20
47.621
 10
228.371
 20
47.616
 10
228.423
 20
47.611
 10
228.475
 20
47.603
 10
228.528
 20
47.594
 10
228.58
 20
47.583
 10
228.633
 20
47.57
 10
228.684
 20
47.555
 10
228.735
 20
47.539
 10
228.784
 20
47.52
 10
228.832
 20
47.498
 10
228.879
 20
47.475
 10
228.924
 20
47.449
 10
228.968
 20
47.422
 10
229.011
 20
47.392
 10
229.052
 20
47.359
 10
229.091
 20
47.324
 10
229.128
 20
47.287
 10
229.163
 20
47.248
 10
229.196
 20
47.205
 10
229.227
 20
47.161
 10
229.256
 20
47.114
 10
229.284
 20
47.065
 10
229.308
 20
47.012
 10
229.329
 20
46.957
 10
229.347
 20
46.899
 10
229.362
 20
46.838
 10
229.374
 20
46.773
 10
229.382
 20
46.706
 10
229.387
 20
46.635
 10
229.389
 20
46.562
 10
229.387
 20
46.493
 10
229.382
 20
46.427
 10
229.374
 20
46.364
 10
229.362
 20
46.303
 10
229.347
 20
46.244
 10
229.329
 20
46.187
 10
229.308
 20
46.133
 10
229.284
 20
46.082
 10
229.256
 20
46.033
 10
229.227
 20
45.986
 10
229.196
 20
45.941
 10
229.163
 20
45.899
 10
229.128
 20
45.859
 10
229.091
 20
45.821
 10
229.052
 20
45.785
 10
229.011
 20
45.752
 10
228.968
 20
45.721
 10
228.924
 20
45.692
 10
228.879
 20
45.665
 10
228.832
 20
45.64
 10
228.784
 20
45.617
 10
228.735
 20
45.596
 10
228.684
 20
45.578
 10
228.633
 20
45.561
 10
228.58
 20
45.547
 10
228.528
 20
45.535
 10
228.475
 20
45.524
 10
228.423
 20
45.515
 10
228.371
 20
45.509
 10
228.319
 20
45.504
 10
228.267
 20
45.501
 10
228.216
 20
45.5
 10
227.463
 20
45.5
 97
0
 92
3
 72
0
 73
1
 93
67
 10
228.156
 20
45.83
 10
228.192
 20
45.831
 10
228.229
 20
45.832
 10
228.266
 20
45.835
 10
228.302
 20
45.839
 10
228.339
 20
45.843
 10
228.376
 20
45.849
 10
228.413
 20
45.856
 10
228.45
 20
45.864
 10
228.486
 20
45.874
 10
228.521
 20
45.885
 10
228.556
 20
45.897
 10
228.589
 20
45.911
 10
228.622
 20
45.926
 10
228.654
 20
45.943
 10
228.685
 20
45.962
 10
228.715
 20
45.982
 10
228.744
 20
46.003
 10
228.772
 20
46.026
 10
228.798
 20
46.052
 10
228.823
 20
46.079
 10
228.846
 20
46.107
 10
228.868
 20
46.138
 10
228.889
 20
46.171
 10
228.909
 20
46.205
 10
228.926
 20
46.241
 10
228.941
 20
46.28
 10
228.954
 20
46.321
 10
228.965
 20
46.365
 10
228.973
 20
46.411
 10
228.979
 20
46.459
 10
228.982
 20
46.509
 10
228.984
 20
46.562
 10
228.982
 20
46.618
 10
228.979
 20
46.671
 10
228.973
 20
46.721
 10
228.965
 20
46.769
 10
228.954
 20
46.814
 10
228.941
 20
46.857
 10
228.926
 20
46.897
 10
228.909
 20
46.934
 10
228.889
 20
46.969
 10
228.868
 20
47.002
 10
228.846
 20
47.033
 10
228.823
 20
47.062
 10
228.798
 20
47.089
 10
228.772
 20
47.115
 10
228.744
 20
47.138
 10
228.715
 20
47.159
 10
228.685
 20
47.178
 10
228.654
 20
47.196
 10
228.622
 20
47.213
 10
228.589
 20
47.227
 10
228.556
 20
47.24
 10
228.521
 20
47.252
 10
228.486
 20
47.262
 10
228.45
 20
47.27
 10
228.413
 20
47.277
 10
228.376
 20
47.283
 10
228.339
 20
47.288
 10
228.302
 20
47.292
 10
228.266
 20
47.296
 10
228.229
 20
47.298
 10
228.192
 20
47.3
 10
228.156
 20
47.3
 10
227.841
 20
47.3
 10
227.841
 20
45.83
 97
0
 75
0
 76
1
 98
0
  0
HATCH
  5
6A
330
17
100
AcDbEntity
  8
RASTER
 62
7
100
AcDbHatch
 10
0.0
 20
0.0
 30
0.0
210
0.0
220
0.0
230
1.0
  2
SOLID
 70
1
 71
0
 91
1
 92
3
 72
0
 73
1
 93
12
 10
230.505
 20
47.624
 10
231.005
 20
47.624
 10
231.993
 20
46.034
 10
231.999
 20
46.034
 10
231.999
 20
47.624
 10
232.377
 20
47.624
 10
232.377
 20
45.5
 10
231.897
 20
45.5
 10
230.889
 20
47.141
 10
230.883
 20
47.141
 10
230.883
 20
45.5
 10
230.505
 20
45.5
 97
0
 75
0
 76
1
 98
0
  0
HATCH
  5
6B
330
17
100
AcDbEntity
  8
RASTER
 62
7
100
AcDbHatch
 10
0.0
 20
0.0
 30
0.0
210
0.0
220
0.0
230
1.0
  2
SOLID
 70
1
 71
0
 91
2
 92
3
 72
0
 73
1
 93
129
 10
232.743
 20
46.568
 10
232.744
 20
46.631
 10
232.748
 20
46.692
 10
232.755
 20
46.752
 10
232.764
 20
46.811
 10
232.776
 20
46.867
 10
232.791
 20
46.923
 10
232.808
 20
46.976
 10
232.828
 20
47.029
 10
232.85
 20
47.079
 10
232.875
 20
47.127
 10
232.901
 20
47.174
 10
232.93
 20
47.219
 10
232.961
 20
47.261
 10
232.993
 20
47.302
 10
233.028
 20
47.341
 10
233.065
 20
47.378
 10
233.104
 20
47.413
 10
233.144
 20
47.446
 10
233.187
 20
47.477
 10
233.231
 20
47.506
 10
233.277
 20
47.532
 10
233.324
 20
47.557
 10
233.374
 20
47.579
 10
233.425
 20
47.6
 10
233.478
 20
47.618
 10
233.532
 20
47.634
 10
233.587
 20
47.648
 10
233.643
 20
47.659
 10
233.7
 20
47.667
 10
233.759
 20
47.673
 10
233.819
 20
47.677
 10
233.88
 20
47.678
 10
233.941
 20
47.677
 10
234.002
 20
47.673
 10
234.061
 20
47.667
 10
234.119
 20
47.659
 10
234.176
 20
47.648
 10
234.231
 20
47.634
 10
234.285
 20
47.618
 10
234.338
 20
47.6
 10
234.39
 20
47.579
 10
234.44
 20
47.557
 10
234.488
 20
47.532
 10
234.534
 20
47.506
 10
234.579
 20
47.477
 10
234.621
 20
47.446
 10
234.662
 20
47.413
 10
234.701
 20
47.378
 10
234.739
 20
47.341
 10
234.774
 20
47.302
 10
234.807
 20
47.261
 10
234.838
 20
47.219
 10
234.866
 20
47.174
 10
234.893
 20
47.127
 10
234.918
 20
47.079
 10
234.94
 20
47.029
 10
234.96
 20
46.976
 10
234.977
 20
46.923
 10
234.992
 20
46.867
 10
235.004
 20
46.811
 10
235.013
 20
46.752
 10
235.02
 20
46.692
 10
235.024
 20
46.631
 10
235.026
 20
46.568
 10
235.024
 20
46.506
 10
235.02
 20
46.446
 10
235.013
 20
46.387
 10
235.004
 20
46.33
 10
234.992
 20
46.274
 10
234.977
 20
46.219
 10
234.96
 20
46.166
 10
234.94
 20
46.114
 10
234.918
 20
46.063
 10
234.893
 20
46.014
 10
234.866
 20
45.967
 10
234.838
 20
45.922
 10
234.807
 20
45.879
 10
234.774
 20
45.837
 10
234.739
 20
45.798
 10
234.701
 20
45.76
 10
234.662
 20
45.723
 10
234.621
 20
45.689
 10
234.579
 20
45.657
 10
234.534
 20
45.628
 10
234.488
 20
45.6
 10
234.44
 20
45.574
 10
234.39
 20
45.55
 10
234.338
 20
45.529
 10
234.285
 20
45.509
 10
234.231
 20
45.492
 10
234.176
 20
45.478
 10
234.119
 20
45.467
 10
234.061
 20
45.458
 10
234.002
 20
45.451
 10
233.941
 20
45.447
 10
233.88
 20
45.446
 10
233.819
 20
45.447
 10
233.759
 20
45.451
 10
233.7
 20
45.458
 10
233.643
 20
45.467
 10
233.587
 20
45.478
 10
233.532
 20
45.492
 10
233.478
 20
45.509
 10
233.425
 20
45.529
 10
233.374
 20
45.55
 10
233.324
 20
45.574
 10
233.277
 20
45.6
 10
233.231
 20
45.628
 10
233.187
 20
45.657
 10
233.144
 20
45.689
 10
233.104
 20
45.723
 10
233.065
 20
45.76
 10
233.028
 20
45.798
 10
232.993
 20
45.837
 10
232.961
 20
45.879
 10
232.93
 20
45.922
 10
232.901
 20
45.967
 10
232.875
 20
46.014
 10
232.85
 20
46.063
 10
232.828
 20
46.114
 10
232.808
 20
46.166
 10
232.791
 20
46.219
 10
232.776
 20
46.274
 10
232.764
 20
46.33
 10
232.755
 20
46.387
 10
232.748
 20
46.446
 10
232.744
 20
46.506
 10
232.743
 20
46.568
 97
0
 92
3
 72
0
 73
1
 93
129
 10
233.154
 20
46.568
 10
233.154
 20
46.526
 10
233.157
 20
46.484
 10
233.161
 20
46.444
 10
233.167
 20
46.404
 10
233.174
 20
46.365
 10
233.183
 20
46.328
 10
233.194
 20
46.291
 10
233.206
 20
46.255
 10
233.22
 20
46.219
 10
233.235
 20
46.186
 10
233.252
 20
46.153
 10
233.27
 20
46.121
 10
233.289
 20
46.091
 10
233.31
 20
46.062
 10
233.332
 20
46.034
 10
233.356
 20
46.007
 10
233.381
 20
45.981
 10
233.407
 20
45.957
 10
233.434
 20
45.935
 10
233.462
 20
45.914
 10
233.492
 20
45.894
 10
233.523
 20
45.876
 10
233.554
 20
45.859
 10
233.587
 20
45.844
 10
233.621
 20
45.83
 10
233.656
 20
45.818
 10
233.691
 20
45.808
 10
233.728
 20
45.8
 10
233.765
 20
45.793
 10
233.803
 20
45.789
 10
233.842
 20
45.786
 10
233.883
 20
45.785
 10
233.923
 20
45.786
 10
233.962
 20
45.789
 10
234.0
 20
45.793
 10
234.038
 20
45.8
 10
234.074
 20
45.808
 10
234.11
 20
45.818
 10
234.145
 20
45.83
 10
234.18
 20
45.844
 10
234.213
 20
45.859
 10
234.245
 20
45.876
 10
234.275
 20
45.894
 10
234.305
 20
45.914
 10
234.334
 20
45.935
 10
234.361
 20
45.957
 10
234.387
 20
45.981
 10
234.412
 20
46.007
 10
234.436
 20
46.034
 10
234.458
 20
46.062
 10
234.479
 20
46.091
 10
234.498
 20
46.121
 10
234.516
 20
46.153
 10
234.533
 20
46.186
 10
234.548
 20
46.219
 10
234.562
 20
46.255
 10
234.574
 20
46.291
 10
234.585
 20
46.328
 10
234.594
 20
46.365
 10
234.601
 20
46.404
 10
234.607
 20
46.444
 10
234.611
 20
46.484
 10
234.614
 20
46.526
 10
234.615
 20
46.568
 10
234.614
 20
46.609
 10
234.611
 20
46.649
 10
234.607
 20
46.688
 10
234.601
 20
46.727
 10
234.594
 20
46.765
 10
234.585
 20
46.802
 10
234.574
 20
46.838
 10
234.562
 20
46.874
 10
234.548
 20
46.909
 10
234.533
 20
46.942
 10
234.517
 20
46.975
 10
234.499
 20
47.006
 10
234.479
 20
47.036
 10
234.459
 20
47.065
 10
234.437
 20
47.093
 10
234.414
 20
47.12
 10
234.389
 20
47.146
 10
234.363
 20
47.17
 10
234.336
 20
47.192
 10
234.308
 20
47.214
 10
234.278
 20
47.234
 10
234.248
 20
47.252
 10
234.216
 20
47.269
 10
234.183
 20
47.285
 10
234.148
 20
47.299
 10
234.113
 20
47.311
 10
234.077
 20
47.322
 10
234.04
 20
47.33
 10
234.002
 20
47.337
 10
233.963
 20
47.341
 10
233.923
 20
47.344
 10
233.883
 20
47.345
 10
233.842
 20
47.344
 10
233.802
 20
47.341
 10
233.763
 20
47.337
 10
233.725
 20
47.33
 10
233.689
 20
47.322
 10
233.653
 20
47.311
 10
233.618
 20
47.299
 10
233.584
 20
47.285
 10
233.551
 20
47.269
 10
233.52
 20
47.252
 10
233.489
 20
47.234
 10
233.46
 20
47.214
 10
233.432
 20
47.192
 10
233.405
 20
47.17
 10
233.379
 20
47.146
 10
233.355
 20
47.12
 10
233.331
 20
47.093
 10
233.309
 20
47.065
 10
233.289
 20
47.036
 10
233.269
 20
47.006
 10
233.251
 20
46.975
 10
233.235
 20
46.942
 10
233.22
 20
46.909
 10
233.206
 20
46.874
 10
233.194
 20
46.838
 10
233.183
 20
46.802
 10
233.174
 20
46.765
 10
233.167
 20
46.727
 10
233.161
 20
46.688
 10
233.157
 20
46.649
 10
233.154
 20
46.609
 10
233.154
 20
46.568
 97
0
 75
0
 76
1
 98
0
  0
HATCH
  5
6C
330
17
100
AcDbEntity
  8
RASTER
 62
7
100
AcDbHatch
 10
0.0
 20
0.0
 30
0.0
210
0.0
220
0.0
230
1.0
  2
SOLID
 70
1
 71
0
 91
1
 92
3
 72
0
 73
1
 93
16
 10
235.176
 20
47.624
 10
235.59
 20
47.624
 10
236.001
 20
46.064
 10
236.007
 20
46.064
 10
236.475
 20
47.624
 10
236.865
 20
47.624
 10
237.324
 20
46.064
 10
237.33
 20
46.064
 10
237.749
 20
47.624
 10
238.152
 20
47.624
 10
237.531
 20
45.5
 10
237.165
 20
45.5
 10
236.666
 20
47.093
 10
236.66
 20
47.093
 10
236.163
 20
45.5
 10
235.797
 20
45.5
 97
0
 75
0
 76
1
 98
0
  0
HATCH
  5
6D
330
17
100
AcDbEntity
  8
RASTER
 62
7
100
AcDbHatch
 10
0.0
 20
0.0
 30
0.0
210
0.0
220
0.0
230
1.0
  2
SOLID
 70
1
 71
0
 91
1
 92
3
 72
0
 73
1
 93
4
 10
272.4
 20
88.75
 10
274.8
 20
88.75
 10
274.8
 20
88.25
 10
272.4
 20
88.25
 97
0
 75
0
 76
1
 98
0
  0
HATCH
  5
6E
330
17
100
AcDbEntity
  8
RASTER
 62
7
100
AcDbHatch
 10
0.0
 20
0.0
 30
0.0
210
0.0
220
0.0
230
1.0
  2
SOLID
 70
1
 71
0
 91
1
 92
3
 72
0
 73
1
 93
4
 10
271.006
 20
77.664
 10
273.325
 20
77.043
 10
273.195
 20
76.56
 10
270.877
 20
77.181
 97
0
 75
0
 76
1
 98
0
  0
HATCH
  5
6F
330
17
100
AcDbEntity
  8
RASTER
 62
7
100
AcDbHatch
 10
0.0
 20
0.0
 30
0.0
210
0.0
220
0.0
230
1.0
  2
SOLID
 70
1
 71
0
 91
1
 92
3
 72
0
 73
1
 93
4
 10
266.791
 20
67.317
 10
268.869
 20
66.117
 10
268.619
 20
65.683
 10
266.541
 20
66.883
 97
0
 75
0
 76
1
 98
0
  0
HATCH
  5
70
330
17
100
AcDbEntity
  8
RASTER
 62
7
100
AcDbHatch
 10
0.0
 20
0.0
 30
0.0
210
0.0
220
0.0
230
1.0
  2
SOLID
 70
1
 71
0
 91
1
 92
3
 72
0
 73
1
 93
4
 10
260.041
 20
58.413
 10
261.738
 20
56.716
 10
261.384
 20
56.362
 10
259.687
 20
58.059
 97
0
 75
0
 76
1
 98
0
  0
HATCH
  5
71
330
17
100
AcDbEntity
  8
RASTER
 62
7
100
AcDbHatch
 10
0.0
 20
0.0
 30
0.0
210
0.0
220
0.0
230
1.0
  2
SOLID
 70
1
 71
0
 91
1
 92
3
 72
0
 73
1
 93
4
 10
199.513
 20
58.059
 10
197.816
 20
56.362
 10
197.462
 20
56.716
 10
199.159
 20
58.413
 97
0
 75
0
 76
1
 98
0
  0
HATCH
  5
72
330
17
100
AcDbEntity
  8
RASTER
 62
7
100
AcDbHatch
 10
0.0
 20
0.0
 30
0.0
210
0.0
220
0.0
230
1.0
  2
SOLID
 70
1
 71
0
 91
1
 92
3
 72
0
 73
1
 93
4
 10
192.659
 20
66.883
 10
190.581
 20
65.683
 10
190.331
 20
66.117
 10
192.409
 20
67.317
 97
0
 75
0
 76
1
 98
0
  0
HATCH
  5
73
330
17
100
AcDbEntity
  8
RASTER
 62
7
100
AcDbHatch
 10
0.0
 20
0.0
 30
0.0
210
0.0
220
0.0
230
1.0
  2
SOLID
 70
1
 71
0
 91
1
 92
3
 72
0
 73
1
 93
4
 10
188.323
 20
77.181
 10
186.005
 20
76.56
 10
185.875
 20
77.043
 10
188.194
 20
77.664
 97
0
 75
0
 76
1
 98
0
  0
HATCH
  5
74
330
17
100
AcDbEntity
  8
RASTER
 62
7
100
AcDbHatch
 10
0.0
 20
0.0
 30
0.0
210
0.0
220
0.0
230
1.0
  2
SOLID
 70
1
 71
0
 91
1
 92
3
 72
0
 73
1
 93
4
 10
186.8
 20
88.25
 10
184.4
 20
88.25
 10
184.4
 20
88.75
 10
186.8
 20
88.75
 97
0
 75
0
 76
1
 98
0
  0
HATCH
  5
75
330
17
100
AcDbEntity
  8
RASTER
 62
7
100
AcDbHatch
 10
0.0
 20
0.0
 30
0.0
210
0.0
220
0.0
230
1.0
  2
SOLID
 70
1
 71
0
 91
1
 92
3
 72
0
 73
1
 93
4
 10
188.194
 20
99.336
 10
185.875
 20
99.957
 10
186.005
 20
100.44
 10
188.323
 20
99.819
 97
0
 75
0
 76
1
 98
0
  0
HATCH
  5
76
330
17
100
AcDbEntity
  8
RASTER
 62
7
100
AcDbHatch
 10
0.0
 20
0.0
 30
0.0
210
0.0
220
0.0
230
1.0
  2
SOLID
 70
1
 71
0
 91
1
 92
3
 72
0
 73
1
 93
4
 10
192.409
 20
109.683
 10
190.331
 20
110.883
 10
190.581
 20
111.317
 10
192.659
 20
110.117
 97
0
 75
0
 76
1
 98
0
  0
HATCH
  5
77
330
17
100
AcDbEntity
  8
RASTER
 62
7
100
AcDbHatch
 10
0.0
 20
0.0
 30
0.0
210
0.0
220
0.0
230
1.0
  2
SOLID
 70
1
 71
0
 91
1
 92
3
 72
0
 73
1
 93
4
 10
199.159
 20
118.587
 10
197.462
 20
120.284
 10
197.816
 20
120.638
 10
199.513
 20
118.941
 97
0
 75
0
 76
1
 98
0
  0
HATCH
  5
78
330
17
100
AcDbEntity
  8
RASTER
 62
7
100
AcDbHatch
 10
0.0
 20
0.0
 30
0.0
210
0.0
220
0.0
230
1.0
  2
SOLID
 70
1
 71
0
 91
1
 92
3
 72
0
 73
1
 93
4
 10
207.983
 20
125.441
 10
206.783
 20
127.519
 10
207.217
 20
127.769
 10
208.417
 20
125.691
 97
0
 75
0
 76
1
 98
0
  0
HATCH
  5
79
330
17
100
AcDbEntity
  8
RASTER
 62
7
100
AcDbHatch
 10
0.0
 20
0.0
 30
0.0
210
0.0
220
0.0
230
1.0
  2
SOLID
 70
1
 71
0
 91
1
 92
3
 72
0
 73
1
 93
4
 10
218.281
 20
129.777
 10
217.66
 20
132.095
 10
218.143
 20
132.225
 10
218.764
 20
129.906
 97
0
 75
0
 76
1
 98
0
  0
HATCH
  5
7A
330
17
100
AcDbEntity
  8
RASTER
 62
7
100
AcDbHatch
 10
0.0
 20
0.0
 30
0.0
210
0.0
220
0.0
230
1.0
  2
SOLID
 70
1
 71
0
 91
1
 92
3
 72
0
 73
1
 93
4
 10
229.35
 20
131.3
 10
229.35
 20
133.7
 10
229.85
 20
133.7
 10
229.85
 20
131.3
 97
0
 75
0
 76
1
 98
0
  0
HATCH
  5
7B
330
17
100
AcDbEntity
  8
RASTER
 62
7
100
AcDbHatch
 10
0.0
 20
0.0
 30
0.0
210
0.0
220
0.0
230
1.0
  2
SOLID
 70
1
 71
0
 91
1
 92
3
 72
0
 73
1
 93
4
 10
240.436
 20
129.906
 10
241.057
 20
132.225
 10
241.54
 20
132.095
 10
240.919
 20
129.777
 97
0
 75
0
 76
1
 98
0
  0
HATCH
  5
7C
330
17
100
AcDbEntity
  8
RASTER
 62
7
100
AcDbHatch
 10
0.0
 20
0.0
 30
0.0
210
0.0
220
0.0
230
1.0
  2
SOLID
 70
1
 71
0
 91
1
 92
3
 72
0
 73
1
 93
4
 10
250.783
 20
125.691
 10
251.983
 20
127.769
 10
252.417
 20
127.519
 10
251.217
 20
125.441
 97
0
 75
0
 76
1
 98
0
  0
HATCH
  5
7D
330
17
100
AcDbEntity
  8
RASTER
 62
7
100
AcDbHatch
 10
0.0
 20
0.0
 30
0.0
210
0.0
220
0.0
230
1.0
  2
SOLID
 70
1
 71
0
 91
1
 92
3
 72
0
 73
1
 93
4
 10
259.687
 20
118.941
 10
261.384
 20
120.638
 10
261.738
 20
120.284
 10
260.041
 20
118.587
 97
0
 75
0
 76
1
 98
0
  0
HATCH
  5
7E
330
17
100
AcDbEntity
  8
RASTER
 62
7
100
AcDbHatch
 10
0.0
 20
0.0
 30
0.0
210
0.0
220
0.0
230
1.0
  2
SOLID
 70
1
 71
0
 91
1
 92
3
 72
0
 73
1
 93
4
 10
266.541
 20
110.117
 10
268.619
 20
111.317
 10
268.869
 20
110.883
 10
266.791
 20
109.683
 97
0
 75
0
 76
1
 98
0
  0
HATCH
  5
7F
330
17
100
AcDbEntity
  8
RASTER
 62
7
100
AcDbHatch
 10
0.0
 20
0.0
 30
0.0
210
0.0
220
0.0
230
1.0
  2
SOLID
 70
1
 71
0
 91
1
 92
3
 72
0
 73
1
 93
4
 10
270.877
 20
99.819
 10
273.195
 20
100.44
 10
273.325
 20
99.957
 10
271.006
 20
99.336
 97
0
 75
0
 76
1
 98
0
  0
LWPOLYLINE
  5
80
330
17
100
AcDbEntity
  8
CUT
100
AcDbPolyline
 90
6
 70
1
 10
57.007
 20
32.039
 10
57.007
 20
31.961
 10
30.5
 20
27.459
 10
3.993
 20
31.961
 10
3.993
 20
32.039
 10
30.5
 20
36.541
  0
CIRCLE
  5
81
330
17
100
AcDbEntity
  8
CUT
100
AcDbCircle
 10
30.5
 20
32.0
 30
0.0
 40
1.61
  0
HATCH
  5
82
330
17
100
AcDbEntity
  8
RASTER
 62
7
100
AcDbHatch
 10
0.0
 20
0.0
 30
0.0
210
0.0
220
0.0
230
1.0
  2
SOLID
 70
1
 71
0
 91
1
 92
3
 72
0
 73
1
 93
14
 10
57.0
 20
32.0
 10
30.5
 20
27.5
 10
30.5
 20
29.7
 10
30.5
 20
29.7
 10
31.38
 20
29.875
 10
32.126
 20
30.374
 10
32.625
 20
31.12
 10
32.8
 20
32.0
 10
32.625
 20
32.88
 10
32.126
 20
33.626
 10
31.38
 20
34.125
 10
30.5
 20
34.3
 10
30.5
 20
34.3
 10
30.5
 20
36.5
 97
0
 75
0
 76
1
 98
0
  0
CIRCLE
  5
83
330
17
100
AcDbEntity
  8
CUT
100
AcDbCircle
 10
65.0
 20
32.5
 30
0.0
 40
4.04
  0
CIRCLE
  5
84
330
17
100
AcDbEntity
  8
CUT
100
AcDbCircle
 10
65.0
 20
32.5
 30
0.0
 40
1.61
  0
LWPOLYLINE
  5
85
330
17
100
AcDbEntity
  8
CUT
100
AcDbPolyline
 90
14
 70
1
 10
103.0
 20
36.54
 10
105.64
 20
36.54
 10
105.64
 20
7.14
 10
107.64
 20
7.14
 10
107.64
 20
3.96
 10
100.96
 20
3.96
 10
100.96
 20
7.14
 10
102.96
 20
7.14
 10
102.96
 20
26.46
 10
73.0
 20
26.46
 10
72.972
 20
26.528
 10
77.943
 20
31.5
 10
72.972
 20
36.472
 10
73.0
 20
36.54
  0
HATCH
  5
86
330
17
100
AcDbEntity
  8
RASTER
 62
7
100
AcDbHatch
 10
0.0
 20
0.0
 30
0.0
210
0.0
220
0.0
230
1.0
  2
SOLID
 70
1
 71
0
 91
1
 92
3
 72
0
 73
1
 93
4
 10
103.9
 20
24.7
 10
104.7
 20
24.7
 10
104.7
 20
8.3
 10
103.9
 20
8.3
 97
0
 75
0
 76
1
 98
0
  0
HATCH
  5
87
330
17
100
AcDbEntity
  8
RASTER
 62
7
100
AcDbHatch
 10
0.0
 20
0.0
 30
0.0
210
0.0
220
0.0
230
1.0
  2
SOLID
 70
1
 71
0
 91
1
 92
3
 72
0
 73
1
 93
16
 10
77.528
 20
32.774
 10
78.108
 20
32.774
 10
78.683
 20
30.59
 10
78.691
 20
30.59
 10
79.346
 20
32.774
 10
79.893
 20
32.774
 10
80.535
 20
30.59
 10
80.544
 20
30.59
 10
81.132
 20
32.774
 10
81.694
 20
32.774
 10
80.825
 20
29.8
 10
80.313
 20
29.8
 10
79.615
 20
32.03
 10
79.607
 20
32.03
 10
78.91
 20
29.8
 10
78.397
 20
29.8
 97
0
 75
0
 76
1
 98
0
  0
HATCH
  5
88
330
17
100
AcDbEntity
  8
RASTER
 62
7
100
AcDbHatch
 10
0.0
 20
0.0
 30
0.0
210
0.0
220
0.0
230
1.0
  2
SOLID
 70
1
 71
0
 91
1
 92
3
 72
0
 73
1
 93
4
 10
82.047
 20
32.774
 10
82.576
 20
32.774
 10
82.576
 20
29.8
 10
82.047
 20
29.8
 97
0
 75
0
 76
1
 98
0
  0
HATCH
  5
89
330
17
100
AcDbEntity
  8
RASTER
 62
7
100
AcDbHatch
 10
0.0
 20
0.0
 30
0.0
210
0.0
220
0.0
230
1.0
  2
SOLID
 70
1
 71
0
 91
1
 92
3
 72
0
 73
1
 93
12
 10
83.232
 20
32.774
 10
83.933
 20
32.774
 10
85.315
 20
30.548
 10
85.323
 20
30.548
 10
85.323
 20
32.774
 10
85.852
 20
32.774
 10
85.852
 20
29.8
 10
85.18
 20
29.8
 10
83.769
 20
32.097
 10
83.761
 20
32.097
 10
83.761
 20
29.8
 10
83.232
 20
29.8
 97
0
 75
0
 76
1
 98
0
  0
HATCH
  5
8A
330
17
100
AcDbEntity
  8
RASTER
 62
7
100
AcDbHatch
 10
0.0
 20
0.0
 30
0.0
210
0.0
220
0.0
230
1.0
  2
SOLID
 70
1
 71
0
 91
2
 92
3
 72
0
 73
1
 93
67
 10
86.508
 20
32.774
 10
87.562
 20
32.774
 10
87.634
 20
32.772
 10
87.707
 20
32.769
 10
87.78
 20
32.763
 10
87.853
 20
32.755
 10
87.926
 20
32.744
 10
87.999
 20
32.731
 10
88.072
 20
32.716
 10
88.146
 20
32.698
 10
88.218
 20
32.678
 10
88.289
 20
32.654
 10
88.358
 20
32.627
 10
88.425
 20
32.598
 10
88.49
 20
32.565
 10
88.553
 20
32.529
 10
88.615
 20
32.49
 10
88.675
 20
32.448
 10
88.732
 20
32.403
 10
88.787
 20
32.354
 10
88.839
 20
32.302
 10
88.888
 20
32.246
 10
88.934
 20
32.188
 10
88.978
 20
32.125
 10
89.019
 20
32.059
 10
89.057
 20
31.99
 10
89.091
 20
31.917
 10
89.121
 20
31.84
 10
89.146
 20
31.758
 10
89.167
 20
31.673
 10
89.183
 20
31.583
 10
89.195
 20
31.488
 10
89.202
 20
31.39
 10
89.204
 20
31.287
 10
89.202
 20
31.191
 10
89.195
 20
31.098
 10
89.183
 20
31.009
 10
89.167
 20
30.923
 10
89.146
 20
30.841
 10
89.121
 20
30.762
 10
89.091
 20
30.687
 10
89.057
 20
30.615
 10
89.019
 20
30.546
 10
88.978
 20
30.48
 10
88.934
 20
30.418
 10
88.888
 20
30.359
 10
88.839
 20
30.302
 10
88.787
 20
30.249
 10
88.732
 20
30.2
 10
88.675
 20
30.153
 10
88.615
 20
30.109
 10
88.553
 20
30.068
 10
88.49
 20
30.031
 10
88.425
 20
29.996
 10
88.358
 20
29.964
 10
88.289
 20
29.935
 10
88.218
 20
29.909
 10
88.146
 20
29.886
 10
88.072
 20
29.866
 10
87.999
 20
29.848
 10
87.926
 20
29.834
 10
87.853
 20
29.822
 10
87.78
 20
29.812
 10
87.707
 20
29.805
 10
87.634
 20
29.801
 10
87.562
 20
29.8
 10
86.508
 20
29.8
 97
0
 92
3
 72
0
 73
1
 93
67
 10
87.478
 20
30.262
 10
87.529
 20
30.263
 10
87.581
 20
30.265
 10
87.632
 20
30.269
 10
87.684
 20
30.274
 10
87.735
 20
30.281
 10
87.786
 20
30.289
 10
87.838
 20
30.299
 10
87.889
 20
30.31
 10
87.94
 20
30.323
 10
87.99
 20
30.339
 10
88.038
 20
30.356
 10
88.085
 20
30.375
 10
88.131
 20
30.397
 10
88.176
 20
30.421
 10
88.219
 20
30.446
 10
88.261
 20
30.474
 10
88.302
 20
30.504
 10
88.34
 20
30.537
 10
88.377
 20
30.572
 10
88.412
 20
30.61
 10
88.445
 20
30.65
 10
88.476
 20
30.693
 10
88.505
 20
30.739
 10
88.532
 20
30.787
 10
88.557
 20
30.838
 10
88.578
 20
30.892
 10
88.596
 20
30.95
 10
88.611
 20
31.011
 10
88.622
 20
31.075
 10
88.63
 20
31.142
 10
88.635
 20
31.213
 10
88.637
 20
31.287
 10
88.635
 20
31.365
 10
88.63
 20
31.439
 10
88.622
 20
31.51
 10
88.611
 20
31.577
 10
88.596
 20
31.64
 10
88.578
 20
31.699
 10
88.557
 20
31.755
 10
88.532
 20
31.808
 10
88.505
 20
31.857
 10
88.476
 20
31.903
 10
88.445
 20
31.946
 10
88.412
 20
31.987
 10
88.377
 20
32.025
 10
88.34
 20
32.06
 10
88.302
 20
32.093
 10
88.261
 20
32.123
 10
88.219
 20
32.15
 10
88.176
 20
32.175
 10
88.131
 20
32.198
 10
88.085
 20
32.218
 10
88.038
 20
32.236
 10
87.99
 20
32.253
 10
87.94
 20
32.266
 10
87.889
 20
32.278
 10
87.838
 20
32.288
 10
87.786
 20
32.296
 10
87.735
 20
32.304
 10
87.684
 20
32.309
 10
87.632
 20
32.314
 10
87.581
 20
32.317
 10
87.529
 20
32.319
 10
87.478
 20
32.32
 10
87.037
 20
32.32
 10
87.037
 20
30.262
 97
0
 75
0
 76
1
 98
0
  0
HATCH
  5
8B
330
17
100
AcDbEntity
  8
RASTER
 62
7
100
AcDbHatch
 10
0.0
 20
0.0
 30
0.0
210
0.0
220
0.0
230
1.0
  2
SOLID
 70
1
 71
0
 91
1
 92
3
 72
0
 73
1
 93
12
 10
90.766
 20
32.774
 10
91.468
 20
32.774
 10
92.85
 20
30.548
 10
92.858
 20
30.548
 10
92.858
 20
32.774
 10
93.387
 20
32.774
 10
93.387
 20
29.8
 10
92.715
 20
29.8
 10
91.304
 20
32.097
 10
91.296
 20
32.097
 10
91.296
 20
29.8
 10
90.766
 20
29.8
 97
0
 75
0
 76
1
 98
0
  0
HATCH
  5
8C
330
17
100
AcDbEntity
  8
RASTER
 62
7
100
AcDbHatch
 10
0.0
 20
0.0
 30
0.0
210
0.0
220
0.0
230
1.0
  2
SOLID
 70
1
 71
0
 91
2
 92
3
 72
0
 73
1
 93
129
 10
93.9
 20
31.295
 10
93.901
 20
31.383
 10
93.907
 20
31.469
 10
93.916
 20
31.553
 10
93.929
 20
31.635
 10
93.946
 20
31.714
 10
93.967
 20
31.792
 10
93.991
 20
31.867
 10
94.019
 20
31.94
 10
94.051
 20
32.01
 10
94.085
 20
32.078
 10
94.122
 20
32.144
 10
94.162
 20
32.206
 10
94.205
 20
32.266
 10
94.251
 20
32.323
 10
94.299
 20
32.377
 10
94.351
 20
32.429
 10
94.405
 20
32.478
 10
94.462
 20
32.524
 10
94.521
 20
32.567
 10
94.583
 20
32.608
 10
94.647
 20
32.645
 10
94.714
 20
32.68
 10
94.783
 20
32.711
 10
94.855
 20
32.74
 10
94.929
 20
32.766
 10
95.004
 20
32.788
 10
95.081
 20
32.807
 10
95.16
 20
32.822
 10
95.24
 20
32.834
 10
95.322
 20
32.842
 10
95.406
 20
32.847
 10
95.491
 20
32.849
 10
95.578
 20
32.847
 10
95.662
 20
32.842
 10
95.745
 20
32.834
 10
95.826
 20
32.822
 10
95.906
 20
32.807
 10
95.983
 20
32.788
 10
96.06
 20
32.766
 10
96.134
 20
32.74
 10
96.206
 20
32.711
 10
96.276
 20
32.68
 10
96.343
 20
32.645
 10
96.408
 20
32.608
 10
96.47
 20
32.567
 10
96.53
 20
32.524
 10
96.587
 20
32.478
 10
96.642
 20
32.429
 10
96.694
 20
32.377
 10
96.743
 20
32.323
 10
96.789
 20
32.266
 10
96.833
 20
32.206
 10
96.873
 20
32.144
 10
96.91
 20
32.078
 10
96.945
 20
32.01
 10
96.976
 20
31.94
 10
97.004
 20
31.867
 10
97.028
 20
31.792
 10
97.049
 20
31.714
 10
97.066
 20
31.635
 10
97.079
 20
31.553
 10
97.088
 20
31.469
 10
97.094
 20
31.383
 10
97.096
 20
31.295
 10
97.094
 20
31.209
 10
97.088
 20
31.125
 10
97.079
 20
31.042
 10
97.066
 20
30.962
 10
97.049
 20
30.883
 10
97.028
 20
30.807
 10
97.004
 20
30.732
 10
96.976
 20
30.659
 10
96.945
 20
30.588
 10
96.91
 20
30.52
 10
96.873
 20
30.454
 10
96.833
 20
30.391
 10
96.789
 20
30.33
 10
96.743
 20
30.272
 10
96.694
 20
30.217
 10
96.642
 20
30.163
 10
96.587
 20
30.113
 10
96.53
 20
30.065
 10
96.47
 20
30.02
 10
96.408
 20
29.978
 10
96.343
 20
29.94
 10
96.276
 20
29.903
 10
96.206
 20
29.87
 10
96.134
 20
29.84
 10
96.06
 20
29.813
 10
95.983
 20
29.789
 10
95.906
 20
29.77
 10
95.826
 20
29.753
 10
95.745
 20
29.741
 10
95.662
 20
29.732
 10
95.578
 20
29.726
 10
95.491
 20
29.724
 10
95.406
 20
29.726
 10
95.322
 20
29.732
 10
95.24
 20
29.741
 10
95.16
 20
29.753
 10
95.081
 20
29.77
 10
95.004
 20
29.789
 10
94.929
 20
29.813
 10
94.855
 20
29.84
 10
94.783
 20
29.87
 10
94.714
 20
29.903
 10
94.647
 20
29.94
 10
94.583
 20
29.978
 10
94.521
 20
30.02
 10
94.462
 20
30.065
 10
94.405
 20
30.113
 10
94.351
 20
30.163
 10
94.299
 20
30.217
 10
94.251
 20
30.272
 10
94.205
 20
30.33
 10
94.162
 20
30.391
 10
94.122
 20
30.454
 10
94.085
 20
30.52
 10
94.051
 20
30.588
 10
94.019
 20
30.659
 10
93.991
 20
30.732
 10
93.967
 20
30.807
 10
93.946
 20
30.883
 10
93.929
 20
30.962
 10
93.916
 20
31.042
 10
93.907
 20
31.125
 10
93.901
 20
31.209
 10
93.9
 20
31.295
 97
0
 92
3
 72
0
 73
1
 93
129
 10
94.475
 20
31.295
 10
94.476
 20
31.236
 10
94.479
 20
31.178
 10
94.485
 20
31.121
 10
94.493
 20
31.066
 10
94.504
 20
31.012
 10
94.516
 20
30.959
 10
94.531
 20
30.907
 10
94.548
 20
30.856
 10
94.568
 20
30.807
 10
94.589
 20
30.76
 10
94.612
 20
30.714
 10
94.638
 20
30.67
 10
94.665
 20
30.627
 10
94.694
 20
30.587
 10
94.725
 20
30.547
 10
94.758
 20
30.51
 10
94.793
 20
30.474
 10
94.83
 20
30.44
 10
94.868
 20
30.409
 10
94.908
 20
30.379
 10
94.949
 20
30.351
 10
94.992
 20
30.326
 10
95.036
 20
30.302
 10
95.082
 20
30.281
 10
95.129
 20
30.262
 10
95.178
 20
30.245
 10
95.228
 20
30.231
 10
95.279
 20
30.219
 10
95.331
 20
30.211
 10
95.385
 20
30.204
 10
95.439
 20
30.2
 10
95.496
 20
30.199
 10
95.552
 20
30.2
 10
95.607
 20
30.204
 10
95.66
 20
30.211
 10
95.713
 20
30.219
 10
95.764
 20
30.231
 10
95.814
 20
30.245
 10
95.863
 20
30.262
 10
95.911
 20
30.281
 10
95.958
 20
30.302
 10
96.003
 20
30.326
 10
96.046
 20
30.351
 10
96.087
 20
30.379
 10
96.127
 20
30.409
 10
96.165
 20
30.44
 10
96.202
 20
30.474
 10
96.237
 20
30.51
 10
96.27
 20
30.547
 10
96.301
 20
30.587
 10
96.33
 20
30.627
 10
96.358
 20
30.67
 10
96.383
 20
30.714
 10
96.406
 20
30.76
 10
96.427
 20
30.807
 10
96.447
 20
30.856
 10
96.464
 20
30.907
 10
96.479
 20
30.959
 10
96.492
 20
31.012
 10
96.502
 20
31.066
 10
96.51
 20
31.121
 10
96.516
 20
31.178
 10
96.519
 20
31.236
 10
96.52
 20
31.295
 10
96.519
 20
31.352
 10
96.516
 20
31.409
 10
96.51
 20
31.464
 10
96.502
 20
31.518
 10
96.492
 20
31.571
 10
96.479
 20
31.623
 10
96.464
 20
31.674
 10
96.447
 20
31.724
 10
96.427
 20
31.772
 10
96.406
 20
31.819
 10
96.383
 20
31.865
 10
96.358
 20
31.908
 10
96.331
 20
31.951
 10
96.302
 20
31.991
 10
96.272
 20
32.03
 10
96.239
 20
32.068
 10
96.204
 20
32.104
 10
96.168
 20
32.138
 10
96.13
 20
32.169
 10
96.091
 20
32.199
 10
96.05
 20
32.227
 10
96.007
 20
32.253
 10
95.962
 20
32.277
 10
95.916
 20
32.299
 10
95.868
 20
32.319
 10
95.818
 20
32.336
 10
95.768
 20
32.35
 10
95.716
 20
32.362
 10
95.663
 20
32.371
 10
95.608
 20
32.378
 10
95.553
 20
32.382
 10
95.496
 20
32.383
 10
95.438
 20
32.382
 10
95.383
 20
32.378
 10
95.328
 20
32.371
 10
95.276
 20
32.362
 10
95.224
 20
32.35
 10
95.174
 20
32.336
 10
95.125
 20
32.319
 10
95.078
 20
32.299
 10
95.032
 20
32.277
 10
94.987
 20
32.253
 10
94.945
 20
32.227
 10
94.904
 20
32.199
 10
94.864
 20
32.169
 10
94.827
 20
32.138
 10
94.791
 20
32.104
 10
94.756
 20
32.068
 10
94.724
 20
32.03
 10
94.693
 20
31.991
 10
94.664
 20
31.951
 10
94.637
 20
31.908
 10
94.612
 20
31.865
 10
94.589
 20
31.819
 10
94.568
 20
31.772
 10
94.548
 20
31.724
 10
94.531
 20
31.674
 10
94.516
 20
31.623
 10
94.504
 20
31.571
 10
94.493
 20
31.518
 10
94.485
 20
31.464
 10
94.479
 20
31.409
 10
94.476
 20
31.352
 10
94.475
 20
31.295
 97
0
 75
0
 76
1
 98
0
  0
HATCH
  5
8D
330
17
100
AcDbEntity
  8
RASTER
 62
7
100
AcDbHatch
 10
0.0
 20
0.0
 30
0.0
210
0.0
220
0.0
230
1.0
  2
SOLID
 70
1
 71
0
 91
1
 92
3
 72
0
 73
1
 93
16
 10
97.306
 20
32.774
 10
97.885
 20
32.774
 10
98.461
 20
30.59
 10
98.469
 20
30.59
 10
99.124
 20
32.774
 10
99.67
 20
32.774
 10
100.313
 20
30.59
 10
100.321
 20
30.59
 10
100.909
 20
32.774
 10
101.472
 20
32.774
 10
100.603
 20
29.8
 10
100.09
 20
29.8
 10
99.393
 20
32.03
 10
99.385
 20
32.03
 10
98.688
 20
29.8
 10
98.175
 20
29.8
 97
0
 75
0
 76
1
 98
0
  0
ENDSEC
  0
SECTION
  2
OBJECTS
  0
DICTIONARY
  5
A
330
0
100
AcDbDictionary
281
1
  3
ACAD_COLOR
350
B
  3
ACAD_GROUP
350
C
  3
ACAD_LAYOUT
350
D
  3
ACAD_MATERIAL
350
E
  3
ACAD_MLEADERSTYLE
350
F
  3
ACAD_MLINESTYLE
350
10
  3
ACAD_PLOTSETTINGS
350
11
  3
ACAD_PLOTSTYLENAME
350
12
  3
ACAD_SCALELIST
350
14
  3
ACAD_TABLESTYLE
350
15
  3
ACAD_VISUALSTYLE
350
16
  3
EZDXF_META
350
2D
  0
DICTIONARY
  5
B
330
A
100
AcDbDictionary
281
1
  0
DICTIONARY
  5
C
330
A
100
AcDbDictionary
281
1
  0
DICTIONARY
  5
D
330
A
100
AcDbDictionary
281
1
  3
Model
350
1A
  3
Layout1
350
1E
  0
DICTIONARY
  5
E
330
A
100
AcDbDictionary
281
1
  3
ByBlock
350
1F
  3
ByLayer
350
20
  3
Global
350
21
  0
DICTIONARY
  5
F
330
A
100
AcDbDictionary
281
1
  3
Standard
350
2C
  0
DICTIONARY
  5
10
330
A
100
AcDbDictionary
281
1
  3
Standard
350
22
  0
DICTIONARY
  5
11
330
A
100
AcDbDictionary
281
1
  0
ACDBDICTIONARYWDFLT
  5
12
330
A
100
AcDbDictionary
281
1
  3
Normal
350
13
100
AcDbDictionaryWithDefault
340
13
  0
ACDBPLACEHOLDER
  5
13
330
12
  0
DICTIONARY
  5
14
330
A
100
AcDbDictionary
281
1
  0
DICTIONARY
  5
15
330
A
100
AcDbDictionary
281
1
  0
DICTIONARY
  5
16
330
A
100
AcDbDictionary
281
1
  0
LAYOUT
  5
1A
330
D
100
AcDbPlotSettings
  1

  4
A3
  6

 40
7.5
 41
20.0
 42
7.5
 43
20.0
 44
420.0
 45
297.0
 46
0.0
 47
0.0
 48
0.0
 49
0.0
140
0.0
141
0.0
142
1.0
143
1.0
 70
1024
 72
1
 73
0
 74
5
  7

 75
16
 76
0
 77
2
 78
300
147
1.0
148
0.0
149
0.0
100
AcDbLayout
  1
Model
 70
1
 71
0
 10
0.0
 20
0.0
 11
420.0
 21
297.0
 12
0.0
 22
0.0
 32
0.0
 14
1e+20
 24
1e+20
 34
1e+20
 15
-1e+20
 25
-1e+20
 35
-1e+20
146
0.0
 13
0.0
 23
0.0
 33
0.0
 16
1.0
 26
0.0
 36
0.0
 17
0.0
 27
1.0
 37
0.0
 76
1
330
17
  0
LAYOUT
  5
1E
330
D
100
AcDbPlotSettings
  1

  4
A3
  6

 40
7.5
 41
20.0
 42
7.5
 43
20.0
 44
420.0
 45
297.0
 46
0.0
 47
0.0
 48
0.0
 49
0.0
140
0.0
141
0.0
142
1.0
143
1.0
 70
0
 72
1
 73
0
 74
5
  7

 75
16
 76
0
 77
2
 78
300
147
1.0
148
0.0
149
0.0
100
AcDbLayout
  1
Layout1
 70
1
 71
1
 10
0.0
 20
0.0
 11
420.0
 21
297.0
 12
0.0
 22
0.0
 32
0.0
 14
1e+20
 24
1e+20
 34
1e+20
 15
-1e+20
 25
-1e+20
 35
-1e+20
146
0.0
 13
0.0
 23
0.0
 33
0.0
 16
1.0
 26
0.0
 36
0.0
 17
0.0
 27
1.0
 37
0.0
 76
1
330
1B
  0
MATERIAL
  5
1F
102
{ACAD_REACTORS
330
E
102
}
330
E
100
AcDbMaterial
  1
ByBlock
  2

 70
0
 40
1.0
 71
1
 41
1.0
 91
-1023410177
 42
1.0
 72
1
  3

 73
1
 74
1
 75
1
 44
0.5
 73
0
 45
1.0
 46
1.0
 77
1
  4

 78
1
 79
1
170
1
 48
1.0
171
1
  6

172
1
173
1
174
1
140
1.0
141
1.0
175
1
  7

176
1
177
1
178
1
143
1.0
179
1
  8

270
1
271
1
272
1
145
1.0
146
1.0
273
1
  9

274
1
275
1
276
1
 42
1.0
 72
1
  3

 73
1
 74
1
 75
1
 94
63
  0
MATERIAL
  5
20
102
{ACAD_REACTORS
330
E
102
}
330
E
100
AcDbMaterial
  1
ByLayer
  2

 70
0
 40
1.0
 71
1
 41
1.0
 91
-1023410177
 42
1.0
 72
1
  3

 73
1
 74
1
 75
1
 44
0.5
 73
0
 45
1.0
 46
1.0
 77
1
  4

 78
1
 79
1
170
1
 48
1.0
171
1
  6

172
1
173
1
174
1
140
1.0
141
1.0
175
1
  7

176
1
177
1
178
1
143
1.0
179
1
  8

270
1
271
1
272
1
145
1.0
146
1.0
273
1
  9

274
1
275
1
276
1
 42
1.0
 72
1
  3

 73
1
 74
1
 75
1
 94
63
  0
MATERIAL
  5
21
102
{ACAD_REACTORS
330
E
102
}
330
E
100
AcDbMaterial
  1
Global
  2

 70
0
 40
1.0
 71
1
 41
1.0
 91
-1023410177
 42
1.0
 72
1
  3

 73
1
 74
1
 75
1
 44
0.5
 73
0
 45
1.0
 46
1.0
 77
1
  4

 78
1
 79
1
170
1
 48
1.0
171
1
  6

172
1
173
1
174
1
140
1.0
141
1.0
175
1
  7

176
1
177
1
178
1
143
1.0
179
1
  8

270
1
271
1
272
1
145
1.0
146
1.0
273
1
  9

274
1
275
1
276
1
 42
1.0
 72
1
  3

 73
1
 74
1
 75
1
 94
63
  0
MLINESTYLE
  5
22
102
{ACAD_REACTORS
330
10
102
}
330
10
100
AcDbMlineStyle
  2
Standard
 70
0
  3

 62
256
 51
90.0
 52
90.0
 71
2
 49
0.5
 62
256
  6
BYLAYER
 49
-0.5
 62
256
  6
BYLAYER
  0
MLEADERSTYLE
  5
2C
102
{ACAD_REACTORS
330
F
102
}
330
F
100
AcDbMLeaderStyle
179
2
170
2
171
1
172
0
 90
2
 40
0.0
 41
0.0
173
1
 91
-1056964608
 92
-2
290
1
 42
2.0
291
1
 43
8.0
  3
Standard
 44
4.0
300

342
29
174
1
175
1
176
0
178
1
 93
-1056964608
 45
4.0
292
0
297
0
 46
4.0
 94
-1056964608
 47
1.0
 49
1.0
140
1.0
294
1
141
0.0
177
0
142
1.0
295
0
296
0
143
3.75
271
0
272
9
273
9
  0
DICTIONARY
  5
2D
330
A
100
AcDbDictionary
280
1
281
1
  3
CREATED_BY_EZDXF
350
2E
  3
WRITTEN_BY_EZDXF
350
90
  0
DICTIONARYVAR
  5
2E
330
2D
100
DictionaryVariables
280
0
  1
1.4.2 @ 2026-08-25T23:57:12.497578+00:00
  0
DICTIONARYVAR
  5
90
330
2D
100
DictionaryVariables
280
0
  1
1.4.2 @ 2026-08-25T23:57:12.500777+00:00
  0
ENDSEC
  0
EOF
