  0
SECTION
  2
HEADER
  9
$ACADVER
  1
AC1015
  9
$ACADMAINTVER
 70
6
  9
$DWGCODEPAGE
  3
ANSI_1252
  9
$INSBASE
 10
0.0
 20
0.0
 30
0.0
  9
$EXTMIN
 10
1e+20
 20
1e+20
 30
1e+20
  9
$EXTMAX
 10
-1e+20
 20
-1e+20
 30
-1e+20
  9
$LIMMIN
 10
0.0
 20
0.0
  9
$LIMMAX
 10
420.0
 20
297.0
  9
$ORTHOMODE
 70
0
  9
$REGENMODE
 70
1
  9
$FILLMODE
 70
1
  9
$QTEXTMODE
 70
0
  9
$MIRRTEXT
 70
1
  9
$LTSCALE
 40
1.0
  9
$ATTMODE
 70
1
  9
$TEXTSIZE
 40
2.5
  9
$TRACEWID
 40
1.0
  9
$TEXTSTYLE
  7
Standard
  9
$CLAYER
  8
0
  9
$CELTYPE
  6
ByLayer
  9
$CECOLOR
 62
256
  9
$CELTSCALE
 40
1.0
  9
$DISPSILH
 70
0
  9
$DIMSCALE
 40
1.0
  9
$DIMASZ
 40
2.5
  9
$DIMEXO
 40
0.625
  9
$DIMDLI
 40
3.75
  9
$DIMRND
 40
0.0
  9
$DIMDLE
 40
0.0
  9
$DIMEXE
 40
1.25
  9
$DIMTP
 40
0.0
  9
$DIMTM
 40
0.0
  9
$DIMTXT
 40
2.5
  9
$DIMCEN
 40
2.5
  9
$DIMTSZ
 40
0.0
  9
$DIMTOL
 70
0
  9
$DIMLIM
 70
0
  9
$DIMTIH
 70
0
  9
$DIMTOH
 70
0
  9
$DIMSE1
 70
0
  9
$DIMSE2
 70
0
  9
$DIMTAD
 70
1
  9
$DIMZIN
 70
8
  9
$DIMBLK
  1

  9
$DIMASO
 70
1
  9
$DIMSHO
 70
1
  9
$DIMPOST
  1

  9
$DIMAPOST
  1

  9
$DIMALT
 70
0
  9
$DIMALTD
 70
3
  9
$DIMALTF
 40
0.03937007874
  9
$DIMLFAC
 40
1.0
  9
$DIMTOFL
 70
1
  9
$DIMTVP
 40
0.0
  9
$DIMTIX
 70
0
  9
$DIMSOXD
 70
0
  9
$DIMSAH
 70
0
  9
$DIMBLK1
  1

  9
$DIMBLK2
  1

  9
$DIMSTYLE
  2
ISO-25
  9
$DIMCLRD
 70
0
  9
$DIMCLRE
 70
0
  9
$DIMCLRT
 70
0
  9
$DIMTFAC
 40
1.0
  9
$DIMGAP
 40
0.625
  9
$DIMJUST
 70
0
  9
$DIMSD1
 70
0
  9
$DIMSD2
 70
0
  9
$DIMTOLJ
 70
0
  9
$DIMTZIN
 70
8
  9
$DIMALTZ
 70
0
  9
$DIMALTTZ
 70
0
  9
$DIMUPT
 70
0
  9
$DIMDEC
 70
2
  9
$DIMTDEC
 70
2
  9
$DIMALTU
 70
2
  9
$DIMALTTD
 70
3
  9
$DIMTXSTY
  7
Standard
  9
$DIMAUNIT
 70
0
  9
$DIMADEC
 70
0
  9
$DIMALTRND
 40
0.0
  9
$DIMAZIN
 70
0
  9
$DIMDSEP
 70
44
  9
$DIMATFIT
 70
3
  9
$DIMFRAC
 70
0
  9
$DIMLDRBLK
  1

  9
$DIMLUNIT
 70
2
  9
$DIMLWD
 70
-2
  9
$DIMLWE
 70
-2
  9
$DIMTMOVE
 70
0
  9
$LUNITS
 70
2
  9
$LUPREC
 70
4
  9
$SKETCHINC
 40
1.0
  9
$FILLETRAD
 40
10.0
  9
$AUNITS
 70
0
  9
$AUPREC
 70
2
  9
$MENU
  1
.
  9
$ELEVATION
 40
0.0
  9
$PELEVATION
 40
0.0
  9
$THICKNESS
 40
0.0
  9
$LIMCHECK
 70
0
  9
$CHAMFERA
 40
0.0
  9
$CHAMFERB
 40
0.0
  9
$CHAMFERC
 40
0.0
  9
$CHAMFERD
 40
0.0
  9
$SKPOLY
 70
0
  9
$TDCREATE
 40
2461278.831388889
  9
$TDUCREATE
 40
2458532.153996898
  9
$TDUPDATE
 40
2461278.831388889
  9
$TDUUPDATE
 40
2458532.1544311
  9
$TDINDWG
 40
0.0
  9
$TDUSRTIMER
 40
0.0
  9
$USRTIMER
 70
1
  9
$ANGBASE
 50
0.0
  9
$ANGDIR
 70
0
  9
$PDMODE
 70
0
  9
$PDSIZE
 40
0.0
  9
$PLINEWID
 40
0.0
  9
$SPLFRAME
 70
0
  9
$SPLINETYPE
 70
6
  9
$SPLINESEGS
 70
8
  9
$HANDSEED
  5
3C
  9
$SURFTAB1
 70
6
  9
$SURFTAB2
 70
6
  9
$SURFTYPE
 70
6
  9
$SURFU
 70
6
  9
$SURFV
 70
6
  9
$UCSBASE
  2

  9
$UCSNAME
  2

  9
$UCSORG
 10
0.0
 20
0.0
 30
0.0
  9
$UCSXDIR
 10
1.0
 20
0.0
 30
0.0
  9
$UCSYDIR
 10
0.0
 20
1.0
 30
0.0
  9
$UCSORTHOREF
  2

  9
$UCSORTHOVIEW
 70
0
  9
$UCSORGTOP
 10
0.0
 20
0.0
 30
0.0
  9
$UCSORGBOTTOM
 10
0.0
 20
0.0
 30
0.0
  9
$UCSORGLEFT
 10
0.0
 20
0.0
 30
0.0
  9
$UCSORGRIGHT
 10
0.0
 20
0.0
 30
0.0
  9
$UCSORGFRONT
 10
0.0
 20
0.0
 30
0.0
  9
$UCSORGBACK
 10
0.0
 20
0.0
 30
0.0
  9
$PUCSBASE
  2

  9
$PUCSNAME
  2

  9
$PUCSORG
 10
0.0
 20
0.0
 30
0.0
  9
$PUCSXDIR
 10
1.0
 20
0.0
 30
0.0
  9
$PUCSYDIR
 10
0.0
 20
1.0
 30
0.0
  9
$PUCSORTHOREF
  2

  9
$PUCSORTHOVIEW
 70
0
  9
$PUCSORGTOP
 10
0.0
 20
0.0
 30
0.0
  9
$PUCSORGBOTTOM
 10
0.0
 20
0.0
 30
0.0
  9
$PUCSORGLEFT
 10
0.0
 20
0.0
 30
0.0
  9
$PUCSORGRIGHT
 10
0.0
 20
0.0
 30
0.0
  9
$PUCSORGFRONT
 10
0.0
 20
0.0
 30
0.0
  9
$PUCSORGBACK
 10
0.0
 20
0.0
 30
0.0
  9
$USERI1
 70
0
  9
$USERI2
 70
0
  9
$USERI3
 70
0
  9
$USERI4
 70
0
  9
$USERI5
 70
0
  9
$USERR1
 40
0.0
  9
$USERR2
 40
0.0
  9
$USERR3
 40
0.0
  9
$USERR4
 40
0.0
  9
$USERR5
 40
0.0
  9
$WORLDVIEW
 70
1
  9
$SHADEDGE
 70
3
  9
$SHADEDIF
 70
70
  9
$TILEMODE
 70
1
  9
$MAXACTVP
 70
64
  9
$PINSBASE
 10
0.0
 20
0.0
 30
0.0
  9
$PLIMCHECK
 70
0
  9
$PEXTMIN
 10
1e+20
 20
1e+20
 30
1e+20
  9
$PEXTMAX
 10
-1e+20
 20
-1e+20
 30
-1e+20
  9
$PLIMMIN
 10
0.0
 20
0.0
  9
$PLIMMAX
 10
420.0
 20
297.0
  9
$UNITMODE
 70
0
  9
$VISRETAIN
 70
1
  9
$PLINEGEN
 70
0
  9
$PSLTSCALE
 70
1
  9
$TREEDEPTH
 70
3020
  9
$CMLSTYLE
  2
Standard
  9
$CMLJUST
 70
0
  9
$CMLSCALE
 40
20.0
  9
$PROXYGRAPHICS
 70
1
  9
$MEASUREMENT
 70
1
  9
$CELWEIGHT
370
-1
  9
$ENDCAPS
280
0
  9
$JOINSTYLE
280
0
  9
$LWDISPLAY
290
0
  9
$INSUNITS
 70
4
  9
$HYPERLINKBASE
  1

  9
$STYLESHEET
  1

  9
$XEDIT
290
1
  9
$CEPSNTYPE
380
0
  9
$PSTYLEMODE
290
1
  9
$FINGERPRINTGUID
  2
{364BAA62-2FB3-4939-8F35-C9A6B66B6332}
  9
$VERSIONGUID
  2
{49657BCB-72F7-4910-966C-E7094C155DDB}
  9
$EXTNAMES
290
1
  9
$PSVPSCALE
 40
0.0
  9
$OLESTARTUP
290
0
  0
ENDSEC
  0
SECTION
  2
CLASSES
  0
CLASS
  1
ACDBDICTIONARYWDFLT
  2
AcDbDictionaryWithDefault
  3
ObjectDBX Classes
 90
0
280
0
281
0
  0
CLASS
  1
SUN
  2
AcDbSun
  3
SCENEOE
 90
1153
280
0
281
0
  0
CLASS
  1
VISUALSTYLE
  2
AcDbVisualStyle
  3
ObjectDBX Classes
 90
4095
280
0
281
0
  0
CLASS
  1
MATERIAL
  2
AcDbMaterial
  3
ObjectDBX Classes
 90
1153
280
0
281
0
  0
CLASS
  1
SCALE
  2
AcDbScale
  3
ObjectDBX Classes
 90
1153
280
0
281
0
  0
CLASS
  1
TABLESTYLE
  2
AcDbTableStyle
  3
ObjectDBX Classes
 90
4095
280
0
281
0
  0
CLASS
  1
MLEADERSTYLE
  2
AcDbMLeaderStyle
  3
ACDB_MLEADERSTYLE_CLASS
 90
4095
280
0
281
0
  0
CLASS
  1
DICTIONARYVAR
  2
AcDbDictionaryVar
  3
ObjectDBX Classes
 90
0
280
0
281
0
  0
CLASS
  1
CELLSTYLEMAP
  2
AcDbCellStyleMap
  3
ObjectDBX Classes
 90
1152
280
0
281
0
  0
CLASS
  1
MENTALRAYRENDERSETTINGS
  2
AcDbMentalRayRenderSettings
  3
SCENEOE
 90
1024
280
0
281
0
  0
CLASS
  1
ACDBDETAILVIEWSTYLE
  2
AcDbDetailViewStyle
  3
ObjectDBX Classes
 90
1025
280
0
281
0
  0
CLASS
  1
ACDBSECTIONVIEWSTYLE
  2
AcDbSectionViewStyle
  3
ObjectDBX Classes
 90
1025
280
0
281
0
  0
CLASS
  1
RASTERVARIABLES
  2
AcDbRasterVariables
  3
ISM
 90
0
280
0
281
0
  0
CLASS
  1
ACDBPLACEHOLDER
  2
AcDbPlaceHolder
  3
ObjectDBX Classes
 90
0
280
0
281
0
  0
CLASS
  1
LAYOUT
  2
AcDbLayout
  3
ObjectDBX Classes
 90
0
280
0
281
0
  0
ENDSEC
  0
SECTION
  2
TABLES
  0
TABLE
  2
VPORT
  5
8
330
0
100
AcDbSymbolTable
 70
1
  0
VPORT
  5
23
330
8
100
AcDbSymbolTableRecord
100
AcDbViewportTableRecord
  2
*Active
 70
0
 10
0.0
 20
0.0
 11
1.0
 21
1.0
 12
0.0
 22
0.0
 13
0.0
 23
0.0
 14
0.5
 24
0.5
 15
0.5
 25
0.5
 16
0.0
 26
0.0
 36
1.0
 17
0.0
 27
0.0
 37
0.0
 40
1000.0
 41
1.34
 42
50.0
 43
0.0
 44
0.0
 50
0.0
 51
0.0
 71
0
 72
1000
 73
1
 74
3
 75
0
 76
0
 77
0
 78
0
281
0
 65
0
146
0.0
  0
ENDTAB
  0
TABLE
  2
LTYPE
  5
2
330
0
100
AcDbSymbolTable
 70
3
  0
LTYPE
  5
24
330
2
100
AcDbSymbolTableRecord
100
AcDbLinetypeTableRecord
  2
ByBlock
 70
0
  3

 72
65
 73
0
 40
0.0
  0
LTYPE
  5
25
330
2
100
AcDbSymbolTableRecord
100
AcDbLinetypeTableRecord
  2
ByLayer
 70
0
  3

 72
65
 73
0
 40
0.0
  0
LTYPE
  5
26
330
2
100
AcDbSymbolTableRecord
100
AcDbLinetypeTableRecord
  2
Continuous
 70
0
  3

 72
65
 73
0
 40
0.0
  0
ENDTAB
  0
TABLE
  2
LAYER
  5
1
330
0
100
AcDbSymbolTable
 70
4
  0
LAYER
  5
27
330
1
100
AcDbSymbolTableRecord
100
AcDbLayerTableRecord
  2
0
 70
0
 62
7
  6
Continuous
370
-3
390
13
  0
LAYER
  5
28
330
1
100
AcDbSymbolTableRecord
100
AcDbLayerTableRecord
  2
Defpoints
 70
0
 62
7
  6
Continuous
290
0
370
-3
390
13
  0
LAYER
  5
2F
330
1
100
AcDbSymbolTableRecord
100
AcDbLayerTableRecord
  2
CUT
 70
0
 62
1
  6
Continuous
370
-3
390
13
  0
LAYER
  5
30
330
1
100
AcDbSymbolTableRecord
100
AcDbLayerTableRecord
  2
RASTER
 70
0
 62
7
  6
Continuous
370
-3
390
13
  0
ENDTAB
  0
TABLE
  2
STYLE
  5
5
330
0
100
AcDbSymbolTable
 70
1
  0
STYLE
  5
29
330
5
100
AcDbSymbolTableRecord
100
AcDbTextStyleTableRecord
  2
Standard
 70
0
 40
0.0
 41
1.0
 50
0.0
 71
0
 42
2.5
  3
txt
  4

  0
ENDTAB
  0
TABLE
  2
VIEW
  5
7
330
0
100
AcDbSymbolTable
 70
0
  0
ENDTAB
  0
TABLE
  2
UCS
  5
6
330
0
100
AcDbSymbolTable
 70
0
  0
ENDTAB
  0
TABLE
  2
APPID
  5
3
330
0
100
AcDbSymbolTable
 70
3
  0
APPID
  5
2A
330
3
100
AcDbSymbolTableRecord
100
AcDbRegAppTableRecord
  2
ACAD
 70
0
  0
APPID
  5
39
330
3
100
AcDbSymbolTableRecord
100
AcDbRegAppTableRecord
  2
HATCHBACKGROUNDCOLOR
 70
0
  0
APPID
  5
3A
330
3
100
AcDbSymbolTableRecord
100
AcDbRegAppTableRecord
  2
EZDXF
 70
0
  0
ENDTAB
  0
TABLE
  2
DIMSTYLE
  5
4
330
0
100
AcDbSymbolTable
 70
1
100
AcDbDimStyleTable
  0
DIMSTYLE
105
2B
330
4
100
AcDbSymbolTableRecord
100
AcDbDimStyleTableRecord
  2
Standard
 70
0
  3

  4

 40
1.0
 41
2.5
 42
0.625
 43
3.75
 44
1.25
 45
0.0
 46
0.0
 47
0.0
 48
0.0
140
2.5
141
2.5
142
0.0
143
0.03937007874
144
1.0
145
0.0
146
1.0
147
0.625
148
0.0
 71
0
 72
0
 73
0
 74
0
 75
0
 76
0
 77
1
 78
8
 79
3
170
0
171
3
172
1
173
0
174
0
175
0
176
0
177
0
178
0
179
2
271
2
272
2
273
2
274
3
275
0
276
0
277
2
278
44
279
0
280
0
281
0
282
0
283
0
284
8
285
0
286
0
288
0
289
3
371
-2
372
-2
  0
ENDTAB
  0
TABLE
  2
BLOCK_RECORD
  5
9
330
0
100
AcDbSymbolTable
 70
2
  0
BLOCK_RECORD
  5
17
330
9
100
AcDbSymbolTableRecord
100
AcDbBlockTableRecord
  2
*Model_Space
340
1A
  0
BLOCK_RECORD
  5
1B
330
9
100
AcDbSymbolTableRecord
100
AcDbBlockTableRecord
  2
*Paper_Space
340
1E
  0
ENDTAB
  0
ENDSEC
  0
SECTION
  2
BLOCKS
  0
BLOCK
  5
18
330
17
100
AcDbEntity
  8
0
100
AcDbBlockBegin
  2
*Model_Space
 70
0
 10
0.0
 20
0.0
 30
0.0
  3
*Model_Space
  1

  0
ENDBLK
  5
19
330
17
100
AcDbEntity
  8
0
100
AcDbBlockEnd
  0
BLOCK
  5
1C
330
1B
100
AcDbEntity
  8
0
100
AcDbBlockBegin
  2
*Paper_Space
 70
0
 10
0.0
 20
0.0
 30
0.0
  3
*Paper_Space
  1

  0
ENDBLK
  5
1D
330
1B
100
AcDbEntity
  8
0
100
AcDbBlockEnd
  0
ENDSEC
  0
SECTION
  2
ENTITIES
  0
LWPOLYLINE
  5
31
330
17
100
AcDbEntity
  8
CUT
100
AcDbPolyline
 90
52
 70
1
 10
3.96
 20
26.201
 10
3.974
 20
26.523
 10
4.016
 20
26.819
 10
4.087
 20
27.088
 10
4.186
 20
27.329
 10
4.315
 20
27.543
 10
4.472
 20
27.728
 10
4.657
 20
27.885
 10
4.871
 20
28.014
 10
5.112
 20
28.113
 10
5.381
 20
28.184
 10
5.677
 20
28.226
 10
5.999
 20
28.24
 10
26.201
 20
28.24
 10
26.523
 20
28.226
 10
26.819
 20
28.184
 10
27.088
 20
28.113
 10
27.329
 20
28.014
 10
27.543
 20
27.885
 10
27.728
 20
27.728
 10
27.885
 20
27.543
 10
28.014
 20
27.329
 10
28.113
 20
27.088
 10
28.184
 20
26.819
 10
28.226
 20
26.523
 10
28.24
 20
26.201
 10
28.24
 20
5.999
 10
28.226
 20
5.677
 10
28.184
 20
5.381
 10
28.113
 20
5.112
 10
28.014
 20
4.871
 10
27.885
 20
4.657
 10
27.728
 20
4.472
 10
27.543
 20
4.315
 10
27.329
 20
4.186
 10
27.088
 20
4.087
 10
26.819
 20
4.016
 10
26.523
 20
3.974
 10
26.201
 20
3.96
 10
5.999
 20
3.96
 10
5.677
 20
3.974
 10
5.381
 20
4.016
 10
5.112
 20
4.087
 10
4.871
 20
4.186
 10
4.657
 20
4.315
 10
4.472
 20
4.472
 10
4.315
 20
4.657
 10
4.186
 20
4.871
 10
4.087
 20
5.112
 10
4.016
 20
5.381
 10
3.974
 20
5.677
 10
3.96
 20
5.999
  0
HATCH
  5
32
330
17
100
AcDbEntity
  8
RASTER
 62
7
100
AcDbHatch
 10
0.0
 20
0.0
 30
0.0
210
0.0
220
0.0
230
1.0
  2
SOLID
 70
1
 71
0
 91
3
 92
3
 72
0
 73
1
 93
86
 10
14.274
 20
25.529
 10
17.0
 20
25.569
 10
18.712
 20
25.042
 10
20.332
 20
24.159
 10
21.781
 20
22.842
 10
22.927
 20
20.827
 10
23.322
 20
19.247
 10
23.322
 20
17.403
 10
23.059
 20
16.481
 10
23.098
 20
16.125
 10
23.586
 20
17.007
 10
23.981
 20
18.588
 10
23.981
 20
19.773
 10
23.718
 20
21.091
 10
23.191
 20
22.539
 10
23.283
 20
23.106
 10
23.718
 20
23.33
 10
24.284
 20
23.106
 10
24.679
 20
22.579
 10
25.693
 20
20.432
 10
25.957
 20
19.247
 10
25.957
 20
16.744
 10
25.562
 20
15.163
 10
24.547
 20
13.148
 10
24.152
 20
12.621
 10
22.572
 20
11.172
 10
20.688
 20
10.158
 10
19.898
 20
9.895
 10
17.79
 20
9.631
 10
17.527
 20
9.763
 10
16.605
 20
9.763
 10
15.288
 20
10.158
 10
14.063
 20
10.777
 10
13.141
 20
11.436
 10
12.956
 20
11.778
 10
12.785
 20
11.739
 10
13.273
 20
10.909
 10
14.195
 20
9.987
 10
15.38
 20
9.197
 10
16.21
 20
8.841
 10
17.659
 20
8.446
 10
19.634
 20
8.446
 10
19.898
 20
8.578
 10
20.991
 20
8.485
 10
21.215
 20
8.051
 10
20.991
 20
7.616
 10
19.766
 20
6.997
 10
18.581
 20
6.865
 10
18.317
 20
6.734
 10
16.341
 20
6.734
 10
14.366
 20
7.26
 10
12.614
 20
8.143
 10
11.824
 20
8.67
 10
10.638
 20
9.855
 10
9.848
 20
11.041
 10
9.229
 20
12.397
 10
8.834
 20
13.846
 10
8.834
 20
16.085
 10
8.965
 20
16.744
 10
9.361
 20
17.929
 10
10.243
 20
19.549
 10
11.56
 20
20.867
 10
13.18
 20
21.749
 10
14.497
 20
22.144
 10
16.341
 20
22.144
 10
16.434
 20
22.236
 10
15.156
 20
22.539
 10
14.497
 20
22.539
 10
13.18
 20
22.276
 10
11.297
 20
21.525
 10
10.243
 20
20.867
 10
8.926
 20
19.549
 10
8.043
 20
18.061
 10
7.648
 20
17.007
 10
7.517
 20
16.217
 10
7.293
 20
15.914
 10
7.121
 20
15.822
 10
6.555
 20
15.914
 10
6.199
 20
16.612
 10
6.331
 20
18.061
 10
6.858
 20
19.773
 10
7.74
 20
21.393
 10
8.662
 20
22.579
 10
9.453
 20
23.369
 10
10.77
 20
24.291
 10
12.39
 20
25.042
 97
0
 92
3
 72
0
 73
1
 93
67
 10
15.551
 20
25.042
 10
15.288
 20
24.91
 10
13.707
 20
24.779
 10
12.127
 20
24.252
 10
10.77
 20
23.501
 10
9.716
 20
22.711
 10
8.531
 20
21.393
 10
7.517
 20
19.642
 10
6.99
 20
18.061
 10
6.858
 20
16.744
 10
6.95
 20
16.652
 10
7.121
 20
17.007
 10
7.385
 20
18.061
 10
8.004
 20
19.286
 10
8.662
 20
20.208
 10
9.716
 20
21.262
 10
10.902
 20
22.052
 10
12.258
 20
22.671
 10
13.839
 20
23.066
 10
15.683
 20
23.066
 10
16.341
 20
22.935
 10
17.132
 20
22.671
 10
18.225
 20
22.052
 10
19.147
 20
21.13
 10
19.766
 20
20.037
 10
20.029
 20
19.247
 10
20.161
 20
17.798
 10
19.898
 20
16.876
 10
19.41
 20
15.914
 10
18.752
 20
15.256
 10
17.79
 20
14.768
 10
16.868
 20
14.768
 10
16.302
 20
14.992
 10
15.775
 20
15.387
 10
15.419
 20
16.085
 10
15.419
 20
16.481
 10
15.643
 20
16.915
 10
15.946
 20
17.139
 10
16.605
 20
17.139
 10
17.092
 20
16.915
 10
17.132
 20
17.403
 10
16.776
 20
17.837
 10
16.341
 20
18.061
 10
15.815
 20
18.061
 10
15.117
 20
17.705
 10
14.629
 20
17.007
 10
14.497
 20
16.612
 10
14.497
 20
15.69
 10
14.629
 20
15.295
 10
15.117
 20
14.465
 10
15.512
 20
14.07
 10
16.868
 20
13.319
 10
17.263
 20
13.188
 10
19.239
 20
13.188
 10
20.029
 20
13.451
 10
21.123
 20
14.07
 10
21.518
 20
14.465
 10
22.045
 20
15.256
 10
22.532
 20
16.481
 10
22.532
 20
17.007
 10
22.664
 20
17.271
 10
22.664
 20
19.247
 10
22.269
 20
20.695
 10
21.781
 20
21.657
 10
21.123
 20
22.579
 10
19.674
 20
23.764
 10
17.395
 20
24.779
 97
0
 92
3
 72
0
 73
1
 93
86
 10
23.941
 20
22.5
 10
23.849
 20
22.408
 10
24.508
 20
20.3
 10
24.508
 20
18.061
 10
23.981
 20
16.349
 10
23.362
 20
15.256
 10
23.019
 20
14.939
 10
22.835
 20
14.597
 10
21.913
 20
13.807
 10
20.425
 20
12.924
 10
19.107
 20
12.529
 10
17.395
 20
12.529
 10
16.473
 20
12.792
 10
15.512
 20
13.28
 10
14.985
 20
13.675
 10
14.326
 20
14.465
 10
13.839
 20
15.954
 10
14.102
 20
17.271
 10
14.59
 20
18.101
 10
15.551
 20
18.588
 10
16.737
 20
18.588
 10
17.487
 20
18.153
 10
17.698
 20
17.837
 10
17.79
 20
16.876
 10
17.263
 20
16.349
 10
16.605
 20
16.349
 10
16.118
 20
16.573
 10
16.078
 20
16.217
 10
16.302
 20
15.782
 10
17.263
 20
15.295
 10
17.922
 20
15.427
 10
18.62
 20
15.782
 10
19.015
 20
16.178
 10
19.503
 20
17.139
 10
19.634
 20
17.534
 10
19.634
 20
18.72
 10
19.279
 20
19.681
 10
18.488
 20
20.603
 10
17.395
 20
21.222
 10
16.473
 20
21.486
 10
14.761
 20
21.486
 10
13.312
 20
21.091
 10
12.351
 20
20.603
 10
11.297
 20
19.813
 10
10.507
 20
18.759
 10
9.624
 20
16.744
 10
9.492
 20
16.085
 10
9.492
 20
13.714
 10
9.887
 20
12.397
 10
10.507
 20
11.172
 10
11.165
 20
10.25
 10
12.351
 20
9.065
 10
14.366
 20
7.919
 10
16.21
 20
7.392
 10
18.449
 20
7.392
 10
20.122
 20
7.827
 10
19.371
 20
7.919
 10
19.107
 20
7.787
 10
18.449
 20
7.787
 10
18.185
 20
7.919
 10
16.605
 20
8.051
 10
14.853
 20
8.802
 10
13.536
 20
9.724
 10
12.614
 20
10.777
 10
11.863
 20
12.266
 10
11.6
 20
13.188
 10
11.508
 20
14.149
 10
11.6
 20
15.032
 10
11.824
 20
15.519
 10
12.127
 20
14.11
 10
13.009
 20
12.49
 10
13.799
 20
11.699
 10
15.288
 20
10.817
 10
16.605
 20
10.422
 10
18.449
 20
10.29
 10
18.712
 20
10.422
 10
19.898
 20
10.553
 10
21.386
 20
11.172
 10
22.572
 20
11.963
 10
23.625
 20
13.016
 10
24.903
 20
15.295
 10
25.298
 20
16.612
 10
25.298
 20
17.139
 10
25.43
 20
17.403
 10
25.298
 20
19.378
 10
24.771
 20
21.091
 97
0
 75
0
 76
1
 98
0
  0
LWPOLYLINE
  5
33
330
17
100
AcDbEntity
  8
CUT
100
AcDbPolyline
 90
52
 70
1
 10
32.16
 20
26.201
 10
32.174
 20
26.523
 10
32.216
 20
26.819
 10
32.287
 20
27.088
 10
32.386
 20
27.329
 10
32.515
 20
27.543
 10
32.672
 20
27.728
 10
32.857
 20
27.885
 10
33.071
 20
28.014
 10
33.312
 20
28.113
 10
33.581
 20
28.184
 10
33.877
 20
28.226
 10
34.199
 20
28.24
 10
54.401
 20
28.24
 10
54.723
 20
28.226
 10
55.019
 20
28.184
 10
55.288
 20
28.113
 10
55.529
 20
28.014
 10
55.743
 20
27.885
 10
55.928
 20
27.728
 10
56.085
 20
27.543
 10
56.214
 20
27.329
 10
56.313
 20
27.088
 10
56.384
 20
26.819
 10
56.426
 20
26.523
 10
56.44
 20
26.201
 10
56.44
 20
5.999
 10
56.426
 20
5.677
 10
56.384
 20
5.381
 10
56.313
 20
5.112
 10
56.214
 20
4.871
 10
56.085
 20
4.657
 10
55.928
 20
4.472
 10
55.743
 20
4.315
 10
55.529
 20
4.186
 10
55.288
 20
4.087
 10
55.019
 20
4.016
 10
54.723
 20
3.974
 10
54.401
 20
3.96
 10
34.199
 20
3.96
 10
33.877
 20
3.974
 10
33.581
 20
4.016
 10
33.312
 20
4.087
 10
33.071
 20
4.186
 10
32.857
 20
4.315
 10
32.672
 20
4.472
 10
32.515
 20
4.657
 10
32.386
 20
4.871
 10
32.287
 20
5.112
 10
32.216
 20
5.381
 10
32.174
 20
5.677
 10
32.16
 20
5.999
  0
HATCH
  5
34
330
17
100
AcDbEntity
  8
RASTER
 62
7
100
AcDbHatch
 10
0.0
 20
0.0
 30
0.0
210
0.0
220
0.0
230
1.0
  2
SOLID
 70
1
 71
0
 91
3
 92
3
 72
0
 73
1
 93
86
 10
42.474
 20
25.529
 10
45.2
 20
25.569
 10
46.912
 20
25.042
 10
48.532
 20
24.159
 10
49.981
 20
22.842
 10
51.127
 20
20.827
 10
51.522
 20
19.247
 10
51.522
 20
17.403
 10
51.259
 20
16.481
 10
51.298
 20
16.125
 10
51.786
 20
17.007
 10
52.181
 20
18.588
 10
52.181
 20
19.773
 10
51.918
 20
21.091
 10
51.391
 20
22.539
 10
51.483
 20
23.106
 10
51.918
 20
23.33
 10
52.484
 20
23.106
 10
52.879
 20
22.579
 10
53.893
 20
20.432
 10
54.157
 20
19.247
 10
54.157
 20
16.744
 10
53.762
 20
15.163
 10
52.747
 20
13.148
 10
52.352
 20
12.621
 10
50.772
 20
11.172
 10
48.888
 20
10.158
 10
48.098
 20
9.895
 10
45.99
 20
9.631
 10
45.727
 20
9.763
 10
44.805
 20
9.763
 10
43.488
 20
10.158
 10
42.263
 20
10.777
 10
41.341
 20
11.436
 10
41.156
 20
11.778
 10
40.985
 20
11.739
 10
41.473
 20
10.909
 10
42.395
 20
9.987
 10
43.58
 20
9.197
 10
44.41
 20
8.841
 10
45.859
 20
8.446
 10
47.834
 20
8.446
 10
48.098
 20
8.578
 10
49.191
 20
8.485
 10
49.415
 20
8.051
 10
49.191
 20
7.616
 10
47.966
 20
6.997
 10
46.781
 20
6.865
 10
46.517
 20
6.734
 10
44.541
 20
6.734
 10
42.566
 20
7.26
 10
40.814
 20
8.143
 10
40.024
 20
8.67
 10
38.838
 20
9.855
 10
38.048
 20
11.041
 10
37.429
 20
12.397
 10
37.034
 20
13.846
 10
37.034
 20
16.085
 10
37.165
 20
16.744
 10
37.561
 20
17.929
 10
38.443
 20
19.549
 10
39.76
 20
20.867
 10
41.38
 20
21.749
 10
42.697
 20
22.144
 10
44.541
 20
22.144
 10
44.634
 20
22.236
 10
43.356
 20
22.539
 10
42.697
 20
22.539
 10
41.38
 20
22.276
 10
39.497
 20
21.525
 10
38.443
 20
20.867
 10
37.126
 20
19.549
 10
36.243
 20
18.061
 10
35.848
 20
17.007
 10
35.717
 20
16.217
 10
35.493
 20
15.914
 10
35.321
 20
15.822
 10
34.755
 20
15.914
 10
34.399
 20
16.612
 10
34.531
 20
18.061
 10
35.058
 20
19.773
 10
35.94
 20
21.393
 10
36.862
 20
22.579
 10
37.653
 20
23.369
 10
38.97
 20
24.291
 10
40.59
 20
25.042
 97
0
 92
3
 72
0
 73
1
 93
67
 10
43.751
 20
25.042
 10
43.488
 20
24.91
 10
41.907
 20
24.779
 10
40.327
 20
24.252
 10
38.97
 20
23.501
 10
37.916
 20
22.711
 10
36.731
 20
21.393
 10
35.717
 20
19.642
 10
35.19
 20
18.061
 10
35.058
 20
16.744
 10
35.15
 20
16.652
 10
35.321
 20
17.007
 10
35.585
 20
18.061
 10
36.204
 20
19.286
 10
36.862
 20
20.208
 10
37.916
 20
21.262
 10
39.102
 20
22.052
 10
40.458
 20
22.671
 10
42.039
 20
23.066
 10
43.883
 20
23.066
 10
44.541
 20
22.935
 10
45.332
 20
22.671
 10
46.425
 20
22.052
 10
47.347
 20
21.13
 10
47.966
 20
20.037
 10
48.229
 20
19.247
 10
48.361
 20
17.798
 10
48.098
 20
16.876
 10
47.61
 20
15.914
 10
46.952
 20
15.256
 10
45.99
 20
14.768
 10
45.068
 20
14.768
 10
44.502
 20
14.992
 10
43.975
 20
15.387
 10
43.619
 20
16.085
 10
43.619
 20
16.481
 10
43.843
 20
16.915
 10
44.146
 20
17.139
 10
44.805
 20
17.139
 10
45.292
 20
16.915
 10
45.332
 20
17.403
 10
44.976
 20
17.837
 10
44.541
 20
18.061
 10
44.015
 20
18.061
 10
43.317
 20
17.705
 10
42.829
 20
17.007
 10
42.697
 20
16.612
 10
42.697
 20
15.69
 10
42.829
 20
15.295
 10
43.317
 20
14.465
 10
43.712
 20
14.07
 10
45.068
 20
13.319
 10
45.463
 20
13.188
 10
47.439
 20
13.188
 10
48.229
 20
13.451
 10
49.323
 20
14.07
 10
49.718
 20
14.465
 10
50.245
 20
15.256
 10
50.732
 20
16.481
 10
50.732
 20
17.007
 10
50.864
 20
17.271
 10
50.864
 20
19.247
 10
50.469
 20
20.695
 10
49.981
 20
21.657
 10
49.323
 20
22.579
 10
47.874
 20
23.764
 10
45.595
 20
24.779
 97
0
 92
3
 72
0
 73
1
 93
86
 10
52.141
 20
22.5
 10
52.049
 20
22.408
 10
52.708
 20
20.3
 10
52.708
 20
18.061
 10
52.181
 20
16.349
 10
51.562
 20
15.256
 10
51.219
 20
14.939
 10
51.035
 20
14.597
 10
50.113
 20
13.807
 10
48.625
 20
12.924
 10
47.307
 20
12.529
 10
45.595
 20
12.529
 10
44.673
 20
12.792
 10
43.712
 20
13.28
 10
43.185
 20
13.675
 10
42.526
 20
14.465
 10
42.039
 20
15.954
 10
42.302
 20
17.271
 10
42.79
 20
18.101
 10
43.751
 20
18.588
 10
44.937
 20
18.588
 10
45.687
 20
18.153
 10
45.898
 20
17.837
 10
45.99
 20
16.876
 10
45.463
 20
16.349
 10
44.805
 20
16.349
 10
44.318
 20
16.573
 10
44.278
 20
16.217
 10
44.502
 20
15.782
 10
45.463
 20
15.295
 10
46.122
 20
15.427
 10
46.82
 20
15.782
 10
47.215
 20
16.178
 10
47.703
 20
17.139
 10
47.834
 20
17.534
 10
47.834
 20
18.72
 10
47.479
 20
19.681
 10
46.688
 20
20.603
 10
45.595
 20
21.222
 10
44.673
 20
21.486
 10
42.961
 20
21.486
 10
41.512
 20
21.091
 10
40.551
 20
20.603
 10
39.497
 20
19.813
 10
38.707
 20
18.759
 10
37.824
 20
16.744
 10
37.692
 20
16.085
 10
37.692
 20
13.714
 10
38.087
 20
12.397
 10
38.707
 20
11.172
 10
39.365
 20
10.25
 10
40.551
 20
9.065
 10
42.566
 20
7.919
 10
44.41
 20
7.392
 10
46.649
 20
7.392
 10
48.322
 20
7.827
 10
47.571
 20
7.919
 10
47.307
 20
7.787
 10
46.649
 20
7.787
 10
46.385
 20
7.919
 10
44.805
 20
8.051
 10
43.053
 20
8.802
 10
41.736
 20
9.724
 10
40.814
 20
10.777
 10
40.063
 20
12.266
 10
39.8
 20
13.188
 10
39.708
 20
14.149
 10
39.8
 20
15.032
 10
40.024
 20
15.519
 10
40.327
 20
14.11
 10
41.209
 20
12.49
 10
41.999
 20
11.699
 10
43.488
 20
10.817
 10
44.805
 20
10.422
 10
46.649
 20
10.29
 10
46.912
 20
10.422
 10
48.098
 20
10.553
 10
49.586
 20
11.172
 10
50.772
 20
11.963
 10
51.825
 20
13.016
 10
53.103
 20
15.295
 10
53.498
 20
16.612
 10
53.498
 20
17.139
 10
53.63
 20
17.403
 10
53.498
 20
19.378
 10
52.971
 20
21.091
 97
0
 75
0
 76
1
 98
0
  0
LWPOLYLINE
  5
35
330
17
100
AcDbEntity
  8
CUT
100
AcDbPolyline
 90
52
 70
1
 10
60.36
 20
26.201
 10
60.374
 20
26.523
 10
60.416
 20
26.819
 10
60.487
 20
27.088
 10
60.586
 20
27.329
 10
60.715
 20
27.543
 10
60.872
 20
27.728
 10
61.057
 20
27.885
 10
61.271
 20
28.014
 10
61.512
 20
28.113
 10
61.781
 20
28.184
 10
62.077
 20
28.226
 10
62.399
 20
28.24
 10
82.601
 20
28.24
 10
82.923
 20
28.226
 10
83.219
 20
28.184
 10
83.488
 20
28.113
 10
83.729
 20
28.014
 10
83.943
 20
27.885
 10
84.128
 20
27.728
 10
84.285
 20
27.543
 10
84.414
 20
27.329
 10
84.513
 20
27.088
 10
84.584
 20
26.819
 10
84.626
 20
26.523
 10
84.64
 20
26.201
 10
84.64
 20
5.999
 10
84.626
 20
5.677
 10
84.584
 20
5.381
 10
84.513
 20
5.112
 10
84.414
 20
4.871
 10
84.285
 20
4.657
 10
84.128
 20
4.472
 10
83.943
 20
4.315
 10
83.729
 20
4.186
 10
83.488
 20
4.087
 10
83.219
 20
4.016
 10
82.923
 20
3.974
 10
82.601
 20
3.96
 10
62.399
 20
3.96
 10
62.077
 20
3.974
 10
61.781
 20
4.016
 10
61.512
 20
4.087
 10
61.271
 20
4.186
 10
61.057
 20
4.315
 10
60.872
 20
4.472
 10
60.715
 20
4.657
 10
60.586
 20
4.871
 10
60.487
 20
5.112
 10
60.416
 20
5.381
 10
60.374
 20
5.677
 10
60.36
 20
5.999
  0
HATCH
  5
36
330
17
100
AcDbEntity
  8
RASTER
 62
7
100
AcDbHatch
 10
0.0
 20
0.0
 30
0.0
210
0.0
220
0.0
230
1.0
  2
SOLID
 70
1
 71
0
 91
3
 92
3
 72
0
 73
1
 93
86
 10
70.674
 20
25.529
 10
73.4
 20
25.569
 10
75.112
 20
25.042
 10
76.732
 20
24.159
 10
78.181
 20
22.842
 10
79.327
 20
20.827
 10
79.722
 20
19.247
 10
79.722
 20
17.403
 10
79.459
 20
16.481
 10
79.498
 20
16.125
 10
79.986
 20
17.007
 10
80.381
 20
18.588
 10
80.381
 20
19.773
 10
80.118
 20
21.091
 10
79.591
 20
22.539
 10
79.683
 20
23.106
 10
80.118
 20
23.33
 10
80.684
 20
23.106
 10
81.079
 20
22.579
 10
82.093
 20
20.432
 10
82.357
 20
19.247
 10
82.357
 20
16.744
 10
81.962
 20
15.163
 10
80.947
 20
13.148
 10
80.552
 20
12.621
 10
78.972
 20
11.172
 10
77.088
 20
10.158
 10
76.298
 20
9.895
 10
74.19
 20
9.631
 10
73.927
 20
9.763
 10
73.005
 20
9.763
 10
71.688
 20
10.158
 10
70.463
 20
10.777
 10
69.541
 20
11.436
 10
69.356
 20
11.778
 10
69.185
 20
11.739
 10
69.673
 20
10.909
 10
70.595
 20
9.987
 10
71.78
 20
9.197
 10
72.61
 20
8.841
 10
74.059
 20
8.446
 10
76.034
 20
8.446
 10
76.298
 20
8.578
 10
77.391
 20
8.485
 10
77.615
 20
8.051
 10
77.391
 20
7.616
 10
76.166
 20
6.997
 10
74.981
 20
6.865
 10
74.717
 20
6.734
 10
72.741
 20
6.734
 10
70.766
 20
7.26
 10
69.014
 20
8.143
 10
68.224
 20
8.67
 10
67.038
 20
9.855
 10
66.248
 20
11.041
 10
65.629
 20
12.397
 10
65.234
 20
13.846
 10
65.234
 20
16.085
 10
65.365
 20
16.744
 10
65.761
 20
17.929
 10
66.643
 20
19.549
 10
67.96
 20
20.867
 10
69.58
 20
21.749
 10
70.897
 20
22.144
 10
72.741
 20
22.144
 10
72.834
 20
22.236
 10
71.556
 20
22.539
 10
70.897
 20
22.539
 10
69.58
 20
22.276
 10
67.697
 20
21.525
 10
66.643
 20
20.867
 10
65.326
 20
19.549
 10
64.443
 20
18.061
 10
64.048
 20
17.007
 10
63.917
 20
16.217
 10
63.693
 20
15.914
 10
63.521
 20
15.822
 10
62.955
 20
15.914
 10
62.599
 20
16.612
 10
62.731
 20
18.061
 10
63.258
 20
19.773
 10
64.14
 20
21.393
 10
65.062
 20
22.579
 10
65.853
 20
23.369
 10
67.17
 20
24.291
 10
68.79
 20
25.042
 97
0
 92
3
 72
0
 73
1
 93
67
 10
71.951
 20
25.042
 10
71.688
 20
24.91
 10
70.107
 20
24.779
 10
68.527
 20
24.252
 10
67.17
 20
23.501
 10
66.116
 20
22.711
 10
64.931
 20
21.393
 10
63.917
 20
19.642
 10
63.39
 20
18.061
 10
63.258
 20
16.744
 10
63.35
 20
16.652
 10
63.521
 20
17.007
 10
63.785
 20
18.061
 10
64.404
 20
19.286
 10
65.062
 20
20.208
 10
66.116
 20
21.262
 10
67.302
 20
22.052
 10
68.658
 20
22.671
 10
70.239
 20
23.066
 10
72.083
 20
23.066
 10
72.741
 20
22.935
 10
73.532
 20
22.671
 10
74.625
 20
22.052
 10
75.547
 20
21.13
 10
76.166
 20
20.037
 10
76.429
 20
19.247
 10
76.561
 20
17.798
 10
76.298
 20
16.876
 10
75.81
 20
15.914
 10
75.152
 20
15.256
 10
74.19
 20
14.768
 10
73.268
 20
14.768
 10
72.702
 20
14.992
 10
72.175
 20
15.387
 10
71.819
 20
16.085
 10
71.819
 20
16.481
 10
72.043
 20
16.915
 10
72.346
 20
17.139
 10
73.005
 20
17.139
 10
73.492
 20
16.915
 10
73.532
 20
17.403
 10
73.176
 20
17.837
 10
72.741
 20
18.061
 10
72.215
 20
18.061
 10
71.517
 20
17.705
 10
71.029
 20
17.007
 10
70.897
 20
16.612
 10
70.897
 20
15.69
 10
71.029
 20
15.295
 10
71.517
 20
14.465
 10
71.912
 20
14.07
 10
73.268
 20
13.319
 10
73.663
 20
13.188
 10
75.639
 20
13.188
 10
76.429
 20
13.451
 10
77.523
 20
14.07
 10
77.918
 20
14.465
 10
78.445
 20
15.256
 10
78.932
 20
16.481
 10
78.932
 20
17.007
 10
79.064
 20
17.271
 10
79.064
 20
19.247
 10
78.669
 20
20.695
 10
78.181
 20
21.657
 10
77.523
 20
22.579
 10
76.074
 20
23.764
 10
73.795
 20
24.779
 97
0
 92
3
 72
0
 73
1
 93
86
 10
80.341
 20
22.5
 10
80.249
 20
22.408
 10
80.908
 20
20.3
 10
80.908
 20
18.061
 10
80.381
 20
16.349
 10
79.762
 20
15.256
 10
79.419
 20
14.939
 10
79.235
 20
14.597
 10
78.313
 20
13.807
 10
76.825
 20
12.924
 10
75.507
 20
12.529
 10
73.795
 20
12.529
 10
72.873
 20
12.792
 10
71.912
 20
13.28
 10
71.385
 20
13.675
 10
70.726
 20
14.465
 10
70.239
 20
15.954
 10
70.502
 20
17.271
 10
70.99
 20
18.101
 10
71.951
 20
18.588
 10
73.137
 20
18.588
 10
73.887
 20
18.153
 10
74.098
 20
17.837
 10
74.19
 20
16.876
 10
73.663
 20
16.349
 10
73.005
 20
16.349
 10
72.518
 20
16.573
 10
72.478
 20
16.217
 10
72.702
 20
15.782
 10
73.663
 20
15.295
 10
74.322
 20
15.427
 10
75.02
 20
15.782
 10
75.415
 20
16.178
 10
75.903
 20
17.139
 10
76.034
 20
17.534
 10
76.034
 20
18.72
 10
75.679
 20
19.681
 10
74.888
 20
20.603
 10
73.795
 20
21.222
 10
72.873
 20
21.486
 10
71.161
 20
21.486
 10
69.712
 20
21.091
 10
68.751
 20
20.603
 10
67.697
 20
19.813
 10
66.907
 20
18.759
 10
66.024
 20
16.744
 10
65.892
 20
16.085
 10
65.892
 20
13.714
 10
66.287
 20
12.397
 10
66.907
 20
11.172
 10
67.565
 20
10.25
 10
68.751
 20
9.065
 10
70.766
 20
7.919
 10
72.61
 20
7.392
 10
74.849
 20
7.392
 10
76.522
 20
7.827
 10
75.771
 20
7.919
 10
75.507
 20
7.787
 10
74.849
 20
7.787
 10
74.585
 20
7.919
 10
73.005
 20
8.051
 10
71.253
 20
8.802
 10
69.936
 20
9.724
 10
69.014
 20
10.777
 10
68.263
 20
12.266
 10
68.0
 20
13.188
 10
67.908
 20
14.149
 10
68.0
 20
15.032
 10
68.224
 20
15.519
 10
68.527
 20
14.11
 10
69.409
 20
12.49
 10
70.199
 20
11.699
 10
71.688
 20
10.817
 10
73.005
 20
10.422
 10
74.849
 20
10.29
 10
75.112
 20
10.422
 10
76.298
 20
10.553
 10
77.786
 20
11.172
 10
78.972
 20
11.963
 10
80.025
 20
13.016
 10
81.303
 20
15.295
 10
81.698
 20
16.612
 10
81.698
 20
17.139
 10
81.83
 20
17.403
 10
81.698
 20
19.378
 10
81.171
 20
21.091
 97
0
 75
0
 76
1
 98
0
  0
LWPOLYLINE
  5
37
330
17
100
AcDbEntity
  8
CUT
100
AcDbPolyline
 90
52
 70
1
 10
88.56
 20
26.201
 10
88.574
 20
26.523
 10
88.616
 20
26.819
 10
88.687
 20
27.088
 10
88.786
 20
27.329
 10
88.915
 20
27.543
 10
89.072
 20
27.728
 10
89.257
 20
27.885
 10
89.471
 20
28.014
 10
89.712
 20
28.113
 10
89.981
 20
28.184
 10
90.277
 20
28.226
 10
90.599
 20
28.24
 10
110.801
 20
28.24
 10
111.123
 20
28.226
 10
111.419
 20
28.184
 10
111.688
 20
28.113
 10
111.929
 20
28.014
 10
112.143
 20
27.885
 10
112.328
 20
27.728
 10
112.485
 20
27.543
 10
112.614
 20
27.329
 10
112.713
 20
27.088
 10
112.784
 20
26.819
 10
112.826
 20
26.523
 10
112.84
 20
26.201
 10
112.84
 20
5.999
 10
112.826
 20
5.677
 10
112.784
 20
5.381
 10
112.713
 20
5.112
 10
112.614
 20
4.871
 10
112.485
 20
4.657
 10
112.328
 20
4.472
 10
112.143
 20
4.315
 10
111.929
 20
4.186
 10
111.688
 20
4.087
 10
111.419
 20
4.016
 10
111.123
 20
3.974
 10
110.801
 20
3.96
 10
90.599
 20
3.96
 10
90.277
 20
3.974
 10
89.981
 20
4.016
 10
89.712
 20
4.087
 10
89.471
 20
4.186
 10
89.257
 20
4.315
 10
89.072
 20
4.472
 10
88.915
 20
4.657
 10
88.786
 20
4.871
 10
88.687
 20
5.112
 10
88.616
 20
5.381
 10
88.574
 20
5.677
 10
88.56
 20
5.999
  0
HATCH
  5
38
330
17
100
AcDbEntity
  8
RASTER
 62
7
100
AcDbHatch
 10
0.0
 20
0.0
 30
0.0
210
0.0
220
0.0
230
1.0
  2
SOLID
 70
1
 71
0
 91
3
 92
3
 72
0
 73
1
 93
86
 10
98.874
 20
25.529
 10
101.6
 20
25.569
 10
103.312
 20
25.042
 10
104.932
 20
24.159
 10
106.381
 20
22.842
 10
107.527
 20
20.827
 10
107.922
 20
19.247
 10
107.922
 20
17.403
 10
107.659
 20
16.481
 10
107.698
 20
16.125
 10
108.186
 20
17.007
 10
108.581
 20
18.588
 10
108.581
 20
19.773
 10
108.318
 20
21.091
 10
107.791
 20
22.539
 10
107.883
 20
23.106
 10
108.318
 20
23.33
 10
108.884
 20
23.106
 10
109.279
 20
22.579
 10
110.293
 20
20.432
 10
110.557
 20
19.247
 10
110.557
 20
16.744
 10
110.162
 20
15.163
 10
109.147
 20
13.148
 10
108.752
 20
12.621
 10
107.172
 20
11.172
 10
105.288
 20
10.158
 10
104.498
 20
9.895
 10
102.39
 20
9.631
 10
102.127
 20
9.763
 10
101.205
 20
9.763
 10
99.888
 20
10.158
 10
98.663
 20
10.777
 10
97.741
 20
11.436
 10
97.556
 20
11.778
 10
97.385
 20
11.739
 10
97.873
 20
10.909
 10
98.795
 20
9.987
 10
99.98
 20
9.197
 10
100.81
 20
8.841
 10
102.259
 20
8.446
 10
104.234
 20
8.446
 10
104.498
 20
8.578
 10
105.591
 20
8.485
 10
105.815
 20
8.051
 10
105.591
 20
7.616
 10
104.366
 20
6.997
 10
103.181
 20
6.865
 10
102.917
 20
6.734
 10
100.941
 20
6.734
 10
98.966
 20
7.26
 10
97.214
 20
8.143
 10
96.424
 20
8.67
 10
95.238
 20
9.855
 10
94.448
 20
11.041
 10
93.829
 20
12.397
 10
93.434
 20
13.846
 10
93.434
 20
16.085
 10
93.565
 20
16.744
 10
93.961
 20
17.929
 10
94.843
 20
19.549
 10
96.16
 20
20.867
 10
97.78
 20
21.749
 10
99.097
 20
22.144
 10
100.941
 20
22.144
 10
101.034
 20
22.236
 10
99.756
 20
22.539
 10
99.097
 20
22.539
 10
97.78
 20
22.276
 10
95.897
 20
21.525
 10
94.843
 20
20.867
 10
93.526
 20
19.549
 10
92.643
 20
18.061
 10
92.248
 20
17.007
 10
92.117
 20
16.217
 10
91.893
 20
15.914
 10
91.721
 20
15.822
 10
91.155
 20
15.914
 10
90.799
 20
16.612
 10
90.931
 20
18.061
 10
91.458
 20
19.773
 10
92.34
 20
21.393
 10
93.262
 20
22.579
 10
94.053
 20
23.369
 10
95.37
 20
24.291
 10
96.99
 20
25.042
 97
0
 92
3
 72
0
 73
1
 93
67
 10
100.151
 20
25.042
 10
99.888
 20
24.91
 10
98.307
 20
24.779
 10
96.727
 20
24.252
 10
95.37
 20
23.501
 10
94.316
 20
22.711
 10
93.131
 20
21.393
 10
92.117
 20
19.642
 10
91.59
 20
18.061
 10
91.458
 20
16.744
 10
91.55
 20
16.652
 10
91.721
 20
17.007
 10
91.985
 20
18.061
 10
92.604
 20
19.286
 10
93.262
 20
20.208
 10
94.316
 20
21.262
 10
95.502
 20
22.052
 10
96.858
 20
22.671
 10
98.439
 20
23.066
 10
100.283
 20
23.066
 10
100.941
 20
22.935
 10
101.732
 20
22.671
 10
102.825
 20
22.052
 10
103.747
 20
21.13
 10
104.366
 20
20.037
 10
104.629
 20
19.247
 10
104.761
 20
17.798
 10
104.498
 20
16.876
 10
104.01
 20
15.914
 10
103.352
 20
15.256
 10
102.39
 20
14.768
 10
101.468
 20
14.768
 10
100.902
 20
14.992
 10
100.375
 20
15.387
 10
100.019
 20
16.085
 10
100.019
 20
16.481
 10
100.243
 20
16.915
 10
100.546
 20
17.139
 10
101.205
 20
17.139
 10
101.692
 20
16.915
 10
101.732
 20
17.403
 10
101.376
 20
17.837
 10
100.941
 20
18.061
 10
100.415
 20
18.061
 10
99.717
 20
17.705
 10
99.229
 20
17.007
 10
99.097
 20
16.612
 10
99.097
 20
15.69
 10
99.229
 20
15.295
 10
99.717
 20
14.465
 10
100.112
 20
14.07
 10
101.468
 20
13.319
 10
101.863
 20
13.188
 10
103.839
 20
13.188
 10
104.629
 20
13.451
 10
105.723
 20
14.07
 10
106.118
 20
14.465
 10
106.645
 20
15.256
 10
107.132
 20
16.481
 10
107.132
 20
17.007
 10
107.264
 20
17.271
 10
107.264
 20
19.247
 10
106.869
 20
20.695
 10
106.381
 20
21.657
 10
105.723
 20
22.579
 10
104.274
 20
23.764
 10
101.995
 20
24.779
 97
0
 92
3
 72
0
 73
1
 93
86
 10
108.541
 20
22.5
 10
108.449
 20
22.408
 10
109.108
 20
20.3
 10
109.108
 20
18.061
 10
108.581
 20
16.349
 10
107.962
 20
15.256
 10
107.619
 20
14.939
 10
107.435
 20
14.597
 10
106.513
 20
13.807
 10
105.025
 20
12.924
 10
103.707
 20
12.529
 10
101.995
 20
12.529
 10
101.073
 20
12.792
 10
100.112
 20
13.28
 10
99.585
 20
13.675
 10
98.926
 20
14.465
 10
98.439
 20
15.954
 10
98.702
 20
17.271
 10
99.19
 20
18.101
 10
100.151
 20
18.588
 10
101.337
 20
18.588
 10
102.087
 20
18.153
 10
102.298
 20
17.837
 10
102.39
 20
16.876
 10
101.863
 20
16.349
 10
101.205
 20
16.349
 10
100.718
 20
16.573
 10
100.678
 20
16.217
 10
100.902
 20
15.782
 10
101.863
 20
15.295
 10
102.522
 20
15.427
 10
103.22
 20
15.782
 10
103.615
 20
16.178
 10
104.103
 20
17.139
 10
104.234
 20
17.534
 10
104.234
 20
18.72
 10
103.879
 20
19.681
 10
103.088
 20
20.603
 10
101.995
 20
21.222
 10
101.073
 20
21.486
 10
99.361
 20
21.486
 10
97.912
 20
21.091
 10
96.951
 20
20.603
 10
95.897
 20
19.813
 10
95.107
 20
18.759
 10
94.224
 20
16.744
 10
94.092
 20
16.085
 10
94.092
 20
13.714
 10
94.487
 20
12.397
 10
95.107
 20
11.172
 10
95.765
 20
10.25
 10
96.951
 20
9.065
 10
98.966
 20
7.919
 10
100.81
 20
7.392
 10
103.049
 20
7.392
 10
104.722
 20
7.827
 10
103.971
 20
7.919
 10
103.707
 20
7.787
 10
103.049
 20
7.787
 10
102.785
 20
7.919
 10
101.205
 20
8.051
 10
99.453
 20
8.802
 10
98.136
 20
9.724
 10
97.214
 20
10.777
 10
96.463
 20
12.266
 10
96.2
 20
13.188
 10
96.108
 20
14.149
 10
96.2
 20
15.032
 10
96.424
 20
15.519
 10
96.727
 20
14.11
 10
97.609
 20
12.49
 10
98.399
 20
11.699
 10
99.888
 20
10.817
 10
101.205
 20
10.422
 10
103.049
 20
10.29
 10
103.312
 20
10.422
 10
104.498
 20
10.553
 10
105.986
 20
11.172
 10
107.172
 20
11.963
 10
108.225
 20
13.016
 10
109.503
 20
15.295
 10
109.898
 20
16.612
 10
109.898
 20
17.139
 10
110.03
 20
17.403
 10
109.898
 20
19.378
 10
109.371
 20
21.091
 97
0
 75
0
 76
1
 98
0
  0
ENDSEC
  0
SECTION
  2
OBJECTS
  0
DICTIONARY
  5
A
330
0
100
AcDbDictionary
281
1
  3
ACAD_COLOR
350
B
  3
ACAD_GROUP
350
C
  3
ACAD_LAYOUT
350
D
  3
ACAD_MATERIAL
350
E
  3
ACAD_MLEADERSTYLE
350
F
  3
ACAD_MLINESTYLE
350
10
  3
ACAD_PLOTSETTINGS
350
11
  3
ACAD_PLOTSTYLENAME
350
12
  3
ACAD_SCALELIST
350
14
  3
ACAD_TABLESTYLE
350
15
  3
ACAD_VISUALSTYLE
350
16
  3
EZDXF_META
350
2D
  0
DICTIONARY
  5
B
330
A
100
AcDbDictionary
281
1
  0
DICTIONARY
  5
C
330
A
100
AcDbDictionary
281
1
  0
DICTIONARY
  5
D
330
A
100
AcDbDictionary
281
1
  3
Model
350
1A
  3
Layout1
350
1E
  0
DICTIONARY
  5
E
330
A
100
AcDbDictionary
281
1
  3
ByBlock
350
1F
  3
ByLayer
350
20
  3
Global
350
21
  0
DICTIONARY
  5
F
330
A
100
AcDbDictionary
281
1
  3
Standard
350
2C
  0
DICTIONARY
  5
10
330
A
100
AcDbDictionary
281
1
  3
Standard
350
22
  0
DICTIONARY
  5
11
330
A
100
AcDbDictionary
281
1
  0
ACDBDICTIONARYWDFLT
  5
12
330
A
100
AcDbDictionary
281
1
  3
Normal
350
13
100
AcDbDictionaryWithDefault
340
13
  0
ACDBPLACEHOLDER
  5
13
330
12
  0
DICTIONARY
  5
14
330
A
100
AcDbDictionary
281
1
  0
DICTIONARY
  5
15
330
A
100
AcDbDictionary
281
1
  0
DICTIONARY
  5
16
330
A
100
AcDbDictionary
281
1
  0
LAYOUT
  5
1A
330
D
100
AcDbPlotSettings
  1

  4
A3
  6

 40
7.5
 41
20.0
 42
7.5
 43
20.0
 44
420.0
 45
297.0
 46
0.0
 47
0.0
 48
0.0
 49
0.0
140
0.0
141
0.0
142
1.0
143
1.0
 70
1024
 72
1
 73
0
 74
5
  7

 75
16
 76
0
 77
2
 78
300
147
1.0
148
0.0
149
0.0
100
AcDbLayout
  1
Model
 70
1
 71
0
 10
0.0
 20
0.0
 11
420.0
 21
297.0
 12
0.0
 22
0.0
 32
0.0
 14
1e+20
 24
1e+20
 34
1e+20
 15
-1e+20
 25
-1e+20
 35
-1e+20
146
0.0
 13
0.0
 23
0.0
 33
0.0
 16
1.0
 26
0.0
 36
0.0
 17
0.0
 27
1.0
 37
0.0
 76
1
330
17
  0
LAYOUT
  5
1E
330
D
100
AcDbPlotSettings
  1

  4
A3
  6

 40
7.5
 41
20.0
 42
7.5
 43
20.0
 44
420.0
 45
297.0
 46
0.0
 47
0.0
 48
0.0
 49
0.0
140
0.0
141
0.0
142
1.0
143
1.0
 70
0
 72
1
 73
0
 74
5
  7

 75
16
 76
0
 77
2
 78
300
147
1.0
148
0.0
149
0.0
100
AcDbLayout
  1
Layout1
 70
1
 71
1
 10
0.0
 20
0.0
 11
420.0
 21
297.0
 12
0.0
 22
0.0
 32
0.0
 14
1e+20
 24
1e+20
 34
1e+20
 15
-1e+20
 25
-1e+20
 35
-1e+20
146
0.0
 13
0.0
 23
0.0
 33
0.0
 16
1.0
 26
0.0
 36
0.0
 17
0.0
 27
1.0
 37
0.0
 76
1
330
1B
  0
MATERIAL
  5
1F
102
{ACAD_REACTORS
330
E
102
}
330
E
100
AcDbMaterial
  1
ByBlock
  2

 70
0
 40
1.0
 71
1
 41
1.0
 91
-1023410177
 42
1.0
 72
1
  3

 73
1
 74
1
 75
1
 44
0.5
 73
0
 45
1.0
 46
1.0
 77
1
  4

 78
1
 79
1
170
1
 48
1.0
171
1
  6

172
1
173
1
174
1
140
1.0
141
1.0
175
1
  7

176
1
177
1
178
1
143
1.0
179
1
  8

270
1
271
1
272
1
145
1.0
146
1.0
273
1
  9

274
1
275
1
276
1
 42
1.0
 72
1
  3

 73
1
 74
1
 75
1
 94
63
  0
MATERIAL
  5
20
102
{ACAD_REACTORS
330
E
102
}
330
E
100
AcDbMaterial
  1
ByLayer
  2

 70
0
 40
1.0
 71
1
 41
1.0
 91
-1023410177
 42
1.0
 72
1
  3

 73
1
 74
1
 75
1
 44
0.5
 73
0
 45
1.0
 46
1.0
 77
1
  4

 78
1
 79
1
170
1
 48
1.0
171
1
  6

172
1
173
1
174
1
140
1.0
141
1.0
175
1
  7

176
1
177
1
178
1
143
1.0
179
1
  8

270
1
271
1
272
1
145
1.0
146
1.0
273
1
  9

274
1
275
1
276
1
 42
1.0
 72
1
  3

 73
1
 74
1
 75
1
 94
63
  0
MATERIAL
  5
21
102
{ACAD_REACTORS
330
E
102
}
330
E
100
AcDbMaterial
  1
Global
  2

 70
0
 40
1.0
 71
1
 41
1.0
 91
-1023410177
 42
1.0
 72
1
  3

 73
1
 74
1
 75
1
 44
0.5
 73
0
 45
1.0
 46
1.0
 77
1
  4

 78
1
 79
1
170
1
 48
1.0
171
1
  6

172
1
173
1
174
1
140
1.0
141
1.0
175
1
  7

176
1
177
1
178
1
143
1.0
179
1
  8

270
1
271
1
272
1
145
1.0
146
1.0
273
1
  9

274
1
275
1
276
1
 42
1.0
 72
1
  3

 73
1
 74
1
 75
1
 94
63
  0
MLINESTYLE
  5
22
102
{ACAD_REACTORS
330
10
102
}
330
10
100
AcDbMlineStyle
  2
Standard
 70
0
  3

 62
256
 51
90.0
 52
90.0
 71
2
 49
0.5
 62
256
  6
BYLAYER
 49
-0.5
 62
256
  6
BYLAYER
  0
MLEADERSTYLE
  5
2C
102
{ACAD_REACTORS
330
F
102
}
330
F
100
AcDbMLeaderStyle
179
2
170
2
171
1
172
0
 90
2
 40
0.0
 41
0.0
173
1
 91
-1056964608
 92
-2
290
1
 42
2.0
291
1
 43
8.0
  3
Standard
 44
4.0
300

342
29
174
1
175
1
176
0
178
1
 93
-1056964608
 45
4.0
292
0
297
0
 46
4.0
 94
-1056964608
 47
1.0
 49
1.0
140
1.0
294
1
141
0.0
177
0
142
1.0
295
0
296
0
143
3.75
271
0
272
9
273
9
  0
DICTIONARY
  5
2D
330
A
100
AcDbDictionary
280
1
281
1
  3
CREATED_BY_EZDXF
350
2E
  3
WRITTEN_BY_EZDXF
350
3B
  0
DICTIONARYVAR
  5
2E
330
2D
100
DictionaryVariables
280
0
  1
1.4.2 @ 2026-08-25T23:57:12.491387+00:00
  0
DICTIONARYVAR
  5
3B
330
2D
100
DictionaryVariables
280
0
  1
1.4.2 @ 2026-08-25T23:57:12.492621+00:00
  0
ENDSEC
  0
EOF
